<?xml version="1.0" encoding="utf-8"?>
<!-- Generator: Adobe Illustrator 16.0.0, SVG Export Plug-In . SVG Version: 6.00 Build 0)  -->
<!DOCTYPE svg PUBLIC "-//W3C//DTD SVG 1.1//EN" "http://www.w3.org/Graphics/SVG/1.1/DTD/svg11.dtd">
<svg version="1.1" id="Layer_1" xmlns="http://www.w3.org/2000/svg" xmlns:xlink="http://www.w3.org/1999/xlink" x="0px" y="0px"
	 width="128px" height="128px" viewBox="0 0 128 128" enable-background="new 0 0 128 128" xml:space="preserve">
<g>
	<g>
		<path fill="#1976D2" d="M15.056,87h95.099c3.883,0,6.394-3,6.752-8H7.99C8.315,85,10.96,87,15.056,87z"/>
		<path fill="#64B5F6" d="M117,77.455c0-5.63-4.436-9.455-11.791-9.455h-7.125C82.935,68,54.867,37.418,53.68,36.106
			c-0.06-0.066-0.101-0.031-0.119-0.118L47.361,6.141L12,13.143v35.731c0,0.105-0.033,0.208-0.095,0.293
			C9.277,52.8,8,56.062,8,59.141V79h109V77.455z"/>
		<path fill="#D50000" d="M6.041,57.746c0.01-0.08,0.025-0.162,0.036-0.242C6.066,57.585,6.051,57.664,6.041,57.746z"/>
		<path fill="#D50000" d="M6.298,56.273c0.001-0.007,0.003-0.015,0.005-0.021C6.301,56.259,6.299,56.267,6.298,56.273z"/>
		<path fill="#FBC02D" d="M1.919,96.17c3.29-5,8.698-7.453,15.079-7.723l93.774,0.024c6.423,0.279,12.029,2.927,15.311,7.654
			L120.58,102H6.705L1.919,96.17z"/>
		<g>
			<path fill="#D50000" d="M47.977,121.887c7.985,0,14.481-6.497,14.481-14.482s-6.496-14.482-14.481-14.482
				s-14.482,6.497-14.482,14.482S39.991,121.887,47.977,121.887z"/>
			<path fill="#D50000" d="M47.977,121.887c7.985,0,14.481-6.497,14.481-14.482s-6.496-14.482-14.481-14.482
				s-14.482,6.497-14.482,14.482S39.991,121.887,47.977,121.887z"/>
			<path fill="#BF360C" d="M47.977,121.887c7.985,0,14.481-6.497,14.481-14.482s-6.496-14.482-14.481-14.482
				s-14.482,6.497-14.482,14.482S39.991,121.887,47.977,121.887z"/>
		</g>
		<g>
			<path fill="#D50000" d="M79.014,92.922c-7.985,0-14.482,6.497-14.482,14.482s6.497,14.482,14.482,14.482
				s14.481-6.497,14.481-14.482S86.999,92.922,79.014,92.922z"/>
			<path fill="#D50000" d="M79.014,92.922c-7.985,0-14.482,6.497-14.482,14.482s6.497,14.482,14.482,14.482
				s14.481-6.497,14.481-14.482S86.999,92.922,79.014,92.922z"/>
			<path fill="#BF360C" d="M79.014,92.922c-7.985,0-14.482,6.497-14.482,14.482s6.497,14.482,14.482,14.482
				s14.481-6.497,14.481-14.482S86.999,92.922,79.014,92.922z"/>
		</g>
		<g>
			<path fill="#D50000" d="M18.012,92.922c-7.985,0-14.482,6.497-14.482,14.482s6.497,14.482,14.482,14.482
				c7.986,0,14.482-6.497,14.482-14.482S25.998,92.922,18.012,92.922z"/>
			<path fill="#D50000" d="M18.012,92.922c-7.985,0-14.482,6.497-14.482,14.482s6.497,14.482,14.482,14.482
				c7.986,0,14.482-6.497,14.482-14.482S25.998,92.922,18.012,92.922z"/>
			<path fill="#BF360C" d="M18.012,92.922c-7.985,0-14.482,6.497-14.482,14.482s6.497,14.482,14.482,14.482
				c7.986,0,14.482-6.497,14.482-14.482S25.998,92.922,18.012,92.922z"/>
		</g>
		<g>
			<path fill="#D50000" d="M108.978,121.887c7.985,0,14.481-6.497,14.481-14.482s-6.496-14.482-14.481-14.482
				s-14.482,6.497-14.482,14.482S100.992,121.887,108.978,121.887z"/>
			<path fill="#D50000" d="M108.978,121.887c7.985,0,14.481-6.497,14.481-14.482s-6.496-14.482-14.481-14.482
				s-14.482,6.497-14.482,14.482S100.992,121.887,108.978,121.887z"/>
			<path fill="#BF360C" d="M108.978,121.887c7.985,0,14.481-6.497,14.481-14.482s-6.496-14.482-14.481-14.482
				s-14.482,6.497-14.482,14.482S100.992,121.887,108.978,121.887z"/>
		</g>
		<path fill="#E57373" d="M20.712,100.467c-0.855-0.333-1.768-0.504-2.7-0.504c-4.103,0-7.441,3.338-7.441,7.441
			s3.339,7.441,7.441,7.441c4.104,0,7.441-3.338,7.441-7.441c0-0.798-0.15-1.619-0.489-2.66
			C24.034,101.882,20.745,100.48,20.712,100.467z"/>
		<path fill="#E57373" d="M47.977,114.846c4.104,0,7.441-3.338,7.441-7.441c0-1.038-0.154-1.893-0.471-2.613
			c-1.215-2.763-4.273-4.324-4.305-4.339c-0.822-0.318-1.733-0.489-2.666-0.489c-4.103,0-7.441,3.338-7.441,7.441
			S43.874,114.846,47.977,114.846z"/>
		<path fill="#E57373" d="M81.677,100.45c-0.82-0.316-1.731-0.487-2.663-0.487c-4.104,0-7.442,3.338-7.442,7.441
			s3.339,7.441,7.442,7.441c4.103,0,7.44-3.338,7.44-7.441c0-1.063-0.153-1.916-0.468-2.607
			C84.731,102.038,81.707,100.466,81.677,100.45z"/>
		<path fill="#E57373" d="M108.978,114.846c4.104,0,7.441-3.338,7.441-7.441c0-0.92-0.161-1.807-0.48-2.635
			c-1.112-2.896-4.238-4.293-4.27-4.307c-0.848-0.329-1.76-0.5-2.691-0.5c-4.104,0-7.442,3.338-7.442,7.441
			S104.874,114.846,108.978,114.846z"/>
	</g>
	<g>
		<path fill="none" stroke="#263238" stroke-width="2" stroke-linecap="round" stroke-linejoin="round" stroke-miterlimit="10" d="
			M105.209,67.5h-7.125c-15.101,0-44.034-31.729-44.034-31.729l-6.3-30.273L11.5,12.731v36.143c-2,2.765-4,6.331-4,10.267v20.398
			c0,4.832,2.557,7.961,7.556,7.961h17.259h1.228h76.612c4.322,0,7.346-3.574,7.346-7.896v-2.148
			C117.5,72.373,113.873,67.5,105.209,67.5z"/>
		
			<line fill="none" stroke="#263238" stroke-width="2" stroke-linecap="round" stroke-linejoin="round" stroke-miterlimit="10" x1="114" y1="79.5" x2="117" y2="79.5"/>
		
			<line fill="none" stroke="#263238" stroke-width="2" stroke-linecap="round" stroke-linejoin="round" stroke-miterlimit="10" x1="8" y1="79.5" x2="106" y2="79.5"/>
		
			<line fill="none" stroke="#263238" stroke-width="2" stroke-linecap="round" stroke-linejoin="round" stroke-miterlimit="10" x1="45.028" y1="14.934" x2="49.117" y2="14.111"/>
		
			<line fill="none" stroke="#263238" stroke-width="2" stroke-linecap="round" stroke-linejoin="round" stroke-miterlimit="10" x1="11.934" y1="21.588" x2="35.736" y2="16.802"/>
		
			<circle fill="none" stroke="#263238" stroke-width="2" stroke-linecap="round" stroke-linejoin="round" stroke-miterlimit="10" cx="18.012" cy="107.404" r="14.982"/>
		
			<circle fill="none" stroke="#263238" stroke-width="2" stroke-linecap="round" stroke-linejoin="round" stroke-miterlimit="10" cx="47.976" cy="107.404" r="14.982"/>
		
			<circle fill="none" stroke="#263238" stroke-width="2" stroke-linecap="round" stroke-linejoin="round" stroke-miterlimit="10" cx="79.013" cy="107.404" r="14.982"/>
		
			<circle fill="none" stroke="#263238" stroke-width="2" stroke-linecap="round" stroke-linejoin="round" stroke-miterlimit="10" cx="108.977" cy="107.404" r="14.982"/>
		<path fill="none" stroke="#263238" stroke-width="2" stroke-linecap="round" stroke-linejoin="round" stroke-miterlimit="10" d="
			M26.44,104.59c0.331,0.875,0.513,1.824,0.513,2.814c0,4.387-3.556,7.941-7.94,7.941c-4.387,0-7.942-3.555-7.942-7.941
			c0-4.386,3.556-7.941,7.942-7.941c1.02,0,1.995,0.193,2.891,0.542"/>
		<path fill="none" stroke="#263238" stroke-width="2" stroke-linecap="round" stroke-linejoin="round" stroke-miterlimit="10" d="
			M55.404,104.59c0.332,0.875,0.514,1.824,0.514,2.814c0,4.387-3.556,7.941-7.941,7.941s-7.941-3.555-7.941-7.941
			c0-4.386,3.556-7.941,7.941-7.941c1.02,0,1.995,0.193,2.891,0.542"/>
		<path fill="none" stroke="#263238" stroke-width="2" stroke-linecap="round" stroke-linejoin="round" stroke-miterlimit="10" d="
			M86.441,104.59c0.332,0.875,0.513,1.824,0.513,2.814c0,4.387-3.555,7.941-7.94,7.941c-4.387,0-7.942-3.555-7.942-7.941
			c0-4.386,3.556-7.941,7.942-7.941c1.02,0,1.995,0.193,2.892,0.542"/>
		<path fill="none" stroke="#263238" stroke-width="2" stroke-linecap="round" stroke-linejoin="round" stroke-miterlimit="10" d="
			M116.405,104.59c0.332,0.875,0.514,1.824,0.514,2.814c0,4.387-3.556,7.941-7.941,7.941s-7.942-3.555-7.942-7.941
			c0-4.386,3.557-7.941,7.942-7.941c1.021,0,1.995,0.193,2.892,0.542"/>
		<path fill="none" stroke="#263238" stroke-width="2" stroke-linecap="round" stroke-linejoin="round" stroke-miterlimit="10" d="
			M1,96.908c2.842-4.597,7.496-7.956,12.965-9.081"/>
		
			<line fill="none" stroke="#263238" stroke-width="2" stroke-linecap="round" stroke-linejoin="round" stroke-miterlimit="10" x1="1" y1="96.908" x2="5.148" y2="99.721"/>
		<path fill="none" stroke="#263238" stroke-width="2" stroke-linecap="round" stroke-linejoin="round" stroke-miterlimit="10" d="
			M127,96.908c-3.018-4.881-8.078-8.365-13.989-9.263"/>
		
			<line fill="none" stroke="#263238" stroke-width="2" stroke-linecap="round" stroke-linejoin="round" stroke-miterlimit="10" x1="127" y1="96.908" x2="122.851" y2="99.721"/>
	</g>
</g>
</svg>
