<?xml version="1.0" encoding="utf-8"?>
<!-- Generator: Adobe Illustrator 16.0.0, SVG Export Plug-In . SVG Version: 6.00 Build 0)  -->
<!DOCTYPE svg PUBLIC "-//W3C//DTD SVG 1.1//EN" "http://www.w3.org/Graphics/SVG/1.1/DTD/svg11.dtd">
<svg version="1.1" id="Layer_1" xmlns="http://www.w3.org/2000/svg" xmlns:xlink="http://www.w3.org/1999/xlink" x="0px" y="0px"
	 width="128px" height="128px" viewBox="0 0 128 128" enable-background="new 0 0 128 128" xml:space="preserve">
<g>
	<g>
		<path fill="#E57373" d="M67.191,32.926c-15.003-15.004-39.415-15.004-54.418,0C5.505,40.193,1.502,49.856,1.502,60.134
			c0,10.278,4.002,19.941,11.271,27.209c15.003,15.004,39.415,15.004,54.418,0c0.006-0.006,0.012-0.012,0.018-0.018
			c7.281-7.162,19.032-7.126,26.266,0.109c0.007,0.006,0.013,0.013,0.019,0.02l17.871,17.87c1.314,1.316,3.635,1.316,4.949,0
			l9.163-9.163c0.658-0.658,1.021-1.537,1.021-2.476c0-0.938-0.362-1.816-1.021-2.475L67.191,32.926z M62.978,83.13
			c-6.142,6.143-14.309,9.525-22.996,9.525s-16.854-3.383-22.996-9.525c-12.68-12.68-12.68-33.312,0-45.991
			c6.142-6.143,14.309-9.525,22.996-9.525s16.854,3.383,22.996,9.525C75.658,49.818,75.658,70.45,62.978,83.13z"/>
		<path fill="#FFAB91" d="M40.982,28.613c-8.419,0-16.335,3.279-22.289,9.232c-12.29,12.29-12.29,32.287,0,44.577
			c5.954,5.953,13.869,9.232,22.289,9.232s16.335-3.279,22.289-9.232c12.29-12.29,12.29-32.287,0-44.577
			C57.317,31.893,49.402,28.613,40.982,28.613z"/>
		<path fill="#BF360C" d="M40.982,32.612c-7.351,0-14.262,2.863-19.46,8.062c-10.729,10.73-10.729,28.19,0,38.92
			c5.198,5.198,12.109,8.062,19.46,8.062c7.352,0,14.263-2.863,19.461-8.062c4.442-4.441,7.167-10.081,7.88-16.307l0.032-6.035
			c-0.641-6.211-3.451-12.117-7.912-16.578C55.245,35.476,48.333,32.612,40.982,32.612z"/>
	</g>
	<g>
		<path fill="none" stroke="#263238" stroke-width="2" stroke-linecap="round" stroke-linejoin="round" stroke-miterlimit="10" d="
			M93.009,87.677l18.002,18.001c1.555,1.556,4.102,1.556,5.656,0l9.163-9.163c1.556-1.556,1.556-4.102,0-5.657L67.545,32.572
			c-15.223-15.223-39.903-15.223-55.125,0c-15.223,15.222-15.223,39.902,0,55.124c15.222,15.223,39.902,15.223,55.125,0
			l-0.092,0.092c7.088-7.088,18.581-7.088,25.669,0"/>
		
			<circle fill="none" stroke="#263238" stroke-width="2" stroke-linecap="round" stroke-linejoin="round" stroke-miterlimit="10" cx="39.982" cy="60.134" r="32.021"/>
		<path fill="none" stroke="#263238" stroke-width="2" stroke-linecap="round" stroke-linejoin="round" stroke-miterlimit="10" d="
			M67.82,63.344c-0.696,6.067-3.37,11.95-8.024,16.604c-10.943,10.943-28.685,10.943-39.627,0
			c-10.943-10.942-10.943-28.684,0-39.627s28.685-10.943,39.627,0c4.738,4.738,7.425,10.751,8.06,16.935"/>
	</g>
</g>
</svg>
