<?xml version="1.0" encoding="utf-8"?>
<!-- Generator: Adobe Illustrator 16.0.0, SVG Export Plug-In . SVG Version: 6.00 Build 0)  -->
<!DOCTYPE svg PUBLIC "-//W3C//DTD SVG 1.1//EN" "http://www.w3.org/Graphics/SVG/1.1/DTD/svg11.dtd">
<svg version="1.1" id="Layer_1" xmlns="http://www.w3.org/2000/svg" xmlns:xlink="http://www.w3.org/1999/xlink" x="0px" y="0px"
	 width="128px" height="128px" viewBox="0 0 128 128" enable-background="new 0 0 128 128" xml:space="preserve">
<g>
	<g>
		<path fill="#BCAAA4" d="M102.241,54.287c-12.949,0-23.484,10.536-23.484,23.485c0,12.949,10.535,23.484,23.484,23.484
			s23.484-10.535,23.484-23.484C125.726,64.822,115.19,54.287,102.241,54.287z M102.241,98.197
			c-11.263,0-20.426-9.163-20.426-20.425s9.163-20.426,20.426-20.426c4.374,0,8.545,1.362,12.062,3.939l4.312,4.283
			c2.668,3.592,4.052,7.792,4.052,12.203C122.667,89.035,113.504,98.197,102.241,98.197z"/>
		<path fill="#BCAAA4" d="M24.259,101.256c12.949,0,23.484-10.535,23.484-23.484c0-12.95-10.535-23.485-23.484-23.485
			S1.875,64.822,1.875,77.771C1.875,90.721,11.31,101.256,24.259,101.256z M24.259,57.346c4.374,0,8.545,1.362,12.061,3.939
			l4.313,4.283c2.667,3.592,4.052,7.792,4.052,12.203c0,11.263-9.163,20.425-20.426,20.425S3.833,89.035,3.833,77.772
			S12.996,57.346,24.259,57.346z"/>
		<path fill="#D50000" d="M75.374,32.744c-0.138,0-0.271-0.02-0.403-0.041C75.101,32.729,75.236,32.744,75.374,32.744z"/>
		<path fill="#D50000" d="M89.486,32.703c-0.132,0.021-0.265,0.041-0.403,0.041C89.222,32.744,89.356,32.729,89.486,32.703z"/>
		<path fill="#E57373" d="M73.874,30.5c0,0.827,0.673,1.5,1.5,1.5h13.709c0.827,0,1.5-0.673,1.5-1.5s-0.673-1.5-1.5-1.5H75.374
			C74.547,29,73.874,29.673,73.874,30.5z"/>
		<circle fill="#D50000" cx="102.241" cy="77.772" r="2.53"/>
		<circle fill="#D50000" cx="24.259" cy="77.772" r="2.53"/>
		<path fill="#D84315" d="M63.16,71.21c-3.618,0-6.562,2.943-6.562,6.562s2.943,6.562,6.562,6.562s6.562-2.943,6.562-6.562
			S66.778,71.21,63.16,71.21z M63.16,81.118c-1.845,0-3.347-1.501-3.347-3.346s1.501-3.347,3.347-3.347s3.347,1.502,3.347,3.347
			S65.005,81.118,63.16,81.118z"/>
		<circle fill="#D50000" cx="63.16" cy="77.771" r="2.346"/>
		<rect x="54" y="90" fill="#D50000" width="8" height="2"/>
		<rect x="63" y="64" fill="#37474F" width="8" height="2"/>
	</g>
	<g>
		<path fill="none" stroke="#263238" stroke-width="2" stroke-linecap="round" stroke-linejoin="round" stroke-miterlimit="10" d="
			M126.625,77.771c0,13.247-10.138,23.985-23.384,23.985c-13.247,0-23.985-10.738-23.985-23.984
			c0-13.247,10.738-23.985,23.985-23.985C116.487,53.787,126.625,64.524,126.625,77.771z"/>
		<path fill="none" stroke="#263238" stroke-width="2" stroke-linecap="round" stroke-linejoin="round" stroke-miterlimit="10" d="
			M25.146,78.096L35.123,39.5c-10.134,0-9.864-13-0.157-13c2.258,0,2.035,0,2.035,0"/>
		
			<line fill="none" stroke="#263238" stroke-width="2" stroke-linecap="round" stroke-linejoin="round" stroke-miterlimit="10" x1="67.006" y1="71.31" x2="86.066" y2="32.754"/>
		<g>
			<path fill="none" stroke="#263238" stroke-width="2" stroke-linecap="round" stroke-linejoin="round" stroke-miterlimit="10" d="
				M90.083,32.5H76.375c-1.104,0-2-0.896-2-2s0.896-2,2-2h13.708c1.104,0,2,0.896,2,2S91.188,32.5,90.083,32.5z"/>
		</g>
		<path fill="none" stroke="#263238" stroke-width="2" stroke-linecap="round" stroke-linejoin="round" stroke-miterlimit="10" d="
			M119.263,65.923c2.453,3.312,3.904,7.411,3.904,11.849c0,11.005-8.921,19.925-19.926,19.925c-11.006,0-19.926-8.92-19.926-19.925
			c0-11.006,8.92-19.926,19.926-19.926c4.4,0,8.469,1.426,11.766,3.842"/>
		<path fill="none" stroke="#263238" stroke-width="2" stroke-linecap="round" stroke-linejoin="round" stroke-miterlimit="10" d="
			M41.28,65.923c2.453,3.312,3.904,7.411,3.904,11.849c0,11.005-8.92,19.925-19.926,19.925c-11.005,0-19.926-8.92-19.926-19.925
			c0-11.006,8.921-19.926,19.926-19.926c4.401,0,8.469,1.426,11.766,3.842"/>
		<path fill="none" stroke="#263238" stroke-width="2" stroke-linecap="round" stroke-linejoin="round" stroke-miterlimit="10" d="
			M49.243,77.772c0,13.247-10.738,23.984-23.985,23.984c-13.247,0-23.383-10.738-23.383-23.985
			c0-13.247,10.137-23.985,23.383-23.985C38.505,53.787,49.243,64.525,49.243,77.772z"/>
		
			<polyline fill="none" stroke="#263238" stroke-width="2" stroke-linecap="round" stroke-linejoin="round" stroke-miterlimit="10" points="
			71,78.5 103.241,78.5 82.811,39.5 35.123,39.5 59.119,73.233 		"/>
		
			<circle fill="none" stroke="#263238" stroke-width="2" stroke-linecap="round" stroke-linejoin="round" stroke-miterlimit="10" cx="103.241" cy="77.772" r="3.029"/>
		
			<circle fill="none" stroke="#263238" stroke-width="2" stroke-linecap="round" stroke-linejoin="round" stroke-miterlimit="10" cx="25.259" cy="77.772" r="3.03"/>
		
			<circle fill="none" stroke="#263238" stroke-width="2" stroke-linecap="round" stroke-linejoin="round" stroke-miterlimit="10" cx="64.16" cy="77.772" r="7.062"/>
		
			<circle fill="none" stroke="#263238" stroke-width="2" stroke-linecap="round" stroke-linejoin="round" stroke-miterlimit="10" cx="64.16" cy="77.772" r="2.846"/>
		
			<line fill="none" stroke="#263238" stroke-width="2" stroke-linecap="round" stroke-linejoin="round" stroke-miterlimit="10" x1="63.5" y1="78" x2="63.5" y2="89"/>
		
			<line fill="none" stroke="#263238" stroke-width="2" stroke-linecap="round" stroke-linejoin="round" stroke-miterlimit="10" x1="63.5" y1="64" x2="63.5" y2="71"/>
		
			<rect x="54.5" y="89.5" fill="none" stroke="#263238" stroke-width="2" stroke-linecap="round" stroke-linejoin="round" stroke-miterlimit="10" width="9" height="3"/>
		
			<rect x="63.5" y="63.5" fill="none" stroke="#263238" stroke-width="2" stroke-linecap="round" stroke-linejoin="round" stroke-miterlimit="10" width="9" height="4"/>
		
			<line fill="none" stroke="#263238" stroke-width="2" stroke-linecap="round" stroke-linejoin="round" stroke-miterlimit="10" x1="64.16" y1="70.71" x2="103.241" y2="74.742"/>
		
			<line fill="none" stroke="#263238" stroke-width="2" stroke-linecap="round" stroke-linejoin="round" stroke-miterlimit="10" x1="103.241" y1="80.801" x2="64.16" y2="84.833"/>
	</g>
</g>
</svg>
