<?xml version="1.0" encoding="utf-8"?>
<!-- Generator: Adobe Illustrator 16.0.0, SVG Export Plug-In . SVG Version: 6.00 Build 0)  -->
<!DOCTYPE svg PUBLIC "-//W3C//DTD SVG 1.1//EN" "http://www.w3.org/Graphics/SVG/1.1/DTD/svg11.dtd">
<svg version="1.1" id="Layer_1" xmlns="http://www.w3.org/2000/svg" xmlns:xlink="http://www.w3.org/1999/xlink" x="0px" y="0px"
	 width="128px" height="128px" viewBox="0 0 128 128" enable-background="new 0 0 128 128" xml:space="preserve">
<g>
	<g>
		<polygon fill="#E0F2F1" points="54.021,84 54.553,90 58.657,90 58.429,84 		"/>
		<polygon fill="#E0F2F1" points="59.432,84 59.659,90 63,90 63,84 		"/>
		<polygon fill="#E0F2F1" points="64,84 64,90 68.889,90 69.272,84 		"/>
		<path fill="#E0F2F1" d="M10,2v88h33.318l-1.138-6H17h-1v-0.75V8.75v-0.5C16,7.974,16.724,8,17,8h94c0.276,0,0-0.026,0,0.25v75
			c0,0.276,0.276,0.75,0,0.75h-0.5H86.542l-1.292,6H117V2H10z"/>
		<polygon fill="#E0F2F1" points="75.702,84 75.017,90 79.12,90 80.108,84 		"/>
		<polygon fill="#E0F2F1" points="70.288,84 69.908,90 74.011,90 74.696,84 		"/>
		<polygon fill="#E0F2F1" points="47.6,84 43.197,84 44.335,90 48.434,90 		"/>
		<polygon fill="#E0F2F1" points="80.132,90 84.227,90 85.519,84 81.122,84 		"/>
		<polygon fill="#E0F2F1" points="53.018,84 48.609,84 49.444,90 53.549,90 		"/>
		<polygon fill="#D50000" points="81.781,80 81.286,83 85.734,83 86.38,80 		"/>
		<polygon fill="#D50000" points="48.052,80 48.47,83 52.929,83 52.664,80 		"/>
		<path fill="#EF5350" d="M21,80h-1v-0.75v-66.5v-0.5c0-0.276,0.724-0.25,1-0.25h75.5c0.276,0,0.5,0.224,0.5,0.5S96.776,13,96.5,13
			h8c-0.276,0-0.5-0.224-0.5-0.5s0.224-0.5,0.5-0.5h2.5c0.276,0,0-0.026,0,0.25v67c0,0.276,0.276,0.75,0,0.75h-0.5H87.404l-0.646,3
			H110V9H17v74h24.99l-0.569-3H21z"/>
		<polygon fill="#D50000" points="53.667,80 53.933,83 58.391,83 58.277,80 		"/>
		<polygon fill="#D50000" points="70.351,83 74.811,83 75.153,80 70.541,80 		"/>
		<polygon fill="#D50000" points="64,80 64,83 69.336,83 69.528,80 		"/>
		<polygon fill="#D50000" points="59.281,80 59.394,83 63,83 63,80 		"/>
		<polygon fill="#D50000" points="42.438,80 43.008,83 47.46,83 47.043,80 		"/>
		<polygon fill="#D50000" points="75.816,83 80.273,83 80.768,80 76.159,80 		"/>
		<path fill="#D50000" d="M15.5,83.25v0.5H16C15.724,83.75,15.5,83.526,15.5,83.25z"/>
		<path fill="#D50000" d="M19.5,79.25v0.5H20C19.724,79.75,19.5,79.526,19.5,79.25z"/>
		<polygon fill="#EEEEEE" points="76.959,73 76.273,79 80.933,79 81.921,73 		"/>
		<polygon fill="#EEEEEE" points="82.935,73 81.945,79 86.596,79 87.888,73 		"/>
		<path fill="#EEEEEE" d="M21,79h20.231l-1.138-6h-0.552c-0.207,0-0.408-0.146-0.604-0.188c-1.62-0.297-2.896-1.684-2.896-3.375
			c0-1.897,1.603-3.438,3.5-3.438h49.9c1.897,0,3.5,1.478,3.5,3.375c0,1.691-1.276,3.203-2.896,3.5
			C89.85,72.916,89.647,73,89.441,73H88c0,0,0-0.242,0-0.238L87.619,79H106V13h-1.5h-8H21V79z"/>
		<polygon fill="#EEEEEE" points="41.11,73 42.249,79 46.904,79 46.069,73 		"/>
		<polygon fill="#EEEEEE" points="63,79 63,73 59.016,73 59.243,79 		"/>
		<path fill="#EEEEEE" d="M58.24,79l-0.226-5.95c0-0.017,0.007-0.05,0.008-0.05h-4.975l0.532,6H58.24z"/>
		<polygon fill="#EEEEEE" points="69.592,79 69.975,73 64,73 64,79 		"/>
		<polygon fill="#EEEEEE" points="52.043,73 47.078,73 47.913,79 52.575,79 		"/>
		<polygon fill="#EEEEEE" points="75.268,79 75.953,73 70.983,73 70.604,79 		"/>
		<path fill="#D50000" d="M89.045,72.688c-0.197,0.035-0.397,0.062-0.604,0.062C88.647,72.75,88.85,72.729,89.045,72.688z"/>
		<path fill="#D50000" d="M38.541,72.75c-0.206,0-0.406-0.027-0.604-0.062C38.133,72.729,38.334,72.75,38.541,72.75z"/>
		<path fill="#BF360C" d="M37.041,69.5c0,1.355,1.145,2.5,2.5,2.5h49.9c1.355,0,2.5-1.145,2.5-2.5s-1.145-2.5-2.5-2.5h-49.9
			C38.186,67,37.041,68.145,37.041,69.5z"/>
	</g>
	<g>
		
			<rect x="9.5" y="1.5" fill="none" stroke="#263238" stroke-width="2" stroke-linecap="round" stroke-linejoin="round" stroke-miterlimit="10" width="108" height="89"/>
		
			<polyline fill="none" stroke="#263238" stroke-width="2" stroke-linecap="round" stroke-linejoin="round" stroke-miterlimit="10" points="
			104,12.5 106.5,12.5 106.5,79.5 20.5,79.5 20.5,12.5 96,12.5 		"/>
		<path fill="none" stroke="#263238" stroke-width="2" stroke-linecap="round" stroke-linejoin="round" stroke-miterlimit="10" d="
			M92.441,69.5c0,1.613-1.351,3-3,3h-49.9c-1.65,0-3-1.387-3-3s1.35-3,3-3h49.9C91.091,66.5,92.441,67.887,92.441,69.5z"/>
		
			<line fill="none" stroke="#263238" stroke-width="2" stroke-linecap="round" stroke-linejoin="round" stroke-miterlimit="10" x1="64.491" y1="72.5" x2="64.495" y2="111.833"/>
		
			<line fill="none" stroke="#263238" stroke-width="2" stroke-linecap="round" stroke-linejoin="round" stroke-miterlimit="10" x1="40.753" y1="72.5" x2="48.67" y2="111.833"/>
		
			<line fill="none" stroke="#263238" stroke-width="2" stroke-linecap="round" stroke-linejoin="round" stroke-miterlimit="10" x1="46.688" y1="72.5" x2="52.626" y2="111.833"/>
		
			<line fill="none" stroke="#263238" stroke-width="2" stroke-linecap="round" stroke-linejoin="round" stroke-miterlimit="10" x1="58.391" y1="72.5" x2="60.539" y2="111.833"/>
		
			<line fill="none" stroke="#263238" stroke-width="2" stroke-linecap="round" stroke-linejoin="round" stroke-miterlimit="10" x1="52.626" y1="72.5" x2="56.583" y2="111.833"/>
		
			<line fill="none" stroke="#263238" stroke-width="2" stroke-linecap="round" stroke-linejoin="round" stroke-miterlimit="10" x1="88" y1="72.762" x2="80.333" y2="111.833"/>
		
			<line fill="none" stroke="#263238" stroke-width="2" stroke-linecap="round" stroke-linejoin="round" stroke-miterlimit="10" x1="70.447" y1="72.5" x2="68.465" y2="111.833"/>
		
			<line fill="none" stroke="#263238" stroke-width="2" stroke-linecap="round" stroke-linejoin="round" stroke-miterlimit="10" x1="82.278" y1="72.75" x2="76.377" y2="111.833"/>
		
			<line fill="none" stroke="#263238" stroke-width="2" stroke-linecap="round" stroke-linejoin="round" stroke-miterlimit="10" x1="76.377" y1="72.5" x2="72.421" y2="111.833"/>
		
			<line fill="none" stroke="#263238" stroke-width="2" stroke-linecap="round" stroke-linejoin="round" stroke-miterlimit="10" x1="49" y1="112.5" x2="80" y2="112.5"/>
		
			<line fill="none" stroke="#263238" stroke-width="2" stroke-linecap="round" stroke-linejoin="round" stroke-miterlimit="10" x1="49" y1="120.5" x2="80" y2="120.5"/>
		
			<line fill="none" stroke="#263238" stroke-width="2" stroke-linecap="round" stroke-linejoin="round" stroke-miterlimit="10" x1="48.67" y1="112.271" x2="48.585" y2="125.271"/>
		<path fill="none" stroke="#263238" stroke-width="2" stroke-linecap="round" stroke-linejoin="round" stroke-miterlimit="10" d="
			M80.5,127"/>
		<path fill="none" stroke="#263238" stroke-width="2" stroke-linecap="round" stroke-linejoin="round" stroke-miterlimit="10" d="
			M80.5,112"/>
		
			<line fill="none" stroke="#263238" stroke-width="2" stroke-linecap="round" stroke-linejoin="round" stroke-miterlimit="10" x1="52.5" y1="112" x2="52.537" y2="125.271"/>
		<path fill="none" stroke="#263238" stroke-width="2" stroke-linecap="round" stroke-linejoin="round" stroke-miterlimit="10" d="
			M76.5,127"/>
		<path fill="none" stroke="#263238" stroke-width="2" stroke-linecap="round" stroke-linejoin="round" stroke-miterlimit="10" d="
			M76.5,112"/>
		<path fill="none" stroke="#263238" stroke-width="2" stroke-linecap="round" stroke-linejoin="round" stroke-miterlimit="10" d="
			M56.5,125"/>
		<path fill="none" stroke="#263238" stroke-width="2" stroke-linecap="round" stroke-linejoin="round" stroke-miterlimit="10" d="
			M56.5,111"/>
		<path fill="none" stroke="#263238" stroke-width="2" stroke-linecap="round" stroke-linejoin="round" stroke-miterlimit="10" d="
			M72.5,127"/>
		<path fill="none" stroke="#263238" stroke-width="2" stroke-linecap="round" stroke-linejoin="round" stroke-miterlimit="10" d="
			M72.5,112"/>
		<path fill="none" stroke="#263238" stroke-width="2" stroke-linecap="round" stroke-linejoin="round" stroke-miterlimit="10" d="
			M60.5,125"/>
		<path fill="none" stroke="#263238" stroke-width="2" stroke-linecap="round" stroke-linejoin="round" stroke-miterlimit="10" d="
			M60.5,112"/>
		<path fill="none" stroke="#263238" stroke-width="2" stroke-linecap="round" stroke-linejoin="round" stroke-miterlimit="10" d="
			M68.5,112"/>
		<path fill="none" stroke="#263238" stroke-width="2" stroke-linecap="round" stroke-linejoin="round" stroke-miterlimit="10" d="
			M64.5,127"/>
		<path fill="none" stroke="#263238" stroke-width="2" stroke-linecap="round" stroke-linejoin="round" stroke-miterlimit="10" d="
			M64.5,112"/>
		
			<rect x="16.5" y="8.5" fill="none" stroke="#263238" stroke-width="2" stroke-linecap="round" stroke-linejoin="round" stroke-miterlimit="10" width="94" height="75"/>
		
			<line fill="none" stroke="#263238" stroke-width="2" stroke-linecap="round" stroke-linejoin="round" stroke-miterlimit="10" x1="56.5" y1="112" x2="56.537" y2="125.271"/>
		
			<line fill="none" stroke="#263238" stroke-width="2" stroke-linecap="round" stroke-linejoin="round" stroke-miterlimit="10" x1="60.5" y1="112" x2="60.537" y2="125.271"/>
		
			<line fill="none" stroke="#263238" stroke-width="2" stroke-linecap="round" stroke-linejoin="round" stroke-miterlimit="10" x1="64.5" y1="112" x2="64.537" y2="125.271"/>
		
			<line fill="none" stroke="#263238" stroke-width="2" stroke-linecap="round" stroke-linejoin="round" stroke-miterlimit="10" x1="68.5" y1="112" x2="68.537" y2="125.271"/>
		
			<line fill="none" stroke="#263238" stroke-width="2" stroke-linecap="round" stroke-linejoin="round" stroke-miterlimit="10" x1="72.471" y1="112.021" x2="72.508" y2="125.292"/>
		
			<line fill="none" stroke="#263238" stroke-width="2" stroke-linecap="round" stroke-linejoin="round" stroke-miterlimit="10" x1="76.5" y1="112" x2="76.537" y2="125.271"/>
		
			<line fill="none" stroke="#263238" stroke-width="2" stroke-linecap="round" stroke-linejoin="round" stroke-miterlimit="10" x1="80.333" y1="112.021" x2="80.537" y2="125.271"/>
	</g>
</g>
</svg>
