<?xml version="1.0" encoding="utf-8"?>
<!-- Generator: Adobe Illustrator 16.0.0, SVG Export Plug-In . SVG Version: 6.00 Build 0)  -->
<!DOCTYPE svg PUBLIC "-//W3C//DTD SVG 1.1//EN" "http://www.w3.org/Graphics/SVG/1.1/DTD/svg11.dtd">
<svg version="1.1" id="Layer_1" xmlns="http://www.w3.org/2000/svg" xmlns:xlink="http://www.w3.org/1999/xlink" x="0px" y="0px"
	 width="128px" height="128px" viewBox="0 0 128 128" enable-background="new 0 0 128 128" xml:space="preserve">
<g>
	<g>
		<path fill="none" d="M43,15.531v20.24c6-2.479,13.199-3.839,20.5-3.839S78,33.292,84,35.771v-20.24C84,13.045,82.741,12,80.274,12
			H48.178C45.768,12,43,13.008,43,15.531z"/>
		<path fill="#1976D2" d="M33,15.531v26.276c0,0.167,0.054,0.322-0.085,0.415C17.489,52.562,8.348,70.209,8.348,89.009
			c0,13.92,5.325,26.991,14.876,37.991h82.004c9.259-11,14.355-23.76,14.355-37.991c0-19.268-9.511-36.786-25.212-46.653
			C94.225,42.265,94,41.979,94,41.808V15.531C94,7.532,88.255,2,80.274,2H48.178C39.96,2,33,7.794,33,15.531z M94.678,50.75
			c0.239,0.224,5.214,4.913,6.722,6.713c7.304,8.721,11.326,19.824,11.326,31.265c0,11.22-3.896,22.62-10.689,30.84
			c-0.096,0.115-0.236,0.432-0.386,0.432h-74.85c-0.149,0-0.291-0.316-0.385-0.432c-6.793-8.22-10.69-19.495-10.69-30.715
			c0-26.869,21.757-48.791,48.5-48.791C75.28,40.062,86.095,43.817,94.678,50.75z M42,15.531C42,12.382,45.276,11,48.178,11h32.096
			C83.312,11,85,12.475,85,15.531v20.998c0,0.169,0.052,0.326-0.09,0.419c-0.082,0.054-0.109,0.081-0.205,0.081
			c-0.068,0-0.103-0.014-0.167-0.042c-5.957-2.614-13.327-4.054-20.782-4.054s-14.833,1.44-20.79,4.054
			c-0.154,0.068-0.465,0.054-0.607-0.038C42.218,36.855,42,36.698,42,36.529V15.531z"/>
		<path fill="#4DB6AC" d="M101.528,57.574c-1.507-1.799-6.723-6.715-6.774-6.764c-8.583-6.931-19.435-10.762-30.527-10.762
			c-26.835,0-48.667,22.211-48.667,49.176C15.559,100.4,19.407,112,26.124,120h76.205c6.717-8,10.564-19.6,10.564-30.776
			C112.893,77.741,108.857,66.324,101.528,57.574z"/>
	</g>
	<g>
		<path fill="none" stroke="#263238" stroke-width="2" stroke-linecap="round" stroke-linejoin="round" stroke-miterlimit="10" d="
			M94.5,41.808V15.531C94.5,7.261,88.545,1.5,80.274,1.5H48.178C39.907,1.5,32.5,7.261,32.5,15.531v26.276
			C17.5,51.862,7.779,69.504,7.779,89.009c0,14.679,5.997,28.491,15.225,38.491h82.444c9.229-10,14.499-23.812,14.499-38.491
			C119.946,69.504,110.5,51.862,94.5,41.808z M42.5,15.531c0-2.757,2.921-4.031,5.678-4.031h32.096c2.757,0,4.226,1.274,4.226,4.031
			v20.998c-6-2.633-13.554-4.097-21-4.097s-15,1.464-21,4.097V15.531z"/>
		<path fill="none" stroke="#263238" stroke-width="2" stroke-linecap="round" stroke-linejoin="round" stroke-miterlimit="10" d="
			M94.364,51.139C86.125,44.485,75.641,40.5,64.226,40.5c-26.51,0-48,21.97-48,48.479c0,11.374,3.964,22.521,10.575,30.521h74.85
			c6.611-8,10.575-19.147,10.575-30.521c0-11.737-4.213-22.729-11.209-31.069"/>
	</g>
</g>
</svg>
