<?xml version="1.0" encoding="utf-8"?>
<!-- Generator: Adobe Illustrator 16.0.0, SVG Export Plug-In . SVG Version: 6.00 Build 0)  -->
<!DOCTYPE svg PUBLIC "-//W3C//DTD SVG 1.1//EN" "http://www.w3.org/Graphics/SVG/1.1/DTD/svg11.dtd">
<svg version="1.1" id="Layer_1" xmlns="http://www.w3.org/2000/svg" xmlns:xlink="http://www.w3.org/1999/xlink" x="0px" y="0px"
	 width="128px" height="128px" viewBox="0 0 128 128" enable-background="new 0 0 128 128" xml:space="preserve">
<g>
	<g>
		<path fill="#FF8A65" d="M100.415,56.869l4.336-4.336c0.103-0.102,0.237-0.148,0.371-0.143c-1.377-11.415-6.837-22.71-16.23-32.104
			C66.429-2.175,32.591-4.887,13.458,14.244c-15.983,15.984-16.827,43.315-2.17,65.374c0.529-2.059,1.412-3.958,2.583-5.634
			C9.61,66.737,100.087,45.095,100.415,56.869z"/>
		<path fill="#FF8A65" d="M51.642,105.643l4.44-4.44c-5.616-0.155-11.193-1.432-16.601-3.82c-1.587,1.337-3.418,2.384-5.411,3.093
			c5.679,2.973,11.558,4.821,17.431,5.553C51.492,105.89,51.536,105.749,51.642,105.643z"/>
		<path fill="#E64A19" d="M86.886,96.324l25.813,28.777c0.085,0.014,0.163,0.049,0.224,0.11c1.032,1.032,2.592,1.429,4.394,1.118
			c1.866-0.323,3.751-1.358,5.31-2.917c1.559-1.559,2.595-3.444,2.917-5.31c0.312-1.802-0.086-3.362-1.118-4.395
			c-0.068-0.068-0.114-0.154-0.135-0.247L95.538,87.672c-0.043-0.039-0.075-0.085-0.102-0.134l-8.686,8.685
			C86.8,96.249,86.847,96.281,86.886,96.324z"/>
		<path fill="#FFCC80" d="M100.28,58.418l-47.727,47.727c10.629,1.084,21.195-1.474,30.462-7.597
			c0.004-0.004,0.005-0.009,0.926,0.903l14.701-14.7c5.175-10.168,7.645-20.761,6.607-31.303l-4.936,4.936
			C100.304,58.396,100.293,58.407,100.28,58.418z"/>
		<path fill="#FFE082" d="M99.573,57.847c-0.063-11.952-5.221-23.844-14.891-33.513C75.813,15.465,63.515,9.476,49.884,7.468
			c-3.587-0.527-11.652,0.323-11.733,0.331c-7.954,1.284-15.036,4.83-20.53,10.242l-0.162-0.083
			c-0.042,0.189-0.04,0.227-0.082,0.269C17.24,18.364,17,18.511,17,18.65v0.03C9,26.833,5.414,38.202,6.637,50.786
			C7.38,58.429,10,66.181,14,73.268v0.021c0,0.01,0.059,0.021,0.064,0.031c3.27-4.106,8.322-6.691,13.872-6.691
			c9.755,0,17.702,7.937,17.702,17.692c0,5.024-2.11,9.556-5.485,12.779c0.657,0.283,1.318,0.552,1.979,0.802
			c4.074,1.539,8.231,2.453,12.415,2.73c0.849,0.056,1.229,0.092,2.079,0.096L99,57.884c0-0.011,0-0.04,0-0.137L99.573,57.847z"/>
		<path fill="#EEEEEE" d="M29.226,67.494c-5.426,0-10.325,2.642-13.351,6.798c-0.01,0.015-0.021,0.027-0.032,0.041
			c-1.391,1.922-2.383,4.166-2.84,6.622c-0.02,0.104-0.026,0.21-0.043,0.314c-0.149,0.896-0.236,1.811-0.236,2.728
			c0,9.1,7.403,16.503,16.503,16.503c1.428,0,2.807-0.201,4.129-0.544c7.104-1.84,12.374-8.287,12.374-15.959
			C45.729,74.897,38.325,67.494,29.226,67.494z"/>
		<path fill="#D50000" d="M14.875,74.292c-0.01,0.014-0.022,0.027-0.032,0.041C14.854,74.319,14.865,74.307,14.875,74.292z"/>
	</g>
	<g>
		<g>
			<path fill="none" stroke="#263238" stroke-width="2" stroke-linecap="round" stroke-linejoin="round" stroke-miterlimit="10" d="
				M33.812,100.375c17.56,9.655,37.883,8.577,53.702-3.717l25.989,28.973l0.066-0.066c2.378,2.378,7.039,1.573,10.41-1.799
				c3.373-3.372,4.178-8.034,1.799-10.412l0.067-0.066L96.872,87.3c15.664-20.154,13.121-47.619-6.627-67.367
				c-21.439-21.439-56.02-26.162-76.14-6.042C-3.343,31.339-2.108,59.662,12.509,80.857"/>
			
				<line fill="none" stroke="#263238" stroke-width="2" stroke-linecap="round" stroke-linejoin="round" stroke-miterlimit="10" x1="52.995" y1="105.996" x2="106.104" y2="52.887"/>
			
				<line fill="none" stroke="#263238" stroke-width="2" stroke-linecap="round" stroke-linejoin="round" stroke-miterlimit="10" x1="84.378" y1="98.889" x2="90.856" y2="92.41"/>
			
				<line fill="none" stroke="#263238" stroke-width="2" stroke-linecap="round" stroke-linejoin="round" stroke-miterlimit="10" x1="95.239" y1="88.028" x2="99.103" y2="84.165"/>
			<path fill="none" stroke="#263238" stroke-width="2" stroke-linecap="round" stroke-linejoin="round" stroke-miterlimit="10" d="
				M15.462,74.017c-4.278-7.186-7.002-15.173-7.777-23.147C6.438,38.04,10.268,26.457,18.47,18.255 M58.26,100.733
				c-5.995,0.004-12.046-1.315-17.859-3.928 M51.083,7.471c12.65,1.23,25.333,7.363,34.797,16.827
				c9.977,9.977,15.077,21.974,15.067,33.753 M18.47,18.255c5.597-5.597,12.768-9.158,20.834-10.459"/>
		</g>
		<path fill="none" stroke="#263238" stroke-width="2" stroke-linecap="round" stroke-linejoin="round" stroke-miterlimit="10" d="
			M46.229,83.997c0,9.391-7.612,17.003-17.003,17.003c-9.39,0-17.003-7.612-17.003-17.003c0-1.071,0.099-2.118,0.289-3.134
			c1.471-7.894,8.395-13.869,16.714-13.869C38.616,66.994,46.229,74.606,46.229,83.997z"/>
		<path fill="none" stroke="#263238" stroke-width="2" stroke-linecap="round" stroke-linejoin="round" stroke-miterlimit="10" d="
			M29.226,71.972c3.178,0,6.068,1.233,8.218,3.246"/>
	</g>
</g>
</svg>
