<?xml version="1.0" encoding="utf-8"?>
<!-- Generator: Adobe Illustrator 16.0.0, SVG Export Plug-In . SVG Version: 6.00 Build 0)  -->
<!DOCTYPE svg PUBLIC "-//W3C//DTD SVG 1.1//EN" "http://www.w3.org/Graphics/SVG/1.1/DTD/svg11.dtd">
<svg version="1.1" id="Layer_1" xmlns="http://www.w3.org/2000/svg" xmlns:xlink="http://www.w3.org/1999/xlink" x="0px" y="0px"
	 width="128px" height="128px" viewBox="0 0 128 128" enable-background="new 0 0 128 128" xml:space="preserve">
<g>
	<g>
		<path fill="none" d="M62.953,127.063c-0.018,0-0.035-0.002-0.055-0.002v0.002H62.953z"/>
		<path fill="#F9A825" d="M83.424,106.5c0-10.735-8.734-19.5-19.467-19.5c-0.002,0-0.002,0-0.002,0
			c-10.734,0-19.469,8.984-19.469,19.719c0,5.201,2.025,9.996,5.703,13.673S58.754,126,63.953,126c0.002,0,0.002,0,0.002,0
			C74.689,126,83.424,117.234,83.424,106.5z"/>
		<path fill="#FBC02D" d="M78.387,106.968c0-2.226-0.596-4.486-1.873-7.116c-0.996-2.052-4.893-5.111-4.932-5.143
			c-2.254-1.41-4.904-2.172-7.627-2.172c-3.855,0-7.48,1.501-10.205,4.227c-2.727,2.726-4.227,6.35-4.227,10.204
			c0,7.958,6.473,14.432,14.43,14.432C71.912,121.4,78.387,114.926,78.387,106.968z"/>
		<path fill="#F9A825" d="M63.955,99.406c-4.17,0-7.562,3.393-7.562,7.562s3.393,7.562,7.562,7.562s7.562-3.393,7.562-7.562
			S68.125,99.406,63.955,99.406z"/>
		<path fill="#FF7043" d="M109.375,3.686c0.414-0.716,0.168-1.634-0.547-2.047c-0.346-0.2-0.746-0.254-1.133-0.151
			c-0.389,0.103-0.713,0.351-0.914,0.698L65.434,73.697c0.977,0.266,1.861,0.787,2.574,1.536L109.375,3.686z"/>
		<path fill="#D50000" d="M66.369,79.742c-0.174,0.645-0.586,1.184-1.164,1.517c-0.377,0.22-0.809,0.336-1.248,0.336
			c-0.889,0-1.719-0.478-2.164-1.247l-1.939-3.354c-0.303,0.59-0.475,1.24-0.504,1.909c-0.105,2.539,1.873,4.692,4.412,4.799
			c2.566,0.106,4.691-1.873,4.797-4.411c0.053-1.23-0.377-2.406-1.211-3.312c-0.826-0.898-1.949-1.422-3.168-1.48l1.938,3.35
			C66.451,78.423,66.541,79.096,66.369,79.742z"/>
		<path fill="#FF8A65" d="M65.252,78.346l-2.32-4.012L21.219,2.186c-0.268-0.462-0.766-0.749-1.299-0.749
			c-0.262,0-0.52,0.069-0.746,0.202c-0.348,0.2-0.596,0.523-0.699,0.91s-0.051,0.79,0.15,1.137l41.709,72.142l2.324,4.019
			c0.398,0.688,1.357,0.947,2.047,0.547c0.346-0.2,0.594-0.523,0.697-0.91S65.451,78.693,65.252,78.346z"/>
	</g>
	<g>
		
			<circle fill="none" stroke="#263238" stroke-width="2" stroke-linecap="round" stroke-linejoin="round" stroke-miterlimit="10" cx="63.955" cy="106.969" r="19.969"/>
		<path fill="none" stroke="#263238" stroke-width="2" stroke-linecap="round" stroke-linejoin="round" stroke-miterlimit="10" d="
			M76.965,99.633c1.223,2.166,1.922,4.67,1.922,7.335c0,8.246-6.684,14.932-14.932,14.932c-8.246,0.001-14.932-6.685-14.932-14.932
			c0-8.246,6.684-14.931,14.932-14.931c2.914,0,5.635,0.835,7.934,2.278"/>
		
			<circle fill="none" stroke="#263238" stroke-width="2" stroke-linecap="round" stroke-linejoin="round" stroke-miterlimit="10" cx="63.955" cy="106.968" r="8.062"/>
		<path fill="none" stroke="#263238" stroke-width="2" stroke-linecap="round" stroke-linejoin="round" stroke-miterlimit="10" d="
			M63.504,74.006c0.219-0.019,0.441-0.024,0.666-0.015c2.818,0.118,5.008,2.5,4.889,5.318c-0.117,2.818-2.498,5.008-5.318,4.891
			c-2.818-0.119-5.008-2.499-4.889-5.319c0.041-1.022,0.383-1.962,0.934-2.738"/>
		<g>
			<path fill="none" stroke="#263238" stroke-width="2" stroke-linecap="round" stroke-linejoin="round" stroke-miterlimit="10" d="
				M63.957,81.094c-0.689,0-1.361-0.357-1.732-0.998L18.191,3.936c-0.553-0.955-0.225-2.178,0.73-2.729
				c0.953-0.555,2.178-0.226,2.73,0.729l41.57,71.902l2.463,4.258c0.551,0.955,0.225,2.178-0.73,2.729
				C64.641,81.008,64.297,81.094,63.957,81.094z"/>
		</g>
		<g>
			<path fill="none" stroke="#263238" stroke-width="2" stroke-linecap="round" stroke-linejoin="round" stroke-miterlimit="10" d="
				M68.086,76.098l41.723-72.162c0.551-0.955,0.225-2.178-0.73-2.729c-0.953-0.555-2.178-0.226-2.73,0.729L64.658,74.041"/>
		</g>
		
			<line fill="none" stroke="#263238" stroke-width="2" stroke-linecap="round" stroke-linejoin="round" stroke-miterlimit="10" x1="63.5" y1="87" x2="63.5" y2="84"/>
	</g>
</g>
</svg>
