<?xml version="1.0" encoding="utf-8"?>
<!-- Generator: Adobe Illustrator 16.0.0, SVG Export Plug-In . SVG Version: 6.00 Build 0)  -->
<!DOCTYPE svg PUBLIC "-//W3C//DTD SVG 1.1//EN" "http://www.w3.org/Graphics/SVG/1.1/DTD/svg11.dtd">
<svg version="1.1" id="Layer_1" xmlns="http://www.w3.org/2000/svg" xmlns:xlink="http://www.w3.org/1999/xlink" x="0px" y="0px"
	 width="128px" height="128px" viewBox="0 0 128 128" enable-background="new 0 0 128 128" xml:space="preserve">
<g>
	<path fill="#646464" d="M64,0C28.711,0,0,28.71,0,64s28.711,64,64,64s64-28.71,64-64S99.289,0,64,0z M114.766,92.022l-22.33,7.308
		L81.939,82.374l8.086-24.889l18.621-4.508l13.033,17.14C120.852,77.993,118.436,85.4,114.766,92.022z M6.354,70.375l13.129-17.397
		l18.492,4.507l8.084,24.88L34.482,99.348l-21.018-6.927C9.709,85.77,7.225,78.314,6.354,70.375z M106.846,24.943l-0.041,22.312
		L88.2,51.759L67,36.356V18.236L87.97,11.2C95.165,14.479,101.582,19.172,106.846,24.943z M39.89,11.263L61,18.249v18.108
		L39.8,51.759l-18.478-4.503l-0.041-21.055c0-0.388-0.116-0.748-0.31-1.055C26.235,19.321,32.669,14.578,39.89,11.263z
		 M51.699,120.679l-12.387-17.711L50.92,86h26.139l10.52,16.932L75.139,120.95c-3.607,0.705-7.328,1.07-11.139,1.07
		C59.779,122.02,55.666,121.54,51.699,120.679z"/>
</g>
</svg>
