<?xml version="1.0" encoding="utf-8"?>
<!-- Generator: Adobe Illustrator 16.0.0, SVG Export Plug-In . SVG Version: 6.00 Build 0)  -->
<!DOCTYPE svg PUBLIC "-//W3C//DTD SVG 1.1//EN" "http://www.w3.org/Graphics/SVG/1.1/DTD/svg11.dtd">
<svg version="1.1" id="Layer_1" xmlns="http://www.w3.org/2000/svg" xmlns:xlink="http://www.w3.org/1999/xlink" x="0px" y="0px"
	 width="128px" height="128px" viewBox="0 0 128 128" enable-background="new 0 0 128 128" xml:space="preserve">
<g>
	<path fill="#646464" d="M102.991,53.537c-3.474,0-6.784,0.714-9.792,2.001L84.94,39.549L87.565,34h2.268c2.206,0,4-1.794,4-4
		c0-2.206-1.794-4-4-4H76.125c-2.206,0-4,1.794-4,4c0,2.206,1.794,4,4,4h6.979l-1.521,2.884L35.28,37c-0.133,0,0,0-0.138,0
		c-1.84,0-3.347-0.262-4.357-1.239c-0.836-0.81-1.297-2.072-1.297-3.239c0-2.164,1.617-4.522,5.228-4.522h2.259c1.104,0,2-0.896,2-2
		s-0.896-2-2-2h-2.259c-6.058,0-9.228,4.502-9.228,8.651c0,2.26,0.894,4.52,2.517,6.089c0.921,0.892,2.403,1.986,4.617,2.446
		l-3.288,12.696c-1.406-0.247-2.849-0.364-4.324-0.364c-13.777,0-24.985,11.217-24.985,24.994c0,13.776,11.208,24.989,24.985,24.989
		S49.993,92.296,49.993,78.52c0-10.907-7.027-20.196-16.789-23.597l2.718-10.461l21.226,29.686
		c-0.819,1.262-1.331,2.762-1.331,4.375c0,3.442,2.184,6.379,5.184,7.532V88h-6.031C54.411,88,54,88.942,54,89.494v3
		C54,93.045,54.411,93,54.969,93h9.051C64.579,93,65,93.045,65,92.494v-1.083v-1.917v-2.998c0-0.064,0.929-0.162,1.362-0.302
		l12.485-1.217c2.853,10.658,12.594,18.53,24.139,18.53c13.777,0,24.987-11.208,24.987-24.984
		C127.974,64.745,116.768,53.537,102.991,53.537z M44.058,78.522c0,10.503-8.545,19.049-19.049,19.049S5.959,89.025,5.959,78.522
		c0-10.504,8.545-19.05,19.049-19.05c0.961,0,1.898,0.095,2.822,0.232l-3.883,14.947c-1.706,0.469-2.969,2.018-2.969,3.871
		c0,2.222,1.808,4.029,4.03,4.029s4.03-1.808,4.03-4.029c0-1.127-0.468-2.145-1.216-2.877l3.879-14.935
		C38.908,63.427,44.058,70.375,44.058,78.522z M89.661,57.405c-5.238,3.318-9.163,8.526-10.806,14.663l-9.417-1.158L70.758,68h2.171
		c0.548,0,1.07,0.031,1.07-0.522v-3c0-0.455-0.347-0.823-0.76-0.944l9.528-19.312L89.661,57.405z M84.875,72.655
		c1.335-4.111,4.027-7.615,7.552-9.974l5.918,11.288L84.875,72.655z M79.604,41L68.768,63h-4.727C63.492,63,63,63.926,63,64.478
		v1.053v1.947v3.03c-1,0.112-2.021,0.15-2.914,0.629L38.761,41H79.604z M102.991,97.571c-8.456,0-15.634-5.542-18.115-13.183
		l18.31-1.786c0.173-0.018,0.336-0.062,0.492-0.12c1.895-0.328,3.343-1.974,3.343-3.96c0-1.987-1.448-3.633-3.343-3.961
		c-0.156-0.058-0.319-0.103-0.492-0.119l-0.079-0.008l-7.133-13.605c2.175-0.866,4.538-1.356,7.018-1.356
		c10.504,0,19.049,8.546,19.049,19.05C122.04,89.025,113.495,97.571,102.991,97.571z"/>
</g>
</svg>
