<?xml version="1.0" encoding="utf-8"?>
<!-- Generator: Adobe Illustrator 16.0.0, SVG Export Plug-In . SVG Version: 6.00 Build 0)  -->
<!DOCTYPE svg PUBLIC "-//W3C//DTD SVG 1.1//EN" "http://www.w3.org/Graphics/SVG/1.1/DTD/svg11.dtd">
<svg version="1.1" id="Layer_1" xmlns="http://www.w3.org/2000/svg" xmlns:xlink="http://www.w3.org/1999/xlink" x="0px" y="0px"
	 width="128px" height="128px" viewBox="0 0 128 128" enable-background="new 0 0 128 128" xml:space="preserve">
<g>
	<path fill="#646464" d="M96,41.775V16.031C96,7.209,88.846,0,80.024,0H47.928C39.106,0,32,7.209,32,16.031v25.744
		C16,52.439,6.904,70.067,6.904,89.039c0,14.371,5.363,28.084,15.133,38.671c0.189,0.205,0.438,0.29,0.717,0.29h82.444
		c0.279,0,0.545-0.085,0.735-0.29c9.77-10.586,15.138-24.315,15.138-38.687C121.071,70.052,112,52.439,96,41.775z M47.928,12h32.096
		C82.229,12,84,13.826,84,16.031v19.534c-6-2.412-13.109-3.633-20-3.633s-14,1.222-20,3.633V16.031C44,13.826,45.723,12,47.928,12z"
		/>
</g>
</svg>
