<?xml version="1.0" encoding="utf-8"?>
<!-- Generator: Adobe Illustrator 16.0.0, SVG Export Plug-In . SVG Version: 6.00 Build 0)  -->
<!DOCTYPE svg PUBLIC "-//W3C//DTD SVG 1.1//EN" "http://www.w3.org/Graphics/SVG/1.1/DTD/svg11.dtd">
<svg version="1.1" id="Layer_1" xmlns="http://www.w3.org/2000/svg" xmlns:xlink="http://www.w3.org/1999/xlink" x="0px" y="0px"
	 width="128px" height="128px" viewBox="0 0 128 128" enable-background="new 0 0 128 128" xml:space="preserve">
<g>
	<path fill="#646464" d="M127.29,51.73c-0.745-1.096-1.983-1.75-3.31-1.75c-0.805,0-1.582,0.262-2.248,0.717
		C117.676,53.459,112.275,55,106.525,55H21.43c-5.729,0-11.113-1.531-15.164-4.275c-0.664-0.447-1.439-0.696-2.238-0.696
		c-1.332,0-2.57,0.65-3.314,1.752c-0.6,0.883-0.818,1.946-0.617,2.995c0.202,1.049,0.77,1.956,1.654,2.556
		C7.02,60.9,14,62.878,21,62.945v1.76c-2,1.127-3.969,3.53-3.969,6.315c0,3.859,3.156,7,7.016,7s6.977-3.141,6.977-7
		c0-2.785-2.023-5.188-4.023-6.315V63h74v1.619c-2,1.127-3.975,3.53-3.975,6.315c0,3.859,3.152,7,7.014,7c3.859,0,6.98-3.141,6.98-7
		c0-2.785-2.02-5.188-4.02-6.315v-1.68c7-0.094,13.97-2.083,19.21-5.652c0.883-0.601,1.491-1.511,1.69-2.56
		C128.1,53.677,127.891,52.613,127.29,51.73z"/>
</g>
</svg>
