<?xml version="1.0" encoding="utf-8"?>
<!-- Generator: Adobe Illustrator 16.0.0, SVG Export Plug-In . SVG Version: 6.00 Build 0)  -->
<!DOCTYPE svg PUBLIC "-//W3C//DTD SVG 1.1//EN" "http://www.w3.org/Graphics/SVG/1.1/DTD/svg11.dtd">
<svg version="1.1" id="Layer_1" xmlns="http://www.w3.org/2000/svg" xmlns:xlink="http://www.w3.org/1999/xlink" x="0px" y="0px"
	 width="128px" height="128px" viewBox="0 0 128 128" enable-background="new 0 0 128 128" xml:space="preserve">
<g>
	<path fill="#646464" d="M128.009,49.018c0-18.229-28.11-32.508-63.996-32.508S0.017,30.789,0.017,49.018
		c0,0.265,0.019,0.526,0.03,0.789C0.033,49.87,0,49.929,0,49.995v29.554c0,17.612,28.713,31.941,64,31.941s64-14.329,64-31.941
		V49.995c0-0.066-0.021-0.125-0.033-0.188C127.979,49.544,128.009,49.282,128.009,49.018z M64.013,22.509
		c31.438,0,57.997,12.14,57.997,26.509S95.45,75.526,64.013,75.526S6.016,63.387,6.016,49.018S32.575,22.509,64.013,22.509z"/>
</g>
</svg>
