<?xml version="1.0" encoding="utf-8"?>
<!-- Generator: Adobe Illustrator 16.0.0, SVG Export Plug-In . SVG Version: 6.00 Build 0)  -->
<!DOCTYPE svg PUBLIC "-//W3C//DTD SVG 1.1//EN" "http://www.w3.org/Graphics/SVG/1.1/DTD/svg11.dtd">
<svg version="1.1" id="Layer_1" xmlns="http://www.w3.org/2000/svg" xmlns:xlink="http://www.w3.org/1999/xlink" x="0px" y="0px"
	 width="128px" height="128px" viewBox="0 0 128 128" enable-background="new 0 0 128 128" xml:space="preserve">
<g>
	<circle fill="#646464" cx="64" cy="108.969" r="12.8"/>
	<circle fill="#646464" cx="38.4" cy="108.969" r="12.8"/>
	<circle fill="#646464" cx="12.801" cy="108.969" r="12.8"/>
	<circle fill="#646464" cx="89.6" cy="108.969" r="12.8"/>
	<circle fill="#646464" cx="64" cy="63.97" r="12.8"/>
	<circle fill="#646464" cx="64" cy="19.031" r="12.8"/>
	<path fill="#646464" d="M38.4,76.77c4.213,0,7.939-2.044,10.271-5.186c0.008-0.005,0.016-0.01,0.025-0.015l-0.008-0.008
		c1.57-2.125,2.512-4.745,2.512-7.591c0-7.069-5.732-12.8-12.801-12.8c-2.58,0-4.977,0.769-6.986,2.082l-0.01-0.009
		c-0.006,0.008-0.01,0.017-0.016,0.025C27.904,55.555,25.6,59.491,25.6,63.97C25.6,71.039,31.33,76.77,38.4,76.77z"/>
	<circle fill="#646464" cx="89.6" cy="63.97" r="12.8"/>
	<circle fill="#646464" cx="76.801" cy="86.447" r="12.8"/>
	<circle fill="#646464" cx="51.201" cy="86.447" r="12.8"/>
	<circle fill="#646464" cx="76.801" cy="41.565" r="12.8"/>
	<circle fill="#646464" cx="51.201" cy="41.565" r="12.8"/>
	<circle fill="#646464" cx="25.6" cy="86.447" r="12.8"/>
	<circle fill="#646464" cx="102.4" cy="86.447" r="12.8"/>
	<circle fill="#646464" cx="115.201" cy="108.969" r="12.8"/>
</g>
</svg>
