<?xml version="1.0" encoding="utf-8"?>
<!-- Generator: Adobe Illustrator 16.0.0, SVG Export Plug-In . SVG Version: 6.00 Build 0)  -->
<!DOCTYPE svg PUBLIC "-//W3C//DTD SVG 1.1//EN" "http://www.w3.org/Graphics/SVG/1.1/DTD/svg11.dtd">
<svg version="1.1" id="Layer_1" xmlns="http://www.w3.org/2000/svg" xmlns:xlink="http://www.w3.org/1999/xlink" x="0px" y="0px"
	 width="128px" height="128px" viewBox="0 0 128 128" enable-background="new 0 0 128 128" xml:space="preserve">
<g>
	<path fill="#646464" d="M126.548,112.989c-0.053-0.17-0.152-0.324-0.287-0.446L97.975,87.171
		c15.325-20.467,12.395-48.275-7.276-67.945C80.08,8.607,65.802,1.721,51.525,0.332C36.522-1.123,22.892,3.438,13.146,13.184
		C-2.929,29.258-4.211,56.389,9.678,78.73c-0.141,0.52-0.268,1.045-0.368,1.583C9.084,81.521,8.97,82.76,8.97,83.997
		C8.97,95.027,17.943,104,28.973,104c2.456,0,4.799-0.466,6.975-1.279c17.264,8.271,36.125,6.582,51.186-4.707l25.372,28.286
		c0.104,0.115,0.242,0.193,0.392,0.24c1.059,0.917,2.437,1.394,3.996,1.394c0.461,0,0.938-0.042,1.427-0.126
		c2.168-0.375,4.339-1.559,6.115-3.334s2.959-3.947,3.334-6.115C128.134,116.244,127.701,114.357,126.548,112.989z M14.97,83.997
		c0-0.869,0.08-1.738,0.238-2.585c1.233-6.616,7.022-11.418,13.765-11.418c7.721,0,14.003,6.282,14.003,14.003S36.694,98,28.973,98
		S14.97,91.718,14.97,83.997z"/>
</g>
</svg>
