<?xml version="1.0" encoding="utf-8"?>
<!-- Generator: Adobe Illustrator 16.0.0, SVG Export Plug-In . SVG Version: 6.00 Build 0)  -->
<!DOCTYPE svg PUBLIC "-//W3C//DTD SVG 1.1//EN" "http://www.w3.org/Graphics/SVG/1.1/DTD/svg11.dtd">
<svg version="1.1" id="Layer_1" xmlns="http://www.w3.org/2000/svg" xmlns:xlink="http://www.w3.org/1999/xlink" x="0px" y="0px"
	 width="128px" height="128px" viewBox="0 0 128 128" enable-background="new 0 0 128 128" xml:space="preserve">
<g>
	<path fill="#646464" d="M47.039,62c0.967-9,8.193-15.125,16.946-15.125S79.964,53,80.932,62H107V8.408
		C107,3.771,103.271,0,98.635,0H76.035c0,0.193-0.019,0.39-0.078,0.585c-1.629,5.328-6.442,8.907-11.976,8.907
		c-5.533,0-10.346-3.579-11.975-8.907C51.946,0.39,51.928,0.193,51.928,0H29.39C24.754,0,21,3.771,21,8.408V62H47.039z
		 M80.054,15.006c7.168,0,13,5.832,13,13s-5.832,13-13,13s-13-5.832-13-13S72.885,15.006,80.054,15.006z M48.053,15.006
		c7.168,0,13,5.832,13,13s-5.832,13-13,13s-13-5.832-13-13S40.885,15.006,48.053,15.006z"/>
	<path fill="#646464" d="M63.985,50.875C57.442,50.875,52.023,56,51.081,62H76.89C75.948,56,70.528,50.875,63.985,50.875z"/>
	<path fill="#646464" d="M63.981,122.557c-3.54,0-6.647,2.443-7.928,5.443H71.91C70.628,125,67.521,122.557,63.981,122.557z"/>
	<path fill="#646464" d="M48.053,37.006c4.962,0,9-4.037,9-9s-4.038-9-9-9s-9,4.037-9,9S43.091,37.006,48.053,37.006z
		 M48.053,25.113c1.595,0,2.893,1.298,2.893,2.893s-1.298,2.893-2.893,2.893s-2.893-1.298-2.893-2.893S46.458,25.113,48.053,25.113z
		"/>
	<path fill="#646464" d="M63.981,5.492c3.558,0,6.676-2.184,7.946-5.492H56.036C57.305,3.309,60.424,5.492,63.981,5.492z"/>
	<path fill="#646464" d="M80.054,37.006c4.962,0,9-4.037,9-9s-4.038-9-9-9s-9,4.037-9,9S75.091,37.006,80.054,37.006z
		 M80.054,25.113c1.595,0,2.893,1.298,2.893,2.893s-1.298,2.893-2.893,2.893s-2.893-1.298-2.893-2.893S78.459,25.113,80.054,25.113z
		"/>
	<path fill="#646464" d="M63.985,77.005C70.487,77.005,75.879,72,76.872,66H51.099C52.092,72,57.483,77.005,63.985,77.005z"/>
	<path fill="#646464" d="M80.054,90.945c-4.962,0-9,4.037-9,9s4.038,9,9,9s9-4.037,9-9S85.016,90.945,80.054,90.945z
		 M80.054,102.979c-1.595,0-2.893-1.298-2.893-2.893s1.298-2.893,2.893-2.893s2.893,1.298,2.893,2.893
		S81.648,102.979,80.054,102.979z"/>
	<path fill="#646464" d="M80.914,66c-1.022,8-8.217,15.005-16.928,15.005S48.079,74,47.057,66H21v53.543
		c0,4.637,3.754,8.457,8.39,8.457h22.538c0.004,0,0.023-0.382,0.078-0.561c1.629-5.328,6.442-8.92,11.975-8.92
		c5.534,0,10.346,3.598,11.976,8.926c0.055,0.179,0.074,0.555,0.078,0.555h22.601c4.636,0,8.365-3.82,8.365-8.457V66H80.914z
		 M48.053,112.945c-7.168,0-13-5.832-13-13s5.832-13,13-13s13,5.832,13,13S55.222,112.945,48.053,112.945z M80.054,112.945
		c-7.168,0-13-5.832-13-13s5.832-13,13-13s13,5.832,13,13S87.222,112.945,80.054,112.945z"/>
	<path fill="#646464" d="M48.053,90.945c-4.962,0-9,4.037-9,9s4.038,9,9,9s9-4.037,9-9S53.016,90.945,48.053,90.945z
		 M48.053,102.979c-1.595,0-2.893-1.298-2.893-2.893s1.298-2.893,2.893-2.893s2.893,1.298,2.893,2.893
		S49.648,102.979,48.053,102.979z"/>
</g>
</svg>
