<?xml version="1.0" encoding="utf-8"?>
<!-- Generator: Adobe Illustrator 16.0.0, SVG Export Plug-In . SVG Version: 6.00 Build 0)  -->
<!DOCTYPE svg PUBLIC "-//W3C//DTD SVG 1.1//EN" "http://www.w3.org/Graphics/SVG/1.1/DTD/svg11.dtd">
<svg version="1.1" id="Layer_1" xmlns="http://www.w3.org/2000/svg" xmlns:xlink="http://www.w3.org/1999/xlink" x="0px" y="0px"
	 width="128px" height="128px" viewBox="0 0 128 128" enable-background="new 0 0 128 128" xml:space="preserve">
<g>
	<path fill="#646464" d="M97.477,30.464C79.006,11.993,52.772,0.059,30.646,0.059c-10.145,0-18.358,2.627-23.129,7.398
		c-15.07,15.069-7.413,59.629,23.007,90.049C48.993,115.976,75.226,128,97.354,128c0.002,0,0.002,0,0.004,0
		c10.141,0,18.355-2.716,23.125-7.486C135.554,105.444,127.896,60.884,97.477,30.464z M105.075,92.846l-3.965,3.965l2.951,2.95
		c1.172,1.172,1.172,3.071,0,4.242c-0.586,0.586-1.354,0.879-2.121,0.879s-1.535-0.293-2.121-0.879l-2.951-2.95l-3.964,3.964
		c-0.585,0.586-1.354,0.879-2.121,0.879s-1.536-0.293-2.121-0.879c-1.172-1.171-1.172-3.071,0-4.242l3.965-3.965l-2.889-2.889
		l-3.964,3.964c-0.586,0.586-1.354,0.879-2.122,0.879s-1.536-0.293-2.121-0.878c-1.172-1.172-1.172-3.071-0.001-4.243l3.965-3.965
		l-2.8-2.8l-3.964,3.965c-0.586,0.585-1.354,0.878-2.122,0.878s-1.536-0.293-2.121-0.878c-1.172-1.172-1.172-3.071-0.001-4.243
		l3.965-3.965l-2.889-2.889l-3.965,3.964c-0.585,0.586-1.354,0.879-2.121,0.879s-1.535-0.293-2.121-0.879
		c-1.172-1.171-1.172-3.071,0-4.243l3.965-3.964l-2.889-2.888l-3.965,3.965c-0.585,0.585-1.354,0.878-2.121,0.878
		s-1.535-0.293-2.121-0.879c-1.172-1.171-1.172-3.071,0-4.243l3.965-3.964l-2.801-2.8l-3.965,3.964
		c-0.585,0.585-1.354,0.878-2.121,0.878s-1.535-0.293-2.121-0.879c-1.172-1.171-1.172-3.07,0-4.243l3.965-3.964l-2.889-2.888
		l-3.964,3.964c-0.586,0.586-1.354,0.879-2.122,0.879s-1.535-0.293-2.121-0.878c-1.172-1.172-1.172-3.072,0-4.243l3.965-3.965
		l-2.889-2.888l-3.964,3.964c-0.586,0.586-1.354,0.879-2.122,0.879s-1.535-0.293-2.121-0.878c-1.172-1.172-1.172-3.071,0-4.243
		l3.965-3.965l-2.801-2.8l-3.964,3.964c-0.586,0.586-1.354,0.879-2.122,0.879s-1.535-0.293-2.121-0.878
		c-1.172-1.172-1.172-3.071,0-4.243l3.965-3.965l-2.889-2.889l-3.965,3.965c-0.586,0.585-1.354,0.878-2.121,0.878
		s-1.535-0.293-2.121-0.879c-1.172-1.171-1.172-3.071,0-4.243l3.965-3.964l-4.881-4.88c-1.172-1.171-1.172-3.071,0-4.242
		c1.171-1.172,3.071-1.172,4.242,0l4.881,4.881l3.965-3.965c1.172-1.171,3.071-1.171,4.242,0c1.172,1.171,1.172,3.071,0,4.243
		l-3.965,3.965l2.889,2.888l3.965-3.965c1.172-1.172,3.071-1.171,4.242,0c1.172,1.172,1.172,3.072,0,4.243l-3.965,3.965l2.801,2.801
		l3.965-3.965c1.172-1.172,3.071-1.171,4.242,0c1.172,1.172,1.172,3.071,0,4.243l-3.965,3.965l2.889,2.889l3.965-3.965
		c1.172-1.172,3.071-1.171,4.242,0c1.172,1.172,1.172,3.071,0,4.243L58.501,54.2l2.889,2.889l3.965-3.965
		c1.172-1.171,3.072-1.171,4.243,0.001c1.171,1.171,1.171,3.07-0.001,4.242l-3.965,3.965l2.801,2.8l3.965-3.965
		c1.172-1.171,3.072-1.17,4.243,0c1.171,1.171,1.171,3.071-0.001,4.243l-3.965,3.965l2.889,2.888l3.965-3.965
		c1.172-1.171,3.072-1.171,4.243,0s1.171,3.071-0.001,4.243l-3.965,3.965l2.889,2.888l3.965-3.964c1.172-1.171,3.072-1.171,4.242,0
		c1.172,1.172,1.172,3.071,0.001,4.243l-3.965,3.965l2.8,2.8l3.965-3.964c1.172-1.172,3.072-1.171,4.242,0
		c1.172,1.172,1.172,3.071,0.001,4.243l-3.965,3.965l2.888,2.889l3.965-3.965c1.172-1.172,3.072-1.172,4.242,0
		C106.247,89.775,106.247,91.674,105.075,92.846z"/>
</g>
</svg>
