<?xml version="1.0" encoding="utf-8"?>
<!-- Generator: Adobe Illustrator 16.0.0, SVG Export Plug-In . SVG Version: 6.00 Build 0)  -->
<!DOCTYPE svg PUBLIC "-//W3C//DTD SVG 1.1//EN" "http://www.w3.org/Graphics/SVG/1.1/DTD/svg11.dtd">
<svg version="1.1" id="Layer_1" xmlns="http://www.w3.org/2000/svg" xmlns:xlink="http://www.w3.org/1999/xlink" x="0px" y="0px"
	 width="128px" height="128px" viewBox="0 0 128 128" enable-background="new 0 0 128 128" xml:space="preserve">
<g>
	<path fill="#646464" d="M126.979,49h-28C98.426,49,98,49.526,98,50.078V61H30V50.078C30,49.526,29.599,49,29.047,49h-28
		C0.495,49,0,49.526,0,50.078V78c0,0.552,0.495,1,1.047,1h28C29.599,79,30,78.552,30,78V67h68v11c0,0.552,0.426,1,0.979,1h28
		c0.552,0,1.021-0.448,1.021-1V50.078C128,49.526,127.531,49,126.979,49z"/>
</g>
</svg>
