<?xml version="1.0" encoding="utf-8"?>
<!-- Generator: Adobe Illustrator 16.0.0, SVG Export Plug-In . SVG Version: 6.00 Build 0)  -->
<!DOCTYPE svg PUBLIC "-//W3C//DTD SVG 1.1//EN" "http://www.w3.org/Graphics/SVG/1.1/DTD/svg11.dtd">
<svg version="1.1" id="Layer_1" xmlns="http://www.w3.org/2000/svg" xmlns:xlink="http://www.w3.org/1999/xlink" x="0px" y="0px"
	 width="128px" height="128px" viewBox="0 0 128 128" enable-background="new 0 0 128 128" xml:space="preserve">
<g>
	<path fill="#646464" d="M19.309,109.732c1.67-2.106,3.201-4.312,4.596-6.602l-0.088-0.053c-1.424-0.848-1.891-2.688-1.043-4.112
		c0.83-1.397,2.613-1.864,4.025-1.085c0.527-1.064,1.023-2.145,1.496-3.237l-0.066-0.028c-1.525-0.646-2.238-2.407-1.592-3.934
		c0.629-1.482,2.311-2.186,3.805-1.631c0.379-1.13,0.729-2.271,1.055-3.42l-0.018-0.004c-1.6-0.433-2.547-2.079-2.115-3.679
		c0.42-1.554,1.982-2.476,3.537-2.138c0.234-1.177,0.438-2.36,0.617-3.549c-1.621-0.229-2.764-1.715-2.557-3.345
		c0.205-1.601,1.639-2.741,3.229-2.601c0.088-1.201,0.145-2.404,0.178-3.609c-1.611-0.033-2.916-1.334-2.938-2.957
		c-0.018-1.629,1.266-2.963,2.883-3.027c-0.057-1.203-0.148-2.404-0.262-3.603c-0.105,0.011-0.213,0.023-0.316,0.023
		c-1.459,0-2.738-1.066-2.963-2.553c-0.246-1.63,0.871-3.148,2.494-3.407c-0.203-1.182-0.439-2.355-0.697-3.524
		c-0.236,0.058-0.475,0.093-0.709,0.093c-1.295,0-2.49-0.846-2.875-2.151c-0.471-1.589,0.438-3.257,2.025-3.727l0.033-0.01
		c-0.35-1.141-0.725-2.272-1.129-3.394c-0.365,0.146-0.742,0.228-1.113,0.228c-1.145,0-2.236-0.657-2.738-1.768
		c-0.68-1.511-0.008-3.287,1.502-3.968l0.076-0.034c-0.496-1.081-1.014-2.151-1.564-3.204c-0.479,0.281-1.002,0.421-1.523,0.421
		c-0.998,0-1.975-0.498-2.545-1.407c-0.879-1.404-0.453-3.256,0.951-4.136l0.092-0.058c-1.297-2.015-2.707-3.957-4.223-5.82
		C7.211,30.315,0.014,46.332,0.014,64C0.014,81.905,7.414,98.107,19.309,109.732z"/>
	<path fill="#646464" d="M109.264,18.815c-1.488,1.836-2.873,3.747-4.148,5.729l0.092,0.058c1.404,0.88,1.83,2.731,0.951,4.136
		c-0.57,0.909-1.547,1.407-2.545,1.407c-0.52,0-1.043-0.139-1.52-0.419c-0.551,1.053-1.068,2.123-1.564,3.204l0.072,0.032
		c1.51,0.681,2.182,2.457,1.502,3.968c-0.502,1.11-1.594,1.768-2.738,1.768c-0.369,0-0.742-0.081-1.104-0.225
		c-0.404,1.121-0.779,2.253-1.129,3.394l0.023,0.007c1.588,0.47,2.496,2.138,2.025,3.727c-0.385,1.306-1.58,2.151-2.875,2.151
		c-0.23,0-0.463-0.034-0.695-0.09c-0.258,1.169-0.494,2.344-0.697,3.525c1.617,0.266,2.725,1.778,2.48,3.403
		c-0.225,1.486-1.504,2.553-2.963,2.553c-0.098,0-0.199-0.013-0.299-0.022c-0.113,1.199-0.205,2.4-0.262,3.604
		c1.607,0.072,2.883,1.402,2.865,3.025c-0.02,1.617-1.318,2.912-2.92,2.956c0.033,1.204,0.088,2.408,0.176,3.61
		c1.582-0.131,3.01,1.006,3.213,2.601c0.205,1.624-0.93,3.104-2.541,3.341c0.18,1.189,0.381,2.373,0.615,3.551
		c1.547-0.331,3.105,0.591,3.523,2.14c0.432,1.6-0.516,3.247-2.115,3.679l-0.006,0.002c0.324,1.148,0.674,2.289,1.053,3.419
		c1.492-0.548,3.168,0.153,3.795,1.634c0.646,1.526-0.066,3.287-1.592,3.934l-0.059,0.025c0.471,1.093,0.967,2.173,1.492,3.238
		c1.41-0.777,3.191-0.309,4.021,1.087c0.848,1.424,0.381,3.265-1.043,4.112l-0.086,0.052c1.375,2.257,2.881,4.433,4.523,6.512
		C120.625,98.023,127.988,81.858,127.988,64C127.988,46.379,120.826,30.398,109.264,18.815z"/>
	<path fill="#646464" d="M99.086,106.211l-0.082,0.049c-0.482,0.286-1.01,0.422-1.531,0.422c-1.023,0-2.021-0.523-2.582-1.466
		c-0.848-1.424-0.379-3.265,1.045-4.112l0.217-0.13c-0.658-1.3-1.275-2.624-1.859-3.966l-0.059,0.023
		c-0.381,0.162-0.779,0.239-1.168,0.239c-1.17,0-2.279-0.687-2.764-1.83c-0.646-1.525,0.064-3.286,1.59-3.933l0.215-0.091
		c-0.479-1.381-0.912-2.781-1.314-4.196l-0.062,0.017c-0.262,0.07-0.525,0.104-0.783,0.104c-1.322,0-2.533-0.881-2.895-2.219
		c-0.432-1.6,0.514-3.247,2.113-3.679l0.195-0.053c-0.295-1.438-0.545-2.892-0.764-4.356l-0.096,0.013
		c-0.129,0.017-0.256,0.024-0.383,0.024c-1.488,0-2.779-1.106-2.973-2.621c-0.209-1.645,0.955-3.146,2.598-3.354l0.168-0.021
		c-0.111-1.468-0.176-2.946-0.213-4.432l-0.148-0.002c-1.656-0.02-2.984-1.2-2.965-2.856c0.021-1.645,1.359-2.785,3-2.785
		c0.012,0,0.023,0,0.037,0h0.125c0.068-2,0.18-3.136,0.322-4.601l-0.176-0.116c-1.639-0.248-2.768-1.961-2.52-3.6
		C85.621,51.045,87.156,50,88.787,50h0.082c0.25-1,0.533-2.769,0.859-4.198l-0.195,0.011c-1.588-0.471-2.496-2.104-2.025-3.693
		c0.469-1.588,2.139-2.477,3.727-2.01l0.053,0.024c0.434-1.406,0.893-2.794,1.4-4.163l-0.205-0.09
		c-1.51-0.682-2.182-2.458-1.5-3.968c0.682-1.511,2.459-2.181,3.969-1.499l0.055,0.025c0.617-1.329,1.258-2.644,1.947-3.928
		l-0.205-0.129c-1.404-0.879-1.83-2.73-0.951-4.135c0.881-1.404,2.732-1.829,4.137-0.949l0.082,0.051
		c1.479-2.285,3.08-4.485,4.803-6.586C93.732,5.558,79.502,0.013,64,0.013c-15.457,0-29.65,5.51-40.723,14.667
		c1.75,2.126,3.373,4.354,4.873,6.671l0.082-0.052c1.406-0.88,3.256-0.455,4.137,0.949c0.879,1.404,0.453,3.256-0.951,4.135
		l-0.203,0.128c0.689,1.284,1.328,2.6,1.945,3.929l0.055-0.025c1.51-0.682,3.287-0.011,3.969,1.5c0.682,1.51,0.01,3.287-1.5,3.969
		l-0.203,0.092c0.508,1.369,0.965,2.762,1.398,4.167l0.053-0.016c1.59-0.467,3.258,0.438,3.727,2.027
		c0.471,1.589-0.438,3.257-2.025,3.727l-0.193,0.057c0.326,1.431,0.607,2.878,0.857,4.336l0.082-0.013
		c1.637-0.238,3.166,0.881,3.412,2.52c0.248,1.639-0.881,3.167-2.52,3.414l-0.176,0.206C40.238,57.864,40.35,59,40.418,61h0.125
		c0.014,0,0.025,0,0.037,0c1.641,0,2.979,1.141,3,2.785c0.02,1.656-1.309,2.927-2.965,2.946l-0.148-0.043
		c-0.037,1.485-0.102,2.941-0.213,4.409l0.168,0.01c1.643,0.209,2.807,1.705,2.598,3.35c-0.193,1.515-1.484,2.618-2.973,2.618
		c-0.127,0-0.254-0.009-0.383-0.026l-0.096-0.013c-0.219,1.465-0.469,2.917-0.764,4.356L39,81.444
		c1.6,0.432,2.545,2.079,2.113,3.679c-0.361,1.338-1.572,2.219-2.895,2.219c-0.258,0-0.521-0.034-0.783-0.104l-0.061-0.017
		c-0.402,1.415-0.838,2.814-1.316,4.195l0.213,0.091c1.525,0.646,2.238,2.407,1.592,3.934c-0.484,1.143-1.594,1.83-2.764,1.83
		c-0.389,0-0.787-0.077-1.168-0.238l-0.057-0.024c-0.586,1.342-1.203,2.666-1.863,3.965l0.219,0.131
		c1.424,0.848,1.891,2.688,1.045,4.112c-0.562,0.943-1.559,1.466-2.582,1.466c-0.521,0-1.051-0.136-1.531-0.422l-0.082-0.049
		c-1.605,2.619-3.365,5.133-5.281,7.521c10.994,8.905,24.982,14.255,40.201,14.255c15.266,0,29.293-5.38,40.303-14.335
		C102.41,111.289,100.674,108.801,99.086,106.211z"/>
</g>
</svg>
