<?xml version="1.0" encoding="utf-8"?>
<!-- Generator: Adobe Illustrator 16.0.0, SVG Export Plug-In . SVG Version: 6.00 Build 0)  -->
<!DOCTYPE svg PUBLIC "-//W3C//DTD SVG 1.1//EN" "http://www.w3.org/Graphics/SVG/1.1/DTD/svg11.dtd">
<svg version="1.1" id="Layer_1" xmlns="http://www.w3.org/2000/svg" xmlns:xlink="http://www.w3.org/1999/xlink" x="0px" y="0px"
	 width="128px" height="128px" viewBox="0 0 128 128" enable-background="new 0 0 128 128" xml:space="preserve">
<g>
	<path fill="#646464" d="M64.004,50.466c-6.488,0-12.859,0.489-19.004,1.422V41.174l29.014-12.709
		c0.363-0.159,0.599-0.519,0.599-0.916s-0.235-0.757-0.599-0.916L45,13.923V12.5c0-1.654-1.346-3-3-3s-3,1.346-3,3v40.45
		C15.286,57.875,0,69.223,0,81.991v4.993C0,104.362,28.707,118.5,64,118.5s64-14.138,64-31.517v-4.993
		C128,64.608,99.297,50.466,64.004,50.466z M64.013,85.834c-5.302,0-8.997-2.025-8.997-3.843c0-1.426,2.214-2.865,5.365-3.495
		l0.617-0.112c0.966-0.157,1.98-0.236,3.015-0.236c5.302,0,8.997,2.025,8.997,3.843S69.314,85.834,64.013,85.834z"/>
</g>
</svg>
