<?xml version="1.0" encoding="utf-8"?>
<!-- Generator: Adobe Illustrator 16.0.0, SVG Export Plug-In . SVG Version: 6.00 Build 0)  -->
<!DOCTYPE svg PUBLIC "-//W3C//DTD SVG 1.1//EN" "http://www.w3.org/Graphics/SVG/1.1/DTD/svg11.dtd">
<svg version="1.1" id="Layer_1" xmlns="http://www.w3.org/2000/svg" xmlns:xlink="http://www.w3.org/1999/xlink" x="0px" y="0px"
	 width="128px" height="128px" viewBox="0 0 128 128" enable-background="new 0 0 128 128" xml:space="preserve">
<g>
	<path fill="#646464" d="M126.536,90.15L68.25,31.865c-7.551-7.552-17.59-11.71-28.27-11.71c-10.679,0-20.718,4.158-28.27,11.71
		C4.16,39.416,0.001,49.455,0.001,60.135c0,10.679,4.158,20.718,11.709,28.269c7.551,7.552,17.591,11.71,28.27,11.71
		c10.627,0,20.622-4.119,28.161-11.602c0.006-0.005,0.011-0.011,0.017-0.017c3.239-3.239,7.546-5.023,12.127-5.023
		s8.888,1.784,12.127,5.022l17.89,17.891c0.941,0.941,2.197,1.46,3.536,1.46c1.338,0,2.594-0.519,3.535-1.46l9.163-9.163
		C128.486,95.272,128.486,92.1,126.536,90.15z M61.916,82.069c-5.859,5.859-13.649,9.086-21.935,9.086s-16.076-3.227-21.935-9.086
		S8.959,68.42,8.959,60.134c0-8.285,3.227-16.075,9.086-21.935s13.649-9.086,21.935-9.086s16.076,3.227,21.935,9.086
		C74.01,50.294,74.01,69.975,61.916,82.069z"/>
</g>
</svg>
