<?xml version="1.0" encoding="utf-8"?>
<!-- Generator: Adobe Illustrator 16.0.0, SVG Export Plug-In . SVG Version: 6.00 Build 0)  -->
<!DOCTYPE svg PUBLIC "-//W3C//DTD SVG 1.1//EN" "http://www.w3.org/Graphics/SVG/1.1/DTD/svg11.dtd">
<svg version="1.1" id="Layer_1" xmlns="http://www.w3.org/2000/svg" xmlns:xlink="http://www.w3.org/1999/xlink" x="0px" y="0px"
	 width="128px" height="128px" viewBox="0 0 128 128" enable-background="new 0 0 128 128" xml:space="preserve">
<g>
	<path fill="#646464" d="M122.595,43c-0.011,0-0.023,0-0.034,0c-0.004,0-0.024,0-0.026,0c-0.011,0-0.026,0-0.04,0
		c-1.296,0-2.495,0.443-3.495,1.215V30.897C119,24.884,114.19,20,108.136,20c-0.013,0-0.026,0-0.04,0c-0.012,0-0.058,0-0.064,0
		c-0.018,0-0.037,0-0.056,0C101.925,20,97,24.88,97,30.897V54H31V30.897C31,24.884,26.106,20,20.052,20c-0.013,0-0.026,0-0.04,0
		c-0.013,0-0.057,0-0.064,0c-0.019,0-0.037,0-0.056,0C13.841,20,9,24.88,9,30.897v13.319C8,43.446,6.831,43,5.536,43
		c-0.011,0-0.023,0-0.034,0c-0.004,0-0.024,0-0.026,0c-0.011,0-0.026,0-0.04,0C2.455,43,0,45.417,0,48.404v31.047
		C0,82.439,2.455,85,5.437,85c0.009,0,0.019,0,0.028,0h0.037c0.009,0,0.019,0,0.028,0C6.826,85,8,84.413,9,83.641v13.422
		C9,103.08,13.841,108,19.893,108c0.012,0,0.024,0,0.036,0h0.084c0.012,0,0.024,0,0.036,0C26.1,108,31,103.08,31,97.063V74h66
		v23.063C97,103.08,101.925,108,107.977,108c0.012,0,0.024,0,0.036,0h0.084c0.007,0,0.013,0,0.02,0c0.015,0-0.018,0.031-0.003,0.03
		c6.039-0.078,10.886-4.96,10.886-10.967V83.641c1,0.772,2.199,1.359,3.495,1.359c0.009,0,0.019,0,0.028,0h0.037
		c0.006,0,0.013,0,0.02,0c0.014,0,0.029,0,0.043,0c2.966,0,5.376-2.573,5.376-5.548V48.404C128,45.422,125.578,43,122.595,43z"/>
</g>
</svg>
