<?xml version="1.0" encoding="utf-8"?>
<!-- Generator: Adobe Illustrator 16.0.0, SVG Export Plug-In . SVG Version: 6.00 Build 0)  -->
<!DOCTYPE svg PUBLIC "-//W3C//DTD SVG 1.1//EN" "http://www.w3.org/Graphics/SVG/1.1/DTD/svg11.dtd">
<svg version="1.1" id="Layer_1" xmlns="http://www.w3.org/2000/svg" xmlns:xlink="http://www.w3.org/1999/xlink" x="0px" y="0px"
	 width="128px" height="128px" viewBox="0 0 128 128" enable-background="new 0 0 128 128" xml:space="preserve">
<g>
	<path fill="#646464" d="M110.926,2.161c-0.207-0.774-0.701-1.42-1.393-1.817c-0.689-0.401-1.494-0.512-2.268-0.305
		c-0.775,0.207-1.424,0.701-1.825,1.395L64.111,72.919c-0.073-0.002-0.145,0.004-0.217,0.004L22.562,1.433
		c-0.534-0.923-1.528-1.495-2.595-1.495c-0.525,0-1.043,0.14-1.496,0.403c-0.692,0.399-1.188,1.045-1.395,1.819
		c-0.206,0.771-0.1,1.578,0.301,2.271l41.335,71.492c-0.508,0.859-0.789,1.825-0.831,2.833C57.766,81.51,59,83.916,62,84.775v1.237
		c-11,1.01-18.969,10.071-18.969,20.944c0,11.549,9.375,21.044,20.924,21.044h0.002c11.549,0,20.969-9.497,20.969-21.044
		C84.926,96.081,77,87.021,66,86.012v-1.248c1-0.269,1.484-0.684,2.111-1.259c1.198-1.104,1.886-2.608,1.954-4.236
		c0.049-1.166-0.241-2.292-0.808-3.279l41.37-71.559C111.028,3.739,111.132,2.932,110.926,2.161z M71.014,106.857
		c0,3.891-3.166,7.056-7.057,7.056c-3.892,0-7.057-3.165-7.057-7.056s3.165-7.057,7.057-7.057
		C67.848,99.8,71.014,102.966,71.014,106.857z"/>
</g>
</svg>
