<?xml version="1.0" encoding="utf-8"?>
<!-- Generator: Adobe Illustrator 16.0.0, SVG Export Plug-In . SVG Version: 6.00 Build 0)  -->
<!DOCTYPE svg PUBLIC "-//W3C//DTD SVG 1.1//EN" "http://www.w3.org/Graphics/SVG/1.1/DTD/svg11.dtd">
<svg version="1.1" id="Layer_1" xmlns="http://www.w3.org/2000/svg" xmlns:xlink="http://www.w3.org/1999/xlink" x="0px" y="0px"
	 width="128px" height="128px" viewBox="0 0 128 128" enable-background="new 0 0 128 128" xml:space="preserve">
<g>
	
		<path fill="none" stroke="#646464" stroke-width="6.147" stroke-linecap="round" stroke-linejoin="round" stroke-miterlimit="10" d="
		M24.832,40.246c-6.037,8.973-9.559,19.778-9.559,31.406c0,31.119,25.229,56.348,56.348,56.348s56.348-25.229,56.348-56.348
		c0-31.121-25.229-56.348-56.348-56.348c-11.594,0-22.371,3.502-31.33,9.506"/>
	<path fill="#646464" d="M73.857,69.479L40.504,36.127l3.289-8.981c0.139-0.374,0.045-0.794-0.236-1.077l-25.77-25.77
		c-0.246-0.246-0.605-0.35-0.945-0.275s-0.621,0.32-0.74,0.648l-4.127,11.27L0.703,16.068c-0.328,0.121-0.572,0.4-0.648,0.742
		c-0.074,0.342,0.029,0.698,0.277,0.945L26.1,43.524c0.195,0.196,0.457,0.3,0.725,0.3c0.119,0,0.238-0.02,0.354-0.062l8.98-3.289
		L69.51,73.825c0.6,0.601,1.387,0.9,2.174,0.9s1.572-0.3,2.174-0.9C75.057,72.625,75.057,70.679,73.857,69.479z"/>
	<path fill="#646464" d="M71.684,49.854c-12.039,0-21.797,9.759-21.797,21.796c0,12.039,9.758,21.799,21.797,21.799
		S93.48,83.689,93.48,71.65C93.48,59.613,83.723,49.854,71.684,49.854z M71.684,80.469c-4.869,0-8.818-3.947-8.818-8.818
		c0-4.869,3.949-8.815,8.818-8.815S80.5,66.781,80.5,71.65C80.5,76.521,76.553,80.469,71.684,80.469z"/>
	<path fill="#646464" d="M71.684,25.531c-25.473,0-46.121,20.648-46.121,46.121c0,25.471,20.648,46.12,46.121,46.12
		s46.121-20.649,46.121-46.12C117.805,46.18,97.156,25.531,71.684,25.531z M71.621,105.332c-18.6,0-33.68-15.08-33.68-33.682
		c0-18.6,15.08-33.678,33.68-33.678c18.602,0,33.68,15.078,33.68,33.678C105.301,90.252,90.223,105.332,71.621,105.332z"/>
</g>
</svg>
