<?xml version="1.0" encoding="utf-8"?>
<!-- Generator: Adobe Illustrator 16.0.0, SVG Export Plug-In . SVG Version: 6.00 Build 0)  -->
<!DOCTYPE svg PUBLIC "-//W3C//DTD SVG 1.1//EN" "http://www.w3.org/Graphics/SVG/1.1/DTD/svg11.dtd">
<svg version="1.1" id="Layer_1" xmlns="http://www.w3.org/2000/svg" xmlns:xlink="http://www.w3.org/1999/xlink" x="0px" y="0px"
	 width="128px" height="128px" viewBox="0 0 128 128" enable-background="new 0 0 128 128" xml:space="preserve">
<g>
	<path fill="#646464" d="M10.896,59.771c-3.781,5.132-6.898,10.772-9.28,16.8c-2.213,5.604-2.151,10.167,0.181,13.596
		C3.976,93.372,8.117,95,13.159,95h77.7c-4.82-1-9.86-1.619-14.984-2.809C45.317,85.091,23.542,74.354,10.896,59.771z
		 M12.573,55.188C40.103,89.626,114.3,94.69,128,95.335c-1.154-34.8-29.824-62.752-64.899-62.752
		c-28.554,0-49.714,11.729-55.418,15.249c1.353,2.508,2.939,4.89,4.719,7.14C12.463,55.042,12.521,55.112,12.573,55.188z"/>
</g>
</svg>
