<?xml version="1.0" encoding="utf-8"?>
<!-- Generator: Adobe Illustrator 16.0.0, SVG Export Plug-In . SVG Version: 6.00 Build 0)  -->
<!DOCTYPE svg PUBLIC "-//W3C//DTD SVG 1.1//EN" "http://www.w3.org/Graphics/SVG/1.1/DTD/svg11.dtd">
<svg version="1.1" id="Layer_1" xmlns="http://www.w3.org/2000/svg" xmlns:xlink="http://www.w3.org/1999/xlink" x="0px" y="0px"
	 width="128px" height="128px" viewBox="0 0 128 128" enable-background="new 0 0 128 128" xml:space="preserve">
<g>
	<path fill="#646464" d="M118.953,44h-13.875C100.116,44,96,47.996,96,52.958v0.504c-21-3.256-43-3.248-64,0.023v-0.527
		C32,47.996,28.035,44,23.072,44h-14C4.11,44,0,47.996,0,52.958v22.083C0,80.004,4.11,84,9.072,84h14C28.035,84,32,80.004,32,75.041
		v-0.527c21,3.271,43,3.28,64,0.023v0.504c0,4.963,4.116,8.959,9.078,8.959h13.875c4.962,0,9.047-3.996,9.047-8.959V52.958
		C128,47.996,123.916,44,118.953,44z"/>
</g>
</svg>
