<?xml version="1.0" encoding="utf-8"?>
<!-- Generator: Adobe Illustrator 16.0.0, SVG Export Plug-In . SVG Version: 6.00 Build 0)  -->
<!DOCTYPE svg PUBLIC "-//W3C//DTD SVG 1.1//EN" "http://www.w3.org/Graphics/SVG/1.1/DTD/svg11.dtd">
<svg version="1.1" id="Layer_1" xmlns="http://www.w3.org/2000/svg" xmlns:xlink="http://www.w3.org/1999/xlink" x="0px" y="0px"
	 width="128px" height="128px" viewBox="0 0 128 128" enable-background="new 0 0 128 128" xml:space="preserve">
<g>
	<path fill="#646464" d="M46.013,61H2.999C1.345,61,0,62.347,0,64c0,1.654,1.345,3,2.999,3h43.014c1.654,0,3-1.346,3-3
		C49.013,62.347,47.667,61,46.013,61z"/>
	<path fill="#646464" d="M125,61H81.986c-1.654,0-2.999,1.347-2.999,3c0,1.654,1.345,3,2.999,3H125c1.654,0,3-1.346,3-3
		C128,62.347,126.655,61,125,61z"/>
	<path fill="#646464" d="M64,78.986c-1.653,0-3,1.346-3,3v43.015c0,1.653,1.347,2.999,3,2.999c1.654,0,3-1.346,3-2.999V81.986
		C67,80.332,65.654,78.986,64,78.986z"/>
	<path fill="#646464" d="M64,0c-1.653,0-3,1.346-3,3v43.014c0,1.653,1.347,2.998,3,2.998c1.654,0,3-1.345,3-2.998V3
		C67,1.346,65.654,0,64,0z"/>
	<path fill="#646464" d="M63.98,60.981c-1.665,0-3.02,1.354-3.02,3.019c0,1.665,1.355,3.02,3.02,3.02s3.019-1.354,3.019-3.02
		C66.999,62.336,65.645,60.981,63.98,60.981z"/>
</g>
</svg>
