<?xml version="1.0" encoding="utf-8"?>
<!-- Generator: Adobe Illustrator 16.0.0, SVG Export Plug-In . SVG Version: 6.00 Build 0)  -->
<!DOCTYPE svg PUBLIC "-//W3C//DTD SVG 1.1//EN" "http://www.w3.org/Graphics/SVG/1.1/DTD/svg11.dtd">
<svg version="1.1" id="Layer_1" xmlns="http://www.w3.org/2000/svg" xmlns:xlink="http://www.w3.org/1999/xlink" x="0px" y="0px"
	 width="128px" height="128px" viewBox="0 0 128 128" enable-background="new 0 0 128 128" xml:space="preserve">
<g>
	<path fill="#646464" d="M88,121v-7.938c0-4.859-3.165-8.986-7.543-10.438c-0.831-2.036-2.527-3.566-4.556-4.238L73.969,52h0.044
		c1.654,0,3-1.346,3-3s-1.346-3-3-3h-0.294l-0.584-14.008c1.431-0.306,2.648-1.358,2.937-2.652l3.812-17.124
		c0.171-0.768,0.001-1.536-0.478-2.133C78.863,9.405,77.983,9,76.991,9H69V5c0-2.757-2.228-5-5.016-5C61.228,0,59,2.243,59,5v4
		h-7.942c-0.992,0-1.873,0.404-2.416,1.082c-0.479,0.597-0.648,1.356-0.478,2.124l3.812,17.126c0.289,1.294,1.506,2.353,2.937,2.658
		L54.33,46h-0.292c-1.654,0-3,1.346-3,3s1.346,3,3,3h0.097l-1.99,46.387c-2.025,0.672-3.726,2.201-4.558,4.23
		C43.192,104.06,40,108.191,40,113.062V121c-2,0-3,1.346-3,3v0.917c0,1.654,1.358,3.083,3.013,3.083h48
		c1.654,0,2.987-1.429,2.987-3.083V124C91,122.346,90,121,88,121z"/>
</g>
</svg>
