<?xml version="1.0" encoding="utf-8"?>
<!-- Generator: Adobe Illustrator 16.0.0, SVG Export Plug-In . SVG Version: 6.00 Build 0)  -->
<!DOCTYPE svg PUBLIC "-//W3C//DTD SVG 1.1//EN" "http://www.w3.org/Graphics/SVG/1.1/DTD/svg11.dtd">
<svg version="1.1" id="Layer_1" xmlns="http://www.w3.org/2000/svg" xmlns:xlink="http://www.w3.org/1999/xlink" x="0px" y="0px"
	 width="128px" height="128px" viewBox="0 0 128 128" enable-background="new 0 0 128 128" xml:space="preserve">
<g>
	<g>
		<path fill="#646464" d="M88.787,67H67v21.788C78,87.426,87.418,78,88.787,67z"/>
		<path fill="#646464" d="M94.826,67C93.406,82,82,93.414,67,94.826v33.057C100,126.363,126.355,100,127.883,67H94.826z"/>
	</g>
	<g>
		<path fill="#646464" d="M61,88.784V67H39.213C40.58,78,50,87.408,61,88.784z"/>
		<path fill="#646464" d="M33.174,67H0.117C1.645,100,28,126.347,61,127.881V94.823C46,93.397,34.592,82,33.174,67z"/>
	</g>
	<g>
		<path fill="#646464" d="M61,39.214C50,40.59,40.58,50,39.213,61H61V39.214z"/>
		<path fill="#646464" d="M61,33.175V0.118C28,1.652,1.645,28,0.117,61h33.057C34.592,46,46,34.601,61,33.175z"/>
	</g>
	<g>
		<path fill="#646464" d="M94.826,61h33.057C126.355,28,100,1.635,67,0.117v33.055C82,34.584,93.406,46,94.826,61z"/>
		<path fill="#646464" d="M67,39.21V61h21.787C87.418,50,78,40.572,67,39.21z"/>
	</g>
</g>
</svg>
