<?xml version="1.0" encoding="utf-8"?>
<!-- Generator: Adobe Illustrator 16.0.0, SVG Export Plug-In . SVG Version: 6.00 Build 0)  -->
<!DOCTYPE svg PUBLIC "-//W3C//DTD SVG 1.1//EN" "http://www.w3.org/Graphics/SVG/1.1/DTD/svg11.dtd">
<svg version="1.1" id="Layer_1" xmlns="http://www.w3.org/2000/svg" xmlns:xlink="http://www.w3.org/1999/xlink" x="0px" y="0px"
	 width="128px" height="128px" viewBox="0 0 128 128" enable-background="new 0 0 128 128" xml:space="preserve">
<g>
	<path fill="#646464" d="M127.377,124.587l-12.271-12.271c1.941-2.545,3.016-5.62,3.031-8.861c0.02-3.916-1.488-7.592-4.244-10.348
		c-0.059-0.059-0.131-0.09-0.197-0.131c-0.041-0.068-0.074-0.143-0.133-0.201l-6.15-6.148c-1.756-1.759-4.496-1.943-6.492-0.576
		L52.902,51.376L40.396,0.761c-0.086-0.35-0.355-0.626-0.703-0.723c-0.346-0.1-0.719,0.001-0.975,0.256L25.385,13.539
		C25.197,13.727,25,13.98,25,14.246V25H14.281c-0.266,0-0.52,0.178-0.707,0.366L0.328,38.648c-0.254,0.254-0.352,0.645-0.256,0.993
		c0.098,0.348,0.373,0.624,0.725,0.712l50.535,12.489l34.707,48.08c-1.393,1.998-1.219,4.758,0.549,6.526l6.15,6.151
		c0.059,0.059,0.131,0.091,0.197,0.132c0.041,0.067,0.074,0.14,0.133,0.198c2.826,2.827,6.545,4.239,10.275,4.237
		c3.148,0,6.297-1.02,8.934-3.027l12.273,12.274c0.389,0.391,0.9,0.586,1.412,0.586s1.025-0.195,1.414-0.586
		C128.158,126.634,128.158,125.368,127.377,124.587z"/>
</g>
</svg>
