<?xml version="1.0" encoding="utf-8"?>
<!-- Generator: Adobe Illustrator 16.0.0, SVG Export Plug-In . SVG Version: 6.00 Build 0)  -->
<!DOCTYPE svg PUBLIC "-//W3C//DTD SVG 1.1//EN" "http://www.w3.org/Graphics/SVG/1.1/DTD/svg11.dtd">
<svg version="1.1" id="Layer_1" xmlns="http://www.w3.org/2000/svg" xmlns:xlink="http://www.w3.org/1999/xlink" x="0px" y="0px"
	 width="128px" height="128px" viewBox="0 0 128 128" enable-background="new 0 0 128 128" xml:space="preserve">
<g>
	<path fill="#646464" d="M125.171,45.186c-0.583-0.034-1.162-0.23-1.658-0.614C105.749,30.81,85.431,21.306,63.085,16.271
		c-0.535,6.009-0.699,12.055-0.492,18.089c24.279,5.183,46.244,15.393,65.369,30.394c0.004-0.258,0.021-0.513,0.021-0.771
		C127.982,57.44,126.995,51.13,125.171,45.186z"/>
	<path fill="#646464" d="M105.281,87.518c-4.935-3.47-10.086-6.637-15.412-9.479c-16.441,18.229-36.012,32.044-58.257,41.115
		c5.62,3.305,11.787,5.773,18.336,7.242c0.311-0.405,0.717-0.744,1.223-0.954C71.72,116.94,89.903,104.183,105.281,87.518z"/>
	<path fill="#646464" d="M57.487,12.02c0.002-0.004,0.004-0.008,0.004-0.012c0.453-3.966,1.062-7.909,1.824-11.819
		c-7.444,0.539-14.533,2.346-21.053,5.215c-0.004,0.136-0.003,0.272-0.025,0.412c-3.834,23.613-2.08,47.325,5.189,70.545
		c5.938-4.057,11.568-8.548,16.825-13.423c-1.897-8.371-3.075-16.922-3.528-25.519c-0.056-0.263-0.063-0.538-0.045-0.816
		c-0.385-8.104-0.122-16.238,0.779-24.292C57.469,12.214,57.468,12.117,57.487,12.02z"/>
	<path fill="#646464" d="M126.962,71.626c-18.609-15.279-40.136-25.71-64.027-31.058c0.544,7.103,1.605,14.159,3.178,21.087
		c8.268,2.556,16.328,5.838,24.059,9.78c0.242,0.081,0.472,0.206,0.691,0.35c7.115,3.673,13.941,7.906,20.389,12.641
		c0.18,0.102,0.354,0.222,0.515,0.365c0.015,0.012,0.024,0.028,0.038,0.041c3.266,2.42,6.43,4.97,9.484,7.641
		c3.146-6.316,5.274-13.225,6.182-20.516C127.293,71.864,127.122,71.758,126.962,71.626z"/>
	<path fill="#646464" d="M110.143,91.09c-14.295,15.616-30.958,27.956-49.646,36.774c1.161,0.062,2.327,0.1,3.504,0.1
		c22.904,0,42.986-12.044,54.29-30.136C115.659,95.486,112.942,93.237,110.143,91.09z"/>
	<path fill="#646464" d="M25.858,114.983c22.353-8.487,41.999-21.858,58.464-39.753c-6.479-3.112-13.181-5.743-20.029-7.858
		c-6.349,5.884-13.226,11.227-20.51,15.955c-0.187,0.166-0.403,0.298-0.634,0.416c-6.742,4.329-13.827,8.125-21.154,11.343
		c-0.177,0.104-0.366,0.193-0.569,0.261c-0.015,0.005-0.03,0.006-0.045,0.012c-3.485,1.512-7.023,2.89-10.604,4.133
		c4.018,6.01,9.021,11.301,14.787,15.641C25.661,115.081,25.753,115.023,25.858,114.983z"/>
	<path fill="#646464" d="M16.781,90.789C10.483,70.85,8.104,50.504,9.692,30.161c-6.124,9.813-9.675,21.399-9.675,33.82
		c0,10.941,2.753,21.239,7.594,30.246C10.702,93.185,13.762,92.04,16.781,90.789z"/>
	<path fill="#646464" d="M16.472,22.893c-2.844,21.933-0.873,43.943,5.835,65.477c5.472-2.538,10.79-5.42,15.913-8.613
		c-7.566-23.358-9.746-47.218-6.477-71.024c-5.803,3.396-11.025,7.674-15.477,12.659C16.454,21.854,16.54,22.363,16.472,22.893z"/>
	<path fill="#646464" d="M63.746,10.274c21.03,4.65,40.341,13.117,57.54,25.214c-10.276-20.621-31.349-34.9-55.82-35.452
		C64.771,3.424,64.196,6.839,63.746,10.274z"/>
</g>
</svg>
