<?xml version="1.0" encoding="utf-8"?>
<!-- Generator: Adobe Illustrator 16.0.0, SVG Export Plug-In . SVG Version: 6.00 Build 0)  -->
<!DOCTYPE svg PUBLIC "-//W3C//DTD SVG 1.1//EN" "http://www.w3.org/Graphics/SVG/1.1/DTD/svg11.dtd">
<svg version="1.1" id="Layer_1" xmlns="http://www.w3.org/2000/svg" xmlns:xlink="http://www.w3.org/1999/xlink" x="0px" y="0px"
	 width="128px" height="128px" viewBox="0 0 128 128" enable-background="new 0 0 128 128" xml:space="preserve">
<g>
	<path fill="#646464" d="M127.098,114.509l-0.678-0.677c-1.137-1.137-2.961-1.159-4.137-0.086L80.529,71.992
		c-2.357-2.357-5.246-6.634-7.566-10.07c-0.669-0.991-1.294-1.917-1.853-2.716l-3.704-5.308c-2.551-3.657-7.194-9.198-10.348-12.352
		L18.167,2.654c-3.509-3.509-9.219-3.509-12.728,0L2.651,5.442c-1.694,1.693-2.626,3.954-2.626,6.364
		c0,2.411,0.933,4.67,2.626,6.364l21.267,21.267c-4.862,1.184-8.729,5.108-9.679,10.204c-0.146,0.783-0.22,1.586-0.22,2.388
		c0,7.151,5.818,12.969,12.969,12.969c6.093,0,11.204-4.229,12.587-9.902l1.966,1.967c3.152,3.152,8.693,7.794,12.352,10.348
		l5.308,3.705c0.8,0.558,1.728,1.185,2.721,1.855c3.435,2.32,7.709,5.207,10.065,7.563l41.754,41.754
		c-0.505,0.552-0.791,1.259-0.791,2.016c0,0.803,0.312,1.557,0.876,2.122l0.678,0.678c0.565,0.565,1.318,0.876,2.121,0.876
		c0.803,0,1.557-0.312,2.121-0.876l8.35-8.35C128.268,117.583,128.268,115.679,127.098,114.509z M26.988,60.997
		c-4.946,0-8.969-4.023-8.969-8.969c0-0.557,0.051-1.114,0.152-1.656c0.79-4.238,4.498-7.313,8.817-7.313
		c4.945,0,8.969,4.023,8.969,8.969C35.957,56.974,31.934,60.997,26.988,60.997z"/>
</g>
</svg>
