<?xml version="1.0" encoding="utf-8"?>
<!-- Generator: Adobe Illustrator 16.0.0, SVG Export Plug-In . SVG Version: 6.00 Build 0)  -->
<!DOCTYPE svg PUBLIC "-//W3C//DTD SVG 1.1//EN" "http://www.w3.org/Graphics/SVG/1.1/DTD/svg11.dtd">
<svg version="1.1" id="Layer_1" xmlns="http://www.w3.org/2000/svg" xmlns:xlink="http://www.w3.org/1999/xlink" x="0px" y="0px"
	 width="128px" height="128px" viewBox="0 0 128 128" enable-background="new 0 0 128 128" xml:space="preserve">
<g>
	<path fill="#646464" d="M125,94.039V71.883c1-0.42,2-1.516,2-2.81v-2.031c0-1.654-1.343-3.042-2.998-3.042H88.018
		C86.364,64,85,65.388,85,67.042v2.031c0,1.294,1,2.39,2,2.81V94h-4V31.812c1-0.416,2-1.514,2-2.812v-2.031
		C85,25.314,83.672,24,82.018,24H46.034C44.379,24,43,25.314,43,26.969V29c0,1.291,1,2.383,2,2.806V94h-5V51.81
		c1-0.42,2-1.515,2-2.81v-2.031C42,45.314,40.662,44,39.007,44H3.023C1.369,44,0,45.314,0,46.969V49c0,1.295,1,2.39,2,2.81v42.414
		c-1,0.414-2,1.514-2,2.815v5.953C0,103.545,0.45,104,1.002,104h126.021c0.552,0,0.977-0.455,0.977-1.008v-5.953
		C128,95.385,127,94.039,125,94.039z"/>
</g>
</svg>
