<?xml version="1.0" encoding="utf-8"?>
<!-- Generator: Adobe Illustrator 16.0.0, SVG Export Plug-In . SVG Version: 6.00 Build 0)  -->
<!DOCTYPE svg PUBLIC "-//W3C//DTD SVG 1.1//EN" "http://www.w3.org/Graphics/SVG/1.1/DTD/svg11.dtd">
<svg version="1.1" id="Layer_1" xmlns="http://www.w3.org/2000/svg" xmlns:xlink="http://www.w3.org/1999/xlink" x="0px" y="0px"
	 width="128px" height="128px" viewBox="0 0 128 128" enable-background="new 0 0 128 128" xml:space="preserve">
<g>
	<path fill="#646464" d="M117.434,1.22C116.87,0.476,115.976,0,115.042,0H12.972c-0.934,0-1.828,0.476-2.392,1.22
		c-0.563,0.745-0.749,1.742-0.491,2.653l28.007,94.938c0.27,0.951,0.904,1.695,1.904,2.016v3.13C40,117.214,50.742,128,64,128
		s24-10.786,24-24.043v-3.13c1-0.32,1.643-1.055,1.908-1.997l28.008-94.969C118.17,2.962,117.997,1.965,117.434,1.22z M41.067,6H61
		v89h-6.333L41.067,6z M43.224,95L16.952,6h18.051l13.599,89H43.224z M79.412,95L93.011,6h18.051L84.79,95H79.412z M67,95V6h19.946
		L73.348,95H67z"/>
</g>
</svg>
