<?xml version="1.0" encoding="utf-8"?>
<!-- Generator: Adobe Illustrator 16.0.0, SVG Export Plug-In . SVG Version: 6.00 Build 0)  -->
<!DOCTYPE svg PUBLIC "-//W3C//DTD SVG 1.1//EN" "http://www.w3.org/Graphics/SVG/1.1/DTD/svg11.dtd">
<svg version="1.1" id="Layer_1" xmlns="http://www.w3.org/2000/svg" xmlns:xlink="http://www.w3.org/1999/xlink" x="0px" y="0px"
	 width="128px" height="128px" viewBox="0 0 128 128" enable-background="new 0 0 128 128" xml:space="preserve">
<g>
	<path fill="#646464" d="M66.489,126.57c0.006-0.009,0.011-0.02,0.018-0.028c0.002-0.004,0.005-0.006,0.008-0.01
		c1.631-2.504,39.969-61.574,39.969-84.012c0-23.426-19.058-42.484-42.482-42.484c-23.426,0-42.484,19.059-42.484,42.484
		c0,22.438,38.34,81.508,39.971,84.012c0.003,0.004,0.006,0.006,0.009,0.01c0.006,0.009,0.011,0.02,0.017,0.029l0.002,0.002
		c0.052,0.076,0.113,0.143,0.171,0.213c0.032,0.041,0.062,0.084,0.097,0.123c0.024,0.025,0.049,0.052,0.073,0.077
		c0.026,0.026,0.054,0.05,0.081,0.076c0.033,0.031,0.068,0.059,0.103,0.089c0.047,0.041,0.089,0.087,0.139,0.125
		c0.011,0.008,0.022,0.014,0.033,0.021c0.017,0.012,0.035,0.021,0.052,0.033c0.055,0.039,0.113,0.074,0.17,0.109
		c0.041,0.025,0.08,0.055,0.121,0.078c0.008,0.004,0.016,0.01,0.023,0.015c0.02,0.011,0.041,0.019,0.062,0.029
		c0.038,0.02,0.078,0.036,0.117,0.054c0.054,0.024,0.108,0.047,0.164,0.069c0.082,0.031,0.164,0.158,0.247,0.183
		c0.029,0.008,0.055,0.131,0.085,0.131c0.001,0,0.002,0,0.003,0c0.019,0,0.04-0.097,0.059-0.092c0.043,0.01,0.085,0.025,0.128,0.033
		c0.182,0.035,0.367,0.06,0.557,0.06h0.002h0.002c0.189,0,0.375-0.075,0.557-0.11c0.044-0.008,0.085,0.055,0.128,0.045
		c0.021-0.005,0.042,0.064,0.062,0.064h0.002c0.027,0,0.052-0.123,0.08-0.13c0.084-0.024,0.167-0.102,0.249-0.133
		c0.058-0.023,0.112-0.072,0.169-0.097c0.037-0.018,0.076-0.045,0.113-0.063c0.021-0.011,0.043-0.026,0.062-0.037
		c0.009-0.005,0.016-0.013,0.024-0.018c0.041-0.022,0.078-0.054,0.118-0.078c0.059-0.036,0.117-0.072,0.174-0.112
		c0.017-0.013,0.036-0.023,0.053-0.036c0.012-0.008,0.024-0.015,0.035-0.023c0.047-0.036,0.088-0.081,0.133-0.12
		c0.035-0.029,0.07-0.058,0.104-0.089c0.027-0.026,0.055-0.051,0.082-0.077c0.023-0.025,0.048-0.051,0.072-0.077
		c0.035-0.04,0.065-0.083,0.1-0.125c0.055-0.067,0.113-0.132,0.164-0.205C66.484,126.575,66.487,126.573,66.489,126.57z
		 M85.89,51.975c0.006-0.023,0.006-0.047,0.011-0.07c0.022-0.098,0.032-0.198,0.046-0.3c0.014-0.104,0.029-0.207,0.031-0.311
		c0-0.023,0.007-0.045,0.007-0.068c0-3.587,2.915-6.505,6.498-6.505c3.584,0,6.5,2.918,6.5,6.505c0,0.021,0.005,0.039,0.006,0.06
		c-4.397,15.59-17.655,39.362-27.165,55.278L85.89,51.975z M67,101.229V50.811c0-3.394,3.035-6.09,6.48-6.09
		c3.479,0,6.319,2.748,6.487,6.187L67,101.229z M61,51.434v49.841L47.996,50.907c0.168-3.438,3.008-6.187,6.484-6.187
		c3.584,0,6.499,2.918,6.499,6.505C60.979,51.297,61,51.364,61,51.434z M41.987,51.295c0.002,0.103,0.018,0.204,0.031,0.308
		c0.013,0.103,0.023,0.205,0.047,0.304c0.005,0.023,0.004,0.046,0.01,0.069l14.088,54.562C46.631,90.585,33.345,66.755,28.98,51.176
		c0.026-3.563,2.929-6.455,6.495-6.455c3.587,0,6.505,2.918,6.505,6.505C41.98,51.249,41.987,51.271,41.987,51.295z"/>
</g>
</svg>
