<?xml version="1.0" encoding="utf-8"?>
<!-- Generator: Adobe Illustrator 16.0.0, SVG Export Plug-In . SVG Version: 6.00 Build 0)  -->
<!DOCTYPE svg PUBLIC "-//W3C//DTD SVG 1.1//EN" "http://www.w3.org/Graphics/SVG/1.1/DTD/svg11.dtd">
<svg version="1.1" id="Layer_1" xmlns="http://www.w3.org/2000/svg" xmlns:xlink="http://www.w3.org/1999/xlink" x="0px" y="0px"
	 width="128px" height="128px" viewBox="0 0 128 128" enable-background="new 0 0 128 128" xml:space="preserve">
<g>
	<path fill="#646464" d="M39.916,88.085C29.337,77.505,15.321,71.181,0.325,70.158c1.369,14.28,7.508,28.185,18.42,39.097
		c10.625,10.625,24.328,17.049,39.098,18.45C56.827,112.699,50.502,98.67,39.916,88.085z"/>
	<path fill="#646464" d="M88.149,39.852c10.56,10.56,24.551,16.882,39.518,17.919c-1.381-14.255-7.518-28.132-18.412-39.026
		C98.647,8.137,84.97,1.714,70.227,0.301C71.258,15.281,77.582,29.284,88.149,39.852z"/>
	<path fill="#646464" d="M16.681,20.918C5.553,33.126,0.002,48.632,0.034,64.131c16.705,0.969,32.35,7.944,44.12,19.715
		c11.778,11.778,18.755,27.434,19.716,44.15c0.044,0,0.087,0.003,0.131,0.003c16.092,0,31.275-5.903,43.084-16.678L16.681,20.918z"
		/>
	<path fill="#646464" d="M83.911,44.091C72.15,32.33,65.175,16.697,64.198,0.005C64.132,0.005,64.067,0,64.001,0
		C47.908,0,32.726,5.903,20.916,16.678l90.405,90.405c11.143-12.227,16.693-27.76,16.645-43.283
		C111.286,62.817,95.665,55.844,83.911,44.091z"/>
</g>
</svg>
