<?xml version="1.0" encoding="utf-8"?>
<!-- Generator: Adobe Illustrator 16.0.0, SVG Export Plug-In . SVG Version: 6.00 Build 0)  -->
<!DOCTYPE svg PUBLIC "-//W3C//DTD SVG 1.1//EN" "http://www.w3.org/Graphics/SVG/1.1/DTD/svg11.dtd">
<svg version="1.1" id="Layer_1" xmlns="http://www.w3.org/2000/svg" xmlns:xlink="http://www.w3.org/1999/xlink" x="0px" y="0px"
	 width="128px" height="128px" viewBox="0 0 128 128" enable-background="new 0 0 128 128" xml:space="preserve">
<g>
	<path fill="#646464" d="M127.984,97.185c0.013-0.062,0.006-0.124,0.007-0.188c0.001-0.065,0.011-0.129,0-0.193
		c-0.011-0.064-0.044-0.123-0.068-0.185c-0.022-0.057,0.052-0.115,0.019-0.169c-0.007-0.012,0.059-0.022,0.059-0.033V97h-0.089
		c-2.958-5-7.612-8.34-12.893-9.622c2.423-1.582,3.982-4.606,3.982-7.709v-2.148C119,72.223,114.701,67,105.215,67H98.09
		c-13.875,0-40.615-28.725-43.117-31.424L48.946,5.463c-0.052-0.26-0.206-0.547-0.427-0.695c-0.221-0.146-0.492-0.227-0.751-0.177
		l-36.002,7.23C11.299,11.915,11,12.31,11,12.786v35.779c-3,3.036-4,6.799-4,10.638v20.4c0,4.022,1.4,6.777,4.015,8.073
		c-4.438,1.558-8.272,4.585-10.851,8.737l-0.001,0.001c0,0.001,0,0.001,0,0.001c-0.007,0.012-0.016,0.022-0.023,0.034
		c-0.033,0.054-0.041,0.112-0.062,0.169c-0.024,0.062-0.057,0.12-0.068,0.185c-0.012,0.064-0.002,0.128,0,0.193
		c0.001,0.063-0.006,0.126,0.007,0.188c0.014,0.064,0.046,0.12,0.072,0.181c0.025,0.058,0.042,0.118,0.077,0.171
		c0.037,0.054,0.091,0.095,0.139,0.142c0.042,0.042,0.073,0.093,0.125,0.127l3.403,2.307c-1.151,2.206-1.812,4.707-1.812,7.362
		c0,8.813,7.17,15.984,15.984,15.984c6.875,0,12.732-4.371,14.984-10.473c2.252,6.102,8.11,10.473,14.984,10.473
		c7.52,0,13.826-5.226,15.521-12.231c1.695,7.006,8.001,12.231,15.521,12.231c6.875,0,12.732-4.371,14.984-10.473
		c2.252,6.102,8.11,10.473,14.984,10.473c8.814,0,15.984-7.171,15.984-15.984c0-2.453-0.572-4.77-1.563-6.849
		c0.005-0.004,0.011-0.005,0.016-0.008l4.149-2.812c0.051-0.034,0.082-0.085,0.125-0.127c0.048-0.047,0.103-0.088,0.139-0.142
		c0.036-0.053,0.052-0.113,0.077-0.171C127.938,97.305,127.97,97.249,127.984,97.185z M18.005,114.46
		c-3.853,0-6.987-3.134-6.987-6.986s3.134-6.987,6.987-6.987s6.987,3.135,6.987,6.987S21.858,114.46,18.005,114.46z M47.974,114.46
		c-3.853,0-6.987-3.134-6.987-6.986s3.134-6.987,6.987-6.987s6.987,3.135,6.987,6.987S51.827,114.46,47.974,114.46z M79.016,114.46
		c-3.853,0-6.987-3.134-6.987-6.986s3.134-6.987,6.987-6.987c3.853,0,6.987,3.135,6.987,6.987S82.869,114.46,79.016,114.46z
		 M108.985,114.46c-3.853,0-6.987-3.134-6.987-6.986s3.134-6.987,6.987-6.987c3.853,0,6.987,3.135,6.987,6.987
		S112.837,114.46,108.985,114.46z"/>
</g>
</svg>
