<?xml version="1.0" encoding="utf-8"?>
<!-- Generator: Adobe Illustrator 16.0.0, SVG Export Plug-In . SVG Version: 6.00 Build 0)  -->
<!DOCTYPE svg PUBLIC "-//W3C//DTD SVG 1.1//EN" "http://www.w3.org/Graphics/SVG/1.1/DTD/svg11.dtd">
<svg version="1.1" id="Layer_1" xmlns="http://www.w3.org/2000/svg" xmlns:xlink="http://www.w3.org/1999/xlink" x="0px" y="0px"
	 width="128px" height="128px" viewBox="0 0 128 128" enable-background="new 0 0 128 128" xml:space="preserve">
<g>
	<path fill="#646464" d="M126.286,116.239l-14.572-14.572c-1.1-1.1-2.568-1.706-4.133-1.706c-0.301,0-0.598,0.029-0.89,0.074
		L91.3,84.643c14.321-18.295,10.84-47.294-8.835-66.97C72.308,7.515,59.393,1.321,46.1,0.231
		C32.742-0.866,20.605,3.316,11.919,12.003C-5.967,29.89-3.424,61.536,17.589,82.549c0.431,0.431,0.873,0.853,1.317,1.272
		c-0.001,0.07-0.01,0.141-0.01,0.211c0,11.03,8.973,20.003,20.003,20.003c4.685,0,8.989-1.63,12.401-4.337
		c2.294,0.31,4.565,0.471,6.799,0.471c10.02,0,19.288-3.093,26.651-8.942l15.345,15.345c-0.051,0.314-0.083,0.634-0.083,0.959
		c0,1.565,0.606,3.032,1.706,4.132l14.572,14.572c1.1,1.1,2.568,1.706,4.133,1.706s3.033-0.606,4.133-1.706l1.73-1.73
		C128.565,122.226,128.565,118.518,126.286,116.239z M8.479,54.13l4.763,4.763l-2.264,2.264C9.958,58.843,9.123,56.493,8.479,54.13z
		 M15.441,18.354l7.181,7.181l-8.299,8.3l-5.099-5.099C10.647,24.951,12.711,21.438,15.441,18.354z M28.771,9.264l5.061,5.06
		l-8.382,8.382l-7.181-7.18C21.386,12.767,24.941,10.69,28.771,9.264z M47.703,7.293c0.083,0.345,0.253,0.673,0.523,0.942
		l7.837,7.837l-7.413,7.413l-9.162-9.162l6.797-6.797c0.112-0.112,0.204-0.236,0.284-0.365C46.946,7.201,47.324,7.244,47.703,7.293z
		 M75.705,20.624l-4.717,4.717l-9.269-9.269l3.153-3.153C68.667,14.972,72.318,17.542,75.705,20.624z M91.518,45.872l-5.74-5.74
		l2.601-2.601C89.691,40.266,90.738,43.06,91.518,45.872z M84.613,81.869l-8.323-8.323l8.382-8.381l6.202,6.202
		C89.448,75.196,87.372,78.751,84.613,81.869z M71.419,90.931l-6.257-6.257l8.3-8.3l8.323,8.323
		C78.735,87.402,75.241,89.488,71.419,90.931z M7.197,47.678c-0.043-0.342-0.083-0.684-0.118-1.026
		c0.129-0.08,0.252-0.171,0.364-0.283l6.879-6.879l9.161,9.162l-7.413,7.413l-7.837-7.836C7.939,47.934,7.577,47.751,7.197,47.678z
		 M92.104,52.077l-7.432,7.431l-9.135-9.135l7.413-7.413l8.952,8.952C91.965,51.975,92.035,52.024,92.104,52.077z M72.709,53.202
		l9.135,9.135l-8.382,8.382l-9.135-9.135L72.709,53.202z M61.499,58.755l-9.135-9.134l8.382-8.382l9.135,9.135L61.499,58.755z
		 M72.709,47.545l-9.135-9.135l7.413-7.413l9.135,9.135L72.709,47.545z M60.746,35.583l-9.269-9.269l7.413-7.413l9.269,9.269
		L60.746,35.583z M57.918,38.411l-8.382,8.382l-9.269-9.269l8.382-8.381L57.918,38.411z M46.708,49.621l-8.3,8.299l-9.269-9.268
		l8.3-8.3L46.708,49.621z M37.439,34.695l-9.162-9.161l8.382-8.382l9.162,9.162L37.439,34.695z M34.611,37.523l-8.3,8.3
		l-9.162-9.161l8.3-8.3L34.611,37.523z M26.312,51.479l9.269,9.269l-5.168,5.169c-0.997,0.468-1.949,1.018-2.851,1.638l-8.663-8.663
		L26.312,51.479z M38.408,63.577l0.455,0.455c-0.32,0.001-0.635,0.027-0.952,0.042L38.408,63.577z M45.753,65.266l-4.517-4.518
		l8.3-8.299l9.135,9.134l-7.037,7.037C49.898,67.184,47.907,66.055,45.753,65.266z M61.499,64.411l9.135,9.135l-8.3,8.3
		l-4.667-4.667c-0.764-2.085-1.851-4.015-3.224-5.71L61.499,64.411z M58.9,84.068l0.606,0.606l-0.67,0.67
		C58.863,84.921,58.899,84.499,58.9,84.068z M56.677,93.159l5.657-5.657l4.747,4.747c-3.312,0.787-6.815,1.131-10.454,1.015
		C56.645,93.229,56.66,93.193,56.677,93.159z M92.181,67.018L87.5,62.336l5.682-5.682C93.295,60.202,92.962,63.684,92.181,67.018z
		 M82.95,37.304l-9.135-9.135l4.746-4.747c3.103,3.248,5.729,6.753,7.856,10.414L82.95,37.304z M58.891,13.245l-4.626-4.626
		c2.29,0.635,4.565,1.455,6.809,2.443L58.891,13.245z M36.66,11.496l-3.54-3.54c2.618-0.614,5.328-0.95,8.09-1.011L36.66,11.496z
		 M7.904,33.073l3.59,3.589l-4.632,4.632C6.924,38.485,7.271,35.731,7.904,33.073z M16.07,61.721l8.436,8.436
		c-1.511,1.565-2.775,3.374-3.717,5.382l-0.25,0.25c-3.082-3.387-5.652-7.038-7.705-10.833L16.07,61.721z M24.896,84.033
		c0-0.869,0.08-1.738,0.237-2.584c1.233-6.616,7.022-11.418,13.766-11.418c7.721,0,14.003,6.282,14.003,14.003
		S46.62,98.036,38.899,98.036S24.896,91.754,24.896,84.033z"/>
</g>
</svg>
