<?xml version="1.0" encoding="utf-8"?>
<!-- Generator: Adobe Illustrator 16.0.0, SVG Export Plug-In . SVG Version: 6.00 Build 0)  -->
<!DOCTYPE svg PUBLIC "-//W3C//DTD SVG 1.1//EN" "http://www.w3.org/Graphics/SVG/1.1/DTD/svg11.dtd">
<svg version="1.1" id="Layer_1" xmlns="http://www.w3.org/2000/svg" xmlns:xlink="http://www.w3.org/1999/xlink" x="0px" y="0px"
	 width="128px" height="128px" viewBox="0 0 128 128" enable-background="new 0 0 128 128" xml:space="preserve">
<g>
	<path fill="#646464" d="M125.026,77H92.472c-1.469-5-2.904-9.482-4.045-13.141c3.736-4.91,10.053-7.516,18.797-7.516
		c0.299,0,0.582-0.189,0.772-0.42c0.19-0.232,0.267-0.563,0.208-0.856c-0.342-1.735-0.793-3.482-1.312-5.203
		c1.236-0.775,1.764-2.358,1.166-3.735c-0.477-1.097-1.558-1.809-2.754-1.809c-0.133,0-0.262,0.021-0.393,0.038
		c-8.586-20.251-28.217-33.292-50.277-33.292c-30.113,0-54.611,24.498-54.611,54.61c0,15.858,6.883,30.912,18.881,41.3
		c0.253,0.219,0.598,0.295,0.92,0.209c0.703-0.193,1.402-0.355,2.102-0.505c0.384-0.081,0.77-0.15,1.154-0.219
		c0.275-0.049,0.551-0.098,0.824-0.142c0.518-0.079,1.036-0.151,1.557-0.208c0.084-0.009,0.168-0.017,0.252-0.025
		c2.5-0.255,5.033-0.25,7.594,0.018c0.074,0.008,0.148,0.017,0.223,0.025c1.739,0.191,3.492,0.512,5.256,0.943
		c0.306,0.075,0.61,0.148,0.916,0.23c0.438,0.117,0.875,0.243,1.314,0.375c0.452,0.137,0.906,0.283,1.359,0.436
		c0.338,0.113,0.674,0.219,1.012,0.34c0.777,0.279,1.557,0.582,2.338,0.907c0.264,0.109,0.527,0.229,0.79,0.343
		c0.611,0.266,1.224,0.543,1.837,0.836c0.258,0.123,0.516,0.246,0.773,0.373c0.842,0.418,1.686,0.853,2.53,1.321
		c2.811,1.56,5.581,2.731,8.292,3.512c2.726,0.79,5.375,1.187,7.896,1.187c2.92,0,5.662-0.545,8.16-1.609
		c0.073-0.031,0.146-0.062,0.219-0.095c0.488-0.216,0.966-0.45,1.434-0.707c0.115-0.062,0.234-0.12,0.349-0.185
		c0.454-0.262,0.898-0.541,1.331-0.842c0.039-0.027,0.073-0.057,0.111-0.084c0.133-0.095,0.26-0.195,0.391-0.293
		c0.383-0.289,0.752-0.59,1.105-0.904c0.09-0.08,0.182-0.156,0.27-0.239c0.384-0.357,0.74-0.735,1.085-1.124
		c0.07-0.078,0.151-0.146,0.22-0.228c0.055-0.063,0.099-0.134,0.152-0.197c0.285-0.345,0.559-0.698,0.813-1.063
		c0.123-0.176,0.235-0.357,0.351-0.537c0.166-0.257,0.323-0.518,0.474-0.783c0.102-0.18,0.206-0.356,0.302-0.539
		c0.209-0.404,0.398-0.816,0.574-1.236c0.066-0.16,0.126-0.322,0.188-0.485c0.141-0.37,0.27-0.745,0.383-1.126
		c0.033-0.111,0.072-0.221,0.103-0.332c0.135-0.486,0.242-0.98,0.331-1.48c0.022-0.121,0.041-0.243,0.061-0.365
		c0.076-0.492,0.137-0.986,0.169-1.487c0.003-0.032,0.007-0.063,0.009-0.096c0.031-0.528,0.03-1.061,0.012-1.596
		c-0.006-0.123-0.012-0.246-0.019-0.37c-0.031-0.535-0.079-0.863-0.162-1.402C86.132,96.726,85.972,96,85.794,95h6.116
		c0.183,0,0.356,1.111,0.522,1.614c4.181,12.744,13.9,17.386,19.414,17.386h13.18c1.654,0,2.974-1.799,2.974-3.453V79.558
		C128,77.903,126.681,77,125.026,77z M122,95v13h-10.153c-3.588,0-10.418-4-13.623-13H122z M122,83v6H96.28c-0.604-2-1.25-4-1.916-6
		H122z M84.829,89c-0.207-2-0.369-3.121-0.482-4.443l5.356,3.462L89.982,89H84.829z M84.19,77.168
		c0.091-1.781,0.299-3.45,0.612-5.006c0.677,2.16,1.39,4.43,2.106,6.71L84.19,77.168z"/>
</g>
</svg>
