<?xml version="1.0" encoding="utf-8"?>
<!-- Generator: Adobe Illustrator 16.0.0, SVG Export Plug-In . SVG Version: 6.00 Build 0)  -->
<!DOCTYPE svg PUBLIC "-//W3C//DTD SVG 1.1//EN" "http://www.w3.org/Graphics/SVG/1.1/DTD/svg11.dtd">
<svg version="1.1" id="Layer_1" xmlns="http://www.w3.org/2000/svg" xmlns:xlink="http://www.w3.org/1999/xlink" x="0px" y="0px"
	 width="128px" height="128px" viewBox="0 0 128 128" enable-background="new 0 0 128 128" xml:space="preserve">
<g>
	<path fill="#646464" d="M63.925,50.875c-6.543,0-11.962,4.84-12.904,11.125h25.809C75.887,55.715,70.468,50.875,63.925,50.875z"/>
	<path fill="#646464" d="M46.979,62c0.967-8.498,8.193-15.125,16.946-15.125S79.904,53.502,80.871,62H107V8.433
		C107,3.796,103.211,0,98.574,0H85v17c0,1.104-1.023,2-2.129,2h-5.685c-2.163,5.447-7.354,9.029-13.267,9.029
		c-5.912,0-11.102-3.582-13.266-9.029h-5.688C43.863,19,43,18.104,43,17V0H29.33C24.693,0,21,3.796,21,8.433V62H46.979z"/>
	<path fill="#646464" d="M63.92,24.029c3.692,0,6.996-1.946,8.824-5.029H55.098C56.926,22.083,60.229,24.029,63.92,24.029z"/>
	<rect x="47" fill="#646464" width="34" height="15"/>
	<path fill="#646464" d="M63.925,77.005c6.501,0,11.894-4.779,12.886-11.005H51.039C52.031,72.226,57.424,77.005,63.925,77.005z"/>
	<path fill="#646464" d="M80.854,66c-1.022,8.44-8.217,15.005-16.929,15.005S48.019,74.44,46.996,66H21v53.567
		c0,4.636,3.693,8.433,8.33,8.433H43v-17c0-1.104,0.863-2,1.967-2h5.686c2.163-5.447,7.354-9.029,13.266-9.029
		s11.104,3.582,13.266,9.029h5.688c1.105,0,2.129,0.896,2.129,2v17h13.574c4.637,0,8.426-3.796,8.426-8.433V66H80.854z"/>
	<path fill="#646464" d="M63.918,103.971c-3.691,0-6.994,1.946-8.822,5.029h17.646C70.913,105.917,67.61,103.971,63.918,103.971z"/>
	<rect x="47" y="113" fill="#646464" width="34" height="15"/>
</g>
</svg>
