<?xml version="1.0" encoding="utf-8"?>
<!-- Generator: Adobe Illustrator 16.0.0, SVG Export Plug-In . SVG Version: 6.00 Build 0)  -->
<!DOCTYPE svg PUBLIC "-//W3C//DTD SVG 1.1//EN" "http://www.w3.org/Graphics/SVG/1.1/DTD/svg11.dtd">
<svg version="1.1" id="Layer_1" xmlns="http://www.w3.org/2000/svg" xmlns:xlink="http://www.w3.org/1999/xlink" x="0px" y="0px"
	 width="128px" height="128px" viewBox="0 0 128 128" enable-background="new 0 0 128 128" xml:space="preserve">
<g>
	<path fill="#646464" d="M120.959,95.928c-0.045,0-0.084,0.072-0.128,0.072H82.222L65,78.865V79h0.085L5.123,18.922
		c-1.133-1.134-3.088-1.167-4.22-0.035c-0.567,0.567-0.867,1.303-0.867,2.104c0,0.802,0.318,1.546,0.885,2.113l85.966,85.958
		c0.566,0.566,1.321,0.932,2.123,0.932c0.083,0,0.157,0.006,0.233,0.006h31.716c3.863,0,7.005-3.174,7.005-7.036
		C127.964,99.101,124.822,95.928,120.959,95.928z"/>
</g>
</svg>
