<?xml version="1.0" encoding="utf-8"?>
<!-- Generator: Adobe Illustrator 16.0.0, SVG Export Plug-In . SVG Version: 6.00 Build 0)  -->
<!DOCTYPE svg PUBLIC "-//W3C//DTD SVG 1.1//EN" "http://www.w3.org/Graphics/SVG/1.1/DTD/svg11.dtd">
<svg version="1.1" id="Layer_1" xmlns="http://www.w3.org/2000/svg" xmlns:xlink="http://www.w3.org/1999/xlink" x="0px" y="0px"
	 width="128px" height="128px" viewBox="0 0 128 128" enable-background="new 0 0 128 128" xml:space="preserve">
<g>
	<path fill="#646464" d="M124.001,97.308c-2.205,0-3.999,1.8-3.999,4.005c0,4.234-3.445,7.687-7.679,7.687H93V95h17.152
		c4.883,0,8.848-4.007,8.848-8.89v-2.148C119,78.665,114.689,73,105.207,73h-7.124c-13.871,0-40.604-28.495-43.104-31.194
		l-6.027-29.994c-0.052-0.26-0.206-0.492-0.427-0.639c-0.22-0.146-0.491-0.199-0.75-0.149l-36,7.241
		C11.308,18.358,11,18.769,11,19.245v35.77c-3,3.037-4,6.797-4,10.635v20.395C7,91.798,9.873,95,15.064,95H19v14H3.999
		C1.794,109,0,110.795,0,113s1.794,4,3.999,4h108.324c8.645,0,15.677-7.042,15.677-15.686C128,99.109,126.206,97.308,124.001,97.308
		z M81,95v14H31V95H81z"/>
</g>
</svg>
