<?xml version="1.0" encoding="utf-8"?>
<!-- Generator: Adobe Illustrator 16.0.0, SVG Export Plug-In . SVG Version: 6.00 Build 0)  -->
<!DOCTYPE svg PUBLIC "-//W3C//DTD SVG 1.1//EN" "http://www.w3.org/Graphics/SVG/1.1/DTD/svg11.dtd">
<svg version="1.1" id="Layer_1" xmlns="http://www.w3.org/2000/svg" xmlns:xlink="http://www.w3.org/1999/xlink" x="0px" y="0px"
	 width="128px" height="128px" viewBox="0 0 128 128" enable-background="new 0 0 128 128" xml:space="preserve">
<g>
	<path fill="#646464" d="M94.001,67.953c0-2.72-2.243-4.953-5-4.953H39.102c-2.757,0-5,2.233-5,4.953
		c0,2.515,1.924,4.583,4.393,4.882l7.554,37.633c-0.014,0.094-0.049,0.192-0.049,0.29V126c0,1.104,0.896,2,2,2s2-0.896,2-2v-5h4v5
		c0,1.104,0.896,2,2,2s2-0.896,2-2v-5h4v5c0,1.104,0.896,2,2,2s2-0.896,2-2v-5h4v5c0,1.104,0.896,2,2,2s2-0.896,2-2v-5h4v5
		c0,1.104,0.896,2,2,2s2-0.896,2-2v-15.242c0-0.069,0.017-0.135,0.01-0.202l7.606-37.723C92.073,72.524,94.001,70.46,94.001,67.953z
		 M78.257,109h-4.063l3.643-36h7.703L78.257,109z M49.868,109l-7.282-36h7.703l3.643,36H49.868z M57.952,109l-3.643-36h7.743
		l0.003,36H57.952z M66.055,109l-0.003-36h7.764l-3.643,36H66.055z M50,117v-4h4v4H50z M58,117v-4h4v4H58z M66,117v-4h4v4H66z
		 M74,117v-4h4v4H74z"/>
	<path fill="#646464" d="M119,1c0-0.552-0.448-1-1-1H10C9.448,0,9,0.448,9,1v89c0,0.552,0.448,1,1,1h108c0.552,0,1-0.448,1-1V1z
		 M109,81H19V10h90V81z"/>
</g>
</svg>
