<?xml version="1.0" encoding="utf-8"?>
<!-- Generator: Adobe Illustrator 16.0.0, SVG Export Plug-In . SVG Version: 6.00 Build 0)  -->
<!DOCTYPE svg PUBLIC "-//W3C//DTD SVG 1.1//EN" "http://www.w3.org/Graphics/SVG/1.1/DTD/svg11.dtd">
<svg version="1.1" id="Layer_1" xmlns="http://www.w3.org/2000/svg" xmlns:xlink="http://www.w3.org/1999/xlink" x="0px" y="0px"
	 width="128px" height="128px" viewBox="0 0 128 128" enable-background="new 0 0 128 128" xml:space="preserve">
<g>
	<path fill="#646464" d="M104,14c0-7.72-5.78-14-13.5-14H52.531C44.812,0,38,6.28,38,14v16.026c7,0.531,13,6.59,13,13.962v24.885
		c0,1.104-0.896,2-2,2s-2-0.896-2-2V43.987C47,38.473,43.01,34,37.496,34h-4.004C27.978,34,23,38.473,23,43.987v27.919
		c0,6.842,6,14.107,14,19.231v26.946C37,124.524,52.714,128,67.5,128s30.5-3.476,30.5-9.917V84.875c4-4.038,6-8.563,6-12.909V14z"/>
</g>
</svg>
