<?xml version="1.0" encoding="utf-8"?>
<!-- Generator: Adobe Illustrator 16.0.0, SVG Export Plug-In . SVG Version: 6.00 Build 0)  -->
<!DOCTYPE svg PUBLIC "-//W3C//DTD SVG 1.1//EN" "http://www.w3.org/Graphics/SVG/1.1/DTD/svg11.dtd">
<svg version="1.1" id="Layer_1" xmlns="http://www.w3.org/2000/svg" xmlns:xlink="http://www.w3.org/1999/xlink" x="0px" y="0px"
	 width="128px" height="128px" viewBox="0 0 128 128" enable-background="new 0 0 128 128" xml:space="preserve">
<g>
	<path fill="#646464" d="M64-0.004C28.708-0.004-0.004,28.708-0.004,64S28.708,128.004,64,128.004S128.004,99.292,128.004,64
		S99.292-0.004,64-0.004z M48.993,85.018c3.861,0,7.004,3.142,7.004,7.003s-3.143,7.003-7.004,7.003s-7.002-3.142-7.002-7.003
		S45.132,85.018,48.993,85.018z M64,61.973c3.861,0,7.003,3.142,7.003,7.003S67.861,75.979,64,75.979s-7.003-3.142-7.003-7.003
		S60.139,61.973,64,61.973z M78.956,99.023c-3.861,0-7.002-3.142-7.002-7.003s3.141-7.003,7.002-7.003s7.004,3.142,7.004,7.003
		S82.817,99.023,78.956,99.023z"/>
</g>
</svg>
