<?xml version="1.0" ?><!DOCTYPE svg  PUBLIC '-//W3C//DTD SVG 1.1//EN'  'http://www.w3.org/Graphics/SVG/1.1/DTD/svg11.dtd'><svg enable-background="new 0 0 633.48 633.48" height="633.48px" id="Layer_1" version="1.1" viewBox="0 0 633.48 633.48" width="633.48px" xml:space="preserve" xmlns="http://www.w3.org/2000/svg" xmlns:xlink="http://www.w3.org/1999/xlink"><g><path d="M619.501,57.242c-6.363-18.816-26.135-38.392-45.01-44.572C572.91,12.154,535.12,0,476.325,0   c-84.576,0-210.668,25.277-331.086,145.697C99.085,191.849,63.368,243.061,39.08,297.909C19.614,341.87,7.42,388.224,2.83,435.685   c-7.83,80.987,9.058,136.637,9.78,138.965c5.897,19.011,25.27,38.957,44.096,45.409c1.601,0.547,39.84,13.422,99.505,13.422   c83.584,0,208.69-25.467,330.018-146.795c47.331-47.33,83.819-99.284,108.45-154.414c19.758-44.223,31.963-90.55,36.275-137.698   C638.321,114.059,620.274,59.523,619.501,57.242z M610.062,191.265c-21.842-32.161-45.676-62.115-72.631-91.239l52.047-52.049   c4.579,5.084,8.251,10.733,10.038,16.023C599.69,64.515,616.688,115.917,610.062,191.265z M567.925,32.721   c5.259,1.721,10.89,5.288,15.982,9.757l-51.83,51.828c-5.818-6.169-11.761-12.309-17.879-18.425   c-19.252-19.254-39.257-37.292-59.889-54.18c7.619-0.415,14.973-0.604,22.016-0.604C531.499,21.098,567.579,32.608,567.925,32.721z    M160.157,160.613c63.606-63.606,128.717-99.483,187.85-118.877c38.295,26.746,74.789,57.191,108.969,91.369   c6.088,6.09,12.027,12.241,17.863,18.442l-54.805,54.802l-0.809-0.808c0.195-0.198,0.38-0.407,0.531-0.653l2.376-3.847   c1.093-1.771,0.544-4.093-1.226-5.185c-1.771-1.095-4.092-0.546-5.186,1.226l-1.891,3.064L405.683,192l0,0l-6.038-6.04   c-1.391-1.392-3.212-2.086-5.036-2.086c-1.82,0-3.641,0.694-5.029,2.083c-2.781,2.781-2.781,7.288,0,10.068l5.7,5.702l0,0   l8.079,8.08l-19.385,19.385l-13.78-13.78c-1.392-1.391-3.214-2.085-5.036-2.085s-3.643,0.694-5.031,2.083   c-2.782,2.782-2.782,7.288-0.001,10.069l13.78,13.78l-19.385,19.385l-7.771-7.771c0,0,0,0,0,0.001l-6.011-6.01   c-1.391-1.39-3.212-2.086-5.034-2.086c-1.822,0.001-3.645,0.696-5.031,2.083c-2.781,2.782-2.781,7.288,0,10.069l5.729,5.729l0,0   l8.051,8.051l-19.385,19.386l-7.783-7.784l0,0l-5.997-5.997c-1.39-1.391-3.212-2.087-5.033-2.087s-3.645,0.695-5.034,2.086   c-2.781,2.781-2.781,7.288,0,10.068l13.779,13.78l-19.385,19.387l-13.781-13.781c-1.392-1.391-3.213-2.086-5.035-2.086   c-1.819,0-3.643,0.694-5.031,2.085c-2.781,2.78-2.781,7.286,0,10.068l5.758,5.756l8.023,8.024l-19.388,19.385l-13.779-13.778   c-1.39-1.392-3.212-2.087-5.036-2.087c-1.82,0-3.642,0.695-5.031,2.084c-2.78,2.781-2.78,7.287,0,10.069l5.77,5.771l8.012,8.01   l-19.389,19.385l-7.814-7.814l-5.965-5.965c-1.391-1.391-3.211-2.086-5.033-2.086s-3.643,0.695-5.031,2.085   c-2.781,2.78-2.781,7.287,0,10.068l5.781,5.784l7.997,7.994l-19.387,19.387l-13.78-13.779c-1.391-1.391-3.212-2.085-5.033-2.085   c-1.823,0-3.645,0.694-5.034,2.084c-2.779,2.781-2.779,7.287,0,10.069l14.095,14.092l-2.58,1.594   c-1.771,1.094-2.319,3.414-1.226,5.186c0.712,1.153,1.944,1.789,3.208,1.789c0.676,0,1.359-0.183,1.977-0.563l3.846-2.375   c0.084-0.052,0.15-0.118,0.229-0.176l0.842,0.844l-51.403,51.403c-6.22-5.84-12.379-11.777-18.453-17.854   c-34.124-34.123-64.521-70.557-91.238-108.783c4.51-13.838,9.73-27.489,15.67-40.903   C81.604,253.989,115.85,204.922,160.157,160.613z M22.609,453.565c16.868,20.599,34.884,40.573,54.108,59.798   c6.074,6.076,12.229,12.017,18.447,17.856l-53.041,53.039c-4.322-5.065-7.745-10.648-9.365-15.86   C32.607,567.905,18.616,521.756,22.609,453.565z M63.546,600.1c-5.305-1.818-10.95-5.547-15.994-10.195l53.344-53.341   c29.622,27.29,60.799,51.944,93.221,73.982c-13.414,1.294-26.1,1.837-37.905,1.837C100.326,612.383,63.897,600.219,63.546,600.1z    M471.31,471.767c-57.476,57.478-115.697,92.483-169.5,113.198c-50.743-29.222-98.969-64.449-143.677-105.641l48.562-48.561   l-0.515,0.832c-1.093,1.771-0.544,4.092,1.226,5.186c0.617,0.381,1.303,0.563,1.977,0.563c1.264,0,2.496-0.636,3.209-1.79   l1.594-2.58l14.86,14.861c1.39,1.391,3.212,2.085,5.034,2.085c1.82,0,3.643-0.696,5.034-2.087c2.778-2.777,2.778-7.287,0-10.064   l-13.101-13.102l19.386-19.385l7.997,7.995l5.104,5.104c1.389,1.391,3.211,2.085,5.03,2.085c1.823,0,3.646-0.696,5.035-2.087   c2.78-2.778,2.78-7.287,0-10.066l-5.29-5.29l-7.809-7.809l19.385-19.386l8.01,8.008l0,0l5.091,5.092   c1.39,1.39,3.212,2.084,5.034,2.084s3.644-0.694,5.034-2.084c2.778-2.781,2.776-7.288-0.001-10.068l-5.302-5.301l0,0l-7.798-7.798   l19.386-19.386l8.028,8.027l5.072,5.072c1.391,1.389,3.211,2.084,5.031,2.084c1.822,0,3.646-0.695,5.035-2.086   c2.779-2.779,2.779-7.287,0-10.066l-13.1-13.098l19.385-19.386l13.1,13.099c1.389,1.389,3.211,2.084,5.033,2.084   s3.645-0.695,5.036-2.085c2.778-2.78,2.776-7.286,0-10.065l-13.101-13.101l19.386-19.386l8.056,8.054l0,0l5.045,5.045   c1.389,1.389,3.209,2.085,5.031,2.085s3.644-0.696,5.033-2.085c2.781-2.78,2.781-7.288,0-10.066l-5.335-5.335l0,0l-7.763-7.765   l19.385-19.385l8.064,8.064l0,0l5.034,5.035c1.391,1.39,3.212,2.084,5.035,2.084c1.821,0,3.644-0.694,5.034-2.085   c2.777-2.778,2.777-7.286,0-10.066l-5.346-5.348l0,0l-7.754-7.753l19.386-19.385l13.101,13.1c1.389,1.39,3.21,2.085,5.031,2.085   c1.823,0,3.645-0.695,5.033-2.085c2.78-2.78,2.78-7.288,0-10.066l-5.356-5.358l0,0l-9.598-9.595l3.064-1.893   c1.771-1.092,2.318-3.415,1.226-5.185c-1.092-1.771-3.414-2.32-5.186-1.226l-0.832,0.514l51.574-51.576   c41.104,44.501,75.855,91.865,105.032,142.579c-3.011,7.999-6.275,15.936-9.791,23.807   C551.839,376.436,516.812,426.264,471.31,471.767z"/><path d="M453.069,202.59c0.858-0.528,1.461-1.357,1.686-2.337c0.242-0.98,0.076-1.99-0.45-2.848   c-0.693-1.116-1.899-1.779-3.21-1.779c-0.708,0-1.387,0.183-1.976,0.559l-7.384,4.565c-1.763,1.086-2.319,3.405-1.22,5.183   c0.677,1.116,1.884,1.779,3.209,1.779c0.694,0,1.37-0.196,1.976-0.558L453.069,202.59z"/><path d="M472.878,191.403c-1.477-2.593-2.493-4.067-2.536-4.129c-1.142-1.65-3.376-2.116-5.077-1.062l-3.848,2.375   c-0.254,0.159-0.479,0.35-0.683,0.554c-0.07,0.07-0.129,0.147-0.193,0.22c-0.123,0.147-0.235,0.297-0.335,0.458   c-0.058,0.092-0.115,0.185-0.162,0.284c-0.094,0.188-0.168,0.382-0.23,0.581c-0.023,0.073-0.056,0.141-0.073,0.216   c-0.065,0.268-0.097,0.544-0.103,0.824c0,0.036-0.014,0.069-0.014,0.106c0.002,0.068,0.025,0.131,0.031,0.197   c0.012,0.221,0.047,0.438,0.1,0.657c0.021,0.083,0.039,0.163,0.062,0.244c0.071,0.218,0.163,0.43,0.274,0.639   c0.035,0.066,0.053,0.141,0.091,0.208c0.062,0.097,0.145,0.169,0.212,0.261c0.104,0.135,0.203,0.273,0.32,0.391   c0.086,0.089,0.182,0.162,0.277,0.241c0.135,0.114,0.275,0.218,0.424,0.311c0.088,0.055,0.178,0.107,0.269,0.155   c0.22,0.112,0.445,0.201,0.681,0.268c0.033,0.01,0.064,0.025,0.096,0.033c0.301,0.078,0.609,0.113,0.92,0.115   c0.008,0.001,0.018,0.004,0.026,0.004c0.021,0,0.04-0.009,0.061-0.009c0.278-0.006,0.557-0.044,0.832-0.111   c0.067-0.016,0.133-0.032,0.2-0.053c0.256-0.078,0.507-0.183,0.75-0.321c0.037-0.021,0.079-0.026,0.116-0.05   c0,0,0.001-0.011,0.015-0.013l0.645-0.397c0.099,0.17,0.2,0.349,0.305,0.531c0.695,1.221,1.968,1.904,3.276,1.904   c0.634,0,1.274-0.159,1.862-0.493C473.274,195.512,473.906,193.21,472.878,191.403z"/><path d="M215.148,477.506c-2.788-0.724-5.62-1.613-8.409-2.652c-1.912-0.709-4.144,0.346-4.837,2.23   c-0.347,0.949-0.316,1.973,0.106,2.878c0.422,0.92,1.176,1.612,2.125,1.959c3.028,1.116,6.088,2.079,9.102,2.864   c0.316,0.09,0.633,0.135,0.949,0.135c1.717,0,3.224-1.16,3.646-2.818c0.09-0.302,0.12-0.617,0.12-0.949   C217.967,479.434,216.807,477.941,215.148,477.506z"/><path d="M193.39,468.721c-0.018,0-0.018,0-0.018,0l-0.135-0.076c-0.08-0.039-0.159-0.09-0.239-0.133   c-0.01-0.007-0.017-0.016-0.028-0.021c-0.186-0.104-0.361-0.205-0.531-0.307l0.398-0.645c1.094-1.771,0.543-4.094-1.227-5.186   c-1.771-1.095-4.092-0.544-5.184,1.227l-2.376,3.847c-1.054,1.706-0.587,3.937,1.062,5.079c0.06,0.041,1.514,1.041,4.068,2.498   c0.022,0.014,0.04,0.033,0.063,0.044l0.088,0.048c0.122,0.059,0.242,0.135,0.363,0.194c0.559,0.317,1.191,0.482,1.838,0.482   c1.356,0,2.623-0.739,3.284-1.929c0.333-0.572,0.498-1.221,0.483-1.868C195.288,470.619,194.549,469.383,193.39,468.721z"/><path d="M448.94,291.862c-2.246,2.051-4.538,4.04-6.798,5.908c-0.768,0.648-1.252,1.552-1.341,2.562   c-0.092,0.995,0.211,1.975,0.859,2.743c0.707,0.875,1.763,1.372,2.893,1.372c0.875,0,1.732-0.318,2.412-0.874   c2.291-1.915,4.671-3.98,7.037-6.134c0.784-0.709,1.235-1.718,1.235-2.788c0-0.936-0.347-1.839-0.979-2.532   C452.919,290.643,450.417,290.521,448.94,291.862z"/><path d="M260.523,474.536c-2.622,1.192-5.349,2.202-8.106,3.015c-0.965,0.286-1.764,0.919-2.246,1.809   c-0.483,0.873-0.588,1.899-0.302,2.863c0.468,1.596,1.958,2.712,3.618,2.712c0.344,0,0.707-0.06,1.055-0.149   c3.072-0.905,6.132-2.051,9.085-3.391c1.357-0.604,2.216-1.961,2.216-3.437c0-0.528-0.105-1.056-0.332-1.554   C264.668,474.582,262.376,473.692,260.523,474.536z"/><path d="M238.222,479.977c-2.729,0.166-5.773,0.136-8.697-0.074c-2.094-0.136-3.873,1.445-4.023,3.496   c-0.074,1.01,0.256,1.974,0.92,2.742c0.662,0.753,1.567,1.205,2.576,1.281c1.854,0.135,3.693,0.194,5.471,0.194   c1.4,0,2.803-0.044,4.173-0.119c2.005-0.106,3.573-1.765,3.558-3.768c0-0.075,0-0.137,0-0.195   C242.077,481.469,240.345,479.842,238.222,479.977z"/><path d="M481.173,227.169c-1.959,0.149-3.482,1.793-3.482,3.751c0,0.091,0,0.197,0.018,0.287c0.135,1.853,0.211,3.678,0.211,5.426   c0,1.069-0.03,2.169-0.076,3.285c-0.061,0.995,0.286,1.959,0.965,2.697c0.678,0.754,1.598,1.19,2.606,1.235   c0.062,0.015,0.122,0.015,0.183,0.015c2.019,0,3.661-1.581,3.768-3.584c0.06-1.208,0.088-2.427,0.088-3.647   c0-2.019-0.074-4.023-0.227-5.998C485.062,228.586,483.224,227.002,481.173,227.169z"/><path d="M472.522,208.436c1.041,2.804,1.945,5.622,2.698,8.395c0.437,1.657,1.929,2.803,3.632,2.803c0.33,0,0.662-0.045,0.98-0.137   c2.002-0.527,3.193-2.606,2.666-4.61c-0.799-2.983-1.777-6.043-2.908-9.087c-0.709-1.884-2.953-2.923-4.854-2.199   c-0.949,0.346-1.686,1.054-2.109,1.958C472.206,206.479,472.178,207.503,472.522,208.436z"/><path d="M279.631,461.502c-2.153,2.033-4.399,3.917-6.69,5.635c-0.812,0.604-1.326,1.492-1.477,2.487   c-0.136,0.995,0.121,1.989,0.724,2.787c0.692,0.95,1.824,1.507,3.015,1.507c0.812,0,1.596-0.256,2.261-0.737   c2.501-1.884,4.972-3.964,7.338-6.194c0.753-0.707,1.175-1.672,1.175-2.713c0.016-0.978-0.361-1.898-1.024-2.605   C283.581,460.205,281.093,460.13,279.631,461.502z"/><path d="M480.179,251.536c-1.974-0.558-4.113,0.647-4.67,2.591c-0.771,2.744-1.765,5.472-2.94,8.124   c-0.408,0.918-0.437,1.943-0.074,2.878c0.359,0.933,1.069,1.687,1.987,2.093c0.482,0.212,0.996,0.317,1.523,0.317   c1.491,0,2.833-0.874,3.451-2.231c1.295-2.922,2.41-5.999,3.3-9.117c0.106-0.346,0.15-0.693,0.15-1.026   C482.906,253.48,481.792,251.988,480.179,251.536z"/><path d="M470.534,273.93c-1.613-1.207-4.084-0.83-5.275,0.783c-1.656,2.26-3.541,4.521-5.592,6.737   c-0.676,0.723-1.037,1.686-1.008,2.682c0.046,1.009,0.467,1.944,1.206,2.637c0.692,0.647,1.612,1.01,2.56,1.01   c1.042,0,2.051-0.438,2.773-1.205c2.187-2.366,4.221-4.808,6.028-7.248c0.046-0.047,0.077-0.091,0.106-0.135v-0.017   c0.482-0.664,0.738-1.432,0.725-2.244C472.058,275.737,471.499,274.638,470.534,273.93z"/><path d="M349.677,362.402c-2.262,2.352-4.387,4.673-6.314,6.902c-0.664,0.768-0.981,1.733-0.904,2.743   c0.061,0.994,0.525,1.913,1.28,2.577c0.692,0.587,1.566,0.919,2.47,0.919c1.102,0,2.143-0.482,2.85-1.312   c1.869-2.139,3.873-4.34,5.953-6.509c0.029-0.03,0.061-0.077,0.091-0.106c0.015,0,0.015,0,0.015-0.014   c0.662-0.694,1.039-1.613,1.039-2.578c0-1.039-0.406-2.02-1.16-2.728C353.548,360.896,351.063,360.942,349.677,362.402z"/><path d="M326.212,401.524c-1.823-0.919-4.158-0.151-5.078,1.657c-0.619,1.222-1.237,2.441-1.854,3.661   c-0.738,1.478-1.506,2.999-2.276,4.507c-0.467,0.889-0.542,1.913-0.226,2.879c0.303,0.949,0.965,1.732,1.868,2.184   c0.528,0.272,1.115,0.424,1.704,0.424c1.431,0,2.712-0.801,3.359-2.051c0.754-1.475,1.492-2.938,2.215-4.385   c0.649-1.266,1.282-2.548,1.93-3.812c0.271-0.527,0.408-1.116,0.408-1.703C328.263,403.453,327.478,402.172,326.212,401.524z"/><path d="M411.341,318.521c-0.588,0-1.176,0.15-1.72,0.42c-1.595,0.816-3.224,1.643-4.792,2.428   c-1.113,0.572-2.228,1.13-3.359,1.702c-0.891,0.453-1.566,1.236-1.868,2.185c-0.317,0.965-0.241,1.975,0.21,2.88   c0.647,1.265,1.945,2.063,3.361,2.063c0.604,0,1.176-0.135,1.703-0.406c1.01-0.513,2.004-1.025,3.014-1.521   c1.688-0.859,3.436-1.733,5.183-2.623c1.251-0.647,2.036-1.944,2.036-3.359c0-0.604-0.136-1.177-0.408-1.72   C414.054,319.304,412.772,318.521,411.341,318.521z"/><path d="M338.961,380.713c-1.643-1.145-4.084-0.708-5.228,0.92c0,0-0.018,0-0.018,0.015c-1.777,2.548-3.449,5.123-5.123,7.896   c-0.512,0.858-0.662,1.868-0.422,2.848c0.24,0.98,0.845,1.809,1.703,2.321c0.588,0.361,1.266,0.543,1.943,0.543   c1.325,0,2.549-0.679,3.226-1.825c1.551-2.561,3.135-5.017,4.853-7.474c0.451-0.646,0.693-1.4,0.678-2.185   C340.573,382.553,339.971,381.406,338.961,380.713z"/><path d="M387.831,330.485c-2.742,1.643-5.335,3.301-7.926,5.095c-1.703,1.189-2.125,3.541-0.949,5.244   c0.707,1.023,1.869,1.627,3.104,1.627c0.77,0,1.508-0.227,2.141-0.679c2.426-1.671,4.867-3.255,7.489-4.822   c1.146-0.678,1.824-1.884,1.839-3.21c0-0.676-0.181-1.356-0.543-1.958C391.962,330.08,389.55,329.461,387.831,330.485z"/><path d="M367.532,345.179c-2.289,1.975-4.609,4.1-6.916,6.298c-1.507,1.434-1.566,3.83-0.137,5.322   c0.724,0.754,1.689,1.174,2.742,1.174c0.966,0,1.884-0.377,2.594-1.055c2.215-2.109,4.461-4.145,6.631-6.028   c0.845-0.708,1.311-1.747,1.311-2.848c0.016-0.903-0.316-1.778-0.904-2.457C371.541,344.062,369.055,343.883,367.532,345.179z"/><path d="M430.269,306.812c-2.486,1.717-4.943,3.301-7.521,4.867c-0.857,0.528-1.461,1.356-1.701,2.337   c-0.242,0.965-0.076,1.989,0.451,2.849c0.679,1.13,1.883,1.808,3.211,1.808c0.692,0,1.37-0.197,1.959-0.559   c2.742-1.673,5.319-3.331,7.88-5.093c1.025-0.708,1.628-1.884,1.628-3.149c-0.016-0.754-0.242-1.478-0.678-2.096   C434.366,306.132,431.911,305.667,430.269,306.812z"/><path d="M295.923,443.93c-1.885,2.291-3.873,4.567-5.879,6.797c-0.678,0.753-1.023,1.717-0.979,2.727   c0.045,0.995,0.496,1.932,1.235,2.594c0.693,0.633,1.597,0.98,2.53,0.98c1.057,0,2.081-0.454,2.79-1.237   c2.169-2.396,4.219-4.776,6.117-7.052c0.559-0.68,0.859-1.521,0.859-2.396c0-1.13-0.497-2.201-1.372-2.924   C299.69,442.15,297.203,442.378,295.923,443.93z"/><path d="M314.938,423.225c-1.717-1.056-4.127-0.438-5.168,1.267v0.015c-1.597,2.623-3.163,5.078-4.837,7.521   c-0.573,0.827-0.784,1.821-0.603,2.817c0.197,0.979,0.752,1.839,1.583,2.41c0.634,0.438,1.354,0.663,2.126,0.663   c1.234,0,2.394-0.616,3.103-1.643c1.809-2.637,3.466-5.214,5.078-7.88c0.362-0.604,0.542-1.266,0.542-1.961   C316.763,425.107,316.086,423.902,314.938,423.225z"/><path d="M203.771,442.665c-0.604-0.362-1.279-0.558-1.973-0.558c-1.328,0-2.518,0.676-3.211,1.792l-4.564,7.385   c-0.529,0.859-0.693,1.869-0.455,2.849c0.227,0.979,0.831,1.808,1.689,2.32c0.588,0.376,1.268,0.574,1.975,0.574   c1.311,0,2.516-0.664,3.209-1.795l4.551-7.369C206.077,446.086,205.534,443.764,203.771,442.665z"/><path d="M424.542,189.96c0.603,0.377,1.279,0.574,1.973,0.574c1.328,0,2.516-0.68,3.212-1.794l4.565-7.384   c0.527-0.858,0.693-1.868,0.451-2.848c-0.225-0.98-0.829-1.809-1.688-2.337c-0.588-0.361-1.267-0.557-1.975-0.557   c-1.312,0-2.516,0.663-3.209,1.778l-4.551,7.385C422.22,186.541,422.778,188.876,424.542,189.96z"/><path d="M435.345,164.146c0.185,0.104,0.361,0.206,0.531,0.306l-0.398,0.646c-0.172,0.276-0.287,0.568-0.381,0.864   c-0.021,0.067-0.034,0.135-0.051,0.206c-0.059,0.225-0.092,0.45-0.105,0.68c-0.007,0.065-0.029,0.126-0.031,0.192   c-0.002,0.039,0.014,0.072,0.014,0.11c0.005,0.262,0.032,0.524,0.091,0.781c0.028,0.126,0.08,0.244,0.123,0.366   c0.05,0.148,0.104,0.296,0.175,0.437c0.059,0.12,0.126,0.235,0.196,0.347c0.091,0.141,0.192,0.274,0.3,0.403   c0.071,0.086,0.137,0.172,0.219,0.25c0.201,0.203,0.424,0.391,0.678,0.547c0.117,0.072,0.242,0.103,0.366,0.162   c0.192,0.093,0.381,0.201,0.587,0.258c0.336,0.096,0.682,0.144,1.022,0.144c0.634,0,1.262-0.161,1.817-0.467   c0.188-0.102,0.351-0.24,0.518-0.374c0.327-0.261,0.629-0.561,0.863-0.937l0.008-0.007c0.002-0.002,0.003-0.005,0.003-0.008   l2.374-3.842c1.055-1.706,0.588-3.937-1.062-5.079c-0.06-0.041-1.535-1.058-4.129-2.534c-1.807-1.027-4.107-0.4-5.137,1.41   S433.536,163.115,435.345,164.146z"/><path d="M302.341,230.648c0.527,0.271,1.116,0.407,1.703,0.407c1.432,0,2.713-0.783,3.359-2.048   c0.574-1.116,1.131-2.246,1.688-3.345c0.8-1.583,1.614-3.21,2.442-4.822c0.271-0.542,0.422-1.116,0.422-1.719   c0-1.416-0.783-2.696-2.049-3.344c-1.824-0.936-4.145-0.167-5.064,1.627c-0.904,1.764-1.793,3.51-2.652,5.212   c-0.498,0.996-0.993,1.99-1.508,2.97c-0.451,0.904-0.526,1.913-0.225,2.878C300.774,229.413,301.454,230.197,302.341,230.648z"/><path d="M289.653,251.52c0.633,0.439,1.371,0.664,2.14,0.664c1.234,0,2.396-0.601,3.104-1.626c1.794-2.592,3.466-5.186,5.094-7.911   c0.348-0.589,0.528-1.267,0.528-1.96c0-1.326-0.693-2.531-1.823-3.21c-1.72-1.025-4.144-0.422-5.171,1.297   c-1.549,2.591-3.133,5.048-4.836,7.504C287.513,247.979,287.935,250.331,289.653,251.52z"/><path d="M276.271,271.021c1.04,0,2.005-0.408,2.727-1.162c2.216-2.319,4.326-4.641,6.3-6.932c0.588-0.677,0.904-1.551,0.904-2.471   c0-1.084-0.482-2.125-1.312-2.833c-1.507-1.311-4.008-1.115-5.306,0.392c-1.928,2.231-3.946,4.46-6.027,6.646   c-0.707,0.724-1.069,1.671-1.054,2.681c0.03,1.009,0.437,1.946,1.176,2.638C274.372,270.66,275.306,271.021,276.271,271.021z"/><path d="M329.799,189.69c1.13,0,2.186-0.497,2.907-1.372c1.84-2.199,3.799-4.46,5.804-6.674c0.044-0.03,0.075-0.078,0.104-0.106   c0,0,0-0.015,0.017-0.015c0.617-0.693,0.964-1.583,0.964-2.517c0-1.055-0.452-2.081-1.235-2.787   c-1.477-1.342-3.979-1.221-5.318,0.256c-2.157,2.365-4.223,4.731-6.135,7.038c-1.326,1.597-1.1,3.978,0.482,5.303   C328.065,189.374,328.924,189.69,329.799,189.69z"/><path d="M313.63,208.979c0.588,0.361,1.266,0.542,1.943,0.542c1.326,0,2.531-0.679,3.225-1.809   c1.582-2.592,3.164-5.049,4.866-7.504c0.423-0.619,0.649-1.342,0.665-2.096c0.014-1.266-0.604-2.441-1.629-3.15   c-1.656-1.13-4.098-0.678-5.244,0.966c-1.778,2.589-3.449,5.168-5.094,7.88C311.278,205.574,311.851,207.895,313.63,208.979z"/><path d="M346.466,171.803c0.965,0,1.867-0.361,2.578-1.01c2.168-2.019,4.43-3.903,6.721-5.591c0.963-0.709,1.506-1.809,1.521-3.014   c0-0.814-0.256-1.598-0.738-2.246c-1.178-1.613-3.647-1.99-5.244-0.814c-0.016,0-0.016,0.017-0.031,0.017   c-2.531,1.867-5.004,3.932-7.368,6.132c-0.739,0.693-1.161,1.627-1.206,2.623c-0.029,1.009,0.331,1.974,1.01,2.712   C344.415,171.365,345.427,171.803,346.466,171.803z"/><path d="M413.646,155.256c2.804,0.754,5.621,1.658,8.38,2.696c0.437,0.152,0.874,0.242,1.326,0.242   c1.566,0,2.984-0.996,3.525-2.457c0.725-1.944-0.257-4.113-2.2-4.852h-0.014c-3.014-1.13-6.074-2.11-9.073-2.908   c-1.987-0.528-4.099,0.708-4.611,2.667c-0.271,0.979-0.134,1.989,0.377,2.864C411.853,154.382,412.667,155,413.646,155.256z"/><path d="M366.704,158.225c0.526,0,1.039-0.105,1.521-0.316c2.607-1.175,5.35-2.171,8.123-2.955   c1.611-0.465,2.742-1.958,2.728-3.631c0-0.346-0.046-0.693-0.135-1.025c-0.558-1.958-2.712-3.15-4.657-2.591   c-3.104,0.889-6.164,2.003-9.117,3.314c-1.898,0.845-2.758,3.075-1.913,4.974C363.855,157.351,365.212,158.225,366.704,158.225z"/><path d="M390.56,152.634c2.666-0.135,5.695-0.106,8.68,0.136v-0.077l0.029,0.077c0.092,0,0.198,0,0.287,0   c1.959,0,3.602-1.522,3.754-3.468c0.014-0.104,0.014-0.194,0.014-0.3c0-1.944-1.521-3.603-3.48-3.752h-0.017   c-3.134-0.242-6.464-0.3-9.629-0.135c-1.01,0.044-1.929,0.482-2.608,1.221c-0.677,0.753-1.023,1.717-0.963,2.711   C386.718,151.127,388.404,152.739,390.56,152.634z"/><path d="M258.7,288.034c0.904,0,1.777-0.331,2.471-0.918c2.246-1.946,4.535-4.04,6.797-6.225c0.029-0.029,0.075-0.059,0.105-0.09   c0-0.016,0.014-0.016,0.014-0.016c0.739-0.723,1.147-1.687,1.147-2.726c0-0.965-0.376-1.883-1.056-2.592   c-1.386-1.447-3.873-1.507-5.319-0.106c-2.231,2.14-4.461,4.175-6.616,6.059c-0.77,0.647-1.221,1.567-1.296,2.577   c-0.075,0.995,0.257,1.975,0.903,2.729C256.575,287.551,257.614,288.034,258.7,288.034z"/><path d="M155.608,423.738c-1.01-2.758-1.898-5.578-2.623-8.351l-0.014-0.059v-0.017c-0.527-1.959-2.607-3.195-4.597-2.683   c-1.673,0.438-2.833,1.945-2.818,3.663c0,0.316,0.046,0.633,0.12,0.92c0,0.014,0,0.014,0,0.029c0.783,2.984,1.75,6.057,2.864,9.102   c0.542,1.477,1.974,2.457,3.542,2.457c0.436,0,0.875-0.076,1.294-0.227C155.337,427.852,156.331,425.681,155.608,423.738z"/><path d="M177.219,341.411c0.934,0,1.837-0.347,2.53-0.98c2.23-2.019,4.521-4.007,6.798-5.892c0.874-0.707,1.37-1.779,1.37-2.908   c0-0.858-0.301-1.719-0.857-2.396c-1.283-1.536-3.768-1.777-5.306-0.498c-2.275,1.87-4.657,3.935-7.067,6.119   c-0.738,0.663-1.176,1.599-1.235,2.592c-0.046,1.01,0.302,1.975,0.979,2.713C175.14,340.959,176.163,341.411,177.219,341.411z"/><path d="M148.24,380.607c0.36,0.09,0.708,0.151,1.069,0.151c1.657,0,3.149-1.116,3.616-2.712c0.813-2.758,1.823-5.487,3.013-8.094   c0.229-0.498,0.332-1.025,0.332-1.553c0-1.477-0.859-2.832-2.215-3.434c-1.838-0.846-4.145,0.029-4.988,1.867   c-1.342,2.969-2.471,6.027-3.375,9.088C145.105,377.926,146.25,380.02,148.24,380.607z"/><path d="M146.808,404.975c0.09,0,0.166,0,0.257-0.015c2.079-0.136,3.646-1.942,3.495-4.009c-0.119-1.749-0.166-3.359-0.166-4.957   c0-1.281,0.031-2.547,0.106-3.753c0-0.06,0-0.12,0-0.181c0.015-2.02-1.552-3.678-3.558-3.783c-2.094-0.121-3.857,1.478-3.978,3.543   c-0.076,1.371-0.106,2.787-0.106,4.174c0,1.777,0.062,3.615,0.182,5.485C143.19,403.438,144.833,404.975,146.808,404.975z"/><path d="M238.989,302.411c0.693,0,1.355-0.181,1.944-0.542c2.757-1.658,5.334-3.329,7.896-5.123   c0.994-0.693,1.598-1.838,1.611-3.06c0-0.783-0.225-1.537-0.678-2.184c-1.145-1.644-3.586-2.081-5.243-0.936   c-2.442,1.704-4.884,3.301-7.474,4.853c-0.859,0.527-1.463,1.341-1.719,2.319c-0.24,0.98-0.092,1.99,0.436,2.864   C236.458,301.732,237.663,302.411,238.989,302.411z"/><path d="M158.063,358.289c0.648,0.498,1.433,0.754,2.247,0.754c1.19,0,2.306-0.572,3.015-1.508c1.731-2.291,3.614-4.551,5.65-6.69   c0.662-0.708,1.024-1.643,1.024-2.606c-0.017-1.041-0.437-2.005-1.19-2.728c-1.462-1.372-3.949-1.296-5.321,0.165   c-2.214,2.337-4.293,4.807-6.192,7.339c-0.603,0.8-0.844,1.794-0.707,2.789C156.737,356.799,157.251,357.688,158.063,358.289z"/><path d="M217.408,313.879c0.604,0,1.191-0.135,1.72-0.406c1.461-0.739,2.907-1.477,4.354-2.202c1.266-0.647,2.547-1.28,3.813-1.943   c1.267-0.633,2.063-1.93,2.063-3.346c0-0.604-0.135-1.175-0.406-1.719c-0.92-1.793-3.256-2.575-5.064-1.643   c-1.189,0.604-2.396,1.207-3.6,1.81c-1.492,0.754-3.045,1.537-4.582,2.334c-0.904,0.453-1.566,1.236-1.884,2.187   c-0.302,0.962-0.226,1.988,0.242,2.877C214.712,313.097,215.993,313.879,217.408,313.879z"/><path d="M196.326,326.206h0.016c0.753,0,1.491-0.227,2.124-0.663c2.473-1.703,4.929-3.285,7.52-4.838   c1.131-0.691,1.81-1.898,1.81-3.225c0.015-0.679-0.182-1.355-0.526-1.944c-1.041-1.718-3.469-2.321-5.17-1.28   c-2.773,1.672-5.364,3.33-7.896,5.062c-0.83,0.574-1.387,1.432-1.584,2.427c-0.18,0.995,0.031,1.988,0.604,2.818   C193.931,325.588,195.092,326.206,196.326,326.206z"/><path d="M162.937,437.639l-0.646,0.399c-0.1-0.171-0.201-0.35-0.305-0.531c-0.008-0.014-0.018-0.023-0.023-0.036l-0.055-0.096   c-0.044-0.091-0.104-0.195-0.15-0.286c-0.995-1.749-3.375-2.425-5.139-1.446c-1.176,0.662-1.914,1.914-1.93,3.255   c0,0.663,0.166,1.312,0.482,1.884c0.084,0.137,0.165,0.275,0.248,0.412c0.008,0.014,0.01,0.027,0.018,0.039   c1.477,2.594,2.492,4.068,2.535,4.13c0.729,1.054,1.902,1.624,3.102,1.624c0.677,0,1.361-0.182,1.976-0.562l3.848-2.375   c1.771-1.092,2.318-3.415,1.226-5.185C167.028,437.094,164.708,436.547,162.937,437.639z"/><path d="M182.613,425.484l-7.368,4.553c-1.779,1.099-2.321,3.419-1.237,5.183c0.693,1.13,1.899,1.794,3.211,1.794   c0.692,0,1.386-0.195,1.975-0.559l7.382-4.566c0.861-0.525,1.463-1.355,1.688-2.334c0.228-0.98,0.076-1.99-0.466-2.851   c-0.678-1.113-1.884-1.792-3.211-1.792C183.894,424.912,183.216,425.107,182.613,425.484z"/><path d="M186.71,382.11c-3.488,0-6.77,1.356-9.236,3.825c-5.092,5.094-5.092,13.383,0,18.475c2.073,2.076,4.729,3.354,7.594,3.713   l-3.792-3.793c-3.949-3.952-3.949-10.38,0-14.331c1.913-1.913,4.458-2.967,7.165-2.967c2.706,0,5.25,1.054,7.164,2.968l4.111,4.111   c-0.242-2.982-1.492-5.898-3.77-8.176C193.48,383.467,190.2,382.11,186.71,382.11z"/><path d="M216.181,352.64c-3.488,0-6.769,1.356-9.236,3.825c-2.467,2.467-3.824,5.746-3.824,9.236s1.357,6.771,3.824,9.237   c2.064,2.065,4.703,3.34,7.556,3.705l-3.769-3.768c-1.915-1.915-2.969-4.458-2.969-7.165s1.054-5.252,2.969-7.166   c1.911-1.913,4.455-2.967,7.162-2.967c2.705,0,5.25,1.054,7.164,2.969l4.132,4.131c-0.231-2.996-1.483-5.926-3.771-8.213   C222.952,353.996,219.671,352.64,216.181,352.64z"/><path d="M243.927,349.167l-3.745-3.744c-3.949-3.952-3.949-10.38,0-14.331c1.913-1.913,4.46-2.967,7.163-2.967h0.002   c2.706,0,5.25,1.055,7.165,2.97l4.151,4.151c-0.227-3.01-1.478-5.957-3.773-8.254c-2.466-2.467-5.746-3.826-9.234-3.826   c-3.492,0-6.772,1.359-9.238,3.826c-5.094,5.094-5.094,13.383,0,18.475C238.47,347.521,241.093,348.793,243.927,349.167z"/><path d="M275.126,293.694c-3.491,0-6.771,1.36-9.238,3.827c-5.092,5.094-5.092,13.381,0,18.475   c2.043,2.044,4.648,3.313,7.467,3.692l-3.719-3.718c-1.914-1.915-2.971-4.459-2.971-7.166s1.057-5.251,2.971-7.164   c1.912-1.913,4.456-2.968,7.162-2.968h0.002c2.707,0,5.252,1.055,7.164,2.969l4.172,4.172c-0.217-3.024-1.467-5.985-3.775-8.292   C281.896,295.054,278.614,293.694,275.126,293.694z"/><path d="M304.597,264.223c-3.491,0-6.771,1.358-9.238,3.826c-2.467,2.467-3.826,5.748-3.826,9.237c0,3.49,1.359,6.771,3.826,9.238   c2.033,2.034,4.625,3.3,7.426,3.686l-3.695-3.694c-3.951-3.951-3.951-10.379,0-14.331c1.914-1.915,4.457-2.968,7.165-2.968   c2.705,0,5.251,1.053,7.165,2.97l4.191,4.191c-0.209-3.036-1.46-6.013-3.777-8.33C311.366,265.581,308.085,264.223,304.597,264.223   z"/><path d="M324.83,257.051c2.023,2.023,4.597,3.287,7.38,3.681l-3.668-3.669c-1.915-1.915-2.969-4.459-2.969-7.166   c0-2.706,1.054-5.25,2.969-7.165c1.912-1.914,4.456-2.966,7.162-2.967c2.709,0,5.252,1.055,7.165,2.97l4.216,4.213   c-0.202-3.05-1.453-6.045-3.781-8.372c-2.467-2.468-5.748-3.825-9.236-3.825c-3.49,0-6.769,1.357-9.236,3.825   C319.736,243.67,319.736,251.958,324.83,257.051z"/><path d="M363.538,205.28c-3.488,0-6.769,1.357-9.236,3.824c-5.095,5.096-5.095,13.383,0,18.477   c2.012,2.012,4.568,3.271,7.336,3.674l-3.644-3.644c-3.95-3.953-3.95-10.381,0-14.331c1.913-1.913,4.456-2.966,7.163-2.966   c2.706,0,5.251,1.053,7.167,2.968l4.233,4.232c-0.193-3.064-1.445-6.073-3.781-8.409C370.31,206.638,367.03,205.28,363.538,205.28z   "/><path d="M391.066,201.775l-3.618-3.618c-3.951-3.951-3.951-10.379,0-14.33c1.912-1.913,4.456-2.967,7.161-2.967   c2.706,0,5.253,1.055,7.166,2.97l4.261,4.26c-0.188-3.195-1.506-6.175-3.789-8.456c-2.467-2.468-5.746-3.825-9.236-3.825   c-3.488,0-6.769,1.356-9.234,3.825c-2.469,2.468-3.83,5.748-3.83,9.237c0,3.491,1.357,6.77,3.827,9.238   C385.775,200.111,388.315,201.367,391.066,201.775z"/><path d="M245.989,435.977c-2.216-2.217-5.09-3.528-8.182-3.773l3.437,3.434c3.951,3.951,3.951,10.379,0,14.328   c-1.916,1.915-4.459,2.971-7.165,2.971c-2.707,0-5.252-1.055-7.165-2.969l-3.104-3.104c0.35,2.775,1.576,5.461,3.703,7.588   c2.469,2.467,5.75,3.826,9.238,3.826c3.49,0,6.769-1.359,9.236-3.826c2.467-2.467,3.826-5.748,3.826-9.237   S248.456,438.442,245.989,435.977z"/><path d="M275.46,406.505c-2.225-2.226-5.113-3.538-8.219-3.776l3.454,3.455c1.913,1.914,2.968,4.457,2.968,7.164   c0,2.708-1.053,5.253-2.968,7.164c-1.913,1.915-4.456,2.97-7.166,2.97c-2.705,0-5.249-1.054-7.161-2.968l-3.088-3.09   c0.365,2.854,1.64,5.49,3.705,7.557c2.467,2.466,5.748,3.825,9.236,3.825c3.491,0,6.771-1.359,9.238-3.825   C280.554,419.885,280.554,411.597,275.46,406.505z"/><path d="M304.931,395.507c5.094-5.093,5.094-13.382,0-18.473c-2.232-2.235-5.137-3.548-8.256-3.778l3.475,3.475   c3.949,3.951,3.949,10.378,0.001,14.331c-1.915,1.913-4.461,2.967-7.165,2.967c-2.709,0-5.252-1.054-7.165-2.968l-3.063-3.062   c0.373,2.834,1.646,5.455,3.701,7.509c2.465,2.468,5.746,3.827,9.234,3.827C299.184,399.334,302.464,397.975,304.931,395.507z"/><path d="M325.163,369.861c3.492,0,6.772-1.358,9.238-3.826c5.094-5.093,5.094-13.381,0-18.473c-2.244-2.242-5.16-3.559-8.294-3.781   l3.495,3.495c1.914,1.913,2.969,4.46,2.969,7.165c0,2.707-1.055,5.252-2.969,7.164c-1.913,1.915-4.459,2.969-7.166,2.969   c-2.706,0-5.25-1.054-7.162-2.967l-3.031-3.03c0.373,2.73,1.594,5.364,3.686,7.458   C318.395,368.503,321.675,369.861,325.163,369.861z"/><path d="M354.636,340.389c3.49,0,6.771-1.357,9.236-3.825c2.469-2.466,3.826-5.747,3.826-9.236c0-3.491-1.357-6.771-3.826-9.237   c-2.252-2.253-5.186-3.568-8.336-3.782l3.521,3.518c3.948,3.949,3.948,10.377,0,14.327c-1.913,1.915-4.46,2.968-7.167,2.968   c-2.705,0-5.25-1.053-7.164-2.967l-3.004-3.004c0.38,2.714,1.596,5.332,3.678,7.414   C347.865,339.032,351.147,340.389,354.636,340.389z"/><path d="M384.97,284.835l3.537,3.538c1.916,1.913,2.971,4.457,2.971,7.165c0,2.704-1.055,5.25-2.971,7.164   c-1.912,1.913-4.455,2.969-7.164,2.969c-2.705,0-5.251-1.056-7.162-2.969l-2.98-2.981c0.387,2.701,1.6,5.302,3.672,7.374   c2.466,2.467,5.746,3.825,9.234,3.825c3.49,0,6.771-1.358,9.238-3.827c5.092-5.091,5.092-13.38,0-18.475   C391.082,286.355,388.136,285.04,384.97,284.835z"/><path d="M413.581,281.447c3.49,0,6.77-1.358,9.238-3.826c5.089-5.095,5.089-13.383,0-18.475c-2.273-2.272-5.237-3.588-8.415-3.785   l3.56,3.559c3.947,3.953,3.947,10.381-0.002,14.328c-1.914,1.915-4.46,2.968-7.165,2.968c-2.708,0-5.251-1.052-7.166-2.967   l-2.963-2.962c0.404,2.767,1.664,5.323,3.675,7.335C406.81,280.089,410.091,281.447,413.581,281.447z"/><path d="M443.835,225.886l3.578,3.58c1.914,1.913,2.969,4.459,2.969,7.164c0,2.708-1.055,5.252-2.969,7.166   c-1.912,1.915-4.459,2.968-7.164,2.968c-2.706,0-5.252-1.053-7.162-2.968l-2.932-2.93c0.399,2.667,1.609,5.236,3.658,7.285   c2.468,2.466,5.748,3.826,9.236,3.826c3.49,0,6.771-1.359,9.238-3.827c2.467-2.466,3.826-5.747,3.826-9.238   c0-3.488-1.357-6.769-3.824-9.236C450.01,227.394,447.03,226.075,443.835,225.886z"/></g></svg>