<?xml version="1.0" ?><!DOCTYPE svg  PUBLIC '-//W3C//DTD SVG 1.1//EN'  'http://www.w3.org/Graphics/SVG/1.1/DTD/svg11.dtd'><svg enable-background="new 0 0 633.48 633.48" height="633.48px" id="Layer_1" version="1.1" viewBox="0 0 633.48 633.48" width="633.48px" xml:space="preserve" xmlns="http://www.w3.org/2000/svg" xmlns:xlink="http://www.w3.org/1999/xlink"><path d="M540.71,92.77C480.886,32.945,401.344,0,316.74,0S152.595,32.945,92.771,92.77C32.947,152.595,0,232.135,0,316.74  c0,84.604,32.947,164.144,92.771,223.968c59.824,59.824,139.366,92.772,223.969,92.772s164.146-32.948,223.97-92.772  S633.48,401.344,633.48,316.74C633.48,232.135,600.534,152.595,540.71,92.77z M560.023,461.751  c-30.781-33.654-66.352-60.239-105.727-79.019c-39.285-18.738-81.189-29.149-124.547-30.942l-4.112-0.172v-4.115v-75.548v-4.376  l4.375,0.086c86.096,1.695,169.697,19.449,248.48,52.77c11.257,4.764,22.573,9.956,33.821,15.474  c-3.187,49.625-18.638,95.961-43.362,136C566.006,468.435,563.027,465.037,560.023,461.751z M64.215,471.405  c-24.601-40.019-39.947-86.299-43.069-135.849c11.005-5.381,22.073-10.459,33.094-15.12  c78.783-33.322,162.383-51.076,248.479-52.771l4.374-0.086v4.376v75.548v4.115l-4.113,0.172  c-43.354,1.793-85.258,12.204-124.544,30.942c-39.375,18.779-74.946,45.364-105.724,79.019  C69.857,464.871,67.023,468.104,64.215,471.405z M184.386,157.753c37.572,12.417,77.457,19.346,118.546,20.594l4.16,0.126v4.162  v62.188v4.208l-4.208,0.08c-88.652,1.68-174.736,19.929-255.866,54.242c-8.85,3.743-17.697,7.733-26.468,11.883  c0.382-76.464,29.882-146.165,77.96-198.566C124.564,133.708,153.361,147.501,184.386,157.753z M111.795,103.078  c51.085-49.021,119.654-79.942,195.296-82.375v134.792v4.434l-4.429-0.146C232.984,157.505,165.963,137.488,111.795,103.078z   M325.638,20.675c75.792,2.246,144.528,33.098,195.753,82.116c-54.248,34.586-121.448,54.709-191.322,56.991l-4.431,0.146v-4.434  V20.675z M585.714,303.354c-81.127-34.313-167.214-52.562-255.868-54.242l-4.208-0.08v-4.208v-62.188v-4.162l4.16-0.126  c41.09-1.248,80.976-8.177,118.548-20.594c31.205-10.312,60.166-24.207,86.346-41.384c48.317,52.517,77.951,122.471,78.245,199.223  C603.916,311.31,594.815,307.203,585.714,303.354z M74.965,487.685c58.507-70.86,140.38-113.317,227.642-117.315l4.485-0.204v4.49  v238.121C211.347,609.694,126.935,560.972,74.965,487.685z M325.638,612.805V374.655v-4.49l4.486,0.204  c87.464,4.007,169.511,46.655,228.046,117.81C506.036,561.384,421.479,609.964,325.638,612.805z"/></svg>