<?xml version="1.0" ?><!DOCTYPE svg  PUBLIC '-//W3C//DTD SVG 1.1//EN'  'http://www.w3.org/Graphics/SVG/1.1/DTD/svg11.dtd'><svg enable-background="new 0 0 633.48 633.48" height="633.48px" id="Layer_1" version="1.1" viewBox="0 0 633.48 633.48" width="633.48px" xml:space="preserve" xmlns="http://www.w3.org/2000/svg" xmlns:xlink="http://www.w3.org/1999/xlink"><path d="M540.711,92.771C480.887,32.946,401.344,0,316.74,0S152.596,32.946,92.771,92.771C32.947,152.596,0,232.136,0,316.74  s32.947,164.145,92.771,223.969S232.137,633.48,316.74,633.48s164.146-32.947,223.971-92.771s92.77-139.364,92.77-223.969  S600.535,152.596,540.711,92.771z M93.037,152.02l1.299,0.74c1.262,0.719,28.605,16.131,65.066,21.672  c14.525,2.661,29.344,4.035,44.314,4.034c24.336-0.001,48.379-3.599,71.535-10.691c24.004,29.416,40.52,63.142,49.422,100.792  c-33.738,10.408-74.768,15.898-119.42,15.898c-69.842,0-139.117-13.36-177.303-33.726c9.014-39.455,25.934-75.926,48.99-107.671  C82.207,146.261,87.574,149.246,93.037,152.02z M332.471,338.172c0,29.521-4.766,58.648-13.873,86.304  c-33.568,8.254-72.545,12.616-113.197,12.616c-67.178,0-132.676-11.916-171-30.733c-8.998-28.284-13.869-58.392-13.869-89.618  c0-17.942,1.605-35.516,4.676-52.587c40.773,20.315,110.369,33.51,180.047,33.51c45.441,0,87.383-5.57,122.162-16.135  C330.775,299.573,332.471,318.464,332.471,338.172z M176.428,545.882c0.002,0,0.002,0,0.004,0c5.529,0,11.086-0.111,16.564-0.331  c5.605,5.851,21.711,21.583,46.826,37.423c16.396,10.341,38.574,21.808,65.346,29.729c-68.26-2.637-130.66-28.474-179.529-69.842  C139.193,544.49,156.566,545.882,176.428,545.882z M174,532.586c-21.395,0-43.52-1.958-65.908-5.803  c-29.264-29.071-52.496-64.196-67.66-103.316C81.33,440.05,142.836,450.289,205.4,450.289c38.324,0,75.273-3.791,107.859-11.008  c-10.895,27.677-26.256,53.607-45.668,76.634C242.809,526.821,210.551,532.586,174,532.586z M336.494,419.931  c16.145-48.575,18.713-110.898,5.453-150.126l-0.082-0.242c-10.141-42.915-29.807-82.378-55.178-109.441  c19.795-19.462,50.766-35.412,86.135-45.462c43.404,33.315,71.143,101.299,74.379,182.863  c4.16,104.808-32.873,204.276-96.816,260.861c-26.389-8.201-51.018-20.688-68.605-37.877  C309.318,486.327,326.381,452.07,336.494,419.931z M455.668,103.023c11.363,0,22.293,0.688,32.695,2.021  c57.055,62.319,84.371,148.269,76.949,242.389c-3.572,45.3-15.262,90.05-33.807,129.413c-18.062,38.347-41.811,69.867-68.75,91.292  c-9.936,1.595-20.867,2.445-32.52,2.445c-20.164,0-42.752-2.598-64.828-8.029c31.266-29.712,56.295-69.452,72.762-115.735  c16.578-46.583,24.26-98.391,22.219-149.82c-3.199-80.572-29.75-148.909-71.754-186.378  C410.258,105.728,433.07,103.023,455.668,103.023z M503.133,546.77c41.389-49.544,69.281-121.503,75.338-198.298  c7.229-91.667-17.391-175.998-69.527-239.775c9.391,2.165,18.201,4.935,26.326,8.294c48.219,52.709,77.682,122.851,77.682,199.75  C612.951,409.496,570.084,492.416,503.133,546.77z M494.855,92.629l-0.389-0.416l-2.305-0.327  c-0.674-0.096-16.754-2.342-39.703-2.342c-30.576,0-57.67,3.863-80.529,11.483l-0.285,0.095  c-40.633,11.127-75.895,29.839-97.754,53.244c-22.674,7.228-46.271,10.901-70.174,10.902c-6.576,0-13.117-0.309-19.619-0.855  c9.662-11.286,28.801-31.88,55.518-52.28c36.154-27.606,94.031-60.515,164.436-60.515c19.482,0,39.164,2.521,58.713,7.484  c18.607,10.588,35.963,23.134,51.785,37.355C508.221,94.911,501.641,93.64,494.855,92.629z M340.291,21.466  c27.631,2.184,54.203,8.177,79.197,17.45c-5.154-0.329-10.303-0.495-15.438-0.495c-74.246,0-134.932,34.515-172.768,63.47  c-34.035,26.046-55.762,51.815-62.619,60.437c-2.74-0.294-5.424-0.671-8.074-1.09c-18.293-3.45-36.064-9.112-53.004-16.851  c44.705-60.818,109.162-91.349,156.119-106.324C294.959,28.094,322.697,23.534,340.291,21.466z M363.857,609.188  c-77.076-2.977-132.459-45.965-153.652-65.362c22.965-2.577,43.641-7.681,61.098-15.125c16.293,16.352,39.447,29.994,67.424,39.722  l-0.447,0.383l11.416,3.561c1.561,0.487,38.73,11.932,80.668,11.935c0.002,0,0.006,0,0.01,0c4.934,0,9.746-0.164,14.424-0.486  C419.582,595.952,392.393,604.607,363.857,609.188z M255,27.021C206.043,43.312,140.93,75.628,95.582,138.48  c-3.582-1.895-7.117-3.888-10.609-5.976C127.023,79.715,186.691,41.562,255,27.021z"/></svg>