<?xml version="1.0" encoding="utf-8"?>
<!-- Generator: Adobe Illustrator 16.0.0, SVG Export Plug-In . SVG Version: 6.00 Build 0)  -->
<!DOCTYPE svg PUBLIC "-//W3C//DTD SVG 1.1//EN" "http://www.w3.org/Graphics/SVG/1.1/DTD/svg11.dtd">
<svg version="1.1" id="Layer_1" xmlns="http://www.w3.org/2000/svg" xmlns:xlink="http://www.w3.org/1999/xlink" x="0px" y="0px"
	 width="16px" height="16.002px" viewBox="0 0 16 16.002" enable-background="new 0 0 16 16.002" xml:space="preserve">
<g>
	<path fill="none" stroke="#646464" stroke-width="2" stroke-linecap="round" stroke-linejoin="round" stroke-miterlimit="10" d="
		M13,14.174c0,0.457-0.39,0.824-0.871,0.824H3.871C3.39,14.998,3,14.631,3,14.174V1.828c0-0.457,0.39-0.83,0.871-0.83h8.258
		C12.61,0.998,13,1.371,13,1.828V14.174z"/>
	
		<line fill="none" stroke="#646464" stroke-width="2" stroke-linecap="round" stroke-linejoin="round" stroke-miterlimit="10" x1="3" y1="7.998" x2="13" y2="7.998"/>
	
		<circle fill="none" stroke="#646464" stroke-width="2" stroke-linecap="round" stroke-linejoin="round" stroke-miterlimit="10" cx="8.019" cy="8.004" r="1.978"/>
	<path fill="none" stroke="#646464" stroke-width="2" stroke-linecap="round" stroke-linejoin="round" stroke-miterlimit="10" d="
		M9.242,14.033c-0.16-0.526-0.645-0.912-1.224-0.912s-1.063,0.385-1.224,0.912"/>
	<path fill="none" stroke="#646464" stroke-width="2" stroke-linecap="round" stroke-linejoin="round" stroke-miterlimit="10" d="
		M6.795,1.937C6.956,2.463,7.439,2.848,8.02,2.848c0.578,0,1.062-0.385,1.224-0.911"/>
</g>
</svg>
