<?xml version="1.0" encoding="utf-8"?>
<!-- Generator: Adobe Illustrator 16.0.0, SVG Export Plug-In . SVG Version: 6.00 Build 0)  -->
<!DOCTYPE svg PUBLIC "-//W3C//DTD SVG 1.1//EN" "http://www.w3.org/Graphics/SVG/1.1/DTD/svg11.dtd">
<svg version="1.1" id="Layer_1" xmlns="http://www.w3.org/2000/svg" xmlns:xlink="http://www.w3.org/1999/xlink" x="0px" y="0px"
	 width="16px" height="16px" viewBox="0 0 16 16" enable-background="new 0 0 16 16" xml:space="preserve">
<g>
	
		<circle fill="none" stroke="#646464" stroke-width="1.9893" stroke-linecap="round" stroke-linejoin="round" stroke-miterlimit="10" cx="8" cy="8.001" r="7"/>
	
		<polygon fill="none" stroke="#646464" stroke-width="2" stroke-linecap="round" stroke-linejoin="round" stroke-miterlimit="10" points="
		6.292,10 5.236,6.858 8,4.903 10.763,6.832 9.707,10 	"/>
	
		<polyline fill="none" stroke="#646464" stroke-width="1.9893" stroke-linecap="round" stroke-linejoin="round" stroke-miterlimit="10" points="
		5.859,14.666 6.309,14.241 4.914,12.233 2.414,11.413 2.21,11.935 	"/>
	
		<polyline fill="none" stroke="#646464" stroke-width="1.9893" stroke-linecap="round" stroke-linejoin="round" stroke-miterlimit="10" points="
		1.014,8.086 1.559,8.379 3.029,6.426 3.023,3.795 2.464,3.765 	"/>
	
		<polyline fill="none" stroke="#646464" stroke-width="1.9893" stroke-linecap="round" stroke-linejoin="round" stroke-miterlimit="10" points="
		15,8.086 14.455,8.379 12.984,6.426 12.99,3.795 13.55,3.765 	"/>
	
		<polyline fill="none" stroke="#646464" stroke-width="1.9893" stroke-linecap="round" stroke-linejoin="round" stroke-miterlimit="10" points="
		10.207,1.394 10.316,2.003 8,2.786 5.502,1.955 5.649,1.414 	"/>
	
		<polyline fill="none" stroke="#646464" stroke-width="1.9893" stroke-linecap="round" stroke-linejoin="round" stroke-miterlimit="10" points="
		10.014,14.666 9.564,14.241 10.958,12.233 13.459,11.413 13.663,11.935 	"/>
	
		<line fill="none" stroke="#646464" stroke-width="2" stroke-linecap="round" stroke-linejoin="round" stroke-miterlimit="10" x1="8" y1="5" x2="8" y2="3"/>
	
		<line fill="none" stroke="#646464" stroke-width="1.9893" stroke-linecap="round" stroke-linejoin="round" stroke-miterlimit="10" x1="5.236" y1="6.964" x2="3.029" y2="6.426"/>
	
		<line fill="none" stroke="#646464" stroke-width="1.9893" stroke-linecap="round" stroke-linejoin="round" stroke-miterlimit="10" x1="1.559" y1="8.379" x2="2.414" y2="11.413"/>
	
		<line fill="none" stroke="#646464" stroke-width="1.9893" stroke-linecap="round" stroke-linejoin="round" stroke-miterlimit="10" x1="4.914" y1="12.233" x2="6.292" y2="10.212"/>
	
		<line fill="none" stroke="#646464" stroke-width="1.9893" stroke-linecap="round" stroke-linejoin="round" stroke-miterlimit="10" x1="9.707" y1="10.212" x2="10.958" y2="12.233"/>
	
		<line fill="none" stroke="#646464" stroke-width="2" stroke-linecap="round" stroke-linejoin="round" stroke-miterlimit="10" x1="10" y1="14" x2="6" y2="14"/>
	
		<line fill="none" stroke="#646464" stroke-width="1.9893" stroke-linecap="round" stroke-linejoin="round" stroke-miterlimit="10" x1="10.763" y1="6.964" x2="12.984" y2="6.426"/>
	
		<line fill="none" stroke="#646464" stroke-width="1.9893" stroke-linecap="round" stroke-linejoin="round" stroke-miterlimit="10" x1="14.455" y1="8.379" x2="13.459" y2="11.413"/>
	
		<line fill="none" stroke="#646464" stroke-width="1.9893" stroke-linecap="round" stroke-linejoin="round" stroke-miterlimit="10" x1="12.99" y1="3.795" x2="10.316" y2="2.003"/>
	
		<line fill="none" stroke="#646464" stroke-width="1.9893" stroke-linecap="round" stroke-linejoin="round" stroke-miterlimit="10" x1="5.502" y1="1.955" x2="3.023" y2="3.795"/>
</g>
</svg>
