<?xml version="1.0" encoding="utf-8"?>
<!-- Generator: Adobe Illustrator 16.0.0, SVG Export Plug-In . SVG Version: 6.00 Build 0)  -->
<!DOCTYPE svg PUBLIC "-//W3C//DTD SVG 1.1//EN" "http://www.w3.org/Graphics/SVG/1.1/DTD/svg11.dtd">
<svg version="1.1" id="Layer_1" xmlns="http://www.w3.org/2000/svg" xmlns:xlink="http://www.w3.org/1999/xlink" x="0px" y="0px"
	 width="16px" height="16.002px" viewBox="0 0 16 16.002" enable-background="new 0 0 16 16.002" xml:space="preserve">
<g>
	
		<path fill="none" stroke="#646464" stroke-width="1.9886" stroke-linecap="round" stroke-linejoin="round" stroke-miterlimit="10" d="
		M6.915,10.045c0,1.112-0.901,2.013-2.013,2.013s-2.013-0.901-2.013-2.013c0-0.126,0.012-0.251,0.034-0.372
		C3.097,8.74,3.917,8.032,4.902,8.032C6.014,8.032,6.915,8.934,6.915,10.045z"/>
	
		<path fill="none" stroke="#646464" stroke-width="1.9886" stroke-linecap="round" stroke-linejoin="round" stroke-miterlimit="10" d="
		M2.924,9.983C0.629,7.688,0.347,4.25,2.294,2.303c1.947-1.947,5.386-1.665,7.681,0.63s2.577,5.733,0.63,7.68
		c-1.112,1.112-2.711,1.498-4.306,1.195"/>
	
		<path fill="none" stroke="#646464" stroke-width="1.9886" stroke-linecap="round" stroke-linejoin="round" stroke-miterlimit="10" d="
		M14.843,13.883c0.209,0.209,0.209,0.552,0,0.761l-0.192,0.192c-0.209,0.209-0.552,0.209-0.761,0l-1.619-1.619
		c-0.209-0.209-0.209-0.552,0-0.762l0.193-0.191c0.209-0.21,0.551-0.21,0.761,0L14.843,13.883z"/>
	
		<line fill="none" stroke="#646464" stroke-width="1.9886" stroke-linecap="round" stroke-linejoin="round" stroke-miterlimit="10" x1="12.406" y1="12.422" x2="10.601" y2="10.617"/>
	
		<line fill="none" stroke="#646464" stroke-width="1.9886" stroke-linecap="round" stroke-linejoin="round" stroke-miterlimit="10" x1="6.945" y1="9.139" x2="11.295" y2="4.788"/>
	
		<line fill="none" stroke="#646464" stroke-width="1.9886" stroke-linecap="round" stroke-linejoin="round" stroke-miterlimit="10" x1="2.179" y1="8.573" x2="8.561" y2="2.192"/>
	
		<line fill="none" stroke="#646464" stroke-width="1.9886" stroke-linecap="round" stroke-linejoin="round" stroke-miterlimit="10" x1="2.324" y1="2.339" x2="10.568" y2="10.584"/>
	
		<line fill="none" stroke="#646464" stroke-width="1.9886" stroke-linecap="round" stroke-linejoin="round" stroke-miterlimit="10" x1="7.102" y1="10.619" x2="8.089" y2="11.606"/>
</g>
</svg>
