<?xml version="1.0" encoding="utf-8"?>
<!-- Generator: Adobe Illustrator 16.0.0, SVG Export Plug-In . SVG Version: 6.00 Build 0)  -->
<!DOCTYPE svg PUBLIC "-//W3C//DTD SVG 1.1//EN" "http://www.w3.org/Graphics/SVG/1.1/DTD/svg11.dtd">
<svg version="1.1" id="Layer_1" xmlns="http://www.w3.org/2000/svg" xmlns:xlink="http://www.w3.org/1999/xlink" x="0px" y="0px"
	 width="16px" height="16.002px" viewBox="0 0 16 16.002" enable-background="new 0 0 16 16.002" xml:space="preserve">
<g>
	
		<path fill="none" stroke="#646464" stroke-width="1.9895" stroke-linecap="round" stroke-linejoin="round" stroke-miterlimit="10" d="
		M11.671,10.686c1.749-2.25,1.465-5.316-0.74-7.521c-2.394-2.393-6.254-2.92-8.5-0.675C0.586,4.335,0.613,7.27,2.008,9.585"/>
	
		<path fill="none" stroke="#646464" stroke-width="1.9895" stroke-linecap="round" stroke-linejoin="round" stroke-miterlimit="10" d="
		M4.606,12.216c1.974,1.042,4.24,0.901,6.011-0.475"/>
	
		<path fill="none" stroke="#646464" stroke-width="1.9895" stroke-linecap="round" stroke-linejoin="round" stroke-miterlimit="10" d="
		M5.881,10.095c0,1.049-0.85,1.899-1.899,1.899c-1.048,0-1.899-0.85-1.899-1.899c0-0.119,0.011-0.236,0.033-0.35
		C2.28,8.864,3.053,8.197,3.982,8.197C5.031,8.197,5.881,9.046,5.881,10.095z"/>
	
		<line fill="none" stroke="#646464" stroke-width="1.9895" stroke-linecap="round" stroke-linejoin="round" stroke-miterlimit="10" x1="10.288" y1="11.965" x2="11.954" y2="10.299"/>
	
		<line fill="none" stroke="#646464" stroke-width="1.9895" stroke-linecap="round" stroke-linejoin="round" stroke-miterlimit="10" x1="15" y1="14.943" x2="11.327" y2="11.27"/>
</g>
</svg>
