<?xml version="1.0" encoding="utf-8"?>
<!-- Generator: Adobe Illustrator 16.0.0, SVG Export Plug-In . SVG Version: 6.00 Build 0)  -->
<!DOCTYPE svg PUBLIC "-//W3C//DTD SVG 1.1//EN" "http://www.w3.org/Graphics/SVG/1.1/DTD/svg11.dtd">
<svg version="1.1" id="Layer_1" xmlns="http://www.w3.org/2000/svg" xmlns:xlink="http://www.w3.org/1999/xlink" x="0px" y="0px"
	 width="16px" height="16.002px" viewBox="0 0 16 16.002" enable-background="new 0 0 16 16.002" xml:space="preserve">
<g>
	<path fill="none" stroke="#646464" stroke-width="2" stroke-linecap="round" stroke-linejoin="round" stroke-miterlimit="10" d="
		M10.295,11.674c0.225,1.455-1.384,2.773-3.635,1.524c-1.641-0.911-2.866-0.759-3.574-0.563C1.84,11.556,1.053,9.963,1.053,8.186
		c0-3.248,2.633-5.882,5.881-5.882c2.857,0,5.237,2.036,5.771,4.736C9.222,7.041,10.114,10.504,10.295,11.674z"/>
	<path fill="none" stroke="#646464" stroke-width="2" stroke-linecap="round" stroke-linejoin="round" stroke-miterlimit="10" d="
		M11,8.994h4v4c0,0-1.109,0-1.578,0s-1.407-0.424-1.817-1.653c-0.411-1.23-1.055-3.439-1.055-3.439"/>
</g>
</svg>
