<?xml version="1.0" encoding="utf-8"?>
<!-- Generator: Adobe Illustrator 16.0.0, SVG Export Plug-In . SVG Version: 6.00 Build 0)  -->
<!DOCTYPE svg PUBLIC "-//W3C//DTD SVG 1.1//EN" "http://www.w3.org/Graphics/SVG/1.1/DTD/svg11.dtd">
<svg version="1.1" id="Layer_1" xmlns="http://www.w3.org/2000/svg" xmlns:xlink="http://www.w3.org/1999/xlink" x="0px" y="0px"
	 width="16px" height="16.002px" viewBox="0 0 16 16.002" enable-background="new 0 0 16 16.002" xml:space="preserve">
<g>
	<path fill="none" stroke="#646464" stroke-width="2" stroke-linecap="round" stroke-linejoin="round" stroke-miterlimit="10" d="
		M5.857,7.073c0,1.03-0.835,1.865-1.865,1.865S2.127,8.104,2.127,7.073c0-0.118,0.011-0.232,0.031-0.344
		c0.161-0.866,0.921-1.522,1.834-1.522C5.022,5.208,5.857,6.043,5.857,7.073z"/>
	<g>
		<path fill="none" stroke="#646464" stroke-width="2" stroke-linecap="round" stroke-linejoin="round" stroke-miterlimit="10" d="
			M3.146,5.116L1.233,3.203C0.879,2.849,0.94,2.209,1.368,1.781l0.384-0.384C2.18,0.969,2.819,0.909,3.174,1.263L7.6,5.688
			c0.354,0.354,0.867,0.99,1.141,1.414l0.402,0.623c0.274,0.424,0.239,1.608,0.594,1.962l4.027,4.027"/>
		<path fill="none" stroke="#646464" stroke-width="2" stroke-linecap="round" stroke-linejoin="round" stroke-miterlimit="10" d="
			M13.686,13.792L9.658,9.765C9.304,9.411,8.119,9.446,7.696,9.172L7.073,8.77C6.649,8.496,5.857,7.8,5.857,7.8"/>
		
			<line fill="none" stroke="#646464" stroke-width="2" stroke-linecap="round" stroke-linejoin="round" stroke-miterlimit="10" x1="13.086" y1="14.97" x2="14.997" y2="13.058"/>
	</g>
</g>
</svg>
