<?xml version="1.0" encoding="utf-8"?>
<!-- Generator: Adobe Illustrator 16.0.0, SVG Export Plug-In . SVG Version: 6.00 Build 0)  -->
<!DOCTYPE svg PUBLIC "-//W3C//DTD SVG 1.1//EN" "http://www.w3.org/Graphics/SVG/1.1/DTD/svg11.dtd">
<svg version="1.1" id="Layer_1" xmlns="http://www.w3.org/2000/svg" xmlns:xlink="http://www.w3.org/1999/xlink" x="0px" y="0px"
	 width="16px" height="16.002px" viewBox="0 0 16 16.002" enable-background="new 0 0 16 16.002" xml:space="preserve">
<g>
	<path fill="none" stroke="#646464" stroke-width="2" stroke-linecap="round" stroke-linejoin="round" stroke-miterlimit="10" d="
		M4,4.998V2.799c0-0.976,1.314-1.801,2.29-1.801h4.446C11.712,0.998,12,1.824,12,2.799V8.89c0,1.57-1.886,3.108-4.489,3.108
		C4.909,11.999,3,10.46,3,8.89V8.884V6.322C3,5.59,3.707,4.998,4.438,4.998h0.558C5.728,4.998,6,5.59,6,6.322v2.676"/>
	
		<line fill="none" stroke="#646464" stroke-width="2" stroke-linecap="round" stroke-linejoin="round" stroke-miterlimit="10" x1="4" y1="13.998" x2="4" y2="10.998"/>
	
		<line fill="none" stroke="#646464" stroke-width="2" stroke-linecap="round" stroke-linejoin="round" stroke-miterlimit="10" x1="11" y1="10.998" x2="11" y2="13.998"/>
	<path fill="none" stroke="#646464" stroke-width="2" stroke-linecap="round" stroke-linejoin="round" stroke-miterlimit="10" d="
		M11,13.998c0,0.546-1.067,0.994-2.961,0.994C6.145,14.992,4,14.544,4,13.998"/>
</g>
</svg>
