<?xml version="1.0" encoding="utf-8"?>
<!-- Generator: Adobe Illustrator 16.0.0, SVG Export Plug-In . SVG Version: 6.00 Build 0)  -->
<!DOCTYPE svg PUBLIC "-//W3C//DTD SVG 1.1//EN" "http://www.w3.org/Graphics/SVG/1.1/DTD/svg11.dtd">
<svg version="1.1" id="Layer_1" xmlns="http://www.w3.org/2000/svg" xmlns:xlink="http://www.w3.org/1999/xlink" x="0px" y="0px"
	 width="16px" height="16.002px" viewBox="0 0 16 16.002" enable-background="new 0 0 16 16.002" xml:space="preserve">
<g>
	<path fill="none" stroke="#646464" stroke-width="2" stroke-linecap="round" stroke-linejoin="round" stroke-miterlimit="10" d="
		M9.419,11.994H4.925c0,2,1.373,3.066,3.067,3.066s3.067-1.066,3.067-3.066h-0.275H9.419z"/>
	<path fill="none" stroke="#646464" stroke-width="2" stroke-linecap="round" stroke-linejoin="round" stroke-miterlimit="10" d="
		M14.012,1.079c-0.043-0.056-0.11-0.084-0.183-0.084h-2.812H4.982H2.171c-0.072,0-0.14,0.029-0.183,0.084
		C1.945,1.133,1.931,1.204,1.95,1.271l3.197,10.534c0.028,0.096,0.118,0.189,0.221,0.189h1.27h2.725h1.27
		c0.103,0,0.192-0.095,0.221-0.19l3.197-10.52C14.069,1.218,14.055,1.133,14.012,1.079z"/>
	
		<line fill="none" stroke="#646464" stroke-width="2" stroke-linecap="round" stroke-linejoin="round" stroke-miterlimit="10" x1="8" y1="11.994" x2="8" y2="0.994"/>
</g>
</svg>
