<!-- Generated by IcoMoon.io -->
<svg version="1.1" xmlns="http://www.w3.org/2000/svg" width="512" height="512" viewBox="0 0 512 512">
<title></title>
<g id="icomoon-ignore">
</g>
<path d="M192 96h64v32h-64zM288 96h64v32h-64zM448 96v128h-96v-32h64v-64h-32v-32zM160 192h64v32h-64zM256 192h64v32h-64zM96 128v64h32v32h-64v-128h96v32zM192 288h64v32h-64zM288 288h64v32h-64zM448 288v128h-96v-32h64v-64h-32v-32zM160 384h64v32h-64zM256 384h64v32h-64zM96 320v64h32v32h-64v-128h96v32zM480 32h-448v448h448v-448zM512 0v0 512h-512v-512h512z"></path>
</svg>
