<?xml version="1.0" encoding="utf-8"?>
<!-- Generator: Adobe Illustrator 16.0.0, SVG Export Plug-In . SVG Version: 6.00 Build 0)  -->
<!DOCTYPE svg PUBLIC "-//W3C//DTD SVG 1.1//EN" "http://www.w3.org/Graphics/SVG/1.1/DTD/svg11.dtd">
<svg version="1.1" id="Layer_1" xmlns="http://www.w3.org/2000/svg" xmlns:xlink="http://www.w3.org/1999/xlink" x="0px" y="0px"
	 width="128px" height="128px" viewBox="0 0 128 128" enable-background="new 0 0 128 128" xml:space="preserve">
<g>
	<path fill="none" d="M100.776,83.273c-0.082,0.11-0.173,0.219-0.257,0.329C100.604,83.492,100.693,83.384,100.776,83.273z"/>
	<path fill="none" d="M105,71.652c0,3.928-1.468,7.831-4.083,11.425C103.518,79.555,105,75.673,105,71.652z"/>
	<path fill="#D84315" d="M83.947,117.96l-8.209,1.747c-3.993,0.573-8.239,0.861-12.655,0.861c-14.302,0-25.955-3.007-29.083-7.166
		v4.619c0,4.495,13.28,8.292,29,8.292c17.347,0,29-4.417,29-8.542v-4.14C90.633,115.284,87.891,116.774,83.947,117.96z"/>
	<path fill="#BF360C" d="M91,2H53.031C44.191,2,37,8.431,37,16.721V35h0.996C44.839,35,50,39.855,50,46.708v24.979
		c0,0.276-0.224,0.5-0.5,0.5s-0.5-0.224-0.5-0.5V46.708C49,40.425,44.27,36,37.996,36h-1.645h-2.359C27.38,36,22,40.631,22,46.708
		v24.885c0,8.224,6.123,15.864,15.424,21.012c7.355,4.07,16.696,6.582,26.576,6.582c11.349,0,21.984-3.314,29.716-8.49
		c0.117-0.078,0.23-0.158,0.346-0.237c0.074-0.143,0.213-0.241,0.38-0.261c2.811-1.972,5.208-4.194,7.078-6.597
		c0.084-0.11,0.175-0.218,0.257-0.329c0.049-0.065,0.093-0.132,0.141-0.196C104.532,79.483,106,75.58,106,71.652V16.721
		C106,8.15,99.552,2,91,2z"/>
	<path fill="#D50000" d="M93.062,90.46c0.127-0.087,0.255-0.173,0.38-0.261C93.274,90.22,93.136,90.317,93.062,90.46z"/>
	<path fill="#EEEEEE" d="M62,100.188c-10.475,0-20.354-2.794-28-7.273v17.87c0.101,0.092,0.166-0.097,0.166-0.097
		c0,5,11.62,9.648,28.917,9.648c4.369,0,8.567-0.168,12.48-0.438l8.136-1.904c5.261-1.876,8.301-3.14,8.301-6.14V91.678
		C84.122,96.877,73.411,100.188,62,100.188z"/>
</g>
<g>
	<path fill="none" stroke="#263238" stroke-width="2" stroke-linecap="round" stroke-linejoin="round" stroke-miterlimit="10" d="
		M36.5,35V16.721C36.5,7.92,44.231,1.5,53.031,1.5H91c8.8,0,15.5,6.42,15.5,15.221v54.932c0,14.163-19.025,28.035-42.5,28.035
		S21.5,85.815,21.5,71.652v-0.059V46.708c0-6.6,5.892-11.208,12.492-11.208h4.004c6.6,0,11.504,4.608,11.504,11.208V72"/>
	<path fill="none" stroke="#263238" stroke-width="2" stroke-linecap="round" stroke-linejoin="round" stroke-miterlimit="10" d="
		M33.5,91v26.771c0,4.924,13.208,9.042,29.5,9.042s29.5-3.867,29.5-8.792V93"/>
	<path fill="none" stroke="#263238" stroke-width="2" stroke-linecap="round" stroke-linejoin="round" stroke-miterlimit="10" d="
		M76.086,119.218c-3.818,0.545-8.084,0.85-12.586,0.85c-16.292,0-29.5-3.992-29.5-8.917"/>
	<path fill="none" stroke="#263238" stroke-width="2" stroke-linecap="round" stroke-linejoin="round" stroke-miterlimit="10" d="
		M92.201,113.22c-1.292,1.644-4.088,3.11-7.924,4.261"/>
</g>
</svg>
