<?xml version="1.0" encoding="utf-8"?>
<!-- Generator: Adobe Illustrator 16.0.0, SVG Export Plug-In . SVG Version: 6.00 Build 0)  -->
<!DOCTYPE svg PUBLIC "-//W3C//DTD SVG 1.1//EN" "http://www.w3.org/Graphics/SVG/1.1/DTD/svg11.dtd">
<svg version="1.1" id="Layer_1" xmlns="http://www.w3.org/2000/svg" xmlns:xlink="http://www.w3.org/1999/xlink" x="0px" y="0px"
	 width="128px" height="128px" viewBox="0 0 128 128" enable-background="new 0 0 128 128" xml:space="preserve">
<g>
	<g>
		<rect x="29" y="63" fill="#78909C" width="69" height="3"/>
		<rect x="5" y="51" fill="#B2DFDB" width="4" height="27"/>
		<polygon fill="#1976D2" points="28,66 28,62.5 28,62 28,51 25,51 25,78 28,78 28,66.5 		"/>
		<rect x="9" y="51" fill="#64B5F6" width="4" height="27"/>
		<rect x="17" y="51" fill="#42A5F5" width="4" height="27"/>
		<rect x="21" y="51" fill="#1976D2" width="4" height="27"/>
		<rect x="1" y="51" fill="#E0F2F1" width="4" height="27"/>
		<rect x="13" y="51" fill="#42A5F5" width="4" height="27"/>
		<polygon fill="#42A5F5" points="110,78 114,78 114,60.5 114,58.5 114,51 110,51 		"/>
		<rect x="122" y="51" fill="#E0F2F1" width="4" height="27"/>
		<polygon fill="#64B5F6" points="114,78 118,78 118,61.5 118,58.5 118,51 114,51 		"/>
		<polygon fill="#42A5F5" points="106,78 110,78 110,61.5 110,58.5 110,51 106,51 		"/>
		<polygon fill="#1976D2" points="102,78 106,78 106,60.5 106,58.5 106,51 102,51 		"/>
		<polygon fill="#B2DFDB" points="118,78 122,78 122,61.5 122,58.5 122,51 118,51 		"/>
		<polygon fill="#1976D2" points="102,78 102,59.5 102,58.5 102,51 99,51 99,62 99,66 99,78 		"/>
	</g>
	<g>
		
			<rect x="29.5" y="62.5" fill="none" stroke="#263238" stroke-width="2" stroke-linecap="round" stroke-linejoin="round" stroke-miterlimit="10" width="70" height="4"/>
		
			<rect x="1.5" y="50.5" fill="none" stroke="#263238" stroke-width="2" stroke-linecap="round" stroke-linejoin="round" stroke-miterlimit="10" width="28" height="28"/>
		
			<line fill="none" stroke="#263238" stroke-width="2" stroke-linecap="round" stroke-linejoin="round" stroke-miterlimit="10" x1="5.5" y1="78" x2="5.5" y2="59"/>
		
			<line fill="none" stroke="#263238" stroke-width="2" stroke-linecap="round" stroke-linejoin="round" stroke-miterlimit="10" x1="9.5" y1="78" x2="9.5" y2="59"/>
		
			<line fill="none" stroke="#263238" stroke-width="2" stroke-linecap="round" stroke-linejoin="round" stroke-miterlimit="10" x1="13.5" y1="78" x2="13.5" y2="59"/>
		
			<line fill="none" stroke="#263238" stroke-width="2" stroke-linecap="round" stroke-linejoin="round" stroke-miterlimit="10" x1="17.5" y1="78" x2="17.5" y2="59"/>
		
			<line fill="none" stroke="#263238" stroke-width="2" stroke-linecap="round" stroke-linejoin="round" stroke-miterlimit="10" x1="21.5" y1="78" x2="21.5" y2="59"/>
		
			<line fill="none" stroke="#263238" stroke-width="2" stroke-linecap="round" stroke-linejoin="round" stroke-miterlimit="10" x1="25.5" y1="78" x2="25.5" y2="59"/>
		
			<line fill="none" stroke="#263238" stroke-width="2" stroke-linecap="round" stroke-linejoin="round" stroke-miterlimit="10" x1="5.5" y1="53" x2="5.5" y2="51"/>
		
			<line fill="none" stroke="#263238" stroke-width="2" stroke-linecap="round" stroke-linejoin="round" stroke-miterlimit="10" x1="9.5" y1="53" x2="9.5" y2="51"/>
		
			<line fill="none" stroke="#263238" stroke-width="2" stroke-linecap="round" stroke-linejoin="round" stroke-miterlimit="10" x1="13.5" y1="53" x2="13.5" y2="51"/>
		
			<line fill="none" stroke="#263238" stroke-width="2" stroke-linecap="round" stroke-linejoin="round" stroke-miterlimit="10" x1="17.5" y1="53" x2="17.5" y2="51"/>
		
			<line fill="none" stroke="#263238" stroke-width="2" stroke-linecap="round" stroke-linejoin="round" stroke-miterlimit="10" x1="21.5" y1="53" x2="21.5" y2="51"/>
		
			<line fill="none" stroke="#263238" stroke-width="2" stroke-linecap="round" stroke-linejoin="round" stroke-miterlimit="10" x1="25.5" y1="53" x2="25.5" y2="51"/>
		
			<rect x="99.5" y="50.5" fill="none" stroke="#263238" stroke-width="2" stroke-linecap="round" stroke-linejoin="round" stroke-miterlimit="10" width="28" height="28"/>
		
			<line fill="none" stroke="#263238" stroke-width="2" stroke-linecap="round" stroke-linejoin="round" stroke-miterlimit="10" x1="103.5" y1="78" x2="103.5" y2="59"/>
		
			<line fill="none" stroke="#263238" stroke-width="2" stroke-linecap="round" stroke-linejoin="round" stroke-miterlimit="10" x1="107.5" y1="78" x2="107.5" y2="59"/>
		
			<line fill="none" stroke="#263238" stroke-width="2" stroke-linecap="round" stroke-linejoin="round" stroke-miterlimit="10" x1="111.5" y1="78" x2="111.5" y2="59"/>
		
			<line fill="none" stroke="#263238" stroke-width="2" stroke-linecap="round" stroke-linejoin="round" stroke-miterlimit="10" x1="115.5" y1="78" x2="115.5" y2="59"/>
		
			<line fill="none" stroke="#263238" stroke-width="2" stroke-linecap="round" stroke-linejoin="round" stroke-miterlimit="10" x1="119.5" y1="78" x2="119.5" y2="59"/>
		
			<line fill="none" stroke="#263238" stroke-width="2" stroke-linecap="round" stroke-linejoin="round" stroke-miterlimit="10" x1="123.5" y1="78" x2="123.5" y2="59"/>
		
			<line fill="none" stroke="#263238" stroke-width="2" stroke-linecap="round" stroke-linejoin="round" stroke-miterlimit="10" x1="103.5" y1="53" x2="103.5" y2="51"/>
		
			<line fill="none" stroke="#263238" stroke-width="2" stroke-linecap="round" stroke-linejoin="round" stroke-miterlimit="10" x1="107.5" y1="53" x2="107.5" y2="51"/>
		
			<line fill="none" stroke="#263238" stroke-width="2" stroke-linecap="round" stroke-linejoin="round" stroke-miterlimit="10" x1="111.5" y1="53" x2="111.5" y2="51"/>
		
			<line fill="none" stroke="#263238" stroke-width="2" stroke-linecap="round" stroke-linejoin="round" stroke-miterlimit="10" x1="115.5" y1="53" x2="115.5" y2="51"/>
		
			<line fill="none" stroke="#263238" stroke-width="2" stroke-linecap="round" stroke-linejoin="round" stroke-miterlimit="10" x1="119.5" y1="53" x2="119.5" y2="51"/>
		
			<line fill="none" stroke="#263238" stroke-width="2" stroke-linecap="round" stroke-linejoin="round" stroke-miterlimit="10" x1="123.5" y1="53" x2="123.5" y2="51"/>
	</g>
</g>
</svg>
