<?xml version="1.0" encoding="utf-8"?>
<!-- Generator: Adobe Illustrator 16.0.0, SVG Export Plug-In . SVG Version: 6.00 Build 0)  -->
<!DOCTYPE svg PUBLIC "-//W3C//DTD SVG 1.1//EN" "http://www.w3.org/Graphics/SVG/1.1/DTD/svg11.dtd">
<svg version="1.1" id="Layer_1" xmlns="http://www.w3.org/2000/svg" xmlns:xlink="http://www.w3.org/1999/xlink" x="0px" y="0px"
	 width="128px" height="128px" viewBox="0 0 128 128" enable-background="new 0 0 128 128" xml:space="preserve">
<g>
	<g>
		<path fill="#64B5F6" d="M63.68,32.34c-0.16-0.001-0.318-0.012-0.478-0.012c-0.012,0.001-0.022,0.007-0.035,0.007
			c-0.182,0-0.359,0.007-0.541,0.008c-25.158,0.136-44.35,9.675-51.521,13.832c5.605-1.48,17.42-4.063,31.701-4.108
			c3.647-0.011,7.454,0.143,11.358,0.523c7.967,0.777,16.909,2.581,25.963,6.198c16.94,6.768,34.263,19.909,46.337,44.582
			C125.009,59.635,97.456,32.613,63.68,32.34z"/>
		<path fill="#1976D2" d="M125.962,94.624C114.533,70.799,98.205,57.68,81.997,50.658c-9.718-4.21-19.391-6.238-27.93-7.072
			c-4.624-0.451-9.108-0.58-13.35-0.494c-16.587,0.34-29.437,4.004-32.234,4.863c-0.008,0.002-0.013,0.004-0.02,0.006
			c1.489,2.953,3.303,5.719,5.382,8.315c27.231,34.016,100.879,38.414,111.835,38.88c0.205,0.009,0.39,0.016,0.551,0.022
			C126.143,94.991,126.051,94.809,125.962,94.624z"/>
		<path fill="#D50000" d="M124.681,95.156l0.671,0.27c-0.04-0.084-0.081-0.164-0.12-0.247
			C125.07,95.171,124.886,95.165,124.681,95.156z"/>
		<path fill="#BCAAA4" d="M33.406,95.208c-0.31-8.034-6.149-12.498-12.339-17.117c-1.135-0.847-2.277-1.743-3.4-2.627
			c-3.68-2.897-7.139-6.147-9.366-10.561c-1.932,3.318-3.662,6.852-5.117,10.532c-2.318,5.87-2.189,11.124,0.375,14.894
			C5.941,93.832,10.322,96,15.578,96h17.856C33.434,95,33.414,95.418,33.406,95.208z"/>
		<path fill="#78909C" d="M75.679,89.764C54.396,84.82,27.805,75.181,13.353,57.443c-1.567,2.019-3.053,4.152-4.441,6.45
			c0.312,0.666,0.649,1.289,1.017,1.904c1.18,1.975,2.632,3.691,4.233,5.267c2.308,2.271,4.927,4.39,7.503,6.312
			C28.224,82.271,34.419,87,34.434,96h78.884C103.7,95,90.041,93.101,75.679,89.764z"/>
	</g>
	<g>
		<path fill="none" stroke="#263238" stroke-width="2" stroke-linecap="round" stroke-linejoin="round" stroke-miterlimit="10" d="
			M13.331,56.507C8.927,62.052,5.326,68.699,2.675,75.406C-2.482,88.461,4.98,96.5,15.534,96.5h111.464
			c0-35-28.598-64.508-63.875-64.508"/>
		<path fill="none" stroke="#263238" stroke-width="2" stroke-linecap="round" stroke-linejoin="round" stroke-miterlimit="10" d="
			M126.998,95.704c0,0-96.905-2.185-119.288-48.043c0,0,22.564-15.833,55.413-15.833"/>
		<path fill="none" stroke="#263238" stroke-width="2" stroke-linecap="round" stroke-linejoin="round" stroke-miterlimit="10" d="
			M7.71,47.661c0,0,83.868-28.208,119.288,48.043"/>
		<path fill="none" stroke="#263238" stroke-width="2" stroke-linecap="round" stroke-linejoin="round" stroke-miterlimit="10" d="
			M33.892,95.704c0-15.496-19.292-17.837-25.621-31.938"/>
	</g>
</g>
</svg>
