<?xml version="1.0" encoding="utf-8"?>
<!-- Generator: Adobe Illustrator 16.0.0, SVG Export Plug-In . SVG Version: 6.00 Build 0)  -->
<!DOCTYPE svg PUBLIC "-//W3C//DTD SVG 1.1//EN" "http://www.w3.org/Graphics/SVG/1.1/DTD/svg11.dtd">
<svg version="1.1" id="Layer_1" xmlns="http://www.w3.org/2000/svg" xmlns:xlink="http://www.w3.org/1999/xlink" x="0px" y="0px"
	 width="128px" height="128px" viewBox="0 0 128 128" enable-background="new 0 0 128 128" xml:space="preserve">
<g>
	<g>
		<polygon fill="none" points="49.712,51.453 24.981,27.018 24.972,27.02 49.623,51.431 		"/>
		<polygon fill="#EF5350" points="53.306,53.354 88.858,101.355 101.683,88.532 		"/>
		<path fill="#FBC02D" d="M88.681,101.281c-0.684,0.684-1.062,1.595-1.067,2.564c-0.005,0.968,0.364,1.872,1.039,2.547l6.479,6.479
			c2.455,2.455,5.729,3.807,9.218,3.808c3.54,0,6.875-1.386,9.392-3.902c5.156-5.156,5.199-13.504,0.096-18.609l-6.48-6.479
			c-0.67-0.67-1.568-1.039-2.528-1.039c-0.977,0-1.895,0.379-2.583,1.068L88.681,101.281z"/>
		<polygon fill="#BF360C" points="51.623,51.421 26.972,27 15.487,27 3.021,39.294 		"/>
		<path fill="#E57373" d="M51.872,51.493L39.795,1.969L26.972,14.457c0,0,0,12.561,0.01,12.561l24.73,24.436L51.872,51.493z"/>
		<polygon fill="#D50000" points="49.911,51.649 49.872,51.493 49.712,51.453 		"/>
	</g>
	<g>
		<path fill="none" stroke="#263238" stroke-width="2" stroke-linecap="round" stroke-linejoin="round" stroke-miterlimit="10" d="
			M113.19,93.814c5.307,5.309,5.264,13.957-0.096,19.316c-5.36,5.36-14.008,5.403-19.315,0.096"/>
		<path fill="none" stroke="#263238" stroke-width="2" stroke-linecap="round" stroke-linejoin="round" stroke-miterlimit="10" d="
			M95.874,92.381l-8.547,8.547c-1.607,1.607-1.621,4.227-0.028,5.818l6.149,6.15"/>
		<path fill="none" stroke="#263238" stroke-width="2" stroke-linecap="round" stroke-linejoin="round" stroke-miterlimit="10" d="
			M112.86,93.484l-6.15-6.149c-1.592-1.593-4.211-1.579-5.818,0.029l-0.768,0.768"/>
		
			<line fill="none" stroke="#263238" stroke-width="2" stroke-linecap="round" stroke-linejoin="round" stroke-miterlimit="10" x1="113.095" y1="113.131" x2="125.795" y2="125.831"/>
		
			<line fill="none" stroke="#263238" stroke-width="2" stroke-linecap="round" stroke-linejoin="round" stroke-miterlimit="10" x1="87.138" y1="100.737" x2="51.93" y2="51.966"/>
		
			<line fill="none" stroke="#263238" stroke-width="2" stroke-linecap="round" stroke-linejoin="round" stroke-miterlimit="10" x1="100.771" y1="87.174" x2="51.965" y2="51.932"/>
		
			<line fill="none" stroke="#263238" stroke-width="2" stroke-linecap="round" stroke-linejoin="round" stroke-miterlimit="10" x1="51.93" y1="51.966" x2="30.644" y2="30.68"/>
		
			<polyline fill="none" stroke="#263238" stroke-width="2" stroke-linecap="round" stroke-linejoin="round" stroke-miterlimit="10" points="
			26,26.5 14.282,26.5 1.036,39.568 51.84,52.231 		"/>
		
			<polyline fill="none" stroke="#263238" stroke-width="2" stroke-linecap="round" stroke-linejoin="round" stroke-miterlimit="10" points="
			25.5,26 25.5,14.246 39.088,1 51.491,51.821 		"/>
	</g>
</g>
</svg>
