<?xml version="1.0" encoding="utf-8"?>
<!-- Generator: Adobe Illustrator 16.0.0, SVG Export Plug-In . SVG Version: 6.00 Build 0)  -->
<!DOCTYPE svg PUBLIC "-//W3C//DTD SVG 1.1//EN" "http://www.w3.org/Graphics/SVG/1.1/DTD/svg11.dtd">
<svg version="1.1" id="Layer_1" xmlns="http://www.w3.org/2000/svg" xmlns:xlink="http://www.w3.org/1999/xlink" x="0px" y="0px"
	 width="128px" height="128px" viewBox="0 0 128 128" enable-background="new 0 0 128 128" xml:space="preserve">
<g>
	<g>
		<path fill="#FFCC80" d="M78.968,73.048c-2.46-2.459-5.393-6.802-7.749-10.292c-0.664-0.984-1.285-1.904-1.839-2.697l-3.704-5.308
			c-2.513-3.6-7.079-9.05-10.179-12.15L16.606,3.71c-1.41-1.41-3.294-2.187-5.304-2.187S7.409,2.3,5.999,3.71L3.211,6.499
			c-1.41,1.41-2.188,3.294-2.188,5.303s0.777,3.893,2.188,5.303l23.458,23.459c5.492,0.087,10.056,4.048,11.071,9.268
			c0.127,0.652,0.195,1.324,0.206,2.01l4.156,4.155c3.1,3.1,8.55,7.666,12.149,10.178l5.309,3.704
			c0.796,0.556,1.719,1.179,2.706,1.846c3.485,2.354,7.824,5.285,10.281,7.742l16.457,16.457c0.023-0.052,0.053-0.102,0.096-0.145
			l3.392-3.392l2.858-2.858c0.018-0.018,0.04-0.025,0.059-0.039L78.968,73.048z"/>
		<path fill="#FF7043" d="M119.599,112.679L97.097,90.177c-0.015,0.019-0.021,0.041-0.039,0.059l-2.771,2.77l-3.479,3.48
			c-0.043,0.042-0.093,0.072-0.145,0.096l26.109,26.108l6.418-6.418L119.599,112.679z"/>
		<path fill="#795548" d="M116.247,123l-0.734,0.424c-0.283,0.282-0.5,0.565-0.5,0.968c0,0.402,0.125,0.732,0.407,1.014l0.662,0.654
			c0.564,0.563,1.549,0.551,2.113-0.012l8.346-8.355c0.282-0.282,0.436-0.662,0.436-1.063c0-0.402-0.156-0.781-0.438-1.062
			l-0.678-0.678c-0.281-0.282-0.659-0.438-1.062-0.438c-0.401,0-0.779,0.155-1.061,0.437L116,122.624V123H116.247z"/>
		<polygon fill="#D50000" points="115.001,122.625 115.002,122.624 115,122.626 		"/>
		<path fill="#E0E0E0" d="M22.796,45.208c0-0.708,0.065-1.419,0.194-2.114c0.036-0.195,0.084-0.389,0.131-0.584
			c-3.013,1.383-5.287,4.157-5.926,7.584c-0.117,0.635-0.177,1.285-0.177,1.93c0,5.772,4.696,10.469,10.469,10.469
			c4.232,0,7.877-2.529,9.525-6.151c-0.895,0.22-1.814,0.335-2.748,0.335C27.94,56.676,22.796,51.531,22.796,45.208z"/>
		<path fill="#D50000" d="M26.541,41.557c-0.019,0-0.036-0.002-0.054-0.002c-0.028,0-0.056,0.003-0.084,0.003
			C26.45,41.565,26.494,41.564,26.541,41.557z"/>
		<path fill="#D50000" d="M36.952,52.095c0-0.024,0.004-0.047,0.004-0.071c0-0.014-0.002-0.026-0.002-0.04
			C36.949,52.022,36.948,52.058,36.952,52.095z"/>
		<path fill="#EEEEEE" d="M37.454,48.832c-1.29-4.019-4.946-6.975-9.32-7.245c-0.197-0.012-0.394-0.029-0.593-0.03
			c-0.047,0.007-0.091,0.008-0.138,0.001c-1.08,0.009-2.124,0.188-3.111,0.504c-0.001,0.002-0.001,0.004-0.002,0.006
			c-0.125,0.399-0.241,0.803-0.316,1.208c-0.118,0.635-0.178,1.285-0.178,1.931c0,5.772,4.696,10.469,10.469,10.469
			c1.096,0,2.171-0.175,3.202-0.506c0.001,0,0.003-0.001,0.005-0.001c0.307-0.971,0.474-2.003,0.48-3.074
			c-0.004-0.037-0.003-0.073,0.002-0.111C37.949,50.885,37.773,49.827,37.454,48.832z"/>
	</g>
	<g>
		<path fill="none" stroke="#263238" stroke-width="2" stroke-linecap="round" stroke-linejoin="round" stroke-miterlimit="10" d="
			M37.957,52.025c0,6.058-4.91,10.969-10.969,10.969c-6.058,0-10.969-4.911-10.969-10.969c0-0.691,0.063-1.367,0.186-2.022
			c0.949-5.092,5.416-8.947,10.783-8.947C33.047,41.056,37.957,45.967,37.957,52.025z"/>
		<path fill="none" stroke="#263238" stroke-width="2" stroke-linecap="round" stroke-linejoin="round" stroke-miterlimit="10" d="
			M37.37,55.572c-1.129,0.393-2.342,0.605-3.604,0.605c-6.058,0-10.969-4.911-10.969-10.969c0-0.691,0.064-1.367,0.187-2.022
			c0.097-0.522,0.231-1.031,0.399-1.523"/>
		<g>
			<path fill="none" stroke="#263238" stroke-width="2" stroke-linecap="round" stroke-linejoin="round" stroke-miterlimit="10" d="
				M26.971,41.073L3.358,17.46c-3.111-3.111-3.111-8.202,0-11.313l2.788-2.788c3.111-3.111,8.202-3.111,11.313,0L56.352,42.25
				c3.111,3.111,7.717,8.609,10.235,12.217l3.704,5.308c2.518,3.608,6.42,9.81,9.531,12.921l42.451,42.452"/>
			<path fill="none" stroke="#263238" stroke-width="2" stroke-linecap="round" stroke-linejoin="round" stroke-miterlimit="10" d="
				M115.148,122.273L72.695,79.822c-8.341-8.341-5.092-4.068-12.921-9.531l-5.308-3.704c-3.608-2.518-9.106-7.124-12.218-10.235
				l-4.306-4.306"/>
			<path fill="none" stroke="#263238" stroke-width="2" stroke-linecap="round" stroke-linejoin="round" stroke-miterlimit="10" d="
				M121.537,115.884l1.349-1.348c0.778-0.778,2.051-0.778,2.828,0l0.678,0.677c0.778,0.778,0.778,2.051,0,2.829l-8.35,8.35
				c-0.778,0.778-2.05,0.778-2.828,0l-0.678-0.678c-0.778-0.778-0.778-2.051,0-2.829l4.002-4.001"/>
		</g>
		
			<line fill="none" stroke="#263238" stroke-width="2" stroke-linecap="round" stroke-linejoin="round" stroke-miterlimit="10" x1="89.955" y1="96.134" x2="96.205" y2="89.884"/>
	</g>
</g>
</svg>
