<?xml version="1.0" encoding="utf-8"?>
<!-- Generator: Adobe Illustrator 16.0.0, SVG Export Plug-In . SVG Version: 6.00 Build 0)  -->
<!DOCTYPE svg PUBLIC "-//W3C//DTD SVG 1.1//EN" "http://www.w3.org/Graphics/SVG/1.1/DTD/svg11.dtd">
<svg version="1.1" id="Layer_1" xmlns="http://www.w3.org/2000/svg" xmlns:xlink="http://www.w3.org/1999/xlink" x="0px" y="0px"
	 width="128px" height="128px" viewBox="0 0 128 128" enable-background="new 0 0 128 128" xml:space="preserve">
<g>
	<g>
		<path fill="#BF360C" d="M37.816,38.09l-11.432,4.188c-0.057,0.021-0.114,0.03-0.172,0.03c-0.131,0-0.258-0.051-0.354-0.146
			l-3.17-3.169c-6.049,9.208-9.25,19.902-9.25,30.978c0,31.154,25.346,56.5,56.5,56.5s56.5-25.346,56.5-56.5s-25.346-56.5-56.5-56.5
			c-11.045,0-21.715,3.185-30.905,9.203l3.157,3.157c0.138,0.138,0.184,0.343,0.116,0.525l-4.183,11.421"/>
		<path fill="#EEEEEE" d="M69.939,114.46c24.532,0,44.49-19.958,44.49-44.49s-19.958-44.491-44.49-44.491
			c-9.98,0-19.398,3.219-27.238,9.309c-1.788,1.39-7.857,7.843-7.918,7.908c-6.097,7.833-9.335,17.276-9.335,27.274
			C25.448,94.502,45.406,114.46,69.939,114.46z"/>
		<path fill="#BF360C" d="M69.939,102.479c17.926,0,32.509-14.583,32.509-32.509S87.865,37.46,69.939,37.46
			c-6.668,0-13.293,2.314-20.253,7.076c-1.267,0.866-5.03,5-5.068,5.041c-4.629,5.73-7.188,12.98-7.188,20.393
			C37.43,87.896,52.014,102.479,69.939,102.479z"/>
		<path fill="#EEEEEE" d="M69.939,90.479c11.309,0,20.51-9.2,20.51-20.51s-9.201-20.511-20.51-20.511
			c-3.882,0-7.711,1.199-11.706,3.666c-1.515,0.935-5.066,5.04-5.103,5.082c-2.41,3.426-3.701,7.507-3.701,11.763
			C49.43,81.279,58.631,90.479,69.939,90.479z"/>
		<path fill="#BF360C" d="M69.939,78.396c4.646,0,8.427-3.78,8.427-8.427c0-4.647-3.78-8.428-8.427-8.428
			c-1.081,0-2.091,0.266-2.936,0.524c-3.883,1.192-4.867,4.658-4.908,4.805c-0.393,1.021-0.584,2.047-0.584,3.099
			C61.512,74.616,65.293,78.396,69.939,78.396z"/>
		<polygon fill="#388E3C" points="30.07,30.748 12.369,13.046 1.968,16.855 22.959,37.847 26.341,41.229 36.742,37.419 		"/>
		<polygon fill="#4CAF50" points="37.89,22.942 16.886,1.938 13.076,12.339 30.778,30.041 37.449,36.712 41.259,26.312 		"/>
	</g>
	<g>
		<path fill="none" stroke="#263238" stroke-width="2" stroke-linecap="round" stroke-linejoin="round" stroke-miterlimit="10" d="
			M22.606,38.199c-6.104,9.078-9.667,20.008-9.667,31.771c0,31.479,25.52,57,57,57c31.479,0,57-25.521,57-57
			c0-31.48-25.521-57-57-57c-11.729,0-22.631,3.542-31.693,9.616"/>
		<path fill="none" stroke="#263238" stroke-width="2" stroke-linecap="round" stroke-linejoin="round" stroke-miterlimit="10" d="
			M34.419,42.353c-5.936,7.623-9.471,17.207-9.471,27.617c0,24.848,20.144,44.99,44.991,44.99s44.99-20.143,44.99-44.99
			s-20.143-44.991-44.99-44.991c-10.377,0-19.934,3.513-27.545,9.414"/>
		<path fill="none" stroke="#263238" stroke-width="2" stroke-linecap="round" stroke-linejoin="round" stroke-miterlimit="10" d="
			M44.248,49.241C39.67,54.907,36.93,62.118,36.93,69.97c0,18.23,14.778,33.009,33.01,33.009c18.23,0,33.009-14.778,33.009-33.009
			c0-18.231-14.778-33.01-33.009-33.01c-7.763,0-14.899,2.679-20.535,7.163"/>
		<path fill="none" stroke="#263238" stroke-width="2" stroke-linecap="round" stroke-linejoin="round" stroke-miterlimit="10" d="
			M52.753,57.88c-2.409,3.419-3.823,7.589-3.823,12.09c0,11.603,9.406,21.01,21.01,21.01s21.01-9.407,21.01-21.01
			c0-11.604-9.406-21.011-21.01-21.011c-4.448,0-8.573,1.383-11.969,3.74"/>
		<path fill="none" stroke="#263238" stroke-width="2" stroke-linecap="round" stroke-linejoin="round" stroke-miterlimit="10" d="
			M61.613,66.741c-0.389,1.001-0.602,2.09-0.602,3.229c0,4.93,3.996,8.927,8.928,8.927c4.93,0,8.927-3.997,8.927-8.927
			c0-4.931-3.997-8.928-8.927-8.928c-1.084,0-2.122,0.193-3.083,0.547"/>
		<g>
			
				<line fill="none" stroke="#263238" stroke-width="2" stroke-linecap="round" stroke-linejoin="round" stroke-miterlimit="10" x1="70" y1="69.97" x2="37.649" y2="37.619"/>
			
				<polygon fill="none" stroke="#263238" stroke-width="2" stroke-linecap="round" stroke-linejoin="round" stroke-miterlimit="10" points="
				1.061,16.655 12.497,12.467 37.649,37.619 26.213,41.808 			"/>
			
				<polygon fill="none" stroke="#263238" stroke-width="2" stroke-linecap="round" stroke-linejoin="round" stroke-miterlimit="10" points="
				16.686,1.03 12.497,12.467 37.649,37.619 41.838,26.184 			"/>
		</g>
	</g>
</g>
</svg>
