<?xml version="1.0" encoding="utf-8"?>
<!-- Generator: Adobe Illustrator 16.0.0, SVG Export Plug-In . SVG Version: 6.00 Build 0)  -->
<!DOCTYPE svg PUBLIC "-//W3C//DTD SVG 1.1//EN" "http://www.w3.org/Graphics/SVG/1.1/DTD/svg11.dtd">
<svg version="1.1" id="Layer_1" xmlns="http://www.w3.org/2000/svg" xmlns:xlink="http://www.w3.org/1999/xlink" x="0px" y="0px"
	 width="64px" height="64px" viewBox="0 0 64 64" enable-background="new 0 0 64 64" xml:space="preserve">
<g>
	
		<circle fill="none" stroke="#646464" stroke-width="2" stroke-linecap="round" stroke-linejoin="round" stroke-miterlimit="10" cx="31.991" cy="31.985" r="29.035"/>
	<path fill="none" stroke="#646464" stroke-width="2" stroke-linecap="round" stroke-linejoin="round" stroke-miterlimit="10" d="
		M51.398,16.244c3.489,4.297,5.58,9.775,5.58,15.741c0,13.801-11.188,24.989-24.988,24.989S7.002,45.786,7.002,31.985
		c0-13.8,11.188-24.988,24.988-24.988c6.045,0,11.589,2.146,15.91,5.719"/>
	
		<line fill="none" stroke="#646464" stroke-width="2" stroke-linecap="round" stroke-linejoin="round" stroke-miterlimit="10" x1="1" y1="32" x2="63" y2="32"/>
	
		<line fill="none" stroke="#646464" stroke-width="2" stroke-linecap="round" stroke-linejoin="round" stroke-miterlimit="10" x1="32" y1="63" x2="32" y2="1"/>
	<path fill="none" stroke="#646464" stroke-width="2" stroke-linecap="round" stroke-linejoin="round" stroke-miterlimit="10" d="
		M42.966,25.016c1.333,2.096,2.081,4.594,2.021,7.264c-0.161,7.178-6.112,12.865-13.29,12.703s-12.865-6.111-12.703-13.29
		c0.162-7.178,6.111-12.865,13.289-12.703c2.551,0.058,4.912,0.845,6.891,2.159"/>
</g>
</svg>
