<?xml version="1.0" encoding="utf-8"?>
<!-- Generator: Adobe Illustrator 16.0.0, SVG Export Plug-In . SVG Version: 6.00 Build 0)  -->
<!DOCTYPE svg PUBLIC "-//W3C//DTD SVG 1.1//EN" "http://www.w3.org/Graphics/SVG/1.1/DTD/svg11.dtd">
<svg version="1.1" id="Layer_1" xmlns="http://www.w3.org/2000/svg" xmlns:xlink="http://www.w3.org/1999/xlink" x="0px" y="0px"
	 width="64px" height="64px" viewBox="0 0 64 64" enable-background="new 0 0 64 64" xml:space="preserve">
<g>
	
		<path fill="none" stroke="#646464" stroke-width="1.998" stroke-linecap="round" stroke-linejoin="round" stroke-miterlimit="10" d="
		M56.205,46.671c2.611,2.612,2.591,6.867-0.048,9.505c-2.637,2.637-6.893,2.658-9.504,0.048"/>
	
		<path fill="none" stroke="#646464" stroke-width="1.998" stroke-linecap="round" stroke-linejoin="round" stroke-miterlimit="10" d="
		M46.31,47.34l-2.83,2.831c-0.792,0.791-0.799,2.08-0.015,2.863l3.026,3.026"/>
	
		<path fill="none" stroke="#646464" stroke-width="1.998" stroke-linecap="round" stroke-linejoin="round" stroke-miterlimit="10" d="
		M56.042,46.509l-3.025-3.026c-0.783-0.784-2.072-0.776-2.863,0.015l-0.378,0.377"/>
	
		<line fill="none" stroke="#646464" stroke-width="1.998" stroke-linecap="round" stroke-linejoin="round" stroke-miterlimit="10" x1="56.157" y1="56.176" x2="62.982" y2="63"/>
	
		<line fill="none" stroke="#646464" stroke-width="1.998" stroke-linecap="round" stroke-linejoin="round" stroke-miterlimit="10" x1="43.386" y1="50.077" x2="26.062" y2="26.079"/>
	
		<line fill="none" stroke="#646464" stroke-width="1.998" stroke-linecap="round" stroke-linejoin="round" stroke-miterlimit="10" x1="50.093" y1="43.403" x2="26.077" y2="26.062"/>
	
		<line fill="none" stroke="#646464" stroke-width="1.998" stroke-linecap="round" stroke-linejoin="round" stroke-miterlimit="10" x1="26.062" y1="26.079" x2="15.586" y2="15.604"/>
	
		<polyline fill="none" stroke="#646464" stroke-width="2" stroke-linecap="round" stroke-linejoin="round" stroke-miterlimit="10" points="
		13,13 7.536,13 1.018,19.705 25.865,25.799 	"/>
	
		<polyline fill="none" stroke="#646464" stroke-width="2" stroke-linecap="round" stroke-linejoin="round" stroke-miterlimit="10" points="
		13,13 13,7.519 19.713,1 25.804,25.855 	"/>
</g>
</svg>
