<?xml version="1.0" encoding="utf-8"?>
<!-- Generator: Adobe Illustrator 16.0.0, SVG Export Plug-In . SVG Version: 6.00 Build 0)  -->
<!DOCTYPE svg PUBLIC "-//W3C//DTD SVG 1.1//EN" "http://www.w3.org/Graphics/SVG/1.1/DTD/svg11.dtd">
<svg version="1.1" id="Layer_1" xmlns="http://www.w3.org/2000/svg" xmlns:xlink="http://www.w3.org/1999/xlink" x="0px" y="0px"
	 width="64px" height="64px" viewBox="0 0 64 64" enable-background="new 0 0 64 64" xml:space="preserve">
<g>
	<path fill="none" stroke="#646464" stroke-width="2" stroke-linecap="round" stroke-linejoin="round" stroke-miterlimit="10" d="
		M45,62.015C45,62.559,44.559,63,44.016,63H19.984C19.441,63,19,62.559,19,62.015v-1.029C19,60.441,19.441,60,19.984,60h24.031
		C44.559,60,45,60.441,45,60.985V62.015z"/>
	<path fill="none" stroke="#646464" stroke-width="2" stroke-linecap="round" stroke-linejoin="round" stroke-miterlimit="10" d="
		M21,60v-4.074C21,53.219,23.215,51,25.923,51h8.613h3.542C40.785,51,43,53.219,43,55.926V60"/>
	
		<line fill="none" stroke="#646464" stroke-width="2" stroke-linecap="round" stroke-linejoin="round" stroke-miterlimit="10" x1="36.4" y1="25.629" x2="37.542" y2="51.003"/>
	
		<polyline fill="none" stroke="#646464" stroke-width="2" stroke-linecap="round" stroke-linejoin="round" stroke-miterlimit="10" points="
		27.652,24.987 27.984,16 36.053,16 36.384,24.979 	"/>
	
		<line fill="none" stroke="#646464" stroke-width="2" stroke-linecap="round" stroke-linejoin="round" stroke-miterlimit="10" x1="26.271" y1="51.003" x2="27.664" y2="25.629"/>
	<path fill="none" stroke="#646464" stroke-width="2" stroke-linecap="round" stroke-linejoin="round" stroke-miterlimit="10" d="
		M37.468,15.049C37.35,15.58,36.731,16,36.093,16h-8.15c-0.638,0-1.256-0.42-1.375-0.951l-1.485-9.097C24.965,5.42,25.39,5,26.027,5
		H38.14c0.638,0,1.062,0.42,0.944,0.952L37.468,15.049z"/>
	<path fill="none" stroke="#646464" stroke-width="2" stroke-linecap="round" stroke-linejoin="round" stroke-miterlimit="10" d="
		M30,5V2.992C30,1.909,30.945,1,32.028,1h0.015C33.126,1,34,1.909,34,2.992V5"/>
	
		<line fill="none" stroke="#646464" stroke-width="2" stroke-linecap="round" stroke-linejoin="round" stroke-miterlimit="10" x1="26" y1="25" x2="38" y2="25"/>
</g>
</svg>
