<?xml version="1.0" encoding="utf-8"?>
<!-- Generator: Adobe Illustrator 16.0.0, SVG Export Plug-In . SVG Version: 6.00 Build 0)  -->
<!DOCTYPE svg PUBLIC "-//W3C//DTD SVG 1.1//EN" "http://www.w3.org/Graphics/SVG/1.1/DTD/svg11.dtd">
<svg version="1.1" id="Layer_1" xmlns="http://www.w3.org/2000/svg" xmlns:xlink="http://www.w3.org/1999/xlink" x="0px" y="0px"
	 width="64px" height="64px" viewBox="0 0 64 64" enable-background="new 0 0 64 64" xml:space="preserve">
<g>
	<path fill="none" stroke="#646464" stroke-width="2" stroke-linecap="round" stroke-linejoin="round" stroke-miterlimit="10" d="
		M52.889,30H11.086c-3.494,0-6.824-0.091-9.377-1.819c-0.674-0.457-0.85-1.443-0.395-2.117c0.457-0.674,1.373-0.771,2.047-0.316
		C5.432,27.15,8.174,27,11.086,27h41.803c2.922,0,5.674,0.109,7.746-1.303c0.674-0.459,1.59-0.341,2.048,0.331
		c0.458,0.674,0.284,1.703-0.389,2.16C59.736,29.929,56.396,30,52.889,30z"/>
	
		<circle fill="none" stroke="#646464" stroke-width="2" stroke-linecap="round" stroke-linejoin="round" stroke-miterlimit="10" cx="12.033" cy="35.683" r="2.948"/>
	
		<circle fill="none" stroke="#646464" stroke-width="2" stroke-linecap="round" stroke-linejoin="round" stroke-miterlimit="10" cx="52.016" cy="35.748" r="2.947"/>
</g>
</svg>
