<?xml version="1.0" encoding="utf-8"?>
<!-- Generator: Adobe Illustrator 16.0.0, SVG Export Plug-In . SVG Version: 6.00 Build 0)  -->
<!DOCTYPE svg PUBLIC "-//W3C//DTD SVG 1.1//EN" "http://www.w3.org/Graphics/SVG/1.1/DTD/svg11.dtd">
<svg version="1.1" id="Layer_1" xmlns="http://www.w3.org/2000/svg" xmlns:xlink="http://www.w3.org/1999/xlink" x="0px" y="0px"
	 width="64px" height="64px" viewBox="0 0 64 64" enable-background="new 0 0 64 64" xml:space="preserve">
<g>
	<path fill="none" stroke="#646464" stroke-width="2" stroke-linecap="round" stroke-linejoin="round" stroke-miterlimit="10" d="
		M52.093,21.087C52.093,32.183,32,63.007,32,63.007s-20.093-30.824-20.093-41.92C11.907,9.99,20.903,0.993,32,0.993
		C43.096,0.993,52.093,9.99,52.093,21.087z"/>
	
		<line fill="none" stroke="#646464" stroke-width="2" stroke-linecap="round" stroke-linejoin="round" stroke-miterlimit="10" x1="32" y1="25" x2="32" y2="63"/>
	
		<line fill="none" stroke="#646464" stroke-width="2" stroke-linecap="round" stroke-linejoin="round" stroke-miterlimit="10" x1="22.32" y1="25.517" x2="32" y2="63.007"/>
	
		<line fill="none" stroke="#646464" stroke-width="2" stroke-linecap="round" stroke-linejoin="round" stroke-miterlimit="10" x1="41.661" y1="25.517" x2="32" y2="63.007"/>
	<g>
		<path fill="none" stroke="#646464" stroke-width="2" stroke-linecap="round" stroke-linejoin="round" stroke-miterlimit="10" d="
			M22.32,25.517c0-2.671,2.164-4.836,4.835-4.836c2.669,0,4.835,2.165,4.835,4.836"/>
		<path fill="none" stroke="#646464" stroke-width="2" stroke-linecap="round" stroke-linejoin="round" stroke-miterlimit="10" d="
			M31.99,25.517c0-2.671,2.165-4.836,4.834-4.836c2.67,0,4.837,2.165,4.837,4.836"/>
		<path fill="none" stroke="#646464" stroke-width="2" stroke-linecap="round" stroke-linejoin="round" stroke-miterlimit="10" d="
			M41.661,25.517c0-2.671,2.163-4.836,4.833-4.836c2.671,0,4.835,2.165,4.835,4.836"/>
		<path fill="none" stroke="#646464" stroke-width="2" stroke-linecap="round" stroke-linejoin="round" stroke-miterlimit="10" d="
			M12.65,25.517c0-2.671,2.164-4.836,4.834-4.836c2.672,0,4.836,2.165,4.836,4.836"/>
	</g>
</g>
</svg>
