<?xml version="1.0" encoding="utf-8"?>
<!-- Generator: Adobe Illustrator 16.0.0, SVG Export Plug-In . SVG Version: 6.00 Build 0)  -->
<!DOCTYPE svg PUBLIC "-//W3C//DTD SVG 1.1//EN" "http://www.w3.org/Graphics/SVG/1.1/DTD/svg11.dtd">
<svg version="1.1" id="Layer_1" xmlns="http://www.w3.org/2000/svg" xmlns:xlink="http://www.w3.org/1999/xlink" x="0px" y="0px"
	 width="64px" height="64px" viewBox="0 0 64 64" enable-background="new 0 0 64 64" xml:space="preserve">
<g>
	
		<path fill="none" stroke="#646464" stroke-width="1.9996" stroke-linecap="round" stroke-linejoin="round" stroke-miterlimit="10" d="
		M13.134,21.688c-2.616,4.17-4.123,9.104-4.11,14.39C9.061,50.982,21.172,63.036,36.078,63C50.982,62.964,63.036,50.852,63,35.945
		C62.963,21.041,50.851,8.988,35.945,9.023c-5.312,0.014-10.262,1.561-14.432,4.221"/>
	
		<path fill="none" stroke="#646464" stroke-width="1.9996" stroke-linecap="round" stroke-linejoin="round" stroke-miterlimit="10" d="
		M17.9,23.502c-2.469,3.566-3.91,7.897-3.898,12.563c0.029,12.156,9.908,21.986,22.063,21.957
		c12.156-0.03,21.986-9.908,21.956-22.063c-0.029-12.156-9.908-21.986-22.063-21.957c-4.624,0.012-8.91,1.447-12.446,3.892"/>
	
		<path fill="none" stroke="#646464" stroke-width="1.9996" stroke-linecap="round" stroke-linejoin="round" stroke-miterlimit="10" d="
		M21.941,26.543c-1.83,2.715-2.896,5.989-2.887,9.511c0.022,9.366,7.633,16.938,16.998,16.916
		c9.365-0.023,16.939-7.634,16.916-16.999c-0.022-9.366-7.633-16.939-16.998-16.916c-3.479,0.008-6.709,1.062-9.396,2.865"/>
	
		<path fill="none" stroke="#646464" stroke-width="1.9996" stroke-linecap="round" stroke-linejoin="round" stroke-miterlimit="10" d="
		M25.625,30.117c-0.994,1.747-1.561,3.77-1.555,5.924c0.016,6.596,5.375,11.929,11.971,11.912
		c6.595-0.016,11.928-5.375,11.912-11.971c-0.017-6.594-5.376-11.928-11.971-11.912c-2.096,0.006-4.062,0.551-5.772,1.502"/>
	
		<path fill="none" stroke="#646464" stroke-width="1.9996" stroke-linecap="round" stroke-linejoin="round" stroke-miterlimit="10" d="
		M29.393,34.129c-0.188,0.633-0.287,1.301-0.285,1.993c0.01,3.831,3.121,6.928,6.951,6.918c3.83-0.009,6.928-3.122,6.918-6.951
		c-0.01-3.83-3.121-6.927-6.952-6.917c-0.725,0-1.424,0.113-2.081,0.322"/>
	<g>
		
			<line fill="none" stroke="#646464" stroke-width="1.9996" stroke-linecap="round" stroke-linejoin="round" stroke-miterlimit="10" x1="36.012" y1="36.012" x2="19.618" y2="19.619"/>
		
			<polygon fill="none" stroke="#646464" stroke-width="1.9996" stroke-linecap="round" stroke-linejoin="round" stroke-miterlimit="10" points="
			1,9.072 6.873,6.873 19.618,19.619 13.746,21.818 		"/>
		
			<polygon fill="none" stroke="#646464" stroke-width="1.9996" stroke-linecap="round" stroke-linejoin="round" stroke-miterlimit="10" points="
			9.072,1 6.873,6.873 19.618,19.619 21.818,13.746 		"/>
	</g>
</g>
</svg>
