<?xml version="1.0" encoding="utf-8"?>
<!-- Generator: Adobe Illustrator 16.0.0, SVG Export Plug-In . SVG Version: 6.00 Build 0)  -->
<!DOCTYPE svg PUBLIC "-//W3C//DTD SVG 1.1//EN" "http://www.w3.org/Graphics/SVG/1.1/DTD/svg11.dtd">
<svg version="1.1" id="Layer_1" xmlns="http://www.w3.org/2000/svg" xmlns:xlink="http://www.w3.org/1999/xlink" x="0px" y="0px"
	 width="64px" height="64px" viewBox="0 0 64 64" enable-background="new 0 0 64 64" xml:space="preserve">
<g>
	<path fill="none" stroke="#646464" stroke-width="2" stroke-linecap="round" stroke-linejoin="round" stroke-miterlimit="10" d="
		M37,52H21.013c0,6,4.92,10.987,10.987,10.987C38.068,62.987,42.987,58,42.987,52H42"/>
	
		<line fill="none" stroke="#646464" stroke-width="2" stroke-linecap="round" stroke-linejoin="round" stroke-miterlimit="10" x1="21" y1="52" x2="21" y2="50"/>
	
		<line fill="none" stroke="#646464" stroke-width="2" stroke-linecap="round" stroke-linejoin="round" stroke-miterlimit="10" x1="43" y1="52" x2="43" y2="50"/>
	<path fill="none" stroke="#646464" stroke-width="2" stroke-linecap="round" stroke-linejoin="round" stroke-miterlimit="10" d="
		M57.851,1.447C57.665,1.205,57.376,1,57.067,1H44.976H19.024H6.933C6.624,1,6.335,1.205,6.149,1.447
		C5.964,1.688,5.903,2.034,5.987,2.325l13.749,45.958C19.856,48.701,20.242,49,20.682,49h5.46h11.717h5.46
		c0.439,0,0.825-0.284,0.945-0.702L58.013,2.323C58.097,2.032,58.036,1.688,57.851,1.447z"/>
	
		<line fill="none" stroke="#646464" stroke-width="2" stroke-linecap="round" stroke-linejoin="round" stroke-miterlimit="10" x1="32" y1="49" x2="32" y2="2"/>
	<path fill="none" stroke="#646464" stroke-width="2" stroke-linecap="round" stroke-linejoin="round" stroke-miterlimit="10" d="
		M45.942,1.447C45.843,1.205,45.687,1,45.521,1h-6.521H25.001h-6.521c-0.166,0-0.322,0.205-0.422,0.447
		c-0.101,0.241-0.133,0.587-0.088,0.878l7.416,45.958C25.45,48.701,25.658,49,25.896,49h2.945h6.319h2.944
		c0.237,0,0.445-0.284,0.51-0.702L46.03,2.323C46.075,2.032,46.043,1.688,45.942,1.447z"/>
</g>
</svg>
