<?xml version="1.0" encoding="utf-8"?>
<!-- Generator: Adobe Illustrator 16.0.0, SVG Export Plug-In . SVG Version: 6.00 Build 0)  -->
<!DOCTYPE svg PUBLIC "-//W3C//DTD SVG 1.1//EN" "http://www.w3.org/Graphics/SVG/1.1/DTD/svg11.dtd">
<svg version="1.1" id="Layer_1" xmlns="http://www.w3.org/2000/svg" xmlns:xlink="http://www.w3.org/1999/xlink" x="0px" y="0px"
	 width="64px" height="64px" viewBox="0 0 64 64" enable-background="new 0 0 64 64" xml:space="preserve">
<g>
	<path fill="none" stroke="#646464" stroke-width="2" stroke-linecap="round" stroke-linejoin="round" stroke-miterlimit="10" d="
		M22.157,27.299c3.093-0.483,6.401-0.745,9.843-0.745c17.114,0,30.988,6.481,30.988,14.477S49.114,55.507,32,55.507
		S1.012,49.025,1.012,41.03c0-6.042,7.922-11.219,19.178-13.388"/>
	<path fill="none" stroke="#646464" stroke-width="2" stroke-linecap="round" stroke-linejoin="round" stroke-miterlimit="10" d="
		M37.021,40.971c0,1.392-2.248,2.521-5.021,2.521s-5.021-1.129-5.021-2.521c0-1.393,2.248-2.521,5.021-2.521
		c0.733,0,1.43,0.079,2.059,0.221"/>
	
		<polygon fill="none" stroke="#646464" stroke-width="2" stroke-linecap="round" stroke-linejoin="round" stroke-miterlimit="10" points="
		35.969,14.174 21,20.846 21,7.503 	"/>
	<path fill="none" stroke="#646464" stroke-width="2" stroke-linecap="round" stroke-linejoin="round" stroke-miterlimit="10" d="
		M63,41v2.5c0,8.289-13.886,15.009-31,15.009S1,51.789,1,43.5V41"/>
	
		<line fill="none" stroke="#646464" stroke-width="2" stroke-linecap="round" stroke-linejoin="round" stroke-miterlimit="10" x1="21" y1="6" x2="21" y2="39"/>
</g>
</svg>
