<?xml version="1.0" encoding="utf-8"?>
<!-- Generator: Adobe Illustrator 16.0.0, SVG Export Plug-In . SVG Version: 6.00 Build 0)  -->
<!DOCTYPE svg PUBLIC "-//W3C//DTD SVG 1.1//EN" "http://www.w3.org/Graphics/SVG/1.1/DTD/svg11.dtd">
<svg version="1.1" id="Layer_1" xmlns="http://www.w3.org/2000/svg" xmlns:xlink="http://www.w3.org/1999/xlink" x="0px" y="0px"
	 width="64px" height="64px" viewBox="0 0 64 64" enable-background="new 0 0 64 64" xml:space="preserve">
<g>
	<path fill="none" stroke="#646464" stroke-width="2" stroke-linecap="round" stroke-linejoin="round" stroke-miterlimit="10" d="
		M19.203,26.116c0,2.977-2.414,5.39-5.39,5.39c-2.977,0-5.391-2.413-5.391-5.39c0-0.339,0.032-0.671,0.091-0.994
		c0.466-2.502,2.662-4.396,5.299-4.396C16.789,20.726,19.203,23.139,19.203,26.116z"/>
	<path fill="none" stroke="#646464" stroke-width="2" stroke-linecap="round" stroke-linejoin="round" stroke-miterlimit="10" d="
		M18.914,27.859c-0.555,0.193-1.15,0.297-1.771,0.297c-2.977,0-5.391-2.413-5.391-5.39c0-0.339,0.032-0.671,0.092-0.994
		c0.047-0.256,0.113-0.506,0.196-0.749"/>
	<g>
		<path fill="none" stroke="#646464" stroke-width="2" stroke-linecap="round" stroke-linejoin="round" stroke-miterlimit="10" d="
			M13.804,20.733L2.2,9.13c-1.529-1.529-1.529-4.031,0-5.56L3.57,2.2c1.529-1.529,4.031-1.529,5.56,0l19.111,19.111
			c1.529,1.529,3.792,4.231,5.03,6.004l1.82,2.608c1.237,1.773,3.155,4.82,4.684,6.35L60.28,56.778"/>
		<path fill="none" stroke="#646464" stroke-width="2" stroke-linecap="round" stroke-linejoin="round" stroke-miterlimit="10" d="
			M56.778,60.28L36.273,39.775c-1.529-1.529-4.576-3.446-6.349-4.684l-2.608-1.82c-1.773-1.237-4.475-3.501-6.004-5.03l-2.116-2.116
			"/>
		<path fill="none" stroke="#646464" stroke-width="2" stroke-linecap="round" stroke-linejoin="round" stroke-miterlimit="10" d="
			M59.918,57.141l0.662-0.663c0.382-0.382,1.008-0.382,1.39,0l0.689,0.689c0.382,0.382,0.382,1.008,0,1.39l-4.103,4.103
			c-0.382,0.382-1.008,0.382-1.39,0l-0.688-0.689c-0.382-0.382-0.382-1.007,0-1.39L59.918,57.141"/>
	</g>
	
		<line fill="none" stroke="#646464" stroke-width="2" stroke-linecap="round" stroke-linejoin="round" stroke-miterlimit="10" x1="44.754" y1="47.791" x2="47.825" y2="44.72"/>
</g>
</svg>
