<?xml version="1.0" encoding="utf-8"?>
<!-- Generator: Adobe Illustrator 16.0.0, SVG Export Plug-In . SVG Version: 6.00 Build 0)  -->
<!DOCTYPE svg PUBLIC "-//W3C//DTD SVG 1.1//EN" "http://www.w3.org/Graphics/SVG/1.1/DTD/svg11.dtd">
<svg version="1.1" id="Layer_1" xmlns="http://www.w3.org/2000/svg" xmlns:xlink="http://www.w3.org/1999/xlink" x="0px" y="0px"
	 width="64px" height="64px" viewBox="0 0 64 64" enable-background="new 0 0 64 64" xml:space="preserve">
<g>
	<path fill="none" stroke="#646464" stroke-width="2" stroke-linecap="round" stroke-linejoin="round" stroke-miterlimit="10" d="
		M28.032,41.834c0,4.61-3.737,8.347-8.348,8.347s-8.348-3.737-8.348-8.347c0-0.525,0.049-1.04,0.142-1.539
		c0.723-3.875,4.121-6.809,8.206-6.809C24.295,33.487,28.032,37.224,28.032,41.834z"/>
	<path fill="none" stroke="#646464" stroke-width="2" stroke-linecap="round" stroke-linejoin="round" stroke-miterlimit="10" d="
		M27.1,45.737c-1.183,0.643-2.538,1.008-3.979,1.008c-4.61,0-8.348-3.737-8.348-8.348c0-0.525,0.049-1.04,0.142-1.539
		c0.158-0.849,0.445-1.652,0.839-2.39"/>
	<path fill="none" stroke="#646464" stroke-width="2" stroke-linecap="round" stroke-linejoin="round" stroke-miterlimit="10" d="
		M11.142,42.225c-0.536-0.466-1.061-0.955-1.571-1.466C-0.57,30.618-1.817,15.423,6.786,6.82c8.604-8.604,23.799-7.357,33.939,2.783
		c10.141,10.141,11.387,25.335,2.783,33.939c-4.914,4.914-11.979,6.615-19.024,5.28"/>
	<path fill="none" stroke="#646464" stroke-width="2" stroke-linecap="round" stroke-linejoin="round" stroke-miterlimit="10" d="
		M62.238,57.992c0.925,0.925,0.925,2.438,0,3.363l-0.85,0.85c-0.925,0.925-2.438,0.925-3.363,0l-7.154-7.154
		c-0.925-0.925-0.925-2.438,0-3.364l0.85-0.85c0.925-0.925,2.438-0.925,3.364,0L62.238,57.992z"/>
	
		<line fill="none" stroke="#646464" stroke-width="2" stroke-linecap="round" stroke-linejoin="round" stroke-miterlimit="10" x1="50.264" y1="52.74" x2="42.287" y2="44.764"/>
	
		<line fill="none" stroke="#646464" stroke-width="2" stroke-linecap="round" stroke-linejoin="round" stroke-miterlimit="10" x1="52.793" y1="50.211" x2="44.816" y2="42.234"/>
	
		<line fill="none" stroke="#646464" stroke-width="2" stroke-linecap="round" stroke-linejoin="round" stroke-miterlimit="10" x1="13.622" y1="36.179" x2="40.092" y2="9.709"/>
	
		<line fill="none" stroke="#646464" stroke-width="2" stroke-linecap="round" stroke-linejoin="round" stroke-miterlimit="10" x1="9.876" y1="39.926" x2="13.622" y2="36.179"/>
	
		<line fill="none" stroke="#646464" stroke-width="2" stroke-linecap="round" stroke-linejoin="round" stroke-miterlimit="10" x1="26.702" y1="48.795" x2="48.743" y2="26.754"/>
	
		<line fill="none" stroke="#646464" stroke-width="2" stroke-linecap="round" stroke-linejoin="round" stroke-miterlimit="10" x1="26.125" y1="36.524" x2="45.62" y2="17.03"/>
	
		<line fill="none" stroke="#646464" stroke-width="2" stroke-linecap="round" stroke-linejoin="round" stroke-miterlimit="10" x1="4.279" y1="32.53" x2="32.479" y2="4.332"/>
	
		<line fill="none" stroke="#646464" stroke-width="2" stroke-linecap="round" stroke-linejoin="round" stroke-miterlimit="10" x1="1.512" y1="22.421" x2="22.369" y2="1.564"/>
	
		<line fill="none" stroke="#646464" stroke-width="2" stroke-linecap="round" stroke-linejoin="round" stroke-miterlimit="10" x1="6.923" y1="6.975" x2="43.354" y2="43.406"/>
	
		<line fill="none" stroke="#646464" stroke-width="2" stroke-linecap="round" stroke-linejoin="round" stroke-miterlimit="10" x1="2.411" y1="14.415" x2="21.483" y2="33.487"/>
	
		<line fill="none" stroke="#646464" stroke-width="2" stroke-linecap="round" stroke-linejoin="round" stroke-miterlimit="10" x1="27.821" y1="39.825" x2="35.927" y2="47.93"/>
	
		<line fill="none" stroke="#646464" stroke-width="2" stroke-linecap="round" stroke-linejoin="round" stroke-miterlimit="10" x1="1.937" y1="24.938" x2="13.261" y2="36.263"/>
	
		<line fill="none" stroke="#646464" stroke-width="2" stroke-linecap="round" stroke-linejoin="round" stroke-miterlimit="10" x1="14.43" y1="2.442" x2="47.887" y2="35.899"/>
	
		<line fill="none" stroke="#646464" stroke-width="2" stroke-linecap="round" stroke-linejoin="round" stroke-miterlimit="10" x1="24.931" y1="1.944" x2="48.384" y2="25.398"/>
</g>
</svg>
