<?xml version="1.0" encoding="utf-8"?>
<!-- Generator: Adobe Illustrator 16.0.0, SVG Export Plug-In . SVG Version: 6.00 Build 0)  -->
<!DOCTYPE svg PUBLIC "-//W3C//DTD SVG 1.1//EN" "http://www.w3.org/Graphics/SVG/1.1/DTD/svg11.dtd">
<svg version="1.1" id="Layer_1" xmlns="http://www.w3.org/2000/svg" xmlns:xlink="http://www.w3.org/1999/xlink" x="0px" y="0px"
	 width="64px" height="64px" viewBox="0 0 64 64" enable-background="new 0 0 64 64" xml:space="preserve">
<g>
	
		<circle fill="none" stroke="#646464" stroke-width="2" stroke-linecap="round" stroke-linejoin="round" stroke-miterlimit="10" cx="31.974" cy="53.002" r="10.003"/>
	<path fill="none" stroke="#646464" stroke-width="2" stroke-linecap="round" stroke-linejoin="round" stroke-miterlimit="10" d="
		M38.069,49.564c0.573,1.016,0.901,2.188,0.901,3.438c0,3.863-3.133,6.996-6.996,6.996c-3.865,0-6.998-3.132-6.998-6.996
		s3.133-6.996,6.997-6.997c1.366,0,2.641,0.392,3.718,1.068"/>
	
		<circle fill="none" stroke="#646464" stroke-width="2" stroke-linecap="round" stroke-linejoin="round" stroke-miterlimit="10" cx="31.974" cy="52.889" r="3.747"/>
	<path fill="none" stroke="#646464" stroke-width="2" stroke-linecap="round" stroke-linejoin="round" stroke-miterlimit="10" d="
		M31.805,36.131c0.082-0.007,0.165-0.009,0.25-0.006c1.061,0.045,1.885,0.941,1.84,2.002c-0.044,1.062-0.939,1.886-2.002,1.842
		c-1.061-0.045-1.885-0.941-1.84-2.002c0.016-0.385,0.145-0.738,0.352-1.031"/>
	
		<line fill="none" stroke="#646464" stroke-width="2" stroke-linecap="round" stroke-linejoin="round" stroke-miterlimit="10" x1="32" y1="43" x2="32" y2="40"/>
	
		<line fill="none" stroke="#646464" stroke-width="2" stroke-linecap="round" stroke-linejoin="round" stroke-miterlimit="10" x1="10.043" y1="0.995" x2="32.026" y2="39.018"/>
	
		<line fill="none" stroke="#646464" stroke-width="2" stroke-linecap="round" stroke-linejoin="round" stroke-miterlimit="10" x1="53.957" y1="0.995" x2="31.974" y2="39.018"/>
</g>
</svg>
