<?xml version="1.0" encoding="utf-8"?>
<!-- Generator: Adobe Illustrator 16.0.0, SVG Export Plug-In . SVG Version: 6.00 Build 0)  -->
<!DOCTYPE svg PUBLIC "-//W3C//DTD SVG 1.1//EN" "http://www.w3.org/Graphics/SVG/1.1/DTD/svg11.dtd">
<svg version="1.1" id="Layer_1" xmlns="http://www.w3.org/2000/svg" xmlns:xlink="http://www.w3.org/1999/xlink" x="0px" y="0px"
	 width="64px" height="64px" viewBox="0 0 64 64" enable-background="new 0 0 64 64" xml:space="preserve">
<g>
	<path fill="none" stroke="#646464" stroke-width="2" stroke-linecap="round" stroke-linejoin="round" stroke-miterlimit="10" d="
		M52.319,34h-3.501c-7.421,0-21.64-15.356-21.64-15.356L24.186,3.815L7,7.419v17.762c-1,1.358-2,3.111-2,5.045V40.25
		C5,42.625,5.559,44,8.015,44h8.481H17.1h37.65c2.124,0,4.25-1.594,4.25-3.719v-1.055C59,36.729,56.577,34,52.319,34z"/>
	
		<line fill="none" stroke="#646464" stroke-width="2" stroke-linecap="round" stroke-linejoin="round" stroke-miterlimit="10" x1="56" y1="40" x2="58" y2="40"/>
	
		<line fill="none" stroke="#646464" stroke-width="2" stroke-linecap="round" stroke-linejoin="round" stroke-miterlimit="10" x1="5" y1="40" x2="51" y2="40"/>
	
		<line fill="none" stroke="#646464" stroke-width="2" stroke-linecap="round" stroke-linejoin="round" stroke-miterlimit="10" x1="22.745" y1="8.501" x2="24.984" y2="8.051"/>
	
		<line fill="none" stroke="#646464" stroke-width="2" stroke-linecap="round" stroke-linejoin="round" stroke-miterlimit="10" x1="7.006" y1="11.771" x2="18.178" y2="9.419"/>
	
		<circle fill="none" stroke="#646464" stroke-width="2" stroke-linecap="round" stroke-linejoin="round" stroke-miterlimit="10" cx="7.979" cy="53.195" r="6.94"/>
	
		<circle fill="none" stroke="#646464" stroke-width="2" stroke-linecap="round" stroke-linejoin="round" stroke-miterlimit="10" cx="24.006" cy="53.195" r="6.94"/>
	
		<circle fill="none" stroke="#646464" stroke-width="2" stroke-linecap="round" stroke-linejoin="round" stroke-miterlimit="10" cx="40.048" cy="53.195" r="6.939"/>
	
		<circle fill="none" stroke="#646464" stroke-width="2" stroke-linecap="round" stroke-linejoin="round" stroke-miterlimit="10" cx="56.021" cy="53.195" r="6.939"/>
	<path fill="none" stroke="#646464" stroke-width="2" stroke-linecap="round" stroke-linejoin="round" stroke-miterlimit="10" d="
		M10.918,53.195c0,1.623-1.316,2.939-2.939,2.939s-2.94-1.316-2.94-2.939c0-1.624,1.316-2.94,2.94-2.94"/>
	<path fill="none" stroke="#646464" stroke-width="2" stroke-linecap="round" stroke-linejoin="round" stroke-miterlimit="10" d="
		M26.945,53.195c0,1.623-1.316,2.939-2.939,2.939c-1.624,0-2.94-1.316-2.94-2.939c0-1.624,1.316-2.94,2.94-2.94"/>
	<path fill="none" stroke="#646464" stroke-width="2" stroke-linecap="round" stroke-linejoin="round" stroke-miterlimit="10" d="
		M42.988,53.195c0,1.623-1.316,2.939-2.939,2.939s-2.939-1.316-2.939-2.939c0-1.624,1.316-2.94,2.939-2.94"/>
	<path fill="none" stroke="#646464" stroke-width="2" stroke-linecap="round" stroke-linejoin="round" stroke-miterlimit="10" d="
		M58.961,53.195c0,1.623-1.316,2.939-2.939,2.939s-2.939-1.316-2.939-2.939c0-1.624,1.316-2.94,2.939-2.94"/>
</g>
</svg>
