<?xml version="1.0" encoding="utf-8"?>
<!-- Generator: Adobe Illustrator 16.0.0, SVG Export Plug-In . SVG Version: 6.00 Build 0)  -->
<!DOCTYPE svg PUBLIC "-//W3C//DTD SVG 1.1//EN" "http://www.w3.org/Graphics/SVG/1.1/DTD/svg11.dtd">
<svg version="1.1" id="Layer_1" xmlns="http://www.w3.org/2000/svg" xmlns:xlink="http://www.w3.org/1999/xlink" x="0px" y="0px"
	 width="64px" height="64px" viewBox="0 0 64 64" enable-background="new 0 0 64 64" xml:space="preserve">
<g>
	<path fill="none" stroke="#646464" stroke-width="2" stroke-linecap="round" stroke-linejoin="round" stroke-miterlimit="10" d="
		M17.03,49.911c8.646,4.754,18.653,4.223,26.442-1.83l12.796,14.266l0.033-0.033c1.171,1.171,3.466,0.775,5.126-0.886
		c1.66-1.66,2.057-3.955,0.886-5.126l0.033-0.033L48.08,43.473c7.712-9.924,6.46-23.446-3.263-33.17
		C34.261-0.254,17.234-2.579,7.327,7.327c-8.591,8.592-7.983,22.537-0.786,32.974"/>
	
		<line fill="none" stroke="#646464" stroke-width="2" stroke-linecap="round" stroke-linejoin="round" stroke-miterlimit="10" x1="26.476" y1="52.679" x2="52.626" y2="26.528"/>
	<path fill="none" stroke="#646464" stroke-width="2" stroke-linecap="round" stroke-linejoin="round" stroke-miterlimit="10" d="
		M23.144,41.847c0,4.623-3.749,8.372-8.372,8.372S6.4,46.47,6.4,41.847c0-0.527,0.049-1.043,0.142-1.543
		c0.724-3.887,4.133-6.829,8.23-6.829C19.396,33.475,23.144,37.223,23.144,41.847z"/>
	
		<line fill="none" stroke="#646464" stroke-width="2" stroke-linecap="round" stroke-linejoin="round" stroke-miterlimit="10" x1="41.928" y1="49.179" x2="49.14" y2="41.967"/>
</g>
</svg>
