<?xml version="1.0" encoding="utf-8"?>
<!-- Generator: Adobe Illustrator 16.0.0, SVG Export Plug-In . SVG Version: 6.00 Build 0)  -->
<!DOCTYPE svg PUBLIC "-//W3C//DTD SVG 1.1//EN" "http://www.w3.org/Graphics/SVG/1.1/DTD/svg11.dtd">
<svg version="1.1" id="Layer_1" xmlns="http://www.w3.org/2000/svg" xmlns:xlink="http://www.w3.org/1999/xlink" x="0px" y="0px"
	 width="64px" height="64px" viewBox="0 0 64 64" enable-background="new 0 0 64 64" xml:space="preserve">
<g>
	<path fill="none" stroke="#646464" stroke-width="2" stroke-linecap="round" stroke-linejoin="round" stroke-miterlimit="10" d="
		M47,21.323V8.397C47,4.329,43.97,1,39.901,1H24.112C20.043,1,17,4.329,17,8.397v12.926C9,26.27,4.539,34.71,4.539,44.303
		C4.539,51.525,7.188,58,11.728,63h40.557c4.54-5,7.183-11.475,7.183-18.697C59.468,34.71,55,26.27,47,21.323z M22,8.397
		C22,7.041,22.756,6,24.112,6h15.789C41.257,6,42,7.041,42,8.397v10.329c-3-1.296-6.337-2.016-10-2.016s-7,0.72-10,2.016V8.397z"/>
</g>
</svg>
