<?xml version="1.0" encoding="utf-8"?>
<!-- Generator: Adobe Illustrator 16.0.0, SVG Export Plug-In . SVG Version: 6.00 Build 0)  -->
<!DOCTYPE svg PUBLIC "-//W3C//DTD SVG 1.1//EN" "http://www.w3.org/Graphics/SVG/1.1/DTD/svg11.dtd">
<svg version="1.1" id="Layer_1" xmlns="http://www.w3.org/2000/svg" xmlns:xlink="http://www.w3.org/1999/xlink" x="0px" y="0px"
	 width="64px" height="64px" viewBox="0 0 64 64" enable-background="new 0 0 64 64" xml:space="preserve">
<g>
	
		<circle fill="none" stroke="#646464" stroke-width="1.9984" stroke-linecap="round" stroke-linejoin="round" stroke-miterlimit="10" cx="32" cy="32" r="31"/>
	
		<path fill="none" stroke="#646464" stroke-width="1.9984" stroke-linecap="round" stroke-linejoin="round" stroke-miterlimit="10" d="
		M52.854,9.063c-11.245,12.54-11.328,33.429-0.246,46.092"/>
	
		<path fill="none" stroke="#646464" stroke-width="1.9984" stroke-linecap="round" stroke-linejoin="round" stroke-miterlimit="10" d="
		M42.935,31.84c0.951,0.012,1.9,0.022,2.852,0.033"/>
	
		<path fill="none" stroke="#646464" stroke-width="1.9984" stroke-linecap="round" stroke-linejoin="round" stroke-miterlimit="10" d="
		M43.284,27.013c0.941,0.142,1.882,0.283,2.822,0.424"/>
	
		<path fill="none" stroke="#646464" stroke-width="1.9984" stroke-linecap="round" stroke-linejoin="round" stroke-miterlimit="10" d="
		M44.231,22.273c0.916,0.27,1.83,0.54,2.746,0.81"/>
	
		<path fill="none" stroke="#646464" stroke-width="1.9984" stroke-linecap="round" stroke-linejoin="round" stroke-miterlimit="10" d="
		M45.776,17.706c0.873,0.394,1.746,0.787,2.62,1.181"/>
	
		<path fill="none" stroke="#646464" stroke-width="1.9984" stroke-linecap="round" stroke-linejoin="round" stroke-miterlimit="10" d="
		M47.919,13.392c0.816,0.51,1.631,1.021,2.445,1.531"/>
	
		<path fill="none" stroke="#646464" stroke-width="1.9984" stroke-linecap="round" stroke-linejoin="round" stroke-miterlimit="10" d="
		M50.661,9.412c0.74,0.618,1.481,1.237,2.222,1.854"/>
	
		<path fill="none" stroke="#646464" stroke-width="1.9984" stroke-linecap="round" stroke-linejoin="round" stroke-miterlimit="10" d="
		M50.156,54.441c0.754-0.602,1.509-1.201,2.263-1.803"/>
	
		<path fill="none" stroke="#646464" stroke-width="1.9984" stroke-linecap="round" stroke-linejoin="round" stroke-miterlimit="10" d="
		M47.517,50.399c0.826-0.491,1.651-0.982,2.478-1.474"/>
	
		<path fill="none" stroke="#646464" stroke-width="1.9984" stroke-linecap="round" stroke-linejoin="round" stroke-miterlimit="10" d="
		M45.474,46.037c0.882-0.373,1.764-0.747,2.645-1.12"/>
	
		<path fill="none" stroke="#646464" stroke-width="1.9984" stroke-linecap="round" stroke-linejoin="round" stroke-miterlimit="10" d="
		M44.03,41.435c0.92-0.249,1.841-0.497,2.761-0.746"/>
	
		<path fill="none" stroke="#646464" stroke-width="1.9984" stroke-linecap="round" stroke-linejoin="round" stroke-miterlimit="10" d="
		M43.184,36.676c0.943-0.121,1.887-0.241,2.83-0.36"/>
	
		<path fill="none" stroke="#646464" stroke-width="1.9984" stroke-linecap="round" stroke-linejoin="round" stroke-miterlimit="10" d="
		M11.189,9.022c11.294,12.55,11.377,33.502,0.247,46.174"/>
	
		<path fill="none" stroke="#646464" stroke-width="1.9984" stroke-linecap="round" stroke-linejoin="round" stroke-miterlimit="10" d="
		M21.146,31.84c-0.95,0.012-1.9,0.022-2.85,0.033"/>
	
		<path fill="none" stroke="#646464" stroke-width="1.9984" stroke-linecap="round" stroke-linejoin="round" stroke-miterlimit="10" d="
		M20.796,27.013c-0.939,0.142-1.881,0.283-2.821,0.424"/>
	
		<path fill="none" stroke="#646464" stroke-width="1.9984" stroke-linecap="round" stroke-linejoin="round" stroke-miterlimit="10" d="
		M19.849,22.273c-0.914,0.27-1.829,0.54-2.744,0.81"/>
	
		<path fill="none" stroke="#646464" stroke-width="1.9984" stroke-linecap="round" stroke-linejoin="round" stroke-miterlimit="10" d="
		M18.304,17.706c-0.873,0.394-1.746,0.787-2.619,1.181"/>
	
		<path fill="none" stroke="#646464" stroke-width="1.9984" stroke-linecap="round" stroke-linejoin="round" stroke-miterlimit="10" d="
		M16.161,13.392c-0.814,0.51-1.631,1.021-2.445,1.531"/>
	
		<path fill="none" stroke="#646464" stroke-width="1.9984" stroke-linecap="round" stroke-linejoin="round" stroke-miterlimit="10" d="
		M13.421,9.412c-0.742,0.618-1.482,1.237-2.223,1.854"/>
	
		<path fill="none" stroke="#646464" stroke-width="1.9984" stroke-linecap="round" stroke-linejoin="round" stroke-miterlimit="10" d="
		M13.925,54.441c-0.754-0.602-1.509-1.201-2.264-1.803"/>
	
		<path fill="none" stroke="#646464" stroke-width="1.9984" stroke-linecap="round" stroke-linejoin="round" stroke-miterlimit="10" d="
		M16.565,50.399c-0.826-0.491-1.652-0.982-2.479-1.474"/>
	
		<path fill="none" stroke="#646464" stroke-width="1.9984" stroke-linecap="round" stroke-linejoin="round" stroke-miterlimit="10" d="
		M18.606,46.037c-0.881-0.373-1.763-0.747-2.644-1.12"/>
	
		<path fill="none" stroke="#646464" stroke-width="1.9984" stroke-linecap="round" stroke-linejoin="round" stroke-miterlimit="10" d="
		M20.051,41.435c-0.921-0.249-1.841-0.497-2.761-0.746"/>
	
		<path fill="none" stroke="#646464" stroke-width="1.9984" stroke-linecap="round" stroke-linejoin="round" stroke-miterlimit="10" d="
		M20.897,36.676c-0.943-0.121-1.887-0.241-2.83-0.36"/>
</g>
</svg>
