<?xml version="1.0" encoding="utf-8"?>
<!-- Generator: Adobe Illustrator 16.0.0, SVG Export Plug-In . SVG Version: 6.00 Build 0)  -->
<!DOCTYPE svg PUBLIC "-//W3C//DTD SVG 1.1//EN" "http://www.w3.org/Graphics/SVG/1.1/DTD/svg11.dtd">
<svg version="1.1" id="Layer_1" xmlns="http://www.w3.org/2000/svg" xmlns:xlink="http://www.w3.org/1999/xlink" x="0px" y="0px"
	 width="64px" height="64px" viewBox="0 0 64 64" enable-background="new 0 0 64 64" xml:space="preserve">
<g>
	<path fill="none" stroke="#646464" stroke-width="2" stroke-linecap="round" stroke-linejoin="round" stroke-miterlimit="10" d="
		M42.476,48.481c1.01,6.531-6.209,12.441-16.307,6.839c-7.364-4.088-12.86-3.4-16.037-2.53c-5.588-4.839-9.123-11.985-9.123-19.958
		c0-14.573,11.814-26.389,26.389-26.389c12.814,0,23.494,9.136,25.886,21.248C37.661,27.691,41.665,43.231,42.476,48.481z"/>
	<path fill="none" stroke="#646464" stroke-width="2" stroke-linecap="round" stroke-linejoin="round" stroke-miterlimit="10" d="
		M46,40h17v15c0,0-4.393,0-6.497,0c-2.104,0-6.312-2.195-8.152-7.713c-1.842-5.518-5.987-18.428-5.987-18.428"/>
	<path fill="none" stroke="#646464" stroke-width="2" stroke-linecap="round" stroke-linejoin="round" stroke-miterlimit="10" d="
		M52.303,24.489l-14.384,6.08c0,0-2.124,1.082-3.112,3.271L30.441,46H63"/>
	
		<line fill="none" stroke="#646464" stroke-width="2" stroke-linecap="round" stroke-linejoin="round" stroke-miterlimit="10" x1="34.408" y1="34.917" x2="46.716" y2="42.628"/>
	
		<circle fill="none" stroke="#646464" stroke-width="2" stroke-linecap="round" stroke-linejoin="round" stroke-miterlimit="10" cx="25.046" cy="43.528" r="2.981"/>
</g>
</svg>
