<?xml version="1.0" encoding="utf-8"?>
<!-- Generator: Adobe Illustrator 16.0.0, SVG Export Plug-In . SVG Version: 6.00 Build 0)  -->
<!DOCTYPE svg PUBLIC "-//W3C//DTD SVG 1.1//EN" "http://www.w3.org/Graphics/SVG/1.1/DTD/svg11.dtd">
<svg version="1.1" id="Layer_1" xmlns="http://www.w3.org/2000/svg" xmlns:xlink="http://www.w3.org/1999/xlink" x="0px" y="0px"
	 width="24px" height="24px" viewBox="0 0 24 24" enable-background="new 0 0 24 24" xml:space="preserve">
<g>
	<path fill="none" stroke="#646464" stroke-width="2" stroke-linecap="round" stroke-linejoin="round" stroke-miterlimit="10" d="
		M14.942,18.001c0.337,2.183-2.075,4.16-5.452,2.288c-2.461-1.368-4.299-1.14-5.361-0.847c-1.869-1.617-3.05-4.008-3.05-6.674
		c0-4.872,3.949-8.821,8.821-8.821c4.286,0,7.855,3.053,8.656,7.104C13.332,11.052,14.672,16.246,14.942,18.001z"/>
	<path fill="none" stroke="#646464" stroke-width="2" stroke-linecap="round" stroke-linejoin="round" stroke-miterlimit="10" d="
		M16,13.981h6v6c0,0-1.664,0-2.367,0s-2.111-0.636-2.727-2.48c-0.616-1.846-1.582-5.158-1.582-5.158"/>
</g>
</svg>
