<?xml version="1.0" encoding="utf-8"?>
<!-- Generator: Adobe Illustrator 16.0.0, SVG Export Plug-In . SVG Version: 6.00 Build 0)  -->
<!DOCTYPE svg PUBLIC "-//W3C//DTD SVG 1.1//EN" "http://www.w3.org/Graphics/SVG/1.1/DTD/svg11.dtd">
<svg version="1.1" id="Layer_1" xmlns="http://www.w3.org/2000/svg" xmlns:xlink="http://www.w3.org/1999/xlink" x="0px" y="0px"
	 width="24px" height="24px" viewBox="0 0 24 24" enable-background="new 0 0 24 24" xml:space="preserve">
<g>
	
		<path fill="none" stroke="#646464" stroke-width="1.9895" stroke-linecap="round" stroke-linejoin="round" stroke-miterlimit="10" d="
		M17.008,16.511c2.622-3.376,2.197-7.975-1.11-11.282c-3.591-3.59-9.381-4.381-12.75-1.013C0.379,6.984,0.42,11.387,2.512,14.859"/>
	
		<path fill="none" stroke="#646464" stroke-width="1.9895" stroke-linecap="round" stroke-linejoin="round" stroke-miterlimit="10" d="
		M6.408,18.806c2.962,1.562,6.36,1.351,9.018-0.713"/>
	
		<path fill="none" stroke="#646464" stroke-width="1.9895" stroke-linecap="round" stroke-linejoin="round" stroke-miterlimit="10" d="
		M8.321,15.624c0,1.574-1.274,2.85-2.848,2.85s-2.849-1.275-2.849-2.85c0-0.179,0.016-0.354,0.048-0.524
		c0.246-1.322,1.406-2.323,2.801-2.323C7.047,12.776,8.321,14.051,8.321,15.624z"/>
	
		<line fill="none" stroke="#646464" stroke-width="1.9895" stroke-linecap="round" stroke-linejoin="round" stroke-miterlimit="10" x1="14.932" y1="18.429" x2="17.43" y2="15.93"/>
	
		<line fill="none" stroke="#646464" stroke-width="1.9895" stroke-linecap="round" stroke-linejoin="round" stroke-miterlimit="10" x1="22" y1="22.896" x2="16.49" y2="17.387"/>
</g>
</svg>
