<?xml version="1.0" encoding="utf-8"?>
<!-- Generator: Adobe Illustrator 16.0.0, SVG Export Plug-In . SVG Version: 6.00 Build 0)  -->
<!DOCTYPE svg PUBLIC "-//W3C//DTD SVG 1.1//EN" "http://www.w3.org/Graphics/SVG/1.1/DTD/svg11.dtd">
<svg version="1.1" id="Layer_1" xmlns="http://www.w3.org/2000/svg" xmlns:xlink="http://www.w3.org/1999/xlink" x="0px" y="0px"
	 width="24px" height="24px" viewBox="0 0 24 24" enable-background="new 0 0 24 24" xml:space="preserve">
<g>
	
		<path fill="none" stroke="#646464" stroke-width="1.9886" stroke-linecap="round" stroke-linejoin="round" stroke-miterlimit="10" d="
		M9.873,15.553c0,1.667-1.353,3.02-3.021,3.02c-1.667,0-3.02-1.353-3.02-3.02c0-0.19,0.018-0.377,0.052-0.558
		c0.261-1.401,1.49-2.463,2.968-2.463C8.521,12.532,9.873,13.885,9.873,15.553z"/>
	
		<path fill="none" stroke="#646464" stroke-width="1.9886" stroke-linecap="round" stroke-linejoin="round" stroke-miterlimit="10" d="
		M3.887,15.46C0.444,12.017,0.021,6.858,2.941,3.938c2.92-2.921,8.078-2.498,11.521,0.945c3.442,3.441,3.866,8.6,0.945,11.52
		c-1.668,1.669-4.067,2.246-6.458,1.793"/>
	
		<path fill="none" stroke="#646464" stroke-width="1.9886" stroke-linecap="round" stroke-linejoin="round" stroke-miterlimit="10" d="
		M21.765,21.31c0.313,0.314,0.313,0.828,0,1.142l-0.288,0.288c-0.313,0.314-0.828,0.314-1.143,0l-2.428-2.428
		c-0.314-0.314-0.314-0.828,0-1.143l0.289-0.287c0.313-0.315,0.826-0.315,1.141,0L21.765,21.31z"/>
	
		<line fill="none" stroke="#646464" stroke-width="1.9886" stroke-linecap="round" stroke-linejoin="round" stroke-miterlimit="10" x1="18.108" y1="19.117" x2="15.401" y2="16.409"/>
	
		<line fill="none" stroke="#646464" stroke-width="1.9886" stroke-linecap="round" stroke-linejoin="round" stroke-miterlimit="10" x1="9.917" y1="14.192" x2="16.443" y2="7.667"/>
	
		<line fill="none" stroke="#646464" stroke-width="1.9886" stroke-linecap="round" stroke-linejoin="round" stroke-miterlimit="10" x1="2.769" y1="13.345" x2="12.341" y2="3.772"/>
	
		<line fill="none" stroke="#646464" stroke-width="1.9886" stroke-linecap="round" stroke-linejoin="round" stroke-miterlimit="10" x1="2.985" y1="3.993" x2="15.352" y2="16.36"/>
	
		<line fill="none" stroke="#646464" stroke-width="1.9886" stroke-linecap="round" stroke-linejoin="round" stroke-miterlimit="10" x1="10.153" y1="16.412" x2="11.634" y2="17.894"/>
</g>
</svg>
