<?xml version="1.0" encoding="utf-8"?>
<!-- Generator: Adobe Illustrator 16.0.0, SVG Export Plug-In . SVG Version: 6.00 Build 0)  -->
<!DOCTYPE svg PUBLIC "-//W3C//DTD SVG 1.1//EN" "http://www.w3.org/Graphics/SVG/1.1/DTD/svg11.dtd">
<svg version="1.1" id="Layer_1" xmlns="http://www.w3.org/2000/svg" xmlns:xlink="http://www.w3.org/1999/xlink" x="0px" y="0px"
	 width="24px" height="24px" viewBox="0 0 24 24" enable-background="new 0 0 24 24" xml:space="preserve">
<g>
	<path fill="none" stroke="#646464" stroke-width="2" stroke-linecap="round" stroke-linejoin="round" stroke-miterlimit="10" d="
		M13.629,18.481H6.887c0,3,2.061,4.6,4.602,4.6s4.602-1.6,4.602-4.6h-0.414H13.629z"/>
	<path fill="none" stroke="#646464" stroke-width="2" stroke-linecap="round" stroke-linejoin="round" stroke-miterlimit="10" d="
		M20.518,2.107c-0.064-0.082-0.166-0.126-0.273-0.126h-4.218H6.974H2.756c-0.107,0-0.209,0.044-0.273,0.126S2.396,2.296,2.426,2.396
		l4.795,15.802c0.043,0.144,0.178,0.284,0.332,0.284h1.904h4.086h1.904c0.154,0,0.289-0.144,0.332-0.284l4.795-15.779
		C20.604,2.318,20.582,2.189,20.518,2.107z"/>
	
		<line fill="none" stroke="#646464" stroke-width="2" stroke-linecap="round" stroke-linejoin="round" stroke-miterlimit="10" x1="11.5" y1="18.481" x2="11.5" y2="1.981"/>
</g>
</svg>
