<?xml version="1.0" encoding="utf-8"?>
<!-- Generator: Adobe Illustrator 16.0.0, SVG Export Plug-In . SVG Version: 6.00 Build 0)  -->
<!DOCTYPE svg PUBLIC "-//W3C//DTD SVG 1.1//EN" "http://www.w3.org/Graphics/SVG/1.1/DTD/svg11.dtd">
<svg version="1.1" id="Layer_1" xmlns="http://www.w3.org/2000/svg" xmlns:xlink="http://www.w3.org/1999/xlink" x="0px" y="0px"
	 width="24px" height="24px" viewBox="0 0 24 24" enable-background="new 0 0 24 24" xml:space="preserve">
<g>
	<path fill="none" stroke="#646464" stroke-width="2" stroke-linecap="round" stroke-linejoin="round" stroke-miterlimit="10" d="
		M19,21.746c0,0.685-0.584,1.235-1.307,1.235H5.307C4.584,22.981,4,22.431,4,21.746V3.226c0-0.685,0.584-1.244,1.307-1.244h12.387
		c0.723,0,1.307,0.56,1.307,1.244V21.746z"/>
	
		<line fill="none" stroke="#646464" stroke-width="2" stroke-linecap="round" stroke-linejoin="round" stroke-miterlimit="10" x1="4" y1="12.481" x2="19" y2="12.481"/>
	
		<circle fill="none" stroke="#646464" stroke-width="2" stroke-linecap="round" stroke-linejoin="round" stroke-miterlimit="10" cx="11.529" cy="12.491" r="2.967"/>
	<path fill="none" stroke="#646464" stroke-width="2" stroke-linecap="round" stroke-linejoin="round" stroke-miterlimit="10" d="
		M13.363,21.533c-0.24-0.789-0.967-1.367-1.836-1.367c-0.868,0-1.595,0.578-1.835,1.367"/>
	<path fill="none" stroke="#646464" stroke-width="2" stroke-linecap="round" stroke-linejoin="round" stroke-miterlimit="10" d="
		M9.692,3.39c0.241,0.789,0.967,1.366,1.837,1.366c0.867,0,1.594-0.577,1.836-1.366"/>
</g>
</svg>
