<?xml version="1.0" encoding="utf-8"?>
<!-- Generator: Adobe Illustrator 16.0.0, SVG Export Plug-In . SVG Version: 6.00 Build 0)  -->
<!DOCTYPE svg PUBLIC "-//W3C//DTD SVG 1.1//EN" "http://www.w3.org/Graphics/SVG/1.1/DTD/svg11.dtd">
<svg version="1.1" id="Layer_1" xmlns="http://www.w3.org/2000/svg" xmlns:xlink="http://www.w3.org/1999/xlink" x="0px" y="0px"
	 width="24px" height="24px" viewBox="0 0 24 24" enable-background="new 0 0 24 24" xml:space="preserve">
<g>
	<path fill="none" stroke="#646464" stroke-width="2" stroke-linecap="round" stroke-linejoin="round" stroke-miterlimit="10" d="
		M8.286,11.095c0,1.545-1.253,2.797-2.798,2.797S2.69,12.64,2.69,11.095c0-0.177,0.017-0.35,0.047-0.516
		c0.241-1.3,1.382-2.283,2.751-2.283C7.033,8.296,8.286,9.549,8.286,11.095z"/>
	<g>
		<path fill="none" stroke="#646464" stroke-width="2" stroke-linecap="round" stroke-linejoin="round" stroke-miterlimit="10" d="
			M4.219,8.158L1.35,5.289C0.818,4.758,0.91,3.798,1.553,3.156l0.575-0.575C2.77,1.938,3.729,1.848,4.261,2.378l6.639,6.639
			c0.53,0.531,1.301,1.486,1.711,2.121l0.604,0.935c0.411,0.636,0.358,2.411,0.891,2.942l6.041,6.041"/>
		<path fill="none" stroke="#646464" stroke-width="2" stroke-linecap="round" stroke-linejoin="round" stroke-miterlimit="10" d="
			M20.028,21.173l-6.041-6.041c-0.532-0.531-2.309-0.479-2.942-0.889l-0.936-0.604c-0.635-0.411-1.823-1.455-1.823-1.455"/>
		
			<line fill="none" stroke="#646464" stroke-width="2" stroke-linecap="round" stroke-linejoin="round" stroke-miterlimit="10" x1="19.129" y1="22.938" x2="21.996" y2="20.071"/>
	</g>
</g>
</svg>
