<?xml version="1.0" encoding="utf-8"?>
<!-- Generator: Adobe Illustrator 16.0.0, SVG Export Plug-In . SVG Version: 6.00 Build 0)  -->
<!DOCTYPE svg PUBLIC "-//W3C//DTD SVG 1.1//EN" "http://www.w3.org/Graphics/SVG/1.1/DTD/svg11.dtd">
<svg version="1.1" id="Layer_1" xmlns="http://www.w3.org/2000/svg" xmlns:xlink="http://www.w3.org/1999/xlink" x="0px" y="0px"
	 width="24px" height="24px" viewBox="0 0 24 24" enable-background="new 0 0 24 24" xml:space="preserve">
<g>
	
		<circle fill="none" stroke="#646464" stroke-width="1.9893" stroke-linecap="round" stroke-linejoin="round" stroke-miterlimit="10" cx="11.5" cy="12.483" r="10.5"/>
	
		<polygon fill="none" stroke="#646464" stroke-width="2" stroke-linecap="round" stroke-linejoin="round" stroke-miterlimit="10" points="
		8.938,15.481 7.354,10.769 11.5,7.837 15.645,10.729 14.061,15.481 	"/>
	
		<polyline fill="none" stroke="#646464" stroke-width="1.9893" stroke-linecap="round" stroke-linejoin="round" stroke-miterlimit="10" points="
		8.289,22.48 8.963,21.843 6.871,18.831 3.121,17.601 2.814,18.384 	"/>
	
		<polyline fill="none" stroke="#646464" stroke-width="1.9893" stroke-linecap="round" stroke-linejoin="round" stroke-miterlimit="10" points="
		1.021,12.61 1.838,13.051 4.044,10.121 4.035,6.174 3.195,6.128 	"/>
	
		<polyline fill="none" stroke="#646464" stroke-width="1.9893" stroke-linecap="round" stroke-linejoin="round" stroke-miterlimit="10" points="
		22,12.61 21.183,13.051 18.977,10.121 18.985,6.174 19.824,6.128 	"/>
	
		<polyline fill="none" stroke="#646464" stroke-width="1.9893" stroke-linecap="round" stroke-linejoin="round" stroke-miterlimit="10" points="
		14.811,2.571 14.975,3.485 11.5,4.661 7.753,3.414 7.975,2.602 	"/>
	
		<polyline fill="none" stroke="#646464" stroke-width="1.9893" stroke-linecap="round" stroke-linejoin="round" stroke-miterlimit="10" points="
		14.521,22.48 13.847,21.843 15.938,18.831 19.688,17.601 19.994,18.384 	"/>
	
		<line fill="none" stroke="#646464" stroke-width="2" stroke-linecap="round" stroke-linejoin="round" stroke-miterlimit="10" x1="11.5" y1="7.981" x2="11.5" y2="4.981"/>
	
		<line fill="none" stroke="#646464" stroke-width="1.9893" stroke-linecap="round" stroke-linejoin="round" stroke-miterlimit="10" x1="7.354" y1="10.927" x2="4.044" y2="10.121"/>
	
		<line fill="none" stroke="#646464" stroke-width="1.9893" stroke-linecap="round" stroke-linejoin="round" stroke-miterlimit="10" x1="1.838" y1="13.051" x2="3.121" y2="17.601"/>
	
		<line fill="none" stroke="#646464" stroke-width="1.9893" stroke-linecap="round" stroke-linejoin="round" stroke-miterlimit="10" x1="6.871" y1="18.831" x2="8.938" y2="15.8"/>
	
		<line fill="none" stroke="#646464" stroke-width="1.9893" stroke-linecap="round" stroke-linejoin="round" stroke-miterlimit="10" x1="14.061" y1="15.8" x2="15.938" y2="18.831"/>
	
		<line fill="none" stroke="#646464" stroke-width="2" stroke-linecap="round" stroke-linejoin="round" stroke-miterlimit="10" x1="14.5" y1="21.481" x2="8.5" y2="21.481"/>
	
		<line fill="none" stroke="#646464" stroke-width="1.9893" stroke-linecap="round" stroke-linejoin="round" stroke-miterlimit="10" x1="15.645" y1="10.927" x2="18.977" y2="10.121"/>
	
		<line fill="none" stroke="#646464" stroke-width="1.9893" stroke-linecap="round" stroke-linejoin="round" stroke-miterlimit="10" x1="21.183" y1="13.051" x2="19.688" y2="17.601"/>
	
		<line fill="none" stroke="#646464" stroke-width="1.9893" stroke-linecap="round" stroke-linejoin="round" stroke-miterlimit="10" x1="18.985" y1="6.174" x2="14.975" y2="3.485"/>
	
		<line fill="none" stroke="#646464" stroke-width="1.9893" stroke-linecap="round" stroke-linejoin="round" stroke-miterlimit="10" x1="7.753" y1="3.414" x2="4.035" y2="6.174"/>
</g>
</svg>
