<?xml version="1.0" encoding="utf-8"?>
<!-- Generator: Adobe Illustrator 16.0.0, SVG Export Plug-In . SVG Version: 6.00 Build 0)  -->
<!DOCTYPE svg PUBLIC "-//W3C//DTD SVG 1.1//EN" "http://www.w3.org/Graphics/SVG/1.1/DTD/svg11.dtd">
<svg version="1.1" id="Layer_1" xmlns="http://www.w3.org/2000/svg" xmlns:xlink="http://www.w3.org/1999/xlink" x="0px" y="0px"
	 width="24px" height="24px" viewBox="0 0 24 24" enable-background="new 0 0 24 24" xml:space="preserve">
<g>
	<path fill="none" stroke="#646464" stroke-width="2" stroke-linecap="round" stroke-linejoin="round" stroke-miterlimit="10" d="
		M5.5,7.981V4.684c0-1.464,1.971-2.702,3.435-2.702h6.669c1.465,0,1.896,1.238,1.896,2.702v9.136c0,2.355-2.828,4.663-6.733,4.663
		C6.863,18.482,4,16.175,4,13.819v-0.01V9.968C4,8.87,5.06,7.981,6.158,7.981h0.836C8.092,7.981,8.5,8.87,8.5,9.968v4.014"/>
	
		<line fill="none" stroke="#646464" stroke-width="2" stroke-linecap="round" stroke-linejoin="round" stroke-miterlimit="10" x1="5.5" y1="21.481" x2="5.5" y2="16.981"/>
	
		<line fill="none" stroke="#646464" stroke-width="2" stroke-linecap="round" stroke-linejoin="round" stroke-miterlimit="10" x1="16" y1="16.981" x2="16" y2="21.481"/>
	<path fill="none" stroke="#646464" stroke-width="2" stroke-linecap="round" stroke-linejoin="round" stroke-miterlimit="10" d="
		M16,21.481c0,0.819-1.601,1.491-4.441,1.491c-2.842,0-6.059-0.672-6.059-1.491"/>
</g>
</svg>
