<?xml version="1.0" encoding="utf-8"?>
<!-- Generator: Adobe Illustrator 16.0.0, SVG Export Plug-In . SVG Version: 6.00 Build 0)  -->
<!DOCTYPE svg PUBLIC "-//W3C//DTD SVG 1.1//EN" "http://www.w3.org/Graphics/SVG/1.1/DTD/svg11.dtd">
<svg version="1.1" id="Layer_1" xmlns="http://www.w3.org/2000/svg" xmlns:xlink="http://www.w3.org/1999/xlink" x="0px" y="0px"
	 width="128px" height="128px" viewBox="0 0 128 128" enable-background="new 0 0 128 128" xml:space="preserve">
<circle fill="#26C6DA" stroke="#231F20" stroke-miterlimit="10" cx="64" cy="64" r="64"/>
<g>
	<g>
		<path fill="#BCAAA4" d="M89.886,57.294c-8.823,0-16.001,7.179-16.001,16.002s7.178,16.002,16.001,16.002
			c8.823,0,16.001-7.179,16.001-16.002S98.708,57.294,89.886,57.294z M89.886,87.213c-7.674,0-13.917-6.242-13.917-13.917
			c0-7.674,6.243-13.917,13.917-13.917c2.98,0,5.822,0.928,8.219,2.685l2.938,2.918c1.818,2.447,2.761,5.31,2.761,8.314
			C103.803,80.971,97.56,87.213,89.886,87.213z"/>
		<path fill="#BCAAA4" d="M36.751,89.298c8.823,0,16.001-7.179,16.001-16.002s-7.179-16.002-16.001-16.002S21.5,64.473,21.5,73.296
			S27.929,89.298,36.751,89.298z M36.751,59.379c2.98,0,5.822,0.928,8.218,2.685l2.938,2.918c1.818,2.447,2.761,5.31,2.761,8.314
			c0,7.675-6.243,13.917-13.917,13.917c-7.674,0-13.917-6.242-13.917-13.917C22.834,65.622,29.078,59.379,36.751,59.379z"/>
		<path fill="#D50000" d="M71.58,42.615c-0.094,0-0.185-0.014-0.275-0.027C71.394,42.605,71.485,42.615,71.58,42.615z"/>
		<path fill="#D50000" d="M81.195,42.588c-0.09,0.014-0.181,0.027-0.275,0.027C81.015,42.615,81.106,42.605,81.195,42.588z"/>
		<path fill="#E57373" d="M70.558,41.087c0,0.563,0.458,1.021,1.022,1.021h9.34c0.564,0,1.022-0.458,1.022-1.021
			s-0.458-1.022-1.022-1.022h-9.34C71.016,40.064,70.558,40.523,70.558,41.087z"/>
		<circle fill="#D50000" cx="89.886" cy="73.296" r="1.724"/>
		<circle fill="#D50000" cx="36.751" cy="73.296" r="1.724"/>
		<path fill="#D84315" d="M63.258,68.825c-2.466,0-4.471,2.006-4.471,4.471c0,2.466,2.005,4.471,4.471,4.471
			c2.465,0,4.47-2.005,4.47-4.471C67.728,70.831,65.723,68.825,63.258,68.825z M63.258,75.576c-1.258,0-2.281-1.022-2.281-2.28
			c0-1.257,1.023-2.28,2.281-2.28c1.257,0,2.28,1.023,2.28,2.28C65.538,74.554,64.515,75.576,63.258,75.576z"/>
		<circle fill="#D50000" cx="63.258" cy="73.296" r="1.599"/>
		<rect x="57.016" y="81.628" fill="#D50000" width="5.451" height="1.362"/>
		<rect x="63.148" y="63.912" fill="#37474F" width="5.451" height="1.363"/>
	</g>
	<g>
		<path fill="none" stroke="#263238" stroke-width="2" stroke-linecap="round" stroke-linejoin="round" stroke-miterlimit="10" d="
			M106.5,73.296c0,9.025-6.907,16.343-15.933,16.343c-9.026,0-16.342-7.317-16.342-16.343s7.316-16.343,16.342-16.343
			C99.593,56.953,106.5,64.27,106.5,73.296z"/>
		<path fill="none" stroke="#263238" stroke-width="2" stroke-linecap="round" stroke-linejoin="round" stroke-miterlimit="10" d="
			M37.356,73.517l6.797-26.297c-6.905,0-6.722-8.858-0.107-8.858c1.539,0,1.386,0,1.386,0"/>
		
			<line fill="none" stroke="#263238" stroke-width="2" stroke-linecap="round" stroke-linejoin="round" stroke-miterlimit="10" x1="65.878" y1="68.894" x2="78.865" y2="42.623"/>
		<g>
			<path fill="none" stroke="#263238" stroke-width="2" stroke-linecap="round" stroke-linejoin="round" stroke-miterlimit="10" d="
				M81.602,42.449h-9.34c-0.752,0-1.363-0.61-1.363-1.362c0-0.753,0.61-1.362,1.363-1.362h9.34c0.752,0,1.363,0.609,1.363,1.362
				C82.964,41.839,82.354,42.449,81.602,42.449z"/>
		</g>
		<path fill="none" stroke="#263238" stroke-width="2" stroke-linecap="round" stroke-linejoin="round" stroke-miterlimit="10" d="
			M101.484,65.223c1.671,2.257,2.66,5.05,2.66,8.073c0,7.498-6.078,13.577-13.576,13.577c-7.5,0-13.577-6.079-13.577-13.577
			c0-7.499,6.078-13.577,13.577-13.577c2.998,0,5.77,0.973,8.016,2.619"/>
		<path fill="none" stroke="#263238" stroke-width="2" stroke-linecap="round" stroke-linejoin="round" stroke-miterlimit="10" d="
			M48.35,65.223c1.671,2.257,2.66,5.05,2.66,8.073c0,7.498-6.078,13.577-13.577,13.577c-7.498,0-13.576-6.079-13.576-13.577
			c0-7.499,6.078-13.577,13.576-13.577c3,0,5.771,0.973,8.017,2.619"/>
		<path fill="none" stroke="#263238" stroke-width="2" stroke-linecap="round" stroke-linejoin="round" stroke-miterlimit="10" d="
			M53.775,73.296c0,9.025-7.316,16.343-16.343,16.343c-9.025,0-15.932-7.317-15.932-16.343c0-9.026,6.907-16.343,15.932-16.343
			C46.458,56.953,53.775,64.271,53.775,73.296z"/>
		
			<polyline fill="none" stroke="#263238" stroke-width="2" stroke-linecap="round" stroke-linejoin="round" stroke-miterlimit="10" points="
			68.599,73.792 90.567,73.792 76.646,47.22 44.154,47.22 60.504,70.204 		"/>
		
			<circle fill="none" stroke="#263238" stroke-width="2" stroke-linecap="round" stroke-linejoin="round" stroke-miterlimit="10" cx="90.567" cy="73.296" r="2.064"/>
		
			<circle fill="none" stroke="#263238" stroke-width="2" stroke-linecap="round" stroke-linejoin="round" stroke-miterlimit="10" cx="37.433" cy="73.296" r="2.064"/>
		
			<circle fill="none" stroke="#263238" stroke-width="2" stroke-linecap="round" stroke-linejoin="round" stroke-miterlimit="10" cx="63.939" cy="73.296" r="4.811"/>
		
			<circle fill="none" stroke="#263238" stroke-width="2" stroke-linecap="round" stroke-linejoin="round" stroke-miterlimit="10" cx="63.939" cy="73.296" r="1.939"/>
		
			<line fill="none" stroke="#263238" stroke-width="2" stroke-linecap="round" stroke-linejoin="round" stroke-miterlimit="10" x1="63.489" y1="73.451" x2="63.489" y2="80.946"/>
		
			<line fill="none" stroke="#263238" stroke-width="2" stroke-linecap="round" stroke-linejoin="round" stroke-miterlimit="10" x1="63.489" y1="63.912" x2="63.489" y2="68.682"/>
		
			<rect x="57.357" y="81.287" fill="none" stroke="#263238" stroke-width="2" stroke-linecap="round" stroke-linejoin="round" stroke-miterlimit="10" width="6.132" height="2.044"/>
		
			<rect x="63.489" y="63.572" fill="none" stroke="#263238" stroke-width="2" stroke-linecap="round" stroke-linejoin="round" stroke-miterlimit="10" width="6.132" height="2.725"/>
		
			<line fill="none" stroke="#263238" stroke-width="2" stroke-linecap="round" stroke-linejoin="round" stroke-miterlimit="10" x1="63.939" y1="68.484" x2="90.567" y2="71.231"/>
		
			<line fill="none" stroke="#263238" stroke-width="2" stroke-linecap="round" stroke-linejoin="round" stroke-miterlimit="10" x1="90.567" y1="75.36" x2="63.939" y2="78.107"/>
	</g>
</g>
</svg>
