<?xml version="1.0" encoding="utf-8"?>
<!-- Generator: Adobe Illustrator 16.0.0, SVG Export Plug-In . SVG Version: 6.00 Build 0)  -->
<!DOCTYPE svg PUBLIC "-//W3C//DTD SVG 1.1//EN" "http://www.w3.org/Graphics/SVG/1.1/DTD/svg11.dtd">
<svg version="1.1" id="Layer_1" xmlns="http://www.w3.org/2000/svg" xmlns:xlink="http://www.w3.org/1999/xlink" x="0px" y="0px"
	 width="128px" height="128px" viewBox="0 0 128 128" enable-background="new 0 0 128 128" xml:space="preserve">
<circle fill="#E1F5FE" stroke="#231F20" stroke-miterlimit="10" cx="64" cy="64" r="64"/>
<g>
	<g>
		<path fill="#616161" d="M63.818,73.938c-20.699,0-37.229-7.562-39.798-17.318v17.113c0,10.762,17.368,19.518,39.508,19.518
			s39.508-8.792,39.508-19.599V58.265C98.539,67.214,83.339,73.938,63.818,73.938z"/>
		<path fill="#78909C" d="M63.512,34.777C41.37,34.777,24,43.417,24,54.036c0,0.324,0.018,0.646,0.052,0.965
			c1.051,10.173,18.147,18.294,39.613,18.294c20.524,0,36.802-7.426,39.371-16.97v-0.055c0-0.068-0.127-0.128-0.091-0.181
			c0.15-0.675,0.154-1.36,0.154-2.054C103.1,43.417,85.651,34.777,63.512,34.777z M96.674,61.474l-4.46,3.116
			c-7.084,3.905-17.535,6.135-28.702,6.135c-19.634,0-35.737-6.939-36.942-15.673c-0.048-0.348-0.08-0.697-0.08-1.05
			c0-9.221,16.608-16.723,37.022-16.723s37.021,7.502,37.021,16.723c0,0.75-0.117,1.489-0.327,2.218
			C99.679,58.051,98.505,59.812,96.674,61.474z"/>
		<path fill="#D50000" d="M102.729,56.271v0.055c0.02-0.079,0.046-0.157,0.063-0.236C102.755,56.142,102.729,56.202,102.729,56.271z
			"/>
		<path fill="#BCAAA4" d="M64.796,37.401c-20.709,0-37.557,7.447-37.557,16.601c0,0.368,0.037,0.732,0.091,1.094
			c1.279,8.645,17.59,15.507,37.466,15.507c11.421,0,21.309-2.113,28.498-6.074l5.246-4.176c1.715-1.558,2.153-4.873,2.688-6.582
			c0.233-0.75-0.064,0.392-0.064-0.378C101.163,44.24,85.505,37.401,64.796,37.401z"/>
	</g>
	<g>
		<path fill="none" stroke="#263238" stroke-width="2" stroke-linecap="round" stroke-linejoin="round" stroke-miterlimit="10" d="
			M103.986,54.036c0,10.814-17.479,19.581-39.833,19.581c-22.353,0-39.832-8.767-39.832-19.581
			c0-10.814,17.479-19.581,39.832-19.581C86.507,34.456,103.986,43.222,103.986,54.036z"/>
		<path fill="none" stroke="#263238" stroke-width="2" stroke-linecap="round" stroke-linejoin="round" stroke-miterlimit="10" d="
			M24.341,55v18.652c0,10.979,17.476,19.88,39.83,19.88c22.354,0,39.829-8.9,39.829-19.88V56.285"/>
		
			<line fill="none" stroke="#263238" stroke-width="2" stroke-linecap="round" stroke-linejoin="round" stroke-miterlimit="10" x1="64.171" y1="73.63" x2="64.171" y2="93.544"/>
		
			<line fill="none" stroke="#263238" stroke-width="2" stroke-linecap="round" stroke-linejoin="round" stroke-miterlimit="10" x1="67.383" y1="73.63" x2="67.383" y2="92.902"/>
		
			<line fill="none" stroke="#263238" stroke-width="2" stroke-linecap="round" stroke-linejoin="round" stroke-miterlimit="10" x1="70.595" y1="73.63" x2="70.595" y2="92.902"/>
		
			<line fill="none" stroke="#263238" stroke-width="2" stroke-linecap="round" stroke-linejoin="round" stroke-miterlimit="10" x1="73.807" y1="73.63" x2="73.807" y2="92.902"/>
		
			<line fill="none" stroke="#263238" stroke-width="2" stroke-linecap="round" stroke-linejoin="round" stroke-miterlimit="10" x1="77.019" y1="72.988" x2="77.019" y2="92.26"/>
		
			<line fill="none" stroke="#263238" stroke-width="2" stroke-linecap="round" stroke-linejoin="round" stroke-miterlimit="10" x1="80.23" y1="72.345" x2="80.23" y2="91.617"/>
		
			<line fill="none" stroke="#263238" stroke-width="2" stroke-linecap="round" stroke-linejoin="round" stroke-miterlimit="10" x1="83.443" y1="71.703" x2="83.443" y2="90.975"/>
		
			<line fill="none" stroke="#263238" stroke-width="2" stroke-linecap="round" stroke-linejoin="round" stroke-miterlimit="10" x1="86.655" y1="70.418" x2="86.655" y2="89.69"/>
		
			<line fill="none" stroke="#263238" stroke-width="2" stroke-linecap="round" stroke-linejoin="round" stroke-miterlimit="10" x1="89.867" y1="69.775" x2="89.867" y2="88.405"/>
		
			<line fill="none" stroke="#263238" stroke-width="2" stroke-linecap="round" stroke-linejoin="round" stroke-miterlimit="10" x1="93.079" y1="67.848" x2="93.079" y2="87.121"/>
		
			<line fill="none" stroke="#263238" stroke-width="2" stroke-linecap="round" stroke-linejoin="round" stroke-miterlimit="10" x1="96.291" y1="66.563" x2="96.291" y2="85.193"/>
		
			<line fill="none" stroke="#263238" stroke-width="2" stroke-linecap="round" stroke-linejoin="round" stroke-miterlimit="10" x1="99.503" y1="63.994" x2="99.503" y2="82.624"/>
		
			<line fill="none" stroke="#263238" stroke-width="2" stroke-linecap="round" stroke-linejoin="round" stroke-miterlimit="10" x1="102.073" y1="60.621" x2="102.073" y2="79.412"/>
		
			<line fill="none" stroke="#263238" stroke-width="2" stroke-linecap="round" stroke-linejoin="round" stroke-miterlimit="10" x1="60.959" y1="73.63" x2="60.959" y2="92.902"/>
		
			<line fill="none" stroke="#263238" stroke-width="2" stroke-linecap="round" stroke-linejoin="round" stroke-miterlimit="10" x1="57.746" y1="73.63" x2="57.746" y2="92.902"/>
		
			<line fill="none" stroke="#263238" stroke-width="2" stroke-linecap="round" stroke-linejoin="round" stroke-miterlimit="10" x1="54.534" y1="73.63" x2="54.534" y2="92.902"/>
		
			<line fill="none" stroke="#263238" stroke-width="2" stroke-linecap="round" stroke-linejoin="round" stroke-miterlimit="10" x1="51.322" y1="72.988" x2="51.322" y2="92.26"/>
		
			<line fill="none" stroke="#263238" stroke-width="2" stroke-linecap="round" stroke-linejoin="round" stroke-miterlimit="10" x1="48.11" y1="72.345" x2="48.11" y2="91.617"/>
		
			<line fill="none" stroke="#263238" stroke-width="2" stroke-linecap="round" stroke-linejoin="round" stroke-miterlimit="10" x1="44.898" y1="71.703" x2="44.898" y2="90.975"/>
		
			<line fill="none" stroke="#263238" stroke-width="2" stroke-linecap="round" stroke-linejoin="round" stroke-miterlimit="10" x1="41.687" y1="70.418" x2="41.687" y2="89.69"/>
		
			<line fill="none" stroke="#263238" stroke-width="2" stroke-linecap="round" stroke-linejoin="round" stroke-miterlimit="10" x1="38.475" y1="69.133" x2="38.475" y2="88.405"/>
		
			<line fill="none" stroke="#263238" stroke-width="2" stroke-linecap="round" stroke-linejoin="round" stroke-miterlimit="10" x1="35.263" y1="67.848" x2="35.263" y2="87.121"/>
		
			<line fill="none" stroke="#263238" stroke-width="2" stroke-linecap="round" stroke-linejoin="round" stroke-miterlimit="10" x1="32.05" y1="66.563" x2="32.05" y2="85.193"/>
		
			<line fill="none" stroke="#263238" stroke-width="2" stroke-linecap="round" stroke-linejoin="round" stroke-miterlimit="10" x1="28.838" y1="63.994" x2="28.838" y2="82.302"/>
		
			<line fill="none" stroke="#263238" stroke-width="2" stroke-linecap="round" stroke-linejoin="round" stroke-miterlimit="10" x1="25.626" y1="60.139" x2="25.626" y2="78.723"/>
		<path fill="none" stroke="#263238" stroke-width="2" stroke-linecap="round" stroke-linejoin="round" stroke-miterlimit="10" d="
			M92.673,64.326c-6.729,3.708-17.005,6.077-28.52,6.077c-20.269,0-36.7-7.343-36.7-16.401c0-9.058,16.432-16.401,36.7-16.401
			c20.27,0,36.701,7.343,36.701,16.401c0,2.597-1.351,5.052-3.754,7.234"/>
	</g>
</g>
</svg>
