<?xml version="1.0" encoding="utf-8"?>
<!-- Generator: Adobe Illustrator 16.0.0, SVG Export Plug-In . SVG Version: 6.00 Build 0)  -->
<!DOCTYPE svg PUBLIC "-//W3C//DTD SVG 1.1//EN" "http://www.w3.org/Graphics/SVG/1.1/DTD/svg11.dtd">
<svg version="1.1" id="Layer_1" xmlns="http://www.w3.org/2000/svg" xmlns:xlink="http://www.w3.org/1999/xlink" x="0px" y="0px"
	 width="128px" height="128px" viewBox="0 0 128 128" enable-background="new 0 0 128 128" xml:space="preserve">
<circle fill="#BDBDBD" stroke="#231F20" stroke-miterlimit="10" cx="64" cy="64" r="64"/>
<g>
	<g>
		<path fill="none" d="M56.462,53.46c0.064-0.01,0.127-0.02,0.194-0.02C56.59,53.44,56.525,53.447,56.462,53.46z"/>
		<path fill="#BCAAA4" d="M58.32,56.32l-1.286,30.115c0.17-0.018,0.341-0.035,0.517-0.035h12.274c0.175,0,0.346,0.019,0.516,0.038
			L69.088,56.32H58.32z"/>
		<path fill="none" d="M69.44,53.44c0.066,0,0.13,0.01,0.194,0.02C69.571,53.447,69.506,53.44,69.44,53.44z"/>
		<path fill="#616161" d="M80,101.12h-0.32H48.64c-0.529,0-1.28,0.11-1.28,0.64v0.64c0,0.529,0.751,1.28,1.28,1.28H80
			c0.529,0,0.64-0.751,0.64-1.28v-0.32v-0.32C80.64,101.23,80.529,101.12,80,101.12z"/>
		<path fill="#616161" d="M54.143,88.956c0.396-0.063,0.801,0.004,1.217,0.644h16.32c0.535-0.64,1.051-0.685,1.547-0.577
			c-0.611-1.273-1.913-1.983-3.402-1.983H57.551C56.018,87.04,54.741,87.706,54.143,88.956z"/>
		<polygon fill="#BCAAA4" points="58.828,43.52 58.422,53.76 68.947,53.76 68.547,43.52 		"/>
		<path fill="#E0E0E0" d="M54.474,30.544l2.44,11.034c0.118,0.528,0.788,1.301,1.476,1.301h0.132h10.333h0.131
			c0.688,0,1.358-0.773,1.475-1.3l2.44-10.955c0.042-0.189,0.011-0.231-0.093-0.361c-0.155-0.193-0.454-0.184-0.821-0.184H55.389
			c-0.367,0-0.667-0.049-0.821,0.144C54.463,30.354,54.432,30.355,54.474,30.544z"/>
		<path fill="#616161" d="M69.705,55.68h0.375c0.529,0,0.96-0.591,0.96-1.12c0-0.463-0.33-0.771-0.766-0.86
			c-0.064-0.01-0.127,0.06-0.194,0.06h-0.789c-0.005,0-0.009,0-0.014,0H68.8h-4.48h-7.023c-0.066,0-0.13-0.15-0.194-0.14
			c-0.437,0.089-0.766,0.557-0.766,1.02c0,0.529,0.431,1.04,0.96,1.04h0.424h0.305h0.316H69.705z"/>
		<path fill="#78909C" d="M49.28,95.08l-0.64,6.04h29.44v-6.08c0-3.23-2.991-5.44-6.4-5.44h-4.8H55.36
			C51.831,89.6,49.28,91.882,49.28,95.08z"/>
		<path fill="#BCAAA4" d="M63.72,24.32h-0.6c-1.252,0-2.32,0.397-2.32,1.6v3.52h4.48v-3.52C65.28,24.682,64.932,24.32,63.72,24.32z"
			/>
	</g>
	<g>
		<path fill="none" stroke="#263238" stroke-width="2" stroke-linecap="round" stroke-linejoin="round" stroke-miterlimit="10" d="
			M80.96,102.72c0,0.707-0.573,1.28-1.28,1.28H48.32c-0.707,0-1.28-0.573-1.28-1.28v-0.64c0-0.707,0.573-1.28,1.28-1.28h31.36
			c0.707,0,1.28,0.573,1.28,1.28V102.72z"/>
		<path fill="none" stroke="#263238" stroke-width="2" stroke-linecap="round" stroke-linejoin="round" stroke-miterlimit="10" d="
			M71.12,89.169c3.52,0,7.28,2.391,7.28,5.911v5.4"/>
		<path fill="none" stroke="#263238" stroke-width="2" stroke-linecap="round" stroke-linejoin="round" stroke-miterlimit="10" d="
			M49,100.627l-0.04-5.587c0-3.175,2.522-5.76,6.4-5.76h11.2"/>
		<path fill="none" stroke="#263238" stroke-width="2" stroke-linecap="round" stroke-linejoin="round" stroke-miterlimit="10" d="
			M53.735,89.013c0.597-1.525,2.085-2.292,3.816-2.292h12.274c1.729,0,3.216,0.925,3.814,2.449"/>
		
			<line fill="none" stroke="#263238" stroke-width="2" stroke-linecap="round" stroke-linejoin="round" stroke-miterlimit="10" x1="69.385" y1="55.99" x2="70.667" y2="86.08"/>
		
			<polyline fill="none" stroke="#263238" stroke-width="2" stroke-linecap="round" stroke-linejoin="round" stroke-miterlimit="10" points="
			58.097,53.084 58.521,43.2 68.854,43.2 69.278,53.23 		"/>
		
			<line fill="none" stroke="#263238" stroke-width="2" stroke-linecap="round" stroke-linejoin="round" stroke-miterlimit="10" x1="56.708" y1="86.08" x2="58.026" y2="55.99"/>
		<path fill="none" stroke="#263238" stroke-width="2" stroke-linecap="round" stroke-linejoin="round" stroke-miterlimit="10" d="
			M70.773,41.649c-0.154,0.692-0.958,1.551-1.788,1.551H58.39c-0.829,0-1.634-0.859-1.788-1.551l-2.44-10.794
			c-0.154-0.691,0.398-1.095,1.227-1.095h16.597c0.829,0,1.381,0.403,1.227,1.095L70.773,41.649z"/>
		<path fill="none" stroke="#263238" stroke-width="2" stroke-linecap="round" stroke-linejoin="round" stroke-miterlimit="10" d="
			M68.48,53.44h1.6c0.704,0,1.28,0.576,1.28,1.28l0,0c0,0.704-0.576,1.28-1.28,1.28H57.296c-0.704,0-1.28-0.576-1.28-1.28l0,0
			c0-0.704,0.576-1.28,1.28-1.28H64"/>
		<path fill="none" stroke="#263238" stroke-width="2" stroke-linecap="round" stroke-linejoin="round" stroke-miterlimit="10" d="
			M61.12,29.44v-3.52c0-1.408,1.365-1.92,2.773-1.92h0.374c1.408,0,1.973,0.512,1.973,1.92v3.52"/>
	</g>
</g>
</svg>
