<?xml version="1.0" encoding="utf-8"?>
<!-- Generator: Adobe Illustrator 16.0.0, SVG Export Plug-In . SVG Version: 6.00 Build 0)  -->
<!DOCTYPE svg PUBLIC "-//W3C//DTD SVG 1.1//EN" "http://www.w3.org/Graphics/SVG/1.1/DTD/svg11.dtd">
<svg version="1.1" id="Layer_1" xmlns="http://www.w3.org/2000/svg" xmlns:xlink="http://www.w3.org/1999/xlink" x="0px" y="0px"
	 width="128px" height="128px" viewBox="0 0 128 128" enable-background="new 0 0 128 128" xml:space="preserve">
<circle fill="#80DEEA" stroke="#231F20" stroke-miterlimit="10" cx="64" cy="64" r="64"/>
<g>
	<g>
		<path fill="#E0F2F1" d="M89.588,51.598c-5.279-12.721-17.547-20.926-31.341-20.926c-18.708,0-33.928,15.22-33.928,33.928
			c0,9.795,4.226,19.097,11.603,25.548c6.654-1.771,13.679-0.643,20.887,3.357c6.333,3.514,12.409,3.827,16.672,0.856
			c3.048-2.125,4.589-5.729,4.021-9.403c-0.081-0.525-0.187-1.13-0.304-1.8l-0.017-0.095l1.302-23.001L89.588,51.598z"/>
		<path fill="none" d="M85.094,84.008c2.076,6.33,6.661,8.739,9.063,8.739h6.329v-8.943H85.027c0,0,0.001-0.018,0.003-0.015
			C85.051,83.88,85.072,83.944,85.094,84.008z"/>
		<path fill="none" d="M83.993,80.609h16.493v-4.472H82.548c0.201,0.639,0.401,1.225,0.595,1.789
			C83.439,78.792,83.721,79.332,83.993,80.609z"/>
		<path fill="#E0F2F1" d="M75.953,63.292c-1.209,2.086-1.984,4.599-2.302,7.487l2.541,1.592c0.121-1.937,0.435-3.739,0.952-5.259
			C76.696,65.675,76.291,64.375,75.953,63.292z"/>
		<path fill="#B2DFDB" d="M75.494,61.817l-4.183,1.816c-0.019,0.008-2.198,1.018-3.201,3.191l-0.143,0.393l5.087,3.188
			c0.377-3.079,1.263-5.746,2.644-7.932C75.626,62.242,75.558,62.019,75.494,61.817z"/>
		<path fill="#E0F2F1" d="M73.487,74.643c0.03,1.773,0.184,3.729,0.481,5.87c0.003,0.016-0.002,0.097-0.002,0.097h2.691
			c-0.223-1.917-0.367-2.923-0.449-4.196L73.487,74.643z"/>
		<path fill="#B2DFDB" d="M59.665,82.913c-0.294-0.419-0.376-1.142-0.194-1.647l5.665-15.59c0.014-0.04,0.028-0.08,0.045-0.115
			c1.53-3.384,4.724-4.787,4.858-4.845l16.534-7.17c-1.664-4.041-4.238-7.761-7.456-10.759l-6.017-4.388
			c-4.54-2.54-9.722-3.893-14.953-3.893c-16.948,0-30.735,13.787-30.735,30.734c0,8.266,3.399,16.294,9.329,22.054
			c1.764-0.354,3.499-0.526,5.302-0.526c5.277,0,10.734,1.542,16.215,4.584c2.945,1.635,5.734,2.464,8.29,2.464
			c2.617,0,4.841-0.911,6.26-2.566c1.22-1.425,1.73-3.258,1.438-5.163c-0.074-0.473-0.169-0.962-0.272-1.557l-0.135-0.724H60.973
			C60.324,83.804,59.843,83.166,59.665,82.913z M54.002,83.404c-2.282,0-4.137-1.856-4.137-4.138c0-2.282,1.854-4.138,4.137-4.138
			s4.139,1.856,4.139,4.138C58.141,81.548,56.284,83.404,54.002,83.404z"/>
		<path fill="#B2DFDB" d="M66.853,70.5L63.25,80.609h10.082c-0.322-2.555-0.482-4.396-0.492-6.3L66.853,70.5z"/>
		<path fill="#E0F2F1" d="M90.048,55.309l-12.246,5.394c0.197,0.639,0.457,1.49,0.76,2.488c1.456-1.843,3.438-3.174,5.925-3.986
			c0.729-0.238,1.498-0.436,2.312-0.585c1.24-0.226,2.578-0.351,4.015-0.369C90.607,57.262,90.345,56.278,90.048,55.309z"/>
		<path fill="#BCAAA4" d="M103.217,73.583H81.95c-0.14,0-0.262-0.141-0.304-0.273c-0.032-0.102-0.065-0.229-0.098-0.33
			c-1.093-3.443-2.158-6.958-2.943-9.536c-0.355-1.17-0.651-2.146-0.859-2.817c-0.048-0.155,0.027-0.325,0.176-0.391l10.809-4.762
			l2.228-0.981l0.04-0.018c0.234-0.102,0.414-0.295,0.51-0.545c0.095-0.248,0.09-0.524-0.011-0.758
			c-0.155-0.355-0.515-0.595-0.896-0.595c-0.126,0-0.248,0.026-0.365,0.076l-0.421,0.183L70.292,61.3
			c-0.032,0.014-3.101,1.358-4.529,4.517l-0.028,0.068l-5.662,15.575c-0.111,0.305-0.058,0.84,0.116,1.087
			c0.184,0.262,0.499,0.618,0.784,0.618h16.108h0.315h0.32h4.808c0.366,0,0.462,0.355,0.638,1.092
			c0.049,0.205,0.096,0.432,0.143,0.574c2.514,7.665,8.25,10.472,11.491,10.472h8.421c0.483,0,0.464-0.95,0.464-1.399V74.106
			C103.681,73.575,103.736,73.583,103.217,73.583z M67.279,67.242l0.24-0.661c1.124-2.44,3.51-3.523,3.535-3.533l4.512-1.959
			c0.083-0.036,0.177-0.035,0.261,0.003c0.082,0.038,0.145,0.109,0.172,0.195c0.791,2.548,2.576,8.279,4.302,13.749
			c0.042,0.128-0.002,0.267-0.108,0.349c-0.058,0.044-0.126,0.067-0.195,0.067c-0.059,0-0.117-0.016-0.17-0.049l-3.202-2.006
			l-0.464-0.291l-8.751-5.484C67.281,67.542,67.228,67.383,67.279,67.242z M81.956,81.074c-0.061,0.078-0.154,0.174-0.253,0.174
			h-3.52H62.797c-0.104,0-0.202-0.101-0.262-0.186c-0.06-0.085-0.073-0.22-0.039-0.318l3.89-10.874
			c0.032-0.091,0.104-0.169,0.197-0.201c0.091-0.032,0.191-0.023,0.274,0.029l9.479,5.989l0.488,0.308l2.76,1.744l1.775,1.122
			c0.062,0.041,0.109,0.102,0.134,0.173l0.105,0.33c0.14,0.436,0.278,0.891,0.413,1.406C82.037,80.868,82.017,80.995,81.956,81.074z
			 M101.764,92.965c0,0.177,0.006,0.421-0.172,0.421h-0.319h-6.477c-2.58,0-7.489-2.528-9.67-9.178
			c-0.026-0.077-0.053-0.21-0.078-0.32c-0.02-0.077-0.047-0.208-0.067-0.272c-0.056-0.058-0.088-0.091-0.088-0.175
			c0-0.177,0.143-0.275,0.319-0.275h16.38c0.178,0,0.172,0.042,0.172,0.218V92.965z M101.764,80.827
			c0,0.177,0.006,0.421-0.172,0.421h-0.319H84.386c-0.145,0-0.271-0.148-0.308-0.289c-0.286-1.084-0.584-1.98-0.901-2.902
			c-0.235-0.686-0.479-1.409-0.727-2.236c-0.029-0.097-0.011-0.157,0.05-0.238s0.155-0.084,0.257-0.084h18.835
			c0.178,0,0.172,0.041,0.172,0.218V80.827z"/>
		<path fill="#FF8A65" d="M54.002,75.768c-1.929,0-3.498,1.569-3.498,3.499c0,1.93,1.569,3.499,3.498,3.499
			c1.931,0,3.5-1.569,3.5-3.499C57.502,77.337,55.933,75.768,54.002,75.768z"/>
	</g>
	<g>
		<path fill="none" stroke="#263238" stroke-width="2" stroke-linecap="round" stroke-linejoin="round" stroke-miterlimit="10" d="
			M76.521,76.302c0.094,1.467,0.265,2.891,0.458,4.206"/>
		<path fill="none" stroke="#263238" stroke-width="2" stroke-linecap="round" stroke-linejoin="round" stroke-miterlimit="10" d="
			M77.469,67.07c-0.635,1.832-0.925,3.818-1.002,5.813"/>
		<path fill="none" stroke="#263238" stroke-width="2" stroke-linecap="round" stroke-linejoin="round" stroke-miterlimit="10" d="
			M90.974,55.124c0.348,1.125,0.638,2.273,0.869,3.443c-6.593,0-10.492,2.132-12.717,5.245"/>
		<path fill="none" stroke="#263238" stroke-width="2" stroke-linecap="round" stroke-linejoin="round" stroke-miterlimit="10" d="
			M77.817,85.549c1.31,8.477-8.061,16.146-21.164,8.875c-9.559-5.305-16.69-4.413-20.812-3.283C28.588,84.86,24,75.586,24,65.239
			c0-18.915,15.333-34.248,34.247-34.248c14.368,0,26.669,8.85,31.751,21.395"/>
		<path fill="none" stroke="#263238" stroke-width="2" stroke-linecap="round" stroke-linejoin="round" stroke-miterlimit="10" d="
			M103.217,73.263H81.95c-1.628-5.11-3.221-10.507-3.898-12.687l13.074-5.784c0.647-0.282,0.944-1.087,0.664-1.735
			c-0.28-0.646-1.034-0.971-1.681-0.691L70.165,61.01c-0.131,0.056-3.223,1.426-4.692,4.676c-0.014,0.029-0.026,0.057-0.038,0.087
			l-5.663,15.578c-0.143,0.392-0.084,1.038,0.154,1.379c0.24,0.341,0.631,0.754,1.047,0.754h21.552c0.169,0,0.328,1.021,0.477,1.471
			c2.565,7.819,8.46,10.667,11.795,10.667h8.421c0.705,0,0.783-1.013,0.783-1.718V74.106C104,73.401,103.922,73.263,103.217,73.263z
			 M101.444,75.818v5.11H84.386c-0.502-1.917-1.058-3.194-1.629-5.11H101.444z M71.185,63.34l4.509-1.958
			c0.792,2.548,2.578,8.28,4.304,13.75L67.58,67.351l0.239-0.661C68.882,64.388,71.167,63.347,71.185,63.34z M62.797,80.929
			l3.89-10.912l14.502,9.191c0.175,0.551,0.348,1.082,0.515,1.721H62.797z M94.796,93.066c-2.493,0-7.24-2.426-9.366-8.908
			c-0.07-0.21-0.144-0.674-0.218-0.674h16.232v9.583H94.796z"/>
		
			<circle fill="none" stroke="#263238" stroke-width="2" stroke-linecap="round" stroke-linejoin="round" stroke-miterlimit="10" cx="54.003" cy="79.267" r="3.818"/>
		<path fill="none" stroke="#263238" stroke-width="2" stroke-linecap="round" stroke-linejoin="round" stroke-miterlimit="10" d="
			M74.156,83.669c0.06,0.348,0.059,0.335,0.115,0.654c0.11,0.637,0.212,1.212,0.289,1.713c0.309,1.999-0.229,3.923-1.511,5.419
			c-1.48,1.727-3.789,2.678-6.502,2.678c-2.61,0-5.451-0.842-8.444-2.504c-5.433-3.014-10.836-4.544-16.061-4.544
			c-1.826,0-3.608,0.182-5.402,0.554c-6.087-5.846-9.548-13.922-9.548-22.4c0-17.123,13.931-31.053,31.055-31.053 M73.157,74.117
			c0.005,2.249,0.223,4.434,0.496,6.39 M76.045,62.516c-1.639,2.535-2.433,5.466-2.735,8.423 M79.334,42.552
			c3.257,3.034,5.872,6.77,7.59,10.996 M58.147,34.186c5.448,0,10.629,1.427,15.142,3.954"/>
		<path fill="none" stroke="#263238" stroke-width="2" stroke-linecap="round" stroke-linejoin="round" stroke-miterlimit="10" d="
			M77.562,84.025c0.097,0.56,0.186,1.071,0.256,1.523c1.31,8.477-8.061,16.146-21.164,8.875c-9.559-5.305-16.69-4.413-20.812-3.283
			C28.588,84.86,24,75.586,24,65.239c0-18.915,15.333-34.248,34.247-34.248c14.368,0,26.669,8.85,31.751,21.395"/>
	</g>
</g>
</svg>
