<?xml version="1.0" encoding="utf-8"?>
<!-- Generator: Adobe Illustrator 16.0.0, SVG Export Plug-In . SVG Version: 6.00 Build 0)  -->
<!DOCTYPE svg PUBLIC "-//W3C//DTD SVG 1.1//EN" "http://www.w3.org/Graphics/SVG/1.1/DTD/svg11.dtd">
<svg version="1.1" id="Layer_1" xmlns="http://www.w3.org/2000/svg" xmlns:xlink="http://www.w3.org/1999/xlink" x="0px" y="0px"
	 width="128px" height="128px" viewBox="0 0 128 128" enable-background="new 0 0 128 128" xml:space="preserve">
<circle fill="#FF7043" stroke="#231F20" stroke-miterlimit="10" cx="64" cy="64" r="64"/>
<g>
	<g>
		<path fill="#4DB6AC" d="M25.486,56.151c-0.503,0-0.946,0.229-1.217,0.629c-0.489,0.721-0.292,1.846,0.422,2.33
			c3.361,2.275,7.587,3.597,11.898,3.597h53.834c4.36,0,8.6-1.318,11.936-3.59c0.342-0.233,0.583-0.652,0.662-1.092
			c0.08-0.44-0.01-0.908-0.245-1.254c-0.466-0.683-1.48-0.781-2.197-0.292c-2.849,1.938-6.454,3.064-10.155,3.064H36.59
			c-3.717,0-7.312-1.116-10.124-3.02C26.17,56.324,25.832,56.151,25.486,56.151z"/>
		<path fill="#42A5F5" d="M42.367,68.358c0-1.918-1.561-3.479-3.479-3.479s-3.479,1.562-3.479,3.479
			c0,1.918,1.561,3.479,3.479,3.479S42.367,70.277,42.367,68.358z"/>
		<path fill="#B2DFDB" d="M38.834,66.719c-0.849,0.001-1.559,0.711-1.559,1.585c0,0.873,0.71,1.583,1.583,1.583
			c0.46,0,0.919-0.201,1.227-0.539c0.265-0.289,0.392-0.65,0.357-1.015C40.308,66.85,38.895,66.724,38.834,66.719z"/>
		<path fill="#42A5F5" d="M92.97,68.304c0-1.918-1.561-3.479-3.479-3.479c-1.918,0-3.479,1.561-3.479,3.479s1.562,3.479,3.479,3.479
			C91.409,71.784,92.97,70.223,92.97,68.304z"/>
		<path fill="#B2DFDB" d="M89.492,66.665c-0.904,0-1.614,0.711-1.614,1.585c0,0.873,0.71,1.583,1.583,1.583
			c0.506,0,1.033-0.246,1.344-0.626c0.157-0.191,0.327-0.502,0.246-0.894C90.731,66.745,89.696,66.665,89.492,66.665z"/>
	</g>
	<g>
		<g>
			<path fill="none" stroke="#263238" stroke-width="2" stroke-linecap="round" stroke-linejoin="round" stroke-miterlimit="10" d="
				M91.057,63.023H37.222c-4.499,0-8.787-1.424-12.075-3.65c-0.867-0.589-1.095-1.869-0.507-2.736
				c0.587-0.868,1.767-0.944,2.636-0.359c2.665,1.805,6.198,2.95,9.946,2.95h53.835c3.764,0,7.307-1.201,9.977-3.018
				c0.866-0.591,2.047-0.466,2.637,0.4s0.366,2.197-0.5,2.786C99.876,61.638,95.575,63.023,91.057,63.023z"/>
		</g>
		
			<circle fill="none" stroke="#263238" stroke-width="2" stroke-linecap="round" stroke-linejoin="round" stroke-miterlimit="10" cx="38.888" cy="68.358" r="3.796"/>
		<path fill="none" stroke="#263238" stroke-width="2" stroke-linecap="round" stroke-linejoin="round" stroke-miterlimit="10" d="
			M40.758,68.304c0,1.049-0.851,1.899-1.899,1.899c-1.05,0-1.899-0.85-1.899-1.899c0-1.05,0.85-1.9,1.899-1.9"/>
		
			<circle fill="none" stroke="#263238" stroke-width="2" stroke-linecap="round" stroke-linejoin="round" stroke-miterlimit="10" cx="89.491" cy="68.304" r="3.795"/>
		<path fill="none" stroke="#263238" stroke-width="2" stroke-linecap="round" stroke-linejoin="round" stroke-miterlimit="10" d="
			M91.361,68.25c0,1.049-0.851,1.899-1.9,1.899c-1.049,0-1.899-0.85-1.899-1.899c0-1.049,0.851-1.9,1.899-1.9"/>
		
			<line fill="none" stroke="#263238" stroke-width="2" stroke-linecap="round" stroke-linejoin="round" stroke-miterlimit="10" x1="38.378" y1="64.604" x2="38.378" y2="63.339"/>
		
			<line fill="none" stroke="#263238" stroke-width="2" stroke-linecap="round" stroke-linejoin="round" stroke-miterlimit="10" x1="88.988" y1="64.604" x2="88.988" y2="63.339"/>
	</g>
</g>
</svg>
