<?xml version="1.0" encoding="utf-8"?>
<!-- Generator: Adobe Illustrator 16.0.0, SVG Export Plug-In . SVG Version: 6.00 Build 0)  -->
<!DOCTYPE svg PUBLIC "-//W3C//DTD SVG 1.1//EN" "http://www.w3.org/Graphics/SVG/1.1/DTD/svg11.dtd">
<svg version="1.1" id="Layer_1" xmlns="http://www.w3.org/2000/svg" xmlns:xlink="http://www.w3.org/1999/xlink" x="0px" y="0px"
	 width="128px" height="128px" viewBox="0 0 128 128" enable-background="new 0 0 128 128" xml:space="preserve">
<circle fill="#DCEDC8" stroke="#231F20" stroke-miterlimit="10" cx="64" cy="64" r="64"/>
<g>
	<g>
		<path fill="none" d="M63.979,84.603v0.317h0.317C64.12,84.92,63.979,84.778,63.979,84.603z"/>
		<path fill="#4CAF50" d="M71.569,87.154H56.43h-7.055c-0.159,0-0.309-0.035-0.45-0.086l0.677,2.625h28.791l0.679-2.627
			c-0.142,0.053-0.29,0.088-0.447,0.088H71.569z"/>
		<path fill="#FFE082" d="M63.999,103.683c7.917,0,14.141-5.738,14.305-13.989H49.696C49.859,97.945,56.083,103.683,63.999,103.683z
			"/>
		<path fill="#EEEEEE" d="M30.694,25.624l17.763,60.374l0.004-0.139c0.118,0.403,0.488,0.661,0.914,0.661h29.249
			c0.416,0,0.8-0.291,0.915-0.701l17.767-60.194c0.082-0.287,0.022-0.716-0.157-0.954c-0.133-0.175-0.338-0.354-0.759-0.354H80.765
			h-33.53H31.61c-0.422,0-0.628,0.217-0.76,0.392C30.665,24.954,30.616,25.349,30.694,25.624z M81.549,26.644
			c0.023-0.155,0.156-0.422,0.313-0.422h12.85c0.1,0,0.194,0.199,0.254,0.279c0.061,0.081,0.079,0.26,0.051,0.356L77.968,84.502
			c-0.039,0.135-0.163,0.113-0.304,0.113h-4.626c-0.093,0-0.181,0.112-0.24,0.042c-0.062-0.071-0.087-0.164-0.073-0.255
			L81.549,26.644z M64.634,84.603V27.161v-0.317c0-0.176,0.121-0.622,0.297-0.622h14.366c0.093,0,0.181,0.192,0.241,0.263
			c0.061,0.071,0.087,0.24,0.072,0.331L70.786,84.46c-0.023,0.155-0.157,0.155-0.313,0.155h-5.542h-0.297V84.603z M48.461,26.484
			c0.061-0.07,0.147-0.263,0.241-0.263h13.689c0.176,0,0.338,0.446,0.338,0.622v57.759c0,0.175-0.162,0.013-0.338,0.013h-0.317
			h-4.548c-0.157,0-0.29,0.038-0.313-0.117l-8.825-57.759C48.374,26.648,48.4,26.555,48.461,26.484z M33.032,26.501
			c0.061-0.08,0.155-0.279,0.255-0.279h12.85c0.157,0,0.29,0.267,0.313,0.422l8.824,57.835c0.014,0.091-0.013,0.07-0.073,0.141
			c-0.06,0.07-0.147-0.004-0.24-0.004h-4.626c-0.141,0-0.265,0.06-0.305-0.075L32.982,26.781
			C32.954,26.685,32.973,26.582,33.032,26.501z"/>
	</g>
	<g>
		<path fill="none" stroke="#263238" stroke-width="2" stroke-linecap="round" stroke-linejoin="round" stroke-miterlimit="10" d="
			M72.251,89.376H49.375c0,8.251,6.548,14.624,14.624,14.624c8.077,0,14.625-6.373,14.625-14.624h-1.296"/>
		
			<line fill="none" stroke="#263238" stroke-width="2" stroke-linecap="round" stroke-linejoin="round" stroke-miterlimit="10" x1="49.084" y1="89.059" x2="49.084" y2="87.154"/>
		
			<line fill="none" stroke="#263238" stroke-width="2" stroke-linecap="round" stroke-linejoin="round" stroke-miterlimit="10" x1="78.28" y1="89.059" x2="78.28" y2="87.154"/>
		<path fill="none" stroke="#263238" stroke-width="2" stroke-linecap="round" stroke-linejoin="round" stroke-miterlimit="10" d="
			M97.4,24.517C97.161,24.2,96.786,24,96.39,24H80.765h-33.53H31.61c-0.398,0-0.772,0.2-1.013,0.517
			c-0.239,0.317-0.317,0.735-0.209,1.117l17.765,60.267c0.155,0.547,0.653,0.936,1.222,0.936h7.055h15.14h7.055
			c0.567,0,1.066-0.386,1.221-0.933L97.61,25.639C97.719,25.256,97.641,24.834,97.4,24.517z M33.287,26.539h12.85l8.824,57.759
			h-4.626L33.287,26.539z M48.702,26.539h13.711v57.759h-4.887L48.702,26.539z M64.951,84.298V26.539h14.346l-8.824,57.759H64.951z
			 M77.664,84.298h-4.626l8.824-57.759h12.85L77.664,84.298z"/>
	</g>
</g>
</svg>
