<?xml version="1.0" encoding="utf-8"?>
<!-- Generator: Adobe Illustrator 16.0.0, SVG Export Plug-In . SVG Version: 6.00 Build 0)  -->
<!DOCTYPE svg PUBLIC "-//W3C//DTD SVG 1.1//EN" "http://www.w3.org/Graphics/SVG/1.1/DTD/svg11.dtd">
<svg version="1.1" id="Layer_1" xmlns="http://www.w3.org/2000/svg" xmlns:xlink="http://www.w3.org/1999/xlink" x="0px" y="0px"
	 width="128px" height="128px" viewBox="0 0 128 128" enable-background="new 0 0 128 128" xml:space="preserve">
<circle fill="#DCE775" stroke="#231F20" stroke-miterlimit="10" cx="64" cy="64" r="64"/>
<g>
	<g>
		<path fill="none" d="M63.337,104c-0.012,0-0.022-0.001-0.035-0.001V104H63.337z"/>
		<path fill="#F9A825" d="M76.32,90.957c0-6.809-5.54-12.369-12.347-12.369c-0.002,0-0.002,0-0.002,0
			c-6.809,0-12.349,5.699-12.349,12.507c0,3.299,1.285,6.34,3.617,8.672c2.333,2.333,5.433,3.558,8.73,3.558
			c0.001,0,0.001,0,0.001,0C70.78,103.326,76.32,97.766,76.32,90.957z"/>
		<path fill="#FBC02D" d="M73.126,91.254c0-1.412-0.378-2.846-1.188-4.514c-0.632-1.301-3.104-3.242-3.128-3.262
			c-1.43-0.895-3.11-1.377-4.838-1.377c-2.445,0-4.744,0.952-6.473,2.681c-1.729,1.729-2.681,4.027-2.681,6.472
			c0,5.048,4.105,9.154,9.152,9.154C69.019,100.408,73.126,96.302,73.126,91.254z"/>
		<path fill="#F9A825" d="M63.972,86.457c-2.645,0-4.797,2.152-4.797,4.797s2.152,4.797,4.797,4.797
			c2.646,0,4.797-2.152,4.797-4.797S66.617,86.457,63.972,86.457z"/>
		<path fill="#FF7043" d="M92.781,25.744c0.263-0.454,0.106-1.036-0.347-1.298c-0.22-0.127-0.474-0.161-0.719-0.096
			c-0.246,0.065-0.452,0.223-0.58,0.443L64.91,70.15c0.619,0.168,1.181,0.499,1.633,0.974L92.781,25.744z"/>
		<path fill="#D50000" d="M65.503,73.984c-0.11,0.409-0.371,0.751-0.738,0.962c-0.239,0.139-0.513,0.213-0.791,0.213
			c-0.564,0-1.091-0.303-1.373-0.791l-1.23-2.128c-0.191,0.375-0.301,0.787-0.319,1.211c-0.066,1.61,1.188,2.976,2.799,3.043
			c1.628,0.068,2.976-1.188,3.042-2.798c0.034-0.78-0.238-1.526-0.768-2.101c-0.524-0.57-1.236-0.902-2.01-0.939l1.229,2.125
			C65.556,73.148,65.612,73.575,65.503,73.984z"/>
		<path fill="#FF8A65" d="M64.795,73.1l-1.472-2.545L36.865,24.792c-0.17-0.293-0.486-0.475-0.824-0.475
			c-0.166,0-0.329,0.044-0.473,0.128c-0.221,0.127-0.378,0.332-0.444,0.577c-0.065,0.246-0.032,0.501,0.096,0.721l26.455,45.758
			l1.475,2.549c0.253,0.436,0.861,0.601,1.298,0.347c0.22-0.127,0.377-0.332,0.442-0.578C64.956,73.575,64.921,73.319,64.795,73.1z"
			/>
	</g>
	<g>
		
			<circle fill="none" stroke="#263238" stroke-width="2" stroke-linecap="round" stroke-linejoin="round" stroke-miterlimit="10" cx="63.972" cy="91.254" r="12.666"/>
		<path fill="none" stroke="#263238" stroke-width="2" stroke-linecap="round" stroke-linejoin="round" stroke-miterlimit="10" d="
			M72.224,86.602c0.775,1.374,1.22,2.962,1.22,4.652c0,5.23-4.24,9.471-9.472,9.471c-5.23,0-9.471-4.24-9.471-9.471
			c0-5.23,4.239-9.47,9.471-9.47c1.849,0,3.574,0.53,5.032,1.445"/>
		
			<circle fill="none" stroke="#263238" stroke-width="2" stroke-linecap="round" stroke-linejoin="round" stroke-miterlimit="10" cx="63.972" cy="91.254" r="5.114"/>
		<path fill="none" stroke="#263238" stroke-width="2" stroke-linecap="round" stroke-linejoin="round" stroke-miterlimit="10" d="
			M63.686,70.347c0.139-0.012,0.28-0.016,0.423-0.009c1.787,0.075,3.176,1.586,3.101,3.374c-0.074,1.788-1.584,3.176-3.373,3.102
			c-1.788-0.076-3.177-1.585-3.101-3.374c0.025-0.648,0.242-1.245,0.592-1.737"/>
		<g>
			<path fill="none" stroke="#263238" stroke-width="2" stroke-linecap="round" stroke-linejoin="round" stroke-miterlimit="10" d="
				M63.974,74.842c-0.438,0-0.864-0.227-1.1-0.633l-27.93-48.307c-0.351-0.606-0.142-1.381,0.464-1.731
				c0.604-0.352,1.381-0.143,1.731,0.463L63.508,70.24l1.562,2.701c0.35,0.606,0.143,1.381-0.463,1.731
				C64.407,74.788,64.188,74.842,63.974,74.842z"/>
		</g>
		<g>
			<path fill="none" stroke="#263238" stroke-width="2" stroke-linecap="round" stroke-linejoin="round" stroke-miterlimit="10" d="
				M66.592,71.673l26.465-45.771c0.349-0.606,0.142-1.381-0.464-1.731c-0.604-0.352-1.381-0.143-1.731,0.463L64.418,70.369"/>
		</g>
		
			<line fill="none" stroke="#263238" stroke-width="2" stroke-linecap="round" stroke-linejoin="round" stroke-miterlimit="10" x1="63.684" y1="78.588" x2="63.684" y2="76.686"/>
	</g>
</g>
</svg>
