<?xml version="1.0" encoding="utf-8"?>
<!-- Generator: Adobe Illustrator 16.0.0, SVG Export Plug-In . SVG Version: 6.00 Build 0)  -->
<!DOCTYPE svg PUBLIC "-//W3C//DTD SVG 1.1//EN" "http://www.w3.org/Graphics/SVG/1.1/DTD/svg11.dtd">
<svg version="1.1" id="Layer_1" xmlns="http://www.w3.org/2000/svg" xmlns:xlink="http://www.w3.org/1999/xlink" x="0px" y="0px"
	 width="128px" height="128px" viewBox="0 0 128 128" enable-background="new 0 0 128 128" xml:space="preserve">
<circle fill="#FFAB91" stroke="#231F20" stroke-miterlimit="10" cx="64" cy="64" r="64"/>
<g>
	<g>
		<path fill="#42A5F5" d="M75.052,35.255c-12.968-12.968-32.455-14.583-43.439-3.6c-10.984,10.984-9.37,30.471,3.6,43.439
			c0.567,0.567,1.153,1.113,1.744,1.636c0-0.007-0.001-0.014-0.001-0.021c0-0.687,0.063-1.376,0.189-2.048
			c0.054-0.29,0.123-0.574,0.199-0.855c-0.142-0.138-0.285-0.276-0.426-0.417c-8.963-8.963-12.116-21.238-8.951-31.062
			c0.002-0.005,0.002-0.011,0.005-0.016c1.072-3.32,2.864-6.361,5.4-8.897c2.556-2.555,5.624-4.354,8.973-5.423
			c0.011-0.005,0.022-0.007,0.034-0.01c9.681-3.075,21.711-0.032,30.612,8.638c0.015,0.01,0.031,0.016,0.044,0.029
			c0.011,0.01,0.015,0.023,0.023,0.036c0.095,0.093,0.193,0.181,0.288,0.275c5.588,5.587,9.094,12.62,9.945,19.881
			c0.067,0.092,0.081,0.209,0.035,0.311c0.018,0.167,0.042,0.333,0.057,0.5c0.679,7.569-1.627,14.417-6.492,19.282
			c-2.499,2.499-5.509,4.314-8.865,5.405c-0.026,0.013-0.053,0.02-0.082,0.025c-2.42,0.776-5.017,1.181-7.737,1.181
			c-1.019,0-2.054-0.06-3.104-0.172c-0.04,0.017-0.082,0.026-0.124,0.026c-0.018,0-0.036-0.008-0.054-0.011
			c-0.604,0.799-1.312,1.514-2.105,2.125c9.208,1.605,17.87-0.86,23.828-6.817l0.005-0.005
			C89.635,67.708,88.019,48.223,75.052,35.255z"/>
		<polygon fill="#D50000" points="46.702,61.323 47.091,62.145 47.307,61.928 		"/>
		<path fill="#D50000" d="M37.58,72.554l-0.267,0.267c-0.011,0.011-0.025,0.016-0.038,0.025c0.031,0.031,0.06,0.063,0.091,0.095
			c0.063,0.062,0.127,0.124,0.19,0.186c0.021-0.063,0.04-0.128,0.062-0.191c0.087-0.241,0.185-0.476,0.288-0.709L37.58,72.554z"/>
		<path fill="#E0F2F1" d="M89.271,88.13c0.304-0.305,0.66-0.538,1.043-0.705l-9.748-9.748l-1.463,1.464
			c-0.001,0-0.002,0.001-0.003,0.002s-0.001,0.001-0.003,0.002l-1.353,1.353l9.741,9.741c0.164-0.366,0.386-0.712,0.687-1.012
			L89.271,88.13z"/>
		<polygon fill="#D50000" points="79.103,79.141 79.097,79.146 79.1,79.144 		"/>
		<path fill="#1976D2" d="M102.872,97.83l-9.251-9.251c-0.518-0.519-1.211-0.804-1.95-0.804c-0.227,0-0.445,0.036-0.659,0.087
			c-0.271,0.066-0.526,0.171-0.763,0.314c-0.188,0.114-0.369,0.243-0.528,0.402l-1.099,1.099c-0.162,0.162-0.292,0.342-0.404,0.53
			c-0.144,0.24-0.248,0.497-0.313,0.762c-0.221,0.906,0.011,1.902,0.717,2.608l9.251,9.251c0.519,0.519,1.211,0.804,1.95,0.804
			c0.739,0,1.432-0.285,1.95-0.804l1.099-1.099c0.519-0.519,0.805-1.211,0.805-1.951C103.676,99.041,103.391,98.349,102.872,97.83z"
			/>
		<path fill="#FFD54F" d="M56.745,82.538c-1.336,0.55-2.778,0.841-4.234,0.841c-6.127,0-11.112-4.984-11.112-11.112
			c0-0.687,0.063-1.375,0.189-2.048c0.142-0.764,0.37-1.505,0.667-2.219c-0.142,0.095-0.28,0.195-0.417,0.296l-0.096,0.096
			c-0.037,0.037-0.081,0.059-0.127,0.074c-1.953,1.526-3.365,3.732-3.846,6.314c-0.118,0.633-0.178,1.283-0.178,1.931
			c0,0.272,0.021,0.54,0.041,0.808c0.415,5.4,4.932,9.669,10.437,9.669c2.099,0,4.052-0.626,5.693-1.694
			c1.183-0.77,2.205-1.765,2.994-2.934L56.745,82.538z"/>
		<path fill="#D50000" d="M56.745,82.538l0.01,0.021c0.008-0.011,0.014-0.023,0.021-0.035
			C56.766,82.528,56.756,82.533,56.745,82.538z"/>
		<path fill="#D50000" d="M41.838,68.295c-0.075,0.056-0.149,0.112-0.223,0.169c0.046-0.015,0.091-0.037,0.127-0.074L41.838,68.295z
			"/>
		<path fill="#D50000" d="M55.516,69.357c0.002,0.002,0.005,0.003,0.007,0.005c-0.005-0.005-0.01-0.011-0.015-0.016
			C55.512,69.349,55.513,69.354,55.516,69.357z"/>
		<path fill="#FFE082" d="M55.523,69.362c-0.002-0.002-0.005-0.002-0.007-0.005c-0.003-0.003-0.004-0.008-0.007-0.011
			c-1.683-1.701-3.943-2.827-6.458-3.062c-0.324-0.03-0.651-0.049-0.982-0.049c-1.736,0-3.383,0.434-4.84,1.193
			c-0.003,0.002-0.006,0.003-0.01,0.005c-0.476,0.913-0.816,1.889-1.006,2.903c-0.118,0.634-0.178,1.284-0.178,1.932
			c0,5.777,4.7,10.477,10.477,10.477c1.362,0,2.711-0.27,3.962-0.78c0.297-0.121,0.588-0.256,0.873-0.404
			c0.013-0.024,0.023-0.05,0.036-0.074c0.737-1.434,1.162-3.054,1.162-4.774C58.544,73.849,57.389,71.254,55.523,69.362z"/>
		<polygon fill="#D50000" points="43.223,67.422 43.218,67.432 43.228,67.427 		"/>
		<path fill="#D50000" d="M57.346,81.559c0.024-0.013,0.049-0.024,0.073-0.037l-0.037-0.037
			C57.369,81.509,57.358,81.535,57.346,81.559z"/>
	</g>
	<g>
		<path fill="none" stroke="#263238" stroke-width="2" stroke-linecap="round" stroke-linejoin="round" stroke-miterlimit="10" d="
			M58.868,76.717c0,5.961-4.833,10.794-10.794,10.794S37.28,82.678,37.28,76.717c0-0.68,0.063-1.345,0.183-1.989
			c0.934-5.011,5.329-8.805,10.611-8.805C54.036,65.923,58.868,70.755,58.868,76.717z"/>
		<path fill="none" stroke="#263238" stroke-width="2" stroke-linecap="round" stroke-linejoin="round" stroke-miterlimit="10" d="
			M57.663,81.765c-1.529,0.831-3.282,1.303-5.146,1.303c-5.961,0-10.794-4.833-10.794-10.794c0-0.68,0.062-1.344,0.183-1.99
			c0.205-1.098,0.575-2.137,1.085-3.09"/>
		<path fill="none" stroke="#263238" stroke-width="2" stroke-linecap="round" stroke-linejoin="round" stroke-miterlimit="10" d="
			M37.026,77.222c-0.693-0.603-1.371-1.235-2.032-1.896c-13.113-13.113-14.725-32.763-3.6-43.889
			c11.126-11.125,30.775-9.514,43.888,3.6c13.114,13.114,14.725,32.763,3.6,43.888c-6.355,6.355-15.491,8.555-24.601,6.828"/>
		<path fill="none" stroke="#263238" stroke-width="2" stroke-linecap="round" stroke-linejoin="round" stroke-miterlimit="10" d="
			M103.103,97.612c1.197,1.196,1.197,3.153,0,4.35l-1.099,1.099c-1.196,1.196-3.153,1.196-4.35,0l-9.251-9.251
			c-1.196-1.196-1.196-3.153,0-4.349l1.099-1.099c1.196-1.196,3.154-1.196,4.35,0L103.103,97.612z"/>
		
			<line fill="none" stroke="#263238" stroke-width="2" stroke-linecap="round" stroke-linejoin="round" stroke-miterlimit="10" x1="87.617" y1="90.82" x2="77.302" y2="80.506"/>
		
			<line fill="none" stroke="#263238" stroke-width="2" stroke-linecap="round" stroke-linejoin="round" stroke-miterlimit="10" x1="90.888" y1="87.549" x2="80.573" y2="77.234"/>
		
			<line fill="none" stroke="#263238" stroke-width="2" stroke-linecap="round" stroke-linejoin="round" stroke-miterlimit="10" x1="41.524" y1="68.173" x2="72.817" y2="36.88"/>
		
			<line fill="none" stroke="#263238" stroke-width="2" stroke-linecap="round" stroke-linejoin="round" stroke-miterlimit="10" x1="37.095" y1="72.603" x2="39.243" y2="70.455"/>
		
			<line fill="none" stroke="#263238" stroke-width="2" stroke-linecap="round" stroke-linejoin="round" stroke-miterlimit="10" x1="56.987" y1="83.089" x2="83.045" y2="57.03"/>
		
			<line fill="none" stroke="#263238" stroke-width="2" stroke-linecap="round" stroke-linejoin="round" stroke-miterlimit="10" x1="55.748" y1="69.139" x2="79.353" y2="45.534"/>
		
			<line fill="none" stroke="#263238" stroke-width="2" stroke-linecap="round" stroke-linejoin="round" stroke-miterlimit="10" x1="30.479" y1="63.859" x2="63.816" y2="30.522"/>
		
			<line fill="none" stroke="#263238" stroke-width="2" stroke-linecap="round" stroke-linejoin="round" stroke-miterlimit="10" x1="27.207" y1="51.909" x2="51.865" y2="27.25"/>
		<path fill="none" stroke="#263238" stroke-width="2" stroke-linecap="round" stroke-linejoin="round" stroke-miterlimit="10" d="
			M37.705,73.717c-0.187-0.18-0.372-0.361-0.556-0.545c-11.875-11.875-13.465-29.606-3.545-39.526 M33.604,33.646
			c9.92-9.919,27.651-8.33,39.525,3.545s13.465,29.605,3.545,39.525c-5.111,5.11-12.294,7.166-19.682,6.334"/>
		
			<line fill="none" stroke="#263238" stroke-width="2" stroke-linecap="round" stroke-linejoin="round" stroke-miterlimit="10" x1="33.604" y1="33.646" x2="76.674" y2="76.717"/>
		
			<line fill="none" stroke="#263238" stroke-width="2" stroke-linecap="round" stroke-linejoin="round" stroke-miterlimit="10" x1="28.27" y1="42.442" x2="52.479" y2="66.651"/>
		
			<line fill="none" stroke="#263238" stroke-width="2" stroke-linecap="round" stroke-linejoin="round" stroke-miterlimit="10" x1="58.062" y1="72.234" x2="67.893" y2="82.065"/>
		
			<line fill="none" stroke="#263238" stroke-width="2" stroke-linecap="round" stroke-linejoin="round" stroke-miterlimit="10" x1="27.708" y1="54.884" x2="41.097" y2="68.272"/>
		
			<line fill="none" stroke="#263238" stroke-width="2" stroke-linecap="round" stroke-linejoin="round" stroke-miterlimit="10" x1="42.478" y1="28.288" x2="82.033" y2="67.842"/>
		
			<line fill="none" stroke="#263238" stroke-width="2" stroke-linecap="round" stroke-linejoin="round" stroke-miterlimit="10" x1="54.893" y1="27.7" x2="82.621" y2="55.428"/>
	</g>
</g>
</svg>
