<?xml version="1.0" encoding="utf-8"?>
<!-- Generator: Adobe Illustrator 16.0.0, SVG Export Plug-In . SVG Version: 6.00 Build 0)  -->
<!DOCTYPE svg PUBLIC "-//W3C//DTD SVG 1.1//EN" "http://www.w3.org/Graphics/SVG/1.1/DTD/svg11.dtd">
<svg version="1.1" id="Layer_1" xmlns="http://www.w3.org/2000/svg" xmlns:xlink="http://www.w3.org/1999/xlink" x="0px" y="0px"
	 width="128px" height="128px" viewBox="0 0 128 128" enable-background="new 0 0 128 128" xml:space="preserve">
<circle fill="#B39DDB" stroke="#231F20" stroke-miterlimit="10" cx="64" cy="64" r="64"/>
<g>
	<g>
		<path fill="#FF8A65" d="M87.068,59.483l2.747-2.747c0.065-0.064,0.15-0.094,0.235-0.09c-0.872-7.231-4.331-14.386-10.281-20.336
			c-14.229-14.229-35.664-15.946-47.784-3.828C21.859,42.607,21.325,59.92,30.609,73.894c0.335-1.304,0.895-2.507,1.636-3.569
			C29.547,65.734,86.86,52.025,87.068,59.483z"/>
		<path fill="#FF8A65" d="M56.172,90.379l2.812-2.812c-3.558-0.098-7.09-0.907-10.516-2.42c-1.005,0.847-2.165,1.51-3.427,1.959
			c3.597,1.884,7.321,3.054,11.042,3.518C56.077,90.536,56.104,90.446,56.172,90.379z"/>
		<path fill="#E64A19" d="M78.498,84.476l16.352,18.229c0.054,0.009,0.104,0.031,0.142,0.07c0.654,0.653,1.642,0.905,2.783,0.708
			c1.182-0.204,2.376-0.86,3.363-1.847c0.987-0.987,1.644-2.182,1.848-3.364c0.197-1.141-0.055-2.13-0.708-2.784
			c-0.043-0.043-0.072-0.098-0.085-0.157L83.979,78.996c-0.027-0.025-0.048-0.054-0.064-0.085l-5.502,5.501
			C78.443,84.429,78.473,84.449,78.498,84.476z"/>
		<path fill="#FFCC80" d="M86.982,60.464L56.749,90.697c6.733,0.687,13.426-0.934,19.297-4.812c0.002-0.002,0.003-0.006,0.586,0.572
			l9.312-9.312c3.278-6.441,4.843-13.151,4.186-19.83l-3.126,3.126C86.997,60.45,86.99,60.457,86.982,60.464z"/>
		<path fill="#FFE082" d="M86.534,60.103c-0.04-7.571-3.308-15.104-9.433-21.229c-5.618-5.618-13.408-9.412-22.042-10.684
			c-2.272-0.334-7.381,0.205-7.433,0.209c-5.039,0.813-9.524,3.06-13.005,6.488l-0.103-0.053c-0.027,0.12-0.025,0.144-0.052,0.171
			c-0.087,0.087-0.239,0.18-0.239,0.268v0.019c-5.067,5.164-7.339,12.366-6.564,20.338c0.471,4.841,2.13,9.751,4.664,14.241v0.014
			c0,0.006,0.037,0.013,0.041,0.02c2.071-2.601,5.272-4.239,8.788-4.239c6.179,0,11.213,5.027,11.213,11.207
			c0,3.183-1.336,6.053-3.474,8.095c0.416,0.179,0.835,0.35,1.254,0.508c2.581,0.975,5.214,1.554,7.864,1.729
			c0.538,0.036,0.778,0.058,1.317,0.061l26.842-27.14c0-0.007,0-0.025,0-0.086L86.534,60.103z"/>
		<path fill="#EEEEEE" d="M41.972,66.214c-3.437,0-6.541,1.673-8.458,4.306c-0.006,0.009-0.013,0.017-0.02,0.026
			c-0.881,1.218-1.509,2.639-1.799,4.195c-0.012,0.065-0.017,0.133-0.027,0.199c-0.095,0.568-0.15,1.147-0.15,1.728
			c0,5.764,4.69,10.454,10.454,10.454c0.904,0,1.778-0.127,2.615-0.345c4.5-1.166,7.838-5.25,7.838-10.109
			C52.426,70.903,47.736,66.214,41.972,66.214z"/>
		<path fill="#D50000" d="M32.881,70.52c-0.006,0.009-0.014,0.017-0.02,0.026C32.868,70.537,32.875,70.529,32.881,70.52z"/>
	</g>
	<g>
		<g>
			<path fill="none" stroke="#263238" stroke-width="2" stroke-linecap="round" stroke-linejoin="round" stroke-miterlimit="10" d="
				M44.877,87.042C56,93.159,68.875,92.476,78.895,84.688l16.463,18.353l0.042-0.042c1.506,1.506,4.459,0.996,6.594-1.14
				c2.137-2.136,2.646-5.089,1.14-6.595l0.042-0.042L84.823,78.76c9.923-12.767,8.312-30.165-4.198-42.674
				c-13.581-13.581-35.486-16.572-48.231-3.828c-11.053,11.053-10.271,28.994-1.011,42.421"/>
			
				<line fill="none" stroke="#263238" stroke-width="2" stroke-linecap="round" stroke-linejoin="round" stroke-miterlimit="10" x1="57.029" y1="90.603" x2="90.672" y2="56.96"/>
			
				<line fill="none" stroke="#263238" stroke-width="2" stroke-linecap="round" stroke-linejoin="round" stroke-miterlimit="10" x1="76.909" y1="86.101" x2="81.013" y2="81.997"/>
			
				<line fill="none" stroke="#263238" stroke-width="2" stroke-linecap="round" stroke-linejoin="round" stroke-miterlimit="10" x1="83.789" y1="79.221" x2="86.236" y2="76.773"/>
			<path fill="none" stroke="#263238" stroke-width="2" stroke-linecap="round" stroke-linejoin="round" stroke-miterlimit="10" d="
				M33.253,70.345c-2.71-4.552-4.436-9.611-4.927-14.663c-0.79-8.127,1.636-15.464,6.832-20.659 M60.364,87.27
				c-3.798,0.002-7.631-0.833-11.313-2.488 M55.818,28.191c8.013,0.779,16.047,4.664,22.042,10.659
				c6.32,6.32,9.551,13.92,9.544,21.381 M35.159,35.023c3.545-3.545,8.088-5.801,13.198-6.625"/>
		</g>
		<path fill="none" stroke="#263238" stroke-width="2" stroke-linecap="round" stroke-linejoin="round" stroke-miterlimit="10" d="
			M52.743,76.667c0,5.949-4.822,10.771-10.771,10.771c-5.948,0-10.771-4.822-10.771-10.771c0-0.678,0.062-1.342,0.183-1.985
			c0.932-5,5.317-8.786,10.588-8.786C47.921,65.897,52.743,70.719,52.743,76.667z"/>
		<path fill="none" stroke="#263238" stroke-width="2" stroke-linecap="round" stroke-linejoin="round" stroke-miterlimit="10" d="
			M41.972,69.05c2.013,0,3.844,0.781,5.206,2.057"/>
	</g>
</g>
</svg>
