<?xml version="1.0" encoding="utf-8"?>
<!-- Generator: Adobe Illustrator 16.0.0, SVG Export Plug-In . SVG Version: 6.00 Build 0)  -->
<!DOCTYPE svg PUBLIC "-//W3C//DTD SVG 1.1//EN" "http://www.w3.org/Graphics/SVG/1.1/DTD/svg11.dtd">
<svg version="1.1" id="Layer_1" xmlns="http://www.w3.org/2000/svg" xmlns:xlink="http://www.w3.org/1999/xlink" x="0px" y="0px"
	 width="128px" height="128px" viewBox="0 0 128 128" enable-background="new 0 0 128 128" xml:space="preserve">
<circle fill="#FFEE58" stroke="#231F20" stroke-miterlimit="10" cx="64" cy="64" r="64"/>
<g>
	<g>
		<rect x="39.386" y="62.953" fill="#78909C" width="48.182" height="2.094"/>
		<rect x="22.627" y="54.574" fill="#B2DFDB" width="2.792" height="18.853"/>
		<polygon fill="#1976D2" points="38.688,65.047 38.688,62.604 38.688,62.254 38.688,54.574 36.592,54.574 36.592,73.426 
			38.688,73.426 38.688,65.396 		"/>
		<rect x="25.419" y="54.574" fill="#64B5F6" width="2.794" height="18.853"/>
		<rect x="31.006" y="54.574" fill="#42A5F5" width="2.793" height="18.853"/>
		<rect x="33.799" y="54.574" fill="#1976D2" width="2.793" height="18.853"/>
		<rect x="19.833" y="54.574" fill="#E0F2F1" width="2.794" height="18.853"/>
		<rect x="28.213" y="54.574" fill="#42A5F5" width="2.793" height="18.853"/>
		<polygon fill="#42A5F5" points="95.946,73.426 98.74,73.426 98.74,61.208 98.74,59.81 98.74,54.574 95.946,54.574 		"/>
		<rect x="104.326" y="54.574" fill="#E0F2F1" width="2.793" height="18.853"/>
		<polygon fill="#64B5F6" points="98.74,73.426 101.533,73.426 101.533,61.905 101.533,59.81 101.533,54.574 98.74,54.574 		"/>
		<polygon fill="#42A5F5" points="93.153,73.426 95.946,73.426 95.946,61.905 95.946,59.81 95.946,54.574 93.153,54.574 		"/>
		<polygon fill="#1976D2" points="90.36,73.426 93.153,73.426 93.153,61.208 93.153,59.81 93.153,54.574 90.36,54.574 		"/>
		<polygon fill="#B2DFDB" points="101.533,73.426 104.326,73.426 104.326,61.905 104.326,59.81 104.326,54.574 101.533,54.574 		"/>
		<polygon fill="#1976D2" points="90.36,73.426 90.36,60.509 90.36,59.81 90.36,54.574 88.266,54.574 88.266,62.254 88.266,65.047 
			88.266,73.426 		"/>
	</g>
	<g>
		
			<rect x="39.734" y="62.604" fill="none" stroke="#263238" stroke-width="2" stroke-linecap="round" stroke-linejoin="round" stroke-miterlimit="10" width="48.88" height="2.793"/>
		
			<rect x="20.183" y="54.224" fill="none" stroke="#263238" stroke-width="2" stroke-linecap="round" stroke-linejoin="round" stroke-miterlimit="10" width="19.552" height="19.552"/>
		
			<line fill="none" stroke="#263238" stroke-width="2" stroke-linecap="round" stroke-linejoin="round" stroke-miterlimit="10" x1="22.976" y1="73.426" x2="22.976" y2="60.159"/>
		
			<line fill="none" stroke="#263238" stroke-width="2" stroke-linecap="round" stroke-linejoin="round" stroke-miterlimit="10" x1="25.769" y1="73.426" x2="25.769" y2="60.159"/>
		
			<line fill="none" stroke="#263238" stroke-width="2" stroke-linecap="round" stroke-linejoin="round" stroke-miterlimit="10" x1="28.562" y1="73.426" x2="28.562" y2="60.159"/>
		
			<line fill="none" stroke="#263238" stroke-width="2" stroke-linecap="round" stroke-linejoin="round" stroke-miterlimit="10" x1="31.354" y1="73.426" x2="31.354" y2="60.159"/>
		
			<line fill="none" stroke="#263238" stroke-width="2" stroke-linecap="round" stroke-linejoin="round" stroke-miterlimit="10" x1="34.148" y1="73.426" x2="34.148" y2="60.159"/>
		
			<line fill="none" stroke="#263238" stroke-width="2" stroke-linecap="round" stroke-linejoin="round" stroke-miterlimit="10" x1="36.941" y1="73.426" x2="36.941" y2="60.159"/>
		
			<line fill="none" stroke="#263238" stroke-width="2" stroke-linecap="round" stroke-linejoin="round" stroke-miterlimit="10" x1="22.976" y1="55.97" x2="22.976" y2="54.574"/>
		
			<line fill="none" stroke="#263238" stroke-width="2" stroke-linecap="round" stroke-linejoin="round" stroke-miterlimit="10" x1="25.769" y1="55.97" x2="25.769" y2="54.574"/>
		
			<line fill="none" stroke="#263238" stroke-width="2" stroke-linecap="round" stroke-linejoin="round" stroke-miterlimit="10" x1="28.562" y1="55.97" x2="28.562" y2="54.574"/>
		
			<line fill="none" stroke="#263238" stroke-width="2" stroke-linecap="round" stroke-linejoin="round" stroke-miterlimit="10" x1="31.354" y1="55.97" x2="31.354" y2="54.574"/>
		
			<line fill="none" stroke="#263238" stroke-width="2" stroke-linecap="round" stroke-linejoin="round" stroke-miterlimit="10" x1="34.148" y1="55.97" x2="34.148" y2="54.574"/>
		
			<line fill="none" stroke="#263238" stroke-width="2" stroke-linecap="round" stroke-linejoin="round" stroke-miterlimit="10" x1="36.941" y1="55.97" x2="36.941" y2="54.574"/>
		
			<rect x="88.614" y="54.224" fill="none" stroke="#263238" stroke-width="2" stroke-linecap="round" stroke-linejoin="round" stroke-miterlimit="10" width="19.553" height="19.552"/>
		
			<line fill="none" stroke="#263238" stroke-width="2" stroke-linecap="round" stroke-linejoin="round" stroke-miterlimit="10" x1="91.408" y1="73.426" x2="91.408" y2="60.159"/>
		
			<line fill="none" stroke="#263238" stroke-width="2" stroke-linecap="round" stroke-linejoin="round" stroke-miterlimit="10" x1="94.201" y1="73.426" x2="94.201" y2="60.159"/>
		
			<line fill="none" stroke="#263238" stroke-width="2" stroke-linecap="round" stroke-linejoin="round" stroke-miterlimit="10" x1="96.994" y1="73.426" x2="96.994" y2="60.159"/>
		
			<line fill="none" stroke="#263238" stroke-width="2" stroke-linecap="round" stroke-linejoin="round" stroke-miterlimit="10" x1="99.787" y1="73.426" x2="99.787" y2="60.159"/>
		
			<line fill="none" stroke="#263238" stroke-width="2" stroke-linecap="round" stroke-linejoin="round" stroke-miterlimit="10" x1="102.581" y1="73.426" x2="102.581" y2="60.159"/>
		
			<line fill="none" stroke="#263238" stroke-width="2" stroke-linecap="round" stroke-linejoin="round" stroke-miterlimit="10" x1="105.373" y1="73.426" x2="105.373" y2="60.159"/>
		
			<line fill="none" stroke="#263238" stroke-width="2" stroke-linecap="round" stroke-linejoin="round" stroke-miterlimit="10" x1="91.408" y1="55.97" x2="91.408" y2="54.574"/>
		
			<line fill="none" stroke="#263238" stroke-width="2" stroke-linecap="round" stroke-linejoin="round" stroke-miterlimit="10" x1="94.201" y1="55.97" x2="94.201" y2="54.574"/>
		
			<line fill="none" stroke="#263238" stroke-width="2" stroke-linecap="round" stroke-linejoin="round" stroke-miterlimit="10" x1="96.994" y1="55.97" x2="96.994" y2="54.574"/>
		
			<line fill="none" stroke="#263238" stroke-width="2" stroke-linecap="round" stroke-linejoin="round" stroke-miterlimit="10" x1="99.787" y1="55.97" x2="99.787" y2="54.574"/>
		
			<line fill="none" stroke="#263238" stroke-width="2" stroke-linecap="round" stroke-linejoin="round" stroke-miterlimit="10" x1="102.581" y1="55.97" x2="102.581" y2="54.574"/>
		
			<line fill="none" stroke="#263238" stroke-width="2" stroke-linecap="round" stroke-linejoin="round" stroke-miterlimit="10" x1="105.373" y1="55.97" x2="105.373" y2="54.574"/>
	</g>
</g>
</svg>
