<?xml version="1.0" encoding="utf-8"?>
<!-- Generator: Adobe Illustrator 16.0.0, SVG Export Plug-In . SVG Version: 6.00 Build 0)  -->
<!DOCTYPE svg PUBLIC "-//W3C//DTD SVG 1.1//EN" "http://www.w3.org/Graphics/SVG/1.1/DTD/svg11.dtd">
<svg version="1.1" id="Layer_1" xmlns="http://www.w3.org/2000/svg" xmlns:xlink="http://www.w3.org/1999/xlink" x="0px" y="0px"
	 width="128px" height="128px" viewBox="0 0 128 128" enable-background="new 0 0 128 128" xml:space="preserve">
<circle fill="#00B8D4" stroke="#231F20" stroke-miterlimit="10" cx="64" cy="64" r="64"/>
<g>
	<g>
		<path fill="#EEEEEE" d="M86.28,24.317h-0.317H42.354c-2.419,0-4.704,1.65-4.704,4.069v35.296h2.857h47.619h2.223V28.704v-0.317
			C90.35,25.967,88.699,24.317,86.28,24.317z"/>
		<path fill="#E0E0E0" d="M87.81,98.63c0,1.036-0.429,2.513-1.429,2.513H42.643c-0.998,0-2.452-1.487-2.452-2.513V64.317h-2.54
			v34.662c0,2.418,2.285,4.704,4.704,4.704H86.28c2.419,0,4.069-2.285,4.069-4.704V64.317h-2.54V98.63z"/>
		<path fill="#E0F2F1" d="M42.643,100.508H58.52c-0.004-0.635-0.001-0.241,0.012-0.283c0.826-2.704,3.268-4.6,6.074-4.6
			s5.247,1.936,6.073,4.64c0.013,0.042,0.016-0.392,0.012,0.243h15.69c0.599,0,0.794-1.175,0.794-1.877V64.317H74.456
			c-0.356,5.08-4.631,9.194-9.849,9.194c-5.217,0-9.491-4.114-9.848-9.194H40.825V98.63
			C40.825,99.301,41.998,100.508,42.643,100.508z M74.81,78.886c4.026,0,7.302,3.276,7.302,7.302s-3.275,7.302-7.302,7.302
			s-7.302-3.276-7.302-7.302S70.783,78.886,74.81,78.886z M54.492,78.886c4.026,0,7.302,3.276,7.302,7.302s-3.275,7.302-7.302,7.302
			s-7.302-3.276-7.302-7.302S50.466,78.886,54.492,78.886z"/>
		<path fill="#D50000" d="M58.536,100.508c-0.003,0-0.008-0.635-0.011,0h10.89c-0.003-0.635-0.008,0-0.011,0H58.536z"/>
		<path fill="#EEEEEE" d="M54.726,63.471c0-5.45,4.433-9.962,9.882-9.962s9.883,4.552,9.883,10.002c0,0.018-0.002-0.462-0.003,0.172
			h12.688V28.325c0-0.828,0.006-0.833-0.794-0.833c-0.286,0-7.335,0-15.693,0c0,0,0.001-0.097-0.009-0.066
			c-0.826,2.704-3.267,4.441-6.073,4.441s-5.248-1.698-6.074-4.402c-0.01-0.031-0.009,0.026-0.009,0.026c-8.611,0-15.88,0-15.88,0
			c-0.953,0-1.817,0.223-1.817,1.164v35.027h13.903C54.728,63.048,54.726,63.488,54.726,63.471z M74.81,33.21
			c4.026,0,7.302,3.276,7.302,7.302s-3.275,7.302-7.302,7.302s-7.302-3.276-7.302-7.302S70.783,33.21,74.81,33.21z M47.19,40.512
			c0-4.026,3.275-7.302,7.302-7.302s7.302,3.276,7.302,7.302s-3.275,7.302-7.302,7.302S47.19,44.538,47.19,40.512z"/>
		<path fill="#EEEEEE" d="M64.607,72.876c4.867,0,8.858-4.115,9.213-8.559H55.395C55.75,68.762,59.741,72.876,64.607,72.876z"/>
		<path fill="#E0F2F1" d="M73.855,63.471c0-5.1-4.148-9.328-9.248-9.328c-5.099,0-9.247,4.268-9.247,9.367
			c0,0.018,0.002-0.462,0.003,0.172h18.489C73.853,63.048,73.855,63.488,73.855,63.471z"/>
		<path fill="#D50000" d="M73.186,64.317c0.016-0.635,0.031-0.635,0.032-0.635H54.729c0.001,0,0.016,0,0.031,0.635H73.186z"/>
		<path fill="#BCAAA4" d="M64.605,32.106c2.492,0,4.662-2.074,5.434-3.979c-3.552,0-7.31,0-10.868,0
			C59.942,30.032,62.112,32.106,64.605,32.106z"/>
		<path fill="#BCAAA4" d="M64.605,96.529c-2.493,0-4.663,1.439-5.435,3.979h10.868C69.268,97.968,67.098,96.529,64.605,96.529z"/>
		<path fill="#E0F2F1" d="M54.492,33.845c-3.676,0-6.667,2.99-6.667,6.667s2.991,6.667,6.667,6.667s6.667-2.99,6.667-6.667
			S58.168,33.845,54.492,33.845z M54.492,41.396c-0.487,0-0.884-0.397-0.884-0.884s0.396-0.884,0.884-0.884s0.884,0.397,0.884,0.884
			S54.979,41.396,54.492,41.396z"/>
		<path fill="#E0F2F1" d="M74.81,47.178c3.676,0,6.667-2.99,6.667-6.667s-2.991-6.667-6.667-6.667s-6.667,2.99-6.667,6.667
			S71.134,47.178,74.81,47.178z M74.81,39.627c0.487,0,0.885,0.397,0.885,0.884s-0.397,0.884-0.885,0.884s-0.884-0.397-0.884-0.884
			S74.322,39.627,74.81,39.627z"/>
		<path fill="#EEEEEE" d="M54.492,92.854c3.676,0,6.667-2.99,6.667-6.667s-2.991-6.667-6.667-6.667s-6.667,2.99-6.667,6.667
			S50.816,92.854,54.492,92.854z M54.492,85.393c0.487,0,0.884,0.397,0.884,0.884s-0.396,0.884-0.884,0.884
			s-0.884-0.397-0.884-0.884S54.005,85.393,54.492,85.393z"/>
		<path fill="#EEEEEE" d="M74.81,92.854c3.676,0,6.667-2.99,6.667-6.667s-2.991-6.667-6.667-6.667s-6.667,2.99-6.667,6.667
			S71.134,92.854,74.81,92.854z M74.81,85.393c0.487,0,0.885,0.397,0.885,0.884s-0.397,0.884-0.885,0.884s-0.884-0.397-0.884-0.884
			S74.322,85.393,74.81,85.393z"/>
		<circle fill="#D50000" cx="53.857" cy="40.511" r="0.249"/>
		<circle fill="#D50000" cx="74.175" cy="40.511" r="0.249"/>
		<circle fill="#D50000" cx="53.857" cy="86.278" r="0.249"/>
		<circle fill="#D50000" cx="74.175" cy="86.278" r="0.249"/>
	</g>
	<g>
		<path fill="none" stroke="#263238" stroke-width="2" stroke-linecap="round" stroke-linejoin="round" stroke-miterlimit="10" d="
			M90.667,99.296c0,2.598-2.106,4.704-4.704,4.704H42.037c-2.598,0-4.704-2.106-4.704-4.704V28.704c0-2.598,2.106-4.704,4.704-4.704
			h43.926c2.598,0,4.704,2.106,4.704,4.704V99.296z"/>
		
			<line fill="none" stroke="#263238" stroke-width="2" stroke-linecap="round" stroke-linejoin="round" stroke-miterlimit="10" x1="37.65" y1="64" x2="90.35" y2="64"/>
		
			<circle fill="none" stroke="#263238" stroke-width="2" stroke-linecap="round" stroke-linejoin="round" stroke-miterlimit="10" cx="64.608" cy="63.312" r="9.565"/>
		<path fill="none" stroke="#263238" stroke-width="2" stroke-linecap="round" stroke-linejoin="round" stroke-miterlimit="10" d="
			M58.835,27.175c0.759,2.481,3.041,4.296,5.771,4.296c2.729,0,5.012-1.815,5.77-4.296"/>
		<path fill="none" stroke="#263238" stroke-width="2" stroke-linecap="round" stroke-linejoin="round" stroke-miterlimit="10" d="
			M70.375,100.16c-0.758-2.481-3.041-4.296-5.77-4.296c-2.729,0-5.012,1.815-5.771,4.296"/>
		<path fill="none" stroke="#263238" stroke-width="2" stroke-linecap="round" stroke-linejoin="round" stroke-miterlimit="10" d="
			M87.492,35.111V98.63c0,0.829-0.056,2.195-0.885,2.195H42.643c-0.829,0-2.135-1.366-2.135-2.195V28.069
			c0-0.829,1.306-0.894,2.135-0.894h42.944c0,0,1.746,0,1.746,2.434"/>
		
			<circle fill="none" stroke="#263238" stroke-width="2" stroke-linecap="round" stroke-linejoin="round" stroke-miterlimit="10" cx="54.492" cy="40.512" r="6.984"/>
		
			<circle fill="none" stroke="#263238" stroke-width="2" stroke-linecap="round" stroke-linejoin="round" stroke-miterlimit="10" cx="74.81" cy="40.512" r="6.984"/>
		
			<circle fill="none" stroke="#263238" stroke-width="2" stroke-linecap="round" stroke-linejoin="round" stroke-miterlimit="10" cx="54.492" cy="86.188" r="6.984"/>
		
			<circle fill="none" stroke="#263238" stroke-width="2" stroke-linecap="round" stroke-linejoin="round" stroke-miterlimit="10" cx="74.81" cy="86.188" r="6.984"/>
		
			<circle fill="none" stroke="#263238" stroke-width="2" stroke-linecap="round" stroke-linejoin="round" stroke-miterlimit="10" cx="54.492" cy="40.512" r="0.566"/>
		
			<circle fill="none" stroke="#263238" stroke-width="2" stroke-linecap="round" stroke-linejoin="round" stroke-miterlimit="10" cx="74.81" cy="40.512" r="0.566"/>
		
			<circle fill="none" stroke="#263238" stroke-width="2" stroke-linecap="round" stroke-linejoin="round" stroke-miterlimit="10" cx="54.492" cy="86.277" r="0.566"/>
		
			<circle fill="none" stroke="#263238" stroke-width="2" stroke-linecap="round" stroke-linejoin="round" stroke-miterlimit="10" cx="74.81" cy="86.277" r="0.566"/>
	</g>
</g>
</svg>
