<?xml version="1.0" encoding="utf-8"?>
<!-- Generator: Adobe Illustrator 16.0.0, SVG Export Plug-In . SVG Version: 6.00 Build 0)  -->
<!DOCTYPE svg PUBLIC "-//W3C//DTD SVG 1.1//EN" "http://www.w3.org/Graphics/SVG/1.1/DTD/svg11.dtd">
<svg version="1.1" id="Layer_1" xmlns="http://www.w3.org/2000/svg" xmlns:xlink="http://www.w3.org/1999/xlink" x="0px" y="0px"
	 width="128px" height="128px" viewBox="0 0 128 128" enable-background="new 0 0 128 128" xml:space="preserve">
<circle fill="#7CB342" stroke="#231F20" stroke-miterlimit="10" cx="64" cy="64" r="64"/>
<g>
	<g>
		<path fill="#795548" d="M42.783,24.318c-6.198,0-11.183,1.572-14.038,4.427c-4.322,4.323-5.582,13.466-3.286,23.862
			c2.576,11.664,8.94,22.911,17.921,31.892c14.069,14.069,31.33,18.94,41.837,18.94h0.002c6.197,0,11.396-1.4,14.251-4.254
			c4.322-4.323,5.367-13.457,3.071-23.852c-2.576-11.664-8.94-23.002-17.921-31.983C70.551,29.28,53.289,24.318,42.783,24.318z
			 M97.456,97.456c-2.374,2.374-6.72,3.682-12.239,3.682c-10.02,0-26.518-4.797-40.037-18.317
			c-8.642-8.642-14.764-19.567-17.236-30.763c-2.078-9.411-1.058-17.856,2.602-21.514c2.373-2.375,6.72-3.682,12.238-3.682
			c4.636,0,10.161,1.029,15.558,2.898l5.779,2.336c6.949,3.219,13.236,7.619,18.7,13.083c8.643,8.642,14.764,19.566,17.236,30.762
			C102.136,85.354,101.114,93.798,97.456,97.456z"/>
		<path fill="#E64A19" d="M63.864,31.929l-5.888-2.379c-5.443-1.885-11.025-2.926-15.701-2.926c-5.478,0-9.179,1.474-11.485,3.782
			c-3.593,3.592-4.865,11.785-2.783,21.21c2.506,11.344,8.42,22.433,17.183,31.195c13.702,13.703,30.4,18.565,40.536,18.565
			c5.477,0,9.764-1.271,12.071-3.58c3.594-3.592,4.569-12.003,2.488-21.428c-2.506-11.344-8.711-22.417-17.474-31.18
			C77.271,39.648,70.896,35.187,63.864,31.929z"/>
	</g>
	<g>
		<g>
			<path fill="none" stroke="#263238" stroke-width="2" stroke-linecap="round" stroke-linejoin="round" stroke-miterlimit="10" d="
				M99.48,99.48c8.909-8.909,4.96-36.729-14.636-56.325C65.25,23.56,37.43,19.611,28.521,28.52
				c-8.91,8.909-4.96,36.729,14.635,56.325C62.75,104.44,90.57,108.39,99.48,99.48z"/>
			
				<line fill="none" stroke="#263238" stroke-width="2" stroke-linecap="round" stroke-linejoin="round" stroke-miterlimit="10" x1="39.798" y1="39.798" x2="88.135" y2="88.134"/>
			
				<line fill="none" stroke="#263238" stroke-width="2" stroke-linecap="round" stroke-linejoin="round" stroke-miterlimit="10" x1="40.381" y1="48.123" x2="48.123" y2="40.38"/>
			
				<line fill="none" stroke="#263238" stroke-width="2" stroke-linecap="round" stroke-linejoin="round" stroke-miterlimit="10" x1="44.916" y1="52.659" x2="52.659" y2="44.917"/>
			
				<line fill="none" stroke="#263238" stroke-width="2" stroke-linecap="round" stroke-linejoin="round" stroke-miterlimit="10" x1="49.396" y1="57.139" x2="57.139" y2="49.396"/>
			
				<line fill="none" stroke="#263238" stroke-width="2" stroke-linecap="round" stroke-linejoin="round" stroke-miterlimit="10" x1="53.933" y1="61.675" x2="61.675" y2="53.933"/>
			
				<line fill="none" stroke="#263238" stroke-width="2" stroke-linecap="round" stroke-linejoin="round" stroke-miterlimit="10" x1="58.469" y1="66.211" x2="66.211" y2="58.468"/>
			
				<line fill="none" stroke="#263238" stroke-width="2" stroke-linecap="round" stroke-linejoin="round" stroke-miterlimit="10" x1="62.948" y1="70.691" x2="70.691" y2="62.948"/>
			
				<line fill="none" stroke="#263238" stroke-width="2" stroke-linecap="round" stroke-linejoin="round" stroke-miterlimit="10" x1="67.485" y1="75.227" x2="75.228" y2="67.484"/>
			
				<line fill="none" stroke="#263238" stroke-width="2" stroke-linecap="round" stroke-linejoin="round" stroke-miterlimit="10" x1="72.021" y1="79.763" x2="79.763" y2="72.021"/>
			
				<line fill="none" stroke="#263238" stroke-width="2" stroke-linecap="round" stroke-linejoin="round" stroke-miterlimit="10" x1="76.501" y1="84.244" x2="84.243" y2="76.501"/>
			
				<line fill="none" stroke="#263238" stroke-width="2" stroke-linecap="round" stroke-linejoin="round" stroke-miterlimit="10" x1="81.037" y1="88.779" x2="88.779" y2="81.037"/>
		</g>
		<path fill="none" stroke="#263238" stroke-width="2" stroke-linecap="round" stroke-linejoin="round" stroke-miterlimit="10" d="
			M64.001,32.391c6.238,2.89,12.7,7.118,18.595,13.013c8.6,8.6,14.69,19.469,17.15,30.606c2.056,9.308,1.068,17.637-2.515,21.22
			c-2.313,2.314-6.58,3.589-12.015,3.589c-9.959,0-26.362-4.773-39.812-18.224c-8.6-8.599-14.69-19.469-17.15-30.606
			c-2.056-9.307-1.068-17.637,2.516-21.22c2.313-2.314,6.58-3.588,12.014-3.588 M42.783,27.181c4.229,0,9.62,0.86,15.453,2.88"/>
		
			<line fill="none" stroke="#263238" stroke-width="2" stroke-linecap="round" stroke-linejoin="round" stroke-miterlimit="10" x1="39.798" y1="39.798" x2="88.135" y2="88.134"/>
		
			<line fill="none" stroke="#263238" stroke-width="2" stroke-linecap="round" stroke-linejoin="round" stroke-miterlimit="10" x1="40.381" y1="48.123" x2="48.123" y2="40.38"/>
		
			<line fill="none" stroke="#263238" stroke-width="2" stroke-linecap="round" stroke-linejoin="round" stroke-miterlimit="10" x1="44.916" y1="52.659" x2="52.659" y2="44.917"/>
		
			<line fill="none" stroke="#263238" stroke-width="2" stroke-linecap="round" stroke-linejoin="round" stroke-miterlimit="10" x1="49.396" y1="57.139" x2="57.139" y2="49.396"/>
		
			<line fill="none" stroke="#263238" stroke-width="2" stroke-linecap="round" stroke-linejoin="round" stroke-miterlimit="10" x1="53.933" y1="61.675" x2="61.675" y2="53.933"/>
		
			<line fill="none" stroke="#263238" stroke-width="2" stroke-linecap="round" stroke-linejoin="round" stroke-miterlimit="10" x1="58.469" y1="66.211" x2="66.211" y2="58.468"/>
		
			<line fill="none" stroke="#263238" stroke-width="2" stroke-linecap="round" stroke-linejoin="round" stroke-miterlimit="10" x1="62.948" y1="70.691" x2="70.691" y2="62.948"/>
		
			<line fill="none" stroke="#263238" stroke-width="2" stroke-linecap="round" stroke-linejoin="round" stroke-miterlimit="10" x1="67.485" y1="75.227" x2="75.228" y2="67.484"/>
		
			<line fill="none" stroke="#263238" stroke-width="2" stroke-linecap="round" stroke-linejoin="round" stroke-miterlimit="10" x1="72.021" y1="79.763" x2="79.763" y2="72.021"/>
		
			<line fill="none" stroke="#263238" stroke-width="2" stroke-linecap="round" stroke-linejoin="round" stroke-miterlimit="10" x1="76.501" y1="84.244" x2="84.243" y2="76.501"/>
		
			<line fill="none" stroke="#263238" stroke-width="2" stroke-linecap="round" stroke-linejoin="round" stroke-miterlimit="10" x1="81.037" y1="88.779" x2="88.779" y2="81.037"/>
	</g>
</g>
</svg>
