<?xml version="1.0" encoding="utf-8"?>
<!-- Generator: Adobe Illustrator 16.0.0, SVG Export Plug-In . SVG Version: 6.00 Build 0)  -->
<!DOCTYPE svg PUBLIC "-//W3C//DTD SVG 1.1//EN" "http://www.w3.org/Graphics/SVG/1.1/DTD/svg11.dtd">
<svg version="1.1" id="Layer_1" xmlns="http://www.w3.org/2000/svg" xmlns:xlink="http://www.w3.org/1999/xlink" x="0px" y="0px"
	 width="128px" height="128px" viewBox="0 0 128 128" enable-background="new 0 0 128 128" xml:space="preserve">
<circle fill="#43A047" stroke="#231F20" stroke-miterlimit="10" cx="64" cy="64" r="64"/>
<g>
	<g>
		<path fill="#EEEEEE" d="M72.172,99.344l7.814-11.263l-6.691-10.808c-0.018,0.003-0.031,0.016-0.05,0.016H53.806
			c-0.028,0-0.05-0.018-0.076-0.024L46.351,88.09l7.809,11.254c0.021,0.029,0.034,0.094,0.044,0.094h17.926
			C72.138,99.438,72.15,99.374,72.172,99.344z"/>
		<path fill="#EEEEEE" d="M72.377,100.071H54.024c-0.067,0-0.126-0.025-0.178-0.062l-1.89,1.785
			c3.661,1.123,7.545,1.731,11.568,1.731c3.823,0,7.517-0.556,11.016-1.573l-2.027-1.915
			C72.472,100.058,72.427,100.071,72.377,100.071z"/>
		<path fill="#EEEEEE" d="M47.841,57.816L62.734,46.85V34.441l-13.44-4.498L35.483,40.222l0.049,14.572l12.294,3.003
			C47.841,57.8,47.826,57.81,47.841,57.816z"/>
		<path fill="#EEEEEE" d="M47.496,58.391c-0.004-0.012,0.003-0.023,0-0.035l-12.134-2.958l-8.151,10.826l4.781,16.953l13.848,4.54
			l7.533-11.052L47.496,58.391z"/>
		<path fill="#EEEEEE" d="M63.638,46.518l15.421,11.316c0.026-0.015,0.071-0.03,0.102-0.038l12.413-3.003l0.033-14.561
			L76.658,30.213l-13.032,4.408c-0.033,0.011-0.142,0.017-0.176,0.017c-0.003,0,0,0,0,0l-0.001,11.841
			C63.537,46.49,63.58,46.475,63.638,46.518z"/>
		<path fill="#EEEEEE" d="M92.017,39.741l2.57-0.139C89.95,33.71,83.679,29.167,76.46,26.659l0.536,3.016L92.017,39.741z"/>
		<path fill="#EEEEEE" d="M26.596,66.374l-2.571-1.389c0.188,7.631,2.545,14.731,6.483,20.706l0.893-2.282L26.596,66.374z"/>
		<path fill="#EEEEEE" d="M49.036,29.402l0.659-2.425c-6.842,2.564-12.784,6.976-17.229,12.621l2.642,0.143L49.036,29.402z"/>
		<path fill="#EEEEEE" d="M79.554,58.438l-5.882,18.242l6.83,11.033l13.846-4.54l5.569-16.957l-8.146-10.819l-12.217,2.958
			C79.553,58.384,79.563,58.412,79.554,58.438z"/>
		<path fill="#EEEEEE" d="M94.934,83.415l1.121,2.867c0.014,0.036,0.019,0.072,0.019,0.107c4.213-6.105,6.748-13.446,6.951-21.359
			l-2.494,1.348L94.934,83.415z"/>
		<path fill="#EEEEEE" d="M103.038,63.505c-0.009-0.714-0.037-1.422-0.084-2.126l-0.535,0.281l-1.265,0.663
			c-0.047,0.024-0.097,0.036-0.146,0.036c-0.098,0-0.194-0.045-0.256-0.129l-5.86-7.992c-0.04-0.056-0.062-0.123-0.061-0.192
			l0.156-10.667c0.002-0.167,0.135-0.305,0.304-0.312l0.878-0.036l0.815-0.034c-0.517-0.82-1.059-1.622-1.633-2.4
			c-0.095-0.129-0.189-0.258-0.286-0.386l-2.821,0.153l-0.029,14.574l8.144,10.815l2.685-1.451c0.001-0.101,0.008-0.2,0.008-0.301
			C103.051,63.834,103.04,63.67,103.038,63.505z"/>
		<path fill="#EEEEEE" d="M73.079,76.323c0.016-0.009,0.032-0.012,0.05-0.018l5.753-17.843L63.524,47.165l-15.355,11.25
			l5.754,17.891c0.021,0.008,0.042,0.012,0.062,0.025c0.108,0.074,0.156,0.326,0.131,0.326h18.823
			C72.912,76.657,72.962,76.395,73.079,76.323z M70.946,74.125H56.104c-0.138,0-0.259-0.089-0.301-0.22L51.217,59.6
			c-0.041-0.129,0.005-0.271,0.114-0.352l11.886-8.73c0.01-0.041-0.017-0.005,0.01-0.041c0.103-0.142,0.344-0.248,0.484-0.145
			l1.564,1.136l10.446,7.781c0.108,0.081,0.153,0.222,0.112,0.35l-4.587,14.306C71.205,74.037,71.084,74.125,70.946,74.125z"/>
		<path fill="#EEEEEE" d="M34.889,40.363l-2.888-0.156c-0.004,0-0.007-0.002-0.011-0.002c-0.044,0.059-0.092,0.115-0.136,0.173
			c-0.631,0.843-1.221,1.718-1.783,2.612l0.895,0.037l0.991,0.041c0.167,0.007,0.301,0.144,0.303,0.312l0.156,10.667
			c0.001,0.069-0.021,0.136-0.062,0.191l-5.859,7.992c-0.062,0.083-0.158,0.129-0.256,0.129c-0.05,0-0.1-0.012-0.146-0.036
			l-1.361-0.713l-0.628-0.329c-0.056,0.824-0.093,1.653-0.098,2.49C24.005,63.847,24,63.923,24,64c0,0.086,0.006,0.17,0.006,0.255
			l2.769,1.496l8.144-10.815L34.889,40.363z"/>
		<path fill="#EEEEEE" d="M95.511,86.583c-0.017-0.022-0.035-0.044-0.045-0.071l-1.054-2.694l-13.848,4.541l-7.718,11.123
			l2.363,2.231c0.013,0.012,0.019,0.027,0.028,0.041c0.004-0.001,0.008-0.002,0.011-0.003c1.138-0.354,2.249-0.763,3.34-1.214
			l-0.76-0.716l-1.006-0.95c-0.114-0.107-0.132-0.282-0.042-0.411l5.648-8.143c0.04-0.056,0.097-0.099,0.161-0.12l10.138-3.324
			c0.158-0.053,0.332,0.029,0.394,0.186l0.397,1.017l0.43,1.1c0.003,0.007,0.002,0.015,0.004,0.022
			c0.669-0.806,1.299-1.644,1.903-2.502C95.725,86.737,95.59,86.689,95.511,86.583z"/>
		<polygon fill="#D50000" points="75.241,101.757 75.249,101.75 75.238,101.753 		"/>
		<path fill="#EEEEEE" d="M45.768,88.359l-13.849-4.541l-0.982,2.513c0.168,0.244,0.342,0.483,0.515,0.724
			c0.397,0.551,0.808,1.093,1.233,1.622l0.211-0.541l0.422-1.079c0.061-0.156,0.232-0.238,0.393-0.186l10.138,3.324
			c0.065,0.021,0.122,0.064,0.161,0.12l5.649,8.143c0.09,0.128,0.071,0.304-0.042,0.411l-1.055,0.995l-0.525,0.496
			c0.803,0.344,1.623,0.655,2.452,0.945c0.26,0.091,0.521,0.18,0.783,0.266l2.213-2.089L45.768,88.359z"/>
		<path fill="#BF360C" d="M43.55,90.765l-9.752-3.197l-0.377,0.963l-0.28,0.717c0.249,0.299,0.506,0.59,0.764,0.882
			c3.588,4.062,7.993,7.382,12.96,9.701c0.183,0.085,0.365,0.166,0.549,0.248l0.635-0.6l0.936-0.882L43.55,90.765z"/>
		<path fill="#BF360C" d="M93.405,89.477c-0.017-0.022-0.035-0.044-0.045-0.071l-0.367-0.938l-0.352-0.9l-9.752,3.197l-5.434,7.832
			l0.887,0.838l0.739,0.697c0.014,0.013,0.02,0.03,0.031,0.044c0.026,0.036,0.044,0.074,0.055,0.116
			c5.602-2.424,10.531-6.109,14.438-10.694C93.526,89.584,93.456,89.542,93.405,89.477z"/>
		<path fill="#BF360C" d="M102.788,59.506c-0.602-5.282-2.246-10.25-4.725-14.695c-0.225-0.402-0.451-0.803-0.689-1.196
			l-0.996,0.041l-0.763,0.032l-0.15,10.261l5.637,7.687l1.113-0.583l0.687-0.36C102.868,60.294,102.833,59.899,102.788,59.506z"/>
		<path fill="#D50000" d="M24.171,60.401l-0.058,0.181c0.014,0.004,0.029,0.005,0.043,0.013
			C24.162,60.53,24.166,60.465,24.171,60.401z"/>
		<path fill="#BF360C" d="M31.632,43.687l-0.876-0.037l-1.075-0.044c-0.085,0.142-0.164,0.289-0.248,0.432
			c-2.872,4.885-4.724,10.436-5.262,16.363c-0.005,0.064-0.009,0.129-0.015,0.194c0.003,0.001,0.006,0,0.008,0.002L24.935,61
			l1.211,0.634l5.637-7.687L31.632,43.687z"/>
		<path fill="#EEEEEE" d="M75.779,26.452c-0.001-0.008,0.002-0.015,0.001-0.023c-0.03-0.01-0.061-0.021-0.091-0.03
			c-0.828-0.269-1.666-0.514-2.517-0.728l0.131,0.738l0.235,1.317c0.027,0.154-0.062,0.305-0.21,0.355l-9.833,3.325
			c-0.033,0.011-0.067,0.017-0.102,0.017s-0.067-0.005-0.1-0.016l-10.602-3.528c-0.159-0.053-0.249-0.221-0.205-0.383l0.271-0.996
			l0.153-0.566c-0.631,0.176-1.256,0.368-1.873,0.574c-0.207,0.069-0.412,0.137-0.617,0.209l-0.725,2.668l13.827,4.602l12.824-4.336
			L75.779,26.452z"/>
		<path fill="#D50000" d="M75.781,26.398l-0.092,0c0.03,0.01,0.061,0.021,0.091,0.03C75.779,26.418,75.781,26.408,75.781,26.398z"/>
		<polygon fill="#BF360C" points="64.105,50.513 51.889,59.623 56.335,73.493 70.716,73.493 75.677,59.107 		"/>
		<path fill="#BF360C" d="M72.662,26.412l-0.143-0.803c-0.004-0.019,0.001-0.036,0.001-0.055c0-0.011,0-0.023,0.001-0.034
			c-2.893-0.676-5.901-1.045-8.996-1.045c-3.227,0-6.361,0.397-9.364,1.13c-0.18,0.044-0.36,0.08-0.538,0.126l-0.208,0.766
			l-0.237,0.876l10.216,3.399l9.474-3.204L72.662,26.412z"/>
	</g>
	<g>
		
			<circle fill="none" stroke="#263238" stroke-width="2" stroke-linecap="round" stroke-linejoin="round" stroke-miterlimit="10" cx="64.158" cy="64" r="39.842"/>
		
			<polygon fill="none" stroke="#263238" stroke-width="2" stroke-linecap="round" stroke-linejoin="round" stroke-miterlimit="10" points="
			54.438,76.973 48.431,58.294 64.158,46.772 79.886,58.342 73.878,76.973 		"/>
		
			<polyline fill="none" stroke="#263238" stroke-width="2" stroke-linecap="round" stroke-linejoin="round" stroke-miterlimit="10" points="
			51.972,101.943 54.533,99.525 46.6,88.092 32.366,83.425 31.204,86.397 		"/>
		
			<polyline fill="none" stroke="#263238" stroke-width="2" stroke-linecap="round" stroke-linejoin="round" stroke-miterlimit="10" points="
			48.207,100.361 50.031,98.64 44.382,90.497 34.244,87.173 33.417,89.29 		"/>
		
			<polyline fill="none" stroke="#263238" stroke-width="2" stroke-linecap="round" stroke-linejoin="round" stroke-miterlimit="10" points="
			79.498,100.361 77.673,98.64 83.323,90.497 93.46,87.173 94.287,89.29 		"/>
		
			<polyline fill="none" stroke="#263238" stroke-width="2" stroke-linecap="round" stroke-linejoin="round" stroke-miterlimit="10" points="
			103.861,60.877 101.641,62.042 95.78,54.05 95.937,43.383 98.207,43.289 		"/>
		
			<polyline fill="none" stroke="#263238" stroke-width="2" stroke-linecap="round" stroke-linejoin="round" stroke-miterlimit="10" points="
			24.65,60.877 26.872,62.042 32.732,54.05 32.576,43.383 30.306,43.289 		"/>
		
			<polyline fill="none" stroke="#263238" stroke-width="2" stroke-linecap="round" stroke-linejoin="round" stroke-miterlimit="10" points="
			24.398,64.485 27.497,66.159 35.867,55.042 35.837,40.063 32.65,39.891 		"/>
		
			<polyline fill="none" stroke="#263238" stroke-width="2" stroke-linecap="round" stroke-linejoin="round" stroke-miterlimit="10" points="
			104,64.485 100.902,66.159 92.531,55.042 92.562,40.063 95.748,39.891 		"/>
		
			<polyline fill="none" stroke="#263238" stroke-width="2" stroke-linecap="round" stroke-linejoin="round" stroke-miterlimit="10" points="
			76.724,26.396 77.341,29.864 64.158,34.321 49.946,29.591 50.783,26.512 		"/>
		
			<polyline fill="none" stroke="#263238" stroke-width="2" stroke-linecap="round" stroke-linejoin="round" stroke-miterlimit="10" points="
			75.625,101.943 73.064,99.525 80.997,88.092 95.23,83.425 96.393,86.397 		"/>
		
			<line fill="none" stroke="#263238" stroke-width="2" stroke-linecap="round" stroke-linejoin="round" stroke-miterlimit="10" x1="63.684" y1="46.914" x2="63.684" y2="34.257"/>
		
			<line fill="none" stroke="#263238" stroke-width="2" stroke-linecap="round" stroke-linejoin="round" stroke-miterlimit="10" x1="48.431" y1="58.104" x2="35.867" y2="55.042"/>
		
			<line fill="none" stroke="#263238" stroke-width="2" stroke-linecap="round" stroke-linejoin="round" stroke-miterlimit="10" x1="27.497" y1="66.159" x2="32.366" y2="83.425"/>
		
			<line fill="none" stroke="#263238" stroke-width="2" stroke-linecap="round" stroke-linejoin="round" stroke-miterlimit="10" x1="46.6" y1="88.092" x2="54.438" y2="76.592"/>
		
			<line fill="none" stroke="#263238" stroke-width="2" stroke-linecap="round" stroke-linejoin="round" stroke-miterlimit="10" x1="73.878" y1="76.592" x2="80.997" y2="88.092"/>
		
			<line fill="none" stroke="#263238" stroke-width="2" stroke-linecap="round" stroke-linejoin="round" stroke-miterlimit="10" x1="72.859" y1="99.755" x2="54.508" y2="99.755"/>
		
			<line fill="none" stroke="#263238" stroke-width="2" stroke-linecap="round" stroke-linejoin="round" stroke-miterlimit="10" x1="79.886" y1="58.104" x2="92.531" y2="55.042"/>
		
			<line fill="none" stroke="#263238" stroke-width="2" stroke-linecap="round" stroke-linejoin="round" stroke-miterlimit="10" x1="100.902" y1="66.159" x2="95.23" y2="83.425"/>
		
			<line fill="none" stroke="#263238" stroke-width="2" stroke-linecap="round" stroke-linejoin="round" stroke-miterlimit="10" x1="92.562" y1="40.063" x2="77.341" y2="29.864"/>
		
			<line fill="none" stroke="#263238" stroke-width="2" stroke-linecap="round" stroke-linejoin="round" stroke-miterlimit="10" x1="49.946" y1="29.591" x2="35.837" y2="40.063"/>
		<path fill="none" stroke="#263238" stroke-width="2" stroke-linecap="round" stroke-linejoin="round" stroke-miterlimit="10" d="
			M70.913,55.496l5.252,4.007l-4.586,14.306H56.737l-4.586-14.306l12.007-8.819 M64.267,50.674l1.455,1.051"/>
		
			<polyline fill="none" stroke="#263238" stroke-width="2" stroke-linecap="round" stroke-linejoin="round" stroke-miterlimit="10" points="
			73.464,25.553 73.86,27.782 64.027,31.106 53.427,27.579 53.962,25.607 		"/>
	</g>
</g>
</svg>
