<?xml version="1.0" encoding="utf-8"?>
<!-- Generator: Adobe Illustrator 16.0.0, SVG Export Plug-In . SVG Version: 6.00 Build 0)  -->
<!DOCTYPE svg PUBLIC "-//W3C//DTD SVG 1.1//EN" "http://www.w3.org/Graphics/SVG/1.1/DTD/svg11.dtd">
<svg version="1.1" id="Layer_1" xmlns="http://www.w3.org/2000/svg" xmlns:xlink="http://www.w3.org/1999/xlink" x="0px" y="0px"
	 width="128px" height="128px" viewBox="0 0 128 128" enable-background="new 0 0 128 128" xml:space="preserve">
<circle fill="#43A047" stroke="#231F20" stroke-miterlimit="10" cx="64" cy="64" r="64"/>
<g>
	<g>
		<path fill="none" d="M84.991,85.997c1.117,1.03,1.951,2.357,2.374,3.859c0.423-1.502,1.257-2.829,2.374-3.859
			c-0.753,0.225-1.549,0.35-2.374,0.35S85.745,86.222,84.991,85.997z"/>
		<path fill="none" d="M65.627,55.984c-1.062-1.015-1.853-2.306-2.262-3.757c-0.409,1.451-1.2,2.742-2.262,3.757
			c0.72-0.204,1.477-0.321,2.262-0.321S64.906,55.78,65.627,55.984z"/>
		<path fill="none" d="M73.739,85.997c-0.752,0.225-1.549,0.35-2.374,0.35s-1.621-0.125-2.374-0.35
			c1.117,1.03,1.951,2.357,2.374,3.86C71.789,88.354,72.622,87.027,73.739,85.997z"/>
		<path fill="none" d="M57.74,85.997c-0.754,0.225-1.55,0.35-2.375,0.35s-1.621-0.125-2.375-0.35
			c1.117,1.03,1.952,2.357,2.375,3.859C55.788,88.354,56.623,87.027,57.74,85.997z"/>
		<path fill="none" d="M69.034,70.05c0.741-0.216,1.521-0.338,2.331-0.338s1.591,0.122,2.332,0.338
			c-1.096-1.023-1.914-2.337-2.332-3.82C70.948,67.713,70.13,69.027,69.034,70.05z"/>
		<path fill="none" d="M76.991,84.138c0.753-0.225,1.55-0.35,2.375-0.35s1.62,0.125,2.374,0.35c-1.117-1.03-1.951-2.357-2.374-3.859
			C78.943,81.781,78.108,83.108,76.991,84.138z"/>
		<path fill="none" d="M57.696,70.05c-1.096-1.023-1.913-2.337-2.331-3.82c-0.271,0.961-0.709,1.85-1.283,2.637
			c-0.017,0.034-0.04,0.063-0.068,0.091c-0.294,0.393-0.621,0.758-0.979,1.092c0.74-0.216,1.521-0.338,2.331-0.338
			S56.956,69.834,57.696,70.05z"/>
		<path fill="none" d="M41.739,85.997c-0.753,0.225-1.549,0.35-2.374,0.35s-1.621-0.125-2.374-0.35
			c1.117,1.03,1.951,2.357,2.374,3.86C39.789,88.354,40.622,87.027,41.739,85.997z"/>
		<path fill="none" d="M63.365,47.729c0.424-1.507,1.263-2.838,2.386-3.87c-0.757,0.227-1.557,0.353-2.386,0.353
			c-0.83,0-1.629-0.125-2.386-0.353C62.103,44.891,62.941,46.222,63.365,47.729z"/>
		<path fill="none" d="M55.365,61.732c0.409-1.452,1.2-2.742,2.262-3.757c-0.72,0.204-1.477,0.321-2.262,0.321
			s-1.541-0.117-2.262-0.321C54.165,58.99,54.956,60.28,55.365,61.732z"/>
		<path fill="none" d="M77.034,71.96c1.097,1.024,1.914,2.338,2.332,3.82c0.417-1.482,1.234-2.796,2.33-3.82
			c-0.74,0.217-1.521,0.339-2.33,0.339C78.556,72.299,77.774,72.177,77.034,71.96z"/>
		<path fill="none" d="M69.104,57.975c1.062,1.015,1.854,2.305,2.262,3.757c0.409-1.452,1.2-2.742,2.262-3.757
			c-0.72,0.204-1.478,0.321-2.262,0.321S69.824,58.179,69.104,57.975z"/>
		<path fill="none" d="M63.365,80.279c-0.423,1.502-1.258,2.83-2.375,3.859c0.754-0.225,1.55-0.35,2.375-0.35
			s1.621,0.125,2.375,0.35C64.622,83.108,63.788,81.781,63.365,80.279z"/>
		<path fill="none" d="M65.696,71.96c-0.74,0.217-1.521,0.339-2.331,0.339s-1.591-0.122-2.331-0.339
			c1.096,1.024,1.913,2.338,2.331,3.82C63.783,74.298,64.601,72.984,65.696,71.96z"/>
		<path fill="none" d="M47.365,75.78c0.418-1.482,1.235-2.796,2.332-3.82c-0.741,0.217-1.521,0.339-2.332,0.339
			c-0.81,0-1.591-0.122-2.331-0.339C46.131,72.984,46.947,74.298,47.365,75.78z"/>
		<path fill="none" d="M49.74,84.138c-1.117-1.03-1.952-2.357-2.375-3.859c-0.423,1.502-1.257,2.83-2.374,3.859
			c0.753-0.225,1.549-0.35,2.374-0.35S48.986,83.913,49.74,84.138z"/>
		<path fill="#BF360C" d="M63.365,84.423c-4.236,0-7.683,3.446-7.683,7.683c0,4.236,3.446,7.682,7.683,7.682
			s7.683-3.446,7.683-7.682C71.048,87.87,67.602,84.423,63.365,84.423z"/>
		<path fill="#4DB6AC" d="M48.001,84.423c-4.236,0-7.684,3.446-7.684,7.683c0,4.236,3.447,7.682,7.684,7.682
			c4.235,0,7.682-3.446,7.682-7.682C55.683,87.87,52.236,84.423,48.001,84.423z"/>
		<path fill="#37474F" d="M32,84.423c-4.236,0-7.683,3.446-7.683,7.683c0,1.308,0.33,2.541,0.91,3.62l10.394-10.392
			C34.541,84.754,33.31,84.423,32,84.423z"/>
		<path fill="#37474F" d="M28.56,98.965c1.037,0.522,2.203,0.823,3.44,0.823c4.236,0,7.683-3.446,7.683-7.682
			c0-1.238-0.301-2.404-0.822-3.44L28.56,98.965z"/>
		<path fill="#EEEEEE" d="M36.183,85.67L25.564,96.288c0.622,0.954,1.45,1.756,2.42,2.355L38.537,88.09
			C37.939,87.12,37.136,86.292,36.183,85.67z"/>
		<path fill="#64B5F6" d="M80.001,84.423c-4.236,0-7.684,3.446-7.684,7.683c0,4.236,3.447,7.682,7.684,7.682
			s7.682-3.446,7.682-7.682C87.683,87.87,84.237,84.423,80.001,84.423z"/>
		<path fill="#4DB6AC" d="M64,71.664c4.236,0,7.683-3.446,7.683-7.683c0-4.236-3.446-7.683-7.683-7.683s-7.683,3.446-7.683,7.683
			C56.317,68.218,59.764,71.664,64,71.664z"/>
		<path fill="#FF8A65" d="M71.683,35.894c0-4.236-3.446-7.682-7.683-7.682s-7.683,3.446-7.683,7.682
			c0,4.236,3.446,7.683,7.683,7.683S71.683,40.13,71.683,35.894z"/>
		<path fill="#EEEEEE" d="M86.082,84.54c-0.987,0-1.955-0.175-2.866-0.51c1.313,1.05,2.976,1.682,4.785,1.682
			c4.235,0,7.682-3.446,7.682-7.682c0-1.968-0.75-3.76-1.972-5.121c0.451,1.036,0.688,2.157,0.688,3.313
			C94.399,80.808,90.669,84.54,86.082,84.54z"/>
		<path fill="#EEEEEE" d="M41.747,62.03c0-1.169,0.243-2.301,0.704-3.347c-1.318,1.379-2.134,3.244-2.134,5.298
			c0,4.237,3.447,7.683,7.684,7.683c1.899,0,3.637-0.697,4.979-1.843c-0.926,0.347-1.912,0.526-2.916,0.526
			C45.479,70.347,41.747,66.616,41.747,62.03z"/>
		<path fill="#FBC02D" d="M48.001,56.298c-1.526,0-2.945,0.452-4.143,1.222c-0.007,0.005-0.015,0.009-0.022,0.013
			c-0.949,1.315-1.454,2.867-1.454,4.496c0,4.236,3.446,7.682,7.683,7.682c1.472,0,2.897-0.418,4.132-1.207
			c0.003-0.006,0.008-0.011,0.012-0.016c0.923-1.268,1.475-2.823,1.475-4.508C55.683,59.745,52.236,56.298,48.001,56.298z"/>
		<path fill="#D50000" d="M43.216,57.513c-0.005,0.007-0.01,0.014-0.015,0.021c0.008-0.004,0.015-0.008,0.022-0.013L43.216,57.513z"
			/>
		<path fill="#D50000" d="M53.573,68.489c-0.004,0.005-0.009,0.01-0.013,0.016c0.006-0.004,0.012-0.007,0.018-0.011L53.573,68.489z"
			/>
		<path fill="#4CAF50" d="M91.937,71.706v-0.041c0-0.016,0.158-0.012,0.146-0.028c-0.005-0.007,0.084-0.004,0.08-0.011
			c-1.219-0.813-2.636-1.285-4.207-1.285c-4.236,0-7.66,3.327-7.66,7.563c0,1.739,0.609,3.238,1.587,4.508h0.002
			c0.009,0,0.049,0.233,0.049,0.233c1.236,0.795,2.669,1.238,4.148,1.238c4.236,0,7.503-3.436,7.503-7.671
			C93.585,74.574,93.206,73.024,91.937,71.706z"/>
		<path fill="#BF360C" d="M80.001,71.664c4.236,0,7.682-3.446,7.682-7.683c0-4.236-3.445-7.683-7.682-7.683
			s-7.684,3.446-7.684,7.683C72.317,68.218,75.765,71.664,80.001,71.664z"/>
		<path fill="#E57373" d="M64.317,78.03c0,4.236,3.446,7.682,7.683,7.682c1.273,0,2.473-0.316,3.531-0.866L65.185,74.499
			C64.634,75.558,64.317,76.756,64.317,78.03z"/>
		<path fill="#E57373" d="M79.684,78.03c0-4.236-3.446-7.683-7.684-7.683c-1.272,0-2.472,0.316-3.53,0.867L78.816,81.56
			C79.367,80.502,79.684,79.303,79.684,78.03z"/>
		<path fill="#EEEEEE" d="M65.514,73.931L76.1,84.516c0.962-0.61,1.777-1.426,2.387-2.387L67.901,71.543
			C66.939,72.153,66.124,72.969,65.514,73.931z"/>
		<path fill="#64B5F6" d="M56,70.347c-4.236,0-7.682,3.447-7.682,7.683c0,4.236,3.445,7.682,7.682,7.682s7.683-3.446,7.683-7.682
			C63.683,73.793,60.236,70.347,56,70.347z"/>
		<path fill="#FBC02D" d="M72,57.661c4.237,0,7.684-3.447,7.684-7.683c0-4.236-3.446-7.683-7.684-7.683
			c-4.236,0-7.683,3.446-7.683,7.683C64.317,54.214,67.764,57.661,72,57.661z"/>
		<path fill="#42A5F5" d="M48.862,48.127h14.604c0.001,0,0.002,0,0.004,0c-0.802-3.174-3.842-5.874-7.47-5.874
			c-3.633,0-6.678,2.518-7.474,5.912C48.587,48.169,48.791,48.127,48.862,48.127z"/>
		<path fill="#EEEEEE" d="M63.586,48.78c-0.037,0.015-0.077-0.018-0.12-0.018H48.862c-0.063,0-0.276,0.055-0.357,0.055
			c-0.035,0-0.063,0.011-0.093,0.002c-0.056,0.372-0.094,0.761-0.094,1.148c0,0.709,0.104,1.355,0.285,2.008
			c0.023-0.006,0.251-0.039,0.259-0.039h14.536c0.18-0.635,0.284-1.313,0.284-2.021C63.683,49.521,63.644,49.158,63.586,48.78z"/>
		<path fill="#42A5F5" d="M48.804,52.602c1.088,2.924,3.898,4.997,7.196,4.997c3.294,0,6.102-1.852,7.191-5.027H48.862
			C48.842,52.571,48.824,52.605,48.804,52.602z"/>
		<path fill="#FF7043" d="M40,70.347c-4.236,0-7.683,3.447-7.683,7.683c0,4.236,3.446,7.682,7.683,7.682
			c4.237,0,7.683-3.446,7.683-7.682C47.683,73.793,44.237,70.347,40,70.347z"/>
		<path fill="#FBC02D" d="M96,99.788c4.236,0,7.683-3.446,7.683-7.682c0-4.236-3.446-7.683-7.683-7.683s-7.682,3.446-7.682,7.683
			C88.318,96.342,91.764,99.788,96,99.788z"/>
		<path fill="none" stroke="#263238" stroke-width="2" stroke-linecap="round" stroke-linejoin="round" stroke-miterlimit="10" d="
			M48.371,89.798c-0.093-0.014-0.23-0.026-0.37-0.026c-1.288,0-2.335,1.047-2.335,2.334s1.047,2.333,2.335,2.333
			c1.287,0,2.333-1.046,2.333-2.333c0-0.143-0.014-0.282-0.037-0.417C50.07,90.346,48.389,89.803,48.371,89.798z"/>
		<path fill="none" stroke="#263238" stroke-width="2" stroke-linecap="round" stroke-linejoin="round" stroke-miterlimit="10" d="
			M82.294,91.672c-0.189-1.604-1.854-1.86-1.871-1.863c-0.145-0.025-0.282-0.037-0.422-0.037c-1.287,0-2.335,1.047-2.335,2.334
			s1.048,2.333,2.335,2.333c1.286,0,2.334-1.046,2.334-2.333c0-0.117-0.016-0.229-0.029-0.342L82.294,91.672z"/>
		<path fill="#EEEEEE" d="M65.699,35.894c0-0.144-0.016-0.284-0.037-0.421c-0.287-1.819-1.659-1.872-1.814-1.872
			c-0.019,0-0.054-0.001-0.071-0.004c-0.134-0.023-0.271-0.036-0.411-0.036c-1.287,0-2.334,1.046-2.334,2.333
			c0,1.288,1.047,2.334,2.334,2.334S65.699,37.182,65.699,35.894z"/>
	</g>
	<g>
		
			<circle fill="none" stroke="#263238" stroke-width="2" stroke-linecap="round" stroke-linejoin="round" stroke-miterlimit="10" cx="64" cy="92.106" r="8"/>
		
			<circle fill="none" stroke="#263238" stroke-width="2" stroke-linecap="round" stroke-linejoin="round" stroke-miterlimit="10" cx="48" cy="92.106" r="8"/>
		
			<circle fill="none" stroke="#263238" stroke-width="2" stroke-linecap="round" stroke-linejoin="round" stroke-miterlimit="10" cx="32" cy="92.106" r="8"/>
		
			<circle fill="none" stroke="#263238" stroke-width="2" stroke-linecap="round" stroke-linejoin="round" stroke-miterlimit="10" cx="80" cy="92.106" r="8"/>
		
			<circle fill="none" stroke="#263238" stroke-width="2" stroke-linecap="round" stroke-linejoin="round" stroke-miterlimit="10" cx="64" cy="63.981" r="8"/>
		
			<circle fill="none" stroke="#263238" stroke-width="2" stroke-linecap="round" stroke-linejoin="round" stroke-miterlimit="10" cx="64" cy="35.894" r="8"/>
		
			<circle fill="none" stroke="#263238" stroke-width="2" stroke-linecap="round" stroke-linejoin="round" stroke-miterlimit="10" cx="48" cy="63.981" r="8"/>
		<path fill="none" stroke="#263238" stroke-width="2" stroke-linecap="round" stroke-linejoin="round" stroke-miterlimit="10" d="
			M54.436,68.731c-1.257,0.821-2.758,1.298-4.371,1.298c-4.418,0-8-3.582-8-8c0-1.78,0.581-3.424,1.563-4.753"/>
		<path fill="none" stroke="#263238" stroke-width="2" stroke-linecap="round" stroke-linejoin="round" stroke-miterlimit="10" d="
			M81.711,82.924c1.256,0.821,2.758,1.298,4.371,1.298c4.419,0,8-3.582,8-8c0-1.78-0.581-3.424-1.563-4.753"/>
		
			<circle fill="none" stroke="#263238" stroke-width="2" stroke-linecap="round" stroke-linejoin="round" stroke-miterlimit="10" cx="80" cy="63.981" r="8"/>
		
			<circle fill="none" stroke="#263238" stroke-width="2" stroke-linecap="round" stroke-linejoin="round" stroke-miterlimit="10" cx="72" cy="78.03" r="8"/>
		
			<circle fill="none" stroke="#263238" stroke-width="2" stroke-linecap="round" stroke-linejoin="round" stroke-miterlimit="10" cx="56" cy="78.03" r="8"/>
		
			<circle fill="none" stroke="#263238" stroke-width="2" stroke-linecap="round" stroke-linejoin="round" stroke-miterlimit="10" cx="72" cy="49.978" r="8"/>
		
			<circle fill="none" stroke="#263238" stroke-width="2" stroke-linecap="round" stroke-linejoin="round" stroke-miterlimit="10" cx="56" cy="49.978" r="8"/>
		
			<circle fill="none" stroke="#263238" stroke-width="2" stroke-linecap="round" stroke-linejoin="round" stroke-miterlimit="10" cx="40" cy="78.03" r="8"/>
		
			<circle fill="none" stroke="#263238" stroke-width="2" stroke-linecap="round" stroke-linejoin="round" stroke-miterlimit="10" cx="88" cy="78.03" r="8"/>
		
			<circle fill="none" stroke="#263238" stroke-width="2" stroke-linecap="round" stroke-linejoin="round" stroke-miterlimit="10" cx="96" cy="92.106" r="8"/>
		<g>
			
				<line fill="none" stroke="#263238" stroke-width="2" stroke-linecap="round" stroke-linejoin="round" stroke-miterlimit="10" x1="48.762" y1="48.444" x2="63.365" y2="48.444"/>
			
				<line fill="none" stroke="#263238" stroke-width="2" stroke-linecap="round" stroke-linejoin="round" stroke-miterlimit="10" x1="48.762" y1="52.254" x2="63.365" y2="52.254"/>
		</g>
		<g>
			
				<line fill="none" stroke="#263238" stroke-width="2" stroke-linecap="round" stroke-linejoin="round" stroke-miterlimit="10" x1="68.034" y1="71.227" x2="78.804" y2="81.996"/>
			
				<line fill="none" stroke="#263238" stroke-width="2" stroke-linecap="round" stroke-linejoin="round" stroke-miterlimit="10" x1="65.196" y1="74.062" x2="75.967" y2="84.833"/>
		</g>
		<g>
			
				<line fill="none" stroke="#263238" stroke-width="2" stroke-linecap="round" stroke-linejoin="round" stroke-miterlimit="10" x1="25.331" y1="96.072" x2="36.101" y2="85.303"/>
			
				<line fill="none" stroke="#263238" stroke-width="2" stroke-linecap="round" stroke-linejoin="round" stroke-miterlimit="10" x1="28.167" y1="98.909" x2="38.938" y2="88.139"/>
		</g>
		<path fill="none" stroke="#263238" stroke-width="2" stroke-linecap="round" stroke-linejoin="round" stroke-miterlimit="10" d="
			M50.61,91.635c0.027,0.152,0.041,0.31,0.041,0.471c0,1.464-1.187,2.651-2.65,2.651c-1.465,0-2.652-1.187-2.652-2.651
			c0-1.464,1.188-2.651,2.652-2.651c0.158,0,0.314,0.014,0.466,0.04"/>
		<path fill="none" stroke="#263238" stroke-width="2" stroke-linecap="round" stroke-linejoin="round" stroke-miterlimit="10" d="
			M82.61,91.635c0.026,0.152,0.042,0.31,0.042,0.471c0,1.464-1.188,2.651-2.651,2.651c-1.465,0-2.652-1.187-2.652-2.651
			c0-1.464,1.188-2.651,2.652-2.651c0.158,0,0.314,0.014,0.466,0.04"/>
		<path fill="none" stroke="#263238" stroke-width="2" stroke-linecap="round" stroke-linejoin="round" stroke-miterlimit="10" d="
			M66.61,35.424c0.027,0.152,0.041,0.31,0.041,0.47c0,1.465-1.187,2.652-2.651,2.652s-2.651-1.188-2.651-2.652
			c0-1.464,1.187-2.651,2.651-2.651c0.159,0,0.315,0.014,0.466,0.041"/>
	</g>
</g>
</svg>
