<?xml version="1.0" encoding="utf-8"?>
<!-- Generator: Adobe Illustrator 16.0.0, SVG Export Plug-In . SVG Version: 6.00 Build 0)  -->
<!DOCTYPE svg PUBLIC "-//W3C//DTD SVG 1.1//EN" "http://www.w3.org/Graphics/SVG/1.1/DTD/svg11.dtd">
<svg version="1.1" id="Layer_1" xmlns="http://www.w3.org/2000/svg" xmlns:xlink="http://www.w3.org/1999/xlink" x="0px" y="0px"
	 width="128px" height="128px" viewBox="0 0 128 128" enable-background="new 0 0 128 128" xml:space="preserve">
<circle fill="#80DEEA" stroke="#231F20" stroke-miterlimit="10" cx="64" cy="64" r="64"/>
<g>
	<g>
		<path fill="#EEEEEE" d="M62.361,46.304c-0.158-4.089-0.041-8.224,0.354-12.289c0.008-0.09,0.055-0.173,0.129-0.227
			c0.072-0.053,0.164-0.072,0.254-0.053c14.389,3.145,27.4,9.267,38.699,18.187c-0.365-1.141-0.775-2.262-1.238-3.356
			c-11.016-8.147-23.568-13.783-37.314-16.75c-0.162-0.034-0.27-0.187-0.248-0.35c0.301-2.407,0.701-4.807,1.186-7.144
			c-0.061,0-0.121-0.004-0.182-0.004c-0.619,0-1.234,0.019-1.848,0.047c-0.227,1.146-0.398,2.314-0.561,3.448
			c-0.207,1.452-0.422,2.953-0.764,4.443c0.027,0.091,0.047,0.162,0.047,0.246c-0.52,4.702-0.66,9.628-0.42,14.676
			c-0.012,0.142,0.008,0.249,0.029,0.349c0.283,5.364,1.033,10.711,2.24,15.945c0.025,0.11-0.01,0.226-0.092,0.304
			c-3.496,3.267-7.293,6.282-11.285,8.962c-0.053,0.036-0.115,0.054-0.178,0.054c-0.035,0-0.07-0.005-0.104-0.018
			c-0.096-0.033-0.168-0.108-0.199-0.203c-4.738-14.745-5.891-29.751-3.439-44.613c-0.695,0.321-1.383,0.658-2.055,1.017
			c-2.264,14.994-0.955,30.078,3.896,44.835c0.045,0.139-0.01,0.291-0.133,0.368c-3.461,2.181-7.102,4.143-10.82,5.834
			c-0.041,0.019-0.086,0.028-0.131,0.028s-0.088-0.009-0.129-0.027c-0.084-0.037-0.146-0.107-0.174-0.194
			c-4.404-13.822-5.637-27.939-3.688-41.975c-0.801,0.911-1.561,1.857-2.275,2.839c-1.42,13.371,0.002,26.817,4.229,39.967
			c0.049,0.157-0.027,0.326-0.182,0.39c-2.152,0.907-4.342,1.729-6.51,2.452c0.32,0.567,0.656,1.125,1.004,1.675
			c2.416-0.817,4.838-1.749,7.203-2.776c0.02-0.009,0.043-0.016,0.066-0.021c0.057-0.021,0.111-0.048,0.172-0.083
			c4.484-1.968,8.824-4.295,12.934-6.934c0.141-0.067,0.223-0.119,0.287-0.177c4.576-2.971,8.865-6.318,12.789-9.982
			c0.084-0.078,0.201-0.104,0.311-0.072c4.566,1.391,9.076,3.173,13.402,5.295c0.09,0.044,0.152,0.127,0.172,0.225
			c0.018,0.098-0.01,0.199-0.076,0.273C67.357,82.354,54.938,90.842,40.803,96.166c0.629,0.455,1.271,0.889,1.926,1.307
			c14.111-5.537,26.516-14.21,36.865-25.787c0.098-0.108,0.256-0.137,0.385-0.069c3.619,1.908,7.139,4.079,10.463,6.454
			c0.074,0.053,0.121,0.135,0.131,0.225s-0.02,0.18-0.08,0.248c-9.828,10.789-21.514,18.946-34.734,24.272
			c1.166,0.248,2.352,0.438,3.551,0.58c12.402-5.46,23.428-13.454,32.771-23.766c0.109-0.122,0.295-0.14,0.428-0.04
			c1.949,1.478,3.836,3.034,5.619,4.626c0.332-0.559,0.65-1.126,0.955-1.702c-1.988-1.762-4.088-3.467-6.248-5.066
			c-0.02-0.015-0.047-0.041-0.062-0.06c-0.025-0.021-0.082-0.06-0.15-0.098c-3.947-2.899-8.133-5.495-12.477-7.736
			c-0.129-0.087-0.211-0.131-0.291-0.156c-4.859-2.478-9.902-4.519-15.037-6.086c-0.107-0.033-0.191-0.121-0.217-0.232
			c-1.066-4.616-1.771-9.373-2.096-14.139c-0.008-0.1,0.033-0.197,0.107-0.262c0.076-0.065,0.178-0.09,0.275-0.07
			c15.197,3.281,28.842,9.863,40.576,19.555c0.08-0.768,0.137-1.543,0.172-2.324c-11.91-9.565-25.709-16.039-41.02-19.238
			C62.473,46.572,62.367,46.449,62.361,46.304z"/>
		<polygon fill="#D50000" points="59.553,32.243 59.555,32.236 59.553,32.24 		"/>
		<path fill="#EEEEEE" d="M44.68,28.722c-0.514,0.288-1.021,0.584-1.52,0.893c-2.453,1.52-4.725,3.3-6.783,5.301
			c-0.488,0.473-0.965,0.958-1.428,1.457c-2.105,14.129-0.951,28.352,3.432,42.278c3.502-1.61,6.934-3.463,10.207-5.512
			C43.82,58.516,42.51,43.577,44.68,28.722z"/>
		<path fill="#42A5F5" d="M59.857,47.612c-0.025-0.094-0.055-0.268-0.035-0.452c-0.244-5.033-0.42-9.993,0.102-14.694
			c-0.031-0.058-0.371-0.133-0.371-0.223c0-0.001,0-0.002,0-0.003c0-0.001,0.318-0.002,0.318-0.004c0-0.022,0.162-0.046,0.166-0.068
			c0.344-1.482,0.639-2.988,0.846-4.445c0.156-1.089,0.365-2.209,0.578-3.319c-0.666,0.042-1.307,0.1-1.963,0.173
			c-3.242,0.367-6.359,1.121-9.32,2.224c-0.699,0.261-1.383,0.545-2.064,0.844c-2.502,14.762-1.416,29.673,3.229,44.329
			c3.785-2.567,7.391-5.438,10.721-8.538C60.873,58.223,60.131,52.9,59.857,47.612z"/>
		<path fill="#FBC02D" d="M65.076,24.345c-0.082-0.001-0.166-0.004-0.25-0.006c-0.473,2.262-0.863,4.585-1.164,6.918
			c9.279,2.029,18.014,5.274,26.102,9.677c3.551,1.933,6.975,4.092,10.268,6.469C93.877,34.098,80.574,24.761,65.076,24.345z"/>
		<path fill="#EEEEEE" d="M103.662,63.192c-0.055-2.697-0.377-5.327-0.947-7.867c-0.176-0.792-0.377-1.574-0.602-2.347
			C90.82,43.885,77.768,37.646,63.312,34.433c-0.355,3.839-0.465,7.738-0.326,11.598c15.154,3.204,28.83,9.605,40.67,19.019
			c0.008-0.35,0.025-0.698,0.025-1.051C103.682,63.729,103.668,63.461,103.662,63.192z"/>
		<path fill="#42A5F5" d="M63.166,49.321c0.33,4.529,1.008,9.046,2.012,13.438c5.109,1.571,10.127,3.607,14.918,6.054
			c0.094,0.026,0.234,0.098,0.379,0.2c4.336,2.234,8.551,4.848,12.488,7.745c0.076,0.039,0.17,0.104,0.254,0.179
			c2.125,1.579,4.197,3.259,6.166,4.996c0.303-0.595,0.59-1.199,0.863-1.812c1.301-2.91,2.256-6.002,2.824-9.229
			c0.115-0.657,0.215-1.319,0.299-1.986C91.752,59.228,78.23,52.639,63.166,49.321z"/>
		<path fill="#FBC02D" d="M92.355,80.273C85.9,87.354,78.654,93.344,70.715,98.169c-3.268,1.986-6.656,3.768-10.152,5.354
			c1.135,0.098,2.277,0.159,3.438,0.159c14.172,0,26.625-7.472,33.645-18.678c0.049-0.078,0.102-0.154,0.15-0.233
			C96.066,83.224,94.242,81.712,92.355,80.273z"/>
		<path fill="#EEEEEE" d="M79.902,72.295c-10.281,11.442-22.566,20.047-36.52,25.598c0.484,0.296,0.979,0.578,1.477,0.854
			c2.584,1.43,5.346,2.573,8.24,3.401c0.527,0.151,1.057,0.292,1.59,0.421c0.006-0.002,0.008-0.006,0.012-0.008
			c13.363-5.238,25.162-13.373,35.08-24.182C86.633,76.15,83.312,74.105,79.902,72.295z"/>
		<path fill="#42A5F5" d="M64.848,65.785c-3.914,3.64-8.188,6.968-12.703,9.894c-0.072,0.071-0.211,0.16-0.371,0.232
			c-4.096,2.635-8.467,4.977-12.943,6.94c-0.072,0.045-0.176,0.094-0.281,0.13c-0.008,0.003-0.02,0.006-0.029,0.008
			c-2.322,1.008-4.699,1.922-7.07,2.729c0.336,0.512,0.684,1.013,1.041,1.507c1.938,2.675,4.197,5.102,6.727,7.218
			c0.525,0.439,1.061,0.867,1.607,1.279c14.072-5.23,26.443-13.611,36.775-24.919C73.477,68.805,69.188,67.118,64.848,65.785z"/>
		<path fill="#FBC02D" d="M30.803,53.686c-0.125-3.989,0.004-7.981,0.381-11.968c-4.33,6.356-6.865,14.028-6.865,22.282
			c0,6.756,1.701,13.119,4.689,18.693c0.043,0.08,0.082,0.161,0.127,0.24c2.104-0.698,4.227-1.49,6.318-2.364
			C32.631,71.703,31.08,62.704,30.803,53.686z"/>
	</g>
	<g>
		
			<circle fill="none" stroke="#263238" stroke-width="2" stroke-linecap="round" stroke-linejoin="round" stroke-miterlimit="10" cx="64" cy="64" r="40"/>
		<path fill="none" stroke="#263238" stroke-width="2" stroke-linecap="round" stroke-linejoin="round" stroke-miterlimit="10" d="
			M45.084,28.747c-2.314,15.125-1.006,30.292,3.883,45.163c-3.457,2.178-7.061,4.122-10.781,5.813
			c-4.492-14.101-5.688-28.483-3.543-42.818"/>
		<path fill="none" stroke="#263238" stroke-width="2" stroke-linecap="round" stroke-linejoin="round" stroke-miterlimit="10" d="
			M61.885,24.051c-0.557,2.708-0.744,5.441-1.379,8.188c0,0.001,0,0.002,0,0.003c0,0.087,0.051,0.173,0.051,0.258
			c-0.539,4.875-0.652,9.792-0.42,14.691c-0.014,0.137,0.01,0.272,0.037,0.402c0.279,5.368,1.033,10.71,2.242,15.948
			c-3.504,3.273-7.266,6.259-11.246,8.931c-4.775-14.854-5.924-30.004-3.332-45.093"/>
		<path fill="none" stroke="#263238" stroke-width="2" stroke-linecap="round" stroke-linejoin="round" stroke-miterlimit="10" d="
			M100.83,48.371c-11.09-8.222-23.682-13.878-37.52-16.865c0.316-2.517,0.734-5.021,1.26-7.501"/>
		<path fill="none" stroke="#263238" stroke-width="2" stroke-linecap="round" stroke-linejoin="round" stroke-miterlimit="10" d="
			M103.963,65.693C91.969,56.027,78.1,49.514,62.68,46.291c-0.16-4.084-0.043-8.178,0.35-12.245
			c14.686,3.208,27.92,9.507,39.383,18.763"/>
		<path fill="none" stroke="#263238" stroke-width="2" stroke-linecap="round" stroke-linejoin="round" stroke-miterlimit="10" d="
			M99.525,82.479c-2.086-1.859-4.256-3.622-6.502-5.285c-0.006-0.006-0.012-0.013-0.018-0.019c-0.072-0.064-0.15-0.116-0.23-0.161
			c-3.949-2.904-8.129-5.493-12.484-7.741c-0.107-0.076-0.221-0.139-0.34-0.177c-4.824-2.464-9.861-4.506-15.043-6.087
			c-1.068-4.631-1.766-9.346-2.088-14.089c15.338,3.311,29.082,9.978,40.896,19.859"/>
		<path fill="none" stroke="#263238" stroke-width="2" stroke-linecap="round" stroke-linejoin="round" stroke-miterlimit="10" d="
			M59.34,103.731c12.504-5.489,23.566-13.505,32.977-23.888c2.035,1.543,4.006,3.17,5.904,4.879"/>
		<path fill="none" stroke="#263238" stroke-width="2" stroke-linecap="round" stroke-linejoin="round" stroke-miterlimit="10" d="
			M42.666,97.841c14.254-5.56,26.732-14.276,37.164-25.943c3.617,1.906,7.102,4.055,10.428,6.431
			c-9.998,10.976-21.9,19.22-35.439,24.528"/>
		<path fill="none" stroke="#263238" stroke-width="2" stroke-linecap="round" stroke-linejoin="round" stroke-miterlimit="10" d="
			M30.303,85.56c2.535-0.849,5.035-1.81,7.488-2.876c0.008-0.002,0.014-0.001,0.021-0.003c0.09-0.03,0.174-0.072,0.254-0.12
			c4.486-1.967,8.818-4.291,12.941-6.938c0.121-0.055,0.234-0.124,0.328-0.21c4.547-2.946,8.834-6.288,12.793-9.985
			c4.584,1.396,9.053,3.166,13.355,5.276c-10.467,11.552-23.02,20.087-37.367,25.387"/>
		<path fill="none" stroke="#263238" stroke-width="2" stroke-linecap="round" stroke-linejoin="round" stroke-miterlimit="10" d="
			M31.615,40.517c-1.449,13.484-0.029,26.982,4.23,40.232c-2.256,0.95-4.551,1.812-6.877,2.575"/>
	</g>
</g>
</svg>
