<?xml version="1.0" encoding="utf-8"?>
<!-- Generator: Adobe Illustrator 16.0.0, SVG Export Plug-In . SVG Version: 6.00 Build 0)  -->
<!DOCTYPE svg PUBLIC "-//W3C//DTD SVG 1.1//EN" "http://www.w3.org/Graphics/SVG/1.1/DTD/svg11.dtd">
<svg version="1.1" id="Layer_1" xmlns="http://www.w3.org/2000/svg" xmlns:xlink="http://www.w3.org/1999/xlink" x="0px" y="0px"
	 width="128px" height="128px" viewBox="0 0 128 128" enable-background="new 0 0 128 128" xml:space="preserve">
<circle fill="#81C784" stroke="#231F20" stroke-miterlimit="10" cx="64" cy="64" r="64"/>
<g>
	<g>
		<path fill="#388E3C" d="M64.076,94.911c-19.018,0-34.973-6.507-39.053-15.202c1.31,9.875,18.313,17.716,39.039,17.716
			c20.665,0,37.629-7.796,39.025-17.631C98.943,88.446,83.031,94.911,64.076,94.911z"/>
		<path fill="#D50000" d="M70.644,75.03c-0.062-0.296-0.223-0.586-0.478-0.851c-0.855-0.889-2.941-1.443-2.963-1.448
			c-0.778-0.176-1.622-0.267-2.496-0.267c-3.039,0-5.636,1.149-5.937,2.566c-0.02,0.09-0.03,0.183-0.03,0.275
			c0,1.54,2.732,2.841,5.967,2.841s5.968-1.301,5.968-2.841C70.675,75.213,70.663,75.122,70.644,75.03z"/>
		<path fill="#4CAF50" d="M103.486,74.719c-0.68-10.163-18.09-18.332-39.41-18.332c-4.305,0-8.53,0.333-12.571,0.988
			c-0.021,0.003-0.051-0.002-0.051-0.002V72.19c0,0.174-0.155,0.626-0.329,0.626h-0.316h-2.208c-0.175,0-0.303-0.452-0.303-0.626
			V57.977c-13.885,2.95-23.149,9.439-23.634,16.746c-0.007,0.103-0.012,0.205-0.016,0.308c-0.003,0.101-0.013,0.202-0.013,0.303
			c0,0.777,0.108,1.542,0.298,2.294c2.367,9.368,19.012,16.652,39.144,16.652c20.058,0,36.653-7.23,39.115-16.549
			c0.207-0.786,0.326-1.584,0.326-2.397C103.519,75.127,103.5,74.924,103.486,74.719z"/>
		<path fill="#EEEEEE" d="M49.876,30.536c-0.522,0-0.946,0.425-0.946,0.947V57.21c0-0.001,0.041,0.003,0.055,0.008
			c-0.019-0.002-0.055-0.009-0.055-0.008v0.311v0.322v14.341h1.893V57.179v-8.015V32.793v-1.311
			C50.822,30.961,50.398,30.536,49.876,30.536z"/>
		<polygon fill="#BF360C" points="51.454,33.276 51.454,48.682 69.037,40.979 		"/>
	</g>
	<g>
		<path fill="none" stroke="#263238" stroke-width="2" stroke-linecap="round" stroke-linejoin="round" stroke-miterlimit="10" d="
			M51.613,57.063c3.968-0.644,8.215-0.992,12.629-0.992c21.957,0,39.758,8.624,39.758,19.262c0,10.638-17.801,19.262-39.758,19.262
			c-21.958,0-39.759-8.624-39.759-19.262c0-7.913,9.849-14.711,23.932-17.675"/>
		<path fill="none" stroke="#263238" stroke-width="2" stroke-linecap="round" stroke-linejoin="round" stroke-miterlimit="10" d="
			M69.928,73.961c0.383,0.408,0.597,0.863,0.597,1.344c0,1.743-2.812,3.156-6.282,3.156s-6.283-1.414-6.283-3.156
			c0-1.743,2.813-3.156,6.283-3.156c0.918,0,1.789,0.099,2.576,0.277"/>
		<g>
			<path fill="none" stroke="#263238" stroke-width="2" stroke-linecap="round" stroke-linejoin="round" stroke-miterlimit="10" d="
				M48.613,72.501V31.483c0-0.697,0.565-1.262,1.263-1.262s1.262,0.565,1.262,1.262v41.018H48.613z"/>
		</g>
		
			<polygon fill="none" stroke="#263238" stroke-width="2" stroke-linecap="round" stroke-linejoin="round" stroke-miterlimit="10" points="
			69.824,40.979 51.138,49.164 51.138,32.793 		"/>
		<path fill="none" stroke="#263238" stroke-width="2" stroke-linecap="round" stroke-linejoin="round" stroke-miterlimit="10" d="
			M103.913,75.08l-0.12,3.709c0,10.636-18.018,18.99-39.975,18.99C41.86,97.779,24,89.12,24,78.484v-3.143"/>
	</g>
</g>
</svg>
