<?xml version="1.0" encoding="utf-8"?>
<!-- Generator: Adobe Illustrator 16.0.0, SVG Export Plug-In . SVG Version: 6.00 Build 0)  -->
<!DOCTYPE svg PUBLIC "-//W3C//DTD SVG 1.1//EN" "http://www.w3.org/Graphics/SVG/1.1/DTD/svg11.dtd">
<svg version="1.1" id="Layer_1" xmlns="http://www.w3.org/2000/svg" xmlns:xlink="http://www.w3.org/1999/xlink" x="0px" y="0px"
	 width="128px" height="128px" viewBox="0 0 128 128" enable-background="new 0 0 128 128" xml:space="preserve">
<circle fill="#FFEE58" stroke="#231F20" stroke-miterlimit="10" cx="64" cy="64" r="64"/>
<g>
	<path fill="#D50000" d="M123.404,66.988c-0.132,0.021-0.265,0.041-0.403,0.041C123.14,67.029,123.274,67.016,123.404,66.988z"/>
	<g>
		<path fill="#EF5350" d="M2.5,64.5C2.5,65.327,3.173,66,4,66h42.014c0.827,0,1.5-0.673,1.5-1.5s-0.673-1.5-1.5-1.5H4
			C3.173,63,2.5,63.673,2.5,64.5z"/>
		<path fill="#D50000" d="M3,67.029c-0.139,0-0.271-0.02-0.403-0.041C2.727,67.016,2.861,67.029,3,67.029z"/>
		<path fill="#D50000" d="M45.417,66.988c-0.132,0.021-0.266,0.041-0.403,0.041C45.151,67.029,45.287,67.016,45.417,66.988z"/>
		<path fill="#EF5350" d="M80.488,64.5c0,0.827,0.672,1.5,1.499,1.5h42.014c0.826,0,1.499-0.673,1.499-1.5s-0.673-1.5-1.499-1.5
			H81.987C81.16,63,80.488,63.673,80.488,64.5z"/>
		<path fill="#D50000" d="M80.987,67.029c-0.139,0-0.271-0.02-0.404-0.041C80.714,67.016,80.849,67.029,80.987,67.029z"/>
		<path fill="#D50000" d="M59.953,81.986c0-0.139,0.019-0.271,0.041-0.404C59.967,81.713,59.953,81.848,59.953,81.986z"/>
		<path fill="#EF5350" d="M63.5,80.486c-0.827,0-1.5,0.673-1.5,1.5V124c0,0.827,0.673,1.5,1.5,1.5s1.5-0.673,1.5-1.5V81.986
			C65,81.159,64.327,80.486,63.5,80.486z"/>
		<path fill="#D50000" d="M59.994,124.403c-0.022-0.132-0.041-0.265-0.041-0.403C59.953,124.139,59.967,124.273,59.994,124.403z"/>
		<path fill="#D50000" d="M59.994,46.416c-0.022-0.132-0.041-0.266-0.041-0.403C59.953,46.15,59.967,46.286,59.994,46.416z"/>
		<path fill="#D50000" d="M59.953,4c0-0.139,0.019-0.271,0.041-0.404C59.967,3.727,59.953,3.861,59.953,4z"/>
		<path fill="#EF5350" d="M63.5,2.5C62.673,2.5,62,3.173,62,4v42.013c0,0.826,0.673,1.499,1.5,1.499s1.5-0.673,1.5-1.499V4
			C65,3.173,64.327,2.5,63.5,2.5z"/>
		<circle fill="#BF360C" cx="62.98" cy="64" r="1.519"/>
	</g>
	<g>
		<g>
			<path fill="none" stroke="#263238" stroke-width="2" stroke-linecap="round" stroke-linejoin="round" stroke-miterlimit="10" d="
				M46.014,66.5H4c-1.104,0-2-0.895-2-2c0-1.104,0.896-2,2-2h42.014c1.104,0,1.999,0.896,1.999,2
				C48.013,65.605,47.118,66.5,46.014,66.5z"/>
		</g>
		<g>
			<path fill="none" stroke="#263238" stroke-width="2" stroke-linecap="round" stroke-linejoin="round" stroke-miterlimit="10" d="
				M124.001,66.5H81.987c-1.104,0-2-0.895-2-2c0-1.104,0.896-2,2-2h42.014c1.104,0,1.999,0.896,1.999,2
				C126,65.605,125.105,66.5,124.001,66.5z"/>
		</g>
		<g>
			<path fill="none" stroke="#263238" stroke-width="2" stroke-linecap="round" stroke-linejoin="round" stroke-miterlimit="10" d="
				M65.5,81.986V124c0,1.104-0.896,2-2.001,2c-1.104,0-1.999-0.896-1.999-2V81.986c0-1.105,0.896-2,1.999-2
				C64.604,79.986,65.5,80.881,65.5,81.986z"/>
		</g>
		<g>
			<path fill="none" stroke="#263238" stroke-width="2" stroke-linecap="round" stroke-linejoin="round" stroke-miterlimit="10" d="
				M65.5,4v42.013c0,1.104-0.896,1.999-2.001,1.999c-1.104,0-1.999-0.895-1.999-1.999V4c0-1.105,0.896-2,1.999-2
				C64.604,2,65.5,2.895,65.5,4z"/>
		</g>
		
			<circle fill="none" stroke="#263238" stroke-width="2" stroke-linecap="round" stroke-linejoin="round" stroke-miterlimit="10" cx="63.981" cy="64" r="2.019"/>
	</g>
</g>
</svg>
