<?xml version="1.0" encoding="utf-8"?>
<!-- Generator: Adobe Illustrator 16.0.0, SVG Export Plug-In . SVG Version: 6.00 Build 0)  -->
<!DOCTYPE svg PUBLIC "-//W3C//DTD SVG 1.1//EN" "http://www.w3.org/Graphics/SVG/1.1/DTD/svg11.dtd">
<svg version="1.1" id="Layer_1" xmlns="http://www.w3.org/2000/svg" xmlns:xlink="http://www.w3.org/1999/xlink" x="0px" y="0px"
	 width="128px" height="128px" viewBox="0 0 128 128" enable-background="new 0 0 128 128" xml:space="preserve">
<circle fill="#FFE082" stroke="#231F20" stroke-miterlimit="10" cx="64" cy="64" r="64"/>
<g>
	<g>
		<path fill="#1976D2" d="M32.924,78.64h60.38c2.465,0,4.06-1.905,4.287-5.08H28.438C28.645,77.37,30.324,78.64,32.924,78.64z"/>
		<path fill="#64B5F6" d="M97.651,72.58c0-3.574-2.816-6.003-7.486-6.003h-4.524c-9.619,0-27.439-19.417-28.193-20.25
			c-0.038-0.042-0.063-0.02-0.076-0.075l-3.936-18.951l-22.452,4.446v22.687c0,0.067-0.021,0.132-0.06,0.186
			c-1.668,2.307-2.479,4.377-2.479,6.333v12.609h69.207V72.58z"/>
		<path fill="#D50000" d="M27.201,60.066c0.006-0.051,0.016-0.103,0.023-0.154C27.217,59.964,27.207,60.014,27.201,60.066z"/>
		<path fill="#D50000" d="M27.364,59.131c0-0.004,0.002-0.009,0.003-0.014C27.366,59.122,27.364,59.127,27.364,59.131z"/>
		<path fill="#FBC02D" d="M24.583,84.462c2.089-3.174,5.522-4.732,9.574-4.903l59.539,0.015c4.078,0.177,7.638,1.858,9.721,4.859
			l-3.494,3.73H27.622L24.583,84.462z"/>
		<g>
			<path fill="#D50000" d="M53.826,100.791c5.07,0,9.195-4.125,9.195-9.195c0-5.07-4.125-9.195-9.195-9.195
				c-5.07,0-9.195,4.125-9.195,9.195C44.631,96.665,48.756,100.791,53.826,100.791z"/>
			<path fill="#D50000" d="M53.826,100.791c5.07,0,9.195-4.125,9.195-9.195c0-5.07-4.125-9.195-9.195-9.195
				c-5.07,0-9.195,4.125-9.195,9.195C44.631,96.665,48.756,100.791,53.826,100.791z"/>
			<path fill="#BF360C" d="M53.826,100.791c5.07,0,9.195-4.125,9.195-9.195c0-5.07-4.125-9.195-9.195-9.195
				c-5.07,0-9.195,4.125-9.195,9.195C44.631,96.665,48.756,100.791,53.826,100.791z"/>
		</g>
		<g>
			<path fill="#D50000" d="M73.533,82.4c-5.07,0-9.195,4.125-9.195,9.195c0,5.07,4.125,9.195,9.195,9.195
				c5.07,0,9.194-4.125,9.194-9.195C82.727,86.525,78.603,82.4,73.533,82.4z"/>
			<path fill="#D50000" d="M73.533,82.4c-5.07,0-9.195,4.125-9.195,9.195c0,5.07,4.125,9.195,9.195,9.195
				c5.07,0,9.194-4.125,9.194-9.195C82.727,86.525,78.603,82.4,73.533,82.4z"/>
			<path fill="#BF360C" d="M73.533,82.4c-5.07,0-9.195,4.125-9.195,9.195c0,5.07,4.125,9.195,9.195,9.195
				c5.07,0,9.194-4.125,9.194-9.195C82.727,86.525,78.603,82.4,73.533,82.4z"/>
		</g>
		<g>
			<path fill="#D50000" d="M34.801,82.4c-5.07,0-9.195,4.125-9.195,9.195c0,5.07,4.125,9.195,9.195,9.195s9.195-4.125,9.195-9.195
				C43.996,86.525,39.872,82.4,34.801,82.4z"/>
			<path fill="#D50000" d="M34.801,82.4c-5.07,0-9.195,4.125-9.195,9.195c0,5.07,4.125,9.195,9.195,9.195s9.195-4.125,9.195-9.195
				C43.996,86.525,39.872,82.4,34.801,82.4z"/>
			<path fill="#BF360C" d="M34.801,82.4c-5.07,0-9.195,4.125-9.195,9.195c0,5.07,4.125,9.195,9.195,9.195s9.195-4.125,9.195-9.195
				C43.996,86.525,39.872,82.4,34.801,82.4z"/>
		</g>
		<g>
			<path fill="#D50000" d="M92.557,100.791c5.07,0,9.195-4.125,9.195-9.195c0-5.07-4.125-9.195-9.195-9.195
				c-5.07,0-9.195,4.125-9.195,9.195C83.362,96.665,87.487,100.791,92.557,100.791z"/>
			<path fill="#D50000" d="M92.557,100.791c5.07,0,9.195-4.125,9.195-9.195c0-5.07-4.125-9.195-9.195-9.195
				c-5.07,0-9.195,4.125-9.195,9.195C83.362,96.665,87.487,100.791,92.557,100.791z"/>
			<path fill="#BF360C" d="M92.557,100.791c5.07,0,9.195-4.125,9.195-9.195c0-5.07-4.125-9.195-9.195-9.195
				c-5.07,0-9.195,4.125-9.195,9.195C83.362,96.665,87.487,100.791,92.557,100.791z"/>
		</g>
		<path fill="#E57373" d="M36.516,87.19c-0.543-0.211-1.123-0.32-1.714-0.32c-2.605,0-4.725,2.119-4.725,4.725
			s2.12,4.725,4.725,4.725c2.605,0,4.725-2.119,4.725-4.725c0-0.507-0.096-1.028-0.311-1.689
			C38.625,88.089,36.537,87.199,36.516,87.19z"/>
		<path fill="#E57373" d="M53.826,96.32c2.605,0,4.725-2.119,4.725-4.725c0-0.659-0.098-1.202-0.299-1.659
			c-0.771-1.754-2.713-2.746-2.733-2.755c-0.522-0.202-1.101-0.311-1.693-0.311c-2.604,0-4.725,2.119-4.725,4.725
			S51.222,96.32,53.826,96.32z"/>
		<path fill="#E57373" d="M75.223,87.18c-0.521-0.201-1.099-0.309-1.69-0.309c-2.605,0-4.726,2.119-4.726,4.725
			s2.12,4.725,4.726,4.725c2.604,0,4.724-2.119,4.724-4.725c0-0.675-0.097-1.217-0.297-1.656
			C77.163,88.188,75.243,87.19,75.223,87.18z"/>
		<path fill="#E57373" d="M92.557,96.32c2.605,0,4.725-2.119,4.725-4.725c0-0.584-0.102-1.147-0.305-1.673
			c-0.707-1.838-2.691-2.726-2.711-2.734c-0.538-0.209-1.117-0.317-1.709-0.317c-2.605,0-4.725,2.119-4.725,4.725
			S89.952,96.32,92.557,96.32z"/>
	</g>
	<g>
		<path fill="none" stroke="#263238" stroke-width="2" stroke-linecap="round" stroke-linejoin="round" stroke-miterlimit="10" d="
			M90.165,66.259h-4.524c-9.588,0-27.958-20.146-27.958-20.146l-4-19.221l-23.016,4.593v22.948c-1.27,1.755-2.54,4.02-2.54,6.519
			v12.951c0,3.068,1.624,5.055,4.797,5.055h10.958h0.779h48.643c2.745,0,4.664-2.27,4.664-5.014V72.58
			C97.968,69.353,95.666,66.259,90.165,66.259z"/>
		
			<line fill="none" stroke="#263238" stroke-width="2" stroke-linecap="round" stroke-linejoin="round" stroke-miterlimit="10" x1="95.746" y1="73.878" x2="97.651" y2="73.878"/>
		
			<line fill="none" stroke="#263238" stroke-width="2" stroke-linecap="round" stroke-linejoin="round" stroke-miterlimit="10" x1="28.444" y1="73.878" x2="90.667" y2="73.878"/>
		
			<line fill="none" stroke="#263238" stroke-width="2" stroke-linecap="round" stroke-linejoin="round" stroke-miterlimit="10" x1="51.955" y1="32.883" x2="54.551" y2="32.361"/>
		
			<line fill="none" stroke="#263238" stroke-width="2" stroke-linecap="round" stroke-linejoin="round" stroke-miterlimit="10" x1="30.942" y1="37.108" x2="46.055" y2="34.07"/>
		
			<circle fill="none" stroke="#263238" stroke-width="2" stroke-linecap="round" stroke-linejoin="round" stroke-miterlimit="10" cx="34.801" cy="91.595" r="9.513"/>
		
			<circle fill="none" stroke="#263238" stroke-width="2" stroke-linecap="round" stroke-linejoin="round" stroke-miterlimit="10" cx="53.826" cy="91.595" r="9.512"/>
		
			<circle fill="none" stroke="#263238" stroke-width="2" stroke-linecap="round" stroke-linejoin="round" stroke-miterlimit="10" cx="73.532" cy="91.595" r="9.512"/>
		
			<circle fill="none" stroke="#263238" stroke-width="2" stroke-linecap="round" stroke-linejoin="round" stroke-miterlimit="10" cx="92.557" cy="91.595" r="9.512"/>
		<path fill="none" stroke="#263238" stroke-width="2" stroke-linecap="round" stroke-linejoin="round" stroke-miterlimit="10" d="
			M40.153,89.808c0.21,0.556,0.325,1.158,0.325,1.787c0,2.785-2.257,5.042-5.042,5.042c-2.785,0-5.042-2.257-5.042-5.042
			c0-2.785,2.257-5.042,5.042-5.042c0.647,0,1.267,0.123,1.835,0.344"/>
		<path fill="none" stroke="#263238" stroke-width="2" stroke-linecap="round" stroke-linejoin="round" stroke-miterlimit="10" d="
			M58.542,89.808c0.211,0.556,0.326,1.158,0.326,1.787c0,2.785-2.258,5.042-5.042,5.042c-2.784,0-5.042-2.257-5.042-5.042
			c0-2.785,2.258-5.042,5.042-5.042c0.647,0,1.267,0.123,1.835,0.344"/>
		<path fill="none" stroke="#263238" stroke-width="2" stroke-linecap="round" stroke-linejoin="round" stroke-miterlimit="10" d="
			M78.249,89.808c0.211,0.556,0.326,1.158,0.326,1.787c0,2.785-2.257,5.042-5.042,5.042c-2.786,0-5.043-2.257-5.043-5.042
			c0-2.785,2.257-5.042,5.043-5.042c0.647,0,1.267,0.123,1.836,0.344"/>
		<path fill="none" stroke="#263238" stroke-width="2" stroke-linecap="round" stroke-linejoin="round" stroke-miterlimit="10" d="
			M97.273,89.808c0.21,0.556,0.326,1.158,0.326,1.787c0,2.785-2.257,5.042-5.042,5.042s-5.043-2.257-5.043-5.042
			c0-2.785,2.258-5.042,5.043-5.042c0.648,0,1.267,0.123,1.836,0.344"/>
		<path fill="none" stroke="#263238" stroke-width="2" stroke-linecap="round" stroke-linejoin="round" stroke-miterlimit="10" d="
			M24,84.931c1.804-2.918,4.759-5.051,8.231-5.766"/>
		
			<line fill="none" stroke="#263238" stroke-width="2" stroke-linecap="round" stroke-linejoin="round" stroke-miterlimit="10" x1="24" y1="84.931" x2="26.634" y2="86.717"/>
		<path fill="none" stroke="#263238" stroke-width="2" stroke-linecap="round" stroke-linejoin="round" stroke-miterlimit="10" d="
			M104,84.931c-1.916-3.099-5.129-5.311-8.882-5.881"/>
		
			<line fill="none" stroke="#263238" stroke-width="2" stroke-linecap="round" stroke-linejoin="round" stroke-miterlimit="10" x1="104" y1="84.931" x2="101.365" y2="86.717"/>
	</g>
</g>
</svg>
