<?xml version="1.0" encoding="utf-8"?>
<!-- Generator: Adobe Illustrator 16.0.0, SVG Export Plug-In . SVG Version: 6.00 Build 0)  -->
<!DOCTYPE svg PUBLIC "-//W3C//DTD SVG 1.1//EN" "http://www.w3.org/Graphics/SVG/1.1/DTD/svg11.dtd">
<svg version="1.1" id="Layer_1" xmlns="http://www.w3.org/2000/svg" xmlns:xlink="http://www.w3.org/1999/xlink" x="0px" y="0px"
	 width="128px" height="128px" viewBox="0 0 128 128" enable-background="new 0 0 128 128" xml:space="preserve">
<circle fill="#EF9A9A" stroke="#231F20" stroke-miterlimit="10" cx="64" cy="64" r="64"/>
<g>
	<g>
		<path fill="none" d="M50.754,32.909V45.76c3.81-1.574,8.38-2.438,13.016-2.438s9.206,0.864,13.016,2.438V32.909
			c0-1.579-0.799-2.242-2.365-2.242H54.041C52.511,30.667,50.754,31.307,50.754,32.909z"/>
		<path fill="#1976D2" d="M44.404,32.909v16.684c0,0.106,0.034,0.205-0.054,0.263c-9.794,6.565-15.598,17.769-15.598,29.706
			c0,8.838,3.381,17.137,9.444,24.122h52.066c5.879-6.984,9.114-15.086,9.114-24.122c0-12.233-6.039-23.356-16.008-29.621
			c-0.093-0.058-0.235-0.239-0.235-0.348V32.909c0-5.079-3.647-8.591-8.715-8.591H54.041C48.823,24.317,44.404,27.997,44.404,32.909
			z M83.565,55.27c0.151,0.142,3.311,3.119,4.268,4.262c4.638,5.537,7.191,12.586,7.191,19.851c0,7.124-2.475,14.361-6.787,19.581
			c-0.061,0.073-0.15,0.274-0.245,0.274H40.469c-0.095,0-0.185-0.201-0.244-0.274c-4.313-5.219-6.788-12.377-6.788-19.501
			c0-17.06,13.814-30.979,30.794-30.979C71.249,48.484,78.115,50.868,83.565,55.27z M50.119,32.909c0-2,2.079-2.877,3.922-2.877
			H74.42c1.929,0,3,0.936,3,2.877v13.332c0,0.107,0.033,0.207-0.057,0.266c-0.052,0.034-0.069,0.051-0.13,0.051
			c-0.043,0-0.065-0.009-0.106-0.027c-3.782-1.66-8.461-2.574-13.194-2.574s-9.418,0.914-13.2,2.574
			c-0.098,0.043-0.295,0.035-0.386-0.024c-0.089-0.059-0.228-0.159-0.228-0.266V32.909z"/>
		<path fill="#4DB6AC" d="M87.914,59.603c-0.956-1.142-4.269-4.264-4.301-4.295c-5.45-4.4-12.34-6.833-19.383-6.833
			c-17.038,0-30.899,14.103-30.899,31.223c0,7.096,2.443,14.461,6.708,19.541h48.384c4.265-5.08,6.707-12.444,6.707-19.541
			C95.13,72.407,92.567,65.158,87.914,59.603z"/>
	</g>
	<g>
		<path fill="none" stroke="#263238" stroke-width="2" stroke-linecap="round" stroke-linejoin="round" stroke-miterlimit="10" d="
			M83.452,49.592V32.909c0-5.251-3.78-8.909-9.032-8.909H54.041c-5.251,0-9.954,3.658-9.954,8.909v16.684
			c-9.523,6.383-15.695,17.585-15.695,29.969c0,9.32,3.807,18.09,9.666,24.439h52.346c5.859-6.349,9.205-15.119,9.205-24.439
			C99.608,67.177,93.611,55.976,83.452,49.592z M50.437,32.909c0-1.75,1.854-2.56,3.604-2.56H74.42c1.75,0,2.683,0.809,2.683,2.56
			v13.332c-3.81-1.672-8.605-2.601-13.333-2.601s-9.523,0.929-13.333,2.601V32.909z"/>
		<path fill="none" stroke="#263238" stroke-width="2" stroke-linecap="round" stroke-linejoin="round" stroke-miterlimit="10" d="
			M83.365,55.517c-5.23-4.224-11.887-6.755-19.135-6.755c-16.831,0-30.477,13.949-30.477,30.78c0,7.222,2.518,14.299,6.715,19.378
			h47.523c4.198-5.079,6.715-12.157,6.715-19.378c0-7.452-2.675-14.432-7.117-19.727"/>
	</g>
</g>
</svg>
