<?xml version="1.0" encoding="utf-8"?>
<!-- Generator: Adobe Illustrator 16.0.0, SVG Export Plug-In . SVG Version: 6.00 Build 0)  -->
<!DOCTYPE svg PUBLIC "-//W3C//DTD SVG 1.1//EN" "http://www.w3.org/Graphics/SVG/1.1/DTD/svg11.dtd">
<svg version="1.1" id="Layer_1" xmlns="http://www.w3.org/2000/svg" xmlns:xlink="http://www.w3.org/1999/xlink" x="0px" y="0px"
	 width="128px" height="128px" viewBox="0 0 128 128" enable-background="new 0 0 128 128" xml:space="preserve">
<circle fill="#FF6F00" stroke="#231F20" stroke-miterlimit="10" cx="64" cy="64" r="64"/>
<g>
	<g>
		<polygon fill="#E0F2F1" points="57.958,76.59 58.297,80.415 60.913,80.415 60.768,76.59 		"/>
		<polygon fill="#E0F2F1" points="61.407,76.59 61.551,80.415 63.681,80.415 63.681,76.59 		"/>
		<polygon fill="#E0F2F1" points="64.319,76.59 64.319,80.415 67.435,80.415 67.68,76.59 		"/>
		<path fill="#E0F2F1" d="M29.896,24.319v56.096h21.238l-0.726-3.825H34.358h-0.637v-0.479v-47.49v-0.319
			c0-0.176,0.461-0.159,0.637-0.159h59.92c0.176,0,0-0.017,0,0.159v47.809c0,0.176,0.176,0.479,0,0.479H93.96H78.688l-0.824,3.825
			h20.239V24.319H29.896z"/>
		<polygon fill="#E0F2F1" points="71.778,76.59 71.341,80.415 73.957,80.415 74.587,76.59 		"/>
		<polygon fill="#E0F2F1" points="68.327,76.59 68.084,80.415 70.7,80.415 71.137,76.59 		"/>
		<polygon fill="#E0F2F1" points="53.864,76.59 51.058,76.59 51.784,80.415 54.396,80.415 		"/>
		<polygon fill="#E0F2F1" points="74.602,80.415 77.212,80.415 78.036,76.59 75.233,76.59 		"/>
		<polygon fill="#E0F2F1" points="57.318,76.59 54.508,76.59 55.04,80.415 57.657,80.415 		"/>
		<polygon fill="#D50000" points="75.653,74.04 75.338,75.952 78.173,75.952 78.585,74.04 		"/>
		<polygon fill="#D50000" points="54.153,74.04 54.419,75.952 57.262,75.952 57.092,74.04 		"/>
		<path fill="#EF5350" d="M36.908,74.04h-0.637v-0.479v-42.39v-0.319c0-0.176,0.461-0.159,0.637-0.159h48.127
			c0.176,0,0.319,0.143,0.319,0.318c0,0.176-0.143,0.319-0.319,0.319h5.1c-0.176,0-0.318-0.143-0.318-0.319
			c0-0.176,0.143-0.318,0.318-0.318h1.594c0.176,0,0-0.017,0,0.159v42.709c0,0.176,0.176,0.479,0,0.479H91.41H79.238l-0.412,1.912
			h14.816V28.781H34.358v47.171h15.93l-0.362-1.912H36.908z"/>
		<polygon fill="#D50000" points="57.732,74.04 57.901,75.952 60.743,75.952 60.671,74.04 		"/>
		<polygon fill="#D50000" points="68.367,75.952 71.21,75.952 71.428,74.04 68.488,74.04 		"/>
		<polygon fill="#D50000" points="64.319,74.04 64.319,75.952 67.72,75.952 67.842,74.04 		"/>
		<polygon fill="#D50000" points="61.311,74.04 61.383,75.952 63.681,75.952 63.681,74.04 		"/>
		<polygon fill="#D50000" points="50.574,74.04 50.937,75.952 53.775,75.952 53.509,74.04 		"/>
		<polygon fill="#D50000" points="71.851,75.952 74.692,75.952 75.007,74.04 72.069,74.04 		"/>
		<path fill="#D50000" d="M33.402,76.111v0.319h0.319C33.545,76.43,33.402,76.288,33.402,76.111z"/>
		<path fill="#D50000" d="M35.952,73.562v0.319h0.319C36.095,73.88,35.952,73.738,35.952,73.562z"/>
		<polygon fill="#EEEEEE" points="72.58,69.578 72.143,73.402 75.112,73.402 75.743,69.578 		"/>
		<polygon fill="#EEEEEE" points="76.389,69.578 75.758,73.402 78.722,73.402 79.546,69.578 		"/>
		<path fill="#EEEEEE" d="M36.908,73.402h12.896l-0.726-3.825h-0.352c-0.131,0-0.26-0.093-0.384-0.12
			c-1.033-0.189-1.847-1.073-1.847-2.151c0-1.209,1.022-2.191,2.231-2.191h31.809c1.209,0,2.231,0.942,2.231,2.151
			c0,1.078-0.814,2.042-1.847,2.231c-0.125,0.026-0.253,0.08-0.385,0.08h-0.918c0,0,0-0.154,0-0.152l-0.243,3.977h11.717V31.331
			h-0.957h-5.1H36.908V73.402z"/>
		<polygon fill="#EEEEEE" points="49.728,69.578 50.454,73.402 53.421,73.402 52.889,69.578 		"/>
		<polygon fill="#EEEEEE" points="63.681,73.402 63.681,69.578 61.142,69.578 61.287,73.402 		"/>
		<path fill="#EEEEEE" d="M60.647,73.402l-0.144-3.793c0-0.011,0.004-0.032,0.004-0.032h-3.17l0.339,3.825H60.647z"/>
		<polygon fill="#EEEEEE" points="67.883,73.402 68.127,69.578 64.319,69.578 64.319,73.402 		"/>
		<polygon fill="#EEEEEE" points="56.697,69.578 53.532,69.578 54.064,73.402 57.036,73.402 		"/>
		<polygon fill="#EEEEEE" points="71.501,73.402 71.938,69.578 68.77,69.578 68.528,73.402 		"/>
		<path fill="#D50000" d="M80.284,69.378c-0.126,0.022-0.253,0.04-0.385,0.04C80.03,69.418,80.159,69.405,80.284,69.378z"/>
		<path fill="#D50000" d="M48.09,69.418c-0.131,0-0.259-0.018-0.385-0.04C47.83,69.405,47.958,69.418,48.09,69.418z"/>
		<path fill="#BF360C" d="M47.134,67.347c0,0.864,0.73,1.594,1.593,1.594h31.809c0.864,0,1.594-0.73,1.594-1.594
			c0-0.864-0.729-1.594-1.594-1.594H48.727C47.864,65.753,47.134,66.482,47.134,67.347z"/>
	</g>
	<g>
		
			<rect x="29.578" y="24" fill="none" stroke="#263238" stroke-width="2" stroke-linecap="round" stroke-linejoin="round" stroke-miterlimit="10" width="68.845" height="56.733"/>
		
			<polyline fill="none" stroke="#263238" stroke-width="2" stroke-linecap="round" stroke-linejoin="round" stroke-miterlimit="10" points="
			89.817,31.012 91.41,31.012 91.41,73.721 36.589,73.721 36.589,31.012 84.717,31.012 		"/>
		<path fill="none" stroke="#263238" stroke-width="2" stroke-linecap="round" stroke-linejoin="round" stroke-miterlimit="10" d="
			M82.449,67.347c0,1.028-0.861,1.912-1.913,1.912H48.728c-1.052,0-1.912-0.884-1.912-1.912s0.86-1.913,1.912-1.913h31.809
			C81.588,65.434,82.449,66.318,82.449,67.347z"/>
		
			<line fill="none" stroke="#263238" stroke-width="2" stroke-linecap="round" stroke-linejoin="round" stroke-miterlimit="10" x1="64.632" y1="69.259" x2="64.634" y2="94.332"/>
		
			<line fill="none" stroke="#263238" stroke-width="2" stroke-linecap="round" stroke-linejoin="round" stroke-miterlimit="10" x1="49.5" y1="69.259" x2="54.547" y2="94.332"/>
		
			<line fill="none" stroke="#263238" stroke-width="2" stroke-linecap="round" stroke-linejoin="round" stroke-miterlimit="10" x1="53.283" y1="69.259" x2="57.069" y2="94.332"/>
		
			<line fill="none" stroke="#263238" stroke-width="2" stroke-linecap="round" stroke-linejoin="round" stroke-miterlimit="10" x1="60.743" y1="69.259" x2="62.112" y2="94.332"/>
		
			<line fill="none" stroke="#263238" stroke-width="2" stroke-linecap="round" stroke-linejoin="round" stroke-miterlimit="10" x1="57.069" y1="69.259" x2="59.59" y2="94.332"/>
		
			<line fill="none" stroke="#263238" stroke-width="2" stroke-linecap="round" stroke-linejoin="round" stroke-miterlimit="10" x1="79.618" y1="69.426" x2="74.73" y2="94.332"/>
		
			<line fill="none" stroke="#263238" stroke-width="2" stroke-linecap="round" stroke-linejoin="round" stroke-miterlimit="10" x1="68.429" y1="69.259" x2="67.165" y2="94.332"/>
		
			<line fill="none" stroke="#263238" stroke-width="2" stroke-linecap="round" stroke-linejoin="round" stroke-miterlimit="10" x1="75.97" y1="69.418" x2="72.208" y2="94.332"/>
		
			<line fill="none" stroke="#263238" stroke-width="2" stroke-linecap="round" stroke-linejoin="round" stroke-miterlimit="10" x1="72.208" y1="69.259" x2="69.687" y2="94.332"/>
		
			<line fill="none" stroke="#263238" stroke-width="2" stroke-linecap="round" stroke-linejoin="round" stroke-miterlimit="10" x1="54.757" y1="94.757" x2="74.518" y2="94.757"/>
		
			<line fill="none" stroke="#263238" stroke-width="2" stroke-linecap="round" stroke-linejoin="round" stroke-miterlimit="10" x1="54.757" y1="99.856" x2="74.518" y2="99.856"/>
		
			<line fill="none" stroke="#263238" stroke-width="2" stroke-linecap="round" stroke-linejoin="round" stroke-miterlimit="10" x1="54.547" y1="94.611" x2="54.492" y2="102.898"/>
		<path fill="none" stroke="#263238" stroke-width="2" stroke-linecap="round" stroke-linejoin="round" stroke-miterlimit="10" d="
			M74.836,104"/>
		<path fill="none" stroke="#263238" stroke-width="2" stroke-linecap="round" stroke-linejoin="round" stroke-miterlimit="10" d="
			M74.836,94.438"/>
		
			<line fill="none" stroke="#263238" stroke-width="2" stroke-linecap="round" stroke-linejoin="round" stroke-miterlimit="10" x1="56.988" y1="94.438" x2="57.012" y2="102.898"/>
		<path fill="none" stroke="#263238" stroke-width="2" stroke-linecap="round" stroke-linejoin="round" stroke-miterlimit="10" d="
			M72.287,104"/>
		<path fill="none" stroke="#263238" stroke-width="2" stroke-linecap="round" stroke-linejoin="round" stroke-miterlimit="10" d="
			M72.287,94.438"/>
		<path fill="none" stroke="#263238" stroke-width="2" stroke-linecap="round" stroke-linejoin="round" stroke-miterlimit="10" d="
			M59.538,102.725"/>
		<path fill="none" stroke="#263238" stroke-width="2" stroke-linecap="round" stroke-linejoin="round" stroke-miterlimit="10" d="
			M59.538,93.801"/>
		<path fill="none" stroke="#263238" stroke-width="2" stroke-linecap="round" stroke-linejoin="round" stroke-miterlimit="10" d="
			M69.737,104"/>
		<path fill="none" stroke="#263238" stroke-width="2" stroke-linecap="round" stroke-linejoin="round" stroke-miterlimit="10" d="
			M69.737,94.438"/>
		<path fill="none" stroke="#263238" stroke-width="2" stroke-linecap="round" stroke-linejoin="round" stroke-miterlimit="10" d="
			M62.087,102.725"/>
		<path fill="none" stroke="#263238" stroke-width="2" stroke-linecap="round" stroke-linejoin="round" stroke-miterlimit="10" d="
			M62.087,94.438"/>
		<path fill="none" stroke="#263238" stroke-width="2" stroke-linecap="round" stroke-linejoin="round" stroke-miterlimit="10" d="
			M67.187,94.438"/>
		<path fill="none" stroke="#263238" stroke-width="2" stroke-linecap="round" stroke-linejoin="round" stroke-miterlimit="10" d="
			M64.637,104"/>
		<path fill="none" stroke="#263238" stroke-width="2" stroke-linecap="round" stroke-linejoin="round" stroke-miterlimit="10" d="
			M64.637,94.438"/>
		
			<rect x="34.04" y="28.462" fill="none" stroke="#263238" stroke-width="2" stroke-linecap="round" stroke-linejoin="round" stroke-miterlimit="10" width="59.92" height="47.809"/>
		
			<line fill="none" stroke="#263238" stroke-width="2" stroke-linecap="round" stroke-linejoin="round" stroke-miterlimit="10" x1="59.538" y1="94.438" x2="59.562" y2="102.898"/>
		
			<line fill="none" stroke="#263238" stroke-width="2" stroke-linecap="round" stroke-linejoin="round" stroke-miterlimit="10" x1="62.087" y1="94.438" x2="62.111" y2="102.898"/>
		
			<line fill="none" stroke="#263238" stroke-width="2" stroke-linecap="round" stroke-linejoin="round" stroke-miterlimit="10" x1="64.637" y1="94.438" x2="64.661" y2="102.898"/>
		
			<line fill="none" stroke="#263238" stroke-width="2" stroke-linecap="round" stroke-linejoin="round" stroke-miterlimit="10" x1="67.187" y1="94.438" x2="67.211" y2="102.898"/>
		
			<line fill="none" stroke="#263238" stroke-width="2" stroke-linecap="round" stroke-linejoin="round" stroke-miterlimit="10" x1="69.719" y1="94.452" x2="69.742" y2="102.911"/>
		
			<line fill="none" stroke="#263238" stroke-width="2" stroke-linecap="round" stroke-linejoin="round" stroke-miterlimit="10" x1="72.287" y1="94.438" x2="72.311" y2="102.898"/>
		
			<line fill="none" stroke="#263238" stroke-width="2" stroke-linecap="round" stroke-linejoin="round" stroke-miterlimit="10" x1="74.73" y1="94.452" x2="74.86" y2="102.898"/>
	</g>
</g>
</svg>
