<?xml version="1.0" encoding="utf-8"?>
<!-- Generator: Adobe Illustrator 16.0.0, SVG Export Plug-In . SVG Version: 6.00 Build 0)  -->
<!DOCTYPE svg PUBLIC "-//W3C//DTD SVG 1.1//EN" "http://www.w3.org/Graphics/SVG/1.1/DTD/svg11.dtd">
<svg version="1.1" id="Layer_1" xmlns="http://www.w3.org/2000/svg" xmlns:xlink="http://www.w3.org/1999/xlink" x="0px" y="0px"
	 width="128px" height="128px" viewBox="0 0 128 128" enable-background="new 0 0 128 128" xml:space="preserve">
<circle fill="#00E5FF" stroke="#231F20" stroke-miterlimit="10" cx="64" cy="64" r="64"/>
<g>
	<g>
		<path fill="#64B5F6" d="M74.771,84.902L64.302,74.431l-1.287,1.287l16.198,16.175c0.105,0.104,0.242,0.099,0.473,0.099
			l0.201-0.026h9.526v-6.989H75.41l-0.439-0.007C74.895,84.963,74.824,84.956,74.771,84.902z"/>
		<path fill="#B2DFDB" d="M100.224,91.965c1.886,0,3.479-1.671,3.479-3.65c0-1.872-1.546-3.338-3.518-3.338h-3.782v6.989H100.224z"
			/>
		<rect x="90.049" y="84.977" fill="#FFE082" width="5.718" height="6.989"/>
		<path fill="#1976D2" d="M25.945,36.066c-0.187-0.187-0.433-0.289-0.693-0.289c-0.249,0-0.48,0.096-0.654,0.27
			c-0.18,0.181-0.279,0.413-0.279,0.654c0,0.242,0.099,0.475,0.279,0.655l37.968,37.914l1.288-1.287L25.945,36.066z"/>
	</g>
	<g>
		<g>
			<path fill="none" stroke="#263238" stroke-width="2" stroke-linecap="round" stroke-linejoin="round" stroke-miterlimit="10" d="
				M75.294,84.659L26.169,35.698c-0.496-0.496-1.301-0.415-1.797,0.082c-0.496,0.497-0.496,1.342,0,1.838l54.616,54.636
				c0.248,0.248,0.573,0.382,0.898,0.382l20.297-0.024c2.107,0,3.816-1.869,3.816-3.976c0-2.107-1.708-3.977-3.816-3.977H75.294z"/>
		</g>
		
			<line fill="none" stroke="#263238" stroke-width="2" stroke-linecap="round" stroke-linejoin="round" stroke-miterlimit="10" x1="62.499" y1="75.785" x2="64.296" y2="73.988"/>
		
			<line fill="none" stroke="#263238" stroke-width="2" stroke-linecap="round" stroke-linejoin="round" stroke-miterlimit="10" x1="96.084" y1="84.977" x2="96.084" y2="91.965"/>
		
			<line fill="none" stroke="#263238" stroke-width="2" stroke-linecap="round" stroke-linejoin="round" stroke-miterlimit="10" x1="89.731" y1="84.977" x2="89.731" y2="91.965"/>
	</g>
</g>
</svg>
