<?xml version="1.0" encoding="utf-8"?>
<!-- Generator: Adobe Illustrator 16.0.0, SVG Export Plug-In . SVG Version: 6.00 Build 0)  -->
<!DOCTYPE svg PUBLIC "-//W3C//DTD SVG 1.1//EN" "http://www.w3.org/Graphics/SVG/1.1/DTD/svg11.dtd">
<svg version="1.1" id="Layer_1" xmlns="http://www.w3.org/2000/svg" xmlns:xlink="http://www.w3.org/1999/xlink" x="0px" y="0px"
	 width="128px" height="128px" viewBox="0 0 128 128" enable-background="new 0 0 128 128" xml:space="preserve">
<circle fill="#F8BBD0" stroke="#231F20" stroke-miterlimit="10" cx="64" cy="64" r="64"/>
<g>
	<g>
		<path fill="#42A5F5" d="M36.381,36.715l-0.635,0.016v53.92c4.444-0.167,6.349-2.797,6.349-6.016v-14.92v-0.318v-11.11v-0.317
			V43.048V42.73C42.095,39.512,39.559,36.882,36.381,36.715z"/>
		<path fill="#64B5F6" d="M35.746,90.65V41.778v-1.271v-3.793c-3.175,0.167-5.714,2.797-5.714,6.016v11.089v19.727v11.089
			C30.032,87.854,32.571,90.483,35.746,90.65z"/>
		<path fill="#E0F2F1" d="M27.038,51.302c-0.055,0-0.186,0.013-0.24,0.016c-1.353,0.082-2.48,1.168-2.48,2.502v19.727
			c0,1.388,1.447,2.835,2.835,2.835h0.043c1.388,0,2.201-1.447,2.201-2.835V54.137v-0.317
			C29.397,52.432,28.426,51.302,27.038,51.302z"/>
		<path fill="#42A5F5" d="M91.619,90.65V41.778v-5.063c-3.175,0.167-5.714,2.797-5.714,6.016v15.238v11.428v15.238
			C85.905,87.854,88.444,90.483,91.619,90.65z"/>
		<path fill="#64B5F6" d="M92.254,36.715l-0.635,0.016v53.92c4.444-0.167,6.349-2.797,6.349-6.016V73.863v-0.317V54.137v-0.317
			V43.048V42.73C97.968,39.512,95.432,36.882,92.254,36.715z"/>
		<path fill="#E0F2F1" d="M101.323,51.302c-0.055,0-0.186,0.013-0.24,0.016c-1.353,0.082-2.48,1.168-2.48,2.502v19.727
			c0,1.388,1.447,2.835,2.835,2.835h0.043c1.388,0,2.201-1.447,2.201-2.835V54.137v-0.317
			C103.683,52.432,102.711,51.302,101.323,51.302z"/>
		<rect x="42.73" y="58.604" fill="#B2DFDB" width="42.54" height="10.793"/>
	</g>
	<g>
		<path fill="none" stroke="#263238" stroke-width="2" stroke-linecap="round" stroke-linejoin="round" stroke-miterlimit="10" d="
			M42.413,84.952c0,3.507-2.842,6.35-6.349,6.35l0,0c-3.507,0-6.349-2.843-6.349-6.35V43.048c0-3.507,2.842-6.35,6.349-6.35l0,0
			c3.507,0,6.349,2.843,6.349,6.35V84.952z"/>
		<path fill="none" stroke="#263238" stroke-width="2" stroke-linecap="round" stroke-linejoin="round" stroke-miterlimit="10" d="
			M29.714,73.863c0,1.566-1.27,2.835-2.835,2.835h-0.043C25.27,76.698,24,75.43,24,73.863V54.137c0-1.565,1.27-2.835,2.835-2.835
			h0.043c1.566,0,2.835,1.27,2.835,2.835V73.863z"/>
		<path fill="none" stroke="#263238" stroke-width="2" stroke-linecap="round" stroke-linejoin="round" stroke-miterlimit="10" d="
			M98.286,43.048c0-3.507-2.842-6.35-6.349-6.35l0,0c-3.507,0-6.349,2.843-6.349,6.35v41.904c0,3.507,2.842,6.35,6.349,6.35l0,0
			c3.507,0,6.349-2.843,6.349-6.35V43.048z"/>
		<path fill="none" stroke="#263238" stroke-width="2" stroke-linecap="round" stroke-linejoin="round" stroke-miterlimit="10" d="
			M104,54.137c0-1.565-1.27-2.835-2.835-2.835h-0.043c-1.566,0-2.835,1.27-2.835,2.835v19.727c0,1.565,1.27,2.835,2.835,2.835h0.043
			c1.566,0,2.835-1.27,2.835-2.835V54.137z"/>
		
			<rect x="42.413" y="58.286" fill="none" stroke="#263238" stroke-width="2" stroke-linecap="round" stroke-linejoin="round" stroke-miterlimit="10" width="43.175" height="11.429"/>
		
			<line fill="none" stroke="#263238" stroke-width="2" stroke-linecap="round" stroke-linejoin="round" stroke-miterlimit="10" x1="36.063" y1="90.984" x2="36.063" y2="47.81"/>
		
			<line fill="none" stroke="#263238" stroke-width="2" stroke-linecap="round" stroke-linejoin="round" stroke-miterlimit="10" x1="36.063" y1="42.096" x2="36.063" y2="37.016"/>
		
			<line fill="none" stroke="#263238" stroke-width="2" stroke-linecap="round" stroke-linejoin="round" stroke-miterlimit="10" x1="91.937" y1="90.984" x2="91.937" y2="47.81"/>
		
			<line fill="none" stroke="#263238" stroke-width="2" stroke-linecap="round" stroke-linejoin="round" stroke-miterlimit="10" x1="91.937" y1="42.096" x2="91.937" y2="37.016"/>
	</g>
</g>
</svg>
