<?xml version="1.0" encoding="utf-8"?>
<!-- Generator: Adobe Illustrator 16.0.0, SVG Export Plug-In . SVG Version: 6.00 Build 0)  -->
<!DOCTYPE svg PUBLIC "-//W3C//DTD SVG 1.1//EN" "http://www.w3.org/Graphics/SVG/1.1/DTD/svg11.dtd">
<svg version="1.1" id="Layer_1" xmlns="http://www.w3.org/2000/svg" xmlns:xlink="http://www.w3.org/1999/xlink" x="0px" y="0px"
	 width="128px" height="128px" viewBox="0 0 128 128" enable-background="new 0 0 128 128" xml:space="preserve">
<circle fill="#BBDEFB" stroke="#231F20" stroke-miterlimit="10" cx="64" cy="64" r="64"/>
<g>
	<g>
		<path fill="#64B5F6" d="M63.797,43.794c-0.102-0.001-0.202-0.008-0.304-0.008c-0.007,0.001-0.014,0.005-0.022,0.005
			c-0.115,0-0.229,0.004-0.344,0.005c-15.974,0.086-28.159,6.143-32.713,8.782c3.56-0.94,11.061-2.58,20.128-2.608
			c2.316-0.007,4.732,0.09,7.212,0.332c5.059,0.494,10.736,1.639,16.485,3.936c10.756,4.297,21.755,12.642,29.422,28.307
			C102.737,61.124,85.243,43.967,63.797,43.794z"/>
		<path fill="#1976D2" d="M103.342,83.34c-7.257-15.127-17.624-23.457-27.915-27.916c-6.171-2.673-12.312-3.961-17.734-4.49
			c-2.936-0.286-5.783-0.368-8.476-0.313c-10.532,0.216-18.691,2.542-20.467,3.088c-0.005,0.001-0.008,0.002-0.013,0.004
			c0.945,1.875,2.097,3.631,3.417,5.279c17.29,21.598,64.052,24.391,71.009,24.687c0.13,0.006,0.248,0.01,0.35,0.015
			C103.457,83.573,103.398,83.458,103.342,83.34z"/>
		<path fill="#D50000" d="M102.528,83.678l0.426,0.171c-0.025-0.053-0.052-0.104-0.076-0.156
			C102.776,83.688,102.659,83.684,102.528,83.678z"/>
		<path fill="#BCAAA4" d="M44.575,83.711c-0.196-5.102-3.904-7.936-7.834-10.868c-0.721-0.537-1.446-1.106-2.159-1.668
			c-2.337-1.84-4.533-3.903-5.947-6.705c-1.226,2.106-2.325,4.351-3.249,6.687c-1.472,3.728-1.39,7.063,0.238,9.457
			c1.513,2.224,4.294,3.601,7.632,3.601h11.337C44.592,83.579,44.58,83.845,44.575,83.711z"/>
		<path fill="#78909C" d="M71.415,80.254c-13.513-3.139-30.397-9.259-39.573-20.521c-0.995,1.281-1.939,2.637-2.82,4.096
			c0.198,0.423,0.412,0.818,0.646,1.209c0.749,1.254,1.671,2.344,2.688,3.344c1.466,1.442,3.128,2.787,4.764,4.009
			c4.165,3.107,8.098,6.109,8.108,11.824h50.086C89.207,83.579,80.535,82.373,71.415,80.254z"/>
	</g>
	<g>
		<path fill="none" stroke="#263238" stroke-width="2" stroke-linecap="round" stroke-linejoin="round" stroke-miterlimit="10" d="
			M31.828,59.138c-2.796,3.521-5.083,7.742-6.766,12c-3.274,8.289,1.464,13.394,8.165,13.394H104
			c0-22.223-18.158-40.959-40.557-40.959"/>
		<path fill="none" stroke="#263238" stroke-width="2" stroke-linecap="round" stroke-linejoin="round" stroke-miterlimit="10" d="
			M104,84.026c0,0-61.529-1.388-75.741-30.505c0,0,14.327-10.053,35.184-10.053"/>
		<path fill="none" stroke="#263238" stroke-width="2" stroke-linecap="round" stroke-linejoin="round" stroke-miterlimit="10" d="
			M28.259,53.521c0,0,53.251-17.91,75.741,30.505"/>
		<path fill="none" stroke="#263238" stroke-width="2" stroke-linecap="round" stroke-linejoin="round" stroke-miterlimit="10" d="
			M44.883,84.026c0-9.84-12.249-11.326-16.268-20.279"/>
	</g>
</g>
</svg>
