<?xml version="1.0" encoding="utf-8"?>
<!-- Generator: Adobe Illustrator 16.0.0, SVG Export Plug-In . SVG Version: 6.00 Build 0)  -->
<!DOCTYPE svg PUBLIC "-//W3C//DTD SVG 1.1//EN" "http://www.w3.org/Graphics/SVG/1.1/DTD/svg11.dtd">
<svg version="1.1" id="Layer_1" xmlns="http://www.w3.org/2000/svg" xmlns:xlink="http://www.w3.org/1999/xlink" x="0px" y="0px"
	 width="128px" height="128px" viewBox="0 0 128 128" enable-background="new 0 0 128 128" xml:space="preserve">
<circle fill="#D4E157" stroke="#231F20" stroke-miterlimit="10" cx="64" cy="64" r="64"/>
<g>
	<g>
		<path fill="#BF360C" d="M64.008,27.509c-20.115,0-36.481,16.365-36.481,36.481c0,20.116,16.366,36.482,36.481,36.482
			c20.116,0,36.481-16.366,36.481-36.482C100.489,43.875,84.124,27.509,64.008,27.509z"/>
		<path fill="#EF5350" d="M89.548,42.6l-3.971-4c-5.993-5.103-13.66-7.922-21.569-7.922c-18.368,0-33.313,14.944-33.313,33.313
			c0,18.369,14.945,33.314,33.313,33.314c18.369,0,33.313-14.945,33.313-33.314C97.321,56.176,94.561,48.579,89.548,42.6z"/>
		<path fill="#BF360C" d="M73.606,49.422c-2.703-1.792-5.899-2.793-9.206-2.867c-0.134-0.003-0.267-0.004-0.401-0.004
			c-9.396,0-17.215,7.647-17.427,17.047c-0.105,4.657,1.61,9.077,4.828,12.444c3.22,3.367,7.558,5.28,12.215,5.384
			c9.565,0.228,17.614-7.509,17.829-17.043c0.075-3.345-0.839-6.625-2.717-9.75C77.994,53.412,73.65,49.462,73.606,49.422z"/>
	</g>
	<g>
		
			<circle fill="none" stroke="#263238" stroke-width="2" stroke-linecap="round" stroke-linejoin="round" stroke-miterlimit="10" cx="64.008" cy="63.991" r="36.799"/>
		<path fill="none" stroke="#263238" stroke-width="2" stroke-linecap="round" stroke-linejoin="round" stroke-miterlimit="10" d="
			M89.791,42.396c4.898,5.843,7.848,13.374,7.848,21.595c0,18.574-15.057,33.631-33.631,33.631
			c-18.573,0-33.631-15.058-33.631-33.631c0-18.573,15.058-33.63,33.631-33.63c8.314,0,15.924,3.017,21.794,8.016"/>
		
			<line fill="none" stroke="#263238" stroke-width="2" stroke-linecap="round" stroke-linejoin="round" stroke-miterlimit="10" x1="24" y1="64.317" x2="104" y2="64.317"/>
		
			<line fill="none" stroke="#263238" stroke-width="2" stroke-linecap="round" stroke-linejoin="round" stroke-miterlimit="10" x1="63.683" y1="104" x2="63.683" y2="24"/>
		<path fill="none" stroke="#263238" stroke-width="2" stroke-linecap="round" stroke-linejoin="round" stroke-miterlimit="10" d="
			M79,54.47c1.821,2.862,2.844,6.275,2.762,9.921c-0.222,9.805-8.349,17.574-18.153,17.353c-9.806-0.221-17.574-8.349-17.354-18.153
			c0.221-9.805,8.349-17.574,18.153-17.353c3.483,0.078,6.709,1.154,9.411,2.949"/>
	</g>
</g>
</svg>
