<?xml version="1.0" encoding="utf-8"?>
<!-- Generator: Adobe Illustrator 16.0.0, SVG Export Plug-In . SVG Version: 6.00 Build 0)  -->
<!DOCTYPE svg PUBLIC "-//W3C//DTD SVG 1.1//EN" "http://www.w3.org/Graphics/SVG/1.1/DTD/svg11.dtd">
<svg version="1.1" id="Layer_1" xmlns="http://www.w3.org/2000/svg" xmlns:xlink="http://www.w3.org/1999/xlink" x="0px" y="0px"
	 width="128px" height="128px" viewBox="0 0 128 128" enable-background="new 0 0 128 128" xml:space="preserve">
<circle fill="#C8E6C9" stroke="#231F20" stroke-miterlimit="10" cx="64" cy="64" r="64"/>
<g>
	<g>
		<path fill="#BF360C" d="M47.367,47.541l-7.262,2.66c-0.035,0.013-0.072,0.019-0.109,0.019c-0.082,0-0.164-0.032-0.225-0.093
			l-2.014-2.013c-3.842,5.849-5.875,12.643-5.875,19.678c0,19.79,16.1,35.891,35.891,35.891c19.789,0,35.889-16.101,35.889-35.891
			s-16.1-35.89-35.889-35.89c-7.018,0-13.795,2.023-19.633,5.846l2.006,2.005c0.088,0.087,0.117,0.218,0.074,0.334l-2.658,7.255"/>
		<path fill="#EEEEEE" d="M67.773,96.054c15.582,0,28.26-12.678,28.26-28.262S83.355,39.53,67.773,39.53
			c-6.34,0-12.322,2.044-17.303,5.913c-1.137,0.883-4.992,4.982-5.029,5.023c-3.873,4.976-5.932,10.974-5.932,17.325
			C39.51,83.375,52.189,96.054,67.773,96.054z"/>
		<path fill="#BF360C" d="M67.773,88.442c11.387,0,20.65-9.263,20.65-20.65c0-11.387-9.264-20.651-20.65-20.651
			c-4.236,0-8.445,1.47-12.865,4.495c-0.805,0.55-3.195,3.176-3.221,3.202c-2.939,3.64-4.566,8.246-4.566,12.954
			C47.121,79.179,56.387,88.442,67.773,88.442z"/>
		<path fill="#EEEEEE" d="M67.773,80.82c7.184,0,13.027-5.844,13.027-13.028s-5.844-13.029-13.027-13.029
			c-2.467,0-4.898,0.762-7.438,2.329c-0.961,0.594-3.217,3.202-3.24,3.229c-1.531,2.176-2.352,4.769-2.352,7.472
			C54.744,74.976,60.59,80.82,67.773,80.82z"/>
		<path fill="#BF360C" d="M67.773,73.145c2.951,0,5.352-2.401,5.352-5.353c0-2.952-2.4-5.354-5.352-5.354
			c-0.688,0-1.328,0.169-1.865,0.333c-2.467,0.757-3.092,2.959-3.117,3.052c-0.25,0.649-0.371,1.3-0.371,1.968
			C62.42,70.744,64.82,73.145,67.773,73.145z"/>
		<polygon fill="#388E3C" points="42.447,42.877 31.203,31.633 24.596,34.053 37.93,47.387 40.078,49.535 46.686,47.115 		"/>
		<polygon fill="#4CAF50" points="47.414,37.919 34.072,24.576 31.652,31.184 42.896,42.428 47.135,46.666 49.555,40.059 		"/>
	</g>
	<g>
		<path fill="none" stroke="#263238" stroke-width="2" stroke-linecap="round" stroke-linejoin="round" stroke-miterlimit="10" d="
			M37.705,47.611c-3.877,5.767-6.141,12.709-6.141,20.181C31.564,87.789,47.775,104,67.773,104
			c19.996,0,36.207-16.211,36.207-36.208c0-19.997-16.211-36.208-36.207-36.208c-7.451,0-14.377,2.25-20.133,6.108"/>
		<path fill="none" stroke="#263238" stroke-width="2" stroke-linecap="round" stroke-linejoin="round" stroke-miterlimit="10" d="
			M45.209,50.249c-3.77,4.842-6.016,10.93-6.016,17.543c0,15.784,12.795,28.579,28.58,28.579c15.783,0,28.578-12.795,28.578-28.579
			c0-15.784-12.795-28.58-28.578-28.58c-6.592,0-12.662,2.231-17.498,5.98"/>
		<path fill="none" stroke="#263238" stroke-width="2" stroke-linecap="round" stroke-linejoin="round" stroke-miterlimit="10" d="
			M51.453,54.625c-2.908,3.599-4.648,8.18-4.648,13.167c0,11.581,9.387,20.968,20.969,20.968c11.58,0,20.967-9.388,20.967-20.968
			c0-11.581-9.387-20.969-20.967-20.969c-4.932,0-9.465,1.702-13.045,4.55"/>
		<path fill="none" stroke="#263238" stroke-width="2" stroke-linecap="round" stroke-linejoin="round" stroke-miterlimit="10" d="
			M56.855,60.112c-1.531,2.172-2.428,4.821-2.428,7.68c0,7.371,5.975,13.346,13.346,13.346s13.346-5.976,13.346-13.346
			s-5.975-13.347-13.346-13.347c-2.826,0-5.447,0.878-7.604,2.376"/>
		<path fill="none" stroke="#263238" stroke-width="2" stroke-linecap="round" stroke-linejoin="round" stroke-miterlimit="10" d="
			M62.484,65.741c-0.248,0.636-0.383,1.328-0.383,2.051c0,3.132,2.539,5.67,5.672,5.67c3.131,0,5.67-2.539,5.67-5.67
			s-2.539-5.671-5.67-5.671c-0.689,0-1.35,0.123-1.959,0.347"/>
		<g>
			
				<line fill="none" stroke="#263238" stroke-width="2" stroke-linecap="round" stroke-linejoin="round" stroke-miterlimit="10" x1="67.811" y1="67.792" x2="47.262" y2="47.242"/>
			
				<polygon fill="none" stroke="#263238" stroke-width="2" stroke-linecap="round" stroke-linejoin="round" stroke-miterlimit="10" points="
				24.02,33.925 31.283,31.265 47.262,47.242 39.996,49.903 			"/>
			
				<polygon fill="none" stroke="#263238" stroke-width="2" stroke-linecap="round" stroke-linejoin="round" stroke-miterlimit="10" points="
				33.945,24 31.283,31.265 47.262,47.242 49.922,39.978 			"/>
		</g>
	</g>
</g>
</svg>
