<?xml version="1.0" encoding="utf-8"?>
<!-- Generator: Adobe Illustrator 16.0.0, SVG Export Plug-In . SVG Version: 6.00 Build 0)  -->
<!DOCTYPE svg PUBLIC "-//W3C//DTD SVG 1.1//EN" "http://www.w3.org/Graphics/SVG/1.1/DTD/svg11.dtd">
<svg version="1.1" id="Layer_1" xmlns="http://www.w3.org/2000/svg" xmlns:xlink="http://www.w3.org/1999/xlink" x="0px" y="0px"
	 width="128px" height="128px" viewBox="0 0 128 128" enable-background="new 0 0 128 128" xml:space="preserve">
<circle fill="#80DEEA" stroke="#231F20" stroke-miterlimit="10" cx="64" cy="64" r="64"/>
<g>
	<g>
		<path fill="#E57373" d="M66.026,44.27c-9.526-9.527-25.026-9.527-34.553,0c-4.615,4.615-7.156,10.75-7.156,17.276
			s2.541,12.662,7.156,17.276c9.526,9.526,25.027,9.526,34.553,0c0.004-0.004,0.008-0.008,0.012-0.011
			c4.623-4.548,12.084-4.525,16.678,0.069c0.004,0.004,0.008,0.008,0.012,0.012l11.347,11.347c0.834,0.836,2.308,0.836,3.143,0
			l5.818-5.818c0.418-0.418,0.648-0.976,0.648-1.572c0-0.595-0.23-1.153-0.648-1.571L66.026,44.27z M63.351,76.146
			c-3.9,3.9-9.085,6.048-14.601,6.048s-10.701-2.148-14.601-6.048c-8.051-8.051-8.051-21.151,0-29.202
			c3.9-3.9,9.085-6.048,14.601-6.048s10.701,2.148,14.601,6.048C71.402,54.996,71.402,68.096,63.351,76.146z"/>
		<path fill="#FFAB91" d="M49.385,41.531c-5.346,0-10.372,2.083-14.152,5.862c-7.804,7.804-7.804,20.5,0,28.304
			c3.78,3.78,8.806,5.862,14.152,5.862c5.346,0,10.372-2.083,14.152-5.862c7.804-7.804,7.804-20.5,0-28.304
			C59.757,43.614,54.731,41.531,49.385,41.531z"/>
		<path fill="#BF360C" d="M49.385,44.07c-4.667,0-9.056,1.818-12.356,5.119c-6.812,6.813-6.812,17.9,0,24.712
			c3.301,3.301,7.689,5.119,12.356,5.119c4.668,0,9.056-1.818,12.356-5.119c2.82-2.82,4.55-6.401,5.004-10.354l0.02-3.832
			c-0.407-3.943-2.191-7.694-5.024-10.526C58.441,45.889,54.053,44.07,49.385,44.07z"/>
	</g>
	<g>
		<path fill="none" stroke="#263238" stroke-width="2" stroke-linecap="round" stroke-linejoin="round" stroke-miterlimit="10" d="
			M82.419,79.034l11.43,11.43c0.987,0.988,2.604,0.988,3.591,0l5.818-5.818c0.988-0.988,0.988-2.604,0-3.592L66.251,44.045
			c-9.666-9.666-25.336-9.666-35.002,0c-9.666,9.665-9.666,25.336,0,35.001c9.666,9.666,25.336,9.666,35.002,0l-0.059,0.059
			c4.5-4.5,11.798-4.5,16.298,0"/>
		
			<circle fill="none" stroke="#263238" stroke-width="2" stroke-linecap="round" stroke-linejoin="round" stroke-miterlimit="10" cx="48.75" cy="61.546" r="20.332"/>
		<path fill="none" stroke="#263238" stroke-width="2" stroke-linecap="round" stroke-linejoin="round" stroke-miterlimit="10" d="
			M66.425,63.583c-0.442,3.853-2.14,7.588-5.095,10.542c-6.948,6.948-18.213,6.948-25.162,0c-6.948-6.948-6.948-18.213,0-25.161
			c6.948-6.949,18.213-6.949,25.162,0c3.009,3.008,4.714,6.826,5.117,10.752"/>
	</g>
</g>
</svg>
