<?xml version="1.0" encoding="utf-8"?>
<!-- Generator: Adobe Illustrator 16.0.0, SVG Export Plug-In . SVG Version: 6.00 Build 0)  -->
<!DOCTYPE svg PUBLIC "-//W3C//DTD SVG 1.1//EN" "http://www.w3.org/Graphics/SVG/1.1/DTD/svg11.dtd">
<svg version="1.1" id="Layer_1" xmlns="http://www.w3.org/2000/svg" xmlns:xlink="http://www.w3.org/1999/xlink" x="0px" y="0px"
	 width="128px" height="128px" viewBox="0 0 128 128" enable-background="new 0 0 128 128" xml:space="preserve">
<circle fill="#81C784" stroke="#231F20" stroke-miterlimit="10" cx="64" cy="64" r="64"/>
<g>
	<g>
		<path fill="#EEEEEE" d="M91.471,91.958c0.229-0.229,0.443-0.468,1.115-1.15L36.705,34.926c-0.684,0.671-0.922,0.888-1.15,1.117
			c-0.229,0.227-0.439,0.463-1.531,0.694l55.883,55.882C91.008,92.398,91.244,92.184,91.471,91.958z"/>
		<path fill="#FFE082" d="M103.465,62.67c-9.922-0.694-19.709-4.728-26.742-11.762c-3.094-3.093-4.957-6.589-6.889-10.474
			l-1.721-4.944c-1.248-3.594-2.262-7.168-2.461-10.967c-0.5-0.019-1.637-0.061-2.141-0.061c-10.025,0-19.477,3.712-26.797,10.476
			l56.416,56.232C100.406,83.287,103.785,72.718,103.465,62.67z"/>
		<path fill="#FFE082" d="M39.758,69.638c3.9,1.939,7.438,4.487,10.533,7.583C57.354,84.282,61.506,93.537,62,103.501
			c0.504,0.019,1.006,0.037,1.512,0.037c10.029,0,19.484-3.714,26.807-10.533L34.459,37.146
			c-7.338,7.996-10.814,18.242-10.43,28.371c3.779,0.201,7.502,0.926,11.066,2.164L39.758,69.638z"/>
		<path fill="#EEEEEE" d="M103.385,60.296c-0.561-0.042-1.658-0.13-2.342-0.196l-0.004-0.035
			c-8.547-1.011-16.416-4.813-22.525-10.923c-2.877-2.876-4.66-6.684-6.463-10.29l-1.82-4.589c-0.891-2.605-1.436-4.87-1.74-7.597
			c-0.072-0.648-0.244-1.267-0.283-1.919c-0.633-0.064-1.914-0.191-2.555-0.224c0.002,0.005,0.002,0.01,0.002,0.015
			c0.201,3.709,1.246,7.459,2.459,10.952l1.484,4.47c1.893,3.805,4.418,7.338,7.465,10.383c6.906,6.908,16.828,11.085,26.322,11.615
			C103.385,61.957,103.439,60.848,103.385,60.296z"/>
		<polygon fill="#D50000" points="102.973,61.856 102.969,61.853 102.969,61.856 		"/>
		<g>
			<path fill="#EEEEEE" d="M39.494,69.499l-4.625-1.901c-3.471-1.204-7.113-1.262-10.812-1.464c0,0.009,0,0.023,0.002,0.031
				c0,0,0.084,1.271,0.148,1.903c0.639,0.039,1.277,0.095,1.914,0.167l-0.018-0.017l0.018,0.013
				c2.715,0.305,4.754,1.535,7.338,2.417l4.619,1.934c3.627,1.813,7.375,3.552,10.252,6.43c6.053,6.051,9.973,13.816,10.605,22.271
				v0.107c0,0.644,0.301,1.29,0.342,1.94c0.635,0.065,2.047,0.138,2.689,0.171c-0.502-9.496-4.6-19.651-11.537-26.588
				C47.385,73.867,43.314,71.398,39.494,69.499z"/>
			<polygon fill="#D50000" points="61.365,103.478 61.363,103.477 61.365,103.479 			"/>
		</g>
		<path fill="#D50000" d="M102.766,59.305l-0.025-0.025c0,0.008,0.002,0.016,0.002,0.023
			C102.75,59.303,102.758,59.304,102.766,59.305z"/>
		<polygon fill="#D50000" points="68.207,24.747 68.205,24.746 68.207,24.747 		"/>
		<path fill="#FFD54F" d="M102.74,59.291l-0.047-0.046l0.613-0.056c-1.014-8.499-5.533-16.638-12.041-23.146
			c-6.35-6.349-14.605-10.262-23.467-11.295v0.005h0.408c0.053,0.633,0.141,1.735,0.256,2.596l0.002,0.006
			c0.322,2.392,0.174,4.781,0.955,7.065l1.898,4.551c1.764,3.525,4.812,6.753,7.643,9.582c5.754,5.754,13.191,9.413,21.195,10.493
			l0.006,0.006c0.854,0.115,1.715,0.199,2.58,0.254C102.742,59.298,102.74,59.299,102.74,59.291z"/>
		<path fill="#D50000" d="M58.791,103.25l0.016,0.015c0-0.004-0.002-0.009-0.002-0.013C58.801,103.251,58.797,103.25,58.791,103.25z
			"/>
		<path fill="#FFD54F" d="M58.549,100.663c-1.076-8.011-4.736-15.452-10.496-21.21c-2.828-2.829-6.061-5.158-9.605-6.932
			l-4.58-1.915c-2.271-0.776-4.625-1.324-7.02-1.645c-0.852-0.114-1.707-0.199-2.564-0.254c0.002,0.013,0.002,0.027,0.004,0.04
			c1.02,8.49,4.766,16.71,11.268,23.211c6.342,6.343,14.463,10.254,23.236,11.292c0.006,0,0.01,0.001,0.014,0.002
			C58.75,102.383,58.664,101.52,58.549,100.663z"/>
	</g>
	<g>
		
			<circle fill="none" stroke="#263238" stroke-width="2" stroke-linecap="round" stroke-linejoin="round" stroke-miterlimit="10" cx="64.145" cy="64" r="39.855"/>
		
			<line fill="none" stroke="#263238" stroke-width="2" stroke-linecap="round" stroke-linejoin="round" stroke-miterlimit="10" x1="49.82" y1="51.478" x2="91.316" y2="92.973"/>
		
			<line fill="none" stroke="#263238" stroke-width="2" stroke-linecap="round" stroke-linejoin="round" stroke-miterlimit="10" x1="51.635" y1="49.674" x2="93.131" y2="91.169"/>
		
			<line fill="none" stroke="#263238" stroke-width="2" stroke-linecap="round" stroke-linejoin="round" stroke-miterlimit="10" x1="35.062" y1="36.72" x2="45.789" y2="47.446"/>
		
			<line fill="none" stroke="#263238" stroke-width="2" stroke-linecap="round" stroke-linejoin="round" stroke-miterlimit="10" x1="36.873" y1="34.912" x2="47.6" y2="45.638"/>
		<path fill="none" stroke="#263238" stroke-width="2" stroke-linecap="round" stroke-linejoin="round" stroke-miterlimit="10" d="
			M34.623,70.315c-3.271-1.118-6.668-1.768-10.084-1.951"/>
		<path fill="none" stroke="#263238" stroke-width="2" stroke-linecap="round" stroke-linejoin="round" stroke-miterlimit="10" d="
			M59.781,103.607c-0.477-8.868-4.098-17.598-10.871-24.372c-2.916-2.915-6.193-5.246-9.688-6.994"/>
		<path fill="none" stroke="#263238" stroke-width="2" stroke-linecap="round" stroke-linejoin="round" stroke-miterlimit="10" d="
			M35.625,67.98c-3.658-1.27-7.465-1.992-11.291-2.165"/>
		<path fill="none" stroke="#263238" stroke-width="2" stroke-linecap="round" stroke-linejoin="round" stroke-miterlimit="10" d="
			M62.33,103.812c-0.434-9.586-4.309-19.046-11.631-26.367c-3.137-3.137-6.666-5.642-10.432-7.514"/>
		<path fill="none" stroke="#263238" stroke-width="2" stroke-linecap="round" stroke-linejoin="round" stroke-miterlimit="10" d="
			M70.449,34.488c-1.117-3.271-1.768-6.667-1.951-10.083"/>
		<path fill="none" stroke="#263238" stroke-width="2" stroke-linecap="round" stroke-linejoin="round" stroke-miterlimit="10" d="
			M103.742,59.648c-8.867-0.478-17.598-4.099-24.373-10.873c-2.914-2.915-5.246-6.192-6.994-9.687"/>
		<path fill="none" stroke="#263238" stroke-width="2" stroke-linecap="round" stroke-linejoin="round" stroke-miterlimit="10" d="
			M68.113,35.49c-1.27-3.658-1.99-7.464-2.164-11.291"/>
		<path fill="none" stroke="#263238" stroke-width="2" stroke-linecap="round" stroke-linejoin="round" stroke-miterlimit="10" d="
			M103.945,62.196c-9.586-0.435-19.045-4.31-26.365-11.63c-3.139-3.138-5.643-6.668-7.516-10.434"/>
	</g>
</g>
</svg>
