<?xml version="1.0" encoding="utf-8"?>
<!-- Generator: Adobe Illustrator 16.0.0, SVG Export Plug-In . SVG Version: 6.00 Build 0)  -->
<!DOCTYPE svg PUBLIC "-//W3C//DTD SVG 1.1//EN" "http://www.w3.org/Graphics/SVG/1.1/DTD/svg11.dtd">
<svg version="1.1" id="Layer_1" xmlns="http://www.w3.org/2000/svg" xmlns:xlink="http://www.w3.org/1999/xlink" x="0px" y="0px"
	 width="128px" height="128px" viewBox="0 0 128 128" enable-background="new 0 0 128 128" xml:space="preserve">
<circle fill="#B2EBF2" stroke="#231F20" stroke-miterlimit="10" cx="64" cy="64" r="64"/>
<g>
	<g>
		<path fill="#FFCC80" d="M73.507,69.747c-1.562-1.562-3.425-4.32-4.922-6.537c-0.422-0.625-0.816-1.209-1.168-1.713l-2.353-3.371
			c-1.596-2.287-4.497-5.749-6.465-7.717L33.897,25.707c-0.896-0.896-2.092-1.389-3.369-1.389c-1.276,0-2.473,0.493-3.369,1.389
			l-1.771,1.771C24.494,28.374,24,29.57,24,30.846c0,1.276,0.494,2.473,1.39,3.368l14.899,14.9c3.488,0.055,6.387,2.571,7.032,5.886
			c0.081,0.414,0.124,0.841,0.131,1.276l2.64,2.639c1.969,1.969,5.43,4.869,7.717,6.465l3.372,2.353
			c0.505,0.353,1.092,0.749,1.719,1.172c2.214,1.496,4.97,3.356,6.53,4.917l10.453,10.452c0.015-0.033,0.034-0.065,0.061-0.092
			l2.154-2.154l1.815-1.815c0.011-0.011,0.025-0.016,0.037-0.025L73.507,69.747z"/>
		<path fill="#FF7043" d="M99.314,94.919L85.021,80.627c-0.009,0.012-0.014,0.026-0.025,0.037l-1.759,1.759l-2.21,2.21
			c-0.027,0.027-0.059,0.045-0.092,0.061l16.583,16.583l4.077-4.077L99.314,94.919z"/>
		<path fill="#795548" d="M97.185,101.475l-0.466,0.269c-0.18,0.179-0.318,0.359-0.318,0.615c0,0.255,0.08,0.465,0.259,0.644
			l0.42,0.416c0.359,0.358,0.984,0.35,1.342-0.008l5.301-5.307c0.18-0.179,0.277-0.42,0.277-0.675c0-0.256-0.099-0.496-0.278-0.675
			l-0.431-0.431c-0.179-0.179-0.418-0.278-0.674-0.278c-0.255,0-0.495,0.099-0.674,0.277l-4.915,4.913v0.239H97.185z"/>
		<polygon fill="#D50000" points="96.394,101.236 96.394,101.235 96.393,101.237 		"/>
		<path fill="#E0E0E0" d="M37.829,52.064c0-0.45,0.042-0.901,0.123-1.343c0.023-0.124,0.054-0.247,0.083-0.371
			c-1.914,0.878-3.358,2.64-3.764,4.817c-0.074,0.403-0.112,0.816-0.112,1.226c0,3.667,2.983,6.649,6.649,6.649
			c2.688,0,5.003-1.607,6.05-3.907c-0.568,0.14-1.152,0.213-1.746,0.213C41.097,59.349,37.829,56.081,37.829,52.064z"/>
		<path fill="#D50000" d="M40.208,49.746c-0.012,0-0.023-0.002-0.034-0.002c-0.018,0-0.035,0.002-0.053,0.002
			C40.15,49.75,40.178,49.75,40.208,49.746z"/>
		<path fill="#D50000" d="M46.82,56.439c0-0.016,0.002-0.03,0.002-0.045c0-0.009-0.001-0.017-0.001-0.025
			C46.818,56.392,46.818,56.415,46.82,56.439z"/>
		<path fill="#EEEEEE" d="M47.139,54.366c-0.819-2.553-3.142-4.43-5.92-4.602c-0.125-0.008-0.25-0.019-0.376-0.019
			c-0.03,0.004-0.058,0.005-0.087,0c-0.686,0.005-1.349,0.119-1.976,0.32c-0.001,0.001-0.001,0.003-0.001,0.004
			c-0.079,0.254-0.153,0.51-0.201,0.767c-0.075,0.403-0.113,0.816-0.113,1.227c0,3.667,2.983,6.649,6.649,6.649
			c0.696,0,1.379-0.111,2.034-0.321c0,0,0.001-0.001,0.003-0.001c0.195-0.617,0.301-1.272,0.305-1.952
			c-0.002-0.024-0.002-0.047,0.001-0.071C47.454,55.67,47.342,54.998,47.139,54.366z"/>
	</g>
	<g>
		<path fill="none" stroke="#263238" stroke-width="2" stroke-linecap="round" stroke-linejoin="round" stroke-miterlimit="10" d="
			M47.458,56.395c0,3.848-3.119,6.967-6.967,6.967c-3.848,0-6.967-3.119-6.967-6.967c0-0.439,0.041-0.868,0.118-1.285
			c0.603-3.234,3.44-5.683,6.849-5.683C44.34,49.427,47.458,52.546,47.458,56.395z"/>
		<path fill="none" stroke="#263238" stroke-width="2" stroke-linecap="round" stroke-linejoin="round" stroke-miterlimit="10" d="
			M47.086,58.647c-0.717,0.25-1.487,0.385-2.29,0.385c-3.848,0-6.967-3.119-6.967-6.967c0-0.439,0.041-0.868,0.119-1.284
			c0.061-0.332,0.147-0.655,0.253-0.968"/>
		<g>
			<path fill="none" stroke="#263238" stroke-width="2" stroke-linecap="round" stroke-linejoin="round" stroke-miterlimit="10" d="
				M40.48,49.438L25.483,34.44c-1.976-1.976-1.976-5.209,0-7.186l1.771-1.771c1.976-1.977,5.209-1.977,7.186,0l24.702,24.702
				c1.976,1.976,4.901,5.468,6.501,7.76l2.353,3.372c1.599,2.292,4.078,6.231,6.054,8.207l26.963,26.963"/>
			<path fill="none" stroke="#263238" stroke-width="2" stroke-linecap="round" stroke-linejoin="round" stroke-miterlimit="10" d="
				M96.487,101.013L69.523,74.049c-5.298-5.297-3.234-2.583-8.207-6.054l-3.371-2.353c-2.292-1.6-5.784-4.525-7.76-6.501
				l-2.735-2.735"/>
			<path fill="none" stroke="#263238" stroke-width="2" stroke-linecap="round" stroke-linejoin="round" stroke-miterlimit="10" d="
				M100.545,96.955l0.857-0.856c0.494-0.494,1.302-0.494,1.796,0l0.431,0.43c0.495,0.494,0.495,1.302,0,1.796l-5.303,5.303
				c-0.495,0.494-1.302,0.494-1.796,0l-0.431-0.43c-0.494-0.494-0.494-1.303,0-1.797l2.542-2.542"/>
		</g>
		
			<line fill="none" stroke="#263238" stroke-width="2" stroke-linecap="round" stroke-linejoin="round" stroke-miterlimit="10" x1="80.485" y1="84.41" x2="84.455" y2="80.44"/>
	</g>
</g>
</svg>
