<?xml version="1.0" encoding="utf-8"?>
<!-- Generator: Adobe Illustrator 16.0.0, SVG Export Plug-In . SVG Version: 6.00 Build 0)  -->
<!DOCTYPE svg PUBLIC "-//W3C//DTD SVG 1.1//EN" "http://www.w3.org/Graphics/SVG/1.1/DTD/svg11.dtd">
<svg version="1.1" id="Layer_1" xmlns="http://www.w3.org/2000/svg" xmlns:xlink="http://www.w3.org/1999/xlink" x="0px" y="0px"
	 width="128px" height="128px" viewBox="0 0 128 128" enable-background="new 0 0 128 128" xml:space="preserve">
<circle fill="#FFAB91" stroke="#231F20" stroke-miterlimit="10" cx="64" cy="64" r="64"/>
<g>
	<g>
		<path fill="#F9A825" d="M75.327,43.168h-5.069H53.802c-0.006,0-0.178,0.156-0.178,0.156v39.765h22.178V43.168H75.327z"/>
		<polygon fill="#E0E0E0" points="48.079,55.842 43.01,55.842 26.548,55.842 26.376,55.998 26.376,83.089 48.555,83.089 
			48.555,55.842 		"/>
		<path fill="#FFD54F" d="M53.465,42.376c0.174,0,0.314,0.061,0.316,0.234c0.006,0,0.014-0.075,0.02,0.558H75.96
			c0-0.633,0.142-0.95,0.317-0.95c0.175,0,0.317,0.317,0.317,0.317h0.01c0.458,0,0.465-0.6,0.465-1.109v-1.287
			c0-0.516,0.06-0.772-0.465-0.772H53.802c-0.445,0-1.445,0.287-1.445,0.772v1.287c0,0.348,0.418,0.792,0.8,1.052
			C53.214,42.416,53.375,42.376,53.465,42.376z"/>
		<path fill="#D50000" d="M52.832,42.376c-0.091,0-0.171,0.04-0.229,0.102c0.183,0.124,0.375,0.206,0.546,0.213
			C53.146,42.517,53.005,42.376,52.832,42.376z"/>
		<path fill="#D50000" d="M75.644,42.376c-0.175,0-0.317,0.142-0.317,0.317h0.634C75.96,42.518,75.819,42.376,75.644,42.376z"/>
		<polygon fill="#FF7043" points="101.94,68.515 96.871,68.515 80.406,68.515 80.238,68.672 80.238,83.089 102.416,83.089 
			102.416,68.515 		"/>
		<path fill="#D50000" d="M103.221,83.723h-0.33h-0.317H80.079h-0.317h-3.485H75.96H53.465h-0.317H49.03h-0.317H26.535
			c-0.49,0-1.426,0.338-1.426,0.817v3.618h78.574V84.54C103.683,84.004,103.726,83.723,103.221,83.723z"/>
		<path fill="#D50000" d="M24,88.634v0.316h0.317C24.142,88.95,24,88.809,24,88.634z"/>
		<path fill="#EEEEEE" d="M26.218,55.05c0.174,0,0.315,0.061,0.316,0.235c0.004,0,0.009-0.077,0.014,0.557h22.165
			c0-0.634,0.142-0.95,0.317-0.95c0.175,0,0.317,0.316,0.317,0.316h0.003c0.462,0,0.472-0.6,0.472-1.109v-1.287
			c0-0.516,0.058-0.771-0.472-0.771H26.548c-0.443,0-1.439,0.286-1.439,0.771v1.287c0,0.35,0.417,0.794,0.799,1.054
			C25.966,55.09,26.126,55.05,26.218,55.05z"/>
		<path fill="#D50000" d="M48.396,55.05c-0.175,0-0.317,0.142-0.317,0.316h0.634C48.713,55.191,48.571,55.05,48.396,55.05z"/>
		<path fill="#D50000" d="M25.584,55.05c-0.092,0-0.173,0.04-0.23,0.103c0.184,0.125,0.376,0.208,0.547,0.212
			C25.899,55.19,25.759,55.05,25.584,55.05z"/>
		<path fill="#FFCC80" d="M80.079,67.723c0.175,0,0.316,0.062,0.317,0.236c0.003,0,0.007-0.078,0.01,0.556h22.168
			c0-0.634,0.142-0.871,0.317-0.871s0.238,0.182,0.238,0.356c0.501,0,0.554-0.759,0.554-1.182v-1.287
			c0-0.53,0.034-0.818-0.475-0.818H80.406c-0.494,0-1.436,0.338-1.436,0.818v1.287c0,0.344,0.412,0.771,0.792,1.018
			C79.82,67.768,79.983,67.723,80.079,67.723z"/>
		<path fill="#D50000" d="M102.257,67.723c-0.175,0-0.317,0.142-0.317,0.317h0.634C102.574,67.864,102.433,67.723,102.257,67.723z"
			/>
		<path fill="#D50000" d="M79.445,67.723c-0.096,0-0.179,0.045-0.237,0.113c0.184,0.119,0.378,0.199,0.554,0.202
			C79.761,67.864,79.62,67.723,79.445,67.723z"/>
	</g>
	<g>
		
			<polyline fill="none" stroke="#263238" stroke-width="2" stroke-linecap="round" stroke-linejoin="round" stroke-miterlimit="10" points="
			76.119,43.168 76.119,83.406 53.307,83.406 53.307,43.168 		"/>
		
			<polyline fill="none" stroke="#263238" stroke-width="2" stroke-linecap="round" stroke-linejoin="round" stroke-miterlimit="10" points="
			48.871,55.842 48.871,83.406 26.06,83.406 26.06,55.842 		"/>
		<path fill="none" stroke="#263238" stroke-width="2" stroke-linecap="round" stroke-linejoin="round" stroke-miterlimit="10" d="
			M70.099,42.852H53.802c-0.697,0-1.762-0.729-1.762-1.426v-1.287c0-0.697,1.065-1.089,1.762-1.089h22.802
			c0.697,0,0.782,0.392,0.782,1.089v1.287c0,0.697-0.085,1.426-0.782,1.426h-1.436"/>
		
			<polyline fill="none" stroke="#263238" stroke-width="2" stroke-linecap="round" stroke-linejoin="round" stroke-miterlimit="10" points="
			102.733,69.148 102.733,83.406 79.921,83.406 79.921,68.515 		"/>
		<path fill="none" stroke="#263238" stroke-width="2" stroke-linecap="round" stroke-linejoin="round" stroke-miterlimit="10" d="
			M104,88.476H24.792V84.54c0-0.697,1.045-1.134,1.743-1.134h76.686c0.698,0,0.779,0.437,0.779,1.134V88.476z"/>
		<path fill="none" stroke="#263238" stroke-width="2" stroke-linecap="round" stroke-linejoin="round" stroke-miterlimit="10" d="
			M42.852,55.524H26.548c-0.697,0-1.756-0.729-1.756-1.426v-1.287c0-0.696,1.059-1.089,1.756-1.089H49.35
			c0.697,0,0.789,0.393,0.789,1.089v1.287c0,0.697-0.092,1.426-0.789,1.426h-1.429"/>
		<path fill="none" stroke="#263238" stroke-width="2" stroke-linecap="round" stroke-linejoin="round" stroke-miterlimit="10" d="
			M96.713,68.198H80.406c-0.697,0-1.752-0.683-1.752-1.38v-1.287c0-0.697,1.056-1.135,1.752-1.135h22.802
			c0.697,0,0.792,0.438,0.792,1.135v1.287c0,0.697-0.095,1.38-0.792,1.38h-1.426"/>
	</g>
</g>
</svg>
