<?xml version="1.0" encoding="utf-8"?>
<!-- Generator: Adobe Illustrator 16.0.0, SVG Export Plug-In . SVG Version: 6.00 Build 0)  -->
<!DOCTYPE svg PUBLIC "-//W3C//DTD SVG 1.1//EN" "http://www.w3.org/Graphics/SVG/1.1/DTD/svg11.dtd">
<svg version="1.1" id="Layer_1" xmlns="http://www.w3.org/2000/svg" xmlns:xlink="http://www.w3.org/1999/xlink" x="0px" y="0px"
	 width="128px" height="128px" viewBox="0 0 128 128" enable-background="new 0 0 128 128" xml:space="preserve">
<circle fill="#66BB6A" stroke="#231F20" stroke-miterlimit="10" cx="64" cy="64" r="64"/>
<g>
	<g>
		<path fill="#EEEEEE" d="M64,24.317c-21.882,0-39.683,17.801-39.683,39.683S42.118,103.683,64,103.683
			c21.881,0,39.683-17.801,39.683-39.683S85.881,24.317,64,24.317z"/>
	</g>
	<g>
		<path fill="none" stroke="#263238" stroke-width="2" stroke-linecap="round" stroke-linejoin="round" stroke-miterlimit="10" d="
			M103.683,64c0,22.091-17.591,40-39.683,40S24.317,86.091,24.317,64S41.908,24,64,24S103.683,41.909,103.683,64z"/>
		<path fill="none" stroke="#263238" stroke-width="2" stroke-linecap="round" stroke-linejoin="round" stroke-miterlimit="10" d="
			M90.909,34.404C76.398,50.586,76.292,77.54,90.591,93.878"/>
		<path fill="none" stroke="#263238" stroke-width="2" stroke-linecap="round" stroke-linejoin="round" stroke-miterlimit="10" d="
			M78.109,63.794c1.227,0.015,2.452,0.029,3.678,0.043"/>
		<path fill="none" stroke="#263238" stroke-width="2" stroke-linecap="round" stroke-linejoin="round" stroke-miterlimit="10" d="
			M78.561,57.564c1.214,0.183,2.428,0.365,3.642,0.549"/>
		<path fill="none" stroke="#263238" stroke-width="2" stroke-linecap="round" stroke-linejoin="round" stroke-miterlimit="10" d="
			M79.782,51.45c1.181,0.349,2.361,0.698,3.543,1.045"/>
		<path fill="none" stroke="#263238" stroke-width="2" stroke-linecap="round" stroke-linejoin="round" stroke-miterlimit="10" d="
			M81.777,45.556c1.126,0.508,2.252,1.016,3.379,1.524"/>
		<path fill="none" stroke="#263238" stroke-width="2" stroke-linecap="round" stroke-linejoin="round" stroke-miterlimit="10" d="
			M84.542,39.988c1.052,0.659,2.104,1.318,3.155,1.977"/>
		<path fill="none" stroke="#263238" stroke-width="2" stroke-linecap="round" stroke-linejoin="round" stroke-miterlimit="10" d="
			M88.078,34.855c0.956,0.797,1.911,1.596,2.867,2.394"/>
		<path fill="none" stroke="#263238" stroke-width="2" stroke-linecap="round" stroke-linejoin="round" stroke-miterlimit="10" d="
			M87.427,92.957c0.974-0.776,1.947-1.55,2.921-2.326"/>
		<path fill="none" stroke="#263238" stroke-width="2" stroke-linecap="round" stroke-linejoin="round" stroke-miterlimit="10" d="
			M84.021,87.742c1.065-0.634,2.132-1.269,3.197-1.902"/>
		<path fill="none" stroke="#263238" stroke-width="2" stroke-linecap="round" stroke-linejoin="round" stroke-miterlimit="10" d="
			M81.386,82.112c1.137-0.481,2.274-0.963,3.411-1.445"/>
		<path fill="none" stroke="#263238" stroke-width="2" stroke-linecap="round" stroke-linejoin="round" stroke-miterlimit="10" d="
			M79.521,76.174c1.188-0.32,2.376-0.643,3.563-0.962"/>
		<path fill="none" stroke="#263238" stroke-width="2" stroke-linecap="round" stroke-linejoin="round" stroke-miterlimit="10" d="
			M78.431,70.033c1.217-0.155,2.435-0.311,3.651-0.465"/>
		<path fill="none" stroke="#263238" stroke-width="2" stroke-linecap="round" stroke-linejoin="round" stroke-miterlimit="10" d="
			M37.147,34.353c14.574,16.194,14.681,43.228,0.319,59.579"/>
		<path fill="none" stroke="#263238" stroke-width="2" stroke-linecap="round" stroke-linejoin="round" stroke-miterlimit="10" d="
			M49.995,63.794c-1.228,0.015-2.452,0.029-3.679,0.043"/>
		<path fill="none" stroke="#263238" stroke-width="2" stroke-linecap="round" stroke-linejoin="round" stroke-miterlimit="10" d="
			M49.543,57.564c-1.213,0.183-2.427,0.365-3.64,0.549"/>
		<path fill="none" stroke="#263238" stroke-width="2" stroke-linecap="round" stroke-linejoin="round" stroke-miterlimit="10" d="
			M48.321,51.45c-1.181,0.349-2.361,0.698-3.542,1.045"/>
		<path fill="none" stroke="#263238" stroke-width="2" stroke-linecap="round" stroke-linejoin="round" stroke-miterlimit="10" d="
			M46.328,45.556c-1.127,0.508-2.254,1.016-3.381,1.524"/>
		<path fill="none" stroke="#263238" stroke-width="2" stroke-linecap="round" stroke-linejoin="round" stroke-miterlimit="10" d="
			M43.562,39.988c-1.052,0.659-2.104,1.318-3.155,1.977"/>
		<path fill="none" stroke="#263238" stroke-width="2" stroke-linecap="round" stroke-linejoin="round" stroke-miterlimit="10" d="
			M40.026,34.855c-0.956,0.797-1.911,1.596-2.868,2.394"/>
		<path fill="none" stroke="#263238" stroke-width="2" stroke-linecap="round" stroke-linejoin="round" stroke-miterlimit="10" d="
			M40.678,92.957c-0.974-0.776-1.947-1.55-2.921-2.326"/>
		<path fill="none" stroke="#263238" stroke-width="2" stroke-linecap="round" stroke-linejoin="round" stroke-miterlimit="10" d="
			M44.083,87.742c-1.065-0.634-2.131-1.269-3.197-1.902"/>
		<path fill="none" stroke="#263238" stroke-width="2" stroke-linecap="round" stroke-linejoin="round" stroke-miterlimit="10" d="
			M46.719,82.112c-1.138-0.481-2.274-0.963-3.412-1.445"/>
		<path fill="none" stroke="#263238" stroke-width="2" stroke-linecap="round" stroke-linejoin="round" stroke-miterlimit="10" d="
			M48.582,76.174c-1.188-0.32-2.375-0.643-3.563-0.962"/>
		<path fill="none" stroke="#263238" stroke-width="2" stroke-linecap="round" stroke-linejoin="round" stroke-miterlimit="10" d="
			M49.674,70.033c-1.217-0.155-2.435-0.311-3.652-0.465"/>
	</g>
</g>
</svg>
