<?xml version="1.0" encoding="utf-8"?>
<!-- Generator: Adobe Illustrator 16.0.0, SVG Export Plug-In . SVG Version: 6.00 Build 0)  -->
<!DOCTYPE svg PUBLIC "-//W3C//DTD SVG 1.1//EN" "http://www.w3.org/Graphics/SVG/1.1/DTD/svg11.dtd">
<svg version="1.1" id="Layer_1" xmlns="http://www.w3.org/2000/svg" xmlns:xlink="http://www.w3.org/1999/xlink" x="0px" y="0px"
	 width="128px" height="128px" viewBox="0 0 128 128" enable-background="new 0 0 128 128" xml:space="preserve">
<g>
	
		<circle fill="none" stroke="#646464" stroke-width="2" stroke-linecap="round" stroke-linejoin="round" stroke-miterlimit="10" cx="64" cy="64" r="62.958"/>
	<path fill="none" stroke="#646464" stroke-width="2" stroke-linecap="round" stroke-linejoin="round" stroke-miterlimit="10" d="
		M34.226,8.513c-3.641,23.806-1.581,47.679,6.113,71.084c-5.442,3.428-11.115,6.488-16.971,9.15
		c-7.07-22.194-8.951-44.832-5.576-67.394"/>
	<path fill="none" stroke="#646464" stroke-width="2" stroke-linecap="round" stroke-linejoin="round" stroke-miterlimit="10" d="
		M60.922,1.122C60.045,5.384,59,9.687,59,14.01c0,0.002,0,0.004,0,0.006c0,0.137-0.17,0.272-0.17,0.406
		c-0.85,7.673-1.151,15.412-0.785,23.124c-0.022,0.216-0.049,0.429-0.004,0.633c0.438,8.45,1.594,16.858,3.496,25.103
		c-5.514,5.151-11.451,9.851-17.716,14.057c-7.516-23.38-9.207-47.225-5.126-70.975"/>
	<path fill="none" stroke="#646464" stroke-width="2" stroke-linecap="round" stroke-linejoin="round" stroke-miterlimit="10" d="
		M121.969,39.4c-17.455-12.94-37.272-21.844-59.054-26.545c0.496-3.961,1.154-7.902,1.981-11.807"/>
	<path fill="none" stroke="#646464" stroke-width="2" stroke-linecap="round" stroke-linejoin="round" stroke-miterlimit="10" d="
		M126.899,66.666c-18.879-15.215-40.707-25.467-64.979-30.539c-0.25-6.428-0.066-12.872,0.552-19.274
		c23.112,5.05,43.943,14.964,61.987,29.532"/>
	<path fill="none" stroke="#646464" stroke-width="2" stroke-linecap="round" stroke-linejoin="round" stroke-miterlimit="10" d="
		M119.915,93.084c-3.282-2.927-6.699-5.701-10.233-8.318c-0.011-0.009-0.018-0.021-0.028-0.03c-0.113-0.101-0.236-0.183-0.363-0.253
		c-6.215-4.571-12.793-8.646-19.648-12.184c-0.169-0.119-0.347-0.218-0.536-0.278c-7.593-3.878-15.521-7.092-23.675-9.58
		c-1.684-7.289-2.779-14.711-3.288-22.176c24.141,5.212,45.774,15.705,64.37,31.258"/>
	<path fill="none" stroke="#646464" stroke-width="2" stroke-linecap="round" stroke-linejoin="round" stroke-miterlimit="10" d="
		M56.664,126.535c19.683-8.639,37.095-21.257,51.903-37.598c3.203,2.429,6.308,4.989,9.293,7.68"/>
	<path fill="none" stroke="#646464" stroke-width="2" stroke-linecap="round" stroke-linejoin="round" stroke-miterlimit="10" d="
		M30.421,117.265c22.434-8.751,42.076-22.47,58.496-40.834c5.691,3,11.177,6.383,16.41,10.122
		c-15.736,17.275-34.469,30.252-55.779,38.606"/>
	<path fill="none" stroke="#646464" stroke-width="2" stroke-linecap="round" stroke-linejoin="round" stroke-miterlimit="10" d="
		M10.961,97.935c3.992-1.336,7.925-2.849,11.786-4.526c0.012-0.003,0.021-0.001,0.033-0.005c0.143-0.048,0.275-0.113,0.4-0.188
		c7.062-3.096,13.879-6.754,20.369-10.921c0.191-0.087,0.368-0.194,0.518-0.33c7.156-4.637,13.904-9.897,20.137-15.716
		c7.215,2.198,14.248,4.982,21.02,8.304c-16.476,18.183-36.23,31.617-58.814,39.958"/>
	<path fill="none" stroke="#646464" stroke-width="2" stroke-linecap="round" stroke-linejoin="round" stroke-miterlimit="10" d="
		M13.028,27.038c-2.283,21.224-0.047,42.468,6.656,63.323c-3.551,1.495-7.161,2.852-10.821,4.053"/>
</g>
</svg>
