<?xml version="1.0" encoding="utf-8"?>
<!-- Generator: Adobe Illustrator 16.0.0, SVG Export Plug-In . SVG Version: 6.00 Build 0)  -->
<!DOCTYPE svg PUBLIC "-//W3C//DTD SVG 1.1//EN" "http://www.w3.org/Graphics/SVG/1.1/DTD/svg11.dtd">
<svg version="1.1" id="Layer_1" xmlns="http://www.w3.org/2000/svg" xmlns:xlink="http://www.w3.org/1999/xlink" x="0px" y="0px"
	 width="128px" height="128px" viewBox="0 0 128 128" enable-background="new 0 0 128 128" xml:space="preserve">
<g>
	
		<ellipse fill="none" stroke="#646464" stroke-width="2" stroke-linecap="round" stroke-linejoin="round" stroke-miterlimit="10" cx="63.979" cy="48.5" rx="63.005" ry="30.48"/>
	<path fill="none" stroke="#646464" stroke-width="2" stroke-linecap="round" stroke-linejoin="round" stroke-miterlimit="10" d="
		M1,50v29.035c0,17.091,28.203,30.945,63,30.945s63-13.854,63-30.945V50"/>
	
		<line fill="none" stroke="#646464" stroke-width="2" stroke-linecap="round" stroke-linejoin="round" stroke-miterlimit="10" x1="64" y1="79" x2="64" y2="109"/>
	
		<line fill="none" stroke="#646464" stroke-width="2" stroke-linecap="round" stroke-linejoin="round" stroke-miterlimit="10" x1="69" y1="79" x2="69" y2="109"/>
	
		<line fill="none" stroke="#646464" stroke-width="2" stroke-linecap="round" stroke-linejoin="round" stroke-miterlimit="10" x1="74" y1="79" x2="74" y2="109"/>
	
		<line fill="none" stroke="#646464" stroke-width="2" stroke-linecap="round" stroke-linejoin="round" stroke-miterlimit="10" x1="79" y1="79" x2="79" y2="109"/>
	
		<line fill="none" stroke="#646464" stroke-width="2" stroke-linecap="round" stroke-linejoin="round" stroke-miterlimit="10" x1="84" y1="78" x2="84" y2="108"/>
	
		<line fill="none" stroke="#646464" stroke-width="2" stroke-linecap="round" stroke-linejoin="round" stroke-miterlimit="10" x1="89" y1="77" x2="89" y2="107"/>
	
		<line fill="none" stroke="#646464" stroke-width="2" stroke-linecap="round" stroke-linejoin="round" stroke-miterlimit="10" x1="94" y1="76" x2="94" y2="106"/>
	
		<line fill="none" stroke="#646464" stroke-width="2" stroke-linecap="round" stroke-linejoin="round" stroke-miterlimit="10" x1="99" y1="74" x2="99" y2="104"/>
	
		<line fill="none" stroke="#646464" stroke-width="2" stroke-linecap="round" stroke-linejoin="round" stroke-miterlimit="10" x1="103.896" y1="72.25" x2="104" y2="102"/>
	
		<line fill="none" stroke="#646464" stroke-width="2" stroke-linecap="round" stroke-linejoin="round" stroke-miterlimit="10" x1="109" y1="70" x2="109" y2="100"/>
	
		<line fill="none" stroke="#646464" stroke-width="2" stroke-linecap="round" stroke-linejoin="round" stroke-miterlimit="10" x1="113.89" y1="67.103" x2="114" y2="97.646"/>
	
		<line fill="none" stroke="#646464" stroke-width="2" stroke-linecap="round" stroke-linejoin="round" stroke-miterlimit="10" x1="119" y1="64" x2="119" y2="94"/>
	
		<line fill="none" stroke="#646464" stroke-width="2" stroke-linecap="round" stroke-linejoin="round" stroke-miterlimit="10" x1="124" y1="58" x2="124" y2="88"/>
	
		<line fill="none" stroke="#646464" stroke-width="2" stroke-linecap="round" stroke-linejoin="round" stroke-miterlimit="10" x1="59" y1="79" x2="59" y2="109"/>
	
		<line fill="none" stroke="#646464" stroke-width="2" stroke-linecap="round" stroke-linejoin="round" stroke-miterlimit="10" x1="54" y1="79" x2="54" y2="109"/>
	
		<line fill="none" stroke="#646464" stroke-width="2" stroke-linecap="round" stroke-linejoin="round" stroke-miterlimit="10" x1="49" y1="79" x2="49" y2="109"/>
	
		<line fill="none" stroke="#646464" stroke-width="2" stroke-linecap="round" stroke-linejoin="round" stroke-miterlimit="10" x1="44" y1="78" x2="44" y2="108"/>
	
		<line fill="none" stroke="#646464" stroke-width="2" stroke-linecap="round" stroke-linejoin="round" stroke-miterlimit="10" x1="39" y1="77" x2="39" y2="107"/>
	
		<line fill="none" stroke="#646464" stroke-width="2" stroke-linecap="round" stroke-linejoin="round" stroke-miterlimit="10" x1="34" y1="76" x2="34" y2="106"/>
	
		<line fill="none" stroke="#646464" stroke-width="2" stroke-linecap="round" stroke-linejoin="round" stroke-miterlimit="10" x1="29" y1="74" x2="29" y2="104"/>
	
		<line fill="none" stroke="#646464" stroke-width="2" stroke-linecap="round" stroke-linejoin="round" stroke-miterlimit="10" x1="24.104" y1="72.292" x2="24.002" y2="102.646"/>
	
		<line fill="none" stroke="#646464" stroke-width="2" stroke-linecap="round" stroke-linejoin="round" stroke-miterlimit="10" x1="19" y1="70" x2="19" y2="100"/>
	
		<line fill="none" stroke="#646464" stroke-width="2" stroke-linecap="round" stroke-linejoin="round" stroke-miterlimit="10" x1="14.104" y1="67.604" x2="14" y2="97.865"/>
	
		<line fill="none" stroke="#646464" stroke-width="2" stroke-linecap="round" stroke-linejoin="round" stroke-miterlimit="10" x1="9" y1="64" x2="9" y2="94"/>
	
		<line fill="none" stroke="#646464" stroke-width="2" stroke-linecap="round" stroke-linejoin="round" stroke-miterlimit="10" x1="4" y1="58" x2="4" y2="88"/>
	<path fill="none" stroke="#646464" stroke-width="2" stroke-linecap="round" stroke-linejoin="round" stroke-miterlimit="10" d="
		M108.372,64.518c-10.475,5.771-26.47,9.46-44.394,9.46c-31.552,0-57.13-11.431-57.13-25.531s25.578-25.531,57.13-25.531
		s57.13,11.431,57.13,25.531c0,4.042-2.102,7.864-5.844,11.261"/>
</g>
</svg>
