<?xml version="1.0" encoding="utf-8"?>
<!-- Generator: Adobe Illustrator 16.0.0, SVG Export Plug-In . SVG Version: 6.00 Build 0)  -->
<!DOCTYPE svg PUBLIC "-//W3C//DTD SVG 1.1//EN" "http://www.w3.org/Graphics/SVG/1.1/DTD/svg11.dtd">
<svg version="1.1" id="Layer_1" xmlns="http://www.w3.org/2000/svg" xmlns:xlink="http://www.w3.org/1999/xlink" x="0px" y="0px"
	 width="128px" height="128px" viewBox="0 0 128 128" enable-background="new 0 0 128 128" xml:space="preserve">
<g>
	<path fill="none" stroke="#646464" stroke-width="2" stroke-linecap="round" stroke-linejoin="round" stroke-miterlimit="10" d="
		M106,119.592c0,4.092-3.317,7.408-7.408,7.408H29.408c-4.091,0-7.408-3.316-7.408-7.408V8.408C22,4.316,25.317,1,29.408,1h69.184
		C102.683,1,106,4.316,106,8.408V119.592z"/>
	
		<line fill="none" stroke="#646464" stroke-width="2" stroke-linecap="round" stroke-linejoin="round" stroke-miterlimit="10" x1="22" y1="64" x2="106" y2="64"/>
	<path fill="none" stroke="#646464" stroke-width="2" stroke-linecap="round" stroke-linejoin="round" stroke-miterlimit="10" d="
		M79.022,63.916c0,8.32-6.744,15.064-15.065,15.064c-8.323,0-15.065-6.744-15.065-15.064c0-8.321,6.742-15.065,15.065-15.065
		C72.278,48.851,79.022,55.595,79.022,63.916z"/>
	<path fill="none" stroke="#646464" stroke-width="2" stroke-linecap="round" stroke-linejoin="round" stroke-miterlimit="10" d="
		M54.865,6c1.195,3.908,4.79,6.767,9.088,6.767c4.298,0,7.894-2.858,9.088-6.767"/>
	<path fill="none" stroke="#646464" stroke-width="2" stroke-linecap="round" stroke-linejoin="round" stroke-miterlimit="10" d="
		M73.042,121.951c-1.195-3.908-4.79-6.767-9.088-6.767c-4.299,0-7.894,2.858-9.088,6.767"/>
	<path fill="none" stroke="#646464" stroke-width="2" stroke-linecap="round" stroke-linejoin="round" stroke-miterlimit="10" d="
		M101,19v100.543c0,1.306-1.087,2.457-2.393,2.457H29.362c-1.306,0-2.362-1.151-2.362-2.457V8.408C27,7.103,28.057,6,29.362,6H99
		 M98.592,5.98c1.305,0,2.408,1.122,2.408,2.428V11"/>
	
		<circle fill="none" stroke="#646464" stroke-width="2" stroke-linecap="round" stroke-linejoin="round" stroke-miterlimit="10" cx="48.025" cy="28.006" r="11"/>
	
		<circle fill="none" stroke="#646464" stroke-width="2" stroke-linecap="round" stroke-linejoin="round" stroke-miterlimit="10" cx="80.025" cy="28.006" r="11"/>
	
		<circle fill="none" stroke="#646464" stroke-width="2" stroke-linecap="round" stroke-linejoin="round" stroke-miterlimit="10" cx="48.025" cy="99.945" r="11"/>
	
		<circle fill="none" stroke="#646464" stroke-width="2" stroke-linecap="round" stroke-linejoin="round" stroke-miterlimit="10" cx="80.025" cy="99.945" r="11"/>
	
		<circle fill="none" stroke="#646464" stroke-width="2" stroke-linecap="round" stroke-linejoin="round" stroke-miterlimit="10" cx="48.025" cy="28.006" r="0.892"/>
	
		<circle fill="none" stroke="#646464" stroke-width="2" stroke-linecap="round" stroke-linejoin="round" stroke-miterlimit="10" cx="80.026" cy="28.006" r="0.892"/>
	
		<circle fill="none" stroke="#646464" stroke-width="2" stroke-linecap="round" stroke-linejoin="round" stroke-miterlimit="10" cx="48.025" cy="100.087" r="0.892"/>
	
		<circle fill="none" stroke="#646464" stroke-width="2" stroke-linecap="round" stroke-linejoin="round" stroke-miterlimit="10" cx="80.026" cy="100.087" r="0.892"/>
</g>
</svg>
