<?xml version="1.0" encoding="utf-8"?>
<!-- Generator: Adobe Illustrator 16.0.0, SVG Export Plug-In . SVG Version: 6.00 Build 0)  -->
<!DOCTYPE svg PUBLIC "-//W3C//DTD SVG 1.1//EN" "http://www.w3.org/Graphics/SVG/1.1/DTD/svg11.dtd">
<svg version="1.1" id="Layer_1" xmlns="http://www.w3.org/2000/svg" xmlns:xlink="http://www.w3.org/1999/xlink" x="0px" y="0px"
	 width="128px" height="128px" viewBox="0 0 128 128" enable-background="new 0 0 128 128" xml:space="preserve">
<g>
	<g>
		<path fill="none" stroke="#646464" stroke-width="2" stroke-linecap="round" stroke-linejoin="round" stroke-miterlimit="10" d="
			M106.521,62H21.426c-7.112,0-13.891-1.95-19.088-5.468c-1.371-0.931-1.73-2.802-0.801-4.173c0.928-1.371,2.793-1.719,4.166-0.793
			C9.916,54.418,15.5,56,21.426,56h85.096c5.949,0,11.551-1.596,15.771-4.468c1.369-0.935,3.235-0.585,4.168,0.784
			s0.579,3.246-0.791,4.177C120.463,60.038,113.664,62,106.521,62z"/>
	</g>
	
		<circle fill="none" stroke="#646464" stroke-width="2" stroke-linecap="round" stroke-linejoin="round" stroke-miterlimit="10" cx="24.059" cy="71.038" r="6"/>
	<path fill="none" stroke="#646464" stroke-width="2" stroke-linecap="round" stroke-linejoin="round" stroke-miterlimit="10" d="
		M27.015,70.952c0,1.658-1.345,3.002-3.003,3.002s-3.002-1.344-3.002-3.002c0-1.659,1.344-3.004,3.002-3.004"/>
	
		<circle fill="none" stroke="#646464" stroke-width="2" stroke-linecap="round" stroke-linejoin="round" stroke-miterlimit="10" cx="104.047" cy="70.952" r="6"/>
	<path fill="none" stroke="#646464" stroke-width="2" stroke-linecap="round" stroke-linejoin="round" stroke-miterlimit="10" d="
		M107.004,70.866c0,1.658-1.345,3.002-3.004,3.002c-1.658,0-3.002-1.344-3.002-3.002s1.344-3.004,3.002-3.004"/>
	
		<line fill="none" stroke="#646464" stroke-width="2" stroke-linecap="round" stroke-linejoin="round" stroke-miterlimit="10" x1="24" y1="65" x2="24" y2="62"/>
	
		<line fill="none" stroke="#646464" stroke-width="2" stroke-linecap="round" stroke-linejoin="round" stroke-miterlimit="10" x1="104" y1="65" x2="104" y2="62"/>
</g>
</svg>
