<?xml version="1.0" encoding="utf-8"?>
<!-- Generator: Adobe Illustrator 16.0.0, SVG Export Plug-In . SVG Version: 6.00 Build 0)  -->
<!DOCTYPE svg PUBLIC "-//W3C//DTD SVG 1.1//EN" "http://www.w3.org/Graphics/SVG/1.1/DTD/svg11.dtd">
<svg version="1.1" id="Layer_1" xmlns="http://www.w3.org/2000/svg" xmlns:xlink="http://www.w3.org/1999/xlink" x="0px" y="0px"
	 width="128px" height="128px" viewBox="0 0 128 128" enable-background="new 0 0 128 128" xml:space="preserve">
<g>
	
		<path fill="none" stroke="#646464" stroke-width="1.9997" stroke-linecap="round" stroke-linejoin="round" stroke-miterlimit="10" d="
		M44.003,53.04c6.286-1.021,13.016-1.572,20.01-1.572c34.791,0,62.996,13.664,62.996,30.521s-28.205,30.521-62.996,30.521
		S1.017,98.845,1.017,81.988c0-12.737,16.104-23.652,38.986-28.226"/>
	
		<path fill="none" stroke="#646464" stroke-width="1.9997" stroke-linecap="round" stroke-linejoin="round" stroke-miterlimit="10" d="
		M73.022,79.813c0.605,0.646,0.945,1.368,0.945,2.13c0,2.762-4.457,5.001-9.955,5.001s-9.955-2.239-9.955-5.001
		s4.457-5.001,9.955-5.001c1.455,0,2.836,0.157,4.082,0.438"/>
	<g>
		<path fill="none" stroke="#646464" stroke-width="2" stroke-linecap="round" stroke-linejoin="round" stroke-miterlimit="10" d="
			M40,77V12.508c0-1.104,0.896-2,2-2s2,0.896,2,2V77H40z"/>
	</g>
	
		<polygon fill="none" stroke="#646464" stroke-width="2" stroke-linecap="round" stroke-linejoin="round" stroke-miterlimit="10" points="
		73.607,27.554 44,40.523 44,14.584 	"/>
	<path fill="none" stroke="#646464" stroke-width="2" stroke-linecap="round" stroke-linejoin="round" stroke-miterlimit="10" d="
		M127,82v4.98c0,16.852-28.209,30.512-63,30.512S1,103.832,1,86.98V82"/>
</g>
</svg>
