<?xml version="1.0" encoding="utf-8"?>
<!-- Generator: Adobe Illustrator 16.0.0, SVG Export Plug-In . SVG Version: 6.00 Build 0)  -->
<!DOCTYPE svg PUBLIC "-//W3C//DTD SVG 1.1//EN" "http://www.w3.org/Graphics/SVG/1.1/DTD/svg11.dtd">
<svg version="1.1" id="Layer_1" xmlns="http://www.w3.org/2000/svg" xmlns:xlink="http://www.w3.org/1999/xlink" x="0px" y="0px"
	 width="128px" height="128px" viewBox="0 0 128 128" enable-background="new 0 0 128 128" xml:space="preserve">
<g>
	
		<path fill="none" stroke="#646464" stroke-width="1.9995" stroke-linecap="round" stroke-linejoin="round" stroke-miterlimit="10" d="
		M113.19,93.814c5.307,5.309,5.264,13.957-0.096,19.316c-5.36,5.36-14.008,5.403-19.315,0.096"/>
	
		<path fill="none" stroke="#646464" stroke-width="1.9995" stroke-linecap="round" stroke-linejoin="round" stroke-miterlimit="10" d="
		M95.874,92.381l-8.547,8.547c-1.607,1.607-1.621,4.227-0.028,5.818l6.149,6.15"/>
	
		<path fill="none" stroke="#646464" stroke-width="1.9995" stroke-linecap="round" stroke-linejoin="round" stroke-miterlimit="10" d="
		M112.86,93.484l-6.15-6.149c-1.592-1.593-4.211-1.579-5.818,0.029l-0.768,0.768"/>
	
		<line fill="none" stroke="#646464" stroke-width="1.9995" stroke-linecap="round" stroke-linejoin="round" stroke-miterlimit="10" x1="113.095" y1="113.131" x2="126.964" y2="127"/>
	
		<line fill="none" stroke="#646464" stroke-width="1.9995" stroke-linecap="round" stroke-linejoin="round" stroke-miterlimit="10" x1="87.138" y1="100.737" x2="51.93" y2="51.966"/>
	
		<line fill="none" stroke="#646464" stroke-width="1.9995" stroke-linecap="round" stroke-linejoin="round" stroke-miterlimit="10" x1="100.771" y1="87.174" x2="51.965" y2="51.932"/>
	
		<line fill="none" stroke="#646464" stroke-width="1.9995" stroke-linecap="round" stroke-linejoin="round" stroke-miterlimit="10" x1="51.93" y1="51.966" x2="30.644" y2="30.68"/>
	
		<polyline fill="none" stroke="#646464" stroke-width="2" stroke-linecap="round" stroke-linejoin="round" stroke-miterlimit="10" points="
		26,26 14.282,26 1.036,39.318 51.84,51.856 	"/>
	
		<polyline fill="none" stroke="#646464" stroke-width="2" stroke-linecap="round" stroke-linejoin="round" stroke-miterlimit="10" points="
		26,26 26,14.246 39.338,1 51.866,51.821 	"/>
</g>
</svg>
