<?xml version="1.0" encoding="utf-8"?>
<!-- Generator: Adobe Illustrator 16.0.0, SVG Export Plug-In . SVG Version: 6.00 Build 0)  -->
<!DOCTYPE svg PUBLIC "-//W3C//DTD SVG 1.1//EN" "http://www.w3.org/Graphics/SVG/1.1/DTD/svg11.dtd">
<svg version="1.1" id="Layer_1" xmlns="http://www.w3.org/2000/svg" xmlns:xlink="http://www.w3.org/1999/xlink" x="0px" y="0px"
	 width="128px" height="128px" viewBox="0 0 128 128" enable-background="new 0 0 128 128" xml:space="preserve">
<g>
	<path fill="none" stroke="#646464" stroke-width="2" stroke-linecap="round" stroke-linejoin="round" stroke-miterlimit="10" d="
		M37.958,52.025c0,6.058-4.911,10.969-10.969,10.969S16.02,58.083,16.02,52.025c0-0.691,0.064-1.367,0.186-2.022
		c0.949-5.092,5.416-8.947,10.783-8.947C33.047,41.056,37.958,45.967,37.958,52.025z"/>
	<path fill="none" stroke="#646464" stroke-width="2" stroke-linecap="round" stroke-linejoin="round" stroke-miterlimit="10" d="
		M37.37,55.572c-1.129,0.393-2.341,0.605-3.604,0.605c-6.058,0-10.969-4.911-10.969-10.969c0-0.691,0.064-1.367,0.186-2.022
		c0.097-0.522,0.231-1.031,0.399-1.523"/>
	<g>
		<path fill="none" stroke="#646464" stroke-width="2" stroke-linecap="round" stroke-linejoin="round" stroke-miterlimit="10" d="
			M26.971,41.073L3.358,17.46c-3.111-3.111-3.111-8.202,0-11.313l2.789-2.788c3.111-3.111,8.202-3.111,11.313,0L56.352,42.25
			c3.111,3.111,7.717,8.609,10.235,12.217l3.704,5.308c2.518,3.608,6.42,9.81,9.531,12.921l42.452,42.452"/>
		<path fill="none" stroke="#646464" stroke-width="2" stroke-linecap="round" stroke-linejoin="round" stroke-miterlimit="10" d="
			M115.148,122.273L72.696,79.822c-3.111-3.111-9.312-7.013-12.921-9.531l-5.308-3.704c-3.608-2.518-9.106-7.124-12.217-10.235
			l-4.306-4.306"/>
		<path fill="none" stroke="#646464" stroke-width="2" stroke-linecap="round" stroke-linejoin="round" stroke-miterlimit="10" d="
			M121.538,115.884l1.348-1.348c0.778-0.778,2.051-0.778,2.828,0l0.678,0.677c0.778,0.778,0.778,2.051,0,2.829l-8.35,8.35
			c-0.778,0.778-2.05,0.778-2.828,0l-0.678-0.678c-0.778-0.778-0.778-2.051,0-2.829l4.002-4.001"/>
	</g>
	
		<line fill="none" stroke="#646464" stroke-width="2" stroke-linecap="round" stroke-linejoin="round" stroke-miterlimit="10" x1="89.955" y1="96.134" x2="96.205" y2="89.884"/>
</g>
</svg>
