<?xml version="1.0" encoding="utf-8"?>
<!-- Generator: Adobe Illustrator 16.0.0, SVG Export Plug-In . SVG Version: 6.00 Build 0)  -->
<!DOCTYPE svg PUBLIC "-//W3C//DTD SVG 1.1//EN" "http://www.w3.org/Graphics/SVG/1.1/DTD/svg11.dtd">
<svg version="1.1" id="Layer_1" xmlns="http://www.w3.org/2000/svg" xmlns:xlink="http://www.w3.org/1999/xlink" x="0px" y="0px"
	 width="128px" height="128px" viewBox="0 0 128 128" enable-background="new 0 0 128 128" xml:space="preserve">
<g>
	<g>
		<path fill="none" stroke="#646464" stroke-width="2" stroke-linecap="round" stroke-linejoin="round" stroke-miterlimit="10" d="
			M33.598,100.375c17.56,9.655,37.883,8.577,53.702-3.717l25.989,28.973l0.066-0.066c2.378,2.378,7.04,1.573,10.411-1.799
			c3.372-3.372,4.177-8.034,1.799-10.412l0.067-0.066L96.659,87.3c15.663-20.154,13.12-47.619-6.628-67.367
			C68.592-1.506,34.012-6.229,13.891,13.891C-3.557,31.339-2.322,59.662,12.295,80.857"/>
		
			<line fill="none" stroke="#646464" stroke-width="2" stroke-linecap="round" stroke-linejoin="round" stroke-miterlimit="10" x1="52.781" y1="105.996" x2="105.891" y2="52.887"/>
		
			<line fill="none" stroke="#646464" stroke-width="2" stroke-linecap="round" stroke-linejoin="round" stroke-miterlimit="10" x1="84.165" y1="98.889" x2="90.643" y2="92.41"/>
		
			<line fill="none" stroke="#646464" stroke-width="2" stroke-linecap="round" stroke-linejoin="round" stroke-miterlimit="10" x1="95.025" y1="88.028" x2="98.889" y2="84.165"/>
		<path fill="none" stroke="#646464" stroke-width="2" stroke-linecap="round" stroke-linejoin="round" stroke-miterlimit="10" d="
			M15.248,74.017c-4.278-7.186-7.002-15.173-7.777-23.147c-1.247-12.83,2.583-24.412,10.785-32.614 M58.046,100.733
			c-5.995,0.004-12.046-1.315-17.859-3.928 M50.87,7.471c12.65,1.23,25.333,7.363,34.797,16.827
			c9.977,9.977,15.077,21.974,15.067,33.753 M18.256,18.255c5.597-5.597,12.768-9.158,20.834-10.459"/>
	</g>
	<path fill="none" stroke="#646464" stroke-width="2" stroke-linecap="round" stroke-linejoin="round" stroke-miterlimit="10" d="
		M46.015,83.997c0,9.391-7.612,17.003-17.003,17.003c-9.39,0-17.003-7.612-17.003-17.003c0-1.071,0.099-2.118,0.289-3.134
		c1.471-7.894,8.395-13.869,16.714-13.869C38.402,66.994,46.015,74.606,46.015,83.997z"/>
	<path fill="none" stroke="#646464" stroke-width="2" stroke-linecap="round" stroke-linejoin="round" stroke-miterlimit="10" d="
		M29.012,71.972c3.178,0,6.068,1.233,8.218,3.246"/>
</g>
</svg>
