<?xml version="1.0" encoding="utf-8"?>
<!-- Generator: Adobe Illustrator 16.0.0, SVG Export Plug-In . SVG Version: 6.00 Build 0)  -->
<!DOCTYPE svg PUBLIC "-//W3C//DTD SVG 1.1//EN" "http://www.w3.org/Graphics/SVG/1.1/DTD/svg11.dtd">
<svg version="1.1" id="Layer_1" xmlns="http://www.w3.org/2000/svg" xmlns:xlink="http://www.w3.org/1999/xlink" x="0px" y="0px"
	 width="128px" height="128px" viewBox="0 0 128 128" enable-background="new 0 0 128 128" xml:space="preserve">
<g>
	
		<circle fill="none" stroke="#646464" stroke-width="2.106" stroke-linecap="round" stroke-linejoin="round" stroke-miterlimit="10" cx="64" cy="108.267" r="12.6"/>
	
		<circle fill="none" stroke="#646464" stroke-width="2.106" stroke-linecap="round" stroke-linejoin="round" stroke-miterlimit="10" cx="38.8" cy="108.267" r="12.601"/>
	
		<circle fill="none" stroke="#646464" stroke-width="2.106" stroke-linecap="round" stroke-linejoin="round" stroke-miterlimit="10" cx="13.6" cy="108.267" r="12.6"/>
	
		<circle fill="none" stroke="#646464" stroke-width="2.106" stroke-linecap="round" stroke-linejoin="round" stroke-miterlimit="10" cx="89.2" cy="108.267" r="12.601"/>
	
		<circle fill="none" stroke="#646464" stroke-width="2.106" stroke-linecap="round" stroke-linejoin="round" stroke-miterlimit="10" cx="64" cy="63.97" r="12.6"/>
	
		<circle fill="none" stroke="#646464" stroke-width="2.106" stroke-linecap="round" stroke-linejoin="round" stroke-miterlimit="10" cx="64" cy="19.733" r="12.6"/>
	
		<circle fill="none" stroke="#646464" stroke-width="2.106" stroke-linecap="round" stroke-linejoin="round" stroke-miterlimit="10" cx="38.8" cy="63.97" r="12.601"/>
	
		<path fill="none" stroke="#646464" stroke-width="2.106" stroke-linecap="round" stroke-linejoin="round" stroke-miterlimit="10" d="
		M48.936,71.451c-1.979,1.293-4.344,2.045-6.885,2.045c-6.959,0-12.6-5.641-12.6-12.6c0-2.804,0.916-5.393,2.463-7.485"/>
	
		<path fill="none" stroke="#646464" stroke-width="2.106" stroke-linecap="round" stroke-linejoin="round" stroke-miterlimit="10" d="
		M91.895,93.805c1.979,1.293,4.344,2.045,6.885,2.045c6.959,0,12.6-5.641,12.6-12.6c0-2.804-0.916-5.393-2.463-7.486"/>
	
		<circle fill="none" stroke="#646464" stroke-width="2.106" stroke-linecap="round" stroke-linejoin="round" stroke-miterlimit="10" cx="89.2" cy="63.97" r="12.601"/>
	
		<circle fill="none" stroke="#646464" stroke-width="2.106" stroke-linecap="round" stroke-linejoin="round" stroke-miterlimit="10" cx="76.601" cy="86.097" r="12.601"/>
	
		<circle fill="none" stroke="#646464" stroke-width="2.106" stroke-linecap="round" stroke-linejoin="round" stroke-miterlimit="10" cx="51.4" cy="86.097" r="12.6"/>
	
		<circle fill="none" stroke="#646464" stroke-width="2.106" stroke-linecap="round" stroke-linejoin="round" stroke-miterlimit="10" cx="76.601" cy="41.915" r="12.601"/>
	
		<circle fill="none" stroke="#646464" stroke-width="2.106" stroke-linecap="round" stroke-linejoin="round" stroke-miterlimit="10" cx="51.4" cy="41.915" r="12.6"/>
	
		<circle fill="none" stroke="#646464" stroke-width="2.106" stroke-linecap="round" stroke-linejoin="round" stroke-miterlimit="10" cx="26.2" cy="86.097" r="12.601"/>
	
		<circle fill="none" stroke="#646464" stroke-width="2.106" stroke-linecap="round" stroke-linejoin="round" stroke-miterlimit="10" cx="101.801" cy="86.097" r="12.6"/>
	
		<circle fill="none" stroke="#646464" stroke-width="2.106" stroke-linecap="round" stroke-linejoin="round" stroke-miterlimit="10" cx="114.4" cy="108.267" r="12.6"/>
	<g>
		
			<line fill="none" stroke="#646464" stroke-width="2" stroke-linecap="round" stroke-linejoin="round" stroke-miterlimit="10" x1="40" y1="39" x2="63" y2="39"/>
		
			<line fill="none" stroke="#646464" stroke-width="2" stroke-linecap="round" stroke-linejoin="round" stroke-miterlimit="10" x1="40" y1="45" x2="63" y2="45"/>
	</g>
	<g>
		
			<line fill="none" stroke="#646464" stroke-width="2.106" stroke-linecap="round" stroke-linejoin="round" stroke-miterlimit="10" x1="70.354" y1="75.382" x2="87.314" y2="92.344"/>
		
			<line fill="none" stroke="#646464" stroke-width="2.106" stroke-linecap="round" stroke-linejoin="round" stroke-miterlimit="10" x1="65.885" y1="79.849" x2="82.848" y2="96.812"/>
	</g>
	<g>
		
			<line fill="none" stroke="#646464" stroke-width="2.106" stroke-linecap="round" stroke-linejoin="round" stroke-miterlimit="10" x1="3.096" y1="114.514" x2="20.059" y2="97.552"/>
		
			<line fill="none" stroke="#646464" stroke-width="2.106" stroke-linecap="round" stroke-linejoin="round" stroke-miterlimit="10" x1="7.562" y1="118.981" x2="24.525" y2="102.019"/>
	</g>
	
		<path fill="none" stroke="#646464" stroke-width="2.106" stroke-linecap="round" stroke-linejoin="round" stroke-miterlimit="10" d="
		M42.91,107.525c0.043,0.24,0.066,0.488,0.066,0.741c0,2.307-1.871,4.176-4.176,4.176c-2.307,0-4.178-1.869-4.178-4.176
		c0-2.306,1.871-4.176,4.178-4.176c0.25,0,0.496,0.021,0.734,0.063"/>
	
		<path fill="none" stroke="#646464" stroke-width="2.106" stroke-linecap="round" stroke-linejoin="round" stroke-miterlimit="10" d="
		M93.311,107.525c0.043,0.24,0.066,0.488,0.066,0.741c0,2.307-1.871,4.176-4.176,4.176c-2.307,0-4.178-1.869-4.178-4.176
		c0-2.306,1.871-4.176,4.178-4.176c0.25,0,0.494,0.021,0.734,0.063"/>
	
		<path fill="none" stroke="#646464" stroke-width="2.106" stroke-linecap="round" stroke-linejoin="round" stroke-miterlimit="10" d="
		M68.111,18.992c0.043,0.24,0.064,0.488,0.064,0.741c0,2.307-1.869,4.177-4.176,4.177s-4.176-1.87-4.176-4.177
		s1.869-4.176,4.176-4.176c0.25,0,0.496,0.022,0.734,0.064"/>
</g>
</svg>
