<?xml version="1.0" encoding="utf-8"?>
<!-- Generator: Adobe Illustrator 16.0.0, SVG Export Plug-In . SVG Version: 6.00 Build 0)  -->
<!DOCTYPE svg PUBLIC "-//W3C//DTD SVG 1.1//EN" "http://www.w3.org/Graphics/SVG/1.1/DTD/svg11.dtd">
<svg version="1.1" id="Layer_1" xmlns="http://www.w3.org/2000/svg" xmlns:xlink="http://www.w3.org/1999/xlink" x="0px" y="0px"
	 width="128px" height="128px" viewBox="0 0 128 128" enable-background="new 0 0 128 128" xml:space="preserve">
<g>
	<path fill="none" stroke="#646464" stroke-width="2" stroke-linecap="round" stroke-linejoin="round" stroke-miterlimit="10" d="
		M83.22,82.749c0.137,2.488,0.407,4.622,0.733,6.843"/>
	<path fill="none" stroke="#646464" stroke-width="2" stroke-linecap="round" stroke-linejoin="round" stroke-miterlimit="10" d="
		M84.719,68.556c-0.994,2.867-1.447,5.978-1.568,9.1"/>
	<path fill="none" stroke="#646464" stroke-width="2" stroke-linecap="round" stroke-linejoin="round" stroke-miterlimit="10" d="
		M105.695,49.336c0.617,1.925,1.127,3.897,1.523,5.909c-10.32,0-16.424,3.338-19.906,8.21"/>
	<path fill="none" stroke="#646464" stroke-width="2" stroke-linecap="round" stroke-linejoin="round" stroke-miterlimit="10" d="
		M84.671,94c0.256,1.477,0.423,2.388,0.593,3.482c2.051,13.27-12.617,25.275-33.129,13.893c-14.963-8.305-26.127-6.908-32.58-5.14
		C8.201,96.405,1.02,81.886,1.02,65.69c0-29.608,24.002-53.61,53.609-53.61c22.492,0,41.748,13.853,49.703,33.491"/>
	<path fill="none" stroke="#646464" stroke-width="2" stroke-linecap="round" stroke-linejoin="round" stroke-miterlimit="10" d="
		M125.023,78H91.734c-2.549-8-5.043-16.323-6.104-19.735l20.467-8.992c1.014-0.44,1.479-1.671,1.039-2.685
		c-0.439-1.012-1.619-1.504-2.631-1.066L73.285,59.061c-0.205,0.088-5.045,2.236-7.346,7.325c-0.021,0.046-0.041,0.091-0.059,0.138
		l-8.865,24.386c-0.223,0.613-0.131,1.5,0.242,2.035C57.633,93.478,58.244,94,58.896,94h33.736c0.264,0,0.514,1.598,0.746,2.303
		C97.395,108.543,106.621,113,111.842,113h13.182c1.104,0,1.977-1.335,1.977-2.44V79.571C127,78.466,126.127,78,125.023,78z M123,82
		v8H95.547c-0.787-3-1.656-5-2.551-8H123z M74.881,62.716l7.059-3.064c1.24,3.988,4.035,12.961,6.736,21.523l-19.438-12.18
		l0.375-1.034C71.277,64.357,74.854,62.728,74.881,62.716z M61.752,90l6.088-16.956l22.701,14.325
		C90.814,88.232,91.086,89,91.348,90H61.752z M111.842,109c-3.902,0-11.334-3.797-14.662-13.944C97.07,94.726,96.955,94,96.84,94
		H123v15H111.842z"/>
	
		<circle fill="none" stroke="#646464" stroke-width="2" stroke-linecap="round" stroke-linejoin="round" stroke-miterlimit="10" cx="47.985" cy="87.648" r="5.978"/>
	<path fill="none" stroke="#646464" stroke-width="2" stroke-linecap="round" stroke-linejoin="round" stroke-miterlimit="10" d="
		M79.44,94c0.117,0.69,0.163,0.943,0.272,1.564c0.174,0.996,0.332,1.897,0.453,2.682c0.482,3.129-0.357,6.141-2.365,8.483
		c-2.316,2.703-5.932,4.192-10.178,4.192c-4.086,0-8.533-1.318-13.219-3.92c-8.504-4.719-16.963-7.113-25.141-7.113
		c-2.859,0-5.648,0.285-8.457,0.867C11.279,91.604,5.861,78.962,5.861,65.69c0-26.804,21.807-48.61,48.611-48.61 M77.97,79.436
		c-0.02,3.658,0.333,6.978,0.776,10.152 M82.49,61.427c-2.566,3.969-3.809,8.557-4.283,13.186 M87.639,30.175
		c5.098,4.75,9.191,10.598,11.881,17.213 M54.473,17.08c8.529,0,16.639,2.234,23.703,6.189"/>
	<path fill="none" stroke="#646464" stroke-width="2" stroke-linecap="round" stroke-linejoin="round" stroke-miterlimit="10" d="
		M84.671,94c0.256,1.477,0.423,2.388,0.593,3.482c2.051,13.27-12.617,25.275-33.129,13.893c-14.963-8.305-26.127-6.908-32.58-5.14
		C8.201,96.405,1.02,81.886,1.02,65.69c0-29.608,24.002-53.61,53.609-53.61c22.492,0,41.748,13.853,49.703,33.491"/>
</g>
</svg>
