<?xml version="1.0" encoding="utf-8"?>
<!-- Generator: Adobe Illustrator 16.0.0, SVG Export Plug-In . SVG Version: 6.00 Build 0)  -->
<!DOCTYPE svg PUBLIC "-//W3C//DTD SVG 1.1//EN" "http://www.w3.org/Graphics/SVG/1.1/DTD/svg11.dtd">
<svg version="1.1" id="Layer_1" xmlns="http://www.w3.org/2000/svg" xmlns:xlink="http://www.w3.org/1999/xlink" x="0px" y="0px"
	 width="128px" height="128px" viewBox="0 0 128 128" enable-background="new 0 0 128 128" xml:space="preserve">
<g>
	<path fill="none" stroke="#646464" stroke-width="2" stroke-linecap="round" stroke-linejoin="round" stroke-miterlimit="10" d="
		M95,42.308V16.031C95,7.761,88.295,1,80.024,1H47.928C39.657,1,33,7.761,33,16.031v26.276C18,52.362,7.904,69.504,7.904,89.009
		c0,14.679,5.622,27.991,14.85,37.991h82.444c9.229-10,14.873-23.312,14.873-37.991C120.071,69.504,110,52.362,95,42.308z
		 M43,16.031C43,13.274,45.171,11,47.928,11h32.096C82.781,11,85,13.274,85,16.031v20.998c-6-2.633-13.554-4.097-21-4.097
		s-15,1.464-21,4.097V16.031z"/>
	<path fill="none" stroke="#646464" stroke-width="2" stroke-linecap="round" stroke-linejoin="round" stroke-miterlimit="10" d="
		M94.114,51.639C85.875,44.985,75.391,41,63.976,41c-26.51,0-48,21.47-48,47.979c0,11.374,3.964,22.021,10.575,30.021h74.85
		c6.611-8,10.575-18.647,10.575-30.021c0-11.737-4.213-22.479-11.209-30.819"/>
</g>
</svg>
