<?xml version="1.0" encoding="utf-8"?>
<!-- Generator: Adobe Illustrator 16.0.0, SVG Export Plug-In . SVG Version: 6.00 Build 0)  -->
<!DOCTYPE svg PUBLIC "-//W3C//DTD SVG 1.1//EN" "http://www.w3.org/Graphics/SVG/1.1/DTD/svg11.dtd">
<svg version="1.1" id="Layer_1" xmlns="http://www.w3.org/2000/svg" xmlns:xlink="http://www.w3.org/1999/xlink" x="0px" y="0px"
	 width="128px" height="128px" viewBox="0 0 128 128" enable-background="new 0 0 128 128" xml:space="preserve">
<g>
	
		<polyline fill="none" stroke="#646464" stroke-width="2" stroke-linecap="round" stroke-linejoin="round" stroke-miterlimit="10" points="
		82,31 82,95 46,95 46,31 	"/>
	
		<polyline fill="none" stroke="#646464" stroke-width="2" stroke-linecap="round" stroke-linejoin="round" stroke-miterlimit="10" points="
		39,51 39,95 3,95 3,51 	"/>
	<path fill="none" stroke="#646464" stroke-width="2" stroke-linecap="round" stroke-linejoin="round" stroke-miterlimit="10" d="
		M72,31H46.031C44.931,31,44,30.1,44,29v-2.031c0-1.1,0.931-1.969,2.031-1.969h35.984c1.1,0,1.984,0.869,1.984,1.969V29
		c0,1.1-0.884,2-1.984,2H80"/>
	
		<polyline fill="none" stroke="#646464" stroke-width="2" stroke-linecap="round" stroke-linejoin="round" stroke-miterlimit="10" points="
		124,71 124,95 88,95 88,71 	"/>
	<path fill="none" stroke="#646464" stroke-width="2" stroke-linecap="round" stroke-linejoin="round" stroke-miterlimit="10" d="
		M127,103H1v-5.961C1,95.939,1.9,95,3,95h122.021c1.1,0,1.979,0.939,1.979,2.039V103z"/>
	<path fill="none" stroke="#646464" stroke-width="2" stroke-linecap="round" stroke-linejoin="round" stroke-miterlimit="10" d="
		M29,51H3.021C1.92,51,1,50.1,1,49v-2.031C1,45.869,1.92,45,3.021,45h35.984c1.1,0,1.995,0.869,1.995,1.969V49
		c0,1.1-0.895,2-1.995,2H37"/>
	<path fill="none" stroke="#646464" stroke-width="2" stroke-linecap="round" stroke-linejoin="round" stroke-miterlimit="10" d="
		M114,71H88.016C86.916,71,86,70.173,86,69.073v-2.031C86,65.941,86.916,65,88.016,65H124c1.1,0,2,0.941,2,2.042v2.031
		c0,1.1-0.9,1.927-2,1.927h-2"/>
</g>
</svg>
