<?xml version="1.0" encoding="utf-8"?>
<!-- Generator: Adobe Illustrator 16.0.0, SVG Export Plug-In . SVG Version: 6.00 Build 0)  -->
<!DOCTYPE svg PUBLIC "-//W3C//DTD SVG 1.1//EN" "http://www.w3.org/Graphics/SVG/1.1/DTD/svg11.dtd">
<svg version="1.1" id="Layer_1" xmlns="http://www.w3.org/2000/svg" xmlns:xlink="http://www.w3.org/1999/xlink" x="0px" y="0px"
	 width="128px" height="128px" viewBox="0 0 128 128" enable-background="new 0 0 128 128" xml:space="preserve">
<g>
	<path fill="none" stroke="#646464" stroke-width="2" stroke-linecap="round" stroke-linejoin="round" stroke-miterlimit="10" d="
		M55.917,84.031c0,9.391-7.612,17.003-17.003,17.003c-9.39,0-17.003-7.612-17.003-17.003c0-1.071,0.099-2.118,0.288-3.134
		c1.471-7.894,8.395-13.869,16.715-13.869C48.304,67.028,55.917,74.641,55.917,84.031z"/>
	<path fill="none" stroke="#646464" stroke-width="2" stroke-linecap="round" stroke-linejoin="round" stroke-miterlimit="10" d="
		M54.018,91.982c-2.409,1.309-5.17,2.052-8.105,2.052c-9.39,0-17.002-7.612-17.002-17.003c0-1.07,0.099-2.118,0.288-3.134
		c0.322-1.729,0.906-3.366,1.709-4.868"/>
	<path fill="none" stroke="#646464" stroke-width="2" stroke-linecap="round" stroke-linejoin="round" stroke-miterlimit="10" d="
		M21.511,84.827c-1.091-0.949-2.159-1.945-3.201-2.986c-20.656-20.656-23.194-51.607-5.67-69.133
		c17.525-17.524,48.476-14.985,69.132,5.67c20.656,20.656,23.194,51.607,5.67,69.132c-10.01,10.011-24.401,13.475-38.751,10.755"/>
	<path fill="none" stroke="#646464" stroke-width="2" stroke-linecap="round" stroke-linejoin="round" stroke-miterlimit="10" d="
		M125.594,116.944c1.884,1.884,1.884,4.967,0,6.852l-1.73,1.73c-1.884,1.884-4.967,1.884-6.851,0l-14.572-14.572
		c-1.884-1.885-1.884-4.968,0-6.852l1.73-1.73c1.884-1.884,4.967-1.884,6.851,0L125.594,116.944z"/>
	
		<line fill="none" stroke="#646464" stroke-width="2" stroke-linecap="round" stroke-linejoin="round" stroke-miterlimit="10" x1="101.201" y1="106.247" x2="84.954" y2="89.999"/>
	
		<line fill="none" stroke="#646464" stroke-width="2" stroke-linecap="round" stroke-linejoin="round" stroke-miterlimit="10" x1="106.354" y1="101.094" x2="90.106" y2="84.847"/>
	
		<line fill="none" stroke="#646464" stroke-width="2" stroke-linecap="round" stroke-linejoin="round" stroke-miterlimit="10" x1="28.597" y1="70.573" x2="77.889" y2="21.281"/>
	
		<line fill="none" stroke="#646464" stroke-width="2" stroke-linecap="round" stroke-linejoin="round" stroke-miterlimit="10" x1="21.619" y1="77.551" x2="25.003" y2="74.167"/>
	
		<line fill="none" stroke="#646464" stroke-width="2" stroke-linecap="round" stroke-linejoin="round" stroke-miterlimit="10" x1="52.954" y1="94.068" x2="94" y2="53.021"/>
	
		<line fill="none" stroke="#646464" stroke-width="2" stroke-linecap="round" stroke-linejoin="round" stroke-miterlimit="10" x1="51" y1="72.095" x2="88.183" y2="34.913"/>
	
		<line fill="none" stroke="#646464" stroke-width="2" stroke-linecap="round" stroke-linejoin="round" stroke-miterlimit="10" x1="11.198" y1="63.778" x2="63.71" y2="11.266"/>
	
		<line fill="none" stroke="#646464" stroke-width="2" stroke-linecap="round" stroke-linejoin="round" stroke-miterlimit="10" x1="6.044" y1="44.953" x2="44.885" y2="6.111"/>
	<path fill="none" stroke="#646464" stroke-width="2" stroke-linecap="round" stroke-linejoin="round" stroke-miterlimit="10" d="
		M22.58,79.306c-0.294-0.282-0.586-0.568-0.876-0.858C2.999,59.743,0.494,31.813,16.12,16.188 M16.12,16.188
		c15.626-15.625,43.556-13.121,62.26,5.584c18.705,18.704,21.209,46.634,5.584,62.26c-8.05,8.05-19.365,11.288-31.003,9.978"/>
	
		<line fill="none" stroke="#646464" stroke-width="2" stroke-linecap="round" stroke-linejoin="round" stroke-miterlimit="10" x1="16.12" y1="16.188" x2="83.963" y2="84.031"/>
	
		<line fill="none" stroke="#646464" stroke-width="2" stroke-linecap="round" stroke-linejoin="round" stroke-miterlimit="10" x1="7.719" y1="30.042" x2="45.853" y2="68.176"/>
	
		<line fill="none" stroke="#646464" stroke-width="2" stroke-linecap="round" stroke-linejoin="round" stroke-miterlimit="10" x1="54.646" y1="76.971" x2="70.132" y2="92.456"/>
	
		<line fill="none" stroke="#646464" stroke-width="2" stroke-linecap="round" stroke-linejoin="round" stroke-miterlimit="10" x1="6.834" y1="49.641" x2="27.924" y2="70.729"/>
	
		<line fill="none" stroke="#646464" stroke-width="2" stroke-linecap="round" stroke-linejoin="round" stroke-miterlimit="10" x1="30.099" y1="7.747" x2="92.404" y2="70.052"/>
	
		<line fill="none" stroke="#646464" stroke-width="2" stroke-linecap="round" stroke-linejoin="round" stroke-miterlimit="10" x1="49.654" y1="6.82" x2="93.331" y2="50.497"/>
</g>
</svg>
