<?xml version="1.0" encoding="utf-8"?>
<!-- Generator: Adobe Illustrator 16.0.0, SVG Export Plug-In . SVG Version: 6.00 Build 0)  -->
<!DOCTYPE svg PUBLIC "-//W3C//DTD SVG 1.1//EN" "http://www.w3.org/Graphics/SVG/1.1/DTD/svg11.dtd">
<svg version="1.1" id="Layer_1" xmlns="http://www.w3.org/2000/svg" xmlns:xlink="http://www.w3.org/1999/xlink" x="0px" y="0px"
	 width="128px" height="128px" viewBox="0 0 128 128" enable-background="new 0 0 128 128" xml:space="preserve">
<g>
	<path fill="none" stroke="#646464" stroke-width="2" stroke-linecap="round" stroke-linejoin="round" stroke-miterlimit="10" d="
		M105.206,74h-7.123c-15.1,0-44.029-31.724-44.029-31.724L48,12.009l-36,7.234v36.139c-2,2.764-4,6.33-4,10.266v20.395
		C8,90.875,10.065,94,15.064,94h17.257h1.228h76.604c4.322,0,7.848-3.571,7.848-7.892V83.96C118,78.878,113.87,74,105.206,74z"/>
	<path fill="none" stroke="#646464" stroke-width="2" stroke-linecap="round" stroke-linejoin="round" stroke-miterlimit="10" d="
		M124.001,98.306c-1.656,0-3,1.351-3,3.007c0,4.785-3.893,8.687-8.679,8.687H3.999C2.343,110,1,111.344,1,113s1.343,3,2.999,3
		h108.324c8.093,0,14.677-6.593,14.677-14.687C127,99.657,125.657,98.306,124.001,98.306z"/>
	
		<line fill="none" stroke="#646464" stroke-width="2" stroke-linecap="round" stroke-linejoin="round" stroke-miterlimit="10" x1="20" y1="110" x2="20" y2="94"/>
	
		<line fill="none" stroke="#646464" stroke-width="2" stroke-linecap="round" stroke-linejoin="round" stroke-miterlimit="10" x1="30" y1="110" x2="30" y2="94"/>
	
		<line fill="none" stroke="#646464" stroke-width="2" stroke-linecap="round" stroke-linejoin="round" stroke-miterlimit="10" x1="82" y1="110" x2="82" y2="94"/>
	
		<line fill="none" stroke="#646464" stroke-width="2" stroke-linecap="round" stroke-linejoin="round" stroke-miterlimit="10" x1="92" y1="110" x2="92" y2="94"/>
	
		<line fill="none" stroke="#646464" stroke-width="2" stroke-linecap="round" stroke-linejoin="round" stroke-miterlimit="10" x1="114" y1="86" x2="117" y2="86"/>
	
		<line fill="none" stroke="#646464" stroke-width="2" stroke-linecap="round" stroke-linejoin="round" stroke-miterlimit="10" x1="8" y1="86" x2="106" y2="86"/>
	
		<line fill="none" stroke="#646464" stroke-width="1.9995" stroke-linecap="round" stroke-linejoin="round" stroke-miterlimit="10" x1="45.033" y1="21.446" x2="49.59" y2="20.53"/>
	
		<line fill="none" stroke="#646464" stroke-width="1.9995" stroke-linecap="round" stroke-linejoin="round" stroke-miterlimit="10" x1="11.942" y1="28.099" x2="35.743" y2="23.313"/>
</g>
</svg>
