<?xml version="1.0" encoding="utf-8"?>
<!-- Generator: Adobe Illustrator 16.0.0, SVG Export Plug-In . SVG Version: 6.00 Build 0)  -->
<!DOCTYPE svg PUBLIC "-//W3C//DTD SVG 1.1//EN" "http://www.w3.org/Graphics/SVG/1.1/DTD/svg11.dtd">
<svg version="1.1" id="Layer_1" xmlns="http://www.w3.org/2000/svg" xmlns:xlink="http://www.w3.org/1999/xlink" x="0px" y="0px"
	 width="128px" height="128px" viewBox="0 0 128 128" enable-background="new 0 0 128 128" xml:space="preserve">
<g>
	
		<circle fill="none" stroke="#646464" stroke-width="2" stroke-linecap="round" stroke-linejoin="round" stroke-miterlimit="10" cx="64.013" cy="63.985" r="57.958"/>
	<path fill="none" stroke="#646464" stroke-width="2" stroke-linecap="round" stroke-linejoin="round" stroke-miterlimit="10" d="
		M104.621,29.974c7.715,9.202,12.36,21.064,12.36,34.012c0,29.254-23.715,52.97-52.969,52.97s-52.969-23.716-52.969-52.97
		c0-29.253,23.715-52.968,52.969-52.968c13.095,0,25.08,4.751,34.325,12.625"/>
	
		<line fill="none" stroke="#646464" stroke-width="2" stroke-linecap="round" stroke-linejoin="round" stroke-miterlimit="10" x1="1" y1="64" x2="127" y2="64"/>
	
		<line fill="none" stroke="#646464" stroke-width="2" stroke-linecap="round" stroke-linejoin="round" stroke-miterlimit="10" x1="64" y1="127" x2="64" y2="1"/>
	<path fill="none" stroke="#646464" stroke-width="2" stroke-linecap="round" stroke-linejoin="round" stroke-miterlimit="10" d="
		M87.625,48.99c2.868,4.508,4.479,9.884,4.35,15.626c-0.349,15.442-13.149,27.679-28.592,27.331
		C47.939,91.6,35.703,78.798,36.051,63.355c0.349-15.443,13.149-27.68,28.592-27.331c5.486,0.123,10.567,1.818,14.823,4.646"/>
</g>
</svg>
