<?xml version="1.0" encoding="utf-8"?>
<!-- Generator: Adobe Illustrator 16.0.0, SVG Export Plug-In . SVG Version: 6.00 Build 0)  -->
<!DOCTYPE svg PUBLIC "-//W3C//DTD SVG 1.1//EN" "http://www.w3.org/Graphics/SVG/1.1/DTD/svg11.dtd">
<svg version="1.1" id="Layer_1" xmlns="http://www.w3.org/2000/svg" xmlns:xlink="http://www.w3.org/1999/xlink" x="0px" y="0px"
	 width="128px" height="128px" viewBox="0 0 128 128" enable-background="new 0 0 128 128" xml:space="preserve">
<g>
	
		<circle fill="none" stroke="#646464" stroke-width="1.9981" stroke-linecap="round" stroke-linejoin="round" stroke-miterlimit="10" cx="63.956" cy="107.032" r="19.969"/>
	
		<path fill="none" stroke="#646464" stroke-width="1.9981" stroke-linecap="round" stroke-linejoin="round" stroke-miterlimit="10" d="
		M76.965,99.696c1.224,2.166,1.923,4.67,1.923,7.335c0,8.246-6.685,14.932-14.932,14.932c-8.246,0.001-14.932-6.685-14.932-14.932
		c-0.001-8.246,6.684-14.931,14.931-14.931c2.915,0,5.636,0.835,7.935,2.278"/>
	
		<circle fill="none" stroke="#646464" stroke-width="1.9981" stroke-linecap="round" stroke-linejoin="round" stroke-miterlimit="10" cx="63.956" cy="107.031" r="8.063"/>
	
		<path fill="none" stroke="#646464" stroke-width="1.9981" stroke-linecap="round" stroke-linejoin="round" stroke-miterlimit="10" d="
		M63.505,74.069c0.219-0.019,0.44-0.024,0.665-0.015c2.819,0.118,5.009,2.5,4.89,5.318c-0.117,2.818-2.499,5.008-5.318,4.891
		c-2.818-0.119-5.008-2.499-4.89-5.319c0.042-1.022,0.384-1.962,0.935-2.738"/>
	<g>
		
			<path fill="none" stroke="#646464" stroke-width="1.9981" stroke-linecap="round" stroke-linejoin="round" stroke-miterlimit="10" d="
			M63.958,81.157c-0.69,0-1.361-0.357-1.732-0.998L18.192,3.999c-0.553-0.955-0.226-2.178,0.73-2.729
			c0.953-0.555,2.177-0.226,2.729,0.729l41.571,71.902l2.462,4.258c0.552,0.955,0.226,2.178-0.729,2.729
			C64.642,81.071,64.298,81.157,63.958,81.157z"/>
	</g>
	<g>
		
			<path fill="none" stroke="#646464" stroke-width="1.9981" stroke-linecap="round" stroke-linejoin="round" stroke-miterlimit="10" d="
			M68.086,76.161l41.723-72.162c0.552-0.955,0.226-2.178-0.729-2.729c-0.953-0.555-2.178-0.226-2.73,0.729L64.659,74.104"/>
	</g>
	
		<line fill="none" stroke="#646464" stroke-width="2" stroke-linecap="round" stroke-linejoin="round" stroke-miterlimit="10" x1="64" y1="87" x2="64" y2="85"/>
</g>
</svg>
