<?xml version="1.0" encoding="utf-8"?>
<!-- Generator: Adobe Illustrator 16.0.0, SVG Export Plug-In . SVG Version: 6.00 Build 0)  -->
<!DOCTYPE svg PUBLIC "-//W3C//DTD SVG 1.1//EN" "http://www.w3.org/Graphics/SVG/1.1/DTD/svg11.dtd">
<svg version="1.1" id="Layer_1" xmlns="http://www.w3.org/2000/svg" xmlns:xlink="http://www.w3.org/1999/xlink" x="0px" y="0px"
	 width="128px" height="128px" viewBox="0 0 128 128" enable-background="new 0 0 128 128" xml:space="preserve">
<g>
	<path fill="none" stroke="#646464" stroke-width="2" stroke-linecap="round" stroke-linejoin="round" stroke-miterlimit="10" d="
		M105.209,68h-7.124C82.983,68,54.05,36.052,54.05,36.052L48,5.669l-36,7.125v36.143c-2,2.765-4,6.331-4,10.267v20.398
		C8,84.434,10.057,88,15.056,88h17.258h1.228h76.613c4.322,0,7.845-4.012,7.845-8.334v-2.148C118,72.436,113.874,68,105.209,68z"/>
	
		<line fill="none" stroke="#646464" stroke-width="2" stroke-linecap="round" stroke-linejoin="round" stroke-miterlimit="10" x1="114" y1="80" x2="117" y2="80"/>
	
		<line fill="none" stroke="#646464" stroke-width="2" stroke-linecap="round" stroke-linejoin="round" stroke-miterlimit="10" x1="8" y1="80" x2="106" y2="80"/>
	
		<line fill="none" stroke="#646464" stroke-width="1.9997" stroke-linecap="round" stroke-linejoin="round" stroke-miterlimit="10" x1="45.028" y1="14.996" x2="49.586" y2="14.08"/>
	
		<line fill="none" stroke="#646464" stroke-width="1.9997" stroke-linecap="round" stroke-linejoin="round" stroke-miterlimit="10" x1="11.934" y1="21.65" x2="35.737" y2="16.864"/>
	
		<circle fill="none" stroke="#646464" stroke-width="1.9997" stroke-linecap="round" stroke-linejoin="round" stroke-miterlimit="10" cx="18.012" cy="107.467" r="14.982"/>
	
		<circle fill="none" stroke="#646464" stroke-width="1.9997" stroke-linecap="round" stroke-linejoin="round" stroke-miterlimit="10" cx="47.977" cy="107.467" r="14.982"/>
	
		<circle fill="none" stroke="#646464" stroke-width="1.9997" stroke-linecap="round" stroke-linejoin="round" stroke-miterlimit="10" cx="79.014" cy="107.467" r="14.982"/>
	
		<circle fill="none" stroke="#646464" stroke-width="1.9997" stroke-linecap="round" stroke-linejoin="round" stroke-miterlimit="10" cx="108.978" cy="107.467" r="14.982"/>
	
		<path fill="none" stroke="#646464" stroke-width="1.9997" stroke-linecap="round" stroke-linejoin="round" stroke-miterlimit="10" d="
		M25.44,104.652c0.332,0.875,0.513,1.824,0.513,2.814c0,4.387-3.556,7.941-7.941,7.941c-4.386,0-7.942-3.555-7.942-7.941
		c0-4.386,3.556-7.941,7.942-7.941c1.02,0,1.995,0.193,2.891,0.542"/>
	
		<path fill="none" stroke="#646464" stroke-width="1.9997" stroke-linecap="round" stroke-linejoin="round" stroke-miterlimit="10" d="
		M55.405,104.652c0.332,0.875,0.513,1.824,0.513,2.814c0,4.387-3.556,7.941-7.941,7.941c-4.386,0-7.942-3.555-7.942-7.941
		c0-4.386,3.556-7.941,7.942-7.941c1.02,0,1.995,0.193,2.891,0.542"/>
	
		<path fill="none" stroke="#646464" stroke-width="1.9997" stroke-linecap="round" stroke-linejoin="round" stroke-miterlimit="10" d="
		M86.442,104.652c0.332,0.875,0.513,1.824,0.513,2.814c0,4.387-3.555,7.941-7.941,7.941s-7.942-3.555-7.942-7.941
		c0-4.386,3.556-7.941,7.942-7.941c1.02,0,1.995,0.193,2.892,0.542"/>
	
		<path fill="none" stroke="#646464" stroke-width="1.9997" stroke-linecap="round" stroke-linejoin="round" stroke-miterlimit="10" d="
		M116.406,104.652c0.332,0.875,0.514,1.824,0.514,2.814c0,4.387-3.556,7.941-7.941,7.941c-4.386,0-7.942-3.555-7.942-7.941
		c0-4.386,3.556-7.941,7.942-7.941c1.02,0,1.995,0.193,2.892,0.542"/>
	
		<path fill="none" stroke="#646464" stroke-width="1.9997" stroke-linecap="round" stroke-linejoin="round" stroke-miterlimit="10" d="
		M1,96.971C4.521,91.275,10.717,88,17.906,88"/>
	
		<line fill="none" stroke="#646464" stroke-width="1.9997" stroke-linecap="round" stroke-linejoin="round" stroke-miterlimit="10" x1="1" y1="96.971" x2="5.148" y2="99.783"/>
	
		<path fill="none" stroke="#646464" stroke-width="1.9997" stroke-linecap="round" stroke-linejoin="round" stroke-miterlimit="10" d="
		M127,96.971C123.479,91.275,117.176,88,109.987,88"/>
	
		<line fill="none" stroke="#646464" stroke-width="1.9997" stroke-linecap="round" stroke-linejoin="round" stroke-miterlimit="10" x1="127" y1="96.971" x2="122.851" y2="99.783"/>
</g>
</svg>
