<?xml version="1.0" encoding="utf-8"?>
<!-- Generator: Adobe Illustrator 16.0.0, SVG Export Plug-In . SVG Version: 6.00 Build 0)  -->
<!DOCTYPE svg PUBLIC "-//W3C//DTD SVG 1.1//EN" "http://www.w3.org/Graphics/SVG/1.1/DTD/svg11.dtd">
<svg version="1.1" id="Layer_1" xmlns="http://www.w3.org/2000/svg" xmlns:xlink="http://www.w3.org/1999/xlink" x="0px" y="0px"
	 width="128px" height="128px" viewBox="0 0 128 128" enable-background="new 0 0 128 128" xml:space="preserve">
<g>
	<path fill="none" stroke="#646464" stroke-width="2" stroke-linecap="round" stroke-linejoin="round" stroke-miterlimit="10" d="
		M93.01,87.677l18.001,18.001c1.556,1.556,4.102,1.556,5.657,0l9.163-9.163c1.556-1.556,1.556-4.102,0-5.657L67.545,32.572
		c-15.223-15.223-39.903-15.223-55.125,0c-15.223,15.222-15.223,39.902,0,55.124c15.222,15.223,39.902,15.223,55.125,0l-0.092,0.092
		c7.088-7.088,18.581-7.088,25.669,0"/>
	
		<circle fill="none" stroke="#646464" stroke-width="2" stroke-linecap="round" stroke-linejoin="round" stroke-miterlimit="10" cx="39.982" cy="60.134" r="32.021"/>
	<path fill="none" stroke="#646464" stroke-width="2" stroke-linecap="round" stroke-linejoin="round" stroke-miterlimit="10" d="
		M67.82,63.344c-0.696,6.067-3.37,11.95-8.024,16.604c-10.943,10.943-28.685,10.943-39.627,0c-10.943-10.942-10.943-28.684,0-39.627
		s28.685-10.943,39.627,0c4.738,4.738,7.425,10.751,8.06,16.935"/>
</g>
</svg>
