<?xml version="1.0" encoding="utf-8"?>
<!-- Generator: Adobe Illustrator 16.0.0, SVG Export Plug-In . SVG Version: 6.00 Build 0)  -->
<!DOCTYPE svg PUBLIC "-//W3C//DTD SVG 1.1//EN" "http://www.w3.org/Graphics/SVG/1.1/DTD/svg11.dtd">
<svg version="1.1" id="Layer_1" xmlns="http://www.w3.org/2000/svg" xmlns:xlink="http://www.w3.org/1999/xlink" x="0px" y="0px"
	 width="128px" height="128px" viewBox="0 0 128 128" enable-background="new 0 0 128 128" xml:space="preserve">
<g>
	<path fill="none" stroke="#646464" stroke-width="2" stroke-linecap="round" stroke-linejoin="round" stroke-miterlimit="10" d="
		M77,104H40.959c0,13,10.316,23.04,23.041,23.04S87.041,117,87.041,104H85"/>
	
		<line fill="none" stroke="#646464" stroke-width="2" stroke-linecap="round" stroke-linejoin="round" stroke-miterlimit="10" x1="41" y1="104" x2="41" y2="100"/>
	
		<line fill="none" stroke="#646464" stroke-width="2" stroke-linecap="round" stroke-linejoin="round" stroke-miterlimit="10" x1="87" y1="104" x2="87" y2="100"/>
	<path fill="none" stroke="#646464" stroke-width="2" stroke-linecap="round" stroke-linejoin="round" stroke-miterlimit="10" d="
		M116.624,1.814C116.246,1.315,115.656,1,115.03,1H90.414H37.586H12.971c-0.627,0-1.217,0.315-1.595,0.814
		c-0.378,0.5-0.501,1.158-0.33,1.76l27.989,94.951c0.244,0.861,1.029,1.474,1.924,1.474h11.115h23.853h11.114
		c0.895,0,1.681-0.607,1.924-1.469l27.989-94.949C117.125,2.979,117.002,2.314,116.624,1.814z M15.612,5h20.245L49.76,96h-7.288
		L15.612,5z M39.898,5H62v91h-8.198L39.898,5z M66,96V5h22.102L74.198,96H66z M85.528,96H78.24L92.143,5h20.245L85.528,96z"/>
</g>
</svg>
