<?xml version="1.0" encoding="utf-8"?>
<!-- Generator: Adobe Illustrator 16.0.0, SVG Export Plug-In . SVG Version: 6.00 Build 0)  -->
<!DOCTYPE svg PUBLIC "-//W3C//DTD SVG 1.1//EN" "http://www.w3.org/Graphics/SVG/1.1/DTD/svg11.dtd">
<svg version="1.1" id="Layer_1" xmlns="http://www.w3.org/2000/svg" xmlns:xlink="http://www.w3.org/1999/xlink" x="0px" y="0px"
	 width="128px" height="128px" viewBox="0 0 128 128" enable-background="new 0 0 128 128" xml:space="preserve">
<g>
	<g>
		<path fill="none" stroke="#646464" stroke-width="2" stroke-linecap="round" stroke-linejoin="round" stroke-miterlimit="10" d="
			M119.777,119.777c14.006-14.006,7.797-57.742-23.008-88.546S22.229-5.783,8.224,8.223C-5.783,22.229,0.426,65.964,31.23,96.77
			C62.035,127.574,105.771,133.783,119.777,119.777z"/>
		
			<line fill="none" stroke="#646464" stroke-width="2" stroke-linecap="round" stroke-linejoin="round" stroke-miterlimit="10" x1="25.952" y1="25.952" x2="101.94" y2="101.94"/>
		
			<line fill="none" stroke="#646464" stroke-width="2" stroke-linecap="round" stroke-linejoin="round" stroke-miterlimit="10" x1="26.868" y1="39.04" x2="39.04" y2="26.868"/>
		
			<line fill="none" stroke="#646464" stroke-width="2" stroke-linecap="round" stroke-linejoin="round" stroke-miterlimit="10" x1="33.999" y1="46.171" x2="46.171" y2="33.999"/>
		
			<line fill="none" stroke="#646464" stroke-width="2" stroke-linecap="round" stroke-linejoin="round" stroke-miterlimit="10" x1="41.042" y1="53.214" x2="53.214" y2="41.042"/>
		
			<line fill="none" stroke="#646464" stroke-width="2" stroke-linecap="round" stroke-linejoin="round" stroke-miterlimit="10" x1="48.173" y1="60.345" x2="60.345" y2="48.173"/>
		
			<line fill="none" stroke="#646464" stroke-width="2" stroke-linecap="round" stroke-linejoin="round" stroke-miterlimit="10" x1="55.304" y1="67.476" x2="67.476" y2="55.304"/>
		
			<line fill="none" stroke="#646464" stroke-width="2" stroke-linecap="round" stroke-linejoin="round" stroke-miterlimit="10" x1="62.347" y1="74.519" x2="74.519" y2="62.347"/>
		
			<line fill="none" stroke="#646464" stroke-width="2" stroke-linecap="round" stroke-linejoin="round" stroke-miterlimit="10" x1="69.479" y1="81.649" x2="81.649" y2="69.478"/>
		
			<line fill="none" stroke="#646464" stroke-width="2" stroke-linecap="round" stroke-linejoin="round" stroke-miterlimit="10" x1="76.609" y1="88.781" x2="88.78" y2="76.609"/>
		
			<line fill="none" stroke="#646464" stroke-width="2" stroke-linecap="round" stroke-linejoin="round" stroke-miterlimit="10" x1="83.652" y1="95.824" x2="95.823" y2="83.652"/>
		
			<line fill="none" stroke="#646464" stroke-width="2" stroke-linecap="round" stroke-linejoin="round" stroke-miterlimit="10" x1="90.783" y1="102.954" x2="102.954" y2="90.783"/>
	</g>
	<path fill="none" stroke="#646464" stroke-width="2" stroke-linecap="round" stroke-linejoin="round" stroke-miterlimit="10" d="
		M64.001,14.309c9.807,4.543,19.966,11.19,29.232,20.458c13.52,13.519,23.095,30.606,26.962,48.115
		c3.231,14.632,1.68,27.727-3.954,33.36c-3.637,3.638-10.345,5.642-18.887,5.642c-15.656,0-41.443-7.503-62.588-28.649
		C21.247,79.715,11.672,62.627,7.805,45.118c-3.231-14.632-1.68-27.727,3.954-33.359c3.638-3.639,10.345-5.642,18.887-5.642
		 M30.646,6.117c6.648,0,15.123,1.353,24.294,4.528"/>
	
		<line fill="none" stroke="#646464" stroke-width="2" stroke-linecap="round" stroke-linejoin="round" stroke-miterlimit="10" x1="25.952" y1="25.952" x2="101.94" y2="101.94"/>
	
		<line fill="none" stroke="#646464" stroke-width="2" stroke-linecap="round" stroke-linejoin="round" stroke-miterlimit="10" x1="26.868" y1="39.04" x2="39.04" y2="26.868"/>
	
		<line fill="none" stroke="#646464" stroke-width="2" stroke-linecap="round" stroke-linejoin="round" stroke-miterlimit="10" x1="33.999" y1="46.171" x2="46.171" y2="33.999"/>
	
		<line fill="none" stroke="#646464" stroke-width="2" stroke-linecap="round" stroke-linejoin="round" stroke-miterlimit="10" x1="41.042" y1="53.214" x2="53.214" y2="41.042"/>
	
		<line fill="none" stroke="#646464" stroke-width="2" stroke-linecap="round" stroke-linejoin="round" stroke-miterlimit="10" x1="48.173" y1="60.345" x2="60.345" y2="48.173"/>
	
		<line fill="none" stroke="#646464" stroke-width="2" stroke-linecap="round" stroke-linejoin="round" stroke-miterlimit="10" x1="55.304" y1="67.476" x2="67.476" y2="55.304"/>
	
		<line fill="none" stroke="#646464" stroke-width="2" stroke-linecap="round" stroke-linejoin="round" stroke-miterlimit="10" x1="62.347" y1="74.519" x2="74.519" y2="62.347"/>
	
		<line fill="none" stroke="#646464" stroke-width="2" stroke-linecap="round" stroke-linejoin="round" stroke-miterlimit="10" x1="69.479" y1="81.649" x2="81.649" y2="69.478"/>
	
		<line fill="none" stroke="#646464" stroke-width="2" stroke-linecap="round" stroke-linejoin="round" stroke-miterlimit="10" x1="76.609" y1="88.781" x2="88.78" y2="76.609"/>
	
		<line fill="none" stroke="#646464" stroke-width="2" stroke-linecap="round" stroke-linejoin="round" stroke-miterlimit="10" x1="83.652" y1="95.824" x2="95.823" y2="83.652"/>
	
		<line fill="none" stroke="#646464" stroke-width="2" stroke-linecap="round" stroke-linejoin="round" stroke-miterlimit="10" x1="90.783" y1="102.954" x2="102.954" y2="90.783"/>
</g>
</svg>
