<?xml version="1.0" encoding="utf-8"?>
<!-- Generator: Adobe Illustrator 16.0.0, SVG Export Plug-In . SVG Version: 6.00 Build 0)  -->
<!DOCTYPE svg PUBLIC "-//W3C//DTD SVG 1.1//EN" "http://www.w3.org/Graphics/SVG/1.1/DTD/svg11.dtd">
<svg version="1.1" id="Layer_1" xmlns="http://www.w3.org/2000/svg" xmlns:xlink="http://www.w3.org/1999/xlink" x="0px" y="0px"
	 width="128px" height="128px" viewBox="0 0 128 128" enable-background="new 0 0 128 128" xml:space="preserve">
<g>
	<path fill="none" stroke="#646464" stroke-width="2" stroke-linecap="round" stroke-linejoin="round" stroke-miterlimit="10" d="
		M22.606,38.199c-6.104,9.078-9.667,20.008-9.667,31.771c0,31.479,25.52,57,57,57c31.479,0,57-25.521,57-57c0-31.48-25.521-57-57-57
		c-11.729,0-22.631,3.542-31.693,9.616"/>
	<path fill="none" stroke="#646464" stroke-width="2" stroke-linecap="round" stroke-linejoin="round" stroke-miterlimit="10" d="
		M34.419,42.353c-5.936,7.623-9.471,17.207-9.471,27.617c0,24.848,20.144,44.99,44.991,44.99s44.99-20.143,44.99-44.99
		s-20.143-44.991-44.99-44.991c-10.377,0-19.934,3.513-27.545,9.414"/>
	<path fill="none" stroke="#646464" stroke-width="2" stroke-linecap="round" stroke-linejoin="round" stroke-miterlimit="10" d="
		M44.248,49.241C39.67,54.907,36.93,62.118,36.93,69.97c0,18.23,14.778,33.009,33.01,33.009c18.23,0,33.009-14.778,33.009-33.009
		c0-18.231-14.778-33.01-33.009-33.01c-7.763,0-14.899,2.679-20.535,7.163"/>
	<path fill="none" stroke="#646464" stroke-width="2" stroke-linecap="round" stroke-linejoin="round" stroke-miterlimit="10" d="
		M52.753,57.88c-2.409,3.419-3.823,7.589-3.823,12.09c0,11.603,9.406,21.01,21.01,21.01s21.01-9.407,21.01-21.01
		c0-11.604-9.406-21.011-21.01-21.011c-4.448,0-8.573,1.383-11.969,3.74"/>
	<path fill="none" stroke="#646464" stroke-width="2" stroke-linecap="round" stroke-linejoin="round" stroke-miterlimit="10" d="
		M61.613,66.741c-0.389,1.001-0.602,2.09-0.602,3.229c0,4.93,3.996,8.927,8.928,8.927c4.93,0,8.927-3.997,8.927-8.927
		c0-4.931-3.997-8.928-8.927-8.928c-1.084,0-2.122,0.193-3.083,0.547"/>
	<g>
		
			<line fill="none" stroke="#646464" stroke-width="2" stroke-linecap="round" stroke-linejoin="round" stroke-miterlimit="10" x1="70" y1="69.97" x2="37.649" y2="37.619"/>
		
			<polygon fill="none" stroke="#646464" stroke-width="2" stroke-linecap="round" stroke-linejoin="round" stroke-miterlimit="10" points="
			1.061,16.655 12.497,12.467 37.649,37.619 26.213,41.808 		"/>
		
			<polygon fill="none" stroke="#646464" stroke-width="2" stroke-linecap="round" stroke-linejoin="round" stroke-miterlimit="10" points="
			16.686,1.03 12.497,12.467 37.649,37.619 41.838,26.184 		"/>
	</g>
</g>
</svg>
