<?xml version="1.0" encoding="utf-8"?>
<!-- Generator: Adobe Illustrator 16.0.0, SVG Export Plug-In . SVG Version: 6.00 Build 0)  -->
<!DOCTYPE svg PUBLIC "-//W3C//DTD SVG 1.1//EN" "http://www.w3.org/Graphics/SVG/1.1/DTD/svg11.dtd">
<svg version="1.1" id="Layer_1" xmlns="http://www.w3.org/2000/svg" xmlns:xlink="http://www.w3.org/1999/xlink" x="0px" y="0px"
	 width="128px" height="128px" viewBox="0 0 128 128" enable-background="new 0 0 128 128" xml:space="preserve">
<g>
	
		<circle fill="none" stroke="#646464" stroke-width="2" stroke-linecap="round" stroke-linejoin="round" stroke-miterlimit="10" cx="64" cy="64" r="62.958"/>
	
		<polygon fill="none" stroke="#646464" stroke-width="2" stroke-linecap="round" stroke-linejoin="round" stroke-miterlimit="10" points="
		48.641,84 39.147,54.733 64,36.652 88.853,54.746 79.359,84 	"/>
	
		<polyline fill="none" stroke="#646464" stroke-width="2" stroke-linecap="round" stroke-linejoin="round" stroke-miterlimit="10" points="
		44.743,123.957 48.79,120.137 36.254,102.07 13.763,94.695 11.926,99.392 	"/>
	
		<polyline fill="none" stroke="#646464" stroke-width="2" stroke-linecap="round" stroke-linejoin="round" stroke-miterlimit="10" points="
		38.794,121.458 41.677,118.737 32.749,105.871 16.73,100.619 15.423,103.963 	"/>
	
		<polyline fill="none" stroke="#646464" stroke-width="2" stroke-linecap="round" stroke-linejoin="round" stroke-miterlimit="10" points="
		88.239,121.458 85.356,118.737 94.284,105.871 110.303,100.619 111.61,103.963 	"/>
	
		<polyline fill="none" stroke="#646464" stroke-width="2" stroke-linecap="round" stroke-linejoin="round" stroke-miterlimit="10" points="
		126.739,59.065 123.229,60.905 113.969,48.276 114.216,31.421 117.804,31.272 	"/>
	
		<polyline fill="none" stroke="#646464" stroke-width="2" stroke-linecap="round" stroke-linejoin="round" stroke-miterlimit="10" points="
		1.57,59.065 5.081,60.905 14.341,48.276 14.095,31.421 10.507,31.272 	"/>
	
		<polyline fill="none" stroke="#646464" stroke-width="2" stroke-linecap="round" stroke-linejoin="round" stroke-miterlimit="10" points="
		1.172,64.767 6.067,67.412 19.295,49.845 19.247,26.175 14.212,25.902 	"/>
	
		<polyline fill="none" stroke="#646464" stroke-width="2" stroke-linecap="round" stroke-linejoin="round" stroke-miterlimit="10" points="
		126.958,64.767 122.062,67.412 108.835,49.845 108.883,26.175 113.918,25.902 	"/>
	
		<polyline fill="none" stroke="#646464" stroke-width="2" stroke-linecap="round" stroke-linejoin="round" stroke-miterlimit="10" points="
		83.856,4.579 84.831,10.058 64,17.102 41.542,9.627 42.864,4.761 	"/>
	
		<polyline fill="none" stroke="#646464" stroke-width="2" stroke-linecap="round" stroke-linejoin="round" stroke-miterlimit="10" points="
		82.12,123.957 78.073,120.137 90.609,102.07 113.101,94.695 114.938,99.392 	"/>
	
		<line fill="none" stroke="#646464" stroke-width="2" stroke-linecap="round" stroke-linejoin="round" stroke-miterlimit="10" x1="64" y1="37" x2="64" y2="17"/>
	
		<line fill="none" stroke="#646464" stroke-width="2" stroke-linecap="round" stroke-linejoin="round" stroke-miterlimit="10" x1="39.147" y1="54.683" x2="19.295" y2="49.845"/>
	
		<line fill="none" stroke="#646464" stroke-width="2" stroke-linecap="round" stroke-linejoin="round" stroke-miterlimit="10" x1="6.067" y1="67.412" x2="13.763" y2="94.695"/>
	
		<line fill="none" stroke="#646464" stroke-width="2" stroke-linecap="round" stroke-linejoin="round" stroke-miterlimit="10" x1="36.254" y1="102.07" x2="48.641" y2="83.898"/>
	
		<line fill="none" stroke="#646464" stroke-width="2" stroke-linecap="round" stroke-linejoin="round" stroke-miterlimit="10" x1="79.359" y1="83.898" x2="90.609" y2="102.07"/>
	
		<line fill="none" stroke="#646464" stroke-width="2" stroke-linecap="round" stroke-linejoin="round" stroke-miterlimit="10" x1="78" y1="120" x2="49" y2="120"/>
	
		<line fill="none" stroke="#646464" stroke-width="2" stroke-linecap="round" stroke-linejoin="round" stroke-miterlimit="10" x1="88.853" y1="54.683" x2="108.835" y2="49.845"/>
	
		<line fill="none" stroke="#646464" stroke-width="2" stroke-linecap="round" stroke-linejoin="round" stroke-miterlimit="10" x1="122.062" y1="67.412" x2="113.101" y2="94.695"/>
	
		<line fill="none" stroke="#646464" stroke-width="2" stroke-linecap="round" stroke-linejoin="round" stroke-miterlimit="10" x1="108.883" y1="26.175" x2="84.831" y2="10.058"/>
	
		<line fill="none" stroke="#646464" stroke-width="2" stroke-linecap="round" stroke-linejoin="round" stroke-miterlimit="10" x1="41.542" y1="9.627" x2="19.247" y2="26.175"/>
	<path fill="none" stroke="#646464" stroke-width="2" stroke-linecap="round" stroke-linejoin="round" stroke-miterlimit="10" d="
		M74.675,50.562l8.299,6.082L75.727,79H52.273l-7.247-22.356L64,42.833 M64,42.808l2.471,1.795"/>
	
		<polyline fill="none" stroke="#646464" stroke-width="2" stroke-linecap="round" stroke-linejoin="round" stroke-miterlimit="10" points="
		78.704,3.246 79.331,6.768 63.793,12.021 47.042,6.447 47.888,3.332 	"/>
</g>
</svg>
