<?xml version="1.0" encoding="utf-8"?>
<!-- Generator: Adobe Illustrator 16.0.0, SVG Export Plug-In . SVG Version: 6.00 Build 0)  -->
<!DOCTYPE svg PUBLIC "-//W3C//DTD SVG 1.1//EN" "http://www.w3.org/Graphics/SVG/1.1/DTD/svg11.dtd">
<svg version="1.1" id="Layer_1" xmlns="http://www.w3.org/2000/svg" xmlns:xlink="http://www.w3.org/1999/xlink" x="0px" y="0px"
	 width="32px" height="32px" viewBox="0 0 32 32" enable-background="new 0 0 32 32" xml:space="preserve">
<g>
	
		<circle fill="none" stroke="#646464" stroke-width="1.995" stroke-linecap="round" stroke-linejoin="round" stroke-miterlimit="10" cx="16" cy="16.001" r="15"/>
	
		<polygon fill="none" stroke="#646464" stroke-width="2" stroke-linecap="round" stroke-linejoin="round" stroke-miterlimit="10" points="
		12.34,21 10.078,13.911 16,9.543 21.92,13.943 19.658,21 	"/>
	
		<polyline fill="none" stroke="#646464" stroke-width="1.995" stroke-linecap="round" stroke-linejoin="round" stroke-miterlimit="10" points="
		11.412,30.285 12.377,29.374 9.389,25.07 4.031,23.313 3.594,24.433 	"/>
	
		<polyline fill="none" stroke="#646464" stroke-width="1.995" stroke-linecap="round" stroke-linejoin="round" stroke-miterlimit="10" points="
		1.031,16.183 2.197,16.813 5.35,12.627 5.338,6.988 4.139,6.924 	"/>
	
		<polyline fill="none" stroke="#646464" stroke-width="1.995" stroke-linecap="round" stroke-linejoin="round" stroke-miterlimit="10" points="
		31,16.183 29.834,16.813 26.682,12.627 26.693,6.988 27.893,6.924 	"/>
	
		<polyline fill="none" stroke="#646464" stroke-width="1.995" stroke-linecap="round" stroke-linejoin="round" stroke-miterlimit="10" points="
		20.73,1.843 20.963,3.148 16,4.826 10.648,3.046 10.965,1.887 	"/>
	
		<polyline fill="none" stroke="#646464" stroke-width="1.995" stroke-linecap="round" stroke-linejoin="round" stroke-miterlimit="10" points="
		20.316,30.285 19.354,29.374 22.34,25.07 27.697,23.313 28.137,24.433 	"/>
	
		<line fill="none" stroke="#646464" stroke-width="2" stroke-linecap="round" stroke-linejoin="round" stroke-miterlimit="10" x1="16" y1="9" x2="16" y2="5"/>
	
		<line fill="none" stroke="#646464" stroke-width="1.995" stroke-linecap="round" stroke-linejoin="round" stroke-miterlimit="10" x1="10.078" y1="13.78" x2="5.35" y2="12.627"/>
	
		<line fill="none" stroke="#646464" stroke-width="1.995" stroke-linecap="round" stroke-linejoin="round" stroke-miterlimit="10" x1="2.197" y1="16.813" x2="4.031" y2="23.313"/>
	
		<line fill="none" stroke="#646464" stroke-width="1.995" stroke-linecap="round" stroke-linejoin="round" stroke-miterlimit="10" x1="9.389" y1="25.07" x2="12.34" y2="20.741"/>
	
		<line fill="none" stroke="#646464" stroke-width="1.995" stroke-linecap="round" stroke-linejoin="round" stroke-miterlimit="10" x1="19.658" y1="20.741" x2="22.34" y2="25.07"/>
	
		<line fill="none" stroke="#646464" stroke-width="2" stroke-linecap="round" stroke-linejoin="round" stroke-miterlimit="10" x1="19" y1="29" x2="12" y2="29"/>
	
		<line fill="none" stroke="#646464" stroke-width="1.995" stroke-linecap="round" stroke-linejoin="round" stroke-miterlimit="10" x1="21.92" y1="13.78" x2="26.682" y2="12.627"/>
	
		<line fill="none" stroke="#646464" stroke-width="1.995" stroke-linecap="round" stroke-linejoin="round" stroke-miterlimit="10" x1="29.834" y1="16.813" x2="27.697" y2="23.313"/>
	
		<line fill="none" stroke="#646464" stroke-width="1.995" stroke-linecap="round" stroke-linejoin="round" stroke-miterlimit="10" x1="26.693" y1="6.988" x2="20.963" y2="3.148"/>
	
		<line fill="none" stroke="#646464" stroke-width="1.995" stroke-linecap="round" stroke-linejoin="round" stroke-miterlimit="10" x1="10.648" y1="3.046" x2="5.338" y2="6.988"/>
</g>
</svg>
