<?xml version="1.0" encoding="utf-8"?>
<!-- Generator: Adobe Illustrator 16.0.0, SVG Export Plug-In . SVG Version: 6.00 Build 0)  -->
<!DOCTYPE svg PUBLIC "-//W3C//DTD SVG 1.1//EN" "http://www.w3.org/Graphics/SVG/1.1/DTD/svg11.dtd">
<svg version="1.1" id="Layer_1" xmlns="http://www.w3.org/2000/svg" xmlns:xlink="http://www.w3.org/1999/xlink" x="0px" y="0px"
	 width="32.001px" height="32px" viewBox="0 0 32.001 32" enable-background="new 0 0 32.001 32" xml:space="preserve">
<g>
	<path fill="none" stroke="#646464" stroke-width="2" stroke-linecap="round" stroke-linejoin="round" stroke-miterlimit="10" d="
		M6.982,11.099c-1.26,2.006-1.984,4.38-1.979,6.924c0.018,7.173,5.848,12.973,13.02,12.955s12.973-5.847,12.955-13.019
		c-0.018-7.173-5.846-12.973-13.02-12.955c-2.557,0.006-4.938,0.751-6.943,2.03"/>
	<path fill="none" stroke="#646464" stroke-width="2" stroke-linecap="round" stroke-linejoin="round" stroke-miterlimit="10" d="
		M10.572,15.041c-0.365,0.919-0.566,1.921-0.562,2.969c0.01,4.409,3.592,7.974,8.002,7.963c4.408-0.011,7.973-3.593,7.963-8.002
		c-0.012-4.408-3.594-7.974-8.002-7.963c-1.068,0.003-2.086,0.215-3.016,0.597"/>
	<path fill="none" stroke="#646464" stroke-width="2" stroke-linecap="round" stroke-linejoin="round" stroke-miterlimit="10" d="
		M15.195,18.976c0.395,1.178,1.508,2.025,2.818,2.022c1.635-0.004,2.959-1.333,2.955-2.97c-0.004-1.301-0.844-2.403-2.012-2.799"/>
	<g>
		
			<line fill="none" stroke="#646464" stroke-width="2" stroke-linecap="round" stroke-linejoin="round" stroke-miterlimit="10" x1="17.939" y1="17.938" x2="10.02" y2="10.019"/>
		
			<polygon fill="none" stroke="#646464" stroke-width="2" stroke-linecap="round" stroke-linejoin="round" stroke-miterlimit="10" points="
			1.023,4.923 3.861,3.86 10.02,10.019 7.182,11.081 		"/>
		
			<polygon fill="none" stroke="#646464" stroke-width="2" stroke-linecap="round" stroke-linejoin="round" stroke-miterlimit="10" points="
			4.924,1.022 3.861,3.86 10.02,10.019 11.082,7.181 		"/>
	</g>
</g>
</svg>
