<?xml version="1.0" encoding="utf-8"?>
<!-- Generator: Adobe Illustrator 16.0.0, SVG Export Plug-In . SVG Version: 6.00 Build 0)  -->
<!DOCTYPE svg PUBLIC "-//W3C//DTD SVG 1.1//EN" "http://www.w3.org/Graphics/SVG/1.1/DTD/svg11.dtd">
<svg version="1.1" id="Layer_1" xmlns="http://www.w3.org/2000/svg" xmlns:xlink="http://www.w3.org/1999/xlink" x="0px" y="0px"
	 width="32px" height="32px" viewBox="0 0 32 32" enable-background="new 0 0 32 32" xml:space="preserve">
<g>
	<path fill="none" stroke="#646464" stroke-width="2" stroke-linecap="round" stroke-linejoin="round" stroke-miterlimit="10" d="
		M21.071,23.972c0.488,3.16-3.004,6.019-7.888,3.309c-3.562-1.978-6.222-1.645-7.758-1.225c-2.703-2.34-4.414-5.797-4.414-9.653
		c0-7.05,5.716-12.765,12.766-12.765c6.199,0,11.365,4.418,12.521,10.277C18.742,13.915,20.679,21.433,21.071,23.972z"/>
	<path fill="none" stroke="#646464" stroke-width="2" stroke-linecap="round" stroke-linejoin="round" stroke-miterlimit="10" d="
		M22.991,20h8v7c0,0-2.117,0-3.135,0s-3.054-1-3.944-3.668c-0.891-2.67-3.225-10.196-3.225-10.196"/>
	<path fill="none" stroke="#646464" stroke-width="2" stroke-linecap="round" stroke-linejoin="round" stroke-miterlimit="10" d="
		M26.64,10.044l-7.774,3.89c0,0-1.026,0.697-1.505,1.963L15.25,23h15.741"/>
	
		<line fill="none" stroke="#646464" stroke-width="2" stroke-linecap="round" stroke-linejoin="round" stroke-miterlimit="10" x1="17.168" y1="17.411" x2="23.122" y2="21.142"/>
	
		<circle fill="none" stroke="#646464" stroke-width="2" stroke-linecap="round" stroke-linejoin="round" stroke-miterlimit="10" cx="11.038" cy="21.575" r="1.989"/>
</g>
</svg>
