<?xml version="1.0" encoding="utf-8"?>
<!-- Generator: Adobe Illustrator 16.0.0, SVG Export Plug-In . SVG Version: 6.00 Build 0)  -->
<!DOCTYPE svg PUBLIC "-//W3C//DTD SVG 1.1//EN" "http://www.w3.org/Graphics/SVG/1.1/DTD/svg11.dtd">
<svg version="1.1" id="Layer_1" xmlns="http://www.w3.org/2000/svg" xmlns:xlink="http://www.w3.org/1999/xlink" x="0px" y="0px"
	 width="32px" height="32px" viewBox="0 0 32 32" enable-background="new 0 0 32 32" xml:space="preserve">
<g>
	
		<path fill="none" stroke="#646464" stroke-width="1.9997" stroke-linecap="round" stroke-linejoin="round" stroke-miterlimit="10" d="
		M29.305,29.305c3.342-3.341,1.859-13.774-5.488-21.122C16.469,0.835,6.035-0.646,2.695,2.695
		c-3.342,3.341-1.861,13.773,5.488,21.122C15.531,31.165,25.965,32.646,29.305,29.305z"/>
	
		<line fill="none" stroke="#646464" stroke-width="1.9997" stroke-linecap="round" stroke-linejoin="round" stroke-miterlimit="10" x1="6.924" y1="6.923" x2="25.051" y2="25.05"/>
	
		<line fill="none" stroke="#646464" stroke-width="1.9997" stroke-linecap="round" stroke-linejoin="round" stroke-miterlimit="10" x1="8.029" y1="10.932" x2="10.932" y2="8.029"/>
	
		<line fill="none" stroke="#646464" stroke-width="1.9997" stroke-linecap="round" stroke-linejoin="round" stroke-miterlimit="10" x1="11.41" y1="14.313" x2="14.312" y2="11.41"/>
	
		<line fill="none" stroke="#646464" stroke-width="1.9997" stroke-linecap="round" stroke-linejoin="round" stroke-miterlimit="10" x1="14.812" y1="17.715" x2="17.715" y2="14.812"/>
	
		<line fill="none" stroke="#646464" stroke-width="1.9997" stroke-linecap="round" stroke-linejoin="round" stroke-miterlimit="10" x1="18.193" y1="21.096" x2="21.096" y2="18.193"/>
	
		<line fill="none" stroke="#646464" stroke-width="1.9997" stroke-linecap="round" stroke-linejoin="round" stroke-miterlimit="10" x1="21.574" y1="24.477" x2="24.477" y2="21.574"/>
	
		<line fill="none" stroke="#646464" stroke-width="1.9997" stroke-linecap="round" stroke-linejoin="round" stroke-miterlimit="10" x1="6.924" y1="6.923" x2="25.051" y2="25.05"/>
	
		<line fill="none" stroke="#646464" stroke-width="1.9997" stroke-linecap="round" stroke-linejoin="round" stroke-miterlimit="10" x1="8.029" y1="10.932" x2="10.932" y2="8.029"/>
	
		<line fill="none" stroke="#646464" stroke-width="1.9997" stroke-linecap="round" stroke-linejoin="round" stroke-miterlimit="10" x1="11.41" y1="14.313" x2="14.312" y2="11.41"/>
	
		<line fill="none" stroke="#646464" stroke-width="1.9997" stroke-linecap="round" stroke-linejoin="round" stroke-miterlimit="10" x1="14.812" y1="17.715" x2="17.715" y2="14.812"/>
	
		<line fill="none" stroke="#646464" stroke-width="1.9997" stroke-linecap="round" stroke-linejoin="round" stroke-miterlimit="10" x1="18.193" y1="21.096" x2="21.096" y2="18.193"/>
	
		<line fill="none" stroke="#646464" stroke-width="1.9997" stroke-linecap="round" stroke-linejoin="round" stroke-miterlimit="10" x1="21.574" y1="24.477" x2="24.477" y2="21.574"/>
</g>
</svg>
