<?xml version="1.0" encoding="utf-8"?>
<!-- Generator: Adobe Illustrator 16.0.0, SVG Export Plug-In . SVG Version: 6.00 Build 0)  -->
<!DOCTYPE svg PUBLIC "-//W3C//DTD SVG 1.1//EN" "http://www.w3.org/Graphics/SVG/1.1/DTD/svg11.dtd">
<svg version="1.1" id="Layer_1" xmlns="http://www.w3.org/2000/svg" xmlns:xlink="http://www.w3.org/1999/xlink" x="0px" y="0px"
	 width="32px" height="32px" viewBox="0 0 32 32" enable-background="new 0 0 32 32" xml:space="preserve">
<g>
	<path fill="none" stroke="#646464" stroke-width="2" stroke-linecap="round" stroke-linejoin="round" stroke-miterlimit="10" d="
		M29.028,12h-3.436C24.549,12,24,12.815,24,13.812v0.031c-5-0.792-11-0.79-16,0.005v0.046C8,12.898,7.461,12,6.417,12H2.97
		C1.927,12,1,12.898,1,13.894v4.312C1,19.201,1.927,20,2.97,20h3.447C7.461,20,8,19.201,8,18.205v-0.127c5,0.795,11,0.797,16,0.005
		v0.122C24,19.201,24.549,20,25.592,20h3.436C30.071,20,31,19.201,31,18.205v-4.394C31,12.815,30.071,12,29.028,12z"/>
	
		<line fill="none" stroke="#646464" stroke-width="2" stroke-linecap="round" stroke-linejoin="round" stroke-miterlimit="10" x1="8" y1="18" x2="8" y2="14"/>
	
		<line fill="none" stroke="#646464" stroke-width="2" stroke-linecap="round" stroke-linejoin="round" stroke-miterlimit="10" x1="24" y1="18" x2="24" y2="14"/>
</g>
</svg>
