<?xml version="1.0" encoding="utf-8"?>
<!-- Generator: Adobe Illustrator 16.0.0, SVG Export Plug-In . SVG Version: 6.00 Build 0)  -->
<!DOCTYPE svg PUBLIC "-//W3C//DTD SVG 1.1//EN" "http://www.w3.org/Graphics/SVG/1.1/DTD/svg11.dtd">
<svg version="1.1" id="Layer_1" xmlns="http://www.w3.org/2000/svg" xmlns:xlink="http://www.w3.org/1999/xlink" x="0px" y="0px"
	 width="32.001px" height="32px" viewBox="0 0 32.001 32" enable-background="new 0 0 32.001 32" xml:space="preserve">
<g>
	
		<circle fill="none" stroke="#646464" stroke-width="1.9914" stroke-linecap="round" stroke-linejoin="round" stroke-miterlimit="10" cx="16" cy="16" r="15"/>
	
		<path fill="none" stroke="#646464" stroke-width="1.9914" stroke-linecap="round" stroke-linejoin="round" stroke-miterlimit="10" d="
		M26.092,4.902c-5.441,6.068-5.481,16.176-0.119,22.302"/>
	
		<path fill="none" stroke="#646464" stroke-width="1.9914" stroke-linecap="round" stroke-linejoin="round" stroke-miterlimit="10" d="
		M21.292,15.923c0.46,0.006,0.919,0.012,1.379,0.017"/>
	
		<path fill="none" stroke="#646464" stroke-width="1.9914" stroke-linecap="round" stroke-linejoin="round" stroke-miterlimit="10" d="
		M21.92,11.294c0.442,0.131,0.885,0.262,1.328,0.393"/>
	
		<path fill="none" stroke="#646464" stroke-width="1.9914" stroke-linecap="round" stroke-linejoin="round" stroke-miterlimit="10" d="
		M23.703,6.996c0.395,0.247,0.789,0.494,1.184,0.741"/>
	
		<path fill="none" stroke="#646464" stroke-width="1.9914" stroke-linecap="round" stroke-linejoin="round" stroke-miterlimit="10" d="
		M23.509,24.903c0.399-0.237,0.8-0.477,1.198-0.714"/>
	
		<path fill="none" stroke="#646464" stroke-width="1.9914" stroke-linecap="round" stroke-linejoin="round" stroke-miterlimit="10" d="
		M21.822,20.566c0.445-0.121,0.891-0.242,1.336-0.361"/>
	
		<path fill="none" stroke="#646464" stroke-width="1.9914" stroke-linecap="round" stroke-linejoin="round" stroke-miterlimit="10" d="
		M5.932,4.882c5.465,6.074,5.505,16.211,0.119,22.343"/>
	
		<path fill="none" stroke="#646464" stroke-width="1.9914" stroke-linecap="round" stroke-linejoin="round" stroke-miterlimit="10" d="
		M10.749,15.923c-0.46,0.006-0.919,0.012-1.38,0.017"/>
	
		<path fill="none" stroke="#646464" stroke-width="1.9914" stroke-linecap="round" stroke-linejoin="round" stroke-miterlimit="10" d="
		M10.121,11.294c-0.441,0.131-0.885,0.262-1.328,0.393"/>
	
		<path fill="none" stroke="#646464" stroke-width="1.9914" stroke-linecap="round" stroke-linejoin="round" stroke-miterlimit="10" d="
		M8.337,6.996C7.943,7.243,7.549,7.49,7.154,7.737"/>
	
		<path fill="none" stroke="#646464" stroke-width="1.9914" stroke-linecap="round" stroke-linejoin="round" stroke-miterlimit="10" d="
		M8.533,24.903c-0.4-0.237-0.8-0.477-1.2-0.714"/>
	
		<path fill="none" stroke="#646464" stroke-width="1.9914" stroke-linecap="round" stroke-linejoin="round" stroke-miterlimit="10" d="
		M10.219,20.566c-0.445-0.121-0.891-0.242-1.336-0.361"/>
</g>
</svg>
