<?xml version="1.0" encoding="utf-8"?>
<!-- Generator: Adobe Illustrator 16.0.0, SVG Export Plug-In . SVG Version: 6.00 Build 0)  -->
<!DOCTYPE svg PUBLIC "-//W3C//DTD SVG 1.1//EN" "http://www.w3.org/Graphics/SVG/1.1/DTD/svg11.dtd">
<svg version="1.1" id="Layer_1" xmlns="http://www.w3.org/2000/svg" xmlns:xlink="http://www.w3.org/1999/xlink" x="0px" y="0px"
	 width="32.001px" height="32px" viewBox="0 0 32.001 32" enable-background="new 0 0 32.001 32" xml:space="preserve">
<g>
	<path fill="none" stroke="#646464" stroke-width="2" stroke-linecap="round" stroke-linejoin="round" stroke-miterlimit="10" d="
		M25.816,18h-1.696c-3.595,0-10.483-7.257-10.483-7.257l-1.455-7.091L3.998,5.488v8.604c-1,0.658-1,1.507-1,2.443v4.856
		c0,1.15,0.523,1.607,1.713,1.607h3.752h0.292h18.238c1.029,0,2.004-0.563,2.004-1.592v-0.511C28.998,19.687,27.879,18,25.816,18z"
		/>
	<path fill="none" stroke="#646464" stroke-width="2" stroke-linecap="round" stroke-linejoin="round" stroke-miterlimit="10" d="
		M0.998,28h26.52c1.927,0,3.463-1.567,3.463-3.494"/>
	
		<line fill="none" stroke="#646464" stroke-width="2" stroke-linecap="round" stroke-linejoin="round" stroke-miterlimit="10" x1="6.998" y1="28" x2="6.998" y2="24"/>
	
		<line fill="none" stroke="#646464" stroke-width="2" stroke-linecap="round" stroke-linejoin="round" stroke-miterlimit="10" x1="20.998" y1="28" x2="20.998" y2="24"/>
</g>
</svg>
