<?xml version="1.0" encoding="utf-8"?>
<!-- Generator: Adobe Illustrator 16.0.0, SVG Export Plug-In . SVG Version: 6.00 Build 0)  -->
<!DOCTYPE svg PUBLIC "-//W3C//DTD SVG 1.1//EN" "http://www.w3.org/Graphics/SVG/1.1/DTD/svg11.dtd">
<svg version="1.1" id="Layer_1" xmlns="http://www.w3.org/2000/svg" xmlns:xlink="http://www.w3.org/1999/xlink" x="0px" y="0px"
	 width="32px" height="32px" viewBox="0 0 32 32" enable-background="new 0 0 32 32" xml:space="preserve">
<g>
	
		<path fill="none" stroke="#646464" stroke-width="1.9962" stroke-linecap="round" stroke-linejoin="round" stroke-miterlimit="10" d="
		M8.956,24.78c4.139,2.183,8.888,1.888,12.597-0.995l6.195,6.905l0.016-0.016c0.567,0.567,1.678,0.375,2.482-0.429
		s0.995-1.915,0.428-2.481l0.016-0.016l-6.906-6.194c3.733-4.804,3.127-11.351-1.58-16.058C17.095,0.387,8.852-0.74,4.056,4.056
		c-4.159,4.159-3.864,10.91-0.38,15.962"/>
	
		<line fill="none" stroke="#646464" stroke-width="1.9962" stroke-linecap="round" stroke-linejoin="round" stroke-miterlimit="10" x1="13.326" y1="26.01" x2="25.984" y2="13.351"/>
	
		<path fill="none" stroke="#646464" stroke-width="1.9962" stroke-linecap="round" stroke-linejoin="round" stroke-miterlimit="10" d="
		M11.971,20.918c0,2.199-1.782,3.98-3.979,3.98c-2.198,0-3.98-1.782-3.98-3.98c0-0.25,0.023-0.495,0.067-0.733
		c0.345-1.848,1.965-3.246,3.913-3.246C10.189,16.939,11.971,18.72,11.971,20.918z"/>
	
		<line fill="none" stroke="#646464" stroke-width="1.9962" stroke-linecap="round" stroke-linejoin="round" stroke-miterlimit="10" x1="20.806" y1="24.316" x2="24.297" y2="20.825"/>
</g>
</svg>
