<?xml version="1.0" encoding="utf-8"?>
<!-- Generator: Adobe Illustrator 16.0.0, SVG Export Plug-In . SVG Version: 6.00 Build 0)  -->
<!DOCTYPE svg PUBLIC "-//W3C//DTD SVG 1.1//EN" "http://www.w3.org/Graphics/SVG/1.1/DTD/svg11.dtd">
<svg version="1.1" id="Layer_1" xmlns="http://www.w3.org/2000/svg" xmlns:xlink="http://www.w3.org/1999/xlink" x="0px" y="0px"
	 width="32.001px" height="32px" viewBox="0 0 32.001 32" enable-background="new 0 0 32.001 32" xml:space="preserve">
<g>
	
		<path fill="none" stroke="#646464" stroke-width="1.9973" stroke-linecap="round" stroke-linejoin="round" stroke-miterlimit="10" d="
		M27.712,23.099c1.264,1.264,1.254,3.322-0.023,4.6c-1.275,1.276-3.334,1.286-4.598,0.022"/>
	
		<path fill="none" stroke="#646464" stroke-width="1.9973" stroke-linecap="round" stroke-linejoin="round" stroke-miterlimit="10" d="
		M24.601,21.746l-3.047,3.047c-0.382,0.382-0.385,1.007-0.006,1.385l1.464,1.465"/>
	
		<path fill="none" stroke="#646464" stroke-width="1.9973" stroke-linecap="round" stroke-linejoin="round" stroke-miterlimit="10" d="
		M27.634,23.021l-1.465-1.465c-0.379-0.379-1.002-0.375-1.385,0.008l-0.184,0.183"/>
	
		<line fill="none" stroke="#646464" stroke-width="1.9973" stroke-linecap="round" stroke-linejoin="round" stroke-miterlimit="10" x1="27.688" y1="27.698" x2="30.991" y2="31"/>
	
		<line fill="none" stroke="#646464" stroke-width="1.9973" stroke-linecap="round" stroke-linejoin="round" stroke-miterlimit="10" x1="21.509" y1="24.747" x2="13.126" y2="13.135"/>
	
		<line fill="none" stroke="#646464" stroke-width="1.9973" stroke-linecap="round" stroke-linejoin="round" stroke-miterlimit="10" x1="24.755" y1="21.519" x2="13.135" y2="13.127"/>
	
		<line fill="none" stroke="#646464" stroke-width="1.9973" stroke-linecap="round" stroke-linejoin="round" stroke-miterlimit="10" x1="13.126" y1="13.135" x2="6.987" y2="6.996"/>
	
		<polyline fill="none" stroke="#646464" stroke-width="2" stroke-linecap="round" stroke-linejoin="round" stroke-miterlimit="10" points="
		6.993,7 4.163,7 1.009,10.148 13.125,13.144 	"/>
	
		<polyline fill="none" stroke="#646464" stroke-width="2" stroke-linecap="round" stroke-linejoin="round" stroke-miterlimit="10" points="
		6.993,7 6.993,4.154 10.147,1 13.142,13.124 	"/>
</g>
</svg>
