<?xml version="1.0" encoding="utf-8"?>
<!-- Generator: Adobe Illustrator 16.0.0, SVG Export Plug-In . SVG Version: 6.00 Build 0)  -->
<!DOCTYPE svg PUBLIC "-//W3C//DTD SVG 1.1//EN" "http://www.w3.org/Graphics/SVG/1.1/DTD/svg11.dtd">
<svg version="1.1" id="Layer_1" xmlns="http://www.w3.org/2000/svg" xmlns:xlink="http://www.w3.org/1999/xlink" x="0px" y="0px"
	 width="32px" height="32px" viewBox="0 0 32 32" enable-background="new 0 0 32 32" xml:space="preserve">
<g>
	<path fill="none" stroke="#646464" stroke-width="2" stroke-linecap="round" stroke-linejoin="round" stroke-miterlimit="10" d="
		M22.937,10.559L23,4.599C23,2.625,21.804,1,19.83,1h-7.661C10.195,1,9,2.625,9,4.599l0.037,5.96c-4,2.399-6.224,6.761-6.224,11.416
		C2.812,25.479,3.958,29,6.161,31h19.678c2.203-2,3.348-5.521,3.348-9.025C29.187,17.319,26.937,12.958,22.937,10.559z"/>
	<path fill="none" stroke="#646464" stroke-width="2" stroke-linecap="round" stroke-linejoin="round" stroke-miterlimit="10" d="
		M9.036,10.559c2.029-1.237,4.413-1.95,6.963-1.95c2.5,0,4.935,0.758,6.938,1.95"/>
</g>
</svg>
