<?xml version="1.0" encoding="utf-8"?>
<!-- Generator: Adobe Illustrator 16.0.0, SVG Export Plug-In . SVG Version: 6.00 Build 0)  -->
<!DOCTYPE svg PUBLIC "-//W3C//DTD SVG 1.1//EN" "http://www.w3.org/Graphics/SVG/1.1/DTD/svg11.dtd">
<svg version="1.1" id="Layer_1" xmlns="http://www.w3.org/2000/svg" xmlns:xlink="http://www.w3.org/1999/xlink" x="0px" y="0px"
	 width="32.001px" height="32px" viewBox="0 0 32.001 32" enable-background="new 0 0 32.001 32" xml:space="preserve">
<g>
	<path fill="none" stroke="#646464" stroke-width="2" stroke-linecap="round" stroke-linejoin="round" stroke-miterlimit="10" d="
		M18.284,26h-7.195c0,3,2.199,4.91,4.911,4.91S20.91,29,20.91,26h-0.438H18.284z"/>
	<path fill="none" stroke="#646464" stroke-width="2" stroke-linecap="round" stroke-linejoin="round" stroke-miterlimit="10" d="
		M28.922,1.262C28.829,1.136,28.685,1,28.53,1h-6.044H9.514H3.47C3.315,1,3.171,1.136,3.077,1.262
		c-0.092,0.125-0.122,0.319-0.08,0.472L9.87,25.608C9.93,25.825,10.122,26,10.343,26h2.729h5.857h2.729
		c0.221,0,0.413-0.159,0.473-0.375l6.873-23.887C29.045,1.585,29.015,1.387,28.922,1.262z"/>
	
		<line fill="none" stroke="#646464" stroke-width="2" stroke-linecap="round" stroke-linejoin="round" stroke-miterlimit="10" x1="15.993" y1="26" x2="15.993" y2="1"/>
	<path fill="none" stroke="#646464" stroke-width="2" stroke-linecap="round" stroke-linejoin="round" stroke-miterlimit="10" d="
		M22.97,1.262C22.919,1.136,22.841,1,22.759,1h-3.261h-6.997h-3.26C9.159,1,9.081,1.136,9.03,1.262
		C8.98,1.387,8.964,1.582,8.987,1.734l3.707,23.875C12.726,25.825,12.83,26,12.948,26h1.473h3.158h1.473
		c0.118,0,0.223-0.159,0.254-0.375l3.707-23.887C23.036,1.585,23.02,1.387,22.97,1.262z"/>
</g>
</svg>
