<?xml version="1.0" encoding="utf-8"?>
<!-- Generator: Adobe Illustrator 16.0.0, SVG Export Plug-In . SVG Version: 6.00 Build 0)  -->
<!DOCTYPE svg PUBLIC "-//W3C//DTD SVG 1.1//EN" "http://www.w3.org/Graphics/SVG/1.1/DTD/svg11.dtd">
<svg version="1.1" id="Layer_1" xmlns="http://www.w3.org/2000/svg" xmlns:xlink="http://www.w3.org/1999/xlink" x="0px" y="0px"
	 width="32px" height="32px" viewBox="0 0 32 32" enable-background="new 0 0 32 32" xml:space="preserve">
<g>
	
		<path fill="none" stroke="#646464" stroke-width="1.9784" stroke-linecap="round" stroke-linejoin="round" stroke-miterlimit="10" d="
		M10.119,13.162c0,1.616-1.31,2.926-2.926,2.926c-1.616,0-2.926-1.31-2.926-2.926c0-0.184,0.018-0.364,0.05-0.539
		c0.253-1.359,1.444-2.387,2.876-2.387C8.809,10.236,10.119,11.546,10.119,13.162z"/>
	<g>
		
			<path fill="none" stroke="#646464" stroke-width="1.9784" stroke-linecap="round" stroke-linejoin="round" stroke-miterlimit="10" d="
			M6.299,10.378L1.478,5.557C0.744,4.823,0.87,3.498,1.756,2.61l0.795-0.794c0.887-0.887,2.213-1.013,2.946-0.279l9.168,9.169
			c0.734,0.734,1.797,2.051,2.364,2.929l0.833,1.291c0.567,0.877,1.43,2.396,2.164,3.13l9.837,9.837"/>
		
			<path fill="none" stroke="#646464" stroke-width="1.9784" stroke-linecap="round" stroke-linejoin="round" stroke-miterlimit="10" d="
			M27.833,29.924l-9.837-9.837c-0.733-0.734-2.252-1.597-3.13-2.164l-1.291-0.834c-0.877-0.566-2.195-1.63-2.929-2.363l-0.527-0.527
			"/>
		
			<line fill="none" stroke="#646464" stroke-width="1.9784" stroke-linecap="round" stroke-linejoin="round" stroke-miterlimit="10" x1="28.012" y1="30.941" x2="31" y2="27.953"/>
	</g>
	
		<line fill="none" stroke="#646464" stroke-width="1.9784" stroke-linecap="round" stroke-linejoin="round" stroke-miterlimit="10" x1="22.24" y1="23.757" x2="23.714" y2="22.283"/>
</g>
</svg>
