<?xml version="1.0" encoding="utf-8"?>
<!-- Generator: Adobe Illustrator 16.0.0, SVG Export Plug-In . SVG Version: 6.00 Build 0)  -->
<!DOCTYPE svg PUBLIC "-//W3C//DTD SVG 1.1//EN" "http://www.w3.org/Graphics/SVG/1.1/DTD/svg11.dtd">
<svg version="1.1" id="Layer_1" xmlns="http://www.w3.org/2000/svg" xmlns:xlink="http://www.w3.org/1999/xlink" x="0px" y="0px"
	 width="32px" height="32px" viewBox="0 0 32 32" enable-background="new 0 0 32 32" xml:space="preserve">
<g>
	<path fill="none" stroke="#646464" stroke-width="2" stroke-linecap="round" stroke-linejoin="round" stroke-miterlimit="10" d="
		M14.083,20.752c0,2.228-1.806,4.034-4.034,4.034c-2.228,0-4.034-1.806-4.034-4.034c0-0.254,0.023-0.502,0.068-0.744
		c0.349-1.873,1.992-3.29,3.965-3.29C12.276,16.718,14.083,18.524,14.083,20.752z"/>
	<path fill="none" stroke="#646464" stroke-width="2" stroke-linecap="round" stroke-linejoin="round" stroke-miterlimit="10" d="
		M5.92,20.941c-0.259-0.226-0.512-0.461-0.759-0.709c-4.9-4.9-5.502-12.243-1.345-16.4c4.158-4.158,11.5-3.555,16.4,1.345
		c4.9,4.9,5.502,12.243,1.345,16.4c-2.375,2.375-5.789,3.196-9.193,2.551"/>
	<path fill="none" stroke="#646464" stroke-width="2" stroke-linecap="round" stroke-linejoin="round" stroke-miterlimit="10" d="
		M30.612,28.56c0.447,0.447,0.447,1.178,0,1.625l-0.41,0.411c-0.447,0.447-1.179,0.447-1.625,0l-3.457-3.457
		c-0.447-0.447-0.447-1.178,0-1.625l0.411-0.411c0.447-0.447,1.178-0.447,1.625,0L30.612,28.56z"/>
	
		<line fill="none" stroke="#646464" stroke-width="2" stroke-linecap="round" stroke-linejoin="round" stroke-miterlimit="10" x1="25.13" y1="25.162" x2="21.554" y2="21.585"/>
	
		<line fill="none" stroke="#646464" stroke-width="2" stroke-linecap="round" stroke-linejoin="round" stroke-miterlimit="10" x1="12.119" y1="16.802" x2="21.801" y2="7.12"/>
	
		<line fill="none" stroke="#646464" stroke-width="2" stroke-linecap="round" stroke-linejoin="round" stroke-miterlimit="10" x1="5.309" y1="19.83" x2="7.119" y2="18.019"/>
	
		<line fill="none" stroke="#646464" stroke-width="2" stroke-linecap="round" stroke-linejoin="round" stroke-miterlimit="10" x1="14.592" y1="21.542" x2="23.888" y2="12.247"/>
	
		<line fill="none" stroke="#646464" stroke-width="2" stroke-linecap="round" stroke-linejoin="round" stroke-miterlimit="10" x1="3.988" y1="17.639" x2="17.614" y2="4.013"/>
	
		<line fill="none" stroke="#646464" stroke-width="2" stroke-linecap="round" stroke-linejoin="round" stroke-miterlimit="10" x1="1.429" y1="12.968" x2="12.943" y2="1.454"/>
	
		<line fill="none" stroke="#646464" stroke-width="2" stroke-linecap="round" stroke-linejoin="round" stroke-miterlimit="10" x1="3.879" y1="3.91" x2="21.483" y2="21.515"/>
	
		<line fill="none" stroke="#646464" stroke-width="2" stroke-linecap="round" stroke-linejoin="round" stroke-miterlimit="10" x1="1.429" y1="8.937" x2="9.128" y2="16.635"/>
	
		<line fill="none" stroke="#646464" stroke-width="2" stroke-linecap="round" stroke-linejoin="round" stroke-miterlimit="10" x1="14.083" y1="21.589" x2="16.191" y2="23.698"/>
	
		<line fill="none" stroke="#646464" stroke-width="2" stroke-linecap="round" stroke-linejoin="round" stroke-miterlimit="10" x1="8.758" y1="1.258" x2="24.135" y2="16.635"/>
</g>
</svg>
