<?xml version="1.0" encoding="utf-8"?>
<!-- Generator: Adobe Illustrator 16.0.0, SVG Export Plug-In . SVG Version: 6.00 Build 0)  -->
<!DOCTYPE svg PUBLIC "-//W3C//DTD SVG 1.1//EN" "http://www.w3.org/Graphics/SVG/1.1/DTD/svg11.dtd">
<svg version="1.1" id="Layer_1" xmlns="http://www.w3.org/2000/svg" xmlns:xlink="http://www.w3.org/1999/xlink" x="0px" y="0px"
	 width="128px" height="128px" viewBox="0 0 128 128" enable-background="new 0 0 128 128" xml:space="preserve">
<g>
	<path fill="#33A5D2" d="M81.409,18.722C60.981-1.706,30.287-4.25,12.984,13.052c-17.302,17.302-14.758,47.998,5.67,68.425
		c0.893,0.893,1.817,1.752,2.748,2.577c0-0.011-0.002-0.022-0.002-0.033c0-1.082,0.1-2.167,0.297-3.226
		c0.085-0.457,0.194-0.904,0.313-1.347c-0.224-0.217-0.448-0.435-0.671-0.657C7.221,64.672,2.256,45.338,7.241,29.863
		c0.003-0.008,0.004-0.017,0.007-0.024c1.689-5.23,4.512-10.02,8.507-14.015c4.026-4.025,8.858-6.858,14.134-8.542
		c0.017-0.007,0.035-0.01,0.053-0.016c15.249-4.844,34.199-0.051,48.22,13.606c0.023,0.016,0.049,0.025,0.069,0.046
		c0.017,0.016,0.023,0.037,0.037,0.056c0.15,0.146,0.304,0.285,0.453,0.434c8.802,8.801,14.324,19.878,15.665,31.317
		c0.105,0.146,0.128,0.33,0.056,0.489c0.028,0.263,0.066,0.524,0.09,0.787c1.069,11.923-2.562,22.71-10.227,30.374
		c-3.936,3.936-8.677,6.796-13.963,8.514c-0.042,0.021-0.084,0.032-0.129,0.041c-3.812,1.223-7.903,1.859-12.187,1.859
		c-1.604,0-3.236-0.094-4.889-0.271c-0.062,0.027-0.128,0.042-0.195,0.042c-0.029,0-0.057-0.012-0.085-0.017
		c-0.952,1.259-2.065,2.384-3.316,3.346c14.504,2.529,28.148-1.354,37.533-10.738l0.008-0.007
		C104.379,69.84,101.834,39.148,81.409,18.722z"/>
	<polygon fill="#CC0000" points="36.752,59.783 37.365,61.077 37.706,60.736 	"/>
	<path fill="#CC0000" d="M22.383,77.474l-0.421,0.421c-0.018,0.018-0.04,0.025-0.06,0.04c0.049,0.049,0.094,0.101,0.144,0.15
		c0.099,0.099,0.2,0.195,0.3,0.293c0.034-0.1,0.063-0.202,0.099-0.301c0.137-0.38,0.292-0.75,0.453-1.117L22.383,77.474z"/>
	<path fill="#CDEEF9" d="M103.806,102.009c0.479-0.479,1.039-0.848,1.644-1.111L90.095,85.543L87.79,87.85
		c-0.001,0.001-0.003,0.002-0.004,0.004c-0.002,0.001-0.003,0.003-0.005,0.004l-2.131,2.131l15.345,15.344
		c0.258-0.576,0.608-1.121,1.081-1.594L103.806,102.009z"/>
	<polygon fill="#CC0000" points="87.79,87.85 87.781,87.858 87.786,87.854 	"/>
	<path fill="#2884A9" d="M125.23,117.288l-14.572-14.572c-0.816-0.817-1.907-1.267-3.072-1.267c-0.356,0-0.701,0.056-1.038,0.138
		c-0.426,0.104-0.829,0.27-1.202,0.495c-0.297,0.18-0.581,0.383-0.832,0.634l-1.73,1.73c-0.255,0.255-0.459,0.54-0.637,0.835
		c-0.228,0.378-0.391,0.782-0.493,1.2c-0.349,1.428,0.018,2.996,1.13,4.109l14.572,14.572c0.817,0.817,1.908,1.267,3.072,1.267
		s2.255-0.45,3.072-1.267l1.73-1.73c0.817-0.817,1.268-1.908,1.268-3.072S126.047,118.105,125.23,117.288z"/>
	<path fill="#F0C960" d="M52.572,93.2c-2.104,0.866-4.376,1.325-6.669,1.325c-9.651,0-17.503-7.852-17.503-17.503
		c0-1.082,0.1-2.167,0.297-3.226c0.224-1.203,0.583-2.371,1.051-3.495c-0.224,0.149-0.441,0.306-0.658,0.466l-0.15,0.15
		c-0.058,0.058-0.128,0.093-0.201,0.117c-3.075,2.404-5.3,5.879-6.058,9.946C22.494,81.977,22.4,83,22.4,84.021
		c0,0.429,0.032,0.851,0.064,1.272c0.654,8.505,7.769,15.23,16.439,15.23c3.307,0,6.383-0.987,8.968-2.669
		c1.863-1.212,3.473-2.78,4.716-4.621L52.572,93.2z"/>
	<path fill="#CC0000" d="M52.572,93.2l0.016,0.034c0.012-0.018,0.021-0.037,0.033-0.055C52.605,93.186,52.589,93.193,52.572,93.2z"
		/>
	<path fill="#CC0000" d="M29.09,70.766c-0.118,0.087-0.235,0.176-0.352,0.267c0.073-0.023,0.143-0.059,0.201-0.117L29.09,70.766z"/>
	<path fill="#CC0000" d="M50.636,72.438c0.003,0.003,0.008,0.004,0.011,0.007c-0.008-0.008-0.015-0.017-0.023-0.025
		C50.629,72.426,50.631,72.433,50.636,72.438z"/>
	<path fill="#EFDC81" d="M50.647,72.446c-0.003-0.003-0.008-0.004-0.011-0.007c-0.005-0.005-0.007-0.013-0.012-0.018
		c-2.651-2.679-6.21-4.453-10.173-4.824c-0.51-0.047-1.025-0.078-1.548-0.078c-2.734,0-5.328,0.683-7.624,1.88
		c-0.005,0.003-0.01,0.005-0.015,0.008c-0.75,1.438-1.287,2.975-1.584,4.573c-0.187,0.999-0.281,2.022-0.281,3.042
		c0,9.1,7.403,16.503,16.503,16.503c2.145,0,4.271-0.425,6.241-1.229c0.468-0.191,0.926-0.404,1.374-0.637
		c0.02-0.038,0.037-0.078,0.057-0.117c1.162-2.258,1.831-4.811,1.831-7.521C55.406,79.514,53.586,75.427,50.647,72.446z"/>
	<path fill="#CC0000" d="M31.272,69.391c-0.002,0.005-0.004,0.01-0.007,0.015c0.005-0.002,0.01-0.005,0.015-0.008L31.272,69.391z"/>
	<path fill="#CC0000" d="M53.518,91.659c0.038-0.02,0.077-0.038,0.115-0.058l-0.059-0.059
		C53.555,91.581,53.538,91.621,53.518,91.659z"/>
</g>
<g>
	<path fill="none" stroke="#333333" stroke-width="2" stroke-linecap="round" stroke-linejoin="round" stroke-miterlimit="10" d="
		M55.917,84.031c0,9.391-7.612,17.003-17.003,17.003c-9.39,0-17.003-7.612-17.003-17.003c0-1.071,0.099-2.118,0.288-3.134
		c1.471-7.894,8.395-13.869,16.715-13.869C48.304,67.029,55.917,74.641,55.917,84.031z"/>
	<path fill="none" stroke="#333333" stroke-width="2" stroke-linecap="round" stroke-linejoin="round" stroke-miterlimit="10" d="
		M54.018,91.982c-2.409,1.309-5.17,2.052-8.105,2.052c-9.39,0-17.002-7.613-17.002-17.003c0-1.071,0.099-2.118,0.288-3.134
		c0.322-1.729,0.906-3.366,1.709-4.868"/>
	<path fill="none" stroke="#333333" stroke-width="2" stroke-linecap="round" stroke-linejoin="round" stroke-miterlimit="10" d="
		M21.511,84.828c-1.091-0.949-2.159-1.945-3.201-2.987c-20.656-20.656-23.194-51.607-5.67-69.132
		c17.525-17.524,48.476-14.986,69.132,5.67c20.656,20.656,23.194,51.607,5.67,69.132c-10.01,10.01-24.401,13.475-38.751,10.755"/>
	<path fill="none" stroke="#333333" stroke-width="2" stroke-linecap="round" stroke-linejoin="round" stroke-miterlimit="10" d="
		M125.594,116.945c1.885,1.884,1.885,4.967,0,6.851l-1.73,1.73c-1.885,1.884-4.967,1.884-6.852,0l-14.572-14.572
		c-1.884-1.884-1.884-4.967,0-6.851l1.73-1.73c1.885-1.884,4.968-1.884,6.852,0L125.594,116.945z"/>
	
		<line fill="none" stroke="#333333" stroke-width="2" stroke-linecap="round" stroke-linejoin="round" stroke-miterlimit="10" x1="101.201" y1="106.247" x2="84.954" y2="90"/>
	
		<line fill="none" stroke="#333333" stroke-width="2" stroke-linecap="round" stroke-linejoin="round" stroke-miterlimit="10" x1="106.354" y1="101.094" x2="90.105" y2="84.847"/>
	
		<line fill="none" stroke="#333333" stroke-width="2" stroke-linecap="round" stroke-linejoin="round" stroke-miterlimit="10" x1="28.597" y1="70.573" x2="77.889" y2="21.281"/>
	
		<line fill="none" stroke="#333333" stroke-width="2" stroke-linecap="round" stroke-linejoin="round" stroke-miterlimit="10" x1="21.619" y1="77.551" x2="25.003" y2="74.167"/>
	
		<line fill="none" stroke="#333333" stroke-width="2" stroke-linecap="round" stroke-linejoin="round" stroke-miterlimit="10" x1="52.954" y1="94.068" x2="94" y2="53.021"/>
	
		<line fill="none" stroke="#333333" stroke-width="2" stroke-linecap="round" stroke-linejoin="round" stroke-miterlimit="10" x1="51" y1="72.095" x2="88.183" y2="34.913"/>
	
		<line fill="none" stroke="#333333" stroke-width="2" stroke-linecap="round" stroke-linejoin="round" stroke-miterlimit="10" x1="11.198" y1="63.779" x2="63.71" y2="11.266"/>
	
		<line fill="none" stroke="#333333" stroke-width="2" stroke-linecap="round" stroke-linejoin="round" stroke-miterlimit="10" x1="6.044" y1="44.954" x2="44.885" y2="6.112"/>
	<path fill="none" stroke="#333333" stroke-width="2" stroke-linecap="round" stroke-linejoin="round" stroke-miterlimit="10" d="
		M22.58,79.306c-0.294-0.283-0.586-0.568-0.876-0.858C2.999,59.743,0.494,31.813,16.12,16.188 M16.12,16.188
		c15.626-15.625,43.556-13.121,62.26,5.583c18.705,18.705,21.209,46.634,5.584,62.26c-8.05,8.05-19.365,11.288-31.003,9.978"/>
	
		<line fill="none" stroke="#333333" stroke-width="2" stroke-linecap="round" stroke-linejoin="round" stroke-miterlimit="10" x1="16.12" y1="16.188" x2="83.963" y2="84.031"/>
	
		<line fill="none" stroke="#333333" stroke-width="2" stroke-linecap="round" stroke-linejoin="round" stroke-miterlimit="10" x1="7.719" y1="30.042" x2="45.853" y2="68.176"/>
	
		<line fill="none" stroke="#333333" stroke-width="2" stroke-linecap="round" stroke-linejoin="round" stroke-miterlimit="10" x1="54.646" y1="76.971" x2="70.132" y2="92.457"/>
	
		<line fill="none" stroke="#333333" stroke-width="2" stroke-linecap="round" stroke-linejoin="round" stroke-miterlimit="10" x1="6.834" y1="49.641" x2="27.924" y2="70.73"/>
	
		<line fill="none" stroke="#333333" stroke-width="2" stroke-linecap="round" stroke-linejoin="round" stroke-miterlimit="10" x1="30.099" y1="7.748" x2="92.404" y2="70.052"/>
	
		<line fill="none" stroke="#333333" stroke-width="2" stroke-linecap="round" stroke-linejoin="round" stroke-miterlimit="10" x1="49.654" y1="6.82" x2="93.331" y2="50.497"/>
</g>
</svg>
