<?xml version="1.0" encoding="utf-8"?>
<!-- Generator: Adobe Illustrator 16.0.0, SVG Export Plug-In . SVG Version: 6.00 Build 0)  -->
<!DOCTYPE svg PUBLIC "-//W3C//DTD SVG 1.1//EN" "http://www.w3.org/Graphics/SVG/1.1/DTD/svg11.dtd">
<svg version="1.1" id="Layer_1" xmlns="http://www.w3.org/2000/svg" xmlns:xlink="http://www.w3.org/1999/xlink" x="0px" y="0px"
	 width="128px" height="128px" viewBox="0 0 128 128" enable-background="new 0 0 128 128" xml:space="preserve">
<g>
	<g>
		<path fill="#BC3F2C" d="M64,6.542C32.317,6.542,6.542,32.318,6.542,64S32.317,121.458,64,121.458S121.458,95.683,121.458,64
			S95.683,6.542,64,6.542z"/>
		<path fill="#F4EFEF" d="M104.725,29.868c-1.356-1.744-6.26-6.307-6.308-6.352C88.843,15.364,76.614,10.866,64,10.866
			c-29.298,0-53.135,23.836-53.135,53.135S34.702,117.135,64,117.135c29.299,0,53.135-23.836,53.135-53.135
			C117.135,52.125,112.844,40.322,104.725,29.868z"/>
	</g>
	<g>
		
			<circle fill="none" stroke="#333333" stroke-width="2" stroke-linecap="round" stroke-linejoin="round" stroke-miterlimit="10" cx="64.013" cy="63.986" r="57.958"/>
		<path fill="none" stroke="#333333" stroke-width="2" stroke-linecap="round" stroke-linejoin="round" stroke-miterlimit="10" d="
			M104.621,29.975c7.715,9.201,12.36,21.064,12.36,34.012c0,29.254-23.715,52.969-52.969,52.969S11.044,93.24,11.044,63.986
			s23.715-52.969,52.969-52.969c13.095,0,25.08,4.752,34.325,12.625"/>
		
			<line fill="none" stroke="#333333" stroke-width="2" stroke-linecap="round" stroke-linejoin="round" stroke-miterlimit="10" x1="1" y1="64.5" x2="27" y2="64.5"/>
		
			<line fill="none" stroke="#333333" stroke-width="2" stroke-linecap="round" stroke-linejoin="round" stroke-miterlimit="10" x1="101" y1="64.5" x2="127" y2="64.5"/>
		
			<line fill="none" stroke="#333333" stroke-width="2" stroke-linecap="round" stroke-linejoin="round" stroke-miterlimit="10" x1="63.5" y1="127" x2="63.5" y2="101"/>
		
			<line fill="none" stroke="#333333" stroke-width="2" stroke-linecap="round" stroke-linejoin="round" stroke-miterlimit="10" x1="63.5" y1="27" x2="63.5" y2="1"/>
	</g>
</g>
</svg>
