<?xml version="1.0" encoding="utf-8"?>
<!-- Generator: Adobe Illustrator 16.0.0, SVG Export Plug-In . SVG Version: 6.00 Build 0)  -->
<!DOCTYPE svg PUBLIC "-//W3C//DTD SVG 1.1//EN" "http://www.w3.org/Graphics/SVG/1.1/DTD/svg11.dtd">
<svg version="1.1" id="Layer_1" xmlns="http://www.w3.org/2000/svg" xmlns:xlink="http://www.w3.org/1999/xlink" x="0px" y="0px"
	 width="128px" height="128px" viewBox="0 0 128 128" enable-background="new 0 0 128 128" xml:space="preserve">
<g>
	<g>
		<path fill="#F4EFEF" d="M107.395,108.165c0.362-0.362,0.701-0.739,1.762-1.816L20.881,18.072
			c-1.078,1.061-1.455,1.402-1.816,1.764c-0.359,0.358-0.694,0.731-2.418,1.097l88.277,88.276
			C106.664,108.86,107.036,108.522,107.395,108.165z"/>
		<path fill="#EFDC81" d="M126.342,61.899c-15.674-1.097-31.133-7.468-42.244-18.58c-4.888-4.886-7.829-10.41-10.881-16.545
			l-2.718-7.811c-1.973-5.678-3.575-11.324-3.888-17.325c-0.79-0.029-2.586-0.097-3.382-0.097c-15.837,0-30.767,5.864-42.333,16.549
			l89.121,88.829C121.511,94.467,126.85,77.771,126.342,61.899z"/>
		<path fill="#EFDC81" d="M25.703,72.907c6.162,3.062,11.751,7.088,16.641,11.978C53.5,96.04,60.059,110.659,60.842,126.4
			c0.795,0.03,1.589,0.058,2.388,0.058c15.843,0,30.777-5.868,42.345-16.639L17.333,21.579C5.741,34.21,0.249,50.395,0.857,66.396
			c5.972,0.317,11.852,1.462,17.482,3.418L25.703,72.907z"/>
		<path fill="#F4EFEF" d="M126.217,58.149c-0.888-0.066-2.62-0.206-3.701-0.31l-0.004-0.056
			c-13.504-1.597-25.935-7.604-35.586-17.255c-4.545-4.544-7.359-10.559-10.209-16.254l-2.875-7.25
			c-1.406-4.115-2.268-7.692-2.75-12C70.978,4,70.709,3.022,70.646,1.993c-1.001-0.101-3.023-0.302-4.035-0.354
			c0.001,0.008,0.002,0.016,0.002,0.024c0.317,5.86,1.969,11.783,3.886,17.301l2.343,7.061c2.99,6.011,6.98,11.592,11.792,16.402
			c10.912,10.912,26.583,17.512,41.583,18.348C126.217,60.772,126.301,59.02,126.217,58.149z"/>
		<polygon fill="#CC0000" points="125.564,60.613 125.559,60.608 125.559,60.613 		"/>
		<g>
			<path fill="#F4EFEF" d="M25.287,72.686l-7.305-3.003C12.498,67.781,6.745,67.69,0.9,67.371c0,0.013,0.002,0.036,0.003,0.048
				c0,0,0.133,2.009,0.235,3.006c1.011,0.062,2.019,0.15,3.023,0.264l-0.026-0.026l0.026,0.021
				c4.289,0.482,7.512,2.425,11.592,3.819l7.299,3.055c5.727,2.864,11.649,5.612,16.194,10.157C48.807,97.273,55,109.54,56,122.896
				v0.169c0,1.017,0.476,2.038,0.538,3.064c1.004,0.103,3.235,0.218,4.249,0.271c-0.791-15-7.264-31.042-18.223-42.001
				C37.752,79.586,31.323,75.687,25.287,72.686z"/>
			<polygon fill="#CC0000" points="59.838,126.362 59.834,126.362 59.838,126.366 			"/>
		</g>
		<path fill="#CC0000" d="M125.236,56.583l-0.039-0.039c0.002,0.012,0.003,0.024,0.005,0.036
			C125.213,56.581,125.225,56.582,125.236,56.583z"/>
		<polygon fill="#CC0000" points="70.646,1.993 70.644,1.99 70.645,1.993 		"/>
		<path fill="#F0C960" d="M125.197,56.561l-0.073-0.073l0.968-0.089c-1.601-13.425-8.741-26.283-19.021-36.563
			C97.042,9.806,84,3.625,70,1.993V2h0.645c0.086,1,0.223,2.74,0.405,4.102l0.003,0.009c0.509,3.778,0.275,7.552,1.508,11.16
			l3,7.189c2.787,5.568,7.604,10.668,12.072,15.137c9.09,9.09,20.84,14.869,33.482,16.576l0.01,0.01
			c1.35,0.182,2.709,0.314,4.077,0.401C125.2,56.572,125.199,56.573,125.197,56.561z"/>
		<path fill="#CC0000" d="M55.771,126.002l0.023,0.024c0-0.007-0.001-0.014-0.001-0.021
			C55.786,126.004,55.779,126.003,55.771,126.002z"/>
		<path fill="#F0C960" d="M55.388,121.916c-1.7-12.654-7.482-24.409-16.579-33.505c-4.469-4.469-9.574-8.148-15.173-10.95
			l-7.237-3.025c-3.588-1.226-7.307-2.091-11.089-2.599c-1.343-0.18-2.694-0.313-4.051-0.401c0.003,0.021,0.005,0.042,0.008,0.062
			c1.608,13.411,7.528,26.397,17.798,36.667c10.02,10.02,22.848,16.198,36.707,17.838c0.008,0.001,0.015,0.002,0.022,0.003
			C55.707,124.633,55.57,123.27,55.388,121.916z"/>
	</g>
	<g>
		
			<circle fill="none" stroke="#333333" stroke-width="2" stroke-linecap="round" stroke-linejoin="round" stroke-miterlimit="10" cx="64.229" cy="64" r="62.958"/>
		
			<line fill="none" stroke="#333333" stroke-width="2" stroke-linecap="round" stroke-linejoin="round" stroke-miterlimit="10" x1="41.602" y1="44.218" x2="107.152" y2="109.769"/>
		
			<line fill="none" stroke="#333333" stroke-width="2" stroke-linecap="round" stroke-linejoin="round" stroke-miterlimit="10" x1="44.467" y1="41.369" x2="110.018" y2="106.919"/>
		
			<line fill="none" stroke="#333333" stroke-width="2" stroke-linecap="round" stroke-linejoin="round" stroke-miterlimit="10" x1="18.288" y1="20.905" x2="35.232" y2="37.849"/>
		
			<line fill="none" stroke="#333333" stroke-width="2" stroke-linecap="round" stroke-linejoin="round" stroke-miterlimit="10" x1="21.148" y1="18.049" x2="38.092" y2="34.993"/>
		<path fill="none" stroke="#333333" stroke-width="2" stroke-linecap="round" stroke-linejoin="round" stroke-miterlimit="10" d="
			M17.592,73.976c-5.168-1.766-10.533-2.793-15.93-3.083"/>
		<path fill="none" stroke="#333333" stroke-width="2" stroke-linecap="round" stroke-linejoin="round" stroke-miterlimit="10" d="
			M57.337,126.568c-0.755-14.009-6.474-27.8-17.175-38.5c-4.605-4.605-9.782-8.287-15.303-11.049"/>
		<path fill="none" stroke="#333333" stroke-width="2" stroke-linecap="round" stroke-linejoin="round" stroke-miterlimit="10" d="
			M19.176,70.287c-5.779-2.006-11.791-3.146-17.836-3.42"/>
		<path fill="none" stroke="#333333" stroke-width="2" stroke-linecap="round" stroke-linejoin="round" stroke-miterlimit="10" d="
			M61.362,126.89c-0.687-15.144-6.808-30.087-18.372-41.651c-4.956-4.956-10.533-8.913-16.48-11.87"/>
		<path fill="none" stroke="#333333" stroke-width="2" stroke-linecap="round" stroke-linejoin="round" stroke-miterlimit="10" d="
			M74.188,17.379c-1.766-5.168-2.794-10.532-3.084-15.929"/>
		<path fill="none" stroke="#333333" stroke-width="2" stroke-linecap="round" stroke-linejoin="round" stroke-miterlimit="10" d="
			M126.779,57.125c-14.008-0.755-27.799-6.475-38.5-17.176c-4.604-4.604-8.287-9.781-11.049-15.302"/>
		<path fill="none" stroke="#333333" stroke-width="2" stroke-linecap="round" stroke-linejoin="round" stroke-miterlimit="10" d="
			M70.499,18.963c-2.007-5.778-3.146-11.791-3.42-17.836"/>
		<path fill="none" stroke="#333333" stroke-width="2" stroke-linecap="round" stroke-linejoin="round" stroke-miterlimit="10" d="
			M127.102,61.15c-15.143-0.686-30.087-6.808-41.65-18.372c-4.957-4.956-8.913-10.534-11.871-16.481"/>
	</g>
</g>
</svg>
