<?xml version="1.0" encoding="utf-8"?>
<!-- Generator: Adobe Illustrator 16.0.0, SVG Export Plug-In . SVG Version: 6.00 Build 0)  -->
<!DOCTYPE svg PUBLIC "-//W3C//DTD SVG 1.1//EN" "http://www.w3.org/Graphics/SVG/1.1/DTD/svg11.dtd">
<svg version="1.1" id="Layer_1" xmlns="http://www.w3.org/2000/svg" xmlns:xlink="http://www.w3.org/1999/xlink" x="0px" y="0px"
	 width="128px" height="128px" viewBox="0 0 128 128" enable-background="new 0 0 128 128" xml:space="preserve">
<g>
	<g>
		<path fill="#676767" d="M63.718,79.47c-32.222,0-57.952-11.771-61.952-26.958V79.15c0,16.753,27.037,30.383,61.5,30.383
			s61.5-13.686,61.5-30.508V55.072C117.766,69.003,94.104,79.47,63.718,79.47z"/>
		<path fill="#7D8B95" d="M63.239,18.51c-34.466,0-61.505,13.449-61.505,29.98c0,0.504,0.027,1.004,0.08,1.502
			C3.451,65.828,30.063,78.47,63.479,78.47c31.949,0,57.287-11.56,61.287-26.416v-0.086c0-0.106-0.198-0.2-0.142-0.281
			c0.233-1.051,0.239-2.117,0.239-3.197C124.863,31.959,97.704,18.51,63.239,18.51z M114.861,60.068l-6.942,4.85
			c-11.027,6.079-27.296,9.55-44.68,9.55c-30.562,0-55.63-10.803-57.505-24.397c-0.074-0.541-0.125-1.085-0.125-1.634
			c0-14.354,25.853-26.031,57.63-26.031s57.63,11.678,57.63,26.031c0,1.168-0.183,2.318-0.51,3.453
			C119.539,54.739,117.712,57.48,114.861,60.068z"/>
		<path fill="#CC0000" d="M124.287,51.968v0.086c0.03-0.123,0.07-0.244,0.098-0.367C124.328,51.768,124.287,51.861,124.287,51.968z"
			/>
		<path fill="#AEB1B4" d="M65.239,22.595c-32.236,0-58.463,11.592-58.463,25.841c0,0.573,0.058,1.14,0.142,1.703
			C8.91,63.597,34.299,74.278,65.239,74.278c17.777,0,33.17-3.289,44.36-9.455l8.167-6.5c2.669-2.426,3.353-7.586,4.183-10.245
			c0.363-1.167-0.1,0.61-0.1-0.588C121.85,33.241,97.476,22.595,65.239,22.595z"/>
	</g>
	<g>
		<path fill="none" stroke="#333333" stroke-width="2" stroke-linecap="round" stroke-linejoin="round" stroke-miterlimit="10" d="
			M126.244,48.49c0,16.833-27.209,30.48-62.005,30.48S2.234,65.323,2.234,48.49c0-16.834,27.209-30.48,62.005-30.48
			S126.244,31.656,126.244,48.49z"/>
		<path fill="none" stroke="#333333" stroke-width="2" stroke-linecap="round" stroke-linejoin="round" stroke-miterlimit="10" d="
			M2.266,49.99v29.035c0,17.091,27.203,30.945,62,30.945s62-13.854,62-30.945V51.99"/>
		
			<line fill="none" stroke="#333333" stroke-width="2" stroke-linecap="round" stroke-linejoin="round" stroke-miterlimit="10" x1="64.266" y1="78.99" x2="64.266" y2="109.99"/>
		
			<line fill="none" stroke="#333333" stroke-width="2" stroke-linecap="round" stroke-linejoin="round" stroke-miterlimit="10" x1="69.266" y1="78.99" x2="69.266" y2="108.99"/>
		
			<line fill="none" stroke="#333333" stroke-width="2" stroke-linecap="round" stroke-linejoin="round" stroke-miterlimit="10" x1="74.266" y1="78.99" x2="74.266" y2="108.99"/>
		
			<line fill="none" stroke="#333333" stroke-width="2" stroke-linecap="round" stroke-linejoin="round" stroke-miterlimit="10" x1="79.266" y1="78.99" x2="79.266" y2="108.99"/>
		
			<line fill="none" stroke="#333333" stroke-width="2" stroke-linecap="round" stroke-linejoin="round" stroke-miterlimit="10" x1="84.266" y1="77.99" x2="84.266" y2="107.99"/>
		
			<line fill="none" stroke="#333333" stroke-width="2" stroke-linecap="round" stroke-linejoin="round" stroke-miterlimit="10" x1="89.266" y1="76.99" x2="89.266" y2="106.99"/>
		
			<line fill="none" stroke="#333333" stroke-width="2" stroke-linecap="round" stroke-linejoin="round" stroke-miterlimit="10" x1="94.266" y1="75.99" x2="94.266" y2="105.99"/>
		
			<line fill="none" stroke="#333333" stroke-width="2" stroke-linecap="round" stroke-linejoin="round" stroke-miterlimit="10" x1="99.266" y1="73.99" x2="99.266" y2="103.99"/>
		
			<line fill="none" stroke="#333333" stroke-width="2" stroke-linecap="round" stroke-linejoin="round" stroke-miterlimit="10" x1="104.266" y1="72.99" x2="104.266" y2="101.99"/>
		
			<line fill="none" stroke="#333333" stroke-width="2" stroke-linecap="round" stroke-linejoin="round" stroke-miterlimit="10" x1="109.266" y1="69.99" x2="109.266" y2="99.99"/>
		
			<line fill="none" stroke="#333333" stroke-width="2" stroke-linecap="round" stroke-linejoin="round" stroke-miterlimit="10" x1="114.266" y1="67.99" x2="114.266" y2="96.99"/>
		
			<line fill="none" stroke="#333333" stroke-width="2" stroke-linecap="round" stroke-linejoin="round" stroke-miterlimit="10" x1="119.266" y1="63.99" x2="119.266" y2="92.99"/>
		
			<line fill="none" stroke="#333333" stroke-width="2" stroke-linecap="round" stroke-linejoin="round" stroke-miterlimit="10" x1="123.266" y1="58.74" x2="123.266" y2="87.99"/>
		
			<line fill="none" stroke="#333333" stroke-width="2" stroke-linecap="round" stroke-linejoin="round" stroke-miterlimit="10" x1="59.266" y1="78.99" x2="59.266" y2="108.99"/>
		
			<line fill="none" stroke="#333333" stroke-width="2" stroke-linecap="round" stroke-linejoin="round" stroke-miterlimit="10" x1="54.266" y1="78.99" x2="54.266" y2="108.99"/>
		
			<line fill="none" stroke="#333333" stroke-width="2" stroke-linecap="round" stroke-linejoin="round" stroke-miterlimit="10" x1="49.266" y1="78.99" x2="49.266" y2="108.99"/>
		
			<line fill="none" stroke="#333333" stroke-width="2" stroke-linecap="round" stroke-linejoin="round" stroke-miterlimit="10" x1="44.266" y1="77.99" x2="44.266" y2="107.99"/>
		
			<line fill="none" stroke="#333333" stroke-width="2" stroke-linecap="round" stroke-linejoin="round" stroke-miterlimit="10" x1="39.266" y1="76.99" x2="39.266" y2="106.99"/>
		
			<line fill="none" stroke="#333333" stroke-width="2" stroke-linecap="round" stroke-linejoin="round" stroke-miterlimit="10" x1="34.266" y1="75.99" x2="34.266" y2="105.99"/>
		
			<line fill="none" stroke="#333333" stroke-width="2" stroke-linecap="round" stroke-linejoin="round" stroke-miterlimit="10" x1="29.266" y1="73.99" x2="29.266" y2="103.99"/>
		
			<line fill="none" stroke="#333333" stroke-width="2" stroke-linecap="round" stroke-linejoin="round" stroke-miterlimit="10" x1="24.266" y1="71.99" x2="24.266" y2="101.99"/>
		
			<line fill="none" stroke="#333333" stroke-width="2" stroke-linecap="round" stroke-linejoin="round" stroke-miterlimit="10" x1="19.266" y1="69.99" x2="19.266" y2="99.99"/>
		
			<line fill="none" stroke="#333333" stroke-width="2" stroke-linecap="round" stroke-linejoin="round" stroke-miterlimit="10" x1="14.266" y1="67.99" x2="14.266" y2="96.99"/>
		
			<line fill="none" stroke="#333333" stroke-width="2" stroke-linecap="round" stroke-linejoin="round" stroke-miterlimit="10" x1="9.266" y1="63.99" x2="9.266" y2="92.49"/>
		
			<line fill="none" stroke="#333333" stroke-width="2" stroke-linecap="round" stroke-linejoin="round" stroke-miterlimit="10" x1="4.266" y1="57.99" x2="4.266" y2="86.917"/>
		<path fill="none" stroke="#333333" stroke-width="2" stroke-linecap="round" stroke-linejoin="round" stroke-miterlimit="10" d="
			M108.633,64.508c-10.475,5.771-26.47,9.46-44.394,9.46c-31.552,0-57.13-11.431-57.13-25.531s25.578-25.531,57.13-25.531
			s57.13,11.431,57.13,25.531c0,4.042-2.102,7.864-5.844,11.261"/>
	</g>
</g>
</svg>
