<?xml version="1.0" encoding="utf-8"?>
<!-- Generator: Adobe Illustrator 16.0.0, SVG Export Plug-In . SVG Version: 6.00 Build 0)  -->
<!DOCTYPE svg PUBLIC "-//W3C//DTD SVG 1.1//EN" "http://www.w3.org/Graphics/SVG/1.1/DTD/svg11.dtd">
<svg version="1.1" id="Layer_1" xmlns="http://www.w3.org/2000/svg" xmlns:xlink="http://www.w3.org/1999/xlink" x="0px" y="0px"
	 width="128px" height="128px" viewBox="0 0 128 128" enable-background="new 0 0 128 128" xml:space="preserve">
<g>
	<g>
		<path fill="#E8E3E3" d="M26,9.082C26,6.906,27.82,6,29.862,6H44V2H29.408C25.6,2,22,4.599,22,8.408V64h4V9.082z"/>
		<path fill="#E8E3E3" d="M98.592,2h-0.5H83v4h15.334C100.316,6,101,6.871,101,9.167V64h4V8.908v-0.5C105,4.599,102.401,2,98.592,2z
			"/>
		<path fill="#E8E3E3" d="M101,65v54.067c0,1.653-0.249,3.933-1.893,3.933H83v4h15.592c3.81,0,6.408-3.599,6.408-7.408V65H101z"/>
		<path fill="#E8E3E3" d="M29.862,123c-1.894,0-3.862-2.345-3.862-3.933V65h-4v54.592c0,3.809,3.6,7.408,7.408,7.408H44v-4H29.862z"
			/>
		<path fill="#CC0000" d="M74.674,111H52.229c-0.016,0-0.036-0.043-0.051,0.006c-0.016,0.05-0.045-1.006-0.072-0.006H74.82
			c-0.033-1-0.078,0.062-0.096,0.006C74.71,110.957,74.689,111,74.674,111z"/>
		<path fill="#54B265" d="M99.334,7C99.111,7,92,7,83,7v10c0,0.276,0.276,1,0,1h-0.5h-6.018c-1.827,5-6.582,8.529-12.029,8.529
			S54.251,23,52.424,18H45h-1v-1V7c-8,0-14.138,0-14.138,0C28.361,7,27,7.441,27,9.082V64h21.896c0-1-0.003-0.29-0.003-0.31
			c0-8.583,6.982-15.69,15.564-15.69c8.583,0,15.565,7.17,15.565,15.752c0,0.02-0.003-0.753-0.003,0.247H101c0-27,0-53.769,0-54.833
			C101,7.95,101.124,7,99.334,7z"/>
		<path fill="#54B265" d="M64.457,79.505C56.232,79.505,49.495,73,48.946,65H27v54.067c0,1.095,1.59,2.933,2.862,2.933H44v-10.5V111
			c0-0.276,0.724,0,1,0h7.294c-0.083-1-0.119-0.523-0.073-0.675c1.665-5.445,6.58-9.229,12.23-9.229s10.565,3.846,12.23,9.292
			c0.046,0.152,0.01-0.387-0.073,0.613H83c0.276,0,0-0.276,0,0v11h16.107c0.957,0,0.893-1.761,0.893-2.933c0,0,0-27.067,0-54.067
			H79.969C79.42,73,72.683,79.505,64.457,79.505z"/>
		<path fill="#3C8E51" d="M64.453,26.25c4.902,0,9.202-4.25,10.971-8.25H53.482C55.251,22,59.551,26.25,64.453,26.25z"/>
		<path fill="#3C8E51" d="M64.457,48.875c-8.031,0-14.564,6.534-14.564,14.565c0,0.02,0.003,0.04,0.003,0.06
			c0.001,0.337,0.026,0.668,0.051,1c0.546,7.536,6.838,13.505,14.511,13.505c7.674,0,13.965-5.969,14.512-13.505
			c0.023-0.332,0.049-0.663,0.051-1c0-0.02,0.003-0.04,0.003-0.06C79.022,55.409,72.488,48.875,64.457,48.875z"/>
		<polygon fill="#F4EFEF" points="45,112 45,121.5 45,122.5 45,127 82,127 82,122.5 82,121.5 82,112 		"/>
		<path fill="#3C8E51" d="M63.451,102.75c-5.156,0-9.645,3.25-11.223,8.25h22.445C73.096,106,68.607,102.75,63.451,102.75z"/>
		<path fill="#CC0000" d="M43.5,17v0.5H44C43.724,17.5,43.5,17.276,43.5,17z"/>
		<path fill="#F4EFEF" d="M45,2v3.5v1V17h7.296c0.062-1,0.147-0.165,0.259-0.199C52.766,16.733,52.986,16,53.107,17h22.691
			c0.121-1,0.338-0.267,0.553-0.199C76.463,16.835,76.549,16,76.61,17H82V6.5v-1V2H45z"/>
		<path fill="#CC0000" d="M75.352,16.301c-0.215-0.068-0.432,0.023-0.553,0.199h0.812C75.549,16.41,75.463,16.335,75.352,16.301z"/>
		<path fill="#CC0000" d="M51.555,16.301c-0.111,0.034-0.197,0.109-0.259,0.199h0.812C51.986,16.324,51.766,16.233,51.555,16.301z"
			/>
	</g>
	<g>
		<path fill="none" stroke="#333333" stroke-width="2" stroke-linecap="round" stroke-linejoin="round" stroke-miterlimit="10" d="
			M105.5,120.092c0,4.091-3.316,7.408-7.408,7.408H28.908c-4.092,0-7.408-3.317-7.408-7.408V8.908c0-4.091,3.316-7.408,7.408-7.408
			h69.184c4.092,0,7.408,3.317,7.408,7.408V120.092z"/>
		
			<line fill="none" stroke="#333333" stroke-width="2" stroke-linecap="round" stroke-linejoin="round" stroke-miterlimit="10" x1="22" y1="64.5" x2="105" y2="64.5"/>
		
			<circle fill="none" stroke="#333333" stroke-width="2" stroke-linecap="round" stroke-linejoin="round" stroke-miterlimit="10" cx="64.458" cy="63.44" r="15.065"/>
		
			<polyline fill="none" stroke="#333333" stroke-width="2" stroke-linecap="round" stroke-linejoin="round" stroke-miterlimit="10" points="
			82.5,2 82.5,17.5 44.5,17.5 44.5,2 		"/>
		<path fill="none" stroke="#333333" stroke-width="2" stroke-linecap="round" stroke-linejoin="round" stroke-miterlimit="10" d="
			M52.701,17.779c1.545,5.054,6.193,8.75,11.752,8.75s10.207-3.696,11.752-8.75"/>
		
			<polyline fill="none" stroke="#333333" stroke-width="2" stroke-linecap="round" stroke-linejoin="round" stroke-miterlimit="10" points="
			44.5,127 44.5,111.5 82.5,111.5 82.5,127 		"/>
		<path fill="none" stroke="#333333" stroke-width="2" stroke-linecap="round" stroke-linejoin="round" stroke-miterlimit="10" d="
			M76.203,110.221c-1.545-5.054-6.193-8.75-11.752-8.75s-10.207,3.696-11.752,8.75"/>
		<path fill="none" stroke="#333333" stroke-width="2" stroke-linecap="round" stroke-linejoin="round" stroke-miterlimit="10" d="
			M100.5,19v100.067c0,1.305-0.088,3.433-1.393,3.433H29.862c-1.306,0-3.362-2.127-3.362-3.433V7.933
			c0-1.305,2.057-1.433,3.362-1.433H98.5c0,0,2.25-0.25,2.25,3.583"/>
	</g>
</g>
</svg>
