<?xml version="1.0" encoding="utf-8"?>
<!-- Generator: Adobe Illustrator 16.0.0, SVG Export Plug-In . SVG Version: 6.00 Build 0)  -->
<!DOCTYPE svg PUBLIC "-//W3C//DTD SVG 1.1//EN" "http://www.w3.org/Graphics/SVG/1.1/DTD/svg11.dtd">
<svg version="1.1" id="Layer_1" xmlns="http://www.w3.org/2000/svg" xmlns:xlink="http://www.w3.org/1999/xlink" x="0px" y="0px"
	 width="128px" height="128px" viewBox="0 0 128 128" enable-background="new 0 0 128 128" xml:space="preserve">
<g>
	<g>
		<path fill="#E9B526" d="M81.25,31h-8H47.281C47.271,31,47,31.246,47,31.246V94h35V31H81.25z"/>
		<path fill="#E8E3E3" d="M38.25,51h-8H4.271C4.264,51,4,51.247,4,51.247V94h35V51H38.25z"/>
		<path fill="#EDC654" d="M46.75,29.75c0.274,0,0.496,0.096,0.499,0.37c0.01,0,0.022-0.12,0.032,0.88H82.25c0-1,0.224-1.5,0.5-1.5
			s0.5,0.5,0.5,0.5h0.016C83.988,30,84,29.054,84,28.25v-2.031C84,25.404,84.094,25,83.266,25H47.281C46.579,25,45,25.452,45,26.219
			v2.031c0,0.549,0.66,1.25,1.263,1.659C46.354,29.812,46.606,29.75,46.75,29.75z"/>
		<path fill="#CC0000" d="M45.75,29.75c-0.144,0-0.271,0.062-0.362,0.159c0.289,0.196,0.591,0.326,0.861,0.336
			C46.246,29.971,46.024,29.75,45.75,29.75z"/>
		<path fill="#CC0000" d="M81.75,29.75c-0.276,0-0.5,0.224-0.5,0.5h1C82.25,29.974,82.026,29.75,81.75,29.75z"/>
		<polygon fill="#E07D46" points="123.25,71 115.25,71 89.266,71 89,71.248 89,94 124,94 124,71 		"/>
		<path fill="#CC0000" d="M125.271,95h-0.521h-0.5h-35.5h-0.5h-5.5h-0.5h-35.5h-0.5h-6.5h-0.5h-35C3.477,95,2,95.532,2,96.289V102
			h124v-5.711C126,95.444,126.067,95,125.271,95z"/>
		<path fill="#CC0000" d="M0.25,102.75v0.5h0.5C0.474,103.25,0.25,103.026,0.25,102.75z"/>
		<path fill="#F4EFEF" d="M3.75,49.75c0.275,0,0.498,0.097,0.5,0.371C4.256,50.122,4.264,50,4.271,51H39.25c0-1,0.224-1.5,0.5-1.5
			s0.5,0.5,0.5,0.5h0.005C40.985,50,41,49.054,41,48.25v-2.031C41,45.404,41.092,45,40.255,45H4.271C3.572,45,2,45.452,2,46.219
			v2.031c0,0.551,0.659,1.253,1.261,1.662C3.352,49.813,3.605,49.75,3.75,49.75z"/>
		<path fill="#CC0000" d="M38.75,49.75c-0.276,0-0.5,0.224-0.5,0.5h1C39.25,49.974,39.026,49.75,38.75,49.75z"/>
		<path fill="#CC0000" d="M2.75,49.75c-0.145,0-0.273,0.063-0.364,0.162c0.29,0.197,0.594,0.328,0.864,0.334
			C3.248,49.972,3.025,49.75,2.75,49.75z"/>
		<path fill="#E8BB85" d="M88.75,69.75c0.275,0,0.498,0.098,0.5,0.373c0.005,0,0.011-0.123,0.016,0.877h34.984
			c0-1,0.224-1.375,0.5-1.375s0.375,0.286,0.375,0.562c0.791,0,0.875-1.198,0.875-1.864v-2.031c0-0.838,0.054-1.292-0.75-1.292
			H89.266C88.486,65,87,65.533,87,66.292v2.031c0,0.542,0.649,1.215,1.25,1.604C88.342,69.821,88.598,69.75,88.75,69.75z"/>
		<path fill="#CC0000" d="M123.75,69.75c-0.276,0-0.5,0.224-0.5,0.5h1C124.25,69.974,124.026,69.75,123.75,69.75z"/>
		<path fill="#CC0000" d="M87.75,69.75c-0.152,0-0.283,0.071-0.375,0.178c0.291,0.189,0.598,0.315,0.875,0.32
			C88.248,69.973,88.025,69.75,87.75,69.75z"/>
	</g>
	<g>
		
			<polyline fill="none" stroke="#333333" stroke-width="2" stroke-linecap="round" stroke-linejoin="round" stroke-miterlimit="10" points="
			82.5,31 82.5,94.5 46.5,94.5 46.5,31 		"/>
		
			<polyline fill="none" stroke="#333333" stroke-width="2" stroke-linecap="round" stroke-linejoin="round" stroke-miterlimit="10" points="
			39.5,51 39.5,94.5 3.5,94.5 3.5,51 		"/>
		<path fill="none" stroke="#333333" stroke-width="2" stroke-linecap="round" stroke-linejoin="round" stroke-miterlimit="10" d="
			M73,30.5H47.281c-1.1,0-2.781-1.15-2.781-2.25v-2.031c0-1.1,1.681-1.719,2.781-1.719h35.984c1.1,0,1.234,0.619,1.234,1.719v2.031
			c0,1.1-0.134,2.25-1.234,2.25H81"/>
		
			<polyline fill="none" stroke="#333333" stroke-width="2" stroke-linecap="round" stroke-linejoin="round" stroke-miterlimit="10" points="
			124.5,72 124.5,94.5 88.5,94.5 88.5,71 		"/>
		<path fill="none" stroke="#333333" stroke-width="2" stroke-linecap="round" stroke-linejoin="round" stroke-miterlimit="10" d="
			M126.5,102.5H1.5v-6.211c0-1.1,1.65-1.789,2.75-1.789h121.021c1.101,0,1.229,0.689,1.229,1.789V102.5z"/>
		<path fill="none" stroke="#333333" stroke-width="2" stroke-linecap="round" stroke-linejoin="round" stroke-miterlimit="10" d="
			M30,50.5H4.271c-1.1,0-2.771-1.15-2.771-2.25v-2.031c0-1.1,1.67-1.719,2.771-1.719h35.984c1.1,0,1.245,0.619,1.245,1.719v2.031
			c0,1.1-0.145,2.25-1.245,2.25H38"/>
		<path fill="none" stroke="#333333" stroke-width="2" stroke-linecap="round" stroke-linejoin="round" stroke-miterlimit="10" d="
			M115,70.5H89.266c-1.1,0-2.766-1.077-2.766-2.177v-2.031c0-1.101,1.666-1.792,2.766-1.792h35.984c1.1,0,1.25,0.691,1.25,1.792
			v2.031c0,1.1-0.15,2.177-1.25,2.177H123"/>
	</g>
</g>
</svg>
