<?xml version="1.0" encoding="utf-8"?>
<!-- Generator: Adobe Illustrator 16.0.0, SVG Export Plug-In . SVG Version: 6.00 Build 0)  -->
<!DOCTYPE svg PUBLIC "-//W3C//DTD SVG 1.1//EN" "http://www.w3.org/Graphics/SVG/1.1/DTD/svg11.dtd">
<svg version="1.1" id="Layer_1" xmlns="http://www.w3.org/2000/svg" xmlns:xlink="http://www.w3.org/1999/xlink" x="0px" y="0px"
	 width="128px" height="128px" viewBox="0 0 128 128" enable-background="new 0 0 128 128" xml:space="preserve">
<g>
	<g>
		<path fill="none" d="M63.967,95.98v0.5h0.5C64.19,96.48,63.967,96.256,63.967,95.98z"/>
		<path fill="#54B265" d="M75.927,100H52.074H40.959c-0.25,0-0.485-0.055-0.709-0.136L41.316,104h45.36l1.068-4.139
			C87.522,99.944,87.289,100,87.041,100H75.927z"/>
		<path fill="#EFDC81" d="M64,126.04c12.473,0,22.278-9.04,22.536-22.04H41.465C41.722,117,51.527,126.04,64,126.04z"/>
		<path fill="#F4EFEF" d="M11.527,3.058l27.985,95.119l0.007-0.218C39.705,98.594,40.289,99,40.959,99h46.082
			c0.656,0,1.26-0.458,1.442-1.104L116.475,3.06c0.128-0.451,0.035-1.128-0.249-1.503C116.018,1.282,115.694,1,115.03,1H90.414
			H37.586H12.971c-0.664,0-0.988,0.342-1.196,0.617C11.482,2.003,11.404,2.625,11.527,3.058z M91.648,4.665
			C91.686,4.421,91.896,4,92.143,4h20.245c0.157,0,0.306,0.314,0.4,0.44c0.095,0.127,0.124,0.41,0.079,0.561l-26.859,90.82
			C85.945,96.035,85.75,96,85.528,96H78.24c-0.146,0-0.284,0.177-0.379,0.066c-0.096-0.111-0.137-0.258-0.115-0.401L91.648,4.665z
			 M65,95.98V5.48v-0.5C65,4.704,65.19,4,65.467,4h22.635c0.146,0,0.284,0.304,0.379,0.414c0.096,0.111,0.138,0.377,0.115,0.521
			l-13.903,90.82C74.655,96,74.445,96,74.198,96h-8.731H65V95.98z M39.52,4.414C39.614,4.304,39.752,4,39.898,4h21.568
			C61.743,4,62,4.704,62,4.98v91c0,0.276-0.257,0.02-0.533,0.02h-0.5h-7.165c-0.247,0-0.457,0.06-0.494-0.185l-13.903-91
			C39.383,4.672,39.424,4.525,39.52,4.414z M15.212,4.44C15.307,4.314,15.455,4,15.612,4h20.245c0.247,0,0.457,0.421,0.494,0.665
			l13.902,91.12c0.021,0.144-0.02,0.11-0.115,0.222C50.044,96.117,49.906,96,49.76,96h-7.288c-0.222,0-0.417,0.095-0.479-0.118
			l-26.859-91C15.088,4.73,15.117,4.567,15.212,4.44z"/>
	</g>
	<g>
		<path fill="none" stroke="#333333" stroke-width="2" stroke-linecap="round" stroke-linejoin="round" stroke-miterlimit="10" d="
			M77,103.5H40.959c0,13,10.316,23.04,23.041,23.04s23.041-10.04,23.041-23.04H85"/>
		
			<line fill="none" stroke="#333333" stroke-width="2" stroke-linecap="round" stroke-linejoin="round" stroke-miterlimit="10" x1="40.5" y1="103" x2="40.5" y2="100"/>
		
			<line fill="none" stroke="#333333" stroke-width="2" stroke-linecap="round" stroke-linejoin="round" stroke-miterlimit="10" x1="86.5" y1="103" x2="86.5" y2="100"/>
		<path fill="none" stroke="#333333" stroke-width="2" stroke-linecap="round" stroke-linejoin="round" stroke-miterlimit="10" d="
			M116.624,1.314c-0.378-0.499-0.968-0.814-1.594-0.814H90.414H37.586H12.971c-0.627,0-1.217,0.315-1.595,0.814
			c-0.378,0.5-0.501,1.158-0.33,1.76l27.989,94.951c0.244,0.861,1.029,1.474,1.924,1.474h11.115h23.853h11.114
			c0.895,0,1.681-0.607,1.924-1.469l27.989-94.949C117.125,2.479,117.002,1.814,116.624,1.314z M15.612,4.5h20.245l13.902,91h-7.288
			L15.612,4.5z M39.898,4.5H61.5v91h-7.698L39.898,4.5z M65.5,95.5v-91h22.602l-13.903,91H65.5z M85.528,95.5H78.24l13.902-91
			h20.245L85.528,95.5z"/>
	</g>
</g>
</svg>
