<?xml version="1.0" encoding="utf-8"?>
<!-- Generator: Adobe Illustrator 16.0.0, SVG Export Plug-In . SVG Version: 6.00 Build 0)  -->
<!DOCTYPE svg PUBLIC "-//W3C//DTD SVG 1.1//EN" "http://www.w3.org/Graphics/SVG/1.1/DTD/svg11.dtd">
<svg version="1.1" id="Layer_1" xmlns="http://www.w3.org/2000/svg" xmlns:xlink="http://www.w3.org/1999/xlink" x="0px" y="0px"
	 width="128px" height="128px" viewBox="0 0 128 128" enable-background="new 0 0 128 128" xml:space="preserve">
<g>
	<g>
		<path fill="#F4EFEF" d="M76.913,119.851l12.349-17.797L78.688,84.975C78.66,84.98,78.638,85,78.609,85H47.891
			c-0.044,0-0.079-0.028-0.12-0.039l-11.66,17.106l12.34,17.784c0.033,0.046,0.054,0.149,0.068,0.149h28.326
			C76.859,120,76.88,119.897,76.913,119.851z"/>
		<path fill="#F4EFEF" d="M77.237,121h-29c-0.106,0-0.2-0.04-0.281-0.097l-2.986,2.82c5.785,1.774,11.922,2.735,18.28,2.735
			c6.041,0,11.878-0.879,17.407-2.486l-3.204-3.025C77.388,120.979,77.315,121,77.237,121z"/>
		<path fill="#F4EFEF" d="M38.465,54.229L62,36.899V17.292l-21.238-7.108L18.938,26.426l0.077,23.026l19.427,4.745
			C38.466,54.203,38.441,54.219,38.465,54.229z"/>
		<path fill="#F4EFEF" d="M37.921,55.137c-0.006-0.018,0.004-0.036,0-0.056l-19.175-4.673L5.866,67.515l7.556,26.789l21.881,7.174
			l11.905-17.465L37.921,55.137z"/>
		<path fill="#F4EFEF" d="M63.428,36.375l24.368,17.882c0.041-0.023,0.112-0.048,0.16-0.06l19.615-4.746l0.053-23.01L84.003,10.61
			l-20.595,6.965c-0.052,0.018-0.224,0.026-0.277,0.026c-0.005,0,0,0,0,0l-0.002,18.711C63.269,36.331,63.336,36.307,63.428,36.375z
			"/>
		<path fill="#F4EFEF" d="M108.272,25.666l4.062-0.219c-7.328-9.311-17.237-16.49-28.646-20.453l0.848,4.766L108.272,25.666z"/>
		<path fill="#F4EFEF" d="M4.894,67.751l-4.062-2.195c0.298,12.059,4.021,23.278,10.244,32.719l1.41-3.606L4.894,67.751z"/>
		<path fill="#F4EFEF" d="M40.354,9.329l1.042-3.833C30.585,9.548,21.194,16.52,14.171,25.44l4.174,0.226L40.354,9.329z"/>
		<path fill="#F4EFEF" d="M88.578,55.212l-9.294,28.826l10.793,17.434l21.878-7.173l8.801-26.795l-12.873-17.096l-19.305,4.674
			C88.576,55.126,88.593,55.169,88.578,55.212z"/>
		<path fill="#F4EFEF" d="M112.882,94.68l1.771,4.53c0.021,0.056,0.028,0.113,0.029,0.17c6.657-9.647,10.662-21.248,10.984-33.752
			l-3.942,2.13L112.882,94.68z"/>
		<path fill="#F4EFEF" d="M125.688,63.218c-0.015-1.128-0.06-2.248-0.133-3.36l-0.846,0.443l-1.998,1.047
			c-0.074,0.039-0.153,0.057-0.232,0.057c-0.154,0-0.307-0.072-0.403-0.204l-9.261-12.629c-0.064-0.088-0.099-0.194-0.097-0.303
			l0.247-16.855c0.004-0.265,0.214-0.481,0.479-0.492l1.388-0.058l1.289-0.054c-0.816-1.296-1.673-2.563-2.58-3.793
			c-0.15-0.204-0.3-0.408-0.452-0.61l-4.458,0.241l-0.047,23.03l12.868,17.089l4.243-2.292c0.001-0.159,0.012-0.316,0.012-0.475
			C125.708,63.737,125.691,63.479,125.688,63.218z"/>
		<path fill="#F4EFEF" d="M78.347,83.473c0.024-0.015,0.052-0.019,0.078-0.028l9.092-28.195L63.249,37.397L38.983,55.174
			l9.093,28.271c0.032,0.013,0.066,0.019,0.097,0.04C48.345,83.602,48.42,84,48.38,84h29.744C78.083,84,78.162,83.587,78.347,83.473
			z M74.977,80H51.523c-0.218,0-0.409-0.14-0.476-0.347L43.8,57.047c-0.064-0.205,0.008-0.429,0.181-0.556l18.782-13.795
			c0.015-0.064-0.026-0.008,0.015-0.064c0.162-0.224,0.543-0.392,0.767-0.229l2.471,1.795l16.508,12.295
			c0.172,0.127,0.242,0.351,0.178,0.554l-7.248,22.606C75.386,79.86,75.194,80,74.977,80z"/>
		<path fill="#F4EFEF" d="M17.998,26.648l-4.563-0.247c-0.006,0-0.01-0.004-0.017-0.004c-0.069,0.093-0.145,0.182-0.214,0.274
			c-0.997,1.332-1.929,2.715-2.818,4.127l1.414,0.058l1.565,0.065c0.265,0.011,0.476,0.228,0.479,0.492l0.246,16.855
			c0.002,0.109-0.032,0.215-0.097,0.303l-9.26,12.629c-0.097,0.132-0.249,0.205-0.403,0.205c-0.079,0-0.158-0.019-0.232-0.057
			l-2.151-1.127l-0.991-0.52c-0.088,1.302-0.147,2.612-0.154,3.935C0.8,63.758,0.792,63.878,0.792,64c0,0.136,0.01,0.269,0.01,0.404
			l4.375,2.364l12.867-17.089L17.998,26.648z"/>
		<path fill="#F4EFEF" d="M113.794,99.687c-0.026-0.035-0.056-0.069-0.072-0.112l-1.664-4.256l-21.883,7.175l-12.195,17.576
			l3.734,3.525c0.02,0.019,0.029,0.043,0.045,0.064c0.006-0.002,0.012-0.004,0.018-0.006c1.797-0.559,3.554-1.206,5.276-1.919
			l-1.199-1.132l-1.591-1.5c-0.18-0.169-0.208-0.446-0.066-0.649l8.927-12.867c0.062-0.089,0.152-0.157,0.255-0.19l16.019-5.252
			c0.251-0.084,0.524,0.046,0.622,0.293l0.628,1.606l0.68,1.738c0.005,0.012,0.003,0.023,0.006,0.035
			c1.057-1.273,2.053-2.598,3.007-3.954C114.132,99.929,113.919,99.853,113.794,99.687z"/>
		<path fill="#CC0000" d="M81.763,123.663l0.014-0.011c-0.006,0.002-0.012,0.003-0.018,0.006
			C81.761,123.659,81.761,123.661,81.763,123.663z"/>
		<path fill="#F4EFEF" d="M35.188,102.493l-21.883-7.175l-1.553,3.971c0.266,0.386,0.54,0.764,0.813,1.144
			c0.628,0.871,1.276,1.727,1.948,2.563l0.334-0.855l0.666-1.704c0.097-0.247,0.368-0.376,0.621-0.293l16.02,5.252
			c0.104,0.033,0.192,0.101,0.254,0.19l8.928,12.867c0.142,0.203,0.113,0.479-0.066,0.649l-1.666,1.571l-0.83,0.785
			c1.269,0.543,2.564,1.034,3.875,1.494c0.41,0.144,0.822,0.285,1.236,0.419l3.498-3.302L35.188,102.493z"/>
		<path fill="#BC3F2C" d="M31.685,106.293l-15.41-5.052l-0.596,1.521l-0.442,1.133c0.394,0.473,0.8,0.933,1.207,1.394
			c5.669,6.419,12.631,11.666,20.479,15.33c0.287,0.134,0.576,0.262,0.866,0.392l1.003-0.947l1.479-1.395L31.685,106.293z"/>
		<path fill="#BC3F2C" d="M110.467,104.258c-0.026-0.035-0.056-0.069-0.072-0.112l-0.579-1.481l-0.557-1.423l-15.409,5.052
			l-8.587,12.375l1.402,1.324l1.167,1.101c0.021,0.021,0.032,0.047,0.05,0.07c0.042,0.057,0.07,0.117,0.086,0.184
			c8.852-3.83,16.642-9.653,22.816-16.898C110.657,104.429,110.546,104.362,110.467,104.258z"/>
		<path fill="#BC3F2C" d="M125.293,56.898c-0.95-8.347-3.549-16.198-7.466-23.222c-0.355-0.636-0.713-1.269-1.089-1.891
			l-1.574,0.065l-1.205,0.05l-0.238,16.215l8.907,12.146l1.76-0.922l1.085-0.569C125.42,58.145,125.363,57.52,125.293,56.898z"/>
		<path fill="#CC0000" d="M1.062,58.312l-0.092,0.286c0.022,0.007,0.046,0.009,0.068,0.02C1.048,58.517,1.054,58.414,1.062,58.312z"
			/>
		<path fill="#BC3F2C" d="M12.852,31.901l-1.384-0.058l-1.699-0.07c-0.135,0.225-0.26,0.456-0.393,0.682
			c-4.537,7.72-7.463,16.491-8.313,25.857c-0.009,0.102-0.015,0.204-0.023,0.306c0.005,0.002,0.009,0.001,0.013,0.004L2.27,59.26
			l1.913,1.002l8.906-12.146L12.852,31.901z"/>
		<path fill="#F4EFEF" d="M82.614,4.666c-0.002-0.012,0.002-0.023,0.001-0.036c-0.048-0.016-0.096-0.033-0.144-0.048
			c-1.309-0.425-2.633-0.812-3.977-1.15l0.207,1.167l0.371,2.082c0.043,0.244-0.098,0.482-0.332,0.561l-15.538,5.254
			c-0.052,0.018-0.106,0.026-0.16,0.026s-0.106-0.008-0.157-0.025L46.134,6.921c-0.252-0.084-0.395-0.35-0.324-0.605l0.428-1.574
			l0.242-0.895c-0.997,0.278-1.984,0.581-2.961,0.907c-0.326,0.108-0.651,0.216-0.975,0.33l-1.146,4.217l21.851,7.272l20.265-6.853
			L82.614,4.666z"/>
		<path fill="#CC0000" d="M82.616,4.581l-0.145,0.001c0.048,0.015,0.096,0.032,0.144,0.048C82.613,4.613,82.616,4.598,82.616,4.581z
			"/>
		<polygon fill="#BC3F2C" points="64.167,42.688 44.862,57.083 51.888,79 74.612,79 82.451,56.269 		"/>
		<path fill="#BC3F2C" d="M77.688,4.603l-0.226-1.269c-0.006-0.029,0.002-0.057,0.002-0.086c0-0.018,0-0.037,0.002-0.054
			c-4.57-1.068-9.325-1.651-14.216-1.651c-5.099,0-10.052,0.628-14.798,1.786c-0.283,0.069-0.568,0.127-0.85,0.2l-0.328,1.21
			l-0.376,1.384l16.144,5.372l14.971-5.062L77.688,4.603z"/>
	</g>
	<g>
		
			<circle fill="none" stroke="#333333" stroke-width="2" stroke-linecap="round" stroke-linejoin="round" stroke-miterlimit="10" cx="64.25" cy="64" r="62.958"/>
		
			<polygon fill="none" stroke="#333333" stroke-width="2" stroke-linecap="round" stroke-linejoin="round" stroke-miterlimit="10" points="
			48.891,84.5 39.397,54.983 64.25,36.777 89.103,55.059 79.609,84.5 		"/>
		
			<polyline fill="none" stroke="#333333" stroke-width="2" stroke-linecap="round" stroke-linejoin="round" stroke-miterlimit="10" points="
			44.993,123.957 49.04,120.137 36.504,102.07 14.013,94.695 12.176,99.392 		"/>
		
			<polyline fill="none" stroke="#333333" stroke-width="2" stroke-linecap="round" stroke-linejoin="round" stroke-miterlimit="10" points="
			39.044,121.458 41.927,118.737 32.999,105.871 16.98,100.619 15.673,103.963 		"/>
		
			<polyline fill="none" stroke="#333333" stroke-width="2" stroke-linecap="round" stroke-linejoin="round" stroke-miterlimit="10" points="
			88.489,121.458 85.606,118.737 94.534,105.871 110.553,100.619 111.86,103.963 		"/>
		
			<polyline fill="none" stroke="#333333" stroke-width="2" stroke-linecap="round" stroke-linejoin="round" stroke-miterlimit="10" points="
			126.989,59.065 123.479,60.905 114.219,48.276 114.466,31.421 118.054,31.272 		"/>
		
			<polyline fill="none" stroke="#333333" stroke-width="2" stroke-linecap="round" stroke-linejoin="round" stroke-miterlimit="10" points="
			1.82,59.065 5.331,60.905 14.591,48.276 14.345,31.421 10.757,31.272 		"/>
		
			<polyline fill="none" stroke="#333333" stroke-width="2" stroke-linecap="round" stroke-linejoin="round" stroke-miterlimit="10" points="
			1.422,64.767 6.317,67.412 19.545,49.845 19.497,26.175 14.462,25.902 		"/>
		
			<polyline fill="none" stroke="#333333" stroke-width="2" stroke-linecap="round" stroke-linejoin="round" stroke-miterlimit="10" points="
			127.208,64.767 122.312,67.412 109.085,49.845 109.133,26.175 114.168,25.902 		"/>
		
			<polyline fill="none" stroke="#333333" stroke-width="2" stroke-linecap="round" stroke-linejoin="round" stroke-miterlimit="10" points="
			84.106,4.579 85.081,10.058 64.25,17.102 41.792,9.627 43.114,4.761 		"/>
		
			<polyline fill="none" stroke="#333333" stroke-width="2" stroke-linecap="round" stroke-linejoin="round" stroke-miterlimit="10" points="
			82.37,123.957 78.323,120.137 90.859,102.07 113.351,94.695 115.188,99.392 		"/>
		
			<line fill="none" stroke="#333333" stroke-width="2" stroke-linecap="round" stroke-linejoin="round" stroke-miterlimit="10" x1="63.5" y1="37" x2="63.5" y2="17"/>
		
			<line fill="none" stroke="#333333" stroke-width="2" stroke-linecap="round" stroke-linejoin="round" stroke-miterlimit="10" x1="39.397" y1="54.683" x2="19.545" y2="49.845"/>
		
			<line fill="none" stroke="#333333" stroke-width="2" stroke-linecap="round" stroke-linejoin="round" stroke-miterlimit="10" x1="6.317" y1="67.412" x2="14.013" y2="94.695"/>
		
			<line fill="none" stroke="#333333" stroke-width="2" stroke-linecap="round" stroke-linejoin="round" stroke-miterlimit="10" x1="36.504" y1="102.07" x2="48.891" y2="83.898"/>
		
			<line fill="none" stroke="#333333" stroke-width="2" stroke-linecap="round" stroke-linejoin="round" stroke-miterlimit="10" x1="79.609" y1="83.898" x2="90.859" y2="102.07"/>
		
			<line fill="none" stroke="#333333" stroke-width="2" stroke-linecap="round" stroke-linejoin="round" stroke-miterlimit="10" x1="78" y1="120.5" x2="49" y2="120.5"/>
		
			<line fill="none" stroke="#333333" stroke-width="2" stroke-linecap="round" stroke-linejoin="round" stroke-miterlimit="10" x1="89.103" y1="54.683" x2="109.085" y2="49.845"/>
		
			<line fill="none" stroke="#333333" stroke-width="2" stroke-linecap="round" stroke-linejoin="round" stroke-miterlimit="10" x1="122.312" y1="67.412" x2="113.351" y2="94.695"/>
		
			<line fill="none" stroke="#333333" stroke-width="2" stroke-linecap="round" stroke-linejoin="round" stroke-miterlimit="10" x1="109.133" y1="26.175" x2="85.081" y2="10.058"/>
		
			<line fill="none" stroke="#333333" stroke-width="2" stroke-linecap="round" stroke-linejoin="round" stroke-miterlimit="10" x1="41.792" y1="9.627" x2="19.497" y2="26.175"/>
		<path fill="none" stroke="#333333" stroke-width="2" stroke-linecap="round" stroke-linejoin="round" stroke-miterlimit="10" d="
			M74.925,50.562l8.299,6.332L75.977,79.5H52.523l-7.247-22.606L64.25,42.958 M64.422,42.942l2.299,1.661"/>
		
			<polyline fill="none" stroke="#333333" stroke-width="2" stroke-linecap="round" stroke-linejoin="round" stroke-miterlimit="10" points="
			78.954,3.246 79.581,6.768 64.043,12.021 47.292,6.447 48.138,3.332 		"/>
	</g>
</g>
</svg>
