<?xml version="1.0" encoding="utf-8"?>
<!-- Generator: Adobe Illustrator 16.0.0, SVG Export Plug-In . SVG Version: 6.00 Build 0)  -->
<!DOCTYPE svg PUBLIC "-//W3C//DTD SVG 1.1//EN" "http://www.w3.org/Graphics/SVG/1.1/DTD/svg11.dtd">
<svg version="1.1" id="Layer_1" xmlns="http://www.w3.org/2000/svg" xmlns:xlink="http://www.w3.org/1999/xlink" x="0px" y="0px"
	 width="128px" height="128px" viewBox="0 0 128 128" enable-background="new 0 0 128 128" xml:space="preserve">
<g>
	<g>
		<path fill="#F4EFEF" d="M61.421,36.146c-0.25-6.437-0.063-12.944,0.555-19.341c0.014-0.143,0.087-0.272,0.203-0.356
			c0.115-0.084,0.261-0.114,0.4-0.084c22.648,4.949,43.128,14.585,60.911,28.625c-0.575-1.796-1.221-3.561-1.95-5.282
			c-17.336-12.823-37.094-21.694-58.73-26.364c-0.254-0.054-0.423-0.294-0.391-0.551c0.475-3.789,1.105-7.566,1.867-11.244
			c-0.096,0-0.19-0.007-0.286-0.007c-0.976,0-1.943,0.029-2.907,0.074c-0.356,1.804-0.628,3.643-0.883,5.427
			c-0.326,2.286-0.664,4.647-1.201,6.993c0.041,0.144,0.072,0.255,0.072,0.387c-0.817,7.401-1.039,15.155-0.662,23.1
			c-0.018,0.224,0.014,0.391,0.048,0.549c0.444,8.443,1.626,16.86,3.525,25.098c0.04,0.174-0.016,0.356-0.146,0.478
			c-5.502,5.143-11.479,9.888-17.762,14.106c-0.084,0.056-0.182,0.085-0.279,0.085c-0.055,0-0.111-0.009-0.164-0.028
			c-0.148-0.051-0.264-0.169-0.312-0.319c-7.459-23.208-9.272-46.827-5.414-70.22c-1.095,0.505-2.176,1.035-3.234,1.601
			c-3.563,23.6-1.503,47.341,6.133,70.569c0.072,0.218-0.014,0.457-0.208,0.579c-5.448,3.432-11.179,6.521-17.03,9.183
			c-0.066,0.03-0.137,0.045-0.207,0.045c-0.069,0-0.139-0.014-0.203-0.043c-0.131-0.058-0.23-0.169-0.273-0.305
			c-6.931-21.756-8.872-43.975-5.804-66.067c-1.26,1.434-2.456,2.924-3.582,4.469c-2.234,21.046,0.003,42.21,6.655,62.907
			c0.078,0.247-0.043,0.513-0.283,0.614c-3.391,1.427-6.834,2.721-10.248,3.859c0.506,0.893,1.033,1.771,1.581,2.637
			c3.803-1.286,7.614-2.752,11.337-4.369c0.031-0.013,0.068-0.024,0.105-0.032c0.087-0.032,0.176-0.075,0.27-0.131
			c7.059-3.098,13.889-6.761,20.357-10.914c0.221-0.106,0.351-0.188,0.451-0.279c7.203-4.676,13.955-9.945,20.131-15.711
			c0.131-0.122,0.316-0.163,0.487-0.113c7.188,2.189,14.285,4.994,21.095,8.334c0.141,0.069,0.24,0.2,0.271,0.354
			c0.029,0.154-0.015,0.313-0.12,0.43c-16.311,18-35.859,31.361-58.105,39.741c0.988,0.715,1.999,1.399,3.029,2.057
			c22.212-8.715,41.734-22.367,58.025-40.587c0.153-0.171,0.401-0.215,0.606-0.109c5.696,3.002,11.236,6.42,16.468,10.158
			c0.116,0.083,0.191,0.212,0.206,0.354c0.016,0.142-0.031,0.284-0.127,0.39c-15.469,16.98-33.86,29.821-54.67,38.204
			c1.834,0.39,3.7,0.689,5.589,0.913c19.52-8.594,36.873-21.177,51.581-37.406c0.173-0.192,0.465-0.22,0.672-0.062
			c3.067,2.326,6.037,4.775,8.846,7.282c0.522-0.879,1.023-1.772,1.504-2.68c-3.132-2.773-6.436-5.456-9.835-7.973
			c-0.03-0.023-0.073-0.065-0.099-0.094c-0.04-0.032-0.13-0.094-0.237-0.153c-6.211-4.563-12.799-8.648-19.636-12.177
			c-0.203-0.138-0.334-0.206-0.459-0.246c-7.648-3.9-15.587-7.112-23.669-9.579c-0.17-0.052-0.301-0.191-0.341-0.366
			c-1.679-7.266-2.788-14.753-3.3-22.254c-0.011-0.157,0.053-0.31,0.172-0.412c0.119-0.103,0.279-0.143,0.433-0.111
			c23.918,5.164,45.396,15.524,63.864,30.779c0.127-1.209,0.216-2.43,0.272-3.658c-18.746-15.055-40.466-25.244-64.565-30.281
			C61.595,36.569,61.431,36.375,61.421,36.146z"/>
		<polygon fill="#CC0000" points="57.001,14.016 57.003,14.004 57.001,14.01 		"/>
		<path fill="#F4EFEF" d="M33.589,8.474c-0.808,0.452-1.605,0.918-2.391,1.405c-3.859,2.392-7.436,5.194-10.676,8.343
			c-0.768,0.745-1.519,1.509-2.248,2.293c-3.312,22.239-1.497,44.625,5.4,66.543c5.515-2.535,10.916-5.451,16.067-8.676
			C32.237,55.368,30.175,31.854,33.589,8.474z"/>
		<path fill="#33A5D2" d="M57.479,38.206c-0.039-0.148-0.087-0.421-0.057-0.711c-0.383-7.922-0.659-15.729,0.161-23.127
			C57.535,14.276,57,14.157,57,14.016c0-0.002,0-0.004,0-0.006s0.502-0.004,0.502-0.006c0-0.035,0.255-0.073,0.262-0.106
			c0.54-2.333,1.003-4.703,1.331-6.997c0.245-1.714,0.572-3.478,0.908-5.223c-1.047,0.065-2.057,0.156-3.09,0.272
			c-5.104,0.577-10.01,1.765-14.668,3.5c-1.102,0.411-2.178,0.857-3.25,1.328c-3.938,23.235-2.23,46.704,5.08,69.772
			c5.958-4.041,11.633-8.559,16.876-13.438C59.077,54.908,57.91,46.53,57.479,38.206z"/>
		<path fill="#FFC52F" d="M65.694,1.584c-0.131-0.003-0.262-0.007-0.394-0.01c-0.743,3.561-1.36,7.217-1.832,10.889
			c14.604,3.194,28.351,8.302,41.082,15.231c5.589,3.042,10.979,6.441,16.16,10.182C111.026,16.936,90.087,2.239,65.694,1.584z"/>
		<path fill="#F4EFEF" d="M126.426,62.728c-0.086-4.245-0.594-8.385-1.489-12.383c-0.279-1.246-0.596-2.478-0.948-3.694
			C106.213,32.339,85.67,22.519,62.917,17.463c-0.559,6.042-0.73,12.179-0.512,18.255c23.852,5.043,45.376,15.119,64.011,29.936
			c0.015-0.551,0.042-1.099,0.042-1.654C126.458,63.573,126.435,63.152,126.426,62.728z"/>
		<path fill="#33A5D2" d="M62.688,40.896c0.52,7.128,1.584,14.239,3.164,21.151c8.043,2.473,15.941,5.677,23.48,9.528
			c0.148,0.041,0.368,0.154,0.597,0.315c6.824,3.517,13.458,7.63,19.656,12.189c0.119,0.061,0.268,0.165,0.399,0.282
			c3.347,2.485,6.606,5.13,9.704,7.863c0.477-0.937,0.931-1.888,1.361-2.851c2.045-4.58,3.551-9.447,4.444-14.526
			c0.183-1.034,0.338-2.076,0.469-3.126C107.679,56.489,86.396,46.118,62.688,40.896z"/>
		<path fill="#FFC52F" d="M108.629,89.613c-10.158,11.146-21.562,20.573-34.06,28.168c-5.144,3.126-10.479,5.931-15.98,8.428
			c1.785,0.154,3.586,0.25,5.411,0.25c22.305,0,41.905-11.761,52.956-29.399c0.077-0.123,0.158-0.243,0.234-0.366
			C114.472,94.258,111.599,91.878,108.629,89.613z"/>
		<path fill="#F4EFEF" d="M89.028,77.056c-16.18,18.01-35.517,31.554-57.48,40.291c0.764,0.466,1.541,0.91,2.324,1.344
			c4.068,2.25,8.416,4.049,12.972,5.354c0.828,0.237,1.661,0.459,2.503,0.662c0.007-0.003,0.012-0.009,0.019-0.012
			c21.032-8.245,39.604-21.048,55.212-38.061C99.624,83.124,94.397,79.905,89.028,77.056z"/>
		<path fill="#33A5D2" d="M65.334,66.81c-6.161,5.729-12.888,10.968-19.995,15.573c-0.113,0.112-0.33,0.251-0.582,0.366
			c-6.449,4.147-13.326,7.833-20.375,10.924c-0.111,0.072-0.275,0.148-0.442,0.205c-0.013,0.004-0.028,0.009-0.045,0.012
			c-3.655,1.586-7.396,3.025-11.128,4.295c0.527,0.805,1.074,1.595,1.638,2.372c3.051,4.211,6.606,8.031,10.589,11.361
			c0.826,0.691,1.668,1.364,2.529,2.013c22.148-8.231,41.619-21.423,57.883-39.222C78.914,71.562,72.166,68.907,65.334,66.81z"/>
		<path fill="#FFC52F" d="M11.747,47.765c-0.194-6.278,0.008-12.562,0.602-18.837C5.533,38.933,1.542,51.008,1.542,64
			c0,10.633,2.678,20.649,7.383,29.422c0.066,0.125,0.129,0.253,0.197,0.377c3.311-1.099,6.652-2.346,9.947-3.722
			C14.627,76.124,12.187,61.96,11.747,47.765z"/>
	</g>
	<g>
		
			<circle fill="none" stroke="#333333" stroke-width="2" stroke-linecap="round" stroke-linejoin="round" stroke-miterlimit="10" cx="64" cy="64" r="62.958"/>
		<path fill="none" stroke="#333333" stroke-width="2" stroke-linecap="round" stroke-linejoin="round" stroke-miterlimit="10" d="
			M34.226,8.513c-3.641,23.806-1.581,47.679,6.113,71.084c-5.442,3.428-11.115,6.488-16.971,9.15
			c-7.07-22.194-8.951-44.832-5.576-67.394"/>
		<path fill="none" stroke="#333333" stroke-width="2" stroke-linecap="round" stroke-linejoin="round" stroke-miterlimit="10" d="
			M60.672,1.122C59.795,5.384,59.5,9.687,58.5,14.01c0,0.002,0,0.004,0,0.006c0,0.137,0.08,0.272,0.08,0.406
			c-0.85,7.673-1.026,15.412-0.66,23.124c-0.022,0.216,0.014,0.429,0.059,0.633c0.438,8.45,1.625,16.858,3.527,25.103
			c-5.514,5.151-11.436,9.851-17.7,14.057c-7.516-23.38-9.324-47.225-5.243-70.975"/>
		<path fill="none" stroke="#333333" stroke-width="2" stroke-linecap="round" stroke-linejoin="round" stroke-miterlimit="10" d="
			M121.969,39.4c-17.455-12.94-37.272-21.844-59.054-26.545c0.496-3.961,1.154-7.902,1.981-11.807"/>
		<path fill="none" stroke="#333333" stroke-width="2" stroke-linecap="round" stroke-linejoin="round" stroke-miterlimit="10" d="
			M126.899,66.666c-18.879-15.215-40.707-25.467-64.979-30.539c-0.25-6.428-0.066-12.872,0.552-19.274
			c23.112,5.05,43.943,14.964,61.987,29.532"/>
		<path fill="none" stroke="#333333" stroke-width="2" stroke-linecap="round" stroke-linejoin="round" stroke-miterlimit="10" d="
			M119.915,93.084c-3.282-2.927-6.699-5.701-10.233-8.318c-0.011-0.009-0.018-0.021-0.028-0.03
			c-0.113-0.101-0.236-0.183-0.363-0.253c-6.215-4.571-12.793-8.646-19.648-12.184c-0.169-0.119-0.347-0.218-0.536-0.278
			c-7.593-3.878-15.521-7.092-23.675-9.58c-1.684-7.289-2.779-14.711-3.288-22.176c24.141,5.212,45.774,15.705,64.37,31.258"/>
		<path fill="none" stroke="#333333" stroke-width="2" stroke-linecap="round" stroke-linejoin="round" stroke-miterlimit="10" d="
			M56.664,126.535c19.683-8.639,37.095-21.257,51.903-37.598c3.203,2.429,6.308,4.989,9.293,7.68"/>
		<path fill="none" stroke="#333333" stroke-width="2" stroke-linecap="round" stroke-linejoin="round" stroke-miterlimit="10" d="
			M30.421,117.265c22.434-8.751,42.076-22.47,58.496-40.834c5.691,3,11.177,6.383,16.41,10.122
			c-15.736,17.275-34.469,30.252-55.779,38.606"/>
		<path fill="none" stroke="#333333" stroke-width="2" stroke-linecap="round" stroke-linejoin="round" stroke-miterlimit="10" d="
			M10.961,97.935c3.992-1.336,7.925-2.849,11.786-4.526c0.012-0.003,0.021-0.001,0.033-0.005c0.143-0.048,0.275-0.113,0.4-0.188
			c7.062-3.096,13.879-6.754,20.369-10.921c0.191-0.087,0.368-0.194,0.518-0.33c7.156-4.637,13.904-9.897,20.137-15.716
			c7.215,2.198,14.248,4.982,21.02,8.304c-16.476,18.183-36.23,31.617-58.814,39.958"/>
		<path fill="none" stroke="#333333" stroke-width="2" stroke-linecap="round" stroke-linejoin="round" stroke-miterlimit="10" d="
			M13.028,27.038c-2.283,21.224-0.047,42.468,6.656,63.323c-3.551,1.495-7.161,2.852-10.821,4.053"/>
	</g>
</g>
</svg>
