<?xml version="1.0" encoding="utf-8"?>
<!-- Generator: Adobe Illustrator 16.0.0, SVG Export Plug-In . SVG Version: 6.00 Build 0)  -->
<!DOCTYPE svg PUBLIC "-//W3C//DTD SVG 1.1//EN" "http://www.w3.org/Graphics/SVG/1.1/DTD/svg11.dtd">
<svg version="1.1" id="Layer_1" xmlns="http://www.w3.org/2000/svg" xmlns:xlink="http://www.w3.org/1999/xlink" x="0px" y="0px"
	 width="128px" height="128px" viewBox="0 0 128 128" enable-background="new 0 0 128 128" xml:space="preserve">
<g>
	<g>
		<path fill="none" d="M97.062,98.646c1.76,1.622,3.073,3.713,3.739,6.078c0.666-2.365,1.979-4.456,3.739-6.078
			c-1.187,0.354-2.439,0.551-3.739,0.551S98.248,99,97.062,98.646z"/>
		<path fill="none" d="M66.562,51.375c-1.672-1.599-2.918-3.631-3.562-5.917c-0.645,2.286-1.891,4.318-3.562,5.917
			c1.135-0.321,2.326-0.505,3.562-0.505S65.428,51.054,66.562,51.375z"/>
		<path fill="none" d="M79.34,98.646C78.154,99,76.9,99.196,75.601,99.196S73.047,99,71.861,98.646
			c1.76,1.622,3.072,3.713,3.739,6.079C76.268,102.358,77.58,100.268,79.34,98.646z"/>
		<path fill="none" d="M54.141,98.646C52.953,99,51.7,99.196,50.4,99.196S47.848,99,46.66,98.646c1.76,1.622,3.074,3.713,3.74,6.078
			C51.066,102.358,52.381,100.268,54.141,98.646z"/>
		<path fill="none" d="M71.929,73.529c1.167-0.341,2.396-0.533,3.672-0.533s2.505,0.192,3.672,0.533
			c-1.726-1.612-3.015-3.681-3.672-6.017C74.943,69.849,73.654,71.917,71.929,73.529z"/>
		<path fill="none" d="M84.461,95.718c1.187-0.354,2.44-0.551,3.74-0.551s2.553,0.196,3.739,0.551
			c-1.76-1.622-3.073-3.713-3.739-6.079C87.535,92.005,86.221,94.096,84.461,95.718z"/>
		<path fill="none" d="M54.072,73.529c-1.727-1.612-3.014-3.681-3.672-6.017c-0.426,1.514-1.117,2.914-2.021,4.153
			c-0.026,0.054-0.062,0.1-0.107,0.143c-0.463,0.618-0.979,1.194-1.543,1.721c1.166-0.341,2.396-0.533,3.672-0.533
			S52.906,73.188,54.072,73.529z"/>
		<path fill="none" d="M28.939,98.646C27.754,99,26.5,99.196,25.2,99.196S22.646,99,21.461,98.646
			c1.76,1.622,3.073,3.713,3.739,6.079C25.867,102.358,27.18,100.268,28.939,98.646z"/>
		<path fill="none" d="M63,38.373c0.668-2.374,1.988-4.471,3.758-6.095c-1.191,0.357-2.451,0.556-3.758,0.556
			s-2.565-0.198-3.757-0.556C61.012,33.902,62.332,35.999,63,38.373z"/>
		<path fill="none" d="M50.4,60.428c0.645-2.287,1.891-4.319,3.562-5.917c-1.135,0.321-2.326,0.505-3.562,0.505
			s-2.428-0.184-3.562-0.505C48.51,56.108,49.756,58.141,50.4,60.428z"/>
		<path fill="none" d="M84.529,76.537c1.727,1.613,3.014,3.682,3.672,6.017c0.657-2.335,1.945-4.403,3.671-6.017
			c-1.166,0.342-2.396,0.533-3.671,0.533S85.695,76.879,84.529,76.537z"/>
		<path fill="none" d="M72.038,54.511c1.673,1.598,2.919,3.63,3.562,5.917c0.644-2.287,1.89-4.319,3.562-5.917
			c-1.135,0.321-2.327,0.505-3.562,0.505S73.173,54.832,72.038,54.511z"/>
		<path fill="none" d="M63,89.639c-0.666,2.366-1.98,4.457-3.74,6.079c1.188-0.354,2.44-0.551,3.74-0.551s2.554,0.196,3.74,0.551
			C64.98,94.096,63.666,92.005,63,89.639z"/>
		<path fill="none" d="M66.672,76.537C65.506,76.879,64.275,77.07,63,77.07s-2.505-0.191-3.672-0.533
			c1.727,1.613,3.014,3.682,3.672,6.017C63.658,80.219,64.945,78.15,66.672,76.537z"/>
		<path fill="none" d="M37.801,82.554c0.658-2.335,1.945-4.403,3.672-6.017c-1.167,0.342-2.396,0.533-3.672,0.533
			s-2.506-0.191-3.672-0.533C35.855,78.15,37.143,80.219,37.801,82.554z"/>
		<path fill="none" d="M41.541,95.718c-1.76-1.622-3.074-3.713-3.74-6.079c-0.666,2.366-1.98,4.457-3.74,6.079
			c1.187-0.354,2.44-0.551,3.74-0.551S40.354,95.363,41.541,95.718z"/>
		<path fill="#BC3F2C" d="M63,96.167c-6.672,0-12.1,5.428-12.1,12.1s5.428,12.1,12.1,12.1s12.101-5.428,12.101-12.1
			S69.672,96.167,63,96.167z"/>
		<path fill="#4BB19B" d="M38.801,96.167c-6.672,0-12.101,5.428-12.101,12.1s5.429,12.1,12.101,12.1s12.1-5.428,12.1-12.1
			S45.473,96.167,38.801,96.167z"/>
		<path fill="#354E5C" d="M13.601,96.167c-6.673,0-12.101,5.428-12.101,12.1c0,2.061,0.521,4.002,1.434,5.702l16.369-16.368
			C17.603,96.688,15.662,96.167,13.601,96.167z"/>
		<path fill="#354E5C" d="M8.182,119.07c1.633,0.822,3.47,1.296,5.419,1.296c6.672,0,12.1-5.428,12.1-12.1
			c0-1.949-0.474-3.786-1.296-5.418L8.182,119.07z"/>
		<path fill="#F4EFEF" d="M20.188,98.13L3.464,114.854c0.979,1.502,2.284,2.767,3.812,3.709l16.621-16.62
			C22.954,100.414,21.689,99.109,20.188,98.13z"/>
		<path fill="#73BADD" d="M89.201,96.167c-6.672,0-12.101,5.428-12.101,12.1s5.429,12.1,12.101,12.1s12.1-5.428,12.1-12.1
			S95.873,96.167,89.201,96.167z"/>
		<path fill="#61C2AB" d="M64,76.07c6.672,0,12.101-5.428,12.101-12.101c0-6.672-5.429-12.1-12.101-12.1s-12.1,5.428-12.1,12.1
			C51.9,70.643,57.328,76.07,64,76.07z"/>
		<path fill="#EF934A" d="M76.101,19.733c0-6.672-5.429-12.1-12.101-12.1s-12.1,5.428-12.1,12.1S57.328,31.834,64,31.834
			S76.101,26.405,76.101,19.733z"/>
		<path fill="#F4EFEF" d="M98.779,96.35c-1.555,0-3.079-0.276-4.515-0.803c2.069,1.653,4.687,2.649,7.536,2.649
			c6.672,0,12.1-5.428,12.1-12.1c0-3.1-1.182-5.922-3.105-8.065c0.711,1.632,1.084,3.396,1.084,5.219
			C111.879,90.473,106.003,96.35,98.779,96.35z"/>
		<path fill="#F4EFEF" d="M28.951,60.896c0-1.842,0.383-3.624,1.109-5.271c-2.076,2.173-3.36,5.109-3.36,8.345
			c0,6.673,5.429,12.101,12.101,12.101c2.992,0,5.729-1.098,7.843-2.903c-1.458,0.546-3.011,0.829-4.593,0.829
			C34.828,73.996,28.951,68.12,28.951,60.896z"/>
		<path fill="#FFC52F" d="M38.801,51.87c-2.403,0-4.639,0.712-6.523,1.925c-0.012,0.008-0.023,0.014-0.035,0.021
			c-1.496,2.071-2.291,4.516-2.291,7.081c0,6.672,5.428,12.1,12.1,12.1c2.318,0,4.563-0.659,6.508-1.9
			c0.006-0.009,0.013-0.017,0.019-0.025c1.454-1.997,2.323-4.446,2.323-7.101C50.9,57.298,45.473,51.87,38.801,51.87z"/>
		<path fill="#CC0000" d="M31.266,53.783c-0.008,0.011-0.016,0.021-0.023,0.032c0.012-0.007,0.023-0.013,0.035-0.021L31.266,53.783z
			"/>
		<path fill="#CC0000" d="M47.577,71.07c-0.006,0.009-0.013,0.017-0.019,0.025c0.009-0.006,0.018-0.011,0.027-0.017L47.577,71.07z"
			/>
		<path fill="#54B265" d="M108,76.137v-0.063c0-0.025,0.249-0.02,0.231-0.044c-0.008-0.011,0.132-0.007,0.126-0.018
			c-1.92-1.281-4.151-2.023-6.627-2.023c-6.672,0-12.064,5.24-12.064,11.912c0,2.738,0.96,5.1,2.499,7.1h0.003
			c0.014,0,0.077,0.367,0.077,0.367c1.948,1.253,4.204,1.95,6.534,1.95c6.672,0,11.817-5.411,11.817-12.083
			C110.597,80.653,110,78.213,108,76.137z"/>
		<path fill="#BC3F2C" d="M89.201,76.07c6.672,0,12.1-5.428,12.1-12.101c0-6.672-5.428-12.1-12.1-12.1s-12.101,5.428-12.101,12.1
			C77.101,70.643,82.529,76.07,89.201,76.07z"/>
		<path fill="#E36D60" d="M64.5,86.097c0,6.672,5.428,12.1,12.101,12.1c2.005,0,3.894-0.498,5.561-1.364L65.865,80.536
			C64.998,82.203,64.5,84.091,64.5,86.097z"/>
		<path fill="#E36D60" d="M88.701,86.097c0-6.672-5.428-12.101-12.101-12.101c-2.005,0-3.894,0.498-5.561,1.365l16.296,16.296
			C88.203,89.99,88.701,88.102,88.701,86.097z"/>
		<path fill="#F4EFEF" d="M66.384,79.641l16.673,16.672c1.515-0.96,2.799-2.245,3.76-3.76L70.145,75.88
			C68.63,76.841,67.345,78.126,66.384,79.641z"/>
		<path fill="#73BADD" d="M51.4,73.996c-6.672,0-12.1,5.429-12.1,12.101s5.428,12.1,12.1,12.1s12.1-5.428,12.1-12.1
			S58.072,73.996,51.4,73.996z"/>
		<path fill="#FFC52F" d="M76.601,54.016c6.673,0,12.101-5.429,12.101-12.101s-5.428-12.1-12.101-12.1S64.5,35.243,64.5,41.915
			S69.928,54.016,76.601,54.016z"/>
		<path fill="#33A5D2" d="M40.158,39h23c0.002,0,0.004,0,0.006,0c-1.262-5-6.051-9.251-11.764-9.251
			c-5.723,0-10.519,3.965-11.771,9.311C39.724,39.066,40.046,39,40.158,39z"/>
		<path fill="#F4EFEF" d="M63.348,40.028C63.289,40.051,63.226,40,63.158,40h-23c-0.1,0-0.436,0.086-0.562,0.086
			c-0.057,0-0.101,0.017-0.146,0.003c-0.088,0.586-0.148,1.198-0.148,1.809c0,1.116,0.164,2.135,0.449,3.162
			C39.788,45.052,40.146,45,40.158,45h22.895c0.283-1,0.447-2.068,0.447-3.184C63.5,41.196,63.438,40.624,63.348,40.028z"/>
		<path fill="#33A5D2" d="M40.066,46.047c1.713,4.605,6.14,7.87,11.334,7.87c5.188,0,9.609-2.917,11.326-7.917H40.158
			C40.126,46,40.098,46.053,40.066,46.047z"/>
		<path fill="#E07D46" d="M26.2,73.996c-6.672,0-12.1,5.429-12.1,12.101s5.428,12.1,12.1,12.1c6.673,0,12.101-5.428,12.101-12.1
			S32.873,73.996,26.2,73.996z"/>
		<path fill="#FFC52F" d="M114.4,120.366c6.672,0,12.1-5.428,12.1-12.1s-5.428-12.1-12.1-12.1s-12.1,5.428-12.1,12.1
			S107.729,120.366,114.4,120.366z"/>
		<path fill="none" stroke="#333333" stroke-width="2" stroke-linecap="round" stroke-linejoin="round" stroke-miterlimit="10" d="
			M39.385,104.632c-0.146-0.021-0.363-0.041-0.584-0.041c-2.027,0-3.677,1.648-3.677,3.676s1.649,3.676,3.677,3.676
			s3.676-1.648,3.676-3.676c0-0.225-0.021-0.443-0.059-0.657C42.061,105.495,39.412,104.64,39.385,104.632z"/>
		<path fill="none" stroke="#333333" stroke-width="2" stroke-linecap="round" stroke-linejoin="round" stroke-miterlimit="10" d="
			M92.813,107.583c-0.299-2.527-2.922-2.93-2.948-2.934c-0.228-0.039-0.443-0.059-0.664-0.059c-2.027,0-3.677,1.648-3.677,3.676
			s1.649,3.676,3.677,3.676c2.026,0,3.676-1.648,3.676-3.676c0-0.184-0.023-0.361-0.045-0.538L92.813,107.583z"/>
		<path fill="#F4EFEF" d="M66.676,19.733c0-0.227-0.024-0.447-0.059-0.664c-0.451-2.865-2.612-2.948-2.857-2.948
			c-0.029,0-0.084-0.002-0.112-0.007c-0.21-0.037-0.427-0.057-0.647-0.057c-2.027,0-3.676,1.648-3.676,3.676S60.973,23.41,63,23.41
			S66.676,21.761,66.676,19.733z"/>
	</g>
	<g>
		
			<circle fill="none" stroke="#333333" stroke-width="2" stroke-linecap="round" stroke-linejoin="round" stroke-miterlimit="10" cx="64" cy="108.267" r="12.6"/>
		
			<circle fill="none" stroke="#333333" stroke-width="2" stroke-linecap="round" stroke-linejoin="round" stroke-miterlimit="10" cx="38.8" cy="108.267" r="12.6"/>
		
			<circle fill="none" stroke="#333333" stroke-width="2" stroke-linecap="round" stroke-linejoin="round" stroke-miterlimit="10" cx="13.6" cy="108.267" r="12.6"/>
		
			<circle fill="none" stroke="#333333" stroke-width="2" stroke-linecap="round" stroke-linejoin="round" stroke-miterlimit="10" cx="89.201" cy="108.267" r="12.6"/>
		
			<circle fill="none" stroke="#333333" stroke-width="2" stroke-linecap="round" stroke-linejoin="round" stroke-miterlimit="10" cx="64" cy="63.97" r="12.6"/>
		
			<circle fill="none" stroke="#333333" stroke-width="2" stroke-linecap="round" stroke-linejoin="round" stroke-miterlimit="10" cx="64" cy="19.733" r="12.6"/>
		
			<circle fill="none" stroke="#333333" stroke-width="2" stroke-linecap="round" stroke-linejoin="round" stroke-miterlimit="10" cx="38.8" cy="63.97" r="12.6"/>
		<path fill="none" stroke="#333333" stroke-width="2" stroke-linecap="round" stroke-linejoin="round" stroke-miterlimit="10" d="
			M48.937,71.451c-1.979,1.293-4.345,2.045-6.886,2.045c-6.958,0-12.6-5.641-12.6-12.6c0-2.804,0.916-5.393,2.463-7.485"/>
		<path fill="none" stroke="#333333" stroke-width="2" stroke-linecap="round" stroke-linejoin="round" stroke-miterlimit="10" d="
			M91.895,93.805c1.979,1.293,4.344,2.045,6.885,2.045c6.959,0,12.6-5.641,12.6-12.6c0-2.804-0.915-5.393-2.463-7.486"/>
		
			<circle fill="none" stroke="#333333" stroke-width="2" stroke-linecap="round" stroke-linejoin="round" stroke-miterlimit="10" cx="89.201" cy="63.97" r="12.6"/>
		
			<circle fill="none" stroke="#333333" stroke-width="2" stroke-linecap="round" stroke-linejoin="round" stroke-miterlimit="10" cx="76.601" cy="86.097" r="12.601"/>
		
			<circle fill="none" stroke="#333333" stroke-width="2" stroke-linecap="round" stroke-linejoin="round" stroke-miterlimit="10" cx="51.4" cy="86.097" r="12.6"/>
		
			<circle fill="none" stroke="#333333" stroke-width="2" stroke-linecap="round" stroke-linejoin="round" stroke-miterlimit="10" cx="76.601" cy="41.915" r="12.601"/>
		
			<circle fill="none" stroke="#333333" stroke-width="2" stroke-linecap="round" stroke-linejoin="round" stroke-miterlimit="10" cx="51.4" cy="41.915" r="12.6"/>
		
			<circle fill="none" stroke="#333333" stroke-width="2" stroke-linecap="round" stroke-linejoin="round" stroke-miterlimit="10" cx="26.201" cy="86.097" r="12.6"/>
		
			<circle fill="none" stroke="#333333" stroke-width="2" stroke-linecap="round" stroke-linejoin="round" stroke-miterlimit="10" cx="101.801" cy="86.097" r="12.6"/>
		
			<circle fill="none" stroke="#333333" stroke-width="2" stroke-linecap="round" stroke-linejoin="round" stroke-miterlimit="10" cx="114.4" cy="108.267" r="12.6"/>
		<g>
			
				<line fill="none" stroke="#333333" stroke-width="2" stroke-linecap="round" stroke-linejoin="round" stroke-miterlimit="10" x1="40" y1="39.5" x2="63" y2="39.5"/>
			
				<line fill="none" stroke="#333333" stroke-width="2" stroke-linecap="round" stroke-linejoin="round" stroke-miterlimit="10" x1="40" y1="45.5" x2="63" y2="45.5"/>
		</g>
		<g>
			
				<line fill="none" stroke="#333333" stroke-width="2" stroke-linecap="round" stroke-linejoin="round" stroke-miterlimit="10" x1="70.354" y1="75.382" x2="87.315" y2="92.344"/>
			
				<line fill="none" stroke="#333333" stroke-width="2" stroke-linecap="round" stroke-linejoin="round" stroke-miterlimit="10" x1="65.885" y1="79.849" x2="82.848" y2="96.812"/>
		</g>
		<g>
			
				<line fill="none" stroke="#333333" stroke-width="2" stroke-linecap="round" stroke-linejoin="round" stroke-miterlimit="10" x1="3.096" y1="114.514" x2="20.059" y2="97.552"/>
			
				<line fill="none" stroke="#333333" stroke-width="2" stroke-linecap="round" stroke-linejoin="round" stroke-miterlimit="10" x1="7.563" y1="118.981" x2="24.526" y2="102.019"/>
		</g>
		<path fill="none" stroke="#333333" stroke-width="2" stroke-linecap="round" stroke-linejoin="round" stroke-miterlimit="10" d="
			M42.911,107.525c0.043,0.24,0.065,0.488,0.065,0.741c0,2.307-1.87,4.176-4.176,4.176c-2.307,0-4.177-1.869-4.177-4.176
			c0-2.306,1.87-4.176,4.177-4.176c0.25,0,0.496,0.021,0.734,0.063"/>
		<path fill="none" stroke="#333333" stroke-width="2" stroke-linecap="round" stroke-linejoin="round" stroke-miterlimit="10" d="
			M93.311,107.525c0.043,0.24,0.066,0.488,0.066,0.741c0,2.307-1.87,4.176-4.176,4.176c-2.307,0-4.177-1.869-4.177-4.176
			c0-2.306,1.87-4.176,4.177-4.176c0.25,0,0.495,0.021,0.734,0.063"/>
		<path fill="none" stroke="#333333" stroke-width="2" stroke-linecap="round" stroke-linejoin="round" stroke-miterlimit="10" d="
			M68.111,18.992c0.043,0.24,0.064,0.488,0.064,0.741c0,2.307-1.869,4.177-4.176,4.177s-4.176-1.87-4.176-4.177
			s1.869-4.176,4.176-4.176c0.251,0,0.496,0.022,0.734,0.064"/>
	</g>
</g>
</svg>
