<?xml version="1.0" encoding="utf-8"?>
<!-- Generator: Adobe Illustrator 16.0.0, SVG Export Plug-In . SVG Version: 6.00 Build 0)  -->
<!DOCTYPE svg PUBLIC "-//W3C//DTD SVG 1.1//EN" "http://www.w3.org/Graphics/SVG/1.1/DTD/svg11.dtd">
<svg version="1.1" id="Layer_1" xmlns="http://www.w3.org/2000/svg" xmlns:xlink="http://www.w3.org/1999/xlink" x="0px" y="0px"
	 width="128px" height="128px" viewBox="0 0 128 128" enable-background="new 0 0 128 128" xml:space="preserve">
<g>
	<g>
		<path fill="#7C5135" d="M30.886,1.617c-9.744,0-17.58,2.472-22.068,6.959c-6.796,6.796-8.775,21.169-5.166,37.512
			C7.7,64.425,17.706,82.106,31.824,96.225C53.941,118.342,81.077,126,97.595,126h0.003c9.742,0,17.914-2.2,22.402-6.688
			c6.796-6.797,8.438-21.155,4.829-37.498c-4.05-18.335-14.055-36.161-28.173-50.279C74.538,9.418,47.401,1.617,30.886,1.617z
			 M116.835,116.595c-3.731,3.732-10.564,5.788-19.24,5.788c-15.752,0-41.688-7.542-62.941-28.796
			C21.067,80.002,11.444,62.827,7.557,45.226c-3.268-14.795-1.663-28.07,4.089-33.821c3.731-3.732,10.564-5.788,19.24-5.788
			c7.287,0,15.974,1.618,24.457,4.556l9.086,3.672c10.925,5.06,20.809,11.977,29.398,20.567
			c13.586,13.585,23.209,30.76,27.097,48.361C124.191,97.569,122.586,110.845,116.835,116.595z"/>
		<path fill="#CB5A30" d="M64.026,13.583l-9.256-3.741c-8.558-2.963-17.333-4.6-24.684-4.6c-8.61,0-14.429,2.317-18.056,5.945
			c-5.647,5.647-7.647,18.527-4.375,33.344c3.939,17.834,13.237,35.267,27.013,49.041c21.54,21.542,47.791,29.186,63.725,29.186
			c8.61,0,15.35-1.998,18.978-5.627c5.648-5.646,7.183-18.87,3.911-33.687c-3.939-17.834-13.694-35.242-27.47-49.017
			C85.102,25.717,75.08,18.703,64.026,13.583z"/>
	</g>
	<g>
		<g>
			<path fill="none" stroke="#333333" stroke-width="2" stroke-linecap="round" stroke-linejoin="round" stroke-miterlimit="10" d="
				M120.018,119.777c14.006-14.006,7.797-57.742-23.008-88.546S22.47-5.783,8.464,8.223C-5.543,22.229,0.666,65.964,31.471,96.77
				C62.275,127.574,106.011,133.783,120.018,119.777z"/>
			
				<line fill="none" stroke="#333333" stroke-width="2" stroke-linecap="round" stroke-linejoin="round" stroke-miterlimit="10" x1="26.192" y1="25.952" x2="102.181" y2="101.94"/>
			
				<line fill="none" stroke="#333333" stroke-width="2" stroke-linecap="round" stroke-linejoin="round" stroke-miterlimit="10" x1="27.108" y1="39.04" x2="39.28" y2="26.868"/>
			
				<line fill="none" stroke="#333333" stroke-width="2" stroke-linecap="round" stroke-linejoin="round" stroke-miterlimit="10" x1="34.239" y1="46.171" x2="46.411" y2="33.999"/>
			
				<line fill="none" stroke="#333333" stroke-width="2" stroke-linecap="round" stroke-linejoin="round" stroke-miterlimit="10" x1="41.282" y1="53.214" x2="53.454" y2="41.042"/>
			
				<line fill="none" stroke="#333333" stroke-width="2" stroke-linecap="round" stroke-linejoin="round" stroke-miterlimit="10" x1="48.413" y1="60.345" x2="60.585" y2="48.173"/>
			
				<line fill="none" stroke="#333333" stroke-width="2" stroke-linecap="round" stroke-linejoin="round" stroke-miterlimit="10" x1="55.544" y1="67.476" x2="67.716" y2="55.304"/>
			
				<line fill="none" stroke="#333333" stroke-width="2" stroke-linecap="round" stroke-linejoin="round" stroke-miterlimit="10" x1="62.587" y1="74.519" x2="74.759" y2="62.347"/>
			
				<line fill="none" stroke="#333333" stroke-width="2" stroke-linecap="round" stroke-linejoin="round" stroke-miterlimit="10" x1="69.719" y1="81.649" x2="81.89" y2="69.478"/>
			
				<line fill="none" stroke="#333333" stroke-width="2" stroke-linecap="round" stroke-linejoin="round" stroke-miterlimit="10" x1="76.85" y1="88.781" x2="89.021" y2="76.609"/>
			
				<line fill="none" stroke="#333333" stroke-width="2" stroke-linecap="round" stroke-linejoin="round" stroke-miterlimit="10" x1="83.893" y1="95.824" x2="96.063" y2="83.652"/>
			
				<line fill="none" stroke="#333333" stroke-width="2" stroke-linecap="round" stroke-linejoin="round" stroke-miterlimit="10" x1="91.023" y1="102.954" x2="103.194" y2="90.783"/>
		</g>
		<path fill="none" stroke="#333333" stroke-width="2" stroke-linecap="round" stroke-linejoin="round" stroke-miterlimit="10" d="
			M64.241,14.309c9.807,4.543,19.966,11.19,29.232,20.458c13.52,13.519,23.095,30.606,26.962,48.115
			c3.231,14.632,1.68,27.727-3.954,33.36c-3.637,3.638-10.345,5.642-18.887,5.642c-15.656,0-41.443-7.503-62.588-28.649
			C21.487,79.715,11.912,62.627,8.045,45.118c-3.231-14.632-1.68-27.727,3.954-33.359c3.638-3.639,10.345-5.642,18.887-5.642
			 M30.886,6.117c6.648,0,15.123,1.353,24.294,4.528"/>
		
			<line fill="none" stroke="#333333" stroke-width="2" stroke-linecap="round" stroke-linejoin="round" stroke-miterlimit="10" x1="26.192" y1="25.952" x2="102.181" y2="101.94"/>
		
			<line fill="none" stroke="#333333" stroke-width="2" stroke-linecap="round" stroke-linejoin="round" stroke-miterlimit="10" x1="27.108" y1="39.04" x2="39.28" y2="26.868"/>
		
			<line fill="none" stroke="#333333" stroke-width="2" stroke-linecap="round" stroke-linejoin="round" stroke-miterlimit="10" x1="34.239" y1="46.171" x2="46.411" y2="33.999"/>
		
			<line fill="none" stroke="#333333" stroke-width="2" stroke-linecap="round" stroke-linejoin="round" stroke-miterlimit="10" x1="41.282" y1="53.214" x2="53.454" y2="41.042"/>
		
			<line fill="none" stroke="#333333" stroke-width="2" stroke-linecap="round" stroke-linejoin="round" stroke-miterlimit="10" x1="48.413" y1="60.345" x2="60.585" y2="48.173"/>
		
			<line fill="none" stroke="#333333" stroke-width="2" stroke-linecap="round" stroke-linejoin="round" stroke-miterlimit="10" x1="55.544" y1="67.476" x2="67.716" y2="55.304"/>
		
			<line fill="none" stroke="#333333" stroke-width="2" stroke-linecap="round" stroke-linejoin="round" stroke-miterlimit="10" x1="62.587" y1="74.519" x2="74.759" y2="62.347"/>
		
			<line fill="none" stroke="#333333" stroke-width="2" stroke-linecap="round" stroke-linejoin="round" stroke-miterlimit="10" x1="69.719" y1="81.649" x2="81.89" y2="69.478"/>
		
			<line fill="none" stroke="#333333" stroke-width="2" stroke-linecap="round" stroke-linejoin="round" stroke-miterlimit="10" x1="76.85" y1="88.781" x2="89.021" y2="76.609"/>
		
			<line fill="none" stroke="#333333" stroke-width="2" stroke-linecap="round" stroke-linejoin="round" stroke-miterlimit="10" x1="83.893" y1="95.824" x2="96.063" y2="83.652"/>
		
			<line fill="none" stroke="#333333" stroke-width="2" stroke-linecap="round" stroke-linejoin="round" stroke-miterlimit="10" x1="91.023" y1="102.954" x2="103.194" y2="90.783"/>
	</g>
</g>
</svg>
