<?xml version="1.0" encoding="utf-8"?>
<!-- Generator: Adobe Illustrator 16.0.0, SVG Export Plug-In . SVG Version: 6.00 Build 0)  -->
<!DOCTYPE svg PUBLIC "-//W3C//DTD SVG 1.1//EN" "http://www.w3.org/Graphics/SVG/1.1/DTD/svg11.dtd">
<svg version="1.1" id="Layer_1" xmlns="http://www.w3.org/2000/svg" xmlns:xlink="http://www.w3.org/1999/xlink" x="0px" y="0px"
	 width="128px" height="128px" viewBox="0 0 128 128" enable-background="new 0 0 128 128" xml:space="preserve">
<g>
	<g>
		<path fill="#F4AEA8" d="M63.25,1.5C28.788,1.5,0.75,29.538,0.75,64s28.038,62.5,62.5,62.5c34.463,0,62.5-28.038,62.5-62.5
			S97.713,1.5,63.25,1.5z"/>
		<path fill="#E36D60" d="M109.201,28.18c-2.077-2.799-8.974-8.997-9.043-9.059C90.021,10.988,77.265,6.5,64.26,6.5L63.53,6.504
			C31.827,6.9,6.358,33.015,6.754,64.719C7.146,96.028,32.933,121.5,64.24,121.5l0.729-0.004
			c31.702-0.396,57.173-26.512,56.776-58.215C121.595,51.176,117.257,39.039,109.201,28.18z"/>
		<path fill="#BC3F2C" d="M48.245,84.517c-4.137,0-7.503,3.366-7.503,7.502s3.366,7.502,7.503,7.502s7.502-3.366,7.502-7.502
			S52.382,84.517,48.245,84.517z"/>
		<path fill="#BC3F2C" d="M78.206,84.517c-4.137,0-7.503,3.366-7.503,7.502s3.366,7.502,7.503,7.502s7.502-3.366,7.502-7.502
			S82.343,84.517,78.206,84.517z"/>
		<path fill="#BC3F2C" d="M63.25,61.474c-4.138,0-7.503,3.366-7.503,7.502s3.365,7.502,7.503,7.502s7.503-3.366,7.503-7.502
			S67.388,61.474,63.25,61.474z"/>
	</g>
	<g>
		
			<circle fill="none" stroke="#333333" stroke-width="2" stroke-linecap="round" stroke-linejoin="round" stroke-miterlimit="10" cx="64.25" cy="64" r="63"/>
		
			<circle fill="none" stroke="#333333" stroke-width="2" stroke-linecap="round" stroke-linejoin="round" stroke-miterlimit="10" cx="49.245" cy="92.019" r="8.002"/>
		
			<circle fill="none" stroke="#333333" stroke-width="2" stroke-linecap="round" stroke-linejoin="round" stroke-miterlimit="10" cx="79.206" cy="92.019" r="8.002"/>
		
			<circle fill="none" stroke="#333333" stroke-width="2" stroke-linecap="round" stroke-linejoin="round" stroke-miterlimit="10" cx="64.25" cy="68.976" r="8.003"/>
		<path fill="none" stroke="#333333" stroke-width="2" stroke-linecap="round" stroke-linejoin="round" stroke-miterlimit="10" d="
			M109.603,27.882c7.766,9.729,12.477,22.01,12.644,35.393c0.399,31.979-25.292,58.321-57.271,58.721
			C32.996,122.396,6.653,96.704,6.254,64.725S31.546,6.404,63.524,6.004 M63.524,6.004c13.96-0.174,26.846,4.623,36.968,12.745"/>
	</g>
</g>
</svg>
