<?xml version="1.0" encoding="utf-8"?>
<!-- Generator: Adobe Illustrator 16.0.0, SVG Export Plug-In . SVG Version: 6.00 Build 0)  -->
<!DOCTYPE svg PUBLIC "-//W3C//DTD SVG 1.1//EN" "http://www.w3.org/Graphics/SVG/1.1/DTD/svg11.dtd">
<svg version="1.1" id="Layer_1" xmlns="http://www.w3.org/2000/svg" xmlns:xlink="http://www.w3.org/1999/xlink" x="0px" y="0px"
	 width="128px" height="128px" viewBox="0 0 128 128" enable-background="new 0 0 128 128" xml:space="preserve">
<g>
	<g>
		<path fill="#73BADD" d="M4.068,1.95C3.777,1.658,3.4,1.502,3,1.502S2.223,1.658,1.939,1.941S1.5,2.602,1.5,3.002
			c0,0.401,0.156,0.777,0.439,1.061l1.116,1.17l2.174-2.174L4.068,1.95z"/>
		<polygon fill="#E07D46" points="5.953,3.749 3.746,5.955 14.799,17.53 17.527,14.802 		"/>
		<polygon fill="#BC3F2C" points="18.251,15.492 15.49,18.253 20.325,23.317 23.314,20.328 		"/>
		<polygon fill="#E8BB85" points="24.039,21.019 21.016,24.04 116.833,124.357 124.355,116.834 		"/>
		<path fill="#7C5135" d="M118.777,126.418c0.064,0.064,0.207,0.08,0.312,0.08c0.826,0,2.604-0.892,4.56-2.847
			c2.471-2.472,3.118-4.521,2.759-4.88l-2.268-2.184l-7.555,7.555L118.777,126.418z"/>
	</g>
	<g>
		<g>
			<path fill="none" stroke="#333333" stroke-width="2" stroke-linecap="round" stroke-linejoin="round" stroke-miterlimit="10" d="
				M124.005,124.005c-2.304,2.305-4.806,3.54-5.587,2.759L1.588,4.417c-0.781-0.781-0.781-2.047,0-2.828
				c0.781-0.781,2.048-0.781,2.828,0l122.348,116.83C127.545,119.199,126.309,121.701,124.005,124.005z"/>
		</g>
		
			<line fill="none" stroke="#333333" stroke-width="2" stroke-linecap="round" stroke-linejoin="round" stroke-miterlimit="10" x1="116.296" y1="124.562" x2="121.125" y2="119.733"/>
		
			<line fill="none" stroke="#333333" stroke-width="2" stroke-linecap="round" stroke-linejoin="round" stroke-miterlimit="10" x1="3.36" y1="5.637" x2="5.637" y2="3.36"/>
		
			<line fill="none" stroke="#333333" stroke-width="2" stroke-linecap="round" stroke-linejoin="round" stroke-miterlimit="10" x1="20.65" y1="23.701" x2="23.697" y2="20.655"/>
		
			<line fill="none" stroke="#333333" stroke-width="2" stroke-linecap="round" stroke-linejoin="round" stroke-miterlimit="10" x1="14.994" y1="18.044" x2="18.04" y2="14.999"/>
	</g>
</g>
</svg>
