<?xml version="1.0" encoding="utf-8"?>
<!-- Generator: Adobe Illustrator 16.0.0, SVG Export Plug-In . SVG Version: 6.00 Build 0)  -->
<!DOCTYPE svg PUBLIC "-//W3C//DTD SVG 1.1//EN" "http://www.w3.org/Graphics/SVG/1.1/DTD/svg11.dtd">
<svg version="1.1" id="Layer_1" xmlns="http://www.w3.org/2000/svg" xmlns:xlink="http://www.w3.org/1999/xlink" x="0px" y="0px"
	 width="128px" height="128px" viewBox="0 0 128 128" enable-background="new 0 0 128 128" xml:space="preserve">
<g>
	<g>
		<path fill="#CDEEF9" d="M103.939,44.586C95.676,24.673,76.473,11.83,54.879,11.83C25.594,11.83,1.77,35.655,1.77,64.94
			c0,15.334,6.615,29.895,18.162,39.992c10.416-2.771,21.412-1.007,32.695,5.255c9.914,5.501,19.426,5.991,26.098,1.34
			c4.771-3.326,7.184-8.967,6.295-14.719c-0.127-0.822-0.293-1.77-0.477-2.817l-0.025-0.149l2.037-36.006L103.939,44.586z"/>
		<path fill="none" d="M96.904,95.32c3.25,9.908,10.428,13.68,14.188,13.68H121V95H96.801c0.002,0,0.002-0.028,0.004-0.023
			C96.838,95.12,96.871,95.221,96.904,95.32z"/>
		<path fill="none" d="M95.182,90H121v-7H92.92c0.314,1,0.627,1.918,0.93,2.8C94.314,87.154,94.756,88,95.182,90z"/>
		<path fill="#CDEEF9" d="M82.596,62.892c-1.893,3.266-3.105,7.199-3.604,11.72l3.979,2.492c0.189-3.032,0.68-5.853,1.49-8.232
			C83.76,66.623,83.125,64.587,82.596,62.892z"/>
		<path fill="#ACD9EA" d="M81.877,60.583l-6.547,2.843c-0.029,0.013-3.441,1.594-5.012,4.996l-0.223,0.615l7.963,4.99
			c0.59-4.819,1.977-8.994,4.139-12.416C82.084,61.248,81.977,60.899,81.877,60.583z"/>
		<path fill="#CDEEF9" d="M78.736,80.66c0.047,2.775,0.287,5.837,0.754,9.189C79.494,89.874,79.486,90,79.486,90h4.213
			c-0.348-3-0.574-4.575-0.703-6.568L78.736,80.66z"/>
		<path fill="#ACD9EA" d="M57.1,93.606c-0.461-0.656-0.59-1.787-0.305-2.578l8.867-24.405c0.021-0.062,0.045-0.125,0.07-0.18
			c2.396-5.297,7.395-7.493,7.605-7.584l25.883-11.224c-2.605-6.326-6.635-12.148-11.672-16.842l-9.418-6.869
			c-7.107-3.976-15.219-6.094-23.408-6.094c-26.529,0-48.111,21.582-48.111,48.11c0,12.938,5.32,25.506,14.604,34.522
			c2.76-0.555,5.477-0.824,8.299-0.824c8.262,0,16.803,2.414,25.383,7.176c4.609,2.56,8.977,3.857,12.977,3.857
			c4.098,0,7.578-1.427,9.799-4.018c1.91-2.23,2.709-5.101,2.25-8.082c-0.115-0.74-0.264-1.506-0.426-2.438L79.285,95H59.146
			C58.131,95,57.377,94.002,57.1,93.606z M48.234,94.375c-3.572,0-6.477-2.906-6.477-6.478s2.904-6.477,6.477-6.477
			s6.479,2.905,6.479,6.477S51.807,94.375,48.234,94.375z"/>
		<path fill="#ACD9EA" d="M68.35,74.175L62.711,90h15.781c-0.504-4-0.754-6.881-0.77-9.862L68.35,74.175z"/>
		<path fill="#CDEEF9" d="M104.66,50.395l-19.17,8.443c0.309,1,0.715,2.333,1.189,3.896c2.279-2.885,5.381-4.969,9.273-6.24
			c1.141-0.373,2.346-0.683,3.621-0.916c1.941-0.354,4.035-0.549,6.283-0.578C105.535,53.453,105.125,51.912,104.66,50.395z"/>
		<path fill="#AEB1B4" d="M125.273,79H91.984c-0.219,0-0.41-0.22-0.477-0.428c-0.051-0.159-0.102-0.357-0.152-0.517
			c-1.711-5.39-3.379-10.892-4.607-14.927c-0.557-1.832-1.02-3.36-1.346-4.411c-0.074-0.243,0.043-0.509,0.275-0.611l16.92-7.455
			l3.486-1.536l0.062-0.028c0.367-0.159,0.648-0.462,0.799-0.854c0.148-0.388,0.141-0.82-0.018-1.186
			c-0.242-0.557-0.805-0.931-1.402-0.931c-0.197,0-0.389,0.04-0.572,0.119l-0.658,0.286l-30.561,13.25
			c-0.051,0.021-4.854,2.126-7.09,7.07L66.6,66.95l-8.863,24.381c-0.174,0.478-0.09,1.316,0.182,1.702
			C58.205,93.442,58.699,94,59.146,94h25.215h0.494h0.502h7.525c0.572,0,0.723,0.556,0.998,1.709
			c0.076,0.321,0.15,0.676,0.223,0.898C98.039,108.605,107.018,113,112.092,113h13.182c0.758,0,0.727-1.488,0.727-2.19V79.821
			C126,78.988,126.088,79,125.273,79z M69.018,69.075l0.377-1.034c1.76-3.819,5.494-5.515,5.533-5.531l7.062-3.066
			c0.131-0.056,0.277-0.055,0.408,0.005c0.129,0.059,0.227,0.17,0.27,0.306c1.238,3.988,4.033,12.96,6.734,21.521
			c0.064,0.2-0.004,0.418-0.17,0.546c-0.09,0.069-0.197,0.104-0.307,0.104c-0.092,0-0.184-0.025-0.266-0.076l-5.012-3.141
			l-0.727-0.455l-13.699-8.584C69.021,69.544,68.938,69.296,69.018,69.075z M91.992,90.727C91.898,90.849,91.752,91,91.598,91h-5.51
			H62.002c-0.164,0-0.316-0.158-0.41-0.291s-0.115-0.344-0.061-0.497l6.088-17.021c0.051-0.143,0.164-0.265,0.309-0.314
			c0.143-0.05,0.301-0.036,0.43,0.045l14.838,9.375l0.764,0.481l4.32,2.729l2.779,1.757c0.098,0.063,0.172,0.159,0.209,0.271
			l0.166,0.517c0.219,0.683,0.436,1.395,0.646,2.202C92.119,90.404,92.088,90.604,91.992,90.727z M123,109.341
			c0,0.276,0.008,0.659-0.27,0.659h-0.5h-10.139c-4.039,0-11.723-3.958-15.137-14.367c-0.041-0.121-0.082-0.33-0.123-0.502
			c-0.029-0.12-0.072-0.325-0.105-0.426c-0.086-0.09-0.137-0.142-0.137-0.274c0-0.276,0.223-0.431,0.5-0.431h25.641
			c0.277,0,0.27,0.065,0.27,0.341V109.341z M123,90.341c0,0.276,0.008,0.659-0.27,0.659h-0.5H95.797
			c-0.227,0-0.426-0.232-0.482-0.452c-0.447-1.697-0.914-3.1-1.41-4.543c-0.369-1.074-0.752-2.206-1.139-3.501
			c-0.045-0.151-0.016-0.245,0.078-0.372C92.939,82.005,93.088,82,93.246,82h29.484c0.277,0,0.27,0.065,0.27,0.341V90.341z"/>
		<path fill="#EF934A" d="M48.234,82.421c-3.02,0-5.477,2.457-5.477,5.477c0,3.021,2.457,5.478,5.477,5.478
			c3.021,0,5.479-2.457,5.479-5.478C53.713,84.878,51.256,82.421,48.234,82.421z"/>
	</g>
	<g>
		<path fill="none" stroke="#333333" stroke-width="2" stroke-linecap="round" stroke-linejoin="round" stroke-miterlimit="10" d="
			M83.486,83.257c0.146,2.297,0.414,4.524,0.717,6.584"/>
		<path fill="none" stroke="#333333" stroke-width="2" stroke-linecap="round" stroke-linejoin="round" stroke-miterlimit="10" d="
			M84.969,68.806c-0.994,2.867-1.447,5.978-1.568,9.1"/>
		<path fill="none" stroke="#333333" stroke-width="2" stroke-linecap="round" stroke-linejoin="round" stroke-miterlimit="10" d="
			M106.109,50.106c0.543,1.76,0.998,3.559,1.359,5.39c-10.32,0-16.424,3.338-19.906,8.21"/>
		<path fill="none" stroke="#333333" stroke-width="2" stroke-linecap="round" stroke-linejoin="round" stroke-miterlimit="10" d="
			M85.514,97.732c2.051,13.27-12.617,25.275-33.129,13.893c-14.963-8.305-26.127-6.908-32.58-5.14
			C8.451,96.655,1.27,82.136,1.27,65.94c0-29.608,24.002-53.61,53.609-53.61c22.492,0,41.748,13.853,49.703,33.491"/>
		<path fill="none" stroke="#333333" stroke-width="2" stroke-linecap="round" stroke-linejoin="round" stroke-miterlimit="10" d="
			M125.273,78.5H91.984c-2.549-8-5.043-16.448-6.104-19.86l20.467-9.055c1.014-0.44,1.479-1.702,1.039-2.716
			c-0.439-1.012-1.619-1.52-2.631-1.082L73.535,59.319c-0.205,0.088-5.045,2.232-7.346,7.321c-0.021,0.046-0.041,0.089-0.059,0.136
			L57.266,91.16c-0.223,0.613-0.131,1.625,0.242,2.159c0.375,0.534,0.986,1.181,1.639,1.181h33.736c0.264,0,0.514,1.598,0.746,2.303
			c4.016,12.24,13.242,16.697,18.463,16.697h13.182c1.104,0,1.227-1.585,1.227-2.69V79.821C126.5,78.716,126.377,78.5,125.273,78.5z
			 M122.5,82.5v8H95.797c-0.787-3-1.656-5-2.551-8H122.5z M75.131,62.966l7.059-3.064c1.24,3.988,4.035,12.961,6.736,21.523
			l-19.438-12.18l0.375-1.034C71.527,64.607,75.104,62.978,75.131,62.966z M62.002,90.5l6.088-17.081l22.701,14.387
			c0.273,0.863,0.545,1.694,0.807,2.694H62.002z M112.092,109.5c-3.902,0-11.334-3.797-14.662-13.944
			c-0.109-0.33-0.225-1.056-0.34-1.056h25.41v15H112.092z"/>
		
			<circle fill="none" stroke="#333333" stroke-width="2" stroke-linecap="round" stroke-linejoin="round" stroke-miterlimit="10" cx="48.235" cy="87.898" r="5.978"/>
		<path fill="none" stroke="#333333" stroke-width="2" stroke-linecap="round" stroke-linejoin="round" stroke-miterlimit="10" d="
			M79.783,94.79c0.094,0.545,0.092,0.524,0.18,1.024c0.174,0.996,0.332,1.897,0.453,2.682c0.482,3.129-0.357,6.141-2.365,8.483
			c-2.316,2.703-5.932,4.192-10.178,4.192c-4.086,0-8.533-1.318-13.219-3.92c-8.504-4.719-16.963-7.113-25.141-7.113
			c-2.859,0-5.648,0.285-8.457,0.867C11.529,91.854,6.111,79.212,6.111,65.94c0-26.804,21.807-48.61,48.611-48.61 M78.219,79.836
			c0.008,3.52,0.35,6.941,0.777,10.002 M82.74,61.677c-2.566,3.969-3.809,8.557-4.283,13.186 M87.889,30.425
			c5.098,4.75,9.191,10.598,11.881,17.213 M54.723,17.33c8.529,0,16.639,2.234,23.703,6.189"/>
		<path fill="none" stroke="#333333" stroke-width="2" stroke-linecap="round" stroke-linejoin="round" stroke-miterlimit="10" d="
			M85.113,95.347c0.152,0.876,0.291,1.677,0.4,2.385c2.051,13.27-12.617,25.275-33.129,13.893
			c-14.963-8.305-26.127-6.908-32.58-5.14C8.451,96.655,1.27,82.136,1.27,65.94c0-29.608,24.002-53.61,53.609-53.61
			c22.492,0,41.748,13.853,49.703,33.491"/>
	</g>
</g>
</svg>
