<?xml version="1.0" encoding="utf-8"?>
<!-- Generator: Adobe Illustrator 16.0.0, SVG Export Plug-In . SVG Version: 6.00 Build 0)  -->
<!DOCTYPE svg PUBLIC "-//W3C//DTD SVG 1.1//EN" "http://www.w3.org/Graphics/SVG/1.1/DTD/svg11.dtd">
<svg version="1.1" id="Layer_1" xmlns="http://www.w3.org/2000/svg" xmlns:xlink="http://www.w3.org/1999/xlink" x="0px" y="0px"
	 width="128px" height="128px" viewBox="0 0 128 128" enable-background="new 0 0 128 128" xml:space="preserve">
<g>
	<g>
		<path fill="none" d="M53.223,47.531c0.1-0.016,0.199-0.031,0.303-0.031C53.422,47.5,53.32,47.511,53.223,47.531z"/>
		<path fill="#AEB1B4" d="M56.125,52l-2.009,47.055C54.382,99.027,54.648,99,54.924,99h19.178c0.273,0,0.54,0.029,0.806,0.059
			L72.951,52H56.125z"/>
		<path fill="none" d="M73.5,47.5c0.104,0,0.203,0.016,0.303,0.031C73.705,47.511,73.604,47.5,73.5,47.5z"/>
		<path fill="#676767" d="M90,122h-0.5H41c-0.827,0-2,0.173-2,1v1c0,0.827,1.173,2,2,2h49c0.827,0,1-1.173,1-2v-0.5V123
			C91,122.173,90.827,122,90,122z"/>
		<path fill="#676767" d="M49.598,102.994c0.619-0.1,1.252,0.006,1.902,1.006H77c0.836-1,1.642-1.069,2.417-0.901
			c-0.955-1.99-2.989-3.099-5.316-3.099H54.924C52.527,100,50.532,101.04,49.598,102.994z"/>
		<polygon fill="#AEB1B4" points="56.919,32 56.285,48 72.729,48 72.104,32 		"/>
		<path fill="#E8E3E3" d="M50.116,11.726l3.812,17.241C54.112,29.792,55.159,31,56.233,31h0.206h16.145h0.205
			c1.075,0,2.122-1.208,2.305-2.032l3.813-17.117c0.066-0.296,0.017-0.361-0.146-0.563C78.52,10.985,78.052,11,77.479,11H51.545
			c-0.574,0-1.042-0.077-1.284,0.225C50.099,11.428,50.05,11.431,50.116,11.726z"/>
		<path fill="#676767" d="M73.914,51H74.5c0.827,0,1.5-0.923,1.5-1.75c0-0.724-0.515-1.204-1.197-1.344
			C74.703,47.891,74.604,48,74.5,48h-1.233c-0.007,0-0.014,0-0.021,0H72.5h-7H54.525c-0.104,0-0.203-0.234-0.303-0.219
			c-0.683,0.14-1.197,0.87-1.197,1.594c0,0.827,0.673,1.625,1.5,1.625h0.663h0.477h0.494H73.914z"/>
		<path fill="#7D8B95" d="M42,112.562L41,122h46v-9.5c0-5.047-4.673-8.5-10-8.5h-7.5h-18C45.986,104,42,107.565,42,112.562z"/>
		<path fill="#AEB1B4" d="M64.562,2h-0.938C61.668,2,60,2.621,60,4.5V10h7V4.5C67,2.565,66.457,2,64.562,2z"/>
	</g>
	<g>
		<path fill="none" stroke="#333333" stroke-width="2" stroke-linecap="round" stroke-linejoin="round" stroke-miterlimit="10" d="
			M91.5,124.5c0,1.104-0.896,2-2,2h-49c-1.104,0-2-0.896-2-2v-1c0-1.104,0.896-2,2-2h49c1.104,0,2,0.896,2,2V124.5z"/>
		<path fill="none" stroke="#333333" stroke-width="2" stroke-linecap="round" stroke-linejoin="round" stroke-miterlimit="10" d="
			M76.125,103.326c5.5,0,11.375,3.736,11.375,9.236V121"/>
		<path fill="none" stroke="#333333" stroke-width="2" stroke-linecap="round" stroke-linejoin="round" stroke-miterlimit="10" d="
			M41.562,121.229L41.5,112.5c0-4.96,3.94-9,10-9H69"/>
		<path fill="none" stroke="#333333" stroke-width="2" stroke-linecap="round" stroke-linejoin="round" stroke-miterlimit="10" d="
			M48.961,103.082c0.933-2.383,3.259-3.582,5.962-3.582h19.178c2.701,0,5.025,1.446,5.96,3.826"/>
		
			<line fill="none" stroke="#333333" stroke-width="2" stroke-linecap="round" stroke-linejoin="round" stroke-miterlimit="10" x1="73.414" y1="51.484" x2="75.417" y2="98.5"/>
		
			<polyline fill="none" stroke="#333333" stroke-width="2" stroke-linecap="round" stroke-linejoin="round" stroke-miterlimit="10" points="
			55.776,46.943 56.439,31.5 72.583,31.5 73.247,47.172 		"/>
		
			<line fill="none" stroke="#333333" stroke-width="2" stroke-linecap="round" stroke-linejoin="round" stroke-miterlimit="10" x1="53.606" y1="98.5" x2="55.666" y2="51.484"/>
		<path fill="none" stroke="#333333" stroke-width="2" stroke-linecap="round" stroke-linejoin="round" stroke-miterlimit="10" d="
			M75.583,29.076c-0.241,1.082-1.498,2.424-2.793,2.424H56.233c-1.295,0-2.552-1.342-2.793-2.424L49.628,12.21
			c-0.241-1.08,0.622-1.71,1.917-1.71h25.933c1.295,0,2.158,0.63,1.917,1.71L75.583,29.076z"/>
		<path fill="none" stroke="#333333" stroke-width="2" stroke-linecap="round" stroke-linejoin="round" stroke-miterlimit="10" d="
			M72,47.5h2.5c1.1,0,2,0.9,2,2l0,0c0,1.1-0.9,2-2,2H54.525c-1.1,0-2-0.9-2-2l0,0c0-1.1,0.9-2,2-2H65"/>
		<path fill="none" stroke="#333333" stroke-width="2" stroke-linecap="round" stroke-linejoin="round" stroke-miterlimit="10" d="
			M60.5,10V4.5c0-2.2,2.133-3,4.333-3h0.583c2.2,0,3.083,0.8,3.083,3V10"/>
	</g>
</g>
</svg>
