<?xml version="1.0" encoding="utf-8"?>
<!-- Generator: Adobe Illustrator 16.0.0, SVG Export Plug-In . SVG Version: 6.00 Build 0)  -->
<!DOCTYPE svg PUBLIC "-//W3C//DTD SVG 1.1//EN" "http://www.w3.org/Graphics/SVG/1.1/DTD/svg11.dtd">
<svg version="1.1" id="Layer_1" xmlns="http://www.w3.org/2000/svg" xmlns:xlink="http://www.w3.org/1999/xlink" x="0px" y="0px"
	 width="128px" height="128px" viewBox="0 0 128 128" enable-background="new 0 0 128 128" xml:space="preserve">
<g>
	<g>
		<path fill="#3C8E51" d="M64,113.009c-30.133,0-55.413-10.311-61.878-24.088c2.075,15.646,29.017,28.071,61.856,28.071
			c32.743,0,59.622-12.353,61.835-27.936C119.246,102.766,94.034,113.009,64,113.009z"/>
		<path fill="#CC0000" d="M74.406,81.508c-0.1-0.47-0.354-0.929-0.757-1.348c-1.355-1.409-4.661-2.287-4.694-2.295
			c-1.234-0.279-2.57-0.423-3.955-0.423c-4.816,0-8.93,1.82-9.407,4.065c-0.03,0.144-0.048,0.289-0.048,0.436
			c0,2.439,4.33,4.501,9.455,4.501s9.455-2.062,9.455-4.501C74.455,81.798,74.437,81.652,74.406,81.508z"/>
		<path fill="#54B265" d="M126.444,81.015C125.368,64.911,97.781,51.968,64,51.968c-6.821,0-13.516,0.526-19.919,1.565
			C44.049,53.538,44,53.53,44,53.529v23.479C44,77.284,43.755,78,43.479,78h-0.5h-3.5C39.202,78,39,77.284,39,77.008V54.486
			C17,59.16,2.319,69.442,1.552,81.021c-0.01,0.162-0.019,0.324-0.024,0.487c-0.004,0.16-0.021,0.32-0.021,0.48
			c0,1.231,0.172,2.443,0.473,3.636c3.75,14.844,30.124,26.385,62.021,26.385c31.781,0,58.077-11.457,61.978-26.223
			c0.329-1.245,0.518-2.511,0.518-3.798C126.496,81.662,126.467,81.339,126.444,81.015z"/>
		<path fill="#F4EFEF" d="M41.5,11.008c-0.827,0-1.5,0.673-1.5,1.5v40.765c0-0.001,0.066,0.005,0.088,0.013
			C40.059,53.281,40,53.271,40,53.272v0.493v0.511V77h3V53.223V40.523V14.584v-2.076C43,11.681,42.327,11.008,41.5,11.008z"/>
		<polygon fill="#BC3F2C" points="44,15.349 44,39.759 71.861,27.554 		"/>
	</g>
	<g>
		<path fill="none" stroke="#333333" stroke-width="2" stroke-linecap="round" stroke-linejoin="round" stroke-miterlimit="10" d="
			M44.253,53.04c6.286-1.021,13.016-1.572,20.01-1.572c34.791,0,62.996,13.664,62.996,30.521s-28.205,30.521-62.996,30.521
			S1.267,98.845,1.267,81.988c0-12.538,15.604-23.31,37.918-28.006"/>
		<path fill="none" stroke="#333333" stroke-width="2" stroke-linecap="round" stroke-linejoin="round" stroke-miterlimit="10" d="
			M73.272,79.813c0.605,0.646,0.945,1.368,0.945,2.13c0,2.762-4.457,5.001-9.955,5.001s-9.955-2.239-9.955-5.001
			s4.457-5.001,9.955-5.001c1.455,0,2.836,0.157,4.082,0.438"/>
		<g>
			<path fill="none" stroke="#333333" stroke-width="2" stroke-linecap="round" stroke-linejoin="round" stroke-miterlimit="10" d="
				M39.5,77.5V12.508c0-1.104,0.896-2,2-2s2,0.896,2,2V77.5H39.5z"/>
		</g>
		
			<polygon fill="none" stroke="#333333" stroke-width="2" stroke-linecap="round" stroke-linejoin="round" stroke-miterlimit="10" points="
			73.107,27.554 43.5,40.523 43.5,14.584 		"/>
		<path fill="none" stroke="#333333" stroke-width="2" stroke-linecap="round" stroke-linejoin="round" stroke-miterlimit="10" d="
			M127.121,81.587l-0.19,5.877c0,16.852-28.549,30.09-63.34,30.09S0.5,103.832,0.5,86.98V82"/>
	</g>
</g>
</svg>
