<?xml version="1.0" encoding="utf-8"?>
<!-- Generator: Adobe Illustrator 16.0.0, SVG Export Plug-In . SVG Version: 6.00 Build 0)  -->
<!DOCTYPE svg PUBLIC "-//W3C//DTD SVG 1.1//EN" "http://www.w3.org/Graphics/SVG/1.1/DTD/svg11.dtd">
<svg version="1.1" id="Layer_1" xmlns="http://www.w3.org/2000/svg" xmlns:xlink="http://www.w3.org/1999/xlink" x="0px" y="0px"
	 width="128px" height="128px" viewBox="0 0 128 128" enable-background="new 0 0 128 128" xml:space="preserve">
<g>
	<g>
		<path fill="#F4EFEF" d="M98.592,2h-0.5H29.408C25.599,2,22,4.599,22,8.408V64h4.5h75h3.5V8.908v-0.5C105,4.599,102.401,2,98.592,2
			z"/>
		<path fill="#E8E3E3" d="M101,119.043c0,1.632-0.676,3.957-2.25,3.957H29.862c-1.571,0-3.862-2.342-3.862-3.957V65h-4v54.592
			c0,3.81,3.599,7.408,7.408,7.408h69.184c3.81,0,6.408-3.599,6.408-7.408V65h-4V119.043z"/>
		<path fill="#CDEEF9" d="M29.862,122h25.006c-0.006-1-0.001-0.38,0.019-0.445c1.301-4.259,5.146-7.245,9.566-7.245
			s8.265,3.049,9.566,7.308c0.02,0.065,0.025-0.617,0.019,0.383H98.75c0.942,0,1.25-1.851,1.25-2.957V65H79.968
			c-0.561,8-7.293,14.48-15.511,14.48c-8.216,0-14.949-6.48-15.51-14.48H27v54.043C27,120.1,28.847,122,29.862,122z M80.525,87.945
			c6.341,0,11.5,5.159,11.5,11.5s-5.159,11.5-11.5,11.5c-6.341,0-11.5-5.159-11.5-11.5S74.184,87.945,80.525,87.945z M48.525,87.945
			c6.341,0,11.5,5.159,11.5,11.5s-5.159,11.5-11.5,11.5s-11.5-5.159-11.5-11.5S42.184,87.945,48.525,87.945z"/>
		<path fill="#CC0000" d="M54.895,122c-0.005,0-0.012-1-0.017,0h17.151c-0.005-1-0.012,0-0.017,0H54.895z"/>
		<path fill="#F4EFEF" d="M48.893,63.666c0-8.583,6.982-15.69,15.564-15.69c8.583,0,15.565,7.17,15.565,15.753
			c0,0.028-0.004-0.729-0.004,0.271H100V8.312C100,7.008,100.01,7,98.75,7C98.3,7,87.197,7,74.033,7c0,0,0.001-0.152-0.014-0.104
			c-1.301,4.259-5.146,6.995-9.566,6.995s-8.265-2.674-9.566-6.933C54.872,6.91,54.873,7,54.873,7C41.311,7,29.862,7,29.862,7
			C28.361,7,27,7.351,27,8.833V64h21.897C48.896,63,48.893,63.694,48.893,63.666z M80.525,16.006c6.341,0,11.5,5.159,11.5,11.5
			s-5.159,11.5-11.5,11.5c-6.341,0-11.5-5.159-11.5-11.5S74.184,16.006,80.525,16.006z M37.025,27.506c0-6.341,5.159-11.5,11.5-11.5
			s11.5,5.159,11.5,11.5s-5.159,11.5-11.5,11.5S37.025,33.847,37.025,27.506z"/>
		<path fill="#F4EFEF" d="M64.457,78.48c7.666,0,13.952-6.48,14.511-13.48H49.947C50.506,72,56.792,78.48,64.457,78.48z"/>
		<path fill="#CDEEF9" d="M79.022,63.666c0-8.031-6.534-14.69-14.565-14.69c-8.031,0-14.564,6.722-14.564,14.753
			c0,0.028,0.004-0.729,0.004,0.271h29.121C79.019,63,79.022,63.694,79.022,63.666z"/>
		<path fill="#CC0000" d="M77.968,65c0.024-1,0.048-1,0.05-1H48.897c0.002,0,0.026,0,0.05,1H77.968z"/>
		<path fill="#AEB1B4" d="M64.453,14.267c3.926,0,7.343-3.267,8.559-6.267c-5.594,0-11.513,0-17.117,0
			C57.11,11,60.527,14.267,64.453,14.267z"/>
		<path fill="#AEB1B4" d="M64.453,115.733c-3.926,0-7.343,2.267-8.559,6.267h17.117C71.796,118,68.379,115.733,64.453,115.733z"/>
		<path fill="#CDEEF9" d="M48.525,17.006c-5.79,0-10.5,4.71-10.5,10.5s4.71,10.5,10.5,10.5s10.5-4.71,10.5-10.5
			S54.315,17.006,48.525,17.006z M48.525,28.898c-0.768,0-1.393-0.625-1.393-1.393s0.625-1.393,1.393-1.393s1.393,0.625,1.393,1.393
			S49.293,28.898,48.525,28.898z"/>
		<path fill="#CDEEF9" d="M80.525,38.006c5.79,0,10.5-4.71,10.5-10.5s-4.71-10.5-10.5-10.5s-10.5,4.71-10.5,10.5
			S74.736,38.006,80.525,38.006z M80.525,26.113c0.768,0,1.393,0.625,1.393,1.393s-0.625,1.393-1.393,1.393
			s-1.393-0.625-1.393-1.393S79.757,26.113,80.525,26.113z"/>
		<path fill="#F4EFEF" d="M48.525,109.945c5.79,0,10.5-4.71,10.5-10.5s-4.71-10.5-10.5-10.5s-10.5,4.71-10.5,10.5
			S42.736,109.945,48.525,109.945z M48.525,98.194c0.768,0,1.393,0.625,1.393,1.393s-0.625,1.393-1.393,1.393
			s-1.393-0.625-1.393-1.393S47.757,98.194,48.525,98.194z"/>
		<path fill="#F4EFEF" d="M80.525,109.945c5.79,0,10.5-4.71,10.5-10.5s-4.71-10.5-10.5-10.5s-10.5,4.71-10.5,10.5
			S74.736,109.945,80.525,109.945z M80.525,98.194c0.768,0,1.393,0.625,1.393,1.393s-0.625,1.393-1.393,1.393
			s-1.393-0.625-1.393-1.393S79.757,98.194,80.525,98.194z"/>
		<circle fill="#CC0000" cx="47.525" cy="27.506" r="0.393"/>
		<circle fill="#CC0000" cx="79.525" cy="27.506" r="0.393"/>
		<circle fill="#CC0000" cx="47.525" cy="99.587" r="0.393"/>
		<circle fill="#CC0000" cx="79.525" cy="99.587" r="0.393"/>
	</g>
	<g>
		<path fill="none" stroke="#333333" stroke-width="2" stroke-linecap="round" stroke-linejoin="round" stroke-miterlimit="10" d="
			M105.5,120.092c0,4.091-3.317,7.408-7.408,7.408H28.908c-4.091,0-7.408-3.317-7.408-7.408V8.908c0-4.091,3.317-7.408,7.408-7.408
			h69.184c4.091,0,7.408,3.317,7.408,7.408V120.092z"/>
		
			<line fill="none" stroke="#333333" stroke-width="2" stroke-linecap="round" stroke-linejoin="round" stroke-miterlimit="10" x1="22" y1="64.5" x2="105" y2="64.5"/>
		<path fill="none" stroke="#333333" stroke-width="2" stroke-linecap="round" stroke-linejoin="round" stroke-miterlimit="10" d="
			M79.522,63.416c0,8.32-6.744,15.064-15.065,15.064c-8.323,0-15.065-6.744-15.065-15.064c0-8.321,6.742-15.065,15.065-15.065
			C72.778,48.351,79.522,55.095,79.522,63.416z"/>
		<path fill="none" stroke="#333333" stroke-width="2" stroke-linecap="round" stroke-linejoin="round" stroke-miterlimit="10" d="
			M55.365,6.5c1.195,3.908,4.79,6.767,9.088,6.767c4.298,0,7.894-2.858,9.088-6.767"/>
		<path fill="none" stroke="#333333" stroke-width="2" stroke-linecap="round" stroke-linejoin="round" stroke-miterlimit="10" d="
			M73.542,121.451c-1.195-3.908-4.79-6.767-9.088-6.767c-4.299,0-7.894,2.858-9.088,6.767"/>
		<path fill="none" stroke="#333333" stroke-width="2" stroke-linecap="round" stroke-linejoin="round" stroke-miterlimit="10" d="
			M100.5,19v100.043c0,1.306-0.088,3.457-1.393,3.457H29.862c-1.306,0-3.362-2.151-3.362-3.457V7.908
			c0-1.306,2.057-1.408,3.362-1.408H97.5c0,0,2.75,0.001,2.75,3.834"/>
		
			<circle fill="none" stroke="#333333" stroke-width="2" stroke-linecap="round" stroke-linejoin="round" stroke-miterlimit="10" cx="48.525" cy="27.506" r="11"/>
		
			<circle fill="none" stroke="#333333" stroke-width="2" stroke-linecap="round" stroke-linejoin="round" stroke-miterlimit="10" cx="80.525" cy="27.506" r="11"/>
		
			<circle fill="none" stroke="#333333" stroke-width="2" stroke-linecap="round" stroke-linejoin="round" stroke-miterlimit="10" cx="48.525" cy="99.445" r="11"/>
		
			<circle fill="none" stroke="#333333" stroke-width="2" stroke-linecap="round" stroke-linejoin="round" stroke-miterlimit="10" cx="80.525" cy="99.445" r="11"/>
		
			<circle fill="none" stroke="#333333" stroke-width="2" stroke-linecap="round" stroke-linejoin="round" stroke-miterlimit="10" cx="48.525" cy="27.506" r="0.892"/>
		
			<circle fill="none" stroke="#333333" stroke-width="2" stroke-linecap="round" stroke-linejoin="round" stroke-miterlimit="10" cx="80.526" cy="27.506" r="0.892"/>
		
			<circle fill="none" stroke="#333333" stroke-width="2" stroke-linecap="round" stroke-linejoin="round" stroke-miterlimit="10" cx="48.525" cy="99.587" r="0.892"/>
		
			<circle fill="none" stroke="#333333" stroke-width="2" stroke-linecap="round" stroke-linejoin="round" stroke-miterlimit="10" cx="80.526" cy="99.587" r="0.892"/>
	</g>
</g>
</svg>
